<svg width="70" height="20" viewBox="0 0 70 20" fill="none" xmlns="http://www.w3.org/2000/svg">
<g clip-path="url(#clip0_1405_21405)">
<path d="M17.4123 8.63222C19.4237 7.72036 19.5386 3.03951 16.8377 1.03343C15.5734 0.0607903 14.7689 0 12.5277 0C12.2404 0 10.2865 0 8.44757 0C4.71225 0 0 0 0 0V1.70213C0.574665 1.70213 1.0344 1.76292 1.32173 1.94529C1.60906 2.06687 1.83893 2.31003 1.89639 2.61398C2.01133 2.91793 2.06879 3.46505 2.06879 4.13374V16.1094C2.06879 16.7781 2.01133 17.3252 1.89639 17.6292C1.78146 17.9331 1.60906 18.1763 1.32173 18.2979C1.0344 18.4802 0.574665 18.541 0 18.541V20C0 20 4.71225 20 8.44757 20C10.2865 20 12.7001 20 12.9874 20C15.1711 20 16.8951 19.5137 18.1594 18.541C19.4237 17.5684 19.9983 15.7447 19.9983 14.0426C20.0558 10.3343 18.6191 9.30091 17.4123 8.63222ZM9.7693 9.42249C9.82677 9.60486 10.0566 10.0912 10.8037 9.60486C11.6657 9.05775 11.8381 8.93617 11.8381 8.93617C11.8381 8.99696 11.4933 9.66565 11.206 9.90881C10.9186 10.152 10.0566 9.90881 9.82677 10.3951C9.5969 11.003 9.13717 12.2796 9.4245 13.1307C9.82677 14.2857 10.344 14.1641 10.344 14.1641C10.344 14.1641 10.0566 13.8602 10.1716 13.1307C10.1716 13.1307 10.7462 13.2523 11.4933 12.5228C11.4933 12.5228 12.3553 12.5836 13.2748 13.0699C14.3091 13.5562 14.7689 14.9544 14.6539 16.1094C14.539 17.3252 13.1024 18.4802 12.0105 18.4802C11.6657 18.4802 10.344 18.541 8.96477 18.541H5.74665V1.70213H8.96477C10.2865 1.70213 11.6657 1.70213 12.0105 1.70213C14.8838 1.70213 14.8838 3.1003 14.8838 3.70821C14.8838 5.10638 13.1024 5.22796 11.7232 6.01824C10.6313 6.62614 9.53943 7.90274 9.7693 9.42249Z" fill="#D9D9D9"/>
<path d="M30 19.5152H31.2139V0.484848H30V0H35.7803C38.2081 0 39.7688 2.18182 39.7688 4.42424V5.39394C39.7688 7.75758 38.0347 9.51515 36.5318 9.69697C38.3815 9.69697 40 11.7576 40 14.1212V14.9697C40 18.1818 38.2081 19.9394 35.8381 19.9394H30V19.5152ZM35.3179 9.45455C36.3584 9.45455 36.9364 8.06061 36.9364 6.42424V3.93939C36.9364 2.12121 36.7052 0.484848 35.2601 0.484848H33.8728V9.45455H35.3179ZM37.1676 13.1515C37.1676 11.1515 36.474 9.93939 35.4335 9.93939H33.9306V19.5758H35.6647C36.8208 19.5758 37.2254 18.0606 37.2254 15.9394V13.1515H37.1676Z" fill="#1D1D1D"/>
<path d="M40.4046 19.5152L44.1618 0L44.3353 0.121212V0H44.7977L49.5376 19.5152H50.8671V20H45.4913V19.5152H46.5896L45.2601 13.8788H41.9653L40.8671 19.5152H42.0231V20H39.1908V19.5152H40.4046ZM45.2023 13.3939L43.4682 6.18182L42.0809 13.3939H45.2023Z" fill="#1D1D1D"/>
<path d="M49.8844 19.5152L53.6994 0L53.8728 0.121212V0H54.3353L59.0751 19.5152H60.4046V20H55.0289V19.5152H56.1272L54.7977 13.8788H51.5029L50.4046 19.5152H51.5607V20H48.6705V19.5152H49.8844ZM54.6821 13.3939L52.948 6.18182L51.5607 13.3939H54.6821Z" fill="#1D1D1D"/>
<path d="M63.6994 0.484848C62.2543 0.484848 61.6185 0.666667 61.6185 4.30303H61.1561V0H69.6532L63.4104 19.5152H67.1676C68.7861 19.5152 69.5376 19.3939 69.5376 14.8485H70V19.9394H60.2312L66.4162 0.424242H63.6994V0.484848Z" fill="#1D1D1D"/>
</g>
<defs>
<clipPath id="clip0_1405_21405">
<rect width="70" height="20" fill="white"/>
</clipPath>
</defs>
</svg>
