<svg width="84" height="24" viewBox="0 0 84 24" fill="none" xmlns="http://www.w3.org/2000/svg">
<g clip-path="url(#clip0_186_930)">
<path d="M20.8948 10.3587C23.3084 9.26444 23.4463 3.64742 20.2052 1.24012C18.6881 0.0729483 17.7227 0 15.0332 0C14.6884 0 12.3438 0 10.1371 0C5.6547 0 0 0 0 0V2.04255C0.689598 2.04255 1.24128 2.1155 1.58607 2.33435C1.93087 2.48024 2.20671 2.77204 2.27567 3.13678C2.41359 3.50152 2.48255 4.15805 2.48255 4.96049V19.3313C2.48255 20.1337 2.41359 20.7903 2.27567 21.155C2.13775 21.5198 1.93087 21.8116 1.58607 21.9574C1.24128 22.1763 0.689598 22.2492 0 22.2492V24C0 24 5.6547 24 10.1371 24C12.3438 24 15.2401 24 15.5849 24C18.2054 24 20.2742 23.4164 21.7913 22.2492C23.3084 21.0821 23.998 18.8936 23.998 16.8511C24.067 12.4012 22.343 11.1611 20.8948 10.3587ZM11.7232 11.307C11.7921 11.5258 12.068 12.1094 12.9644 11.5258C13.9988 10.8693 14.2057 10.7234 14.2057 10.7234C14.2057 10.7964 13.792 11.5988 13.4472 11.8906C13.1024 12.1824 12.068 11.8906 11.7921 12.4742C11.5163 13.2036 10.9646 14.7356 11.3094 15.7568C11.7921 17.1429 12.4128 16.997 12.4128 16.997C12.4128 16.997 12.068 16.6322 12.2059 15.7568C12.2059 15.7568 12.8955 15.9027 13.792 15.0274C13.792 15.0274 14.8263 15.1003 15.9297 15.6839C17.171 16.2675 17.7227 17.9453 17.5847 19.3313C17.4468 20.7903 15.7228 22.1763 14.4126 22.1763C13.9988 22.1763 12.4128 22.2492 10.7577 22.2492H6.89598V2.04255H10.7577C12.3438 2.04255 13.9988 2.04255 14.4126 2.04255C17.8606 2.04255 17.8606 3.72036 17.8606 4.44985C17.8606 6.12766 15.7228 6.27356 14.0678 7.22188C12.7576 7.95137 11.4473 9.48328 11.7232 11.307Z" fill="#D9D9D9"/>
<path d="M36 23.4182H37.4566V0.581818H36V0H42.9364C45.8497 0 47.7225 2.61818 47.7225 5.30909V6.47273C47.7225 9.30909 45.6416 11.4182 43.8382 11.6364C46.0578 11.6364 48 14.1091 48 16.9455V17.9636C48 21.8182 45.8497 23.9273 43.0058 23.9273H36V23.4182ZM42.3815 11.3455C43.6301 11.3455 44.3237 9.67273 44.3237 7.70909V4.72727C44.3237 2.54545 44.0462 0.581818 42.3121 0.581818H40.6474V11.3455H42.3815ZM44.6012 15.7818C44.6012 13.3818 43.7688 11.9273 42.5202 11.9273H40.7168V23.4909H42.7977C44.185 23.4909 44.6705 21.6727 44.6705 19.1273V15.7818H44.6012Z" fill="#1D1D1D"/>
<path d="M48.4855 23.4182L52.9942 0L53.2023 0.145455V0H53.7572L59.4451 23.4182H61.0405V24H54.5896V23.4182H55.9075L54.3121 16.6545H50.3584L49.0405 23.4182H50.4277V24H47.0289V23.4182H48.4855ZM54.2428 16.0727L52.1618 7.41818L50.4971 16.0727H54.2428Z" fill="#1D1D1D"/>
<path d="M59.8613 23.4182L64.4393 0L64.6474 0.145455V0H65.2023L70.8902 23.4182H72.4856V24H66.0347V23.4182H67.3526L65.7572 16.6545H61.8035L60.4855 23.4182H61.8728V24H58.4046V23.4182H59.8613ZM65.6185 16.0727L63.5376 7.41818L61.8728 16.0727H65.6185Z" fill="#1D1D1D"/>
<path d="M76.4393 0.581818C74.7052 0.581818 73.9422 0.8 73.9422 5.16364H73.3873V0H83.5838L76.0925 23.4182H80.6012C82.5434 23.4182 83.4451 23.2727 83.4451 17.8182H84V23.9273H72.2775L79.6994 0.509091H76.4393V0.581818Z" fill="#1D1D1D"/>
</g>
<defs>
<clipPath id="clip0_186_930">
<rect width="84" height="24" fill="white"/>
</clipPath>
</defs>
</svg>
