<?xml version="1.0" standalone="no"?>
<!DOCTYPE svg PUBLIC "-//W3C//DTD SVG 1.1//EN" "http://www.w3.org/Graphics/SVG/1.1/DTD/svg11.dtd" >
<svg xmlns="http://www.w3.org/2000/svg" xmlns:xlink="http://www.w3.org/1999/xlink" version="1.1">
<metadata>
Created by FontForge 20170812 at Fri Nov 12 22:00:13 2021
 By www-data
Copyright \(c\) 2021 by Omid Emamian &#38; Kamyab Jafari. All rights reserved.
</metadata>
<defs>
<font id="Aria-SemiBold" horiz-adv-x="0" >
  <font-face 
    font-family="Aria Medium"
    font-weight="600"
    font-stretch="normal"
    units-per-em="1000"
    panose-1="0 0 5 0 0 0 0 0 0 0"
    ascent="800"
    descent="-200"
    x-height="465"
    cap-height="643"
    bbox="-182 -564 1983 2356"
    underline-thickness="124"
    underline-position="-483"
    stemh="124"
    stemv="85"
    unicode-range="U+0020-FEFF"
  />
<missing-glyph horiz-adv-x="338" 
 />
    <glyph glyph-name="uniFEFB" unicode="&#xfedf;&#xfe8e;" horiz-adv-x="467" arabic-form="isolated" 
d="M47 104l5 7c27 0 51 1 76 2l-65 450l82 37l47 -379c3 -26 3 -47 -6 -72l-9 -32c72 7 126 20 161 35l-4 502l86 22v-503c0 -161 -221 -186 -359 -186z" />
    <glyph glyph-name="uniFEFC" unicode="&#xfee0;&#xfe8e;" horiz-adv-x="547" arabic-form="final" 
d="M61 -13l-14 117l5 7c27 0 51 1 76 2l-65 450l82 37l47 -379c3 -26 3 -47 -6 -72l-9 -32c72 7 128 20 163 36c-1 11 -2 22 -2 34l-4 467l86 22v-461c0 -71 23 -91 94 -91h33c13 0 23 -27 23 -61c0 -35 -10 -63 -23 -63h-34c-73 0 -120 20 -145 68
c-66 -70 -211 -81 -307 -81z" />
    <glyph glyph-name="uniFEF7" unicode="&#xfedf;&#xfe84;" horiz-adv-x="467" arabic-form="isolated" 
d="M-24 616l12 64l38 15c-21 15 -34 44 -34 72c0 55 43 96 99 102c10 1 20 0 30 -2c11 -1 23 -4 35 -6v-62l-25 3c-14 2 -26 3 -36 3c-26 0 -42 -3 -52 -8c-1 -7 -1 -14 -1 -20c0 -28 19 -45 44 -45c11 0 23 1 34 5l79 22l4 -4l-12 -64l-24 -9c-64 -23 -127 -47 -188 -69z
M47 104l5 7c27 0 51 1 76 2l-65 450l82 37l47 -379c3 -26 3 -47 -6 -72l-9 -32c72 7 126 20 161 35l-4 502l86 22v-503c0 -161 -221 -186 -359 -186z" />
    <glyph glyph-name="uniFEF8" unicode="&#xfee0;&#xfe84;" horiz-adv-x="547" arabic-form="final" 
d="M-24 616l12 64l38 15c-21 15 -34 44 -34 72c0 55 43 96 99 102c10 1 20 0 30 -2c11 -1 23 -4 35 -6v-62l-25 3c-14 2 -26 3 -36 3c-26 0 -42 -3 -52 -8c-1 -7 -1 -14 -1 -20c0 -28 19 -45 44 -45c11 0 23 1 34 5l79 22l4 -4l-12 -64l-24 -9c-64 -23 -127 -47 -188 -69z
M61 -13l-14 117l5 7c27 0 51 1 76 2l-65 450l82 37l47 -379c3 -26 3 -47 -6 -72l-9 -32c72 7 128 20 163 36c-1 11 -2 22 -2 34l-4 467l86 22v-461c0 -71 23 -91 94 -91h33c13 0 23 -27 23 -61c0 -35 -10 -63 -23 -63h-34c-73 0 -120 20 -145 68c-66 -70 -211 -81 -307 -81z
" />
    <glyph glyph-name="uniFEF9" unicode="&#xfedf;&#xfe88;" horiz-adv-x="467" arabic-form="isolated" 
d="M47 104l5 7c27 0 51 1 76 2l-65 450l82 37l47 -379c3 -26 3 -47 -6 -72l-9 -32c72 7 126 20 161 35l-4 502l86 22v-503c0 -161 -221 -186 -359 -186zM57 -312l13 64l38 15c-22 16 -35 44 -35 72c0 56 43 97 100 102c10 1 19 0 29 -2c12 -1 24 -3 36 -5v-62l-25 3
c-14 2 -27 3 -36 3c-26 0 -42 -4 -53 -8c-1 -8 -1 -15 -1 -20c1 -29 20 -45 45 -45c10 0 22 1 34 4l79 22l4 -3l-13 -65l-23 -8l-188 -70z" />
    <glyph glyph-name="uniFEFA" unicode="&#xfee0;&#xfe88;" horiz-adv-x="547" arabic-form="final" 
d="M61 -13l-14 117l5 7c27 0 51 1 76 2l-65 450l82 37l47 -379c3 -26 3 -47 -6 -72l-9 -32c72 7 128 20 163 36c-1 11 -2 22 -2 34l-4 467l86 22v-461c0 -71 23 -91 94 -91h33c13 0 23 -27 23 -61c0 -35 -10 -63 -23 -63h-34c-73 0 -120 20 -145 68
c-66 -70 -211 -81 -307 -81zM57 -312l13 64l38 15c-22 16 -35 44 -35 72c0 56 43 97 100 102c10 1 19 0 29 -2c12 -1 24 -3 36 -5v-62l-25 3c-14 2 -27 3 -36 3c-26 0 -42 -4 -53 -8c-1 -8 -1 -15 -1 -20c1 -29 20 -45 45 -45c10 0 22 1 34 4l79 22l4 -3l-13 -65l-23 -8
l-188 -70z" />
    <glyph glyph-name="uniFEF5" unicode="&#xfedf;&#xfe82;" horiz-adv-x="467" arabic-form="isolated" 
d="M-37 622l-44 29l11 30c11 33 31 69 72 69c50 0 89 -36 251 -3l4 -8l-25 -67c-126 -32 -188 -9 -239 3c-7 -17 -15 -34 -22 -51zM47 104l5 7c27 0 51 1 76 2l-65 450l82 37l47 -379c3 -26 3 -47 -6 -72l-9 -32c72 7 126 20 161 35l-4 502l86 22v-503
c0 -161 -221 -186 -359 -186z" />
    <glyph glyph-name="uniFEF6" unicode="&#xfee0;&#xfe82;" horiz-adv-x="547" arabic-form="final" 
d="M-37 622l-44 29l11 30c11 33 31 69 72 69c50 0 89 -36 251 -3l4 -8l-25 -67c-126 -32 -188 -9 -239 3c-7 -17 -15 -34 -22 -51zM61 -13l-14 117l5 7c27 0 51 1 76 2l-65 450l82 37l47 -379c3 -26 3 -47 -6 -72l-9 -32c72 7 128 20 163 36c-1 11 -2 22 -2 34l-4 467l86 22
v-461c0 -71 23 -91 94 -91h33c13 0 23 -27 23 -61c0 -35 -10 -63 -23 -63h-34c-73 0 -120 20 -145 68c-66 -70 -211 -81 -307 -81z" />
    <glyph glyph-name="uniFEDFFB51" unicode="&#xfedf;&#xfb51;" horiz-adv-x="467" 
d="M-43 626l-6 1l-22 48l123 146c35 42 64 57 106 57c81 0 115 -81 115 -129c0 -69 -47 -95 -162 -95c-55 0 -88 10 -110 20zM113 720c60 0 90 4 111 12c-1 8 -2 18 -5 27c-11 29 -32 54 -68 54c-19 0 -35 -3 -46 -7l-65 -76c16 -6 43 -10 73 -10zM47 104l5 7
c27 0 51 1 76 2l-65 450l82 37l47 -379c3 -26 3 -47 -6 -72l-9 -32c72 7 126 20 161 35l-4 502l86 22v-503c0 -161 -221 -186 -359 -186z" />
    <glyph glyph-name="uniFEE0FB51" unicode="&#xfee0;&#xfb51;" horiz-adv-x="547" 
d="M-43 626l-6 1l-22 48l123 146c35 42 64 57 106 57c81 0 115 -81 115 -129c0 -69 -47 -95 -162 -95c-55 0 -88 10 -110 20zM113 720c60 0 90 4 111 12c-1 8 -2 18 -5 27c-11 29 -32 54 -68 54c-19 0 -35 -3 -46 -7l-65 -76c16 -6 43 -10 73 -10zM61 -13l-14 117l5 7
c27 0 51 1 76 2l-65 450l82 37l47 -379c3 -26 3 -47 -6 -72l-9 -32c72 7 128 20 163 36c-1 11 -2 22 -2 34l-4 467l86 22v-461c0 -71 23 -91 94 -91h33c13 0 23 -27 23 -61c0 -35 -10 -63 -23 -63h-34c-73 0 -120 20 -145 68c-66 -70 -211 -81 -307 -81z" />
    <glyph glyph-name="uniFE91FE8E" unicode="&#xfe91;&#xfe8e;" horiz-adv-x="521" 
d="M248 0c-142 0 -195 55 -196 173l-5 481l86 22v-461c0 -77 28 -91 115 -91c56 0 99 9 138 34l-27 170l84 53l10 -5c13 -102 22 -159 22 -199c0 -49 -12 -89 -40 -117c-39 -40 -101 -60 -187 -60zM285 -226l-94 42v16l37 79l94 -44v-15z" />
    <glyph glyph-name="uniFE92FE8E" unicode="&#xfe92;&#xfe8e;" horiz-adv-x="571" 
d="M248 0c-141 0 -195 53 -196 173l-5 481l86 22v-461c0 -77 28 -91 115 -91c86 0 121 9 130 56l21 109l11 7l65 -17l-14 -89c-5 -34 19 -66 74 -66h36c13 0 23 -27 23 -61c0 -35 -10 -63 -23 -63h-39c-62 0 -102 25 -122 65c-36 -52 -86 -65 -162 -65zM332 -226l-94 42v16
l37 79l94 -44v-15z" />
    <glyph glyph-name="uniFB58FE8E" unicode="&#xfb58;&#xfe8e;" horiz-adv-x="521" 
d="M248 0c-142 0 -195 55 -196 173l-5 481l86 22v-461c0 -77 28 -91 115 -91c56 0 99 9 138 34l-27 170l84 53l10 -5c13 -102 22 -159 22 -199c0 -49 -12 -89 -40 -117c-39 -40 -101 -60 -187 -60zM368 -202l-87 39v15l34 72l86 -41v-13zM216 -210l-86 39v15l34 72l86 -41
v-13zM316 -318l-84 38v14l33 71l84 -40v-13z" />
    <glyph glyph-name="uniFB59FE8E" unicode="&#xfb59;&#xfe8e;" horiz-adv-x="571" 
d="M248 0c-141 0 -195 53 -196 173l-5 481l86 22v-461c0 -77 28 -91 115 -91c86 0 121 9 130 56l21 109l11 7l65 -17l-14 -89c-5 -34 19 -66 74 -66h36c13 0 23 -27 23 -61c0 -35 -10 -63 -23 -63h-39c-62 0 -102 25 -122 65c-36 -52 -86 -65 -162 -65zM379 -205l-87 39v14
l34 73l86 -41v-13zM227 -213l-86 39v14l34 73l86 -41v-13zM327 -322l-84 39v14l33 71l84 -41v-13z" />
    <glyph glyph-name="uniFE97FE8E" unicode="&#xfe97;&#xfe8e;" horiz-adv-x="521" 
d="M248 0c-142 0 -195 55 -196 173l-5 481l86 22v-461c0 -77 28 -91 115 -91c56 0 99 9 138 34l-27 170l84 53l10 -5c13 -102 22 -159 22 -199c0 -49 -12 -89 -40 -117c-39 -40 -101 -60 -187 -60zM417 448l-87 39v14l34 73l86 -41v-14zM274 440l-87 39v14l34 73l86 -41v-14
z" />
    <glyph glyph-name="uniFE98FE8E" unicode="&#xfe98;&#xfe8e;" horiz-adv-x="571" 
d="M248 0c-141 0 -195 53 -196 173l-5 481l86 22v-461c0 -77 28 -91 115 -91c86 0 121 9 130 56l21 109l11 7l65 -17l-14 -89c-5 -34 19 -66 74 -66h36c13 0 23 -27 23 -61c0 -35 -10 -63 -23 -63h-39c-62 0 -102 25 -122 65c-36 -52 -86 -65 -162 -65zM449 400l-86 39v14
l33 73l87 -41v-14zM306 392l-86 39v14l33 73l87 -41v-14z" />
    <glyph glyph-name="uniFE9BFE8E" unicode="&#xfe9b;&#xfe8e;" horiz-adv-x="521" 
d="M248 0c-142 0 -195 55 -196 173l-5 481l86 22v-461c0 -77 28 -91 115 -91c56 0 99 9 138 34l-27 170l84 53l10 -5c13 -102 22 -159 22 -199c0 -49 -12 -89 -40 -117c-39 -40 -101 -60 -187 -60zM319 551l-84 38v14l33 70l83 -40v-13zM420 437l-87 39v15l34 72l86 -41v-13
zM270 429l-86 39v15l33 72l87 -41v-13z" />
    <glyph glyph-name="uniFE9CFE8E" unicode="&#xfe9c;&#xfe8e;" horiz-adv-x="571" 
d="M248 0c-141 0 -195 53 -196 173l-5 481l86 22v-461c0 -77 28 -91 115 -91c86 0 121 9 130 56l21 109l11 7l65 -17l-14 -89c-5 -34 19 -66 74 -66h36c13 0 23 -27 23 -61c0 -35 -10 -63 -23 -63h-39c-62 0 -102 25 -122 65c-36 -52 -86 -65 -162 -65zM356 505l-83 38v14
l33 70l83 -40v-13zM457 391l-86 39v15l34 72l86 -41v-13zM308 383l-86 39v15l33 72l87 -41v-13z" />
    <glyph glyph-name="uniFE9FFE8E" unicode="&#xfe9f;&#xfe8e;" horiz-adv-x="841" 
d="M208 0c-106 3 -155 59 -156 173l-5 481l86 22v-461c0 -73 25 -89 79 -91h29c91 0 165 16 271 85l57 37l-165 57c-18 6 -29 9 -38 9c-9 -1 -18 -7 -25 -16l-40 -60h-8l-44 52l35 64c25 44 45 70 91 69c46 0 171 -55 286 -88c27 -9 53 -15 77 -20l52 -10l4 -14l-37 -94
l-84 15l-139 -100c-100 -71 -201 -110 -306 -110h-20zM487 -166l-95 42v16l37 79l95 -44v-15z" />
    <glyph glyph-name="uniFEA0FE8E" unicode="&#xfea0;&#xfe8e;" horiz-adv-x="816" 
d="M816 124c13 0 23 -27 23 -61c0 -35 -10 -63 -23 -63h-69c-103 0 -154 23 -167 113l-5 27l-41 -30c-100 -71 -201 -110 -306 -110h-18c-107 3 -157 59 -158 173l-5 481l86 22v-461c0 -73 25 -90 82 -91h26c91 0 165 16 271 85l57 37l-165 57c-18 7 -29 9 -38 9
c-10 -1 -18 -7 -25 -16l-40 -60h-8l-44 52l35 64c25 44 45 70 91 69c50 0 192 -65 316 -98c16 -3 31 -6 45 -10l54 -10l4 -14l-37 -94l-84 15l-38 -27l4 -21c7 -36 43 -38 108 -38h69zM392 -108l37 79l95 -44v-15l-37 -78l-95 42v16z" />
    <glyph glyph-name="uniFB7CFE8E" unicode="&#xfb7c;&#xfe8e;" horiz-adv-x="841" 
d="M208 0c-106 3 -155 59 -156 173l-5 481l86 22v-461c0 -73 25 -89 79 -91h29c91 0 165 16 271 85l57 37l-165 57c-18 6 -29 9 -38 9c-9 -1 -18 -7 -25 -16l-40 -60h-8l-44 52l35 64c25 44 45 70 91 69c46 0 171 -55 286 -88c27 -9 53 -15 77 -20l52 -10l4 -14l-37 -94
l-84 15l-139 -100c-100 -71 -201 -110 -306 -110h-20zM577 -164l-86 39v15l34 72l86 -41v-13zM426 -172l-87 39v15l34 72l86 -41v-13zM525 -280l-84 38v14l33 71l84 -40v-13z" />
    <glyph glyph-name="uniFB7DFE8E" unicode="&#xfb7d;&#xfe8e;" horiz-adv-x="816" 
d="M816 124c13 0 23 -27 23 -61c0 -35 -10 -63 -23 -63h-69c-103 0 -154 23 -167 113l-5 27l-41 -30c-100 -71 -201 -110 -306 -110h-18c-107 3 -157 59 -158 173l-5 481l86 22v-461c0 -73 25 -90 82 -91h26c91 0 165 16 271 85l57 37l-165 57c-18 7 -29 9 -38 9
c-10 -1 -18 -7 -25 -16l-40 -60h-8l-44 52l35 64c25 44 45 70 91 69c50 0 192 -65 316 -98c16 -3 31 -6 45 -10l54 -10l4 -14l-37 -94l-84 15l-38 -27l4 -21c7 -36 43 -38 108 -38h69zM491 -110l34 72l86 -41v-13l-34 -72l-86 39v15zM459 -87v-13l-33 -72l-87 39v15l34 72z
M441 -228l33 71l84 -40v-13l-33 -70l-84 38v14z" />
    <glyph glyph-name="uniFEA3FE8E" unicode="&#xfea3;&#xfe8e;" horiz-adv-x="841" 
d="M208 0c-106 3 -155 59 -156 173l-5 481l86 22v-461c0 -73 25 -89 79 -91h29c91 0 165 16 271 85l57 37l-165 57c-18 6 -29 9 -38 9c-9 -1 -18 -7 -25 -16l-40 -60h-8l-44 52l35 64c25 44 45 70 91 69c46 0 171 -55 286 -88c27 -9 53 -15 77 -20l52 -10l4 -14l-37 -94
l-84 15l-139 -100c-100 -71 -201 -110 -306 -110h-20z" />
    <glyph glyph-name="uniFEA4FE8E" unicode="&#xfea4;&#xfe8e;" horiz-adv-x="816" 
d="M816 124c13 0 23 -27 23 -61c0 -35 -10 -63 -23 -63h-69c-103 0 -154 23 -167 113l-5 27l-41 -30c-100 -71 -201 -110 -306 -110h-18c-107 3 -157 59 -158 173l-5 481l86 22v-461c0 -73 25 -90 82 -91h26c91 0 165 16 271 85l57 37l-165 57c-18 7 -29 9 -38 9
c-10 -1 -18 -7 -25 -16l-40 -60h-8l-44 52l35 64c25 44 45 70 91 69c50 0 192 -65 316 -98c16 -3 31 -6 45 -10l54 -10l4 -14l-37 -94l-84 15l-38 -27l4 -21c7 -36 43 -38 108 -38h69z" />
    <glyph glyph-name="uniFEA7FE8E" unicode="&#xfea7;&#xfe8e;" horiz-adv-x="841" 
d="M208 0c-106 3 -155 59 -156 173l-5 481l86 22v-461c0 -73 25 -89 79 -91h29c91 0 165 16 271 85l57 37l-165 57c-18 6 -29 9 -38 9c-9 -1 -18 -7 -25 -16l-40 -60h-8l-44 52l35 64c25 44 45 70 91 69c46 0 171 -55 286 -88c27 -9 53 -15 77 -20l52 -10l4 -14l-37 -94
l-84 15l-139 -100c-100 -71 -201 -110 -306 -110h-20zM416 486l-94 42v16l37 79l94 -45v-14z" />
    <glyph glyph-name="uniFEA8FE8E" unicode="&#xfea8;&#xfe8e;" horiz-adv-x="816" 
d="M816 124c13 0 23 -27 23 -61c0 -35 -10 -63 -23 -63h-69c-103 0 -154 23 -167 113l-5 27l-41 -30c-100 -71 -201 -110 -306 -110h-18c-107 3 -157 59 -158 173l-5 481l86 22v-461c0 -73 25 -90 82 -91h26c91 0 165 16 271 85l57 37l-165 57c-18 7 -29 9 -38 9
c-10 -1 -18 -7 -25 -16l-40 -60h-8l-44 52l35 64c25 44 45 70 91 69c50 0 192 -65 316 -98c16 -3 31 -6 45 -10l54 -10l4 -14l-37 -94l-84 15l-38 -27l4 -21c7 -36 43 -38 108 -38h69zM450 564l-37 -78l-95 42v16l37 79l95 -45v-14z" />
    <glyph glyph-name="uniFEB3FE8E" unicode="&#xfeb3;&#xfe8e;" horiz-adv-x="978" 
d="M227 0c-120 0 -174 52 -175 173l-5 481l86 22v-461c0 -78 28 -91 88 -91c75 0 104 17 125 77l31 90l13 5l61 -24l-21 -69c-5 -15 -10 -29 -14 -44c20 -22 55 -35 109 -35c90 0 116 26 118 80l1 53l74 2v-118c18 -10 45 -17 71 -17c21 0 41 4 55 16l-28 188l84 53l10 -5
c12 -93 19 -146 20 -186c1 -24 -1 -46 -6 -64c-5 -24 -14 -45 -27 -63c-29 -40 -73 -63 -122 -63c-30 0 -63 7 -88 22c-11 6 -19 13 -25 22c-27 -25 -76 -44 -137 -44c-78 0 -131 24 -154 64c-26 -47 -73 -64 -144 -64z" />
    <glyph glyph-name="uniFEB4FE8E" unicode="&#xfeb4;&#xfe8e;" horiz-adv-x="1062" 
d="M227 0c-120 0 -174 52 -175 173l-5 481l86 22v-461c0 -78 28 -91 94 -91c69 0 98 17 119 77l31 90l13 5l61 -24l-24 -74c-4 -13 -7 -26 -11 -39c20 -22 55 -35 109 -35c90 0 116 26 118 80l1 53l74 2v-118c18 -10 45 -17 70 -17c22 0 42 4 56 16l-22 150l63 49l11 -5
c6 -37 11 -74 17 -111c11 -78 40 -99 113 -99h36c13 0 24 -27 24 -61c0 -35 -11 -63 -24 -63h-33c-74 0 -113 20 -136 59c-4 -6 -8 -12 -13 -17c-26 -26 -62 -42 -108 -42c-34 0 -71 9 -96 29c-5 4 -10 9 -14 15c-27 -25 -76 -44 -137 -44c-78 0 -131 24 -154 64
c-26 -47 -73 -64 -144 -64z" />
    <glyph glyph-name="uniFEB7FE8E" unicode="&#xfeb7;&#xfe8e;" horiz-adv-x="978" 
d="M227 0c-120 0 -174 52 -175 173l-5 481l86 22v-461c0 -78 28 -91 88 -91c75 0 104 17 125 77l31 90l13 5l61 -24l-21 -69c-5 -15 -10 -29 -14 -44c20 -22 55 -35 109 -35c90 0 116 26 118 80l1 53l74 2v-118c18 -10 45 -17 71 -17c21 0 41 4 55 16l-28 188l84 53l10 -5
c12 -93 19 -146 20 -186c1 -24 -1 -46 -6 -64c-5 -24 -14 -45 -27 -63c-29 -40 -73 -63 -122 -63c-30 0 -63 7 -88 22c-11 6 -19 13 -25 22c-27 -25 -76 -44 -137 -44c-78 0 -131 24 -154 64c-26 -47 -73 -64 -144 -64zM638 491l-83 38v14l33 70l83 -40v-13zM739 378l-86 39
v14l34 73l86 -41v-14zM590 370l-86 39v14l33 73l87 -41v-14z" />
    <glyph glyph-name="uniFEB8FE8E" unicode="&#xfeb8;&#xfe8e;" horiz-adv-x="1062" 
d="M227 0c-120 0 -174 52 -175 173l-5 481l86 22v-461c0 -78 28 -91 94 -91c69 0 98 17 119 77l31 90l13 5l61 -24l-24 -74c-4 -13 -7 -26 -11 -39c20 -22 55 -35 109 -35c90 0 116 26 118 80l1 53l74 2v-118c18 -10 45 -17 70 -17c22 0 42 4 56 16l-22 150l63 49l11 -5
c6 -37 11 -74 17 -111c11 -78 40 -99 113 -99h36c13 0 24 -27 24 -61c0 -35 -11 -63 -24 -63h-33c-74 0 -113 20 -136 59c-4 -6 -8 -12 -13 -17c-26 -26 -62 -42 -108 -42c-34 0 -71 9 -96 29c-5 4 -10 9 -14 15c-27 -25 -76 -44 -137 -44c-78 0 -131 24 -154 64
c-26 -47 -73 -64 -144 -64zM638 491l-83 38v14l33 70l83 -40v-13zM739 378l-86 39v14l34 73l86 -41v-14zM590 370l-86 39v14l33 73l87 -41v-14z" />
    <glyph glyph-name="uniFEBBFE8E" unicode="&#xfebb;&#xfe8e;" horiz-adv-x="1037" 
d="M47 654l86 22v-461c0 -78 28 -91 94 -91c69 0 102 29 123 89l27 78l13 5l61 -24l-33 -107c-1 -12 20 -35 63 -40l4 27l131 152c55 63 106 101 183 101c136 0 191 -122 191 -206c0 -116 -81 -199 -311 -199h-179c-64 0 -106 24 -129 64c-26 -47 -74 -64 -146 -64
c-118 0 -172 52 -173 173zM553 123h50h95c119 -1 171 15 207 44c-1 71 -45 128 -120 128c-44 0 -64 -8 -81 -14z" />
    <glyph glyph-name="uniFEBCFE8E" unicode="&#xfebc;&#xfe8e;" horiz-adv-x="1081" 
d="M225 0c-118 0 -172 52 -173 173l-5 481l86 22v-461c0 -78 28 -91 94 -91c69 0 102 29 123 89l27 78l13 5l61 -24l-33 -107c-1 -12 20 -35 63 -40l4 27l131 152c55 63 106 101 183 101c136 0 191 -122 191 -206c0 -25 -4 -49 -15 -70c17 -4 37 -5 66 -5h40
c13 0 23 -27 23 -61c0 -35 -10 -63 -23 -63h-53c-53 0 -91 15 -121 47c-49 -30 -123 -47 -228 -47h-179c-64 0 -106 24 -129 64c-26 -47 -74 -64 -146 -64zM603 123h95c119 -1 171 15 207 44c-1 71 -45 128 -120 128c-44 0 -64 -8 -81 -14l-151 -158h50z" />
    <glyph glyph-name="uniFEBFFE8E" unicode="&#xfebf;&#xfe8e;" horiz-adv-x="1037" 
d="M47 654l86 22v-461c0 -78 28 -91 94 -91c69 0 102 29 123 89l27 78l13 5l61 -24l-33 -107c-1 -12 20 -35 63 -40l4 27l131 152c55 63 106 101 183 101c136 0 191 -122 191 -206c0 -116 -81 -199 -311 -199h-179c-64 0 -106 24 -129 64c-26 -47 -74 -64 -146 -64
c-118 0 -172 52 -173 173zM771 467l-95 42v16l37 79l94 -44v-15zM553 123h50h95c119 -1 171 15 207 44c-1 71 -45 128 -120 128c-44 0 -64 -8 -81 -14z" />
    <glyph glyph-name="uniFEC0FE8E" unicode="&#xfec0;&#xfe8e;" horiz-adv-x="1081" 
d="M225 0c-118 0 -172 52 -173 173l-5 481l86 22v-461c0 -78 28 -91 94 -91c69 0 102 29 123 89l27 78l13 5l61 -24l-33 -107c-1 -12 20 -35 63 -40l4 27l131 152c55 63 106 101 183 101c136 0 191 -122 191 -206c0 -25 -4 -49 -15 -70c17 -4 37 -5 66 -5h40
c13 0 23 -27 23 -61c0 -35 -10 -63 -23 -63h-53c-53 0 -91 15 -121 47c-49 -30 -123 -47 -228 -47h-179c-64 0 -106 24 -129 64c-26 -47 -74 -64 -146 -64zM771 467l-95 42v16l37 79l94 -44v-15zM603 123h95c119 -1 171 15 207 44c-1 71 -45 128 -120 128
c-44 0 -64 -8 -81 -14l-151 -158h50z" />
    <glyph glyph-name="uniFEC3FE8E" unicode="&#xfec3;&#xfe8e;" horiz-adv-x="778" 
d="M222 0c-116 0 -169 55 -170 173l-5 481l86 22v-461c0 -66 20 -85 68 -89l80 90l-4 438l87 22v-281c0 -47 -1 -60 -17 -104c8 9 17 20 26 29c49 53 97 85 166 85c136 0 192 -122 192 -206c0 -116 -81 -199 -312 -199h-197zM294 123h145c119 -1 170 15 206 44
c-1 71 -45 128 -120 128c-44 0 -63 -8 -81 -14z" />
    <glyph glyph-name="uniFEC4FE8E" unicode="&#xfec4;&#xfe8e;" horiz-adv-x="822" 
d="M222 0c-116 0 -169 55 -170 173l-5 481l86 22v-461c0 -66 20 -85 68 -89l81 91l-5 437l87 22v-281c0 -47 -1 -60 -17 -104c8 9 16 19 25 28c49 53 97 86 167 86c136 0 192 -122 192 -206c0 -25 -4 -49 -16 -70c18 -4 38 -5 66 -5h41c13 0 23 -27 23 -61
c0 -35 -10 -63 -23 -63h-53c-54 0 -92 15 -122 47c-49 -30 -123 -47 -228 -47h-197zM294 123h145c119 -1 170 15 206 44c-1 71 -45 128 -120 128c-44 0 -63 -8 -81 -14z" />
    <glyph glyph-name="uniFEC7FE8E" unicode="&#xfec7;&#xfe8e;" horiz-adv-x="778" 
d="M222 0c-116 0 -169 55 -170 173l-5 481l86 22v-461c0 -66 20 -85 68 -89l80 90l-4 438l87 22v-281c0 -47 -1 -60 -17 -104c8 9 17 20 26 29c49 53 97 85 166 85c136 0 192 -122 192 -206c0 -116 -81 -199 -312 -199h-197zM552 486l-95 43v15l37 80l95 -45v-15zM294 123
h145c119 -1 170 15 206 44c-1 71 -45 128 -120 128c-44 0 -63 -8 -81 -14z" />
    <glyph glyph-name="uniFEC8FE8E" unicode="&#xfec8;&#xfe8e;" horiz-adv-x="822" 
d="M222 0c-116 0 -169 55 -170 173l-5 481l86 22v-461c0 -66 20 -85 68 -89l81 91l-5 437l87 22v-281c0 -47 -1 -60 -17 -104c8 9 16 19 25 28c49 53 97 86 167 86c136 0 192 -122 192 -206c0 -25 -4 -49 -16 -70c18 -4 38 -5 66 -5h41c13 0 23 -27 23 -61
c0 -35 -10 -63 -23 -63h-53c-54 0 -92 15 -122 47c-49 -30 -123 -47 -228 -47h-197zM552 486l-95 43v15l37 80l95 -45v-15zM294 123h145c119 -1 170 15 206 44c-1 71 -45 128 -120 128c-44 0 -63 -8 -81 -14z" />
    <glyph glyph-name="uniFECBFE8E" unicode="&#xfecb;&#xfe8e;" horiz-adv-x="631" 
d="M206 0c-117 0 -170 55 -171 173l-5 481l86 22v-461c0 -77 28 -91 90 -91c11 0 25 0 38 1c10 0 20 1 25 2c-23 20 -34 45 -34 76c0 29 10 65 23 102c35 93 101 114 172 114c43 0 69 -8 94 -14l6 -13l-11 -81c-19 2 -36 4 -51 5c-24 2 -43 3 -58 3c-33 0 -57 -4 -78 -11
c-7 -20 -12 -33 -17 -51c-2 -8 -3 -16 -3 -23c0 -40 34 -76 99 -76c16 0 44 5 64 11c39 11 80 24 124 36l11 -10l-1 -91l-72 -24c-64 -22 -144 -52 -224 -68c-36 -7 -72 -12 -107 -12z" />
    <glyph glyph-name="uniFECCFE8E" unicode="&#xfecc;&#xfe8e;" horiz-adv-x="774" 
d="M222 0c-116 0 -169 55 -170 173l-5 481l86 22v-461c0 -77 28 -91 90 -91c30 0 56 1 81 3c29 2 55 6 79 12l-18 21c-29 36 -59 72 -91 106l4 16l-68 -10l-9 9l21 92l115 22c52 10 121 20 161 20c108 0 180 -25 180 -116c0 -58 -58 -113 -117 -165c31 -7 72 -10 135 -10h78
c12 0 23 -27 23 -61c0 -35 -11 -63 -23 -63h-100c-100 0 -155 10 -208 51c-37 -24 -74 -37 -125 -43c-34 -5 -72 -8 -119 -8zM475 169c47 31 90 65 129 102c0 28 -45 33 -110 32c-47 0 -85 -4 -131 -10c23 -25 45 -48 69 -76c16 -19 30 -35 43 -48z" />
    <glyph glyph-name="uniFECFFE8E" unicode="&#xfecf;&#xfe8e;" horiz-adv-x="631" 
d="M206 0c-117 0 -170 55 -171 173l-5 481l86 22v-461c0 -77 28 -91 90 -91c11 0 25 0 38 1c10 0 20 1 25 2c-23 20 -34 45 -34 76c0 29 10 65 23 102c35 93 101 114 172 114c43 0 69 -8 94 -14l6 -13l-11 -81c-19 2 -36 4 -51 5c-24 2 -43 3 -58 3c-33 0 -57 -4 -78 -11
c-7 -20 -12 -33 -17 -51c-2 -8 -3 -16 -3 -23c0 -40 34 -76 99 -76c16 0 44 5 64 11c39 11 80 24 124 36l11 -10l-1 -91l-72 -24c-64 -22 -144 -52 -224 -68c-36 -7 -72 -12 -107 -12zM393 485l-95 43v15l37 80l95 -45v-15z" />
    <glyph glyph-name="uniFED0FE8E" unicode="&#xfed0;&#xfe8e;" horiz-adv-x="774" 
d="M222 0c-116 0 -169 55 -170 173l-5 481l86 22v-461c0 -77 28 -91 90 -91c30 0 56 1 81 3c29 2 55 6 79 12l-18 21c-29 36 -59 72 -91 106l4 16l-68 -10l-9 9l21 92l115 22c52 10 121 20 161 20c108 0 180 -25 180 -116c0 -58 -58 -113 -117 -165c31 -7 72 -10 135 -10h78
c12 0 23 -27 23 -61c0 -35 -11 -63 -23 -63h-100c-100 0 -155 10 -208 51c-37 -24 -74 -37 -125 -43c-34 -5 -72 -8 -119 -8zM460 496l-95 42v16l37 79l94 -45v-14zM475 169c47 31 90 65 129 102c0 28 -45 33 -110 32c-47 0 -85 -4 -131 -10c23 -25 45 -48 69 -76
c16 -19 30 -35 43 -48z" />
    <glyph glyph-name="uniFED3FE8E" unicode="&#xfed3;&#xfe8e;" horiz-adv-x="590" 
d="M369 609l-94 43v16l37 79l94 -45v-14zM220 0c-115 1 -167 56 -168 173l-5 481l86 22v-461c0 -77 28 -91 90 -91c135 0 191 14 228 30c3 20 4 41 4 61c-51 -11 -94 -14 -138 -14c-63 0 -104 28 -110 87c-1 10 -1 20 0 32c15 149 68 230 158 230c74 0 108 -38 131 -76
c27 -43 45 -125 47 -202c2 -83 -19 -178 -56 -211c-57 -50 -176 -61 -267 -61zM342 305c38 0 74 2 110 7c-7 51 -21 105 -33 133c-21 6 -35 9 -60 9c-44 0 -68 -17 -76 -103c-1 -5 -1 -8 -1 -13c0 -30 20 -33 60 -33z" />
    <glyph glyph-name="uniFED4FE8E" unicode="&#xfed4;&#xfe8e;" horiz-adv-x="657" 
d="M222 0c-116 0 -169 55 -170 173l-5 481l86 22v-461c0 -77 28 -91 90 -91c19 0 40 1 58 3c-16 29 -20 66 -8 110c18 71 45 178 129 178c134 0 186 -80 186 -161c0 -48 -17 -93 -36 -129c13 0 25 -1 38 -1h68c12 0 22 -28 22 -61c0 -35 -10 -63 -22 -63h-84
c-60 0 -126 9 -180 30c-55 -22 -117 -30 -172 -30zM437 479l-94 43v15l37 80l94 -45v-15zM436 135c55 38 82 69 82 100c0 43 -26 67 -101 78c-13 2 -30 4 -47 5c-12 -33 -22 -61 -27 -83c-12 -56 30 -85 93 -100z" />
    <glyph glyph-name="uniFED3FEE0FEE0FEEA" unicode="&#xfed3;&#xfee0;&#xfee0;&#xfeea;" horiz-adv-x="1389" 
d="M580 730l-5 153l58 10v-96c0 -25 -3 -54 -5 -66zM1181 619l-95 43v16l37 79l94 -45v-14zM544 544c-47 0 -89 19 -89 75c0 27 14 59 26 94l39 -19c-5 -21 -15 -54 -15 -65c0 -13 17 -19 36 -19c20 0 40 7 40 19l1 50h48v-40v-20c5 -5 25 -8 42 -8c12 0 22 1 28 4l-21 92
l53 34c12 -57 20 -93 20 -120c0 -45 -34 -77 -89 -77c-22 0 -44 8 -63 23c-14 -15 -33 -23 -56 -23zM458 0c-67 0 -114 25 -140 95l-26 -58c-29 -4 -58 -5 -85 -5c-100 0 -160 36 -160 116c0 76 39 146 162 205l88 42v68l88 23v-287c0 -49 22 -75 75 -75c54 0 88 14 110 30
l-8 294l86 22l5 -228c2 -94 38 -118 102 -118c50 0 66 6 91 21l-4 441l86 22v-393c0 -77 28 -91 115 -91c68 0 152 5 207 30c3 20 3 41 4 61c-51 -11 -94 -14 -139 -14c-66 0 -108 32 -110 98c0 7 0 13 1 21c14 149 68 230 158 230c77 0 112 -40 135 -82
c24 -43 41 -122 43 -196c2 -83 -19 -178 -56 -211c-55 -49 -175 -60 -236 -61c-95 0 -137 15 -164 52c-31 -36 -79 -52 -134 -52c-76 0 -125 39 -137 83c-25 -52 -77 -83 -157 -83zM1141 305c37 0 74 2 110 7c-7 51 -21 105 -33 133c-21 6 -35 9 -60 9
c-44 0 -68 -17 -77 -104c-1 -9 0 -17 2 -23c5 -20 24 -22 58 -22zM239 146c20 0 39 -1 58 0v151l-54 -25c-44 -20 -75 -33 -119 -53c-1 -10 -2 -18 -2 -25c2 -40 34 -48 117 -48z" />
    <glyph glyph-name="uniFED7FE8E" unicode="&#xfed7;&#xfe8e;" horiz-adv-x="590" 
d="M436 621l-87 39v14l34 73l86 -41v-14zM293 613l-87 39v14l34 73l86 -41v-14zM220 0c-115 1 -167 56 -168 173l-5 481l86 22v-461c0 -77 28 -91 90 -91c135 0 191 14 228 30c3 20 4 41 4 61c-51 -11 -94 -14 -138 -14c-63 0 -104 28 -110 87c-1 10 -1 20 0 32
c15 149 68 230 158 230c74 0 108 -38 131 -76c27 -43 45 -125 47 -202c2 -83 -19 -178 -56 -211c-57 -50 -176 -61 -267 -61zM342 305c38 0 74 2 110 7c-7 51 -21 105 -33 133c-21 6 -35 9 -60 9c-44 0 -68 -17 -76 -103c-1 -5 -1 -8 -1 -13c0 -30 20 -33 60 -33z" />
    <glyph glyph-name="uniFED8FE8E" unicode="&#xfed8;&#xfe8e;" horiz-adv-x="657" 
d="M222 0c-116 0 -169 55 -170 173l-5 481l86 22v-461c0 -77 28 -91 90 -91c19 0 40 1 58 3c-16 29 -20 66 -8 110c18 71 45 178 129 178c134 0 186 -80 186 -161c0 -48 -17 -93 -36 -129c13 0 25 -1 38 -1h68c12 0 22 -28 22 -61c0 -35 -10 -63 -22 -63h-84
c-60 0 -126 9 -180 30c-55 -22 -117 -30 -172 -30zM499 492l-87 39v14l34 72l86 -41v-13zM356 484l-87 39v14l34 72l86 -41v-13zM436 135c55 38 82 69 82 100c0 43 -26 67 -101 78c-13 2 -30 4 -47 5c-12 -33 -22 -61 -27 -83c-12 -56 30 -85 93 -100z" />
    <glyph glyph-name="uniFB90FE8E" unicode="&#xfb90;&#xfe8e;" horiz-adv-x="635" 
d="M231 0c-125 0 -178 55 -179 173l-5 481l86 22v-461c0 -77 28 -91 98 -91c64 0 149 9 195 33c-11 30 -31 60 -88 117l-165 167l19 122l396 113l-3 -97l-319 -92l185 -192c35 -36 60 -78 60 -125c0 -51 -20 -87 -50 -112c-60 -50 -164 -58 -230 -58z" />
    <glyph glyph-name="uniFB91FE8E" unicode="&#xfb91;&#xfe8e;" horiz-adv-x="718" 
d="M231 0c-125 0 -178 55 -179 173l-5 481l86 22v-461c0 -77 28 -91 98 -91c64 0 132 9 178 33c-11 30 -33 57 -86 116l-150 168l19 122l396 113l-3 -97l-319 -92l171 -195c124 -140 161 -166 255 -168h27c12 0 22 -27 22 -61c0 -35 -10 -63 -22 -63h-27
c-100 3 -158 30 -214 103c-8 -19 -21 -34 -36 -47c-60 -50 -161 -56 -211 -56z" />
    <glyph glyph-name="uniFB94FE8E" unicode="&#xfb94;&#xfe8e;" horiz-adv-x="635" 
d="M198 610l12 76l255 73l-4 -75zM231 0c-125 0 -178 55 -179 173l-5 481l86 22v-461c0 -77 28 -91 98 -91c64 0 149 9 195 33c-11 30 -31 60 -88 117l-165 167l19 122l396 113l-3 -97l-319 -92l185 -192c35 -36 60 -78 60 -125c0 -51 -20 -87 -50 -112
c-60 -50 -164 -58 -230 -58z" />
    <glyph glyph-name="uniFB95FE8E" unicode="&#xfb95;&#xfe8e;" horiz-adv-x="718" 
d="M198 610l12 76l255 73l-4 -75zM231 0c-125 0 -178 55 -179 173l-5 481l86 22v-461c0 -77 28 -91 98 -91c64 0 132 9 178 33c-11 30 -33 57 -86 116l-150 168l19 122l396 113l-3 -97l-319 -92l171 -195c124 -140 161 -166 255 -168h27c12 0 22 -27 22 -61
c0 -35 -10 -63 -22 -63h-27c-100 3 -158 30 -214 103c-8 -19 -21 -34 -36 -47c-60 -50 -161 -56 -211 -56z" />
    <glyph glyph-name="uniFEDFFEE0FEEA" unicode="&#xfedf;&#xfee0;&#xfeea;" horiz-adv-x="973" 
d="M586 730l-5 153l58 10v-96c0 -25 -3 -54 -6 -66zM549 544c-47 0 -89 19 -89 75c0 27 14 59 26 94l39 -19c-5 -21 -14 -54 -14 -65c0 -13 16 -19 35 -19c20 0 40 7 40 19l1 50h48v-34v-26c4 -5 24 -8 41 -8c13 0 23 1 29 4l-20 92l52 34c12 -57 20 -93 20 -120
c0 -45 -34 -77 -89 -77c-22 0 -44 8 -62 23c-15 -15 -34 -23 -57 -23zM458 0c-65 0 -114 25 -140 85l-26 -48c-29 -4 -58 -5 -85 -5c-100 0 -160 36 -160 116c0 76 53 145 171 203l79 40v72l88 25v-289c0 -50 22 -75 76 -75c53 0 88 15 109 30l-8 294l86 22l5 -228
c2 -94 38 -118 102 -118c51 0 66 6 92 22c0 58 -8 191 -26 393l85 24c15 -183 20 -291 20 -377c0 -67 -15 -107 -41 -135c-31 -36 -78 -51 -133 -51c-76 0 -125 39 -137 83c-25 -52 -77 -83 -157 -83zM239 146h58v142l-26 -11c-66 -27 -103 -42 -147 -68
c-2 -10 -2 -18 -2 -25c4 -33 35 -38 117 -38z" />
    <glyph glyph-name="uniFC43" unicode="&#xfedf;&#xfef0;" horiz-adv-x="635" arabic-form="isolated" 
d="M48 -12c6 64 24 144 39 208l59 -4l6 -10c-9 -44 -24 -110 -30 -157c-13 -101 48 -119 154 -119c92 0 172 27 219 48l-183 70l-3 10l33 88c58 3 105 15 140 35l-5 497l87 22v-502c0 -74 -37 -113 -94 -136c27 -11 58 -22 76 -31c31 -16 42 -37 42 -59
c0 -29 -17 -65 -41 -84c-46 -37 -150 -79 -289 -79c-140 0 -222 60 -210 203z" />
    <glyph glyph-name="uniFC86" unicode="&#xfee0;&#xfef0;" horiz-adv-x="724" arabic-form="final" 
d="M258 -215c-140 0 -222 60 -210 203c6 64 24 144 39 208l59 -4l6 -10c-9 -44 -24 -110 -30 -157c-13 -101 48 -119 154 -119c92 0 172 27 218 48l-182 70l-3 10l33 88c58 3 105 15 140 35l-5 497l87 22v-396c0 -136 65 -156 132 -156h28c13 0 23 -27 23 -61
c0 -35 -10 -63 -23 -63h-26c-59 2 -122 25 -160 87c-16 -23 -40 -38 -68 -50c27 -10 58 -21 76 -30c31 -16 42 -38 42 -60c0 -28 -17 -64 -41 -83c-46 -37 -150 -79 -289 -79z" />
    <glyph glyph-name="uniFEE3FE8E" unicode="&#xfee3;&#xfe8e;" horiz-adv-x="696" 
d="M47 654l86 22v-461c0 -77 28 -91 76 -91c64 0 93 34 113 70l56 99c25 45 60 71 113 71c111 0 168 -120 157 -286l-53 -88c-97 0 -204 18 -270 74c-26 -37 -53 -64 -120 -64c-99 -1 -152 55 -153 173zM384 155c30 -27 109 -51 187 -53c1 84 -29 153 -87 153
c-13 0 -29 -3 -47 -8z" />
    <glyph glyph-name="uniFC88" unicode="&#xfee4;&#xfe8e;" horiz-adv-x="760" arabic-form="final" 
d="M595 -10c-97 0 -204 18 -270 74c-26 -37 -53 -64 -120 -64c-99 -1 -152 55 -153 173l-5 481l86 22v-461c0 -77 28 -91 76 -91c64 0 93 35 113 70l56 99c25 45 60 71 113 71c54 0 93 -23 122 -45l25 -101c19 -71 47 -94 122 -94c12 0 23 -27 23 -61c0 -35 -11 -63 -23 -63
h-15c-36 0 -84 15 -113 54l-4 -7zM571 101c-5 48 -15 93 -26 139c-16 9 -36 15 -61 15c-49 0 -67 -42 -100 -100c31 -27 110 -51 187 -54z" />
    <glyph glyph-name="uniFEE7FE8E" unicode="&#xfee7;&#xfe8e;" horiz-adv-x="521" 
d="M248 0c-142 0 -195 55 -196 173l-5 481l86 22v-461c0 -77 28 -91 115 -91c56 0 99 9 138 34l-27 170l84 53l10 -5c13 -102 22 -159 22 -199c0 -49 -12 -89 -40 -117c-39 -40 -101 -60 -187 -60zM382 445l-95 42v16l37 79l95 -44v-15z" />
    <glyph glyph-name="uniFEE8FE8E" unicode="&#xfee8;&#xfe8e;" horiz-adv-x="571" 
d="M248 0c-141 0 -195 53 -196 173l-5 481l86 22v-461c0 -77 28 -91 115 -91c86 0 121 9 130 56l21 109l11 7l65 -17l-14 -89c-5 -34 19 -66 74 -66h36c13 0 23 -27 23 -61c0 -35 -10 -63 -23 -63h-39c-62 0 -102 25 -122 65c-36 -52 -86 -65 -162 -65zM338 387l-94 43v16
l37 79l94 -45v-14z" />
    <glyph glyph-name="uniFEEBFE8E" unicode="&#xfeeb;&#xfe8e;" horiz-adv-x="806" 
d="M209 0c-103 0 -156 55 -157 173l-5 481l86 22v-461c0 -77 28 -91 90 -91c13 0 35 1 55 3c-10 14 -17 32 -20 52c-3 19 -1 43 8 71c14 49 27 84 43 110l-40 13l23 95l13 7l236 -76c160 -51 215 -112 218 -238c0 -24 -1 -50 -3 -78l-57 -84l-185 22c-37 4 -77 9 -113 20
c-61 -28 -139 -41 -192 -41zM423 150c45 28 73 66 73 95c0 33 -21 58 -61 72c-19 7 -41 11 -67 13c-10 -15 -24 -48 -33 -85c-4 -16 -3 -31 2 -42c11 -28 45 -43 86 -53zM683 112c1 19 0 37 -1 53c-6 47 -27 83 -92 105l-31 10c1 -10 1 -19 1 -29c-1 -46 -16 -84 -38 -117
c10 -2 21 -3 31 -4z" />
    <glyph glyph-name="uniFEECFE8E" unicode="&#xfeec;&#xfe8e;" horiz-adv-x="721" 
d="M391 -237c-81 83 -123 164 -127 238c-13 0 -28 -1 -41 -1c-116 0 -170 53 -171 173l-5 481l86 22v-461c0 -77 28 -91 90 -91c17 0 34 0 52 1c20 95 39 168 68 267l83 57l69 -74c78 -84 82 -125 82 -164c0 -30 -4 -62 -24 -92c-38 -55 -95 -94 -204 -110
c8 -57 45 -104 89 -148l65 110c54 93 95 153 190 153h28c12 0 23 -27 23 -61c0 -35 -11 -63 -23 -63h-32c-75 0 -91 -31 -135 -108l-74 -129h-89zM351 124c95 7 138 42 154 70c0 23 -40 75 -96 136c-25 -79 -42 -130 -58 -206z" />
    <glyph glyph-name="uniFBE8FE8E" unicode="&#xfbe8;&#xfe8e;" horiz-adv-x="521" 
d="M248 0c-142 0 -195 55 -196 173l-5 481l86 22v-461c0 -77 28 -91 115 -91c56 0 99 9 138 34l-27 170l84 53l10 -5c13 -102 22 -159 22 -199c0 -49 -12 -89 -40 -117c-39 -40 -101 -60 -187 -60z" />
    <glyph glyph-name="uniFBE9FE8E" unicode="&#xfbe9;&#xfe8e;" horiz-adv-x="571" 
d="M248 0c-141 0 -195 53 -196 173l-5 481l86 22v-461c0 -77 28 -91 115 -91c86 0 121 9 130 56l21 109l11 7l65 -17l-14 -89c-5 -34 19 -66 74 -66h36c13 0 23 -27 23 -61c0 -35 -10 -63 -23 -63h-39c-62 0 -102 25 -122 65c-36 -52 -86 -65 -162 -65z" />
    <glyph glyph-name="uniFEF3FE8E" unicode="&#xfef3;&#xfe8e;" horiz-adv-x="521" 
d="M248 0c-142 0 -195 55 -196 173l-5 481l86 22v-461c0 -77 28 -91 115 -91c56 0 99 9 138 34l-27 170l84 53l10 -5c13 -102 22 -159 22 -199c0 -49 -12 -89 -40 -117c-39 -40 -101 -60 -187 -60zM359 -217l-86 39v15l33 72l87 -41v-13zM216 -225l-86 39v15l33 72l87 -41
v-13z" />
    <glyph glyph-name="uniFEF4FE8E" unicode="&#xfef4;&#xfe8e;" horiz-adv-x="571" 
d="M248 0c-141 0 -195 53 -196 173l-5 481l86 22v-461c0 -77 28 -91 115 -91c86 0 121 9 130 56l21 109l11 7l65 -17l-14 -89c-5 -34 19 -66 74 -66h36c13 0 23 -27 23 -61c0 -35 -10 -63 -23 -63h-39c-62 0 -102 25 -122 65c-36 -52 -86 -65 -162 -65zM396 -217l-86 39v15
l34 72l86 -41v-13zM253 -225l-86 39v15l34 72l86 -41v-13z" />
    <glyph glyph-name="uniFBEA" unicode="&#xfe8b;&#xfe8e;" horiz-adv-x="521" arabic-form="isolated" 
d="M248 0c-142 0 -195 55 -196 173l-5 481l86 22v-461c0 -77 28 -91 115 -91c56 0 99 9 138 34l-27 170l84 53l10 -5c13 -102 22 -159 22 -199c0 -49 -12 -89 -40 -117c-39 -40 -101 -60 -187 -60zM192 369l12 64l38 15c-21 15 -35 43 -35 72c0 55 44 96 100 102
c10 1 19 0 29 -2c12 -1 24 -4 36 -6v-62l-25 3c-14 2 -26 3 -36 3c-26 0 -42 -3 -52 -8c-1 -8 -1 -14 -1 -20c0 -28 19 -45 44 -45c11 0 23 1 34 5l79 22l4 -4l-12 -64l-24 -9c-64 -23 -127 -47 -188 -70z" />
    <glyph glyph-name="uniFBEB" unicode="&#xfe8c;&#xfe8e;" horiz-adv-x="571" arabic-form="final" 
d="M248 0c-141 0 -195 53 -196 173l-5 481l86 22v-461c0 -77 28 -91 115 -91c86 0 121 9 130 56l21 109l11 7l65 -17l-14 -89c-5 -34 19 -66 74 -66h36c13 0 23 -27 23 -61c0 -35 -10 -63 -23 -63h-39c-62 0 -102 25 -122 65c-36 -52 -86 -65 -162 -65zM205 304l13 64l38 15
c-22 16 -35 44 -35 72c0 56 43 97 100 102c10 1 19 0 29 -1l35 -6l1 -62l-25 3c-14 2 -27 3 -37 3c-26 0 -42 -4 -52 -8c-1 -8 -1 -14 -1 -20c1 -29 19 -45 44 -45c11 0 23 1 35 4l79 22l3 -3l-12 -65l-23 -8l-188 -70z" />
    <glyph glyph-name="uniFBFEFE8E" unicode="&#xfbfe;&#xfe8e;" horiz-adv-x="521" 
d="M248 0c-142 0 -195 55 -196 173l-5 481l86 22v-461c0 -77 28 -91 115 -91c56 0 99 9 138 34l-27 170l84 53l10 -5c13 -102 22 -159 22 -199c0 -49 -12 -89 -40 -117c-39 -40 -101 -60 -187 -60zM359 -217l-86 39v15l33 72l87 -41v-13zM216 -225l-86 39v15l33 72l87 -41
v-13z" />
    <glyph glyph-name="uniFBFFFE8E" unicode="&#xfbff;&#xfe8e;" horiz-adv-x="571" 
d="M248 0c-141 0 -195 53 -196 173l-5 481l86 22v-461c0 -77 28 -91 115 -91c86 0 121 9 130 56l21 109l11 7l65 -17l-14 -89c-5 -34 19 -66 74 -66h36c13 0 23 -27 23 -61c0 -35 -10 -63 -23 -63h-39c-62 0 -102 25 -122 65c-36 -52 -86 -65 -162 -65zM370 -217l-86 39v15
l34 72l86 -41v-13zM227 -225l-86 39v15l34 72l86 -41v-13z" />
    <glyph glyph-name="uniFDF2" unicode="&#x627;&#xfedf;&#xfee0;&#xfeea;" horiz-adv-x="1156" arabic-form="isolated" 
d="M586 730l-5 153l58 10v-96c0 -25 -3 -54 -6 -66zM549 544c-47 0 -89 19 -89 75c0 27 14 59 26 94l39 -19c-5 -21 -14 -54 -14 -65c0 -13 16 -19 35 -19c20 0 40 7 40 19l1 50h48v-34v-26c4 -5 24 -8 41 -8c13 0 23 1 29 4l-20 92l52 34c12 -57 20 -93 20 -120
c0 -45 -34 -77 -89 -77c-22 0 -44 8 -62 23c-15 -15 -34 -23 -57 -23zM1026 -10l-6 7c7 80 8 130 7 184l-5 473l87 22v-481c0 -90 -6 -119 -26 -189zM458 0c-65 0 -114 25 -140 85l-26 -48c-29 -4 -58 -5 -85 -5c-100 0 -160 36 -160 116c0 76 53 145 171 203l79 40v72
l88 25v-289c0 -50 22 -75 76 -75c53 0 88 15 109 30l-8 294l86 22l5 -228c2 -94 38 -118 102 -118c51 0 66 6 92 22c0 58 -8 191 -26 393l85 24c15 -183 20 -291 20 -377c0 -67 -15 -107 -41 -135c-31 -36 -78 -51 -133 -51c-76 0 -125 39 -137 83c-25 -52 -77 -83 -157 -83
zM239 146h58v142l-26 -11c-66 -27 -103 -42 -147 -68c-2 -10 -2 -18 -2 -25c4 -33 35 -38 117 -38z" />
    <glyph glyph-name="uniFE8E" unicode="&#x627;" horiz-adv-x="260" arabic-form="final" 
d="M227 0c-127 0 -174 61 -175 173l-5 481l86 22v-461c0 -71 24 -91 94 -91h33c13 0 23 -27 23 -61c0 -35 -10 -63 -23 -63h-33z" />
    <glyph glyph-name="uniFE84" unicode="&#x623;" horiz-adv-x="259" arabic-form="final" 
d="M-23 622l12 64l39 15c-22 16 -35 44 -35 72c0 56 43 97 100 102c9 1 19 0 29 -2c12 -1 23 -3 35 -5v-62l-24 3c-15 2 -27 3 -37 3c-26 0 -42 -4 -52 -8c-1 -8 -1 -15 -1 -20c0 -29 19 -45 44 -45c11 0 23 1 35 4l79 22l3 -3l-12 -65l-23 -8c-64 -24 -128 -47 -188 -70z
M226 0c-127 0 -174 61 -175 173l-4 396l85 22v-376c0 -71 24 -91 94 -91h33c13 0 23 -27 23 -61c0 -35 -10 -63 -23 -63h-33z" />
    <glyph glyph-name="uniFE88" unicode="&#x625;" horiz-adv-x="260" arabic-form="final" 
d="M227 0c-127 0 -174 61 -175 173l-5 481l86 22v-461c0 -71 24 -91 94 -91h33c13 0 23 -27 23 -61c0 -35 -10 -63 -23 -63h-33zM24 -314l12 63l38 16c-21 15 -35 43 -35 71c0 56 44 97 100 103c10 0 19 -1 29 -2c12 -1 24 -4 36 -6v-62l-25 3c-14 2 -26 3 -36 3
c-26 0 -42 -4 -53 -8c-1 -8 -1 -14 0 -20c0 -28 19 -45 44 -45c11 0 22 1 34 4l79 22l4 -3l-12 -64l-24 -9c-64 -23 -127 -47 -188 -70z" />
    <glyph glyph-name="uniFE82" unicode="&#x622;" horiz-adv-x="259" arabic-form="final" 
d="M-36 624l-43 29l10 31c12 33 32 69 73 69c49 0 89 -36 251 -3l4 -9l-25 -67c-126 -31 -189 -9 -239 3l-22 -50zM226 0c-127 0 -174 61 -175 173l-4 396l85 22v-376c0 -71 24 -91 94 -91h33c13 0 23 -27 23 -61c0 -35 -10 -63 -23 -63h-33z" />
    <glyph glyph-name="uniFB51" unicode="&#x671;" horiz-adv-x="259" arabic-form="final" 
d="M-54 604l-6 1l-22 48l123 146c35 42 64 57 106 57c81 0 115 -81 115 -129c0 -69 -47 -95 -162 -95c-55 0 -88 10 -110 20zM102 698c60 0 90 4 111 12c0 8 -2 18 -5 27c-10 29 -32 54 -68 54c-19 0 -35 -3 -45 -7l-66 -76c16 -6 43 -10 73 -10zM226 0
c-127 0 -174 61 -175 173l-4 396l85 22v-376c0 -71 24 -91 94 -91h33c13 0 23 -27 23 -61c0 -35 -10 -63 -23 -63h-33z" />
    <glyph glyph-name="uni066E.init" unicode="&#x66e;" horiz-adv-x="328" 
d="M0 0c-13 0 -23 28 -23 63c0 34 10 61 23 61c80 0 150 9 192 34l-26 170l84 53l9 -5c14 -102 22 -159 22 -199c0 -62 -21 -103 -59 -130c-57 -40 -143 -47 -222 -47z" />
    <glyph glyph-name="uni066E.medi" unicode="&#x66e;" horiz-adv-x="369" 
d="M0 0c-13 0 -23 28 -23 63c0 34 10 61 23 61h64c69 0 104 10 113 56l21 109l10 7l65 -17l-14 -89c-5 -34 20 -66 75 -66h35c13 0 23 -27 23 -61c0 -35 -10 -63 -23 -63h-39c-62 0 -102 25 -122 65c-35 -50 -82 -65 -147 -65h-61z" />
    <glyph glyph-name="uni066E.fina" unicode="&#x66e;" horiz-adv-x="812" 
d="M292 -10c-204 0 -249 75 -245 169c1 23 5 59 12 102l12 68l60 8l8 -7l-16 -121c-8 -53 12 -95 190 -95c227 0 299 9 310 66l21 109l10 7l65 -17l-14 -89c-5 -34 20 -66 75 -66h32c13 0 23 -27 23 -61c0 -35 -10 -63 -23 -63h-36c-62 0 -102 25 -123 67
c-48 -73 -193 -77 -361 -77z" />
    <glyph glyph-name="uniFE90" unicode="&#x628;" horiz-adv-x="812" arabic-form="final" 
d="M292 -10c-204 0 -249 75 -245 169c1 23 5 59 12 102l12 68l60 8l8 -7l-16 -121c-8 -53 12 -95 190 -95c227 0 299 9 310 66l21 109l10 7l65 -17l-14 -89c-5 -34 20 -66 75 -66h32c13 0 23 -27 23 -61c0 -35 -10 -63 -23 -63h-36c-62 0 -102 25 -123 67
c-48 -73 -193 -77 -361 -77zM377 -228l-94 43v15l37 80l94 -45v-15z" />
    <glyph glyph-name="uniFE92" unicode="&#x628;" horiz-adv-x="369" arabic-form="medial" 
d="M0 0c-13 0 -23 28 -23 63c0 34 10 61 23 61h64c69 0 104 10 113 56l21 109l10 7l65 -17l-14 -89c-5 -34 20 -66 75 -66h35c13 0 23 -27 23 -61c0 -35 -10 -63 -23 -63h-39c-62 0 -102 25 -122 65c-35 -50 -82 -65 -147 -65h-61zM124 -228l-94 43v15l37 80l94 -45v-15z
" />
    <glyph glyph-name="uniFE91" unicode="&#x628;" horiz-adv-x="328" arabic-form="initial" 
d="M0 0c-13 0 -23 28 -23 63c0 34 10 61 23 61c80 0 150 9 192 34l-26 170l84 53l9 -5c14 -102 22 -159 22 -199c0 -62 -21 -103 -59 -130c-57 -40 -143 -47 -222 -47zM104 -227l-94 43v16l37 79l94 -45v-14z" />
    <glyph glyph-name="uniFB57" unicode="&#x67e;" horiz-adv-x="812" arabic-form="final" 
d="M292 -10c-204 0 -249 75 -245 169c1 23 5 59 12 102l12 68l60 8l8 -7l-16 -121c-8 -53 12 -95 190 -95c227 0 299 9 310 66l21 109l10 7l65 -17l-14 -89c-5 -34 20 -66 75 -66h32c13 0 23 -27 23 -61c0 -35 -10 -63 -23 -63h-36c-62 0 -102 25 -123 67
c-48 -73 -193 -77 -361 -77zM478 -218l-87 39v14l34 73l86 -41v-13zM326 -226l-86 39v14l34 73l86 -41v-13zM426 -334l-84 38v14l33 71l84 -40v-14z" />
    <glyph glyph-name="uniFB59" unicode="&#x67e;" horiz-adv-x="369" arabic-form="medial" 
d="M0 0c-13 0 -23 28 -23 63c0 34 10 61 23 61h64c69 0 104 10 113 56l21 109l10 7l65 -17l-14 -89c-5 -34 20 -66 75 -66h35c13 0 23 -27 23 -61c0 -35 -10 -63 -23 -63h-39c-62 0 -102 25 -122 65c-35 -50 -82 -65 -147 -65h-61zM271 -214l-87 39v14l34 73l86 -41v-14z
M119 -222l-86 39v14l34 73l86 -41v-14zM219 -331l-85 39v14l34 71l84 -41v-13z" />
    <glyph glyph-name="uniFB58" unicode="&#x67e;" horiz-adv-x="328" arabic-form="initial" 
d="M0 0c-13 0 -23 28 -23 63c0 34 10 61 23 61c80 0 150 9 192 34l-26 170l84 53l9 -5c14 -102 22 -159 22 -199c0 -62 -21 -103 -59 -130c-57 -40 -143 -47 -222 -47zM248 -214l-87 39v15l34 72l86 -41v-13zM96 -222l-86 39v15l34 72l86 -41v-13zM196 -330l-84 38v14l33 71
l84 -40v-13z" />
    <glyph glyph-name="uniFB5A" unicode="&#x680;" horiz-adv-x="794" arabic-form="isolated" 
d="M292 -10c-204 0 -249 75 -245 169c1 24 5 61 13 106c4 21 7 42 11 64l60 8l8 -7l-16 -121c-8 -53 12 -95 190 -95c204 0 304 23 346 43l-27 171l84 53l10 -5c13 -102 22 -159 22 -199c0 -49 -12 -93 -45 -117c-80 -60 -278 -70 -411 -70zM478 -205l-86 39v14l33 72
l87 -41v-13zM342 -213l-86 39v14l33 72l87 -41v-13zM478 -332l-86 39v14l33 72l87 -41v-13zM342 -340l-86 39v14l33 72l87 -41v-13z" />
    <glyph glyph-name="uniFB5B" unicode="&#x680;" horiz-adv-x="812" arabic-form="final" 
d="M292 -10c-204 0 -249 75 -245 169c1 23 5 59 12 102l12 68l60 8l8 -7l-16 -121c-8 -53 12 -95 190 -95c227 0 299 9 310 66l21 109l10 7l65 -17l-14 -89c-5 -34 20 -66 75 -66h32c13 0 23 -27 23 -61c0 -35 -10 -63 -23 -63h-36c-62 0 -102 25 -123 67
c-48 -73 -193 -77 -361 -77zM478 -205l-86 39v14l33 72l87 -41v-13zM342 -213l-86 39v14l33 72l87 -41v-13zM478 -332l-86 39v14l33 72l87 -41v-13zM342 -340l-86 39v14l33 72l87 -41v-13z" />
    <glyph glyph-name="uniFB5D" unicode="&#x680;" horiz-adv-x="369" arabic-form="medial" 
d="M0 0c-13 0 -23 28 -23 63c0 34 10 61 23 61h64c69 0 104 10 113 56l21 109l10 7l65 -17l-14 -89c-5 -34 20 -66 75 -66h35c13 0 23 -27 23 -61c0 -35 -10 -63 -23 -63h-39c-62 0 -102 25 -122 65c-35 -50 -82 -65 -147 -65h-61zM298 -202l-86 39v15l33 72l87 -41v-13z
M162 -210l-87 39v15l34 72l86 -41v-13zM298 -329l-86 39v15l33 72l87 -41v-13zM162 -337l-87 39v15l34 72l86 -41v-13z" />
    <glyph glyph-name="uniFB5C" unicode="&#x680;" horiz-adv-x="328" arabic-form="initial" 
d="M0 0c-13 0 -23 28 -23 63c0 34 10 61 23 61c80 0 150 9 192 34l-26 170l84 53l9 -5c14 -102 22 -159 22 -199c0 -62 -21 -103 -59 -130c-57 -40 -143 -47 -222 -47zM225 -202l-86 39v15l34 72l86 -41v-13zM89 -210l-86 39v15l34 72l86 -41v-13zM225 -329l-86 39v15l34 72
l86 -41v-13zM89 -337l-86 39v15l34 72l86 -41v-13z" />
    <glyph glyph-name="uniFBE9" unicode="&#x649;" horiz-adv-x="369" arabic-form="medial" 
d="M0 0c-13 0 -23 28 -23 63c0 34 10 61 23 61h64c69 0 104 10 113 56l21 109l10 7l65 -17l-14 -89c-5 -34 20 -66 75 -66h35c13 0 23 -27 23 -61c0 -35 -10 -63 -23 -63h-39c-62 0 -102 25 -122 65c-35 -50 -82 -65 -147 -65h-61z" />
    <glyph glyph-name="uniFBE8" unicode="&#x649;" horiz-adv-x="328" arabic-form="initial" 
d="M0 0c-13 0 -23 28 -23 63c0 34 10 61 23 61c80 0 150 9 192 34l-26 170l84 53l9 -5c14 -102 22 -159 22 -199c0 -62 -21 -103 -59 -130c-57 -40 -143 -47 -222 -47z" />
    <glyph glyph-name="uniFE96" unicode="&#x62a;" horiz-adv-x="812" arabic-form="final" 
d="M470 355l-87 39v15l34 72l86 -41v-13zM327 347l-87 39v15l34 72l86 -41v-13zM292 -10c-204 0 -249 75 -245 169c1 23 5 59 12 102l12 68l60 8l8 -7l-16 -121c-8 -53 12 -95 190 -95c227 0 299 9 310 66l21 109l10 7l65 -17l-14 -89c-5 -34 20 -66 75 -66h32
c13 0 23 -27 23 -61c0 -35 -10 -63 -23 -63h-36c-62 0 -102 25 -123 67c-48 -73 -193 -77 -361 -77z" />
    <glyph glyph-name="uniFE98" unicode="&#x62a;" horiz-adv-x="369" arabic-form="medial" 
d="M269 396l-86 39v15l33 72l87 -41v-13zM126 388l-86 39v15l33 72l87 -41v-13zM0 0c-13 0 -23 28 -23 63c0 34 10 61 23 61h64c69 0 104 10 113 56l21 109l10 7l65 -17l-14 -89c-5 -34 20 -66 75 -66h35c13 0 23 -27 23 -61c0 -35 -10 -63 -23 -63h-39
c-62 0 -102 25 -122 65c-35 -50 -82 -65 -147 -65h-61z" />
    <glyph glyph-name="uniFE97" unicode="&#x62a;" horiz-adv-x="328" arabic-form="initial" 
d="M216 462l-86 39v14l33 73l87 -41v-13zM73 454l-86 39v14l33 73l87 -41v-13zM0 0c-13 0 -23 28 -23 63c0 34 10 61 23 61c80 0 150 9 192 34l-26 170l84 53l9 -5c14 -102 22 -159 22 -199c0 -62 -21 -103 -59 -130c-57 -40 -143 -47 -222 -47z" />
    <glyph glyph-name="uni067C.init" unicode="&#x67c;" horiz-adv-x="328" 
d="M250 534l-34 -72l-86 39v14l33 73l87 -41v-13zM107 526l-34 -72l-86 39v14l33 73l87 -41v-13zM259 376c14 -102 22 -159 22 -199c0 -62 -21 -103 -59 -130c-8 -5 -16 -10 -25 -15c14 -14 23 -34 23 -56c0 -45 -36 -81 -81 -81s-81 36 -81 81c0 9 1 18 4 26
c-21 -2 -42 -2 -62 -2c-13 0 -23 28 -23 63c0 34 10 61 23 61c80 0 150 9 192 34l-26 170l84 53zM139 -59c19 0 35 16 35 35s-16 35 -35 35s-35 -16 -35 -35s16 -35 35 -35z" />
    <glyph glyph-name="uni067C.medi" unicode="&#x67c;" horiz-adv-x="369" 
d="M303 468l-34 -72l-86 39v15l33 72l87 -41v-13zM160 460l-34 -72l-86 39v15l33 72l87 -41v-13zM369 124c13 0 23 -27 23 -61c0 -35 -10 -63 -23 -63h-39c-62 0 -102 25 -122 65c-13 -18 -27 -32 -44 -42c14 -14 22 -34 22 -55c0 -45 -36 -81 -81 -81s-81 36 -81 81
c0 11 2 22 6 32h-30c-13 0 -23 28 -23 63c0 34 10 61 23 61h64c69 0 104 10 113 56l21 109l10 7l65 -17l-14 -89c-5 -34 20 -66 75 -66h35zM140 -32c0 17 -13 33 -30 36l-18 -3c-13 -5 -22 -18 -22 -33c0 -19 16 -35 35 -35s35 16 35 35z" />
    <glyph glyph-name="uni067C.fina" unicode="&#x67c;" horiz-adv-x="812" 
d="M503 427l-33 -72l-87 39v15l34 72l86 -41v-13zM360 419l-33 -72l-87 39v15l34 72l86 -41v-13zM812 124c13 0 23 -27 23 -61c0 -35 -10 -63 -23 -63h-36c-62 0 -102 25 -123 67c-47 -71 -185 -77 -347 -77c5 -11 8 -22 8 -35c0 -45 -36 -81 -81 -81s-81 36 -81 81
c0 18 6 35 16 48c-99 25 -124 85 -121 156c1 23 5 59 12 102l12 68l60 8l8 -7l-16 -121c-8 -53 12 -95 190 -95c227 0 299 9 310 66l21 109l10 7l65 -17l-14 -89c-5 -34 20 -66 75 -66h32zM233 -81c19 0 35 17 35 36s-16 35 -35 35s-36 -16 -36 -35s17 -36 36 -36z" />
    <glyph glyph-name="uni067D.init" unicode="&#x67d;" horiz-adv-x="328" 
d="M248 531l-86 39v15l33 72l87 -41v-13zM97 523l-87 39v15l34 72l86 -41v-13zM196 415l-84 38v14l33 71l84 -40v-13zM0 0c-13 0 -23 28 -23 63c0 34 10 61 23 61c80 0 150 9 192 34l-26 170l84 53l9 -5c14 -102 22 -159 22 -199c0 -62 -21 -103 -59 -130
c-57 -40 -143 -47 -222 -47z" />
    <glyph glyph-name="uni067D.medi" unicode="&#x67d;" horiz-adv-x="369" 
d="M289 462l-86 39v14l33 73l87 -41v-13zM137 454l-86 39v14l34 73l86 -41v-13zM237 345l-84 39v14l33 71l84 -41v-13zM0 0c-13 0 -23 28 -23 63c0 34 10 61 23 61h64c69 0 104 10 113 56l21 109l10 7l65 -17l-14 -89c-5 -34 20 -66 75 -66h35c13 0 23 -27 23 -61
c0 -35 -10 -63 -23 -63h-39c-62 0 -102 25 -122 65c-35 -50 -82 -65 -147 -65h-61z" />
    <glyph glyph-name="uni067D.fina" unicode="&#x67d;" horiz-adv-x="812" 
d="M467 373l-87 39v14l34 73l86 -41v-14zM315 365l-86 39v14l34 73l86 -41v-14zM415 256l-84 39v14l33 71l84 -41v-13zM292 -10c-204 0 -249 75 -245 169c1 23 5 59 12 102l12 68l60 8l8 -7l-16 -121c-8 -53 12 -95 190 -95c227 0 299 9 310 66l21 109l10 7l65 -17l-14 -89
c-5 -34 20 -66 75 -66h32c13 0 23 -27 23 -61c0 -35 -10 -63 -23 -63h-36c-62 0 -102 25 -123 67c-48 -73 -193 -77 -361 -77z" />
    <glyph glyph-name="uniFE9A" unicode="&#x62b;" horiz-adv-x="812" arabic-form="final" 
d="M397 469l-83 38v14l33 70l83 -40v-13zM498 355l-86 39v15l34 72l86 -41v-13zM349 347l-87 39v15l34 72l86 -41v-13zM292 -10c-204 0 -249 75 -245 169c1 23 5 59 12 102l12 68l60 8l8 -7l-16 -121c-8 -53 12 -95 190 -95c227 0 299 9 310 66l21 109l10 7l65 -17l-14 -89
c-5 -34 20 -66 75 -66h32c13 0 23 -27 23 -61c0 -35 -10 -63 -23 -63h-36c-62 0 -102 25 -123 67c-48 -73 -193 -77 -361 -77z" />
    <glyph glyph-name="uniFE9C" unicode="&#x62b;" horiz-adv-x="369" arabic-form="medial" 
d="M176 523l-83 38v14l33 70l83 -40v-13zM277 409l-86 39v15l34 72l86 -41v-13zM128 401l-86 39v15l33 72l87 -41v-13zM0 0c-13 0 -23 28 -23 63c0 34 10 61 23 61h64c69 0 104 10 113 56l21 109l10 7l65 -17l-14 -89c-5 -34 20 -66 75 -66h35c13 0 23 -27 23 -61
c0 -35 -10 -63 -23 -63h-39c-62 0 -102 25 -122 65c-35 -50 -82 -65 -147 -65h-61z" />
    <glyph glyph-name="uniFE9B" unicode="&#x62b;" horiz-adv-x="328" arabic-form="initial" 
d="M127 570l-84 38v14l33 70l84 -40v-13zM228 456l-86 39v15l33 72l87 -41v-13zM78 448l-86 39v15l34 72l86 -41v-13zM0 0c-13 0 -23 28 -23 63c0 34 10 61 23 61c80 0 150 9 192 34l-26 170l84 53l9 -5c14 -102 22 -159 22 -199c0 -62 -21 -103 -59 -130
c-57 -40 -143 -47 -222 -47z" />
    <glyph glyph-name="uniFB66" unicode="&#x679;" horiz-adv-x="794" arabic-form="isolated" 
d="M223 412h43l41 52l-1 225l49 12v-179c10 11 20 21 31 29c20 14 44 21 71 21c78 0 97 -72 97 -108c0 -65 -48 -115 -187 -115h-135zM320 412h51c77 0 118 9 141 28c0 45 -19 71 -64 71c-23 0 -34 -2 -54 -6zM292 -10c-204 0 -249 75 -245 169c1 24 5 61 13 106
c4 21 7 42 11 64l60 8l8 -7l-16 -121c-8 -53 12 -95 190 -95c204 0 304 23 346 43l-27 171l84 53l10 -5c13 -102 22 -159 22 -199c0 -49 -12 -93 -45 -117c-80 -60 -278 -70 -411 -70z" />
    <glyph glyph-name="uniFB67" unicode="&#x679;" horiz-adv-x="812" arabic-form="final" 
d="M228 412h43l42 52l-2 225l49 12v-179c10 11 21 21 32 29c20 14 43 21 70 21c79 0 98 -72 98 -108c0 -65 -49 -115 -187 -115h-136zM325 412h52c76 0 118 9 141 28c0 45 -19 71 -64 71c-23 0 -34 -2 -54 -6zM292 -10c-204 0 -249 75 -245 169c1 23 5 59 12 102l12 68l60 8
l8 -7l-16 -121c-8 -53 12 -95 190 -95c227 0 299 9 310 66l21 109l10 7l65 -17l-14 -89c-5 -34 20 -66 75 -66h32c13 0 23 -27 23 -61c0 -35 -10 -63 -23 -63h-36c-62 0 -102 25 -123 67c-48 -73 -193 -77 -361 -77z" />
    <glyph glyph-name="uniFB69" unicode="&#x679;" horiz-adv-x="369" arabic-form="medial" 
d="M-10 451h44l41 52l-1 225l49 12v-178c10 11 20 21 31 28c20 15 43 21 71 21c78 0 97 -71 97 -107c0 -66 -48 -115 -187 -115h-135zM88 451h51c77 0 118 9 141 28c0 46 -19 71 -64 71c-23 0 -34 -1 -54 -6zM0 0c-13 0 -23 28 -23 63c0 34 10 61 23 61h64
c69 0 104 10 113 56l21 109l10 7l65 -17l-14 -89c-5 -34 20 -66 75 -66h35c13 0 23 -27 23 -61c0 -35 -10 -63 -23 -63h-39c-62 0 -102 25 -122 65c-35 -50 -82 -65 -147 -65h-61z" />
    <glyph glyph-name="uniFB68" unicode="&#x679;" horiz-adv-x="328" arabic-form="initial" 
d="M-20 498h39l38 47l-2 204l45 11v-162c9 10 18 19 28 26c18 13 39 19 64 19c71 0 88 -65 88 -97c0 -60 -43 -105 -169 -105h-123zM68 498h47c69 0 106 8 128 25c-1 42 -18 65 -58 65c-22 0 -31 -2 -50 -6zM0 0c-13 0 -23 28 -23 63c0 34 10 61 23 61c80 0 150 9 192 34
l-26 170l84 53l9 -5c14 -102 22 -159 22 -199c0 -62 -21 -103 -59 -130c-57 -40 -143 -47 -222 -47z" />
    <glyph glyph-name="uniFB5E" unicode="&#x67a;" horiz-adv-x="794" arabic-form="isolated" 
d="M406 445l-87 39v14l34 73l86 -41v-13zM406 312l-87 39v14l34 73l86 -41v-13zM292 -10c-204 0 -249 75 -245 169c1 24 5 61 13 106c4 21 7 42 11 64l60 8l8 -7l-16 -121c-8 -53 12 -95 190 -95c204 0 304 23 346 43l-27 171l84 53l10 -5c13 -102 22 -159 22 -199
c0 -49 -12 -93 -45 -117c-80 -60 -278 -70 -411 -70z" />
    <glyph glyph-name="uniFB5F" unicode="&#x67a;" horiz-adv-x="812" arabic-form="final" 
d="M410 445l-86 39v14l34 73l86 -41v-13zM410 312l-86 39v14l34 73l86 -41v-13zM292 -10c-204 0 -249 75 -245 169c1 23 5 59 12 102l12 68l60 8l8 -7l-16 -121c-8 -53 12 -95 190 -95c227 0 299 9 310 66l21 109l10 7l65 -17l-14 -89c-5 -34 20 -66 75 -66h32
c13 0 23 -27 23 -61c0 -35 -10 -63 -23 -63h-36c-62 0 -102 25 -123 67c-48 -73 -193 -77 -361 -77z" />
    <glyph glyph-name="uniFB61" unicode="&#x67a;" horiz-adv-x="369" arabic-form="medial" 
d="M227 492l-87 39v15l34 72l86 -41v-13zM227 359l-87 39v15l34 72l86 -41v-13zM0 0c-13 0 -23 28 -23 63c0 34 10 61 23 61h64c69 0 104 10 113 56l21 109l10 7l65 -17l-14 -89c-5 -34 20 -66 75 -66h35c13 0 23 -27 23 -61c0 -35 -10 -63 -23 -63h-39
c-62 0 -102 25 -122 65c-35 -50 -82 -65 -147 -65h-61z" />
    <glyph glyph-name="uniFB60" unicode="&#x67a;" horiz-adv-x="328" arabic-form="initial" 
d="M189 548l-86 39v15l34 72l86 -41v-13zM189 415l-86 39v15l34 72l86 -41v-13zM0 0c-13 0 -23 28 -23 63c0 34 10 61 23 61c80 0 150 9 192 34l-26 170l84 53l9 -5c14 -102 22 -159 22 -199c0 -62 -21 -103 -59 -130c-57 -40 -143 -47 -222 -47z" />
    <glyph glyph-name="uniFE9E" unicode="&#x62c;" horiz-adv-x="656" arabic-form="final" 
d="M656 124c13 0 23 -27 23 -61c0 -35 -10 -63 -23 -63h-113c-103 0 -153 24 -167 113l-8 39l-52 -29c-40 -22 -72 -45 -98 -65c-44 -34 -71 -71 -91 -119c19 -100 75 -163 292 -143l161 16l6 -8l-23 -105l-151 -15c-243 -24 -350 75 -349 228c0 110 77 215 257 321l53 30
l-169 42c-18 4 -29 8 -38 8c-10 0 -20 -6 -27 -17l-39 -60h-7l-46 51l35 65c23 44 44 70 91 70c49 0 166 -49 348 -89c28 -5 53 -10 77 -14l6 -13l-36 -96l-71 13l-64 -36l3 -17c8 -44 44 -46 108 -46h112zM266 -70l36 77l93 -43v-15l-36 -76l-93 41v16z" />
    <glyph glyph-name="uniFEA0" unicode="&#x62c;" horiz-adv-x="678" arabic-form="medial" 
d="M678 124c13 0 23 -27 23 -61c0 -35 -10 -63 -23 -63h-111c-103 0 -153 23 -167 113l-5 26l-40 -29c-100 -71 -201 -110 -306 -110h-49c-13 0 -23 28 -23 63c0 34 10 61 23 61h61c92 0 166 16 272 85l57 37l-165 57c-17 6 -28 8 -36 9c-10 0 -20 -6 -27 -16l-40 -60h-8
l-44 52l35 64c24 44 45 69 91 69c50 0 192 -65 316 -97c16 -4 31 -8 46 -11c18 -4 36 -7 53 -10l4 -14l-37 -94l-84 15l-38 -27l4 -22c7 -35 42 -37 107 -37h111zM208 -109l37 80l94 -45v-15l-37 -78l-94 43v15z" />
    <glyph glyph-name="uniFE9F" unicode="&#x62c;" horiz-adv-x="662" arabic-form="initial" 
d="M0 0c-13 0 -23 28 -23 63c0 34 10 61 23 61h61c92 0 166 16 272 85l57 37l-165 57c-17 6 -28 8 -36 9c-10 0 -20 -6 -27 -16l-40 -60h-8l-44 52l35 64c24 44 45 69 91 69c50 0 192 -65 316 -97c16 -4 31 -8 46 -11c18 -4 36 -7 53 -10l4 -14l-37 -94l-84 15l-139 -100
c-100 -71 -201 -110 -306 -110h-49zM345 -165l-94 42v16l37 79l94 -44v-15z" />
    <glyph glyph-name="uniFB7B" unicode="&#x686;" horiz-adv-x="656" arabic-form="final" 
d="M656 124c13 0 23 -27 23 -61c0 -35 -10 -63 -23 -63h-113c-103 0 -153 24 -167 113l-8 39l-52 -29c-40 -22 -72 -45 -98 -65c-44 -34 -71 -71 -91 -119c19 -100 75 -163 292 -143l161 16l6 -8l-23 -105l-151 -15c-243 -24 -350 75 -349 228c0 110 77 215 257 321l53 30
l-169 42c-18 4 -29 8 -38 8c-10 0 -20 -6 -27 -17l-39 -60h-7l-46 51l35 65c23 44 44 70 91 70c49 0 166 -49 348 -89c28 -5 53 -10 77 -14l6 -13l-36 -96l-71 13l-64 -36l3 -17c8 -44 44 -46 108 -46h112zM424 -23l-25 -55l-67 30v11l26 55l66 -31v-10zM305 -19v-11
l-26 -54l-66 30v11l26 55zM383 -115l-26 -53l-65 30v10l25 54l66 -30v-11z" />
    <glyph glyph-name="uniFB7D" unicode="&#x686;" horiz-adv-x="678" arabic-form="medial" 
d="M678 124c13 0 23 -27 23 -61c0 -35 -10 -63 -23 -63h-111c-103 0 -153 23 -167 113l-5 26l-40 -29c-100 -71 -201 -110 -306 -110h-49c-13 0 -23 28 -23 63c0 34 10 61 23 61h61c92 0 166 16 272 85l57 37l-165 57c-17 6 -28 8 -36 9c-10 0 -20 -6 -27 -16l-40 -60h-8
l-44 52l35 64c24 44 45 69 91 69c50 0 192 -65 316 -97c16 -4 31 -8 46 -11c18 -4 36 -7 53 -10l4 -14l-37 -94l-84 15l-38 -27l4 -22c7 -35 42 -37 107 -37h111zM311 -121l34 72l86 -41v-13l-33 -72l-87 39v15zM280 -98v-13l-34 -72l-86 39v15l34 72zM261 -239l34 71
l84 -40v-13l-33 -70l-85 38v14z" />
    <glyph glyph-name="uniFB7C" unicode="&#x686;" horiz-adv-x="662" arabic-form="initial" 
d="M0 0c-13 0 -23 28 -23 63c0 34 10 61 23 61h61c92 0 166 16 272 85l57 37l-165 57c-17 6 -28 8 -36 9c-10 0 -20 -6 -27 -16l-40 -60h-8l-44 52l35 64c24 44 45 69 91 69c50 0 192 -65 316 -97c16 -4 31 -8 46 -11c18 -4 36 -7 53 -10l4 -14l-37 -94l-84 15l-139 -100
c-100 -71 -201 -110 -306 -110h-49zM432 -174l-87 39v14l34 73l86 -41v-13zM280 -182l-86 39v14l33 73l87 -41v-13zM380 -290l-85 38v14l34 71l84 -40v-14z" />
    <glyph glyph-name="uniFB7E" unicode="&#x687;" horiz-adv-x="650" arabic-form="isolated" 
d="M412 -316c-243 -24 -350 75 -349 228c0 110 77 215 257 321l53 30l-169 42c-18 4 -29 8 -38 8c-10 0 -20 -6 -27 -17l-39 -60h-7l-46 51l35 65c23 44 44 70 91 70c49 0 166 -49 329 -84c47 -11 72 -15 96 -19l6 -13l-36 -96l-71 13l-181 -100c-40 -22 -72 -45 -98 -65
c-44 -34 -71 -71 -91 -119c19 -100 75 -163 292 -143l161 16l6 -8l-23 -105zM475 -16l-82 37v13l32 69l82 -39v-13zM346 -24l-81 37v14l32 68l81 -39v-12zM475 -136l-82 37v13l32 69l82 -39v-13zM346 -144l-81 37v13l32 69l81 -39v-12z" />
    <glyph glyph-name="uniFB7F" unicode="&#x687;" horiz-adv-x="656" arabic-form="final" 
d="M656 124c13 0 23 -27 23 -61c0 -35 -10 -63 -23 -63h-113c-103 0 -153 24 -167 113l-8 39l-52 -29c-40 -22 -72 -45 -98 -65c-44 -34 -71 -71 -91 -119c19 -100 75 -163 292 -143l161 16l6 -8l-23 -105l-151 -15c-243 -24 -350 75 -349 228c0 110 77 215 257 321l53 30
l-169 42c-18 4 -29 8 -38 8c-10 0 -20 -6 -27 -17l-39 -60h-7l-46 51l35 65c23 44 44 70 91 70c49 0 166 -49 348 -89c28 -5 53 -10 77 -14l6 -13l-36 -96l-71 13l-64 -36l3 -17c8 -44 44 -46 108 -46h112zM413 9v-11l-26 -56l-68 31v11l26 57zM306 3v-11l-27 -56l-68 30v12
l27 57zM319 -116l26 57l68 -32v-11l-26 -56l-68 31v11zM211 -122l27 57l68 -33v-10l-27 -56l-68 30v12z" />
    <glyph glyph-name="uniFB81" unicode="&#x687;" horiz-adv-x="678" arabic-form="medial" 
d="M678 124c13 0 23 -27 23 -61c0 -35 -10 -63 -23 -63h-111c-103 0 -153 23 -167 113l-5 26l-40 -29c-100 -71 -201 -110 -306 -110h-49c-13 0 -23 28 -23 63c0 34 10 61 23 61h61c92 0 166 16 272 85l57 37l-165 57c-17 6 -28 8 -36 9c-10 0 -20 -6 -27 -16l-40 -60h-8
l-44 52l35 64c24 44 45 69 91 69c50 0 192 -65 316 -97c16 -4 31 -8 46 -11c18 -4 36 -7 53 -10l4 -14l-37 -94l-84 15l-38 -27l4 -22c7 -35 42 -37 107 -37h111zM312 -76l34 72l86 -41v-13l-34 -72l-86 39v15zM176 -84l33 72l87 -41v-13l-34 -72l-86 39v15zM312 -203l34 72
l86 -41v-13l-34 -72l-86 39v15zM176 -211l33 72l87 -41v-13l-34 -72l-86 39v15z" />
    <glyph glyph-name="uniFB80" unicode="&#x687;" horiz-adv-x="662" arabic-form="initial" 
d="M0 0c-13 0 -23 28 -23 63c0 34 10 61 23 61h61c92 0 166 16 272 85l57 37l-165 57c-17 6 -28 8 -36 9c-10 0 -20 -6 -27 -16l-40 -60h-8l-44 52l35 64c24 44 45 69 91 69c50 0 192 -65 316 -97c16 -4 31 -8 46 -11c18 -4 36 -7 53 -10l4 -14l-37 -94l-84 15l-139 -100
c-100 -71 -201 -110 -306 -110h-49zM441 -130l-87 39v15l34 72l86 -41v-13zM304 -138l-86 39v15l34 72l86 -41v-13zM441 -257l-87 39v15l34 72l86 -41v-13zM304 -265l-86 39v15l34 72l86 -41v-13z" />
    <glyph glyph-name="uniFB76" unicode="&#x683;" horiz-adv-x="650" arabic-form="isolated" 
d="M412 -316c-243 -24 -350 75 -349 228c0 110 77 215 257 321l53 30l-169 42c-18 4 -29 8 -38 8c-10 0 -20 -6 -27 -17l-39 -60h-7l-46 51l35 65c23 44 44 70 91 70c49 0 166 -49 329 -84c47 -11 72 -15 96 -19l6 -13l-36 -96l-71 13l-181 -100c-40 -22 -72 -45 -98 -65
c-44 -34 -71 -71 -91 -119c19 -100 75 -163 292 -143l161 16l6 -8l-23 -105zM487 -75l-85 39v14l33 72l85 -41v-13zM346 -82l-85 38v14l33 72l86 -41v-13z" />
    <glyph glyph-name="uniFB77" unicode="&#x683;" horiz-adv-x="656" arabic-form="final" 
d="M656 124c13 0 23 -27 23 -61c0 -35 -10 -63 -23 -63h-113c-103 0 -153 24 -167 113l-8 39l-52 -29c-40 -22 -72 -45 -98 -65c-44 -34 -71 -71 -91 -119c19 -100 75 -163 292 -143l161 16l6 -8l-23 -105l-151 -15c-243 -24 -350 75 -349 228c0 110 77 215 257 321l53 30
l-169 42c-18 4 -29 8 -38 8c-10 0 -20 -6 -27 -17l-39 -60h-7l-46 51l35 65c23 44 44 70 91 70c49 0 166 -49 348 -89c28 -5 53 -10 77 -14l6 -13l-36 -96l-71 13l-64 -36l3 -17c8 -44 44 -46 108 -46h112zM356 -74l33 71l84 -40v-13l-33 -70l-84 38v14zM217 -82l33 71
l84 -40v-13l-33 -70l-84 38v14z" />
    <glyph glyph-name="uniFB79" unicode="&#x683;" horiz-adv-x="678" arabic-form="medial" 
d="M678 124c13 0 23 -27 23 -61c0 -35 -10 -63 -23 -63h-111c-103 0 -153 23 -167 113l-5 26l-40 -29c-100 -71 -201 -110 -306 -110h-49c-13 0 -23 28 -23 63c0 34 10 61 23 61h61c92 0 166 16 272 85l57 37l-165 57c-17 6 -28 8 -36 9c-10 0 -20 -6 -27 -16l-40 -60h-8
l-44 52l35 64c24 44 45 69 91 69c50 0 192 -65 316 -97c16 -4 31 -8 46 -11c18 -4 36 -7 53 -10l4 -14l-37 -94l-84 15l-38 -27l4 -22c7 -35 42 -37 107 -37h111zM319 -98l34 72l86 -41v-13l-34 -72l-86 39v15zM176 -106l34 72l86 -41v-13l-34 -72l-86 39v15z" />
    <glyph glyph-name="uniFB78" unicode="&#x683;" horiz-adv-x="662" arabic-form="initial" 
d="M0 0c-13 0 -23 28 -23 63c0 34 10 61 23 61h61c92 0 166 16 272 85l57 37l-165 57c-17 6 -28 8 -36 9c-10 0 -20 -6 -27 -16l-40 -60h-8l-44 52l35 64c24 44 45 69 91 69c50 0 192 -65 316 -97c16 -4 31 -8 46 -11c18 -4 36 -7 53 -10l4 -14l-37 -94l-84 15l-139 -100
c-100 -71 -201 -110 -306 -110h-49zM405 -152l-86 39v15l34 72l86 -41v-13zM262 -160l-86 39v15l34 72l86 -41v-13z" />
    <glyph glyph-name="uniFB72" unicode="&#x684;" horiz-adv-x="650" arabic-form="isolated" 
d="M412 -316c-243 -24 -350 75 -349 228c0 110 77 215 257 321l53 30l-169 42c-18 4 -29 8 -38 8c-10 0 -20 -6 -27 -17l-39 -60h-7l-46 51l35 65c23 44 44 70 91 70c49 0 166 -49 329 -84c47 -11 72 -15 96 -19l6 -13l-36 -96l-71 13l-181 -100c-40 -22 -72 -45 -98 -65
c-44 -34 -71 -71 -91 -119c19 -100 75 -163 292 -143l161 16l6 -8l-23 -105zM394 -33l-82 37v14l32 69l82 -39v-13zM394 -159l-82 37v14l32 69l82 -39v-13z" />
    <glyph glyph-name="uniFB73" unicode="&#x684;" horiz-adv-x="656" arabic-form="final" 
d="M656 124c13 0 23 -27 23 -61c0 -35 -10 -63 -23 -63h-113c-103 0 -153 24 -167 113l-8 39l-52 -29c-40 -22 -72 -45 -98 -65c-44 -34 -71 -71 -91 -119c19 -100 75 -163 292 -143l161 16l6 -8l-23 -105l-151 -15c-243 -24 -350 75 -349 228c0 110 77 215 257 321l53 30
l-169 42c-18 4 -29 8 -38 8c-10 0 -20 -6 -27 -17l-39 -60h-7l-46 51l35 65c23 44 44 70 91 70c49 0 166 -49 348 -89c28 -5 53 -10 77 -14l6 -13l-36 -96l-71 13l-64 -36l3 -17c8 -44 44 -46 108 -46h112zM350 25v-12l-30 -64l-78 35v12l30 65zM242 -123l30 65l78 -36v-12
l-30 -64l-78 34v13z" />
    <glyph glyph-name="uniFB75" unicode="&#x684;" horiz-adv-x="678" arabic-form="medial" 
d="M678 124c13 0 23 -27 23 -61c0 -35 -10 -63 -23 -63h-111c-103 0 -153 23 -167 113l-5 26l-40 -29c-100 -71 -201 -110 -306 -110h-49c-13 0 -23 28 -23 63c0 34 10 61 23 61h61c92 0 166 16 272 85l57 37l-165 57c-17 6 -28 8 -36 9c-10 0 -20 -6 -27 -16l-40 -60h-8
l-44 52l35 64c24 44 45 69 91 69c50 0 192 -65 316 -97c16 -4 31 -8 46 -11c18 -4 36 -7 53 -10l4 -14l-37 -94l-84 15l-38 -27l4 -22c7 -35 42 -37 107 -37h111zM274 -78l34 73l86 -41v-13l-34 -72l-86 39v14zM274 -210l34 72l86 -41v-13l-34 -72l-86 39v15z" />
    <glyph glyph-name="uniFB74" unicode="&#x684;" horiz-adv-x="662" arabic-form="initial" 
d="M0 0c-13 0 -23 28 -23 63c0 34 10 61 23 61h61c92 0 166 16 272 85l57 37l-165 57c-17 6 -28 8 -36 9c-10 0 -20 -6 -27 -16l-40 -60h-8l-44 52l35 64c24 44 45 69 91 69c50 0 192 -65 316 -97c16 -4 31 -8 46 -11c18 -4 36 -7 53 -10l4 -14l-37 -94l-84 15l-139 -100
c-100 -71 -201 -110 -306 -110h-49zM321 -131l-86 39v14l34 73l86 -41v-13zM321 -264l-86 39v15l34 72l86 -41v-13z" />
    <glyph glyph-name="uniFEA2" unicode="&#x62d;" horiz-adv-x="656" arabic-form="final" 
d="M656 124c13 0 23 -27 23 -61c0 -35 -10 -63 -23 -63h-113c-103 0 -153 24 -167 113l-8 39l-52 -29c-40 -22 -72 -45 -98 -65c-44 -34 -71 -71 -91 -119c19 -100 75 -163 292 -143l161 16l6 -8l-23 -105l-151 -15c-243 -24 -350 75 -349 228c0 110 77 215 257 321l53 30
l-169 42c-18 4 -29 8 -38 8c-10 0 -20 -6 -27 -17l-39 -60h-7l-46 51l35 65c23 44 44 70 91 70c49 0 166 -49 348 -89c28 -5 53 -10 77 -14l6 -13l-36 -96l-71 13l-64 -36l3 -17c8 -44 44 -46 108 -46h112z" />
    <glyph glyph-name="uniFEA4" unicode="&#x62d;" horiz-adv-x="678" arabic-form="medial" 
d="M678 124c13 0 23 -27 23 -61c0 -35 -10 -63 -23 -63h-111c-103 0 -153 23 -167 113l-5 26l-40 -29c-100 -71 -201 -110 -306 -110h-49c-13 0 -23 28 -23 63c0 34 10 61 23 61h61c92 0 166 16 272 85l57 37l-165 57c-17 6 -28 8 -36 9c-10 0 -20 -6 -27 -16l-40 -60h-8
l-44 52l35 64c24 44 45 69 91 69c50 0 192 -65 316 -97c16 -4 31 -8 46 -11c18 -4 36 -7 53 -10l4 -14l-37 -94l-84 15l-38 -27l4 -22c7 -35 42 -37 107 -37h111z" />
    <glyph glyph-name="uniFEA3" unicode="&#x62d;" horiz-adv-x="662" arabic-form="initial" 
d="M0 0c-13 0 -23 28 -23 63c0 34 10 61 23 61h61c92 0 166 16 272 85l57 37l-165 57c-17 6 -28 8 -36 9c-10 0 -20 -6 -27 -16l-40 -60h-8l-44 52l35 64c24 44 45 69 91 69c50 0 192 -65 316 -97c16 -4 31 -8 46 -11c18 -4 36 -7 53 -10l4 -14l-37 -94l-84 15l-139 -100
c-100 -71 -201 -110 -306 -110h-49z" />
    <glyph glyph-name="uni0681.init" unicode="&#x681;" horiz-adv-x="662" 
d="M97 475l12 63l38 16c-21 15 -35 43 -35 71c0 56 43 97 100 103c10 0 19 -1 29 -2c12 -1 24 -4 36 -6v-62l-25 3c-14 2 -27 3 -36 3c-26 0 -42 -4 -53 -8c-1 -8 -1 -14 0 -20c0 -28 19 -45 44 -45c10 0 22 1 34 4l79 22l4 -3l-13 -64l-23 -9c-64 -23 -127 -47 -188 -70z
M0 0c-13 0 -23 28 -23 63c0 34 10 61 23 61h61c92 0 166 16 272 85l57 37l-165 57c-17 6 -28 8 -36 9c-10 0 -20 -6 -27 -16l-40 -60h-8l-44 52l35 64c24 44 45 69 91 69c50 0 192 -65 316 -97c16 -4 31 -8 46 -11c18 -4 36 -7 53 -10l4 -14l-37 -94l-84 15l-139 -100
c-100 -71 -201 -110 -306 -110h-49z" />
    <glyph glyph-name="uni0681.medi" unicode="&#x681;" horiz-adv-x="678" 
d="M288 541c-64 -23 -127 -47 -188 -70l-3 4l12 63l38 16c-21 15 -35 43 -35 71c0 56 43 97 100 103c10 0 19 -1 29 -2c12 -1 24 -4 36 -6v-62l-25 3c-14 2 -27 3 -36 3c-26 0 -42 -4 -53 -8c-1 -8 -1 -14 0 -20c0 -28 19 -45 44 -45c10 0 22 1 34 4l79 22l4 -3l-13 -64z
M678 124c13 0 23 -27 23 -61c0 -35 -10 -63 -23 -63h-111c-103 0 -153 23 -167 113l-5 26l-40 -29c-100 -71 -201 -110 -306 -110h-49c-13 0 -23 28 -23 63c0 34 10 61 23 61h61c92 0 166 16 272 85l57 37l-165 57c-17 6 -28 8 -36 9c-10 0 -20 -6 -27 -16l-40 -60h-8
l-44 52l35 64c24 44 45 69 91 69c50 0 192 -65 316 -97c16 -4 31 -8 46 -11c18 -4 36 -7 53 -10l4 -14l-37 -94l-84 15l-38 -27l4 -22c7 -35 42 -37 107 -37h111z" />
    <glyph glyph-name="uni0681.fina" unicode="&#x681;" horiz-adv-x="656" 
d="M288 541c-64 -23 -127 -47 -188 -70l-3 4l12 63l38 16c-21 15 -35 43 -35 71c0 56 43 97 100 103c10 0 19 -1 29 -2c12 -1 24 -4 36 -6v-62l-25 3c-14 2 -27 3 -36 3c-26 0 -42 -4 -53 -8c-1 -8 -1 -14 0 -20c0 -28 19 -45 44 -45c10 0 22 1 34 4l79 22l4 -3l-13 -64z
M656 124c13 0 23 -27 23 -61c0 -35 -10 -63 -23 -63h-113c-103 0 -153 24 -167 113l-8 39l-52 -29c-40 -22 -72 -45 -98 -65c-44 -34 -71 -71 -91 -119c19 -100 75 -163 292 -143l161 16l6 -8l-23 -105l-151 -15c-243 -24 -350 75 -349 228c0 110 77 215 257 321l53 30
l-169 42c-18 4 -29 8 -38 8c-10 0 -20 -6 -27 -17l-39 -60h-7l-46 51l35 65c23 44 44 70 91 70c49 0 166 -49 348 -89c28 -5 53 -10 77 -14l6 -13l-36 -96l-71 13l-64 -36l3 -17c8 -44 44 -46 108 -46h112z" />
    <glyph glyph-name="uni0685.init" unicode="&#x685;" horiz-adv-x="662" 
d="M175 591l-84 38v14l33 70l84 -40v-13zM276 477l-87 39v14l34 73l86 -41v-13zM126 469l-86 39v14l34 73l86 -41v-13zM0 0c-13 0 -23 28 -23 63c0 34 10 61 23 61h61c92 0 166 16 272 85l57 37l-165 57c-17 6 -28 8 -36 9c-10 0 -20 -6 -27 -16l-40 -60h-8l-44 52l35 64
c24 44 45 69 91 69c50 0 192 -65 316 -97c16 -4 31 -8 46 -11c18 -4 36 -7 53 -10l4 -14l-37 -94l-84 15l-139 -100c-100 -71 -201 -110 -306 -110h-49z" />
    <glyph glyph-name="uni0685.medi" unicode="&#x685;" horiz-adv-x="678" 
d="M208 660l-33 -69l-84 38v14l33 70l84 -40v-13zM189 516v14l34 73l86 -41v-13l-33 -72zM160 541l-34 -72l-86 39v14l34 73l86 -41v-13zM678 124c13 0 23 -27 23 -61c0 -35 -10 -63 -23 -63h-111c-103 0 -153 23 -167 113l-5 26l-40 -29c-100 -71 -201 -110 -306 -110h-49
c-13 0 -23 28 -23 63c0 34 10 61 23 61h61c92 0 166 16 272 85l57 37l-165 57c-17 6 -28 8 -36 9c-10 0 -20 -6 -27 -16l-40 -60h-8l-44 52l35 64c24 44 45 69 91 69c50 0 192 -65 316 -97c16 -4 31 -8 46 -11c18 -4 36 -7 53 -10l4 -14l-37 -94l-84 15l-38 -27l4 -22
c7 -35 42 -37 107 -37h111z" />
    <glyph glyph-name="uni0685.fina" unicode="&#x685;" horiz-adv-x="656" 
d="M208 657l-33 -69l-84 38v14l33 70l84 -40v-13zM189 514v14l34 73l86 -41v-14l-33 -71zM160 538l-34 -71l-86 39v14l34 73l86 -41v-14zM656 124c13 0 23 -27 23 -61c0 -35 -10 -63 -23 -63h-113c-103 0 -153 24 -167 113l-8 39l-52 -29c-40 -22 -72 -45 -98 -65
c-44 -34 -71 -71 -91 -119c19 -100 75 -163 292 -143l161 16l6 -8l-23 -105l-151 -15c-243 -24 -350 75 -349 228c0 110 77 215 257 321l53 30l-169 42c-18 4 -29 8 -38 8c-10 0 -20 -6 -27 -17l-39 -60h-7l-46 51l35 65c23 44 44 70 91 70c49 0 166 -49 348 -89
c28 -5 53 -10 77 -14l6 -13l-36 -96l-71 13l-64 -36l3 -17c8 -44 44 -46 108 -46h112z" />
    <glyph glyph-name="uniFEA6" unicode="&#x62e;" horiz-adv-x="656" arabic-form="final" 
d="M218 563l-37 -78l-94 42v16l37 80l94 -45v-15zM656 124c13 0 23 -27 23 -61c0 -35 -10 -63 -23 -63h-113c-103 0 -153 24 -167 113l-8 39l-52 -29c-40 -22 -72 -45 -98 -65c-44 -34 -71 -71 -91 -119c19 -100 75 -163 292 -143l161 16l6 -8l-23 -105l-151 -15
c-243 -24 -350 75 -349 228c0 110 77 215 257 321l53 30l-169 42c-18 4 -29 8 -38 8c-10 0 -20 -6 -27 -17l-39 -60h-7l-46 51l35 65c23 44 44 70 91 70c49 0 166 -49 348 -89c28 -5 53 -10 77 -14l6 -13l-36 -96l-71 13l-64 -36l3 -17c8 -44 44 -46 108 -46h112z" />
    <glyph glyph-name="uniFEA8" unicode="&#x62e;" horiz-adv-x="678" arabic-form="medial" 
d="M260 564l-37 -78l-95 42v16l37 79l95 -45v-14zM678 124c13 0 23 -27 23 -61c0 -35 -10 -63 -23 -63h-111c-103 0 -153 23 -167 113l-5 26l-40 -29c-100 -71 -201 -110 -306 -110h-49c-13 0 -23 28 -23 63c0 34 10 61 23 61h61c92 0 166 16 272 85l57 37l-165 57
c-17 6 -28 8 -36 9c-10 0 -20 -6 -27 -16l-40 -60h-8l-44 52l35 64c24 44 45 69 91 69c50 0 192 -65 316 -97c16 -4 31 -8 46 -11c18 -4 36 -7 53 -10l4 -14l-37 -94l-84 15l-38 -27l4 -22c7 -35 42 -37 107 -37h111z" />
    <glyph glyph-name="uniFEA7" unicode="&#x62e;" horiz-adv-x="662" arabic-form="initial" 
d="M223 486l-95 42v16l37 79l95 -45v-14zM0 0c-13 0 -23 28 -23 63c0 34 10 61 23 61h61c92 0 166 16 272 85l57 37l-165 57c-17 6 -28 8 -36 9c-10 0 -20 -6 -27 -16l-40 -60h-8l-44 52l35 64c24 44 45 69 91 69c50 0 192 -65 316 -97c16 -4 31 -8 46 -11
c18 -4 36 -7 53 -10l4 -14l-37 -94l-84 15l-139 -100c-100 -71 -201 -110 -306 -110h-49z" />
    <glyph glyph-name="uniFEAA" unicode="&#x62f;" horiz-adv-x="529" arabic-form="final" 
d="M182 -10c-98 0 -144 34 -134 138l8 83l61 9l5 -6l-3 -59c-3 -40 22 -42 81 -42c46 0 95 13 127 29l-31 282l74 54l10 -5l23 -232c10 -102 42 -117 97 -117h29c13 0 23 -27 23 -61c0 -35 -10 -63 -23 -63h-39c-59 0 -102 25 -121 62c-32 -48 -125 -72 -187 -72z" />
    <glyph glyph-name="uniFEAC" unicode="&#x630;" horiz-adv-x="529" arabic-form="final" 
d="M311 536l-95 42v16l37 79l94 -45v-14zM182 -10c-98 0 -144 34 -134 138l8 83l61 9l5 -6l-3 -59c-3 -40 22 -42 81 -42c46 0 95 13 127 29l-31 282l74 54l10 -5l23 -232c10 -102 42 -117 97 -117h29c13 0 23 -27 23 -61c0 -35 -10 -63 -23 -63h-39c-59 0 -102 25 -121 62
c-32 -48 -125 -72 -187 -72z" />
    <glyph glyph-name="uniFB88" unicode="&#x688;" horiz-adv-x="494" arabic-form="isolated" 
d="M59 579h39l38 47l-1 204l44 11v-162c9 10 19 19 29 26c17 13 39 19 64 19c71 0 88 -65 88 -97c0 -60 -44 -105 -170 -105h-122zM147 579h47c70 0 107 8 128 25c0 42 -17 65 -58 65c-21 0 -31 -2 -49 -6zM182 -10c-98 0 -144 34 -134 138l8 83l61 9l5 -6l-3 -59
c-2 -40 22 -42 81 -42c80 0 142 20 172 43c-14 31 -57 90 -167 240l70 86c88 -125 172 -234 172 -321c0 -119 -131 -171 -265 -171z" />
    <glyph glyph-name="uniFB89" unicode="&#x688;" horiz-adv-x="529" arabic-form="final" 
d="M70 578h39l38 48l-2 204l45 11v-162c9 10 19 19 28 26c18 13 40 19 64 19c71 0 89 -65 89 -98c0 -59 -44 -104 -170 -104h-123zM158 578h47c69 0 106 9 128 26c-1 41 -17 64 -58 64c-22 0 -31 -1 -49 -5zM182 -10c-98 0 -144 34 -134 138l8 83l61 9l5 -6l-3 -59
c-3 -40 22 -42 81 -42c46 0 95 13 127 29l-31 282l74 54l10 -5l23 -232c10 -102 42 -117 97 -117h29c13 0 23 -27 23 -61c0 -35 -10 -63 -23 -63h-39c-59 0 -102 25 -121 62c-32 -48 -125 -72 -187 -72z" />
    <glyph glyph-name="uniFB84" unicode="&#x68c;" horiz-adv-x="494" arabic-form="isolated" 
d="M319 554l-86 39v14l34 73l86 -41v-13zM176 546l-86 39v14l34 73l86 -41v-13zM182 -10c-98 0 -144 34 -134 138l8 83l61 9l5 -6l-3 -59c-2 -40 22 -42 81 -42c80 0 142 20 172 43c-14 31 -57 90 -167 240l70 86c88 -125 172 -234 172 -321c0 -119 -131 -171 -265 -171z
" />
    <glyph glyph-name="uniFB85" unicode="&#x68c;" horiz-adv-x="529" arabic-form="final" 
d="M413 550l-86 39v14l33 72l87 -41v-13zM270 542l-86 39v14l33 72l87 -41v-13zM182 -10c-98 0 -144 34 -134 138l8 83l61 9l5 -6l-3 -59c-3 -40 22 -42 81 -42c46 0 95 13 127 29l-31 282l74 54l10 -5l23 -232c10 -102 42 -117 97 -117h29c13 0 23 -27 23 -61
c0 -35 -10 -63 -23 -63h-39c-59 0 -102 25 -121 62c-32 -48 -125 -72 -187 -72z" />
    <glyph glyph-name="uniFB82" unicode="&#x68d;" horiz-adv-x="494" arabic-form="isolated" 
d="M182 -10c-98 0 -144 34 -134 138l8 83l61 9l5 -6l-3 -59c-2 -40 22 -42 81 -42c80 0 142 20 172 43c-14 31 -57 90 -167 240l70 86c88 -125 172 -234 172 -321c0 -119 -131 -171 -265 -171zM304 -214l-86 39v14l34 73l86 -41v-14zM161 -222l-86 39v14l34 73l86 -41v-14z
" />
    <glyph glyph-name="uniFB83" unicode="&#x68d;" horiz-adv-x="529" arabic-form="final" 
d="M182 -10c-98 0 -144 34 -134 138l8 83l61 9l5 -6l-3 -59c-3 -40 22 -42 81 -42c46 0 95 13 127 29l-31 282l74 54l10 -5l23 -232c10 -102 42 -117 97 -117h29c13 0 23 -27 23 -61c0 -35 -10 -63 -23 -63h-39c-59 0 -102 25 -121 62c-32 -48 -125 -72 -187 -72zM304 -214
l-86 39v14l34 73l86 -41v-14zM161 -222l-86 39v14l34 73l86 -41v-14z" />
    <glyph glyph-name="uni0689.fina" unicode="&#x689;" horiz-adv-x="529" 
d="M529 124c13 0 23 -27 23 -61c0 -35 -10 -63 -23 -63h-39c-59 0 -102 25 -121 62c-24 -36 -81 -58 -134 -67c6 -12 10 -25 10 -40c0 -45 -36 -81 -81 -81s-81 36 -81 81c0 18 6 35 16 49c-40 18 -58 56 -51 124l8 83l61 9l5 -6l-3 -59c-3 -40 22 -42 81 -42
c46 0 95 13 127 29l-31 282l74 54l10 -5l23 -232c10 -102 42 -117 97 -117h29zM164 -81c19 0 36 17 36 36s-17 35 -36 35s-35 -16 -35 -35s16 -36 35 -36z" />
    <glyph glyph-name="uni068A.fina" unicode="&#x68a;" horiz-adv-x="529" 
d="M182 -10c-98 0 -144 34 -134 138l8 83l61 9l5 -6l-3 -59c-3 -40 22 -42 81 -42c46 0 95 13 127 29l-31 282l74 54l10 -5l23 -232c10 -102 42 -117 97 -117h29c13 0 23 -27 23 -61c0 -35 -10 -63 -23 -63h-39c-59 0 -102 25 -121 62c-32 -48 -125 -72 -187 -72zM233 -216
l-94 42v16l37 79l94 -44v-15z" />
    <glyph glyph-name="uni068B.fina" unicode="&#x68b;" horiz-adv-x="529" 
d="M70 578h39l38 48l-2 204l45 11v-162c9 10 19 19 28 26c18 13 40 19 64 19c71 0 89 -65 89 -98c0 -59 -44 -104 -170 -104h-123zM158 578h47c69 0 106 9 128 26c-1 41 -17 64 -58 64c-22 0 -31 -1 -49 -5zM182 -10c-98 0 -144 34 -134 138l8 83l61 9l5 -6l-3 -59
c-3 -40 22 -42 81 -42c46 0 95 13 127 29l-31 282l74 54l10 -5l23 -232c10 -102 42 -117 97 -117h29c13 0 23 -27 23 -61c0 -35 -10 -63 -23 -63h-39c-59 0 -102 25 -121 62c-32 -48 -125 -72 -187 -72zM213 -247l-94 42v16l37 79l94 -44v-15z" />
    <glyph glyph-name="uniFB86" unicode="&#x68e;" horiz-adv-x="494" arabic-form="isolated" 
d="M226 667l-84 38v14l33 70l84 -40v-13zM327 554l-86 39v14l33 73l87 -41v-14zM177 546l-86 39v14l34 73l86 -41v-14zM182 -10c-98 0 -144 34 -134 138l8 83l61 9l5 -6l-3 -59c-2 -40 22 -42 81 -42c80 0 142 20 172 43c-14 31 -57 90 -167 240l70 86
c88 -125 172 -234 172 -321c0 -119 -131 -171 -265 -171z" />
    <glyph glyph-name="uniFB87" unicode="&#x68e;" horiz-adv-x="529" arabic-form="final" 
d="M305 666l-83 38v14l33 70l83 -40v-13zM406 552l-86 39v14l34 73l86 -41v-13zM257 544l-87 39v14l34 73l86 -41v-13zM182 -10c-98 0 -144 34 -134 138l8 83l61 9l5 -6l-3 -59c-3 -40 22 -42 81 -42c46 0 95 13 127 29l-31 282l74 54l10 -5l23 -232
c10 -102 42 -117 97 -117h29c13 0 23 -27 23 -61c0 -35 -10 -63 -23 -63h-39c-59 0 -102 25 -121 62c-32 -48 -125 -72 -187 -72z" />
    <glyph glyph-name="uni068F.fina" unicode="&#x68f;" horiz-adv-x="529" 
d="M363 633l-86 39v14l33 73l87 -41v-14zM212 625l-87 39v14l34 73l86 -41v-14zM311 516l-84 39v14l33 71l84 -41v-13zM182 -10c-98 0 -144 34 -134 138l8 83l61 9l5 -6l-3 -59c-3 -40 22 -42 81 -42c46 0 95 13 127 29l-31 282l74 54l10 -5l23 -232
c10 -102 42 -117 97 -117h29c13 0 23 -27 23 -61c0 -35 -10 -63 -23 -63h-39c-59 0 -102 25 -121 62c-32 -48 -125 -72 -187 -72z" />
    <glyph glyph-name="uni0690.fina" unicode="&#x690;" horiz-adv-x="529" 
d="M330 644l-86 39v14l34 73l86 -41v-14zM194 636l-86 39v14l34 73l86 -41v-14zM330 517l-86 39v14l34 73l86 -41v-14zM194 509l-86 39v14l34 73l86 -41v-14zM182 -10c-98 0 -144 34 -134 138l8 83l61 9l5 -6l-3 -59c-3 -40 22 -42 81 -42c46 0 95 13 127 29l-31 282l74 54
l10 -5l23 -232c10 -102 42 -117 97 -117h29c13 0 23 -27 23 -61c0 -35 -10 -63 -23 -63h-39c-59 0 -102 25 -121 62c-32 -48 -125 -72 -187 -72z" />
    <glyph glyph-name="uniFEAE" unicode="&#x631;" horiz-adv-x="393" arabic-form="final" 
d="M78 -235c-29 -3 -95 17 -123 30l-22 76l5 7c30 -3 75 -6 98 -4c99 8 150 91 169 139c-6 47 -17 120 -42 258l76 48l11 -7c6 -33 11 -67 17 -99c13 -69 33 -89 95 -89h31c13 0 23 -27 23 -61c0 -35 -10 -63 -23 -63h-29c-34 0 -60 8 -82 23v-7
c-13 -138 -120 -241 -204 -251z" />
    <glyph glyph-name="uniFEB0" unicode="&#x632;" horiz-adv-x="393" arabic-form="final" 
d="M202 376l-94 42v16l37 79l94 -44v-15zM78 -235c-29 -3 -95 17 -123 30l-22 76l5 7c30 -3 75 -6 98 -4c99 8 150 91 169 139c-6 47 -17 120 -42 258l76 48l11 -7c6 -33 11 -67 17 -99c13 -69 33 -89 95 -89h31c13 0 23 -27 23 -61c0 -35 -10 -63 -23 -63h-29
c-34 0 -60 8 -82 23v-7c-13 -138 -120 -241 -204 -251z" />
    <glyph glyph-name="uniFB8C" unicode="&#x691;" horiz-adv-x="332" arabic-form="isolated" 
d="M19 438h39l38 47l-1 204l44 11v-162c9 10 19 19 29 26c17 13 39 19 63 19c72 0 89 -65 89 -97c0 -60 -44 -105 -170 -105h-123zM107 438h47c69 0 107 8 128 25c0 42 -17 65 -58 65c-21 0 -31 -2 -49 -6zM78 -235c-29 -3 -95 17 -123 30l-22 76l5 7c30 -3 75 -6 98 -4
c99 8 150 91 169 139c-6 47 -17 120 -42 258l76 48l11 -7c26 -144 35 -211 35 -261c0 -152 -114 -276 -207 -286z" />
    <glyph glyph-name="uniFB8D" unicode="&#x691;" horiz-adv-x="393" arabic-form="final" 
d="M19 438h39l38 47l-1 204l44 11v-162c9 10 19 19 29 26c17 13 39 19 63 19c72 0 89 -65 89 -97c0 -60 -44 -105 -170 -105h-123zM107 438h47c69 0 107 8 128 25c0 42 -17 65 -58 65c-21 0 -31 -2 -49 -6zM78 -235c-29 -3 -95 17 -123 30l-22 76l5 7c30 -3 75 -6 98 -4
c99 8 150 91 169 139c-6 47 -17 120 -42 258l76 48l11 -7c6 -33 11 -67 17 -99c13 -69 33 -89 95 -89h31c13 0 23 -27 23 -61c0 -35 -10 -63 -23 -63h-29c-34 0 -60 8 -82 23v-7c-13 -138 -120 -241 -204 -251z" />
    <glyph glyph-name="uni0693.fina" unicode="&#x693;" horiz-adv-x="393" 
d="M393 124c13 0 23 -27 23 -61c0 -35 -10 -63 -23 -63h-29c-34 0 -60 8 -82 23v-7c-10 -104 -73 -188 -140 -228c16 -14 25 -35 25 -58c0 -45 -36 -81 -81 -81s-81 36 -81 81c0 16 5 31 13 44c-25 6 -49 14 -63 21l-22 76l5 7c30 -3 75 -6 98 -4c99 8 150 91 169 139
c-6 47 -17 120 -42 258l76 48l11 -7c6 -33 11 -67 17 -99c13 -69 33 -89 95 -89h31zM86 -305c19 0 35 16 35 35s-16 35 -35 35s-35 -16 -35 -35s16 -35 35 -35z" />
    <glyph glyph-name="uni0695.fina" unicode="&#x695;" horiz-adv-x="393" 
d="M78 -235c-29 -3 -95 17 -123 30l-22 76l5 7c30 -3 75 -6 98 -4c99 8 150 91 169 139c-6 47 -17 120 -42 258l76 48l11 -7c6 -33 11 -67 17 -99c13 -69 33 -89 95 -89h31c13 0 23 -27 23 -61c0 -35 -10 -63 -23 -63h-29c-34 0 -60 8 -82 23v-7
c-13 -138 -120 -241 -204 -251zM86 -564l-90 231l41 32l66 -178l70 178l38 -32l-87 -210z" />
    <glyph glyph-name="uni0696.fina" unicode="&#x696;" horiz-adv-x="393" 
d="M202 376l-94 42v16l37 79l94 -44v-15zM78 -235c-29 -3 -95 17 -123 30l-22 76l5 7c30 -3 75 -6 98 -4c99 8 150 91 169 139c-6 47 -17 120 -42 258l76 48l11 -7c6 -33 11 -67 17 -99c13 -69 33 -89 95 -89h31c13 0 23 -27 23 -61c0 -35 -10 -63 -23 -63h-29
c-34 0 -60 8 -82 23v-7c-13 -138 -120 -241 -204 -251zM134 -443l-95 42v16l37 80l95 -45v-15z" />
    <glyph glyph-name="uniFB8B" unicode="&#x698;" horiz-adv-x="393" arabic-form="final" 
d="M182 499l-83 38v14l32 70l84 -40v-13zM283 385l-86 39v14l33 73l87 -41v-13zM134 377l-87 39v14l34 73l86 -41v-13zM78 -235c-29 -3 -95 17 -123 30l-22 76l5 7c30 -3 75 -6 98 -4c99 8 150 91 169 139c-6 47 -17 120 -42 258l76 48l11 -7c6 -33 11 -67 17 -99
c13 -69 33 -89 95 -89h31c13 0 23 -27 23 -61c0 -35 -10 -63 -23 -63h-29c-34 0 -60 8 -82 23v-7c-13 -138 -120 -241 -204 -251z" />
    <glyph glyph-name="uniFC5C" unicode="&#xfc5c;" horiz-adv-x="332" arabic-form="isolated" 
d="M162 394l-5 178l59 10v-121c0 -25 -4 -54 -6 -66zM78 -235c-29 -3 -95 17 -123 30l-22 76l5 7c30 -3 75 -6 98 -4c99 8 150 91 169 139c-6 47 -17 120 -42 258l76 48l11 -7c26 -144 35 -211 35 -261c0 -152 -114 -276 -207 -286z" />
    <glyph glyph-name="uniFEB2" unicode="&#x633;" horiz-adv-x="1216" arabic-form="final" 
d="M249 -193c-124 0 -214 55 -201 202c6 65 24 145 39 209l59 -4l6 -10c-9 -44 -24 -111 -30 -154c-13 -100 48 -119 147 -119c103 0 191 33 238 57c-11 76 -27 163 -44 259l73 47l13 -5l13 -74c13 -70 39 -91 116 -91c90 0 116 26 118 80l1 53l74 2v-118
c19 -10 46 -17 72 -17c21 0 40 5 54 16l-22 150l63 49l11 -5c6 -37 11 -74 17 -111c11 -78 40 -99 113 -99h37c12 0 23 -27 23 -61c0 -35 -11 -63 -23 -63h-33c-74 0 -113 20 -136 59c-2 -3 -5 -6 -8 -9c-24 -30 -63 -50 -111 -50c-38 0 -81 11 -106 35l-7 9
c-26 -25 -76 -44 -135 -44c-45 0 -75 7 -96 19c1 -10 1 -19 1 -26c-1 -27 -4 -72 -46 -102c-59 -46 -160 -84 -290 -84z" />
    <glyph glyph-name="uniFEB4" unicode="&#x633;" horiz-adv-x="880" arabic-form="medial" 
d="M0 0c-13 0 -23 28 -23 63c0 34 10 61 23 61h43c71 0 100 19 121 77l31 90l12 5l62 -24l-27 -87c-3 -9 -6 -17 -8 -26c20 -22 55 -35 108 -35c91 0 117 26 118 80l2 53l74 2v-118c18 -10 45 -17 71 -17c21 0 41 5 55 16l-23 150l64 49l11 -5c5 -37 11 -74 17 -111
c10 -78 39 -99 113 -99h36c13 0 23 -27 23 -61c0 -35 -10 -63 -23 -63h-33c-74 0 -113 20 -136 59c-25 -35 -66 -59 -121 -59c-42 0 -89 14 -111 44c-26 -25 -76 -44 -136 -44c-78 0 -131 24 -154 64c-26 -47 -74 -64 -143 -64h-46z" />
    <glyph glyph-name="uniFEB3" unicode="&#x633;" horiz-adv-x="796" arabic-form="initial" 
d="M0 0c-13 0 -23 28 -23 63c0 34 10 61 23 61h43c71 0 100 19 121 77l31 90l12 5l62 -24l-27 -87c-3 -9 -6 -17 -8 -26c20 -22 55 -35 108 -35c91 0 117 26 118 80l2 53l74 2v-118c18 -10 45 -17 71 -17c21 0 41 5 55 16l-28 188l84 53l10 -5c7 -57 13 -100 16 -133
c9 -63 9 -115 -16 -161c-27 -52 -78 -82 -135 -82c-43 0 -92 14 -114 44c-26 -25 -76 -44 -136 -44c-78 0 -131 24 -154 64c-26 -47 -74 -64 -143 -64h-46z" />
    <glyph glyph-name="uniFEB6" unicode="&#x634;" horiz-adv-x="1216" arabic-form="final" 
d="M786 493l-84 38v14l33 70l84 -40v-13zM887 379l-86 39v15l33 72l87 -41v-13zM737 371l-86 39v15l34 72l86 -41v-13zM249 -193c-124 0 -214 55 -201 202c6 65 24 145 39 209l59 -4l6 -10c-9 -44 -24 -111 -30 -154c-13 -100 48 -119 147 -119c103 0 191 33 238 57
c-11 76 -27 163 -44 259l73 47l13 -5l13 -74c13 -70 39 -91 116 -91c90 0 116 26 118 80l1 53l74 2v-118c19 -10 46 -17 72 -17c21 0 40 5 54 16l-22 150l63 49l11 -5c6 -37 11 -74 17 -111c11 -78 40 -99 113 -99h37c12 0 23 -27 23 -61c0 -35 -11 -63 -23 -63h-33
c-74 0 -113 20 -136 59c-2 -3 -5 -6 -8 -9c-24 -30 -63 -50 -111 -50c-38 0 -81 11 -106 35l-7 9c-26 -25 -76 -44 -135 -44c-45 0 -75 7 -96 19c1 -10 1 -19 1 -26c-1 -27 -4 -72 -46 -102c-59 -46 -160 -84 -290 -84z" />
    <glyph glyph-name="uniFEB8" unicode="&#x634;" horiz-adv-x="880" arabic-form="medial" 
d="M466 493l-83 38v14l33 70l83 -40v-13zM567 379l-86 39v15l34 72l86 -41v-13zM418 371l-87 39v15l34 72l86 -41v-13zM0 0c-13 0 -23 28 -23 63c0 34 10 61 23 61h43c71 0 100 19 121 77l31 90l12 5l62 -24l-27 -87c-3 -9 -6 -17 -8 -26c20 -22 55 -35 108 -35
c91 0 117 26 118 80l2 53l74 2v-118c18 -10 45 -17 71 -17c21 0 41 5 55 16l-23 150l64 49l11 -5c5 -37 11 -74 17 -111c10 -78 39 -99 113 -99h36c13 0 23 -27 23 -61c0 -35 -10 -63 -23 -63h-33c-74 0 -113 20 -136 59c-25 -35 -66 -59 -121 -59c-42 0 -89 14 -111 44
c-26 -25 -76 -44 -136 -44c-78 0 -131 24 -154 64c-26 -47 -74 -64 -143 -64h-46z" />
    <glyph glyph-name="uniFEB7" unicode="&#x634;" horiz-adv-x="796" arabic-form="initial" 
d="M468 493l-84 38v14l33 70l84 -40l-1 -13zM569 379l-87 39v15l34 72l86 -41v-13zM419 371l-86 39v15l34 72l86 -41v-13zM0 0c-13 0 -23 28 -23 63c0 34 10 61 23 61h43c71 0 100 19 121 77l31 90l12 5l62 -24l-27 -87c-3 -9 -6 -17 -8 -26c20 -22 55 -35 108 -35
c91 0 117 26 118 80l2 53l74 2v-118c18 -10 45 -17 71 -17c21 0 41 5 55 16l-28 188l84 53l10 -5c7 -57 13 -100 16 -133c9 -63 9 -115 -16 -161c-27 -52 -78 -82 -135 -82c-43 0 -92 14 -114 44c-26 -25 -76 -44 -136 -44c-78 0 -131 24 -154 64c-26 -47 -74 -64 -143 -64
h-46z" />
    <glyph glyph-name="uniFEBA" unicode="&#x635;" horiz-adv-x="1187" arabic-form="final" 
d="M249 -193c-124 0 -214 55 -201 202c6 65 24 145 39 209l59 -4l6 -10c-9 -44 -24 -111 -30 -154c-13 -100 48 -119 147 -119c103 0 191 33 238 57c-11 76 -27 163 -44 259l73 47l13 -5l13 -74c8 -43 17 -66 38 -78l3 30l118 137c56 63 106 101 183 101
c136 0 192 -122 192 -206c0 -25 -4 -49 -16 -70c18 -4 38 -5 66 -5h41c13 0 23 -27 23 -61c0 -35 -10 -63 -23 -63h-53c-54 0 -92 15 -122 47c-49 -30 -123 -47 -228 -47h-118c-34 0 -60 7 -82 19c1 -11 1 -20 0 -28c-1 -27 -6 -74 -48 -103c-59 -44 -159 -81 -287 -81z
M682 123h121c119 -1 171 15 207 44c-1 71 -45 128 -120 128c-44 0 -63 -8 -81 -14l-149 -157c7 -1 14 -1 22 -1z" />
    <glyph glyph-name="uniFEBC" unicode="&#x635;" horiz-adv-x="899" arabic-form="medial" 
d="M-23 63c0 34 10 61 23 61h43c71 0 104 31 125 89l27 77l14 6l60 -24l-34 -107c0 -12 21 -35 64 -40l3 27l132 152c54 63 106 101 183 101c135 0 191 -122 191 -206c0 -25 -4 -49 -15 -70c16 -4 36 -5 63 -5h43c13 0 23 -27 23 -61c0 -35 -10 -63 -23 -63h-53
c-53 0 -92 15 -122 47c-49 -30 -123 -47 -228 -47h-178c-64 0 -106 24 -129 64c-26 -47 -74 -64 -143 -64h-46c-13 0 -23 28 -23 63zM371 123h41h104c119 -1 171 15 206 44c0 71 -45 128 -119 128c-45 0 -64 -8 -81 -14z" />
    <glyph glyph-name="uniFEBB" unicode="&#x635;" horiz-adv-x="855" arabic-form="initial" 
d="M-23 63c0 34 10 61 23 61h43c71 0 104 31 125 89l27 77l14 6l60 -24l-34 -107c0 -12 21 -35 64 -40l3 27l132 152c54 63 106 101 183 101c135 0 191 -122 191 -206c0 -116 -81 -199 -312 -199h-178c-64 0 -106 24 -129 64c-26 -47 -74 -64 -143 -64h-46
c-13 0 -23 28 -23 63zM371 123h42h103c119 -1 171 15 206 44c0 71 -45 128 -119 128c-45 0 -64 -8 -81 -14z" />
    <glyph glyph-name="uniFEBE" unicode="&#x636;" horiz-adv-x="1187" arabic-form="final" 
d="M889 484l-94 43v16l37 79l94 -45v-14zM249 -193c-124 0 -214 55 -201 202c6 65 24 145 39 209l59 -4l6 -10c-9 -44 -24 -111 -30 -154c-13 -100 48 -119 147 -119c103 0 191 33 238 57c-11 76 -27 163 -44 259l73 47l13 -5l13 -74c8 -43 17 -66 38 -78l3 30l118 137
c56 63 106 101 183 101c136 0 192 -122 192 -206c0 -25 -4 -49 -16 -70c18 -4 38 -5 66 -5h41c13 0 23 -27 23 -61c0 -35 -10 -63 -23 -63h-53c-54 0 -92 15 -122 47c-49 -30 -123 -47 -228 -47h-118c-34 0 -60 7 -82 19c1 -11 1 -20 0 -28c-1 -27 -6 -74 -48 -103
c-59 -44 -159 -81 -287 -81zM682 123h121c119 -1 171 15 207 44c-1 71 -45 128 -120 128c-44 0 -63 -8 -81 -14l-149 -157c7 -1 14 -1 22 -1z" />
    <glyph glyph-name="uniFEC0" unicode="&#x636;" horiz-adv-x="899" arabic-form="medial" 
d="M626 484l-94 43v16l37 79l94 -45v-14zM-23 63c0 34 10 61 23 61h43c71 0 104 31 125 89l27 77l14 6l60 -24l-34 -107c0 -12 21 -35 64 -40l3 27l132 152c54 63 106 101 183 101c135 0 191 -122 191 -206c0 -25 -4 -49 -15 -70c16 -4 36 -5 63 -5h43c13 0 23 -27 23 -61
c0 -35 -10 -63 -23 -63h-53c-53 0 -92 15 -122 47c-49 -30 -123 -47 -228 -47h-178c-64 0 -106 24 -129 64c-26 -47 -74 -64 -143 -64h-46c-13 0 -23 28 -23 63zM371 123h41h104c119 -1 171 15 206 44c0 71 -45 128 -119 128c-45 0 -64 -8 -81 -14z" />
    <glyph glyph-name="uniFEBF" unicode="&#x636;" horiz-adv-x="855" arabic-form="initial" 
d="M626 484l-94 43v16l37 79l94 -45v-14zM-23 63c0 34 10 61 23 61h43c71 0 104 31 125 89l27 77l14 6l60 -24l-34 -107c0 -12 21 -35 64 -40l3 27l132 152c54 63 106 101 183 101c135 0 191 -122 191 -206c0 -116 -81 -199 -312 -199h-178c-64 0 -106 24 -129 64
c-26 -47 -74 -64 -143 -64h-46c-13 0 -23 28 -23 63zM371 123h42h103c119 -1 171 15 206 44c0 71 -45 128 -119 128c-45 0 -64 -8 -81 -14z" />
    <glyph glyph-name="uniFEC2" unicode="&#x637;" horiz-adv-x="752" arabic-form="final" 
d="M47 128l7 7c27 -3 51 -5 79 -7l78 88l-3 438l86 22v-281c0 -47 0 -60 -17 -104c9 9 17 19 26 28c49 54 97 86 167 86c136 0 191 -122 191 -206c0 -25 -4 -49 -15 -70c17 -4 36 -5 65 -5h41c13 0 23 -27 23 -61c0 -35 -10 -63 -23 -63h-53c-53 0 -91 15 -122 47
c-48 -30 -122 -47 -227 -47c-123 0 -213 4 -292 14zM226 124c40 0 87 -1 143 -1c119 -1 171 15 207 44c-1 71 -45 128 -120 128c-45 0 -64 -8 -81 -14z" />
    <glyph glyph-name="uniFEC4" unicode="&#x637;" horiz-adv-x="724" arabic-form="medial" 
d="M-23 63c0 34 10 61 23 61h102l81 92l-4 438l87 22v-281c0 -47 -1 -60 -17 -104c8 9 16 19 25 28c49 54 97 86 167 86c136 0 192 -122 192 -206c0 -25 -4 -49 -16 -70c18 -4 38 -5 66 -5h41c13 0 23 -27 23 -61c0 -35 -10 -63 -23 -63h-53c-54 0 -92 15 -122 47
c-49 -30 -123 -47 -228 -47h-321c-13 0 -23 28 -23 63zM196 123h145c119 -1 170 15 206 44c-1 71 -45 128 -120 128c-44 0 -63 -8 -81 -14z" />
    <glyph glyph-name="uniFEC3" unicode="&#x637;" horiz-adv-x="680" arabic-form="initial" 
d="M-23 63c0 34 10 61 23 61h102l81 92l-4 438l87 22v-281c0 -47 -1 -60 -17 -104c8 9 16 19 24 27c49 54 98 87 168 87c136 0 192 -122 192 -206c0 -116 -81 -199 -312 -199h-321c-13 0 -23 28 -23 63zM196 123h145c119 -1 170 15 206 44c-1 71 -45 128 -120 128
c-44 0 -63 -8 -81 -14z" />
    <glyph glyph-name="uniFEC6" unicode="&#x638;" horiz-adv-x="752" arabic-form="final" 
d="M47 128l7 7c27 -3 51 -5 79 -7l78 88l-3 438l86 22v-281c0 -47 0 -60 -17 -104c9 9 17 19 26 28c49 54 97 86 167 86c136 0 191 -122 191 -206c0 -25 -4 -49 -15 -70c17 -4 36 -5 65 -5h41c13 0 23 -27 23 -61c0 -35 -10 -63 -23 -63h-53c-53 0 -91 15 -122 47
c-48 -30 -122 -47 -227 -47c-123 0 -213 4 -292 14zM478 482l-94 43v16l37 79l94 -45v-14zM226 124c40 0 87 -1 143 -1c119 -1 171 15 207 44c-1 71 -45 128 -120 128c-45 0 -64 -8 -81 -14z" />
    <glyph glyph-name="uniFEC8" unicode="&#x638;" horiz-adv-x="724" arabic-form="medial" 
d="M-23 63c0 34 10 61 23 61h102l81 92l-4 438l87 22v-281c0 -47 -1 -60 -17 -104c8 9 16 19 25 28c49 54 97 86 167 86c136 0 192 -122 192 -206c0 -25 -4 -49 -16 -70c18 -4 38 -5 66 -5h41c13 0 23 -27 23 -61c0 -35 -10 -63 -23 -63h-53c-54 0 -92 15 -122 47
c-49 -30 -123 -47 -228 -47h-321c-13 0 -23 28 -23 63zM478 482l-94 43v16l37 79l94 -45v-14zM196 123h145c119 -1 170 15 206 44c-1 71 -45 128 -120 128c-44 0 -63 -8 -81 -14z" />
    <glyph glyph-name="uniFEC7" unicode="&#x638;" horiz-adv-x="680" arabic-form="initial" 
d="M-23 63c0 34 10 61 23 61h102l81 92l-4 438l87 22v-281c0 -47 -1 -60 -17 -104c8 9 16 19 24 27c49 54 98 87 168 87c136 0 192 -122 192 -206c0 -116 -81 -199 -312 -199h-321c-13 0 -23 28 -23 63zM478 482l-94 43v16l37 79l94 -45v-14zM196 123h145
c119 -1 170 15 206 44c-1 71 -45 128 -120 128c-44 0 -63 -8 -81 -14z" />
    <glyph glyph-name="uniFECA" unicode="&#x639;" horiz-adv-x="585" arabic-form="final" 
d="M448 -314c-249 -26 -347 61 -346 205c1 98 54 179 137 238c-7 8 -14 17 -22 25c-31 38 -63 75 -97 112l4 16l-68 -10l-9 9l21 93l106 20c52 10 127 21 169 21c109 0 180 -25 180 -115c0 -58 -57 -114 -117 -166c32 -7 75 -10 138 -10h41c13 0 24 -27 24 -61
c0 -35 -11 -63 -24 -63h-58c-95 0 -150 9 -207 50c-6 4 -13 9 -19 15c-66 -40 -109 -83 -135 -144c18 -97 67 -146 289 -122l110 12l6 -9l-23 -105zM321 169c47 31 90 65 129 102c0 28 -46 33 -111 32c-30 0 -95 -4 -131 -9c24 -26 45 -49 69 -77c16 -19 30 -35 44 -48z" />
    <glyph glyph-name="uniFECC" unicode="&#x639;" horiz-adv-x="601" arabic-form="medial" 
d="M0 0c-13 0 -23 28 -23 63c0 34 10 61 23 61h63c62 0 108 4 147 15c-6 7 -13 14 -18 21c-29 36 -59 72 -91 106l4 16l-68 -10l-9 9l21 92l106 21c52 10 127 21 170 21c108 0 179 -25 179 -116c0 -58 -57 -113 -116 -165c31 -7 73 -10 136 -10h77c12 0 23 -27 23 -61
c0 -35 -11 -63 -23 -63h-100c-100 0 -156 10 -208 51c-58 -37 -118 -51 -211 -51h-82zM302 169c47 31 90 65 129 102c0 28 -45 33 -110 32c-31 0 -95 -4 -132 -9c24 -26 46 -49 69 -77c17 -19 31 -35 44 -48z" />
    <glyph glyph-name="uniFECB" unicode="&#x639;" horiz-adv-x="478" arabic-form="initial" 
d="M0 0c-13 0 -23 28 -23 63c0 34 10 61 23 61c37 0 61 0 91 3c-11 9 -19 21 -24 32c-16 38 -9 86 13 146c34 93 101 114 172 114c42 0 69 -8 94 -14l6 -13l-12 -81l-66 6c-57 5 -91 0 -121 -9c-7 -21 -12 -35 -17 -55c-6 -23 -1 -46 14 -63c16 -20 44 -32 82 -32
c17 0 44 5 64 11l125 36l10 -7l-1 -94l-72 -24c-87 -30 -202 -75 -326 -79c-11 -1 -21 -1 -32 -1z" />
    <glyph glyph-name="uniFECE" unicode="&#x63a;" horiz-adv-x="585" arabic-form="final" 
d="M313 479l-95 42v16l37 79l95 -44v-15zM448 -314c-249 -26 -347 61 -346 205c1 98 54 179 137 238c-7 8 -14 17 -22 25c-31 38 -63 75 -97 112l4 16l-68 -10l-9 9l21 93l106 20c52 10 127 21 169 21c109 0 180 -25 180 -115c0 -58 -57 -114 -117 -166
c32 -7 75 -10 138 -10h41c13 0 24 -27 24 -61c0 -35 -11 -63 -24 -63h-58c-95 0 -150 9 -207 50c-6 4 -13 9 -19 15c-66 -40 -109 -83 -135 -144c18 -97 67 -146 289 -122l110 12l6 -9l-23 -105zM321 169c47 31 90 65 129 102c0 28 -46 33 -111 32c-30 0 -95 -4 -131 -9
c24 -26 45 -49 69 -77c16 -19 30 -35 44 -48z" />
    <glyph glyph-name="uniFED0" unicode="&#x63a;" horiz-adv-x="601" arabic-form="medial" 
d="M312 478l-95 43v16l37 79l95 -45v-14zM0 0c-13 0 -23 28 -23 63c0 34 10 61 23 61h63c62 0 108 4 147 15c-6 7 -13 14 -18 21c-29 36 -59 72 -91 106l4 16l-68 -10l-9 9l21 92l106 21c52 10 127 21 170 21c108 0 179 -25 179 -116c0 -58 -57 -113 -116 -165
c31 -7 73 -10 136 -10h77c12 0 23 -27 23 -61c0 -35 -11 -63 -23 -63h-100c-100 0 -156 10 -208 51c-58 -37 -118 -51 -211 -51h-82zM302 169c47 31 90 65 129 102c0 28 -45 33 -110 32c-31 0 -95 -4 -132 -9c24 -26 46 -49 69 -77c17 -19 31 -35 44 -48z" />
    <glyph glyph-name="uniFECF" unicode="&#x63a;" horiz-adv-x="478" arabic-form="initial" 
d="M231 487l-95 43v15l37 80l95 -45v-15zM0 0c-13 0 -23 28 -23 63c0 34 10 61 23 61c37 0 61 0 91 3c-11 9 -19 21 -24 32c-16 38 -9 86 13 146c34 93 101 114 172 114c42 0 69 -8 94 -14l6 -13l-12 -81l-66 6c-57 5 -91 0 -121 -9c-7 -21 -12 -35 -17 -55
c-6 -23 -1 -46 14 -63c16 -20 44 -32 82 -32c17 0 44 5 64 11l125 36l10 -7l-1 -94l-72 -24c-87 -30 -202 -75 -326 -79c-11 -1 -21 -1 -32 -1z" />
    <glyph glyph-name="uniFED2" unicode="&#x641;" horiz-adv-x="859" arabic-form="final" 
d="M642 477l-94 43v16l37 79l94 -45v-14zM47 159c1 23 5 59 13 103c3 22 7 44 11 67l60 8l8 -7l-16 -121c-8 -53 12 -95 190 -95c47 0 115 6 169 13c-15 29 -20 65 -8 110c19 71 45 178 129 178c135 0 187 -80 187 -161c0 -52 -20 -92 -41 -129c13 -1 27 -1 41 -1h69
c13 0 23 -27 23 -61c0 -35 -10 -63 -23 -63h-71c-70 0 -143 10 -201 33c-79 -28 -190 -43 -295 -43c-204 0 -249 75 -245 169zM545 235c-13 -56 29 -85 93 -100c55 38 82 70 82 100c0 46 -30 70 -120 80l-29 3c-11 -33 -22 -61 -26 -83z" />
    <glyph glyph-name="uniFED4" unicode="&#x641;" horiz-adv-x="474" arabic-form="medial" 
d="M247 477l-95 43v16l37 79l95 -45v-14zM0 0c-13 0 -23 28 -23 63c0 34 10 61 23 61h37c20 0 40 1 61 3c-16 29 -21 66 -9 110c19 71 45 178 129 178c134 0 187 -80 187 -161c0 -48 -18 -93 -37 -129c13 0 24 -1 37 -1h69c12 0 23 -27 23 -61c0 -35 -11 -63 -23 -63h-71
c-66 0 -135 9 -191 30c-52 -19 -109 -29 -167 -30h-45zM253 135c54 38 82 70 82 100c0 46 -31 70 -121 80l-28 3c-11 -33 -22 -61 -27 -83c-11 -56 30 -85 94 -100z" />
    <glyph glyph-name="uniFED3" unicode="&#x641;" horiz-adv-x="404" arabic-form="initial" 
d="M202 619l-94 43v16l37 79l94 -45v-14zM0 0c-13 0 -23 28 -23 63c0 34 10 61 23 61h26c102 0 183 5 240 30c2 20 3 41 4 61c-51 -11 -95 -14 -139 -14c-67 0 -109 31 -111 97c0 7 1 15 2 22c14 149 68 230 158 230c76 0 111 -41 134 -81c24 -43 41 -123 43 -197
c3 -83 -18 -178 -56 -211c-54 -48 -165 -60 -263 -61h-38zM156 305c38 0 75 2 110 7c-6 51 -21 105 -32 133c-21 6 -35 9 -60 9c-46 0 -69 -17 -78 -107v-8c0 -31 21 -34 60 -34z" />
    <glyph glyph-name="uniFB6A" unicode="&#x6a4;" horiz-adv-x="816" arabic-form="isolated" 
d="M550 729l-84 38v14l33 70l84 -40v-13zM651 616l-87 39v14l34 73l86 -41v-14zM501 608l-86 39v14l34 73l86 -41v-14zM292 -10c-196 0 -246 70 -245 159c0 29 7 82 12 111l12 69l60 8l8 -7l-16 -121c-1 -6 -1 -11 -1 -18c0 -43 32 -77 191 -77c193 0 301 12 365 40
c2 20 3 41 4 61c-51 -11 -95 -14 -139 -14c-68 0 -110 32 -111 99c0 7 1 13 2 20c14 149 68 230 158 230c77 0 113 -42 136 -85c23 -44 40 -124 41 -198c2 -82 -19 -174 -56 -206c-56 -49 -222 -71 -421 -71zM573 305c35 0 70 2 105 7c-5 51 -21 104 -32 132
c-24 7 -40 10 -60 10c-46 0 -69 -17 -77 -106v-8c0 -32 21 -35 64 -35z" />
    <glyph glyph-name="uniFB6B" unicode="&#x6a4;" horiz-adv-x="859" arabic-form="final" 
d="M588 586l-83 38v14l32 70l84 -40v-13zM689 472l-86 39v15l33 72l87 -41v-13zM540 464l-87 39v15l34 72l86 -41v-13zM47 159c1 23 5 59 13 103c3 22 7 44 11 67l60 8l8 -7l-16 -121c-8 -53 12 -95 190 -95c47 0 115 6 169 13c-15 29 -20 65 -8 110c19 71 45 178 129 178
c135 0 187 -80 187 -161c0 -52 -20 -92 -41 -129c13 -1 27 -1 41 -1h69c13 0 23 -27 23 -61c0 -35 -10 -63 -23 -63h-71c-70 0 -143 10 -201 33c-79 -28 -190 -43 -295 -43c-204 0 -249 75 -245 169zM545 235c-13 -56 29 -85 93 -100c55 38 82 70 82 100
c0 46 -30 70 -120 80l-29 3c-11 -33 -22 -61 -26 -83z" />
    <glyph glyph-name="uniFB6D" unicode="&#x6a4;" horiz-adv-x="474" arabic-form="medial" 
d="M235 586l-84 38v14l33 70l83 -40v-13zM336 472l-87 39v15l34 72l86 -41v-13zM186 464l-86 39v15l34 72l86 -41v-13zM0 0c-13 0 -23 28 -23 63c0 34 10 61 23 61h37c20 0 40 1 61 3c-16 29 -21 66 -9 110c19 71 45 178 129 178c134 0 187 -80 187 -161
c0 -48 -18 -93 -37 -129c13 0 24 -1 37 -1h69c12 0 23 -27 23 -61c0 -35 -11 -63 -23 -63h-71c-66 0 -135 9 -191 30c-52 -19 -109 -29 -167 -30h-45zM253 135c54 38 82 70 82 100c0 46 -31 70 -121 80l-28 3c-11 -33 -22 -61 -27 -83c-11 -56 30 -85 94 -100z" />
    <glyph glyph-name="uniFB6C" unicode="&#x6a4;" horiz-adv-x="404" arabic-form="initial" 
d="M156 733l-84 38v14l33 70l84 -40v-13zM257 620l-87 39v14l34 73l86 -41v-13zM107 612l-86 39v14l34 73l86 -41v-13zM0 0c-13 0 -23 28 -23 63c0 34 10 61 23 61h26c102 0 183 5 240 30c2 20 3 41 4 61c-51 -11 -95 -14 -139 -14c-67 0 -109 31 -111 97c0 7 1 15 2 22
c14 149 68 230 158 230c76 0 111 -41 134 -81c24 -43 41 -123 43 -197c3 -83 -18 -178 -56 -211c-54 -48 -165 -60 -263 -61h-38zM156 305c38 0 75 2 110 7c-6 51 -21 105 -32 133c-21 6 -35 9 -60 9c-46 0 -69 -17 -78 -107v-8c0 -31 21 -34 60 -34z" />
    <glyph glyph-name="uni06A1.init" unicode="&#x6a1;" horiz-adv-x="404" 
d="M0 0c-13 0 -23 28 -23 63c0 34 10 61 23 61h26c102 0 183 5 240 30c2 20 3 41 4 61c-51 -11 -95 -14 -139 -14c-67 0 -109 31 -111 97c0 7 1 15 2 22c14 149 68 230 158 230c76 0 111 -41 134 -81c24 -43 41 -123 43 -197c3 -83 -18 -178 -56 -211
c-54 -48 -165 -60 -263 -61h-38zM156 305c38 0 75 2 110 7c-6 51 -21 105 -32 133c-21 6 -35 9 -60 9c-46 0 -69 -17 -78 -107v-8c0 -31 21 -34 60 -34z" />
    <glyph glyph-name="uni06A1.medi" unicode="&#x6a1;" horiz-adv-x="474" 
d="M0 0c-13 0 -23 28 -23 63c0 34 10 61 23 61h37c20 0 40 1 61 3c-16 29 -21 66 -9 110c19 71 45 178 129 178c134 0 187 -80 187 -161c0 -48 -18 -93 -37 -129c13 0 24 -1 37 -1h69c12 0 23 -27 23 -61c0 -35 -11 -63 -23 -63h-71c-66 0 -135 9 -191 30
c-52 -19 -109 -29 -167 -30h-45zM253 135c54 38 82 70 82 100c0 46 -31 70 -121 80l-28 3c-11 -33 -22 -61 -27 -83c-11 -56 30 -85 94 -100z" />
    <glyph glyph-name="uni06A1.fina" unicode="&#x6a1;" horiz-adv-x="859" 
d="M47 159c1 23 5 59 13 103c3 22 7 44 11 67l60 8l8 -7l-16 -121c-8 -53 12 -95 190 -95c47 0 115 6 169 13c-15 29 -20 65 -8 110c19 71 45 178 129 178c135 0 187 -80 187 -161c0 -52 -20 -92 -41 -129c13 -1 27 -1 41 -1h69c13 0 23 -27 23 -61c0 -35 -10 -63 -23 -63
h-71c-70 0 -143 10 -201 33c-79 -28 -190 -43 -295 -43c-204 0 -249 75 -245 169zM545 235c-13 -56 29 -85 93 -100c55 38 82 70 82 100c0 46 -30 70 -120 80l-29 3c-11 -33 -22 -61 -26 -83z" />
    <glyph glyph-name="uni06A2.init" unicode="&#x6a2;" horiz-adv-x="404" 
d="M0 0c-13 0 -23 28 -23 63c0 34 10 61 23 61h26c102 0 183 5 240 30c2 20 3 41 4 61c-51 -11 -95 -14 -139 -14c-67 0 -109 31 -111 97c0 7 1 15 2 22c14 149 68 230 158 230c76 0 111 -41 134 -81c24 -43 41 -123 43 -197c3 -83 -18 -178 -56 -211
c-54 -48 -165 -60 -263 -61h-38zM156 305c38 0 75 2 110 7c-6 51 -21 105 -32 133c-21 6 -35 9 -60 9c-46 0 -69 -17 -78 -107v-8c0 -31 21 -34 60 -34zM189 -212l-94 42v16l37 79l94 -44v-15z" />
    <glyph glyph-name="uni06A2.medi" unicode="&#x6a2;" horiz-adv-x="474" 
d="M0 0c-13 0 -23 28 -23 63c0 34 10 61 23 61h37c20 0 40 1 61 3c-16 29 -21 66 -9 110c19 71 45 178 129 178c134 0 187 -80 187 -161c0 -48 -18 -93 -37 -129c13 0 24 -1 37 -1h69c12 0 23 -27 23 -61c0 -35 -11 -63 -23 -63h-71c-66 0 -135 9 -191 30
c-52 -19 -109 -29 -167 -30h-45zM253 135c54 38 82 70 82 100c0 46 -31 70 -121 80l-28 3c-11 -33 -22 -61 -27 -83c-11 -56 30 -85 94 -100zM193 -212l-95 42v16l37 79l94 -44v-15z" />
    <glyph glyph-name="uni06A2.fina" unicode="&#x6a2;" horiz-adv-x="859" 
d="M47 159c1 23 5 59 13 103c3 22 7 44 11 67l60 8l8 -7l-16 -121c-8 -53 12 -95 190 -95c47 0 115 6 169 13c-15 29 -20 65 -8 110c19 71 45 178 129 178c135 0 187 -80 187 -161c0 -52 -20 -92 -41 -129c13 -1 27 -1 41 -1h69c13 0 23 -27 23 -61c0 -35 -10 -63 -23 -63
h-71c-70 0 -143 10 -201 33c-79 -28 -190 -43 -295 -43c-204 0 -249 75 -245 169zM545 235c-13 -56 29 -85 93 -100c55 38 82 70 82 100c0 46 -30 70 -120 80l-29 3c-11 -33 -22 -61 -26 -83zM347 -242l-94 43v15l36 80l95 -45v-15z" />
    <glyph glyph-name="uniFB6E" unicode="&#x6a6;" horiz-adv-x="816" arabic-form="isolated" 
d="M646 734l-87 39v14l34 73l86 -41v-13zM509 726l-86 39v14l34 73l86 -41v-13zM646 607l-87 39v14l34 73l86 -41v-13zM509 599l-86 39v14l34 73l86 -41v-13zM292 -10c-196 0 -246 70 -245 159c0 29 7 82 12 111l12 69l60 8l8 -7l-16 -121c-1 -6 -1 -11 -1 -18
c0 -43 32 -77 191 -77c193 0 301 12 365 40c2 20 3 41 4 61c-51 -11 -95 -14 -139 -14c-68 0 -110 32 -111 99c0 7 1 13 2 20c14 149 68 230 158 230c77 0 113 -42 136 -85c23 -44 40 -124 41 -198c2 -82 -19 -174 -56 -206c-56 -49 -222 -71 -421 -71zM573 305
c35 0 70 2 105 7c-5 51 -21 104 -32 132c-24 7 -40 10 -60 10c-46 0 -69 -17 -77 -106v-8c0 -32 21 -35 64 -35z" />
    <glyph glyph-name="uniFB6F" unicode="&#x6a6;" horiz-adv-x="859" arabic-form="final" 
d="M688 598l-87 39v14l34 73l86 -41v-13zM551 590l-86 39v14l34 73l86 -41v-13zM688 471l-87 39v14l34 73l86 -41v-13zM551 463l-86 39v14l34 73l86 -41v-13zM47 159c1 23 5 59 13 103c3 22 7 44 11 67l60 8l8 -7l-16 -121c-8 -53 12 -95 190 -95c47 0 115 6 169 13
c-15 29 -20 65 -8 110c19 71 45 178 129 178c135 0 187 -80 187 -161c0 -52 -20 -92 -41 -129c13 -1 27 -1 41 -1h69c13 0 23 -27 23 -61c0 -35 -10 -63 -23 -63h-71c-70 0 -143 10 -201 33c-79 -28 -190 -43 -295 -43c-204 0 -249 75 -245 169zM545 235
c-13 -56 29 -85 93 -100c55 38 82 70 82 100c0 46 -30 70 -120 80l-29 3c-11 -33 -22 -61 -26 -83z" />
    <glyph glyph-name="uniFB71" unicode="&#x6a6;" horiz-adv-x="474" arabic-form="medial" 
d="M316 598l-86 39v14l34 73l86 -41v-13zM180 590l-86 39v14l33 73l87 -41v-13zM316 471l-86 39v14l34 73l86 -41v-13zM180 463l-86 39v14l33 73l87 -41v-13zM0 0c-13 0 -23 28 -23 63c0 34 10 61 23 61h37c20 0 40 1 61 3c-16 29 -21 66 -9 110c19 71 45 178 129 178
c134 0 187 -80 187 -161c0 -48 -18 -93 -37 -129c13 0 24 -1 37 -1h69c12 0 23 -27 23 -61c0 -35 -11 -63 -23 -63h-71c-66 0 -135 9 -191 30c-52 -19 -109 -29 -167 -30h-45zM253 135c54 38 82 70 82 100c0 46 -31 70 -121 80l-28 3c-11 -33 -22 -61 -27 -83
c-11 -56 30 -85 94 -100z" />
    <glyph glyph-name="uniFB70" unicode="&#x6a6;" horiz-adv-x="404" arabic-form="initial" 
d="M250 735l-87 39v14l34 73l86 -41v-13zM113 727l-86 39v14l34 73l86 -41v-13zM250 608l-87 39v14l34 73l86 -41v-13zM113 600l-86 39v14l34 73l86 -41v-13zM0 0c-13 0 -23 28 -23 63c0 34 10 61 23 61h26c102 0 183 5 240 30c2 20 3 41 4 61c-51 -11 -95 -14 -139 -14
c-67 0 -109 31 -111 97c0 7 1 15 2 22c14 149 68 230 158 230c76 0 111 -41 134 -81c24 -43 41 -123 43 -197c3 -83 -18 -178 -56 -211c-54 -48 -165 -60 -263 -61h-38zM156 305c38 0 75 2 110 7c-6 51 -21 105 -32 133c-21 6 -35 9 -60 9c-46 0 -69 -17 -78 -107v-8
c0 -31 21 -34 60 -34z" />
    <glyph glyph-name="uni066F.fina" unicode="&#x66f;" horiz-adv-x="653" 
d="M249 -209c-124 0 -214 54 -201 202c6 64 24 145 39 208l59 -4l6 -9c-9 -44 -24 -111 -30 -155c-13 -103 48 -122 147 -122c101 0 185 22 244 50c2 14 3 28 3 41h-134c-72 0 -117 32 -117 105c0 7 1 14 1 21c16 149 68 231 158 231c73 0 108 -39 131 -77
c22 -34 39 -96 44 -158h54c13 0 23 -27 23 -61c0 -35 -10 -63 -23 -63h-56c-9 -52 -28 -96 -54 -120c-54 -49 -148 -89 -294 -89zM403 111h110c-6 53 -21 109 -34 139c-23 6 -39 9 -59 9c-45 0 -69 -16 -78 -105v-7c-1 -33 19 -36 61 -36z" />
    <glyph glyph-name="uniFED6" unicode="&#x642;" horiz-adv-x="653" arabic-form="final" 
d="M493 426l-86 39v14l34 72l86 -41v-13zM350 418l-86 39v14l34 72l86 -41v-13zM249 -209c-124 0 -214 54 -201 202c6 64 24 145 39 208l59 -4l6 -9c-9 -44 -24 -111 -30 -155c-13 -103 48 -122 147 -122c101 0 185 22 244 50c2 14 3 28 3 41h-134c-72 0 -117 32 -117 105
c0 7 1 14 1 21c16 149 68 231 158 231c73 0 108 -39 131 -77c22 -34 39 -96 44 -158h54c13 0 23 -27 23 -61c0 -35 -10 -63 -23 -63h-56c-9 -52 -28 -96 -54 -120c-54 -49 -148 -89 -294 -89zM403 111h110c-6 53 -21 109 -34 139c-23 6 -39 9 -59 9c-45 0 -69 -16 -78 -105
v-7c-1 -33 19 -36 61 -36z" />
    <glyph glyph-name="uniFED8" unicode="&#x642;" horiz-adv-x="474" arabic-form="medial" 
d="M329 493l-86 39v15l34 72l86 -41v-13zM186 485l-86 39v15l34 72l86 -41v-13zM0 0c-13 0 -23 28 -23 63c0 34 10 61 23 61h37c20 0 40 1 61 3c-16 29 -21 66 -9 110c19 71 45 178 129 178c134 0 187 -80 187 -161c0 -48 -18 -93 -37 -129c13 0 24 -1 37 -1h69
c12 0 23 -27 23 -61c0 -35 -11 -63 -23 -63h-71c-66 0 -135 9 -191 30c-52 -19 -109 -29 -167 -30h-45zM253 135c54 38 82 70 82 100c0 46 -31 70 -121 80l-28 3c-11 -33 -22 -61 -27 -83c-11 -56 30 -85 94 -100z" />
    <glyph glyph-name="uniFED7" unicode="&#x642;" horiz-adv-x="404" arabic-form="initial" 
d="M259 619l-86 39v14l34 73l86 -41v-13zM116 611l-86 39v14l34 73l86 -41v-13zM0 0c-13 0 -23 28 -23 63c0 34 10 61 23 61h26c102 0 183 5 240 30c2 20 3 41 4 61c-51 -11 -95 -14 -139 -14c-67 0 -109 31 -111 97c0 7 1 15 2 22c14 149 68 230 158 230
c76 0 111 -41 134 -81c24 -43 41 -123 43 -197c3 -83 -18 -178 -56 -211c-54 -48 -165 -60 -263 -61h-38zM156 305c38 0 75 2 110 7c-6 51 -21 105 -32 133c-21 6 -35 9 -60 9c-46 0 -69 -17 -78 -107v-8c0 -31 21 -34 60 -34z" />
    <glyph glyph-name="uniFEDA" unicode="&#x643;" horiz-adv-x="877" arabic-form="final" 
d="M292 -10c-204 0 -249 75 -245 169c1 23 5 58 12 100c4 23 7 46 12 70l60 8l8 -7l-16 -121c-8 -53 12 -95 190 -95c205 0 301 16 350 40l-4 500l87 22v-461c0 -71 24 -91 94 -91h37c13 0 23 -27 23 -61c0 -35 -10 -63 -23 -63h-40c-71 0 -116 22 -140 63
c-10 -11 -22 -19 -35 -26c-70 -38 -192 -46 -370 -47zM337 220l-44 58c88 42 118 62 141 79c-37 15 -79 29 -126 47v84l164 109l7 -68l-114 -74c27 -12 54 -23 83 -34c43 -15 57 -33 57 -55c0 -52 -73 -96 -168 -146z" />
    <glyph glyph-name="uniFEDC" unicode="&#x643;" horiz-adv-x="573" arabic-form="medial" 
d="M0 0c-13 0 -23 28 -23 63c0 34 10 61 23 61c147 0 214 9 264 32c-12 30 -34 58 -88 117l-149 168l18 122l397 113l-3 -97l-319 -92l171 -195c110 -125 153 -159 227 -166c17 -2 35 -2 55 -2c13 0 23 -27 23 -61c0 -35 -10 -63 -23 -63c-22 0 -42 1 -60 3
c-80 6 -131 34 -181 100l-6 -12c-39 -69 -139 -88 -258 -90c-23 -1 -45 -1 -68 -1z" />
    <glyph glyph-name="uniFEDB" unicode="&#x643;" horiz-adv-x="489" arabic-form="initial" 
d="M0 0c-13 0 -23 28 -23 63c0 34 10 61 23 61c164 0 231 9 281 32c-11 30 -31 60 -88 117l-166 168l18 122l397 113l-3 -97l-319 -92l185 -192c34 -36 61 -78 61 -124c0 -131 -126 -168 -312 -170c-17 -1 -35 -1 -54 -1z" />
    <glyph glyph-name="uniFB8F" unicode="&#x6a9;" horiz-adv-x="969" arabic-form="final" 
d="M292 -10c-204 0 -249 75 -245 169c1 23 5 59 12 102l12 68l60 8l8 -7l-16 -121c-8 -53 12 -95 190 -95c202 0 297 18 348 42c-11 29 -33 56 -86 115l-152 170l19 122l397 113l-4 -97l-319 -92l171 -195c118 -133 159 -164 244 -167c11 -1 24 -1 38 -1c13 0 24 -27 24 -61
c0 -35 -11 -63 -24 -63s-25 0 -37 1c-92 4 -149 31 -203 102c-7 -14 -16 -27 -28 -38c-62 -59 -201 -74 -409 -75z" />
    <glyph glyph-name="uniFB91" unicode="&#x6a9;" horiz-adv-x="573" arabic-form="medial" 
d="M0 0c-13 0 -23 28 -23 63c0 34 10 61 23 61c147 0 214 9 264 32c-12 30 -34 58 -88 117l-149 168l18 122l397 113l-3 -97l-319 -92l171 -195c110 -125 153 -159 227 -166c17 -2 35 -2 55 -2c13 0 23 -27 23 -61c0 -35 -10 -63 -23 -63c-22 0 -42 1 -60 3
c-80 6 -131 34 -181 100l-6 -12c-39 -69 -139 -88 -258 -90c-23 -1 -45 -1 -68 -1z" />
    <glyph glyph-name="uniFB90" unicode="&#x6a9;" horiz-adv-x="489" arabic-form="initial" 
d="M0 0c-13 0 -23 28 -23 63c0 34 10 61 23 61c164 0 231 9 281 32c-11 30 -31 60 -88 117l-166 168l18 122l397 113l-3 -97l-319 -92l185 -192c34 -36 61 -78 61 -124c0 -131 -126 -168 -312 -170c-17 -1 -35 -1 -54 -1z" />
    <glyph glyph-name="uniFB93" unicode="&#x6af;" horiz-adv-x="969" arabic-form="final" 
d="M449 610l11 76l256 73l-4 -74zM292 -10c-204 0 -249 75 -245 169c1 23 5 59 12 102l12 68l60 8l8 -7l-16 -121c-8 -53 12 -95 190 -95c202 0 297 18 348 42c-11 29 -33 56 -86 115l-152 170l19 122l397 113l-4 -97l-319 -92l171 -195c118 -133 159 -164 244 -167
c11 -1 24 -1 38 -1c13 0 24 -27 24 -61c0 -35 -11 -63 -24 -63s-25 0 -37 1c-92 4 -149 31 -203 102c-7 -14 -16 -27 -28 -38c-62 -59 -201 -74 -409 -75z" />
    <glyph glyph-name="uniFB95" unicode="&#x6af;" horiz-adv-x="573" arabic-form="medial" 
d="M52 610l11 76l256 73l-4 -75zM0 0c-13 0 -23 28 -23 63c0 34 10 61 23 61c147 0 214 9 264 32c-12 30 -34 58 -88 117l-149 168l18 122l397 113l-3 -97l-319 -92l171 -195c110 -125 153 -159 227 -166c17 -2 35 -2 55 -2c13 0 23 -27 23 -61c0 -35 -10 -63 -23 -63
c-22 0 -42 1 -60 3c-80 6 -131 34 -181 100l-6 -12c-39 -69 -139 -88 -258 -90c-23 -1 -45 -1 -68 -1z" />
    <glyph glyph-name="uniFB94" unicode="&#x6af;" horiz-adv-x="489" arabic-form="initial" 
d="M52 610l11 76l256 73l-4 -75zM0 0c-13 0 -23 28 -23 63c0 34 10 61 23 61c164 0 231 9 281 32c-11 30 -31 60 -88 117l-166 168l18 122l397 113l-3 -97l-319 -92l185 -192c34 -36 61 -78 61 -124c0 -131 -126 -168 -312 -170c-17 -1 -35 -1 -54 -1z" />
    <glyph glyph-name="uni06B0.init" unicode="&#x6b0;" horiz-adv-x="490" 
d="M319 758l-4 -74l-263 -75l12 76zM442 676l-3 -97l-55 -16c12 -14 20 -33 20 -54c0 -45 -36 -81 -81 -81s-81 36 -81 81c0 5 0 9 1 14l-123 -36l185 -192c34 -36 61 -78 61 -124c0 -131 -126 -168 -312 -170c-17 -1 -35 -1 -54 -1c-13 0 -23 28 -23 63c0 34 10 61 23 61
c164 0 231 9 281 32c-11 30 -31 60 -88 117l-166 168l18 122zM323 473c19 0 35 17 35 36s-16 35 -35 35s-35 -16 -35 -35s16 -36 35 -36z" />
    <glyph glyph-name="uni06B0.medi" unicode="&#x6b0;" horiz-adv-x="573" 
d="M319 758l-4 -74l-263 -75l12 76zM573 124c13 0 23 -27 23 -61c0 -35 -10 -63 -23 -63c-22 0 -42 1 -60 3c-80 6 -131 34 -181 100l-6 -12c-39 -69 -139 -88 -258 -90c-23 -1 -45 -1 -68 -1c-13 0 -23 28 -23 63c0 34 10 61 23 61c147 0 214 9 264 32
c-12 30 -34 58 -88 117l-149 168l18 122l397 113l-3 -97l-55 -16c12 -14 20 -33 20 -54c0 -45 -36 -81 -81 -81s-81 36 -81 81c0 5 0 9 1 14l-123 -36l171 -195c110 -125 153 -159 227 -166c17 -2 35 -2 55 -2zM323 474c19 0 35 16 35 35s-16 35 -35 35s-36 -16 -36 -35
s17 -35 36 -35z" />
    <glyph glyph-name="uni06B0.fina" unicode="&#x6b0;" horiz-adv-x="969" 
d="M714 761l-4 -74l-263 -75l11 76zM969 124c13 0 24 -27 24 -61c0 -35 -11 -63 -24 -63s-25 0 -37 1c-92 4 -149 31 -203 102c-7 -14 -16 -27 -28 -38c-62 -59 -201 -74 -409 -75c-204 0 -249 75 -245 169c1 23 5 59 12 102l12 68l60 8l8 -7l-16 -121
c-8 -53 12 -95 190 -95c202 0 297 18 348 42c-11 29 -33 56 -86 115l-152 170l19 122l397 113l-4 -97l-69 -20c11 -14 17 -31 17 -50c0 -45 -36 -81 -81 -81s-81 36 -81 81v8l-105 -30l171 -195c118 -133 159 -164 244 -167c11 -1 24 -1 38 -1zM737 509c0 16 -12 30 -27 34
l-33 -9c-6 -7 -10 -16 -10 -25c0 -19 16 -36 35 -36s35 17 35 36z" />
    <glyph glyph-name="uni06AA.init" unicode="&#x6aa;" horiz-adv-x="907" 
d="M0 0c-13 0 -23 28 -23 63c0 34 10 61 23 61h303c148 0 236 3 349 8c56 2 103 6 136 12c0 9 -1 25 -9 42c-13 32 -50 71 -155 71h-392c-87 0 -165 19 -165 108c0 31 8 58 25 84c23 34 62 64 122 86l199 74l-17 -105l-120 -38c-50 -16 -104 -33 -141 -48c0 -9 2 -15 3 -22
c7 -20 25 -30 76 -30h392c200 0 254 -117 254 -205c0 -127 -80 -161 -541 -161h-319z" />
    <glyph glyph-name="uni06AA.medi" unicode="&#x6aa;" horiz-adv-x="968" 
d="M-23 63c0 34 10 61 23 61h288c151 0 242 3 357 8c58 2 108 6 143 12c0 8 0 20 -5 33c-10 34 -44 80 -159 80h-392c-87 0 -165 19 -165 108c0 33 9 65 31 92c24 31 62 58 116 78l199 74l-17 -105l-120 -38c-50 -16 -104 -33 -141 -48c0 -13 2 -23 7 -31
c9 -14 30 -21 72 -21h392c194 0 248 -111 253 -192c0 -16 0 -30 -2 -43c19 -6 41 -7 71 -7h40c13 0 23 -27 23 -61c0 -35 -10 -63 -23 -63h-54c-47 0 -84 14 -115 45c-65 -34 -202 -45 -480 -45h-319c-13 0 -23 28 -23 63z" />
    <glyph glyph-name="uni06AA.fina" unicode="&#x6aa;" horiz-adv-x="1045" 
d="M396 0c-135 0 -242 3 -335 11l-14 116l7 7c82 -7 165 -10 319 -10c150 0 239 3 353 8c57 2 104 6 139 12c-1 7 -1 17 -5 27c-8 35 -39 86 -159 86h-393c-86 0 -164 19 -164 108c0 34 9 66 31 94c24 30 62 56 116 76l198 74l-17 -105l-120 -38c-49 -16 -104 -33 -140 -48
c0 -11 1 -21 6 -29c8 -15 28 -23 72 -23h393c195 0 249 -113 253 -196c0 -14 0 -27 -3 -39c20 -6 41 -7 71 -7h41c13 0 23 -27 23 -61c0 -35 -10 -63 -23 -63h-55c-46 0 -84 14 -114 45c-66 -34 -202 -45 -480 -45z" />
    <glyph glyph-name="uni06AB.init" unicode="&#x6ab;" horiz-adv-x="489" 
d="M442 676l-3 -97l-55 -16c12 -14 20 -33 20 -54c0 -45 -36 -81 -81 -81s-81 36 -81 81c0 5 0 9 1 14l-123 -36l185 -192c34 -36 61 -78 61 -124c0 -131 -126 -168 -312 -170c-17 -1 -35 -1 -54 -1c-13 0 -23 28 -23 63c0 34 10 61 23 61c164 0 231 9 281 32
c-11 30 -31 60 -88 117l-166 168l18 122zM323 473c19 0 35 17 35 36s-16 35 -35 35s-35 -16 -35 -35s16 -36 35 -36z" />
    <glyph glyph-name="uni06AB.medi" unicode="&#x6ab;" horiz-adv-x="573" 
d="M573 124c13 0 23 -27 23 -61c0 -35 -10 -63 -23 -63c-22 0 -42 1 -60 3c-80 6 -131 34 -181 100l-6 -12c-39 -69 -139 -88 -258 -90c-23 -1 -45 -1 -68 -1c-13 0 -23 28 -23 63c0 34 10 61 23 61c147 0 214 9 264 32c-12 30 -34 58 -88 117l-149 168l18 122l397 113
l-3 -97l-56 -16c12 -14 20 -33 20 -54c0 -45 -36 -81 -81 -81s-81 36 -81 81c0 4 0 9 1 13l-122 -35l171 -195c110 -125 153 -159 227 -166c17 -2 35 -2 55 -2zM322 544c-2 0 -4 0 -7 -1l-5 -1c-13 -5 -23 -18 -23 -33c0 -19 16 -36 35 -36s36 17 36 36s-17 35 -36 35z" />
    <glyph glyph-name="uni06AB.fina" unicode="&#x6ab;" horiz-adv-x="969" 
d="M969 124c13 0 24 -27 24 -61c0 -35 -11 -63 -24 -63s-25 0 -37 1c-92 4 -149 31 -203 102c-7 -14 -16 -27 -28 -38c-62 -59 -201 -74 -409 -75c-204 0 -249 75 -245 169c1 23 5 59 12 102l12 68l60 8l8 -7l-16 -121c-8 -53 12 -95 190 -95c202 0 297 18 348 42
c-11 29 -33 56 -86 115l-152 170l19 122l397 113l-4 -97l-69 -20c11 -14 17 -31 17 -50c0 -45 -36 -81 -81 -81s-81 36 -81 81v8l-105 -30l171 -195c118 -133 159 -164 244 -167c11 -1 24 -1 38 -1zM737 509c0 16 -12 30 -27 34l-33 -10c-7 -6 -11 -15 -11 -24
c0 -19 17 -36 36 -36s35 17 35 36z" />
    <glyph glyph-name="uniFBD3" unicode="&#x6ad;" horiz-adv-x="772" arabic-form="isolated" 
d="M345 680l-63 28v11l25 52l62 -30v-10zM420 595l-64 29v11l25 54l64 -30v-10zM308 589l-64 29v11l25 54l65 -30v-10zM307 -10c-79 0 -172 8 -246 18l-14 106l8 7c76 -9 161 -13 268 -13c168 0 266 15 319 38l-5 508l88 22v-507c0 -37 -9 -66 -28 -88
c-51 -75 -190 -91 -390 -91zM291 236l-36 48c72 34 97 51 116 65c-31 12 -65 24 -104 39v69l135 90l6 -57l-94 -61c22 -10 44 -18 68 -27c35 -13 47 -27 47 -46c0 -43 -60 -79 -138 -120z" />
    <glyph glyph-name="uniFBD4" unicode="&#x6ad;" horiz-adv-x="877" arabic-form="final" 
d="M398 680l-62 28v11l25 52l62 -30v-10zM474 595l-65 29v11l26 54l64 -30v-10zM362 589l-64 29v11l25 54l64 -30v-10zM292 -10c-204 0 -249 75 -245 169c1 23 5 58 12 100c4 23 7 46 12 70l60 8l8 -7l-16 -121c-8 -53 12 -95 190 -95c205 0 301 16 350 40l-4 500l87 22
v-461c0 -71 24 -91 94 -91h37c13 0 23 -27 23 -61c0 -35 -10 -63 -23 -63h-40c-71 0 -116 22 -140 63c-10 -11 -22 -19 -35 -26c-70 -38 -192 -46 -370 -47zM345 236l-36 48c72 34 97 51 116 65c-31 12 -65 24 -104 39v69l135 90l5 -57l-93 -61c22 -10 44 -18 68 -27
c35 -13 47 -27 47 -46c0 -43 -60 -79 -138 -120z" />
    <glyph glyph-name="uniFBD6" unicode="&#x6ad;" horiz-adv-x="573" arabic-form="medial" 
d="M185 764l-88 22l-3 14l20 74l88 -25l3 -13zM302 671l-90 23l-3 14l20 76l91 -25l3 -13zM158 637l-90 23l-3 14l20 77l91 -25l3 -13zM0 0c-13 0 -23 28 -23 63c0 34 10 61 23 61c147 0 214 9 264 32c-12 30 -34 58 -88 117l-149 168l18 122l397 113l-3 -97l-319 -92
l171 -195c110 -125 153 -159 227 -166c17 -2 35 -2 55 -2c13 0 23 -27 23 -61c0 -35 -10 -63 -23 -63c-22 0 -42 1 -60 3c-80 6 -131 34 -181 100l-6 -12c-39 -69 -139 -88 -258 -90c-23 -1 -45 -1 -68 -1z" />
    <glyph glyph-name="uniFBD5" unicode="&#x6ad;" horiz-adv-x="489" arabic-form="initial" 
d="M185 764l-88 22l-3 14l20 74l88 -25l3 -13zM302 671l-90 23l-3 14l20 76l91 -25l3 -13zM158 637l-90 23l-3 14l20 77l91 -25l3 -13zM0 0c-13 0 -23 28 -23 63c0 34 10 61 23 61c164 0 231 9 281 32c-11 30 -31 60 -88 117l-166 168l18 122l397 113l-3 -97l-319 -92
l185 -192c34 -36 61 -78 61 -124c0 -131 -126 -168 -312 -170c-17 -1 -35 -1 -54 -1z" />
    <glyph glyph-name="uniFB9A" unicode="&#x6b1;" horiz-adv-x="885" arabic-form="isolated" 
d="M651 776l-92 24l-2 14l20 77l93 -25l2 -13zM512 744l-92 23l-3 14l21 78l92 -26l3 -13zM448 610l12 76l255 73l-3 -75zM292 -10c-196 0 -246 70 -245 159c0 6 0 14 1 24c2 23 6 54 12 90c4 22 7 43 11 66l60 8l8 -7l-16 -121c-1 -6 -1 -11 -1 -17c0 -44 31 -78 191 -78
c219 0 314 18 365 42c-12 30 -31 60 -88 117l-167 168l19 122l397 113l-4 -97l-319 -92l186 -192c34 -36 60 -78 61 -123c0 -142 -148 -180 -471 -182z" />
    <glyph glyph-name="uniFB9B" unicode="&#x6b1;" horiz-adv-x="969" arabic-form="final" 
d="M634 776l-92 23l-2 14l20 78l93 -26l2 -13zM495 743l-92 24l-3 14l21 77l92 -25l2 -13zM449 610l11 76l256 73l-4 -74zM292 -10c-204 0 -249 75 -245 169c1 23 5 59 12 102l12 68l60 8l8 -7l-16 -121c-8 -53 12 -95 190 -95c202 0 297 18 348 42c-11 29 -33 56 -86 115
l-152 170l19 122l397 113l-4 -97l-319 -92l171 -195c118 -133 159 -164 244 -167c11 -1 24 -1 38 -1c13 0 24 -27 24 -61c0 -35 -11 -63 -24 -63s-25 0 -37 1c-92 4 -149 31 -203 102c-7 -14 -16 -27 -28 -38c-62 -59 -201 -74 -409 -75z" />
    <glyph glyph-name="uniFB9D" unicode="&#x6b1;" horiz-adv-x="573" arabic-form="medial" 
d="M266 776l-92 24l-2 14l20 77l92 -25l3 -13zM126 744l-91 23l-3 14l21 77l92 -25l2 -13zM52 610l11 76l256 73l-4 -75zM0 0c-13 0 -23 28 -23 63c0 34 10 61 23 61c147 0 214 9 264 32c-12 30 -34 58 -88 117l-149 168l18 122l397 113l-3 -97l-319 -92l171 -195
c110 -125 153 -159 227 -166c17 -2 35 -2 55 -2c13 0 23 -27 23 -61c0 -35 -10 -63 -23 -63c-22 0 -42 1 -60 3c-80 6 -131 34 -181 100l-6 -12c-39 -69 -139 -88 -258 -90c-23 -1 -45 -1 -68 -1z" />
    <glyph glyph-name="uniFB9C" unicode="&#x6b1;" horiz-adv-x="489" arabic-form="initial" 
d="M266 776l-92 24l-2 14l20 77l92 -25l3 -13zM126 744l-91 23l-3 14l21 77l92 -25l2 -13zM52 610l11 76l256 73l-4 -75zM0 0c-13 0 -23 28 -23 63c0 34 10 61 23 61c164 0 231 9 281 32c-11 30 -31 60 -88 117l-166 168l18 122l397 113l-3 -97l-319 -92l185 -192
c34 -36 61 -78 61 -124c0 -131 -126 -168 -312 -170c-17 -1 -35 -1 -54 -1z" />
    <glyph glyph-name="uniFB96" unicode="&#x6b3;" horiz-adv-x="885" arabic-form="isolated" 
d="M448 610l12 76l255 73l-3 -75zM292 -10c-196 0 -246 70 -245 159c0 6 0 14 1 24c2 23 6 54 12 90c4 22 7 43 11 66l60 8l8 -7l-16 -121c-1 -6 -1 -11 -1 -17c0 -44 31 -78 191 -78c219 0 314 18 365 42c-12 30 -31 60 -88 117l-167 168l19 122l397 113l-4 -97l-319 -92
l186 -192c34 -36 60 -78 61 -123c0 -142 -148 -180 -471 -182zM360 -221l-86 39v14l34 73l86 -41v-13zM360 -354l-86 39v15l34 72l86 -41v-13z" />
    <glyph glyph-name="uniFB97" unicode="&#x6b3;" horiz-adv-x="969" arabic-form="final" 
d="M449 610l11 76l256 73l-4 -74zM292 -10c-204 0 -249 75 -245 169c1 23 5 59 12 102l12 68l60 8l8 -7l-16 -121c-8 -53 12 -95 190 -95c202 0 297 18 348 42c-11 29 -33 56 -86 115l-152 170l19 122l397 113l-4 -97l-319 -92l171 -195c118 -133 159 -164 244 -167
c11 -1 24 -1 38 -1c13 0 24 -27 24 -61c0 -35 -11 -63 -24 -63s-25 0 -37 1c-92 4 -149 31 -203 102c-7 -14 -16 -27 -28 -38c-62 -59 -201 -74 -409 -75zM358 -219l-86 39v14l34 72l86 -41v-13zM358 -352l-86 39v14l34 73l86 -41v-14z" />
    <glyph glyph-name="uniFB99" unicode="&#x6b3;" horiz-adv-x="573" arabic-form="medial" 
d="M52 610l11 76l256 73l-4 -75zM0 0c-13 0 -23 28 -23 63c0 34 10 61 23 61c147 0 214 9 264 32c-12 30 -34 58 -88 117l-149 168l18 122l397 113l-3 -97l-319 -92l171 -195c110 -125 153 -159 227 -166c17 -2 35 -2 55 -2c13 0 23 -27 23 -61c0 -35 -10 -63 -23 -63
c-22 0 -42 1 -60 3c-80 6 -131 34 -181 100l-6 -12c-39 -69 -139 -88 -258 -90c-23 -1 -45 -1 -68 -1zM240 -187l-86 39v14l34 73l86 -41v-14zM240 -320l-86 39v14l34 73l86 -41v-14z" />
    <glyph glyph-name="uniFB98" unicode="&#x6b3;" horiz-adv-x="489" arabic-form="initial" 
d="M52 610l11 76l256 73l-4 -75zM0 0c-13 0 -23 28 -23 63c0 34 10 61 23 61c164 0 231 9 281 32c-11 30 -31 60 -88 117l-166 168l18 122l397 113l-3 -97l-319 -92l185 -192c34 -36 61 -78 61 -124c0 -131 -126 -168 -312 -170c-17 -1 -35 -1 -54 -1zM242 -187l-86 39v15
l34 72l86 -41v-13zM242 -320l-86 39v15l34 72l86 -41v-13z" />
    <glyph glyph-name="uniFEDE" unicode="&#x644;" horiz-adv-x="685" arabic-form="final" 
d="M51 9c6 65 24 145 39 209l59 -4l6 -10c-9 -44 -24 -111 -29 -154c-13 -100 47 -119 143 -119c95 0 164 26 206 52l-24 671l87 22l14 -481c4 -56 29 -71 93 -71h40c13 0 23 -27 23 -61c0 -35 -10 -63 -23 -63h-34c-38 0 -70 6 -95 19c-1 -9 0 -17 0 -26
c-1 -27 -15 -77 -47 -102c-58 -50 -133 -84 -260 -84c-121 0 -210 55 -198 202z" />
    <glyph glyph-name="uniFEE0" unicode="&#x644;" horiz-adv-x="356" arabic-form="medial" 
d="M-23 63c0 34 10 61 23 61c8 0 17 0 24 1c48 2 92 10 120 27l-5 502l86 22v-461c0 -71 24 -91 94 -91h37c13 0 23 -27 23 -61c0 -35 -10 -63 -23 -63h-36c-69 0 -113 19 -139 56c-35 -34 -91 -52 -154 -55c-9 -1 -18 -1 -27 -1c-13 0 -23 28 -23 63z" />
    <glyph glyph-name="uniFEDF" unicode="&#x644;" horiz-adv-x="273" arabic-form="initial" 
d="M0 0c-13 0 -23 28 -23 63c0 34 10 61 23 61h14c52 2 101 10 130 28l-4 502l86 22v-509c0 -109 -89 -163 -207 -167h-19z" />
    <glyph glyph-name="uni06B5.init" unicode="&#x6b5;" horiz-adv-x="273" 
d="M161 708l-90 232l41 32l66 -178l70 178l39 -32l-88 -211zM0 0c-13 0 -23 28 -23 63c0 34 10 61 23 61h14c52 2 101 10 130 28l-4 502l86 22v-509c0 -109 -89 -163 -207 -167h-19z" />
    <glyph glyph-name="uni06B5.medi" unicode="&#x6b5;" horiz-adv-x="356" 
d="M161 708l-90 232l41 32l66 -178l70 178l39 -32l-88 -211zM-23 63c0 34 10 61 23 61c8 0 17 0 24 1c48 2 92 10 120 27l-5 502l86 22v-461c0 -71 24 -91 94 -91h37c13 0 23 -27 23 -61c0 -35 -10 -63 -23 -63h-36c-69 0 -113 19 -139 56c-35 -34 -91 -52 -154 -55
c-9 -1 -18 -1 -27 -1c-13 0 -23 28 -23 63z" />
    <glyph glyph-name="uni06B5.fina" unicode="&#x6b5;" horiz-adv-x="685" 
d="M51 9c6 65 24 145 39 209l59 -4l6 -10c-9 -44 -24 -111 -29 -154c-13 -100 47 -119 143 -119c95 0 164 26 206 52l-24 671l87 22l14 -481c4 -56 29 -71 93 -71h40c13 0 23 -27 23 -61c0 -35 -10 -63 -23 -63h-34c-38 0 -70 6 -95 19c-1 -9 0 -17 0 -26
c-1 -27 -15 -77 -47 -102c-58 -50 -133 -84 -260 -84c-121 0 -210 55 -198 202zM236 302l-89 232l41 32l65 -178l70 178l39 -32l-87 -211z" />
    <glyph glyph-name="uniFEE2" unicode="&#x645;" horiz-adv-x="619" arabic-form="final" 
d="M57 -263l-10 342c-3 79 12 126 59 169c51 47 242 118 335 118c26 0 37 -9 44 -41l19 -84c18 -78 36 -117 115 -117c13 0 23 -27 23 -61c0 -35 -10 -63 -23 -63h-21c-42 0 -94 16 -123 69c-1 -3 -3 -6 -4 -9l-30 -70h-84c-75 0 -164 19 -164 121c0 27 4 58 12 94
c-27 -11 -51 -23 -70 -34c-4 -92 5 -269 10 -411zM371 105h63l-24 129c-3 14 -8 20 -21 20c-31 0 -72 -9 -114 -23c-7 -36 -9 -57 -9 -73c0 -43 41 -53 105 -53z" />
    <glyph glyph-name="uniFEE4" unicode="&#x645;" horiz-adv-x="567" arabic-form="medial" 
d="M402 -10c-97 0 -204 18 -270 74c-26 -37 -50 -64 -117 -64h-15c-13 0 -23 28 -23 63c0 34 10 61 23 61h20c60 0 89 35 109 70l56 99c26 45 61 71 113 71c55 0 94 -23 122 -45l25 -101c20 -71 47 -94 122 -94c13 0 23 -27 23 -61c0 -35 -10 -63 -23 -63h-15
c-36 0 -84 15 -113 54l-4 -7zM378 101c-5 48 -14 93 -26 139c-16 9 -36 15 -61 15c-49 0 -67 -42 -100 -100c30 -26 109 -51 187 -54z" />
    <glyph glyph-name="uniFEE3" unicode="&#x645;" horiz-adv-x="503" arabic-form="initial" 
d="M-23 63c0 34 10 61 23 61h20c60 0 89 35 109 70l56 99c26 45 61 71 113 71c111 0 169 -120 157 -286l-53 -88c-97 0 -204 18 -270 74c-26 -37 -50 -64 -117 -64h-15c-13 0 -23 28 -23 63zM191 155c30 -27 109 -51 187 -53c1 84 -29 153 -87 153c-13 0 -28 -3 -47 -8z" />
    <glyph glyph-name="uniFEE6" unicode="&#x646;" horiz-adv-x="734" arabic-form="final" 
d="M258 -193c-133 0 -223 55 -210 202c6 65 24 145 39 209l59 -4l6 -10c-9 -44 -24 -111 -30 -154c-13 -100 48 -119 155 -119c134 0 226 39 270 64c-10 76 -24 158 -45 274l74 47l12 -5l19 -108c11 -62 33 -79 93 -79h34c12 0 23 -27 23 -61c0 -36 -11 -63 -23 -63h-26
c-33 0 -60 8 -82 23c-1 -7 0 -13 -1 -21c-1 -27 -6 -71 -47 -103c-58 -49 -165 -92 -320 -92zM352 121l-95 42v16l37 79l95 -44v-15z" />
    <glyph glyph-name="uniFEE8" unicode="&#x646;" horiz-adv-x="369" arabic-form="medial" 
d="M175 371l-94 43v15l36 80l95 -45v-15zM0 0c-13 0 -23 28 -23 63c0 34 10 61 23 61h64c69 0 104 10 113 56l21 109l10 7l65 -17l-14 -89c-5 -34 20 -66 75 -66h35c13 0 23 -27 23 -61c0 -35 -10 -63 -23 -63h-39c-62 0 -102 25 -122 65c-35 -50 -82 -65 -147 -65h-61z" />
    <glyph glyph-name="uniFEE7" unicode="&#x646;" horiz-adv-x="328" arabic-form="initial" 
d="M191 452l-95 43v16l37 79l94 -45v-14zM0 0c-13 0 -23 28 -23 63c0 34 10 61 23 61c80 0 150 9 192 34l-26 170l84 53l9 -5c14 -102 22 -159 22 -199c0 -62 -21 -103 -59 -130c-57 -40 -143 -47 -222 -47z" />
    <glyph glyph-name="uniFB9F" unicode="&#x6ba;" horiz-adv-x="734" arabic-form="final" 
d="M258 -193c-133 0 -223 55 -210 202c6 65 24 145 39 209l59 -4l6 -10c-9 -44 -24 -111 -30 -154c-13 -100 48 -119 155 -119c134 0 226 39 270 64c-10 76 -24 158 -45 274l74 47l12 -5l19 -108c11 -62 33 -79 93 -79h34c12 0 23 -27 23 -61c0 -36 -11 -63 -23 -63h-26
c-33 0 -60 8 -82 23c-1 -7 0 -13 -1 -21c-1 -27 -6 -71 -47 -103c-58 -49 -165 -92 -320 -92z" />
    <glyph glyph-name="uniFBA0" unicode="&#x6bb;" horiz-adv-x="674" arabic-form="isolated" 
d="M161 306h40l37 47l-1 204l44 11v-162c9 10 19 19 29 26c18 13 39 19 64 19c71 0 88 -65 88 -97c0 -60 -44 -105 -170 -105h-122zM250 306h46c70 0 107 8 128 25c0 42 -17 65 -58 65c-21 0 -31 -2 -49 -6zM258 -193c-133 0 -223 55 -210 202c6 65 24 145 39 209l59 -4
l6 -10c-9 -44 -24 -111 -30 -154c-13 -100 48 -119 155 -119c134 0 226 39 270 64c-10 76 -24 158 -45 274l74 47l12 -5c24 -139 40 -242 40 -294c0 -33 -7 -83 -50 -118c-58 -49 -165 -92 -320 -92z" />
    <glyph glyph-name="uniFBA1" unicode="&#x6bb;" horiz-adv-x="734" arabic-form="final" 
d="M161 306h40l37 47l-1 204l44 11v-162c9 10 19 19 29 26c18 13 39 19 64 19c71 0 88 -65 88 -97c0 -60 -44 -105 -170 -105h-122zM250 306h46c70 0 107 8 128 25c0 42 -17 65 -58 65c-21 0 -31 -2 -49 -6zM258 -193c-133 0 -223 55 -210 202c6 65 24 145 39 209l59 -4
l6 -10c-9 -44 -24 -111 -30 -154c-13 -100 48 -119 155 -119c134 0 226 39 270 64c-10 76 -24 158 -45 274l74 47l12 -5l19 -108c11 -62 33 -79 93 -79h34c12 0 23 -27 23 -61c0 -36 -11 -63 -23 -63h-26c-33 0 -60 8 -82 23c-1 -7 0 -13 -1 -21c-1 -27 -6 -71 -47 -103
c-58 -49 -165 -92 -320 -92z" />
    <glyph glyph-name="uniFBA3" unicode="&#x6bb;" horiz-adv-x="369" arabic-form="medial" 
d="M-13 411h40l37 47l-1 204l44 11v-162c9 11 19 19 29 26c18 14 39 19 64 19c71 0 88 -64 88 -97c0 -60 -44 -104 -170 -104h-122zM75 411h47c70 0 107 9 128 26c0 41 -17 64 -58 64c-21 0 -31 -2 -49 -5zM0 0c-13 0 -23 28 -23 63c0 34 10 61 23 61h64c69 0 104 10 113 56
l21 109l10 7l65 -17l-14 -89c-5 -34 20 -66 75 -66h35c13 0 23 -27 23 -61c0 -35 -10 -63 -23 -63h-39c-62 0 -102 25 -122 65c-35 -50 -82 -65 -147 -65h-61z" />
    <glyph glyph-name="uniFBA2" unicode="&#x6bb;" horiz-adv-x="328" arabic-form="initial" 
d="M-20 496h39l38 47l-2 204l45 11v-162c9 10 18 19 28 26c18 13 39 19 64 19c71 0 88 -65 88 -97c0 -60 -43 -105 -169 -105h-123zM68 496h47c69 0 106 8 128 26c-1 41 -18 64 -58 64c-22 0 -31 -2 -50 -6zM0 0c-13 0 -23 28 -23 63c0 34 10 61 23 61c80 0 150 9 192 34
l-26 170l84 53l9 -5c14 -102 22 -159 22 -199c0 -62 -21 -103 -59 -130c-57 -40 -143 -47 -222 -47z" />
    <glyph glyph-name="uni06BC.init" unicode="&#x6bc;" horiz-adv-x="328" 
d="M227 531l-36 -79l-95 43v16l37 79l94 -45v-14zM259 376c14 -102 22 -159 22 -199c0 -62 -21 -103 -59 -130c-10 -7 -21 -13 -33 -18c13 -15 21 -34 21 -55c0 -45 -36 -81 -81 -81s-81 36 -81 81c0 10 2 19 5 27c-18 -1 -36 -1 -53 -1c-13 0 -23 28 -23 63
c0 34 10 61 23 61c80 0 150 9 192 34l-26 170l84 53zM129 10h-2c-3 -1 -5 -1 -8 -1c-14 -5 -25 -19 -25 -35c0 -19 16 -35 35 -35s35 16 35 35s-16 36 -35 36z" />
    <glyph glyph-name="uni06BC.medi" unicode="&#x6bc;" horiz-adv-x="369" 
d="M212 449l-37 -78l-94 43v15l36 80l95 -45v-15zM369 124c13 0 23 -27 23 -61c0 -35 -10 -63 -23 -63h-39c-62 0 -102 25 -122 65c-11 -16 -23 -28 -37 -37c15 -15 24 -35 24 -58c0 -45 -36 -81 -81 -81s-81 36 -81 81c0 11 2 21 6 30h-39c-13 0 -23 28 -23 63
c0 34 10 61 23 61h64c69 0 104 10 113 56l21 109l10 7l65 -17l-14 -89c-5 -34 20 -66 75 -66h35zM149 -30c0 18 -15 34 -33 35l-15 -3c-13 -5 -23 -18 -23 -32c0 -19 17 -36 36 -36s35 17 35 36z" />
    <glyph glyph-name="uni06BC.fina" unicode="&#x6bc;" horiz-adv-x="734" 
d="M734 124c12 0 23 -27 23 -61c0 -36 -11 -63 -23 -63h-26c-33 0 -60 8 -82 23c-1 -7 0 -13 -1 -21c-1 -27 -6 -71 -47 -103c-52 -44 -144 -83 -274 -91c6 -11 9 -24 9 -38c0 -45 -36 -81 -81 -81s-81 36 -81 81c0 18 6 35 16 48c-81 23 -129 81 -119 191
c6 65 24 145 39 209l59 -4l6 -10c-9 -44 -24 -111 -30 -154c-13 -100 48 -119 155 -119c134 0 226 39 270 64c-10 76 -24 158 -45 274l74 47l12 -5l19 -108c11 -62 33 -79 93 -79h34zM389 199l-37 -78l-95 42v16l37 79l95 -44v-15zM232 -265c19 0 35 16 35 35s-16 36 -35 36
s-35 -17 -35 -36s16 -35 35 -35z" />
    <glyph glyph-name="uniFEE9" unicode="&#x647;" horiz-adv-x="678" arabic-form="isolated" 
d="M93 -41l-46 87l2 12c25 7 49 14 74 22c17 5 34 10 50 16c-28 24 -45 56 -45 98c0 18 3 36 10 56c14 49 27 84 43 110l-40 13l23 95l12 7l237 -76c163 -52 216 -114 218 -245c0 -22 -1 -45 -4 -71l-57 -84l-185 22c-27 3 -58 7 -86 12c-42 -19 -92 -36 -150 -55
c-19 -6 -37 -13 -56 -19zM294 150c46 28 74 66 74 95c0 35 -26 62 -72 75c-16 5 -35 8 -56 10c-10 -15 -24 -48 -34 -85c-2 -7 -2 -13 -2 -19c-1 -43 39 -64 90 -76zM555 112c0 18 0 33 -1 48c-6 49 -25 87 -93 110l-30 10c1 -9 1 -18 1 -28c-2 -47 -16 -85 -38 -118
c10 -2 21 -4 31 -5z" />
    <glyph glyph-name="uniFEEA" unicode="&#x647;" horiz-adv-x="492" arabic-form="final" 
d="M458 0c-67 0 -114 26 -140 95l-26 -58c-29 -4 -58 -5 -85 -5c-100 0 -160 36 -160 116c0 76 39 146 156 202l94 45v68l88 25v-289c0 -49 22 -75 75 -75h32c13 0 23 -27 23 -61c0 -35 -10 -63 -23 -63h-34zM239 146h58v151l-53 -24l-120 -54c-1 -8 -2 -16 -2 -22
c0 -43 30 -51 117 -51z" />
    <glyph glyph-name="uniFEEC" unicode="&#x647;" horiz-adv-x="549" arabic-form="medial" 
d="M219 -237c-81 83 -122 163 -126 238l-93 -1c-13 0 -23 28 -23 63c0 34 10 61 23 61h104c20 95 39 169 68 268l83 57l69 -74c77 -84 81 -125 81 -164c0 -28 -2 -57 -19 -84c-37 -58 -96 -100 -209 -118c9 -57 45 -104 90 -148l65 110c53 93 94 153 190 153h27
c13 0 23 -27 23 -61c0 -35 -10 -63 -23 -63h-31c-76 0 -92 -31 -135 -108l-75 -129h-89zM180 124c95 7 138 42 153 70c0 23 -39 75 -95 136c-26 -79 -42 -130 -58 -206z" />
    <glyph glyph-name="uniFEEB" unicode="&#x647;" horiz-adv-x="643" arabic-form="initial" 
d="M0 0c-13 0 -23 28 -23 63c0 34 10 61 23 61h35c20 0 53 1 80 3c-12 16 -20 36 -22 60c-1 19 2 39 10 63c14 49 27 84 43 110l-40 13l23 95l12 7l237 -76c162 -52 217 -114 218 -246c0 -22 -1 -45 -4 -70l-57 -84l-185 22c-36 4 -76 9 -112 20c-60 -28 -131 -41 -198 -41
h-40zM259 150c46 28 74 66 74 95c0 38 -30 66 -83 78c-14 4 -29 6 -45 7c-10 -15 -24 -48 -34 -85c-1 -7 -2 -13 -2 -18c-1 -44 40 -65 90 -77zM520 112c0 17 0 33 -2 49c-5 48 -24 86 -92 109l-30 10c1 -9 1 -18 1 -28c-2 -47 -16 -85 -38 -118c10 -2 21 -4 31 -5z" />
    <glyph glyph-name="uniFBA5" unicode="&#x6c0;" horiz-adv-x="492" arabic-form="final" 
d="M207 519l13 64l38 15c-22 15 -35 44 -35 72c0 56 43 97 100 102c10 1 19 0 29 -2c12 -1 24 -4 36 -6v-62c-8 2 -17 3 -25 4c-14 1 -27 2 -37 2c-26 0 -41 -3 -52 -8c-1 -7 -1 -14 -1 -19c1 -29 19 -46 45 -46c10 0 22 1 34 5l79 22l3 -3l-12 -65l-23 -8
c-64 -24 -127 -48 -188 -70zM458 0c-67 0 -114 26 -140 95l-26 -58c-29 -4 -58 -5 -85 -5c-100 0 -160 36 -160 116c0 76 39 146 156 202l94 45v68l88 25v-289c0 -49 22 -75 75 -75h32c13 0 23 -27 23 -61c0 -35 -10 -63 -23 -63h-34zM239 146h58v151l-53 -24l-120 -54
c-1 -8 -2 -16 -2 -22c0 -43 30 -51 117 -51z" />
    <glyph glyph-name="uniFBA6" unicode="&#x6c1;" horiz-adv-x="448" arabic-form="isolated" 
d="M203 -10c-84 0 -156 31 -156 122c0 57 19 114 93 226l-39 31l43 93l12 2l95 -76c99 -79 149 -135 150 -218c1 -124 -96 -180 -198 -180zM212 108c54 0 96 11 119 52c-17 37 -53 72 -135 138c-50 -75 -72 -115 -72 -145c0 -32 32 -45 88 -45z" />
    <glyph glyph-name="uniFBA7" unicode="&#x6c1;" horiz-adv-x="518" arabic-form="final" 
d="M480 0c-69 0 -135 31 -159 161l-21 115l-56 -50c-75 -67 -105 -93 -158 -169l-39 46c31 81 60 131 153 218l93 88l78 -36l28 -168c8 -50 32 -81 88 -81h31c13 0 23 -27 23 -61c0 -35 -10 -63 -23 -63h-38z" />
    <glyph glyph-name="uniFBA9" unicode="&#x6c1;" horiz-adv-x="543" arabic-form="medial" 
d="M216 -237c-71 91 -76 179 -65 281c-25 -33 -59 -44 -106 -44h-45c-13 0 -23 28 -23 63c0 34 10 61 23 61h58c73 0 108 31 124 86l26 89l69 -17l5 -11l-21 -86c-40 -156 -39 -257 3 -319l62 105c53 93 94 153 190 153h27c13 0 23 -27 23 -61c0 -35 -10 -63 -23 -63h-31
c-76 0 -92 -31 -135 -108l-75 -129h-86zM89 -257c-69 0 -91 44 -90 75c0 27 12 55 45 95l40 49l33 -39l-30 -37c-13 -16 -18 -26 -18 -35c0 -12 20 -24 53 -31z" />
    <glyph glyph-name="uniFBA8" unicode="&#x6c1;" horiz-adv-x="328" arabic-form="initial" 
d="M0 0c-13 0 -23 28 -23 63c0 34 10 61 23 61c80 0 150 9 192 34l-26 170l84 53l9 -5c14 -102 22 -159 22 -199c0 -62 -21 -103 -59 -130c-57 -40 -143 -47 -222 -47zM32 -168c0 27 13 55 45 95l41 49l33 -39l-30 -37c-13 -16 -18 -26 -18 -35c0 -12 19 -24 52 -31l-32 -77
c-70 0 -92 44 -91 75z" />
    <glyph glyph-name="uni06C2.init" unicode="&#x6c2;" horiz-adv-x="328" 
d="M50 405l12 64l38 15c-21 15 -34 44 -34 72c0 56 43 97 99 102c10 1 20 0 30 -2c11 -1 23 -4 35 -6v-62c-8 2 -17 3 -25 4c-14 1 -26 2 -36 2c-26 0 -42 -3 -52 -8c-1 -7 -1 -14 -1 -19c0 -29 19 -46 44 -46c11 0 23 1 34 5l79 22l4 -3l-12 -65l-24 -8
c-64 -24 -127 -48 -188 -70zM0 0c-13 0 -23 28 -23 63c0 34 10 61 23 61c80 0 150 9 192 34l-26 170l84 53l9 -5c14 -102 22 -159 22 -199c0 -62 -21 -103 -59 -130c-57 -40 -143 -47 -222 -47zM32 -168c0 27 13 55 45 95l41 49l33 -39l-30 -37c-13 -16 -18 -26 -18 -35
c0 -12 19 -24 52 -31l-32 -77c-70 0 -92 44 -91 75z" />
    <glyph glyph-name="uni06C2.medi" unicode="&#x6c2;" horiz-adv-x="543" 
d="M116 365l12 64l39 15c-22 16 -35 44 -35 72c0 56 43 97 100 102c9 1 19 0 29 -1l35 -6v-62l-24 3c-15 2 -27 3 -37 3c-26 0 -42 -4 -52 -8c-1 -8 -1 -14 -1 -20c0 -29 19 -45 44 -45c11 0 23 1 35 4l79 22l3 -3l-12 -65l-23 -8c-64 -24 -128 -47 -188 -70zM216 -237
c-71 91 -76 179 -65 281c-25 -33 -59 -44 -106 -44h-45c-13 0 -23 28 -23 63c0 34 10 61 23 61h58c73 0 108 31 124 86l26 89l69 -17l5 -11l-21 -86c-40 -156 -39 -257 3 -319l62 105c53 93 94 153 190 153h27c13 0 23 -27 23 -61c0 -35 -10 -63 -23 -63h-31
c-76 0 -92 -31 -135 -108l-75 -129h-86z" />
    <glyph glyph-name="uni06C2.fina" unicode="&#x6c2;" horiz-adv-x="492" 
d="M207 519l13 64l38 15c-22 15 -35 44 -35 72c0 56 43 97 100 102c10 1 19 0 29 -2c12 -1 24 -4 36 -6v-62c-8 2 -17 3 -25 4c-14 1 -27 2 -37 2c-26 0 -41 -3 -52 -8c-1 -7 -1 -14 -1 -19c1 -29 19 -46 45 -46c10 0 22 1 34 5l79 22l3 -3l-12 -65l-23 -8
c-64 -24 -127 -48 -188 -70zM458 0c-67 0 -114 26 -140 95l-26 -58c-29 -4 -58 -5 -85 -5c-100 0 -160 36 -160 116c0 76 39 146 156 202l94 45v68l88 25v-289c0 -49 22 -75 75 -75h32c13 0 23 -27 23 -61c0 -35 -10 -63 -23 -63h-34zM239 146h58v151l-53 -24l-120 -54
c-1 -8 -2 -16 -2 -22c0 -43 30 -51 117 -51z" />
    <glyph glyph-name="uniFBAA" unicode="&#x6be;" horiz-adv-x="678" arabic-form="isolated" 
d="M93 -41l-46 87l2 12c25 7 49 14 74 22c17 5 34 10 50 16c-28 24 -45 56 -45 98c0 18 3 36 10 56c14 49 27 84 43 110l-40 13l23 95l12 7l237 -76c163 -52 216 -114 218 -245c0 -22 -1 -45 -4 -71l-57 -84l-185 22c-27 3 -58 7 -86 12c-42 -19 -92 -36 -150 -55
c-19 -6 -37 -13 -56 -19zM294 150c46 28 74 66 74 95c0 35 -26 62 -72 75c-16 5 -35 8 -56 10c-10 -15 -24 -48 -34 -85c-2 -7 -2 -13 -2 -19c-1 -43 39 -64 90 -76zM555 112c0 18 0 33 -1 48c-6 49 -25 87 -93 110l-30 10c1 -9 1 -18 1 -28c-2 -47 -16 -85 -38 -118
c10 -2 21 -4 31 -5z" />
    <glyph glyph-name="uniFBAB" unicode="&#x6be;" horiz-adv-x="634" arabic-form="final" 
d="M368 -242c-132 0 -193 104 -190 229l-88 -27l-43 89l3 11l140 39c21 110 40 181 72 293l83 57l69 -74c78 -84 82 -125 82 -164c0 -26 -1 -52 -17 -77c-5 -7 -10 -14 -15 -20c23 7 47 10 74 10h96c12 0 23 -27 23 -61c0 -35 -11 -63 -23 -63h-118c14 -24 19 -50 19 -77
c0 -83 -73 -165 -167 -165zM271 124c94 26 140 47 153 70c0 23 -40 75 -95 136c-26 -79 -43 -131 -58 -206zM368 -136c62 0 94 44 99 71c-10 46 -63 71 -139 71h-69c-4 -96 39 -142 109 -142z" />
    <glyph glyph-name="uniFBAD" unicode="&#x6be;" horiz-adv-x="680" arabic-form="medial" 
d="M0 0c-13 0 -23 28 -23 63c0 34 10 61 23 61h34c21 0 54 1 81 3c-13 17 -21 38 -22 65c0 17 3 36 10 58c14 49 27 84 43 110l-40 13l23 95l12 7l237 -76c139 -44 199 -94 213 -195c3 -23 4 -50 3 -80h45h41c12 0 23 -27 23 -61c0 -35 -11 -63 -23 -63c-64 0 -108 1 -151 3
c-53 3 -94 8 -173 17c-42 5 -82 10 -118 21c-60 -28 -131 -41 -198 -41h-40zM260 150c45 28 73 66 73 95c0 36 -28 63 -76 76c-16 5 -33 8 -52 9c-10 -15 -24 -48 -34 -85c-1 -7 -2 -13 -2 -19c0 -43 40 -64 91 -76zM520 110c1 28 0 53 -5 75c-10 37 -33 67 -89 85l-30 10
c1 -9 1 -18 1 -27c-1 -46 -16 -84 -38 -119c10 -2 21 -4 31 -5z" />
    <glyph glyph-name="uniFBAC" unicode="&#x6be;" horiz-adv-x="643" arabic-form="initial" 
d="M0 0c-13 0 -23 28 -23 63c0 34 10 61 23 61h35c20 0 53 1 80 3c-12 16 -20 36 -22 60c-1 19 2 39 10 63c14 49 27 84 43 110l-40 13l23 95l12 7l237 -76c162 -52 217 -114 218 -246c0 -22 -1 -45 -4 -70l-57 -84l-185 22c-36 4 -76 9 -112 20c-60 -28 -131 -41 -198 -41
h-40zM259 150c46 28 74 66 74 95c0 38 -30 66 -83 78c-14 4 -29 6 -45 7c-10 -15 -24 -48 -34 -85c-1 -7 -2 -13 -2 -18c-1 -44 40 -65 90 -77zM520 112c0 17 0 33 -2 49c-5 48 -24 86 -92 109l-30 10c1 -9 1 -18 1 -28c-2 -47 -16 -85 -38 -118c10 -2 21 -4 31 -5z" />
    <glyph glyph-name="uniFCD9" unicode="&#xfcd9;" horiz-adv-x="643" arabic-form="initial" 
d="M336 523l-5 178l58 10v-121c0 -25 -3 -54 -6 -66zM0 0c-13 0 -23 28 -23 63c0 34 10 61 23 61h35c20 0 53 1 80 3c-12 16 -20 36 -22 60c-1 19 2 39 10 63c14 49 27 84 43 110l-40 13l23 95l12 7l237 -76c162 -52 217 -114 218 -246c0 -22 -1 -45 -4 -70l-57 -84l-185 22
c-36 4 -76 9 -112 20c-60 -28 -131 -41 -198 -41h-40zM259 150c46 28 74 66 74 95c0 38 -30 66 -83 78c-14 4 -29 6 -45 7c-10 -15 -24 -48 -34 -85c-1 -7 -2 -13 -2 -18c-1 -44 40 -65 90 -77zM520 112c0 17 0 33 -2 49c-5 48 -24 86 -92 109l-30 10c1 -9 1 -18 1 -28
c-2 -47 -16 -85 -38 -118c10 -2 21 -4 31 -5z" />
    <glyph glyph-name="uniFE93" unicode="&#x629;" horiz-adv-x="448" arabic-form="isolated" 
d="M238 526l-87 39v14l34 73l86 -41v-14zM95 518l-87 39v14l34 73l86 -41v-14zM203 -10c-84 0 -156 31 -156 122c0 57 19 114 93 226l-39 31l43 93l12 2l95 -76c99 -79 149 -135 150 -218c1 -124 -96 -180 -198 -180zM212 108c54 0 96 11 119 52c-17 37 -53 72 -135 138
c-50 -75 -72 -115 -72 -145c0 -32 32 -45 88 -45z" />
    <glyph glyph-name="uniFE94" unicode="&#x629;" horiz-adv-x="492" arabic-form="final" 
d="M326 551l-87 39v14l34 73l86 -41v-13zM183 543l-87 39v14l34 73l86 -41v-13zM458 0c-67 0 -114 26 -140 95l-26 -58c-29 -4 -58 -5 -85 -5c-100 0 -160 36 -160 116c0 76 39 146 156 202l94 45v68l88 25v-289c0 -49 22 -75 75 -75h32c13 0 23 -27 23 -61
c0 -35 -10 -63 -23 -63h-34zM239 146h58v151l-53 -24l-120 -54c-1 -8 -2 -16 -2 -22c0 -43 30 -51 117 -51z" />
    <glyph glyph-name="uni06C3.fina" unicode="&#x6c3;" horiz-adv-x="518" 
d="M350 504l-86 39v14l33 73l87 -41v-14zM207 496l-86 39v14l33 73l87 -41v-14zM480 0c-69 0 -135 31 -159 161l-21 115l-56 -50c-75 -67 -105 -93 -158 -169l-39 46c31 81 60 131 153 218l93 88l78 -36l28 -168c8 -50 32 -81 88 -81h31c13 0 23 -27 23 -61
c0 -35 -10 -63 -23 -63h-38z" />
    <glyph glyph-name="uniFEEE" unicode="&#x648;" horiz-adv-x="463" arabic-form="final" 
d="M202 -235c-29 -3 -94 17 -138 30l-22 76l6 7c41 -3 89 -6 112 -4c86 8 142 78 169 131h-131c-73 0 -118 33 -117 106c0 7 1 14 1 21c16 149 68 231 157 231c75 0 110 -40 134 -79c16 -28 31 -73 39 -122c2 -12 3 -25 5 -38h46c13 0 23 -27 23 -61c0 -35 -10 -63 -23 -63
h-53c-29 -132 -131 -226 -208 -235zM218 114c39 0 80 0 117 1c-9 56 -26 110 -40 139c-23 6 -39 9 -60 9c-44 0 -68 -16 -77 -104v-10c0 -32 20 -35 60 -35z" />
    <glyph glyph-name="uni06C4.fina" unicode="&#x6c4;" horiz-adv-x="463" 
d="M463 124c13 0 23 -27 23 -61c0 -35 -10 -63 -23 -63h-53c-23 -105 -93 -187 -159 -220c11 -13 17 -31 17 -50c0 -45 -36 -81 -81 -81s-81 36 -81 81c0 18 6 35 16 48l-58 17l-22 76l6 7c41 -3 89 -6 112 -4c86 8 142 78 169 131h-131c-73 0 -118 33 -117 106
c0 7 1 14 1 21c16 149 68 231 157 231c75 0 110 -40 134 -79c16 -28 31 -73 39 -122c2 -12 3 -25 5 -38h46zM218 114c39 0 80 0 117 1c-9 56 -26 110 -40 139c-23 6 -39 9 -60 9c-44 0 -68 -16 -77 -104v-10c0 -32 20 -35 60 -35zM187 -305c19 0 35 16 35 35
c0 18 -14 33 -32 35h-2h-1c-19 0 -36 -16 -36 -35s17 -35 36 -35z" />
    <glyph glyph-name="uni06CA.fina" unicode="&#x6ca;" horiz-adv-x="463" 
d="M295 410l-87 39v14l34 73l86 -41v-13zM152 402l-87 39v14l34 73l86 -41v-13zM202 -235c-29 -3 -94 17 -138 30l-22 76l6 7c41 -3 89 -6 112 -4c86 8 142 78 169 131h-131c-73 0 -118 33 -117 106c0 7 1 14 1 21c16 149 68 231 157 231c75 0 110 -40 134 -79
c16 -28 31 -73 39 -122c2 -12 3 -25 5 -38h46c13 0 23 -27 23 -61c0 -35 -10 -63 -23 -63h-53c-29 -132 -131 -226 -208 -235zM218 114c39 0 80 0 117 1c-9 56 -26 110 -40 139c-23 6 -39 9 -60 9c-44 0 -68 -16 -77 -104v-10c0 -32 20 -35 60 -35z" />
    <glyph glyph-name="uniFE85" unicode="&#x624;" horiz-adv-x="466" arabic-form="isolated" 
d="M120 429l12 64l38 15c-21 15 -35 43 -35 72c0 55 44 96 100 102c10 1 19 0 29 -2c12 -1 24 -4 36 -6v-62l-25 3c-14 2 -26 3 -36 3c-26 0 -42 -3 -53 -8c-1 -8 -1 -14 0 -20c0 -28 19 -45 44 -45c11 0 22 1 34 5l79 22l4 -4l-12 -64l-24 -9c-64 -23 -127 -47 -188 -70z
M202 -235c-29 -3 -94 17 -138 30l-22 76l6 7c41 -3 89 -6 112 -4c95 8 154 93 176 147c-50 -12 -99 -16 -138 -16c-72 0 -117 33 -117 106c0 7 1 14 1 21c16 149 68 231 157 231c77 0 113 -41 136 -82c26 -45 44 -128 44 -205c0 -168 -123 -301 -217 -311zM218 114
c39 0 79 2 116 7c-10 54 -26 105 -39 133c-23 6 -39 9 -60 9c-44 0 -68 -16 -77 -104v-9c-1 -33 19 -36 60 -36z" />
    <glyph glyph-name="uniFE86" unicode="&#x624;" horiz-adv-x="463" arabic-form="final" 
d="M120 429l12 64l38 15c-21 15 -35 43 -35 72c0 55 44 96 100 102c10 1 19 0 29 -2c12 -1 24 -4 36 -6v-62l-25 3c-14 2 -26 3 -36 3c-26 0 -42 -3 -53 -8c-1 -8 -1 -14 0 -20c0 -28 19 -45 44 -45c11 0 22 1 34 5l79 22l4 -4l-12 -64l-24 -9c-64 -23 -127 -47 -188 -70z
M202 -235c-29 -3 -94 17 -138 30l-22 76l6 7c41 -3 89 -6 112 -4c86 8 142 78 169 131h-131c-73 0 -118 33 -117 106c0 7 1 14 1 21c16 149 68 231 157 231c75 0 110 -40 134 -79c16 -28 31 -73 39 -122c2 -12 3 -25 5 -38h46c13 0 23 -27 23 -61c0 -35 -10 -63 -23 -63h-53
c-29 -132 -131 -226 -208 -235zM218 114c39 0 80 0 117 1c-9 56 -26 110 -40 139c-23 6 -39 9 -60 9c-44 0 -68 -16 -77 -104v-10c0 -32 20 -35 60 -35z" />
    <glyph glyph-name="uniFBD9" unicode="&#x6c6;" horiz-adv-x="466" arabic-form="isolated" 
d="M221 431l-89 231l41 32l65 -178l70 178l39 -32l-88 -210zM202 -235c-29 -3 -94 17 -138 30l-22 76l6 7c41 -3 89 -6 112 -4c95 8 154 93 176 147c-50 -12 -99 -16 -138 -16c-72 0 -117 33 -117 106c0 7 1 14 1 21c16 149 68 231 157 231c77 0 113 -41 136 -82
c26 -45 44 -128 44 -205c0 -168 -123 -301 -217 -311zM218 114c39 0 79 2 116 7c-10 54 -26 105 -39 133c-23 6 -39 9 -60 9c-44 0 -68 -16 -77 -104v-9c-1 -33 19 -36 60 -36z" />
    <glyph glyph-name="uniFBDA" unicode="&#x6c6;" horiz-adv-x="463" arabic-form="final" 
d="M222 434l-90 232l41 31l66 -177l70 178l39 -32l-88 -211zM202 -235c-29 -3 -94 17 -138 30l-22 76l6 7c41 -3 89 -6 112 -4c86 8 142 78 169 131h-131c-73 0 -118 33 -117 106c0 7 1 14 1 21c16 149 68 231 157 231c75 0 110 -40 134 -79c16 -28 31 -73 39 -122
c2 -12 3 -25 5 -38h46c13 0 23 -27 23 -61c0 -35 -10 -63 -23 -63h-53c-29 -132 -131 -226 -208 -235zM218 114c39 0 80 0 117 1c-9 56 -26 110 -40 139c-23 6 -39 9 -60 9c-44 0 -68 -16 -77 -104v-10c0 -32 20 -35 60 -35z" />
    <glyph glyph-name="uniFBD7" unicode="&#x6c7;" horiz-adv-x="466" arabic-form="isolated" 
d="M105 420l12 65l85 33c-16 30 -23 53 -23 72c0 60 43 94 95 94c59 0 100 -36 100 -94c0 -41 -24 -81 -79 -102l-186 -71zM235 590c0 -13 9 -33 22 -55c31 8 61 27 62 55c-1 19 -20 37 -46 36c-20 -1 -38 -15 -38 -36zM202 -235c-29 -3 -94 17 -138 30l-22 76l6 7
c41 -3 89 -6 112 -4c95 8 154 93 176 147c-50 -12 -99 -16 -138 -16c-72 0 -117 33 -117 106c0 7 1 14 1 21c16 149 68 231 157 231c77 0 113 -41 136 -82c26 -45 44 -128 44 -205c0 -168 -123 -301 -217 -311zM218 114c39 0 79 2 116 7c-10 54 -26 105 -39 133
c-23 6 -39 9 -60 9c-44 0 -68 -16 -77 -104v-9c-1 -33 19 -36 60 -36z" />
    <glyph glyph-name="uniFBD8" unicode="&#x6c7;" horiz-adv-x="463" arabic-form="final" 
d="M105 420l12 65l85 33c-16 30 -23 53 -23 72c0 60 43 94 95 94c59 0 100 -36 100 -94c0 -41 -24 -81 -79 -102l-186 -71zM235 590c0 -13 9 -33 22 -55c31 8 61 27 62 55c-1 19 -20 37 -46 36c-20 -1 -38 -15 -38 -36zM202 -235c-29 -3 -94 17 -138 30l-22 76l6 7
c41 -3 89 -6 112 -4c86 8 142 78 169 131h-131c-73 0 -118 33 -117 106c0 7 1 14 1 21c16 149 68 231 157 231c75 0 110 -40 134 -79c16 -28 31 -73 39 -122c2 -12 3 -25 5 -38h46c13 0 23 -27 23 -61c0 -35 -10 -63 -23 -63h-53c-29 -132 -131 -226 -208 -235zM218 114
c39 0 80 0 117 1c-9 56 -26 110 -40 139c-23 6 -39 9 -60 9c-44 0 -68 -16 -77 -104v-10c0 -32 20 -35 60 -35z" />
    <glyph glyph-name="uniFBDB" unicode="&#x6c8;" horiz-adv-x="466" arabic-form="isolated" 
d="M216 431l-5 178l58 11v-122c0 -25 -3 -54 -6 -66zM202 -235c-29 -3 -94 17 -138 30l-22 76l6 7c41 -3 89 -6 112 -4c95 8 154 93 176 147c-50 -12 -99 -16 -138 -16c-72 0 -117 33 -117 106c0 7 1 14 1 21c16 149 68 231 157 231c77 0 113 -41 136 -82
c26 -45 44 -128 44 -205c0 -168 -123 -301 -217 -311zM218 114c39 0 79 2 116 7c-10 54 -26 105 -39 133c-23 6 -39 9 -60 9c-44 0 -68 -16 -77 -104v-9c-1 -33 19 -36 60 -36z" />
    <glyph glyph-name="uniFBDC" unicode="&#x6c8;" horiz-adv-x="463" arabic-form="final" 
d="M216 431l-5 178l58 11v-122c0 -25 -3 -54 -6 -66zM202 -235c-29 -3 -94 17 -138 30l-22 76l6 7c41 -3 89 -6 112 -4c86 8 142 78 169 131h-131c-73 0 -118 33 -117 106c0 7 1 14 1 21c16 149 68 231 157 231c75 0 110 -40 134 -79c16 -28 31 -73 39 -122
c2 -12 3 -25 5 -38h46c13 0 23 -27 23 -61c0 -35 -10 -63 -23 -63h-53c-29 -132 -131 -226 -208 -235zM218 114c39 0 80 0 117 1c-9 56 -26 110 -40 139c-23 6 -39 9 -60 9c-44 0 -68 -16 -77 -104v-10c0 -32 20 -35 60 -35z" />
    <glyph glyph-name="uniFBE2" unicode="&#x6c9;" horiz-adv-x="466" arabic-form="isolated" 
d="M220 692l38 -21l88 -211l-39 -31l-70 177l-65 -177l-41 31zM202 -235c-29 -3 -94 17 -138 30l-22 76l6 7c41 -3 89 -6 112 -4c95 8 154 93 176 147c-50 -12 -99 -16 -138 -16c-72 0 -117 33 -117 106c0 7 1 14 1 21c16 149 68 231 157 231c77 0 113 -41 136 -82
c26 -45 44 -128 44 -205c0 -168 -123 -301 -217 -311zM218 114c39 0 79 2 116 7c-10 54 -26 105 -39 133c-23 6 -39 9 -60 9c-44 0 -68 -16 -77 -104v-9c-1 -33 19 -36 60 -36z" />
    <glyph glyph-name="uniFBE3" unicode="&#x6c9;" horiz-adv-x="463" arabic-form="final" 
d="M195 692l38 -21l87 -211l-38 -31l-70 177l-66 -177l-41 31zM202 -235c-29 -3 -94 17 -138 30l-22 76l6 7c41 -3 89 -6 112 -4c86 8 142 78 169 131h-131c-73 0 -118 33 -117 106c0 7 1 14 1 21c16 149 68 231 157 231c75 0 110 -40 134 -79c16 -28 31 -73 39 -122
c2 -12 3 -25 5 -38h46c13 0 23 -27 23 -61c0 -35 -10 -63 -23 -63h-53c-29 -132 -131 -226 -208 -235zM218 114c39 0 80 0 117 1c-9 56 -26 110 -40 139c-23 6 -39 9 -60 9c-44 0 -68 -16 -77 -104v-10c0 -32 20 -35 60 -35z" />
    <glyph glyph-name="uniFBDE" unicode="&#x6cb;" horiz-adv-x="466" arabic-form="isolated" 
d="M192 516l-84 38v14l33 70l84 -40v-13zM293 403l-86 39v14l33 73l87 -41v-14zM143 395l-86 39v14l34 73l86 -41v-14zM202 -235c-29 -3 -94 17 -138 30l-22 76l6 7c41 -3 89 -6 112 -4c95 8 154 93 176 147c-50 -12 -99 -16 -138 -16c-72 0 -117 33 -117 106c0 7 1 14 1 21
c16 149 68 231 157 231c77 0 113 -41 136 -82c26 -45 44 -128 44 -205c0 -168 -123 -301 -217 -311zM218 114c39 0 79 2 116 7c-10 54 -26 105 -39 133c-23 6 -39 9 -60 9c-44 0 -68 -16 -77 -104v-9c-1 -33 19 -36 60 -36z" />
    <glyph glyph-name="uniFBDF" unicode="&#x6cb;" horiz-adv-x="463" arabic-form="final" 
d="M192 516l-84 38v14l33 70l84 -40v-13zM293 403l-86 39v14l33 73l87 -41v-14zM143 395l-86 39v14l34 73l86 -41v-14zM202 -235c-29 -3 -94 17 -138 30l-22 76l6 7c41 -3 89 -6 112 -4c86 8 142 78 169 131h-131c-73 0 -118 33 -117 106c0 7 1 14 1 21
c16 149 68 231 157 231c75 0 110 -40 134 -79c16 -28 31 -73 39 -122c2 -12 3 -25 5 -38h46c13 0 23 -27 23 -61c0 -35 -10 -63 -23 -63h-53c-29 -132 -131 -226 -208 -235zM218 114c39 0 80 0 117 1c-9 56 -26 110 -40 139c-23 6 -39 9 -60 9c-44 0 -68 -16 -77 -104v-10
c0 -32 20 -35 60 -35z" />
    <glyph glyph-name="uniFEF0" unicode="&#x649;" horiz-adv-x="636" arabic-form="final" 
d="M261 -210c-139 0 -221 59 -208 202c5 65 23 145 38 209l59 -4l7 -10c-9 -44 -24 -111 -30 -157c-13 -103 47 -121 152 -121c94 0 180 27 229 49l-191 69l-3 10l32 87h290c13 0 23 -27 23 -61c0 -35 -10 -63 -23 -63h-58c-30 0 -68 14 -91 22l2 -1c25 -8 51 -23 65 -32
c51 -37 23 -98 -20 -128c-49 -34 -147 -71 -273 -71z" />
    <glyph glyph-name="uniFC5D" unicode="&#xfc5d;" horiz-adv-x="662" arabic-form="isolated" 
d="M148 278l-5 178l58 11v-122c0 -25 -3 -54 -6 -66zM258 -193c-132 0 -221 54 -210 199c5 65 23 146 39 212l59 -4l6 -10c-9 -44 -25 -115 -30 -159c-12 -100 50 -118 155 -118c123 0 220 42 264 63c2 29 -8 35 -60 36h-41c-108 0 -168 25 -167 97c0 9 1 18 3 29
c18 91 123 267 204 267c31 -3 64 -26 101 -56l-17 -75l-10 -5c-38 21 -65 33 -82 32c-40 0 -105 -95 -129 -158c22 -22 49 -27 144 -27c108 0 128 -46 128 -101c0 -49 -22 -109 -63 -141c-50 -39 -163 -81 -294 -81z" />
    <glyph glyph-name="uniFC90" unicode="&#xfc90;" horiz-adv-x="636" arabic-form="final" 
d="M206 257l-6 178l59 10v-121c0 -25 -3 -54 -6 -66zM261 -210c-139 0 -221 59 -208 202c5 65 23 145 38 209l59 -4l7 -10c-9 -44 -24 -111 -30 -157c-13 -103 47 -121 152 -121c94 0 180 27 229 49l-191 69l-3 10l32 87h290c13 0 23 -27 23 -61c0 -35 -10 -63 -23 -63h-58
c-30 0 -68 14 -91 22l2 -1c25 -8 51 -23 65 -32c51 -37 23 -98 -20 -128c-49 -34 -147 -71 -273 -71z" />
    <glyph glyph-name="uniFEF1" unicode="&#x64a;" horiz-adv-x="662" arabic-form="isolated" 
d="M258 -193c-132 0 -221 54 -210 199c5 65 23 146 39 212l59 -4l6 -10c-9 -44 -25 -115 -30 -159c-12 -100 50 -118 155 -118c123 0 220 42 264 63c2 29 -8 35 -60 36h-41c-108 0 -168 25 -167 97c0 9 1 18 3 29c18 91 123 267 204 267c31 -3 64 -26 101 -56l-17 -75
l-10 -5c-38 21 -65 33 -82 32c-40 0 -105 -95 -129 -158c22 -22 49 -27 144 -27c108 0 128 -46 128 -101c0 -49 -22 -109 -63 -141c-50 -39 -163 -81 -294 -81zM399 -371l-86 39v14l34 73l86 -41v-13zM256 -379l-86 39v14l34 73l86 -41v-13z" />
    <glyph glyph-name="uniFEF2" unicode="&#x64a;" horiz-adv-x="636" arabic-form="final" 
d="M261 -210c-139 0 -221 59 -208 202c5 65 23 145 38 209l59 -4l7 -10c-9 -44 -24 -111 -30 -157c-13 -103 47 -121 152 -121c94 0 180 27 229 49l-191 69l-3 10l32 87h290c13 0 23 -27 23 -61c0 -35 -10 -63 -23 -63h-58c-30 0 -68 14 -91 22l2 -1c25 -8 51 -23 65 -32
c51 -37 23 -98 -20 -128c-49 -34 -147 -71 -273 -71zM374 -379l-86 39v14l33 73l87 -41v-14zM231 -387l-86 39v14l33 73l87 -41v-14z" />
    <glyph glyph-name="uniFEF4" unicode="&#x64a;" horiz-adv-x="369" arabic-form="medial" 
d="M0 0c-13 0 -23 28 -23 63c0 34 10 61 23 61h64c69 0 104 10 113 56l21 109l10 7l65 -17l-14 -89c-5 -34 20 -66 75 -66h35c13 0 23 -27 23 -61c0 -35 -10 -63 -23 -63h-39c-62 0 -102 25 -122 65c-35 -50 -82 -65 -147 -65h-61zM263 -218l-86 39v15l34 72l86 -41v-13z
M120 -226l-86 39v15l34 72l86 -41v-13z" />
    <glyph glyph-name="uniFEF3" unicode="&#x64a;" horiz-adv-x="328" arabic-form="initial" 
d="M0 0c-13 0 -23 28 -23 63c0 34 10 61 23 61c80 0 150 9 192 34l-26 170l84 53l9 -5c14 -102 22 -159 22 -199c0 -62 -21 -103 -59 -130c-57 -40 -143 -47 -222 -47zM219 -218l-86 39v15l34 72l86 -41v-13zM76 -226l-86 39v15l34 72l86 -41v-13z" />
    <glyph glyph-name="uniFE89" unicode="&#x626;" horiz-adv-x="662" arabic-form="isolated" 
d="M60 279l12 64l38 15c-21 15 -35 44 -35 72c0 55 44 96 100 102c10 1 19 0 29 -2c12 -1 24 -4 36 -6v-62l-25 3c-14 2 -26 3 -36 3c-26 0 -42 -3 -52 -8c-1 -7 -1 -14 -1 -20c0 -28 19 -45 44 -45c11 0 23 1 34 5l79 22l4 -4l-12 -64l-24 -9c-64 -23 -127 -47 -188 -69z
M258 -193c-132 0 -221 54 -210 199c5 65 23 146 39 212l59 -4l6 -10c-9 -44 -25 -115 -30 -159c-12 -100 50 -118 155 -118c123 0 220 42 264 63c2 29 -8 35 -60 36h-41c-108 0 -168 25 -167 97c0 9 1 18 3 29c18 91 123 267 204 267c31 -3 64 -26 101 -56l-17 -75l-10 -5
c-38 21 -65 33 -82 32c-40 0 -105 -95 -129 -158c22 -22 49 -27 144 -27c108 0 128 -46 128 -101c0 -49 -22 -109 -63 -141c-50 -39 -163 -81 -294 -81z" />
    <glyph glyph-name="uniFE8A" unicode="&#x626;" horiz-adv-x="636" arabic-form="final" 
d="M124 257l12 64l38 15c-21 16 -35 44 -35 72c0 56 44 97 100 102c10 1 19 0 29 -1l36 -6v-62l-25 3c-14 2 -26 3 -36 3c-26 0 -42 -4 -52 -8c-1 -8 -1 -14 -1 -20c0 -29 19 -45 44 -45c11 0 23 1 34 4l79 22l4 -3l-12 -65l-24 -8l-188 -70zM261 -210
c-139 0 -221 59 -208 202c5 65 23 145 38 209l59 -4l7 -10c-9 -44 -24 -111 -30 -157c-13 -103 47 -121 152 -121c94 0 180 27 229 49l-191 69l-3 10l32 87h290c13 0 23 -27 23 -61c0 -35 -10 -63 -23 -63h-58c-30 0 -68 14 -91 22l2 -1c25 -8 51 -23 65 -32
c51 -37 23 -98 -20 -128c-49 -34 -147 -71 -273 -71z" />
    <glyph glyph-name="uniFE8C" unicode="&#x626;" horiz-adv-x="369" arabic-form="medial" 
d="M126 379l13 64l38 15c-22 15 -35 44 -35 72c0 55 43 96 100 102c10 1 19 0 29 -2c12 -1 24 -4 35 -6l1 -62c-8 2 -17 3 -25 4c-14 1 -27 2 -37 2c-26 0 -42 -3 -52 -8c-1 -7 -1 -14 -1 -19c1 -29 19 -46 44 -46c11 0 23 1 35 5l79 22l3 -3l-12 -65l-23 -9
c-64 -23 -127 -47 -188 -69zM0 0c-13 0 -23 28 -23 63c0 34 10 61 23 61h64c69 0 104 10 113 56l21 109l10 7l65 -17l-14 -89c-5 -34 20 -66 75 -66h35c13 0 23 -27 23 -61c0 -35 -10 -63 -23 -63h-39c-62 0 -102 25 -122 65c-35 -50 -82 -65 -147 -65h-61z" />
    <glyph glyph-name="uniFE8B" unicode="&#x626;" horiz-adv-x="328" arabic-form="initial" 
d="M54 406l12 64l38 15c-21 15 -35 44 -35 72c0 55 44 96 100 102c10 1 19 0 29 -2c12 -1 24 -4 36 -6v-62c-8 2 -17 3 -25 4c-14 1 -26 2 -36 2c-26 0 -42 -3 -52 -8c-1 -7 -1 -14 -1 -19c0 -29 19 -46 44 -46c11 0 23 1 34 5l79 22l4 -3l-12 -65l-24 -9
c-64 -23 -127 -47 -188 -69zM0 0c-13 0 -23 28 -23 63c0 34 10 61 23 61c80 0 150 9 192 34l-26 170l84 53l9 -5c14 -102 22 -159 22 -199c0 -62 -21 -103 -59 -130c-57 -40 -143 -47 -222 -47z" />
    <glyph glyph-name="uni06CE.init" unicode="&#x6ce;" horiz-adv-x="328" 
d="M146 403l-89 232l41 32l65 -178l70 178l39 -32l-88 -211zM0 0c-13 0 -23 28 -23 63c0 34 10 61 23 61c80 0 150 9 192 34l-26 170l84 53l9 -5c14 -102 22 -159 22 -199c0 -62 -21 -103 -59 -130c-57 -40 -143 -47 -222 -47zM219 -218l-86 39v15l34 72l86 -41v-13z
M76 -226l-86 39v15l34 72l86 -41v-13z" />
    <glyph glyph-name="uni06CE.medi" unicode="&#x6ce;" horiz-adv-x="369" 
d="M221 377l-89 232l41 32l65 -178l70 178l39 -32l-87 -211zM0 0c-13 0 -23 28 -23 63c0 34 10 61 23 61h64c69 0 104 10 113 56l21 109l10 7l65 -17l-14 -89c-5 -34 20 -66 75 -66h35c13 0 23 -27 23 -61c0 -35 -10 -63 -23 -63h-39c-62 0 -102 25 -122 65
c-35 -50 -82 -65 -147 -65h-61zM263 -218l-86 39v15l34 72l86 -41v-13zM120 -226l-86 39v15l34 72l86 -41v-13z" />
    <glyph glyph-name="uni06CE.fina" unicode="&#x6ce;" horiz-adv-x="636" 
d="M212 254l-89 232l41 32l65 -178l70 178l39 -32l-88 -211zM261 -210c-139 0 -221 59 -208 202c5 65 23 145 38 209l59 -4l7 -10c-9 -44 -24 -111 -30 -157c-13 -103 47 -121 152 -121c94 0 180 27 229 49l-191 69l-3 10l32 87h290c13 0 23 -27 23 -61
c0 -35 -10 -63 -23 -63h-58c-30 0 -68 14 -91 22l2 -1c25 -8 51 -23 65 -32c51 -37 23 -98 -20 -128c-49 -34 -147 -71 -273 -71z" />
    <glyph glyph-name="uniFBFD" unicode="&#x6cc;" horiz-adv-x="636" arabic-form="final" 
d="M261 -210c-139 0 -221 59 -208 202c5 65 23 145 38 209l59 -4l7 -10c-9 -44 -24 -111 -30 -157c-13 -103 47 -121 152 -121c94 0 180 27 229 49l-191 69l-3 10l32 87h290c13 0 23 -27 23 -61c0 -35 -10 -63 -23 -63h-58c-30 0 -68 14 -91 22l2 -1c25 -8 51 -23 65 -32
c51 -37 23 -98 -20 -128c-49 -34 -147 -71 -273 -71z" />
    <glyph glyph-name="uniFBFF" unicode="&#x6cc;" horiz-adv-x="369" arabic-form="medial" 
d="M0 0c-13 0 -23 28 -23 63c0 34 10 61 23 61h64c69 0 104 10 113 56l21 109l10 7l65 -17l-14 -89c-5 -34 20 -66 75 -66h35c13 0 23 -27 23 -61c0 -35 -10 -63 -23 -63h-39c-62 0 -102 25 -122 65c-35 -50 -82 -65 -147 -65h-61zM263 -218l-86 39v15l34 72l86 -41v-13z
M120 -226l-86 39v15l34 72l86 -41v-13z" />
    <glyph glyph-name="uniFBFE" unicode="&#x6cc;" horiz-adv-x="328" arabic-form="initial" 
d="M0 0c-13 0 -23 28 -23 63c0 34 10 61 23 61c80 0 150 9 192 34l-26 170l84 53l9 -5c14 -102 22 -159 22 -199c0 -62 -21 -103 -59 -130c-57 -40 -143 -47 -222 -47zM219 -218l-86 39v15l34 72l86 -41v-13zM76 -226l-86 39v15l34 72l86 -41v-13z" />
    <glyph glyph-name="uni06CD.fina" unicode="&#x6cd;" horiz-adv-x="729" 
d="M354 -210c-138 0 -220 59 -208 202c4 42 13 91 23 135l-115 -26l-7 12l16 76l187 42l7 -12c-29 -142 -32 -155 -37 -189c-13 -103 48 -121 152 -121c95 0 180 27 229 49l-190 69l-4 10l33 87h289c13 0 23 -27 23 -61c0 -35 -10 -63 -23 -63h-57c-30 0 -68 14 -91 22l2 -1
c25 -8 51 -23 65 -32c50 -37 23 -98 -20 -128c-49 -34 -147 -71 -274 -71z" />
    <glyph glyph-name="uniFBE4" unicode="&#x6d0;" horiz-adv-x="662" arabic-form="isolated" 
d="M258 -193c-132 0 -221 54 -210 199c5 65 23 146 39 212l59 -4l6 -10c-9 -44 -25 -115 -30 -159c-12 -100 50 -118 155 -118c123 0 220 42 264 63c2 29 -8 35 -60 36h-41c-108 0 -168 25 -167 97c0 9 1 18 3 29c18 91 123 267 204 267c31 -3 64 -26 101 -56l-17 -75
l-10 -5c-38 21 -65 33 -82 32c-40 0 -105 -95 -129 -158c22 -22 49 -27 144 -27c108 0 128 -46 128 -101c0 -49 -22 -109 -63 -141c-50 -39 -163 -81 -294 -81zM281 -394l-85 38v14l33 72l85 -41v-13zM281 -526l-85 39v14l33 72l85 -41v-13z" />
    <glyph glyph-name="uniFBE5" unicode="&#x6d0;" horiz-adv-x="636" arabic-form="final" 
d="M261 -210c-139 0 -221 59 -208 202c5 65 23 145 38 209l59 -4l7 -10c-9 -44 -24 -111 -30 -157c-13 -103 47 -121 152 -121c94 0 180 27 229 49l-191 69l-3 10l32 87h290c13 0 23 -27 23 -61c0 -35 -10 -63 -23 -63h-58c-30 0 -68 14 -91 22l2 -1c25 -8 51 -23 65 -32
c51 -37 23 -98 -20 -128c-49 -34 -147 -71 -273 -71zM302 -410l-85 39v14l33 72l85 -41v-13zM302 -541l-85 39v14l33 71l85 -40v-13z" />
    <glyph glyph-name="uniFBE7" unicode="&#x6d0;" horiz-adv-x="369" arabic-form="medial" 
d="M0 0c-13 0 -23 28 -23 63c0 34 10 61 23 61h64c69 0 104 10 113 56l21 109l10 7l65 -17l-14 -89c-5 -34 20 -66 75 -66h35c13 0 23 -27 23 -61c0 -35 -10 -63 -23 -63h-39c-62 0 -102 25 -122 65c-35 -50 -82 -65 -147 -65h-61zM209 -188l-86 39v14l34 73l86 -41v-13z
M209 -321l-86 39v15l34 72l86 -41v-13z" />
    <glyph glyph-name="uniFBE6" unicode="&#x6d0;" horiz-adv-x="328" arabic-form="initial" 
d="M0 0c-13 0 -23 28 -23 63c0 34 10 61 23 61c80 0 150 9 192 34l-26 170l84 53l9 -5c14 -102 22 -159 22 -199c0 -62 -21 -103 -59 -130c-57 -40 -143 -47 -222 -47zM180 -193l-86 39v14l34 73l86 -41v-13zM180 -326l-86 39v15l34 72l86 -41v-13z" />
    <glyph glyph-name="uni06D1.init" unicode="&#x6d1;" horiz-adv-x="328" 
d="M0 0c-13 0 -23 28 -23 63c0 34 10 61 23 61c80 0 150 9 192 34l-26 170l84 53l9 -5c14 -102 22 -159 22 -199c0 -62 -21 -103 -59 -130c-57 -40 -143 -47 -222 -47zM248 -214l-87 39v15l34 72l86 -41v-13zM96 -222l-86 39v15l34 72l86 -41v-13zM196 -330l-84 38v14l33 71
l84 -40v-13z" />
    <glyph glyph-name="uni06D1.medi" unicode="&#x6d1;" horiz-adv-x="369" 
d="M0 0c-13 0 -23 28 -23 63c0 34 10 61 23 61h64c69 0 104 10 113 56l21 109l10 7l65 -17l-14 -89c-5 -34 20 -66 75 -66h35c13 0 23 -27 23 -61c0 -35 -10 -63 -23 -63h-39c-62 0 -102 25 -122 65c-35 -50 -82 -65 -147 -65h-61zM271 -214l-87 39v14l34 73l86 -41v-14z
M119 -222l-86 39v14l34 73l86 -41v-14zM219 -331l-85 39v14l34 71l84 -41v-13z" />
    <glyph glyph-name="uni06D1.fina" unicode="&#x6d1;" horiz-adv-x="636" 
d="M261 -210c-139 0 -221 59 -208 202c5 65 23 145 38 209l59 -4l7 -10c-9 -44 -24 -111 -30 -157c-13 -103 47 -121 152 -121c94 0 180 27 229 49l-191 69l-3 10l32 87h290c13 0 23 -27 23 -61c0 -35 -10 -63 -23 -63h-58c-30 0 -68 14 -91 22l2 -1c25 -8 51 -23 65 -32
c51 -37 23 -98 -20 -128c-49 -34 -147 -71 -273 -71zM376 -383l-86 39v15l33 72l87 -41v-13zM225 -391l-87 39v15l34 72l86 -41v-13zM325 -500l-85 39v14l33 72l85 -41v-13z" />
    <glyph glyph-name="uniFBAF" unicode="&#x6d2;" horiz-adv-x="375" arabic-form="final" 
d="M219 -221c-133 0 -174 64 -172 142c2 80 54 203 259 203h69c13 0 23 -27 23 -61c0 -35 -10 -63 -23 -63h-66c-98 0 -145 -9 -188 -19c-6 -61 27 -85 116 -85h440l6 -10l-20 -107h-444z" />
    <glyph glyph-name="uniFBB0" unicode="&#x6d3;" horiz-adv-x="706" arabic-form="isolated" 
d="M173 476l13 64l38 15c-22 15 -35 43 -35 72c0 55 43 96 100 102c10 1 19 0 29 -2c12 -1 24 -4 36 -6v-62l-25 3c-14 2 -27 3 -36 3c-26 0 -42 -3 -53 -8c-1 -7 -1 -14 -1 -20c1 -28 20 -45 45 -45c10 0 22 1 34 5l79 22l4 -4l-13 -64l-23 -9c-64 -23 -127 -47 -188 -70z
M47 133c2 64 38 103 97 154c121 106 110 157 162 157c41 0 68 -29 131 -73l-19 -85l-8 -3c-46 24 -91 47 -114 49c-19 -29 -25 -47 -94 -107c-51 -45 -72 -58 -79 -72c8 -21 36 -36 123 -36h441l6 -10l-21 -107h-443c-143 0 -184 63 -182 133z" />
    <glyph glyph-name="uniFBB1" unicode="&#x6d3;" horiz-adv-x="358" arabic-form="final" 
d="M4 126l12 64l38 15c-21 15 -34 44 -34 72c0 55 43 96 99 102c10 1 20 0 30 -2c11 -1 23 -4 35 -6v-62l-25 3c-14 2 -26 3 -36 3c-26 0 -42 -3 -52 -8c-1 -7 -1 -14 -1 -20c0 -28 19 -45 44 -45c11 0 23 1 35 5l79 22l3 -4l-12 -64l-23 -9c-65 -23 -128 -47 -188 -69z
M219 -221c-133 0 -174 64 -172 142c2 80 54 203 259 203h69c13 0 23 -27 23 -61c0 -35 -10 -63 -23 -63h-66c-98 0 -145 -9 -188 -19c-6 -61 27 -85 116 -85h440l6 -10l-20 -107h-444z" />
    <glyph glyph-name="uniFBDD" unicode="&#x677;" horiz-adv-x="463" arabic-form="isolated" 
d="M242 401l11 64l86 34c-17 30 -23 53 -23 72c0 59 43 94 95 94c58 0 100 -36 100 -94c0 -42 -24 -81 -80 -103l-186 -71zM54 400l12 64l38 15c-21 15 -34 44 -34 72c0 55 43 96 99 102c10 1 20 0 30 -2c11 -1 23 -4 35 -6v-62c-8 2 -17 3 -25 4c-14 1 -26 2 -36 2
c-26 0 -42 -3 -52 -8c-1 -7 -1 -14 -1 -19c0 -29 19 -46 44 -46c11 0 23 1 35 5l79 22l3 -3l-12 -65l-23 -9c-65 -23 -128 -47 -188 -69zM372 570c0 -12 9 -33 21 -55c31 9 62 27 62 55c0 20 -19 38 -46 37c-20 -1 -37 -15 -37 -37zM202 -235c-29 -3 -94 17 -138 30l-22 76
l6 7c41 -3 89 -6 112 -4c86 8 142 78 169 131h-131c-73 0 -118 33 -117 106c0 7 1 14 1 21c16 149 68 231 157 231c75 0 110 -40 134 -79c16 -28 31 -73 39 -122c2 -12 3 -25 5 -38h46c13 0 23 -27 23 -61c0 -35 -10 -63 -23 -63h-53c-29 -132 -131 -226 -208 -235zM218 114
c39 0 80 0 117 1c-9 56 -26 110 -40 139c-23 6 -39 9 -60 9c-44 0 -68 -16 -77 -104v-10c0 -32 20 -35 60 -35z" />
    <glyph glyph-name="uni06D5.fina" unicode="&#x6d5;" horiz-adv-x="492" 
d="M458 0c-67 0 -114 26 -140 95l-26 -58c-29 -4 -58 -5 -85 -5c-100 0 -160 36 -160 116c0 76 39 146 156 202l94 45v68l88 25v-289c0 -49 22 -75 75 -75h32c13 0 23 -27 23 -61c0 -35 -10 -63 -23 -63h-34zM239 146h58v151l-53 -24l-120 -54c-1 -8 -2 -16 -2 -22
c0 -43 30 -51 117 -51z" />
    <glyph glyph-name="uniFDF1" unicode="&#xfdf1;" horiz-adv-x="914" arabic-form="isolated" 
d="M768 618l-86 39v15l34 72l86 -41v-13zM625 610l-86 39v15l34 72l86 -41v-13zM263 -222c-153 0 -216 65 -216 156c-1 129 101 204 198 250c15 8 29 16 42 24c15 8 17 15 17 27l-4 419l86 22v-461c0 -71 24 -91 94 -91h53c103 0 186 5 243 30c2 20 3 41 4 61
c-51 -11 -95 -14 -139 -14c-67 0 -110 32 -111 99c0 7 1 13 2 20c14 149 68 230 158 230c73 0 108 -39 131 -77c26 -43 44 -125 46 -201c2 -83 -19 -178 -56 -211c-55 -48 -166 -60 -265 -61h-66c-103 0 -154 40 -168 117l-19 -34c-64 -36 -141 -67 -176 -99
c-6 -64 32 -88 157 -88h559l6 -10l-20 -107zM666 305c38 0 75 2 110 7c-6 51 -21 105 -33 133c-20 6 -34 9 -59 9c-45 0 -69 -17 -77 -105c0 -3 -1 -6 -1 -10c0 -31 20 -34 60 -34z" />
    <glyph glyph-name="uniFC6A" unicode="&#xfc6a;" horiz-adv-x="691" arabic-form="final" 
d="M-67 -129l5 7c30 -3 75 -6 98 -4c99 8 150 91 169 139c-6 47 -17 120 -42 258l76 48l11 -7c8 -43 14 -79 19 -110c26 -2 56 -2 105 -2c55 0 97 4 126 25v94l75 21l13 -9v-124c0 -57 22 -83 75 -83h28c13 0 24 -27 24 -61c0 -35 -11 -63 -24 -63h-33
c-71 0 -145 43 -150 134c-12 -41 -61 -55 -125 -55c-33 0 -65 0 -100 3c0 -18 1 -34 0 -49c-4 -145 -117 -258 -205 -268c-29 -3 -95 17 -123 30zM453 -231l-94 43v16l36 79l95 -45v-14z" />
    <glyph glyph-name="uniFC6B" unicode="&#xfc6b;" horiz-adv-x="691" arabic-form="final" 
d="M202 380l-94 43v16l37 79l94 -45v-14zM-67 -129l5 7c30 -3 75 -6 98 -4c99 8 150 91 169 139c-6 47 -17 120 -42 258l76 48l11 -7c8 -43 14 -79 19 -110c26 -2 56 -2 105 -2c55 0 97 4 126 25v94l75 21l13 -9v-124c0 -57 22 -83 75 -83h28c13 0 24 -27 24 -61
c0 -35 -11 -63 -24 -63h-33c-71 0 -145 43 -150 134c-12 -41 -61 -55 -125 -55c-33 0 -65 0 -100 3c0 -18 1 -34 0 -49c-4 -145 -117 -258 -205 -268c-29 -3 -95 17 -123 30zM453 -231l-94 43v16l36 79l95 -45v-14z" />
    <glyph glyph-name="uniFCE1" unicode="&#xfce1;" horiz-adv-x="624" arabic-form="medial" 
d="M326 -122c-25 24 -50 50 -76 74c-46 46 -74 48 -115 48h-135c-13 0 -23 28 -23 63c0 34 10 61 23 61h118c21 0 38 -1 55 -5c1 2 1 4 1 5c0 3 0 7 1 12s3 10 5 15c23 62 95 160 150 160c32 0 47 -17 110 -79c89 -87 113 -108 184 -108c13 0 23 -27 23 -61
c0 -35 -10 -63 -23 -63c-104 0 -147 48 -220 118c-49 48 -74 74 -88 74c-20 0 -64 -57 -74 -83c10 -18 42 -46 68 -73c29 -27 59 -56 87 -83l-59 -75h-12zM538 -240l-95 43v16l37 79l95 -45v-14z" />
    <glyph glyph-name="uniFC6D" unicode="&#xfc6d;" horiz-adv-x="1027" arabic-form="final" 
d="M272 -193c-133 0 -237 80 -224 228c6 72 24 136 40 197l59 -4l6 -10c-10 -40 -23 -92 -30 -143c-13 -100 61 -144 169 -144c117 0 208 39 252 64c-10 76 -24 158 -44 274l73 47l13 -5c6 -40 12 -76 18 -109c26 -2 56 -2 105 -2c55 0 97 4 126 25v94l75 21l13 -9v-124
c0 -57 22 -83 75 -83h29c12 0 23 -27 23 -61c0 -35 -11 -63 -23 -63h-34c-71 0 -145 43 -150 134c-12 -41 -61 -55 -125 -55c-33 0 -65 0 -98 3c3 -32 4 -57 4 -76c-1 -28 -7 -74 -48 -107c-59 -49 -165 -92 -304 -92zM347 120l-95 43v16l37 79l95 -45v-14zM798 -212l-94 42
v16l36 79l95 -44v-15z" />
    <glyph glyph-name="uniFCE2" unicode="&#xfce2;" horiz-adv-x="780" arabic-form="medial" 
d="M-23 63c0 34 10 61 23 61h104c20 95 39 169 68 268l83 57l69 -74c77 -84 81 -125 81 -164c0 -28 -2 -57 -19 -84c-38 -59 -96 -101 -209 -118c9 -57 45 -104 90 -148l65 111c67 115 115 185 181 282h79c46 -86 74 -130 159 -130h29c13 0 24 -27 24 -61
c0 -35 -11 -63 -24 -63h-29c-99 0 -155 52 -209 139c-46 -65 -116 -172 -150 -231l-84 -145h-89c-81 83 -122 163 -126 238l-93 -1c-13 0 -23 28 -23 63zM180 124c95 7 138 42 153 70c0 23 -39 75 -95 136c-26 -79 -42 -130 -58 -206zM601 -228l-95 42v16l37 79l95 -44v-15z
" />
    <glyph glyph-name="uniFC09" unicode="&#xfc09;" horiz-adv-x="638" arabic-form="isolated" 
d="M48 -15c6 64 24 144 39 208l59 -4l6 -10c-9 -44 -24 -110 -30 -157c-13 -101 48 -119 154 -119c95 0 176 27 223 48l-182 70l-4 10l34 88c56 3 103 14 134 32c-9 57 -18 114 -26 171l84 53l9 -5c14 -103 22 -162 22 -203c0 -20 -3 -38 -9 -54c-14 -39 -45 -64 -83 -80
c31 -13 63 -27 78 -42c53 -32 30 -100 -9 -130c-46 -37 -150 -79 -289 -79c-140 0 -222 60 -210 203zM551 -352l-94 42v16l37 79l94 -44v-15z" />
    <glyph glyph-name="uniFC6E" unicode="&#xfc6e;" horiz-adv-x="828" arabic-form="final" 
d="M258 -284c-132 0 -221 54 -210 199c5 65 23 146 39 212l59 -4l6 -10c-9 -44 -24 -111 -30 -154c-1 -10 -2 -20 -2 -28c1 -79 60 -95 157 -95c122 0 219 42 264 63c2 28 -8 32 -57 33h-43c-120 0 -180 29 -167 117c16 117 132 273 217 273c35 0 47 -16 111 -82
c17 -17 31 -32 45 -45c57 -55 85 -70 153 -71h28c12 0 23 -27 23 -61c0 -35 -11 -63 -23 -63h-30c-80 2 -127 29 -175 73c-22 19 -43 41 -66 64c-46 46 -67 74 -89 74c-46 0 -112 -113 -127 -153c22 -23 50 -27 142 -27c110 0 130 -45 130 -94c0 -47 -20 -108 -61 -140
c-50 -39 -163 -81 -294 -81zM734 -295l-94 43v16l37 79l94 -45v-14z" />
    <glyph glyph-name="uniFC0A" unicode="&#xfc0a;" horiz-adv-x="638" arabic-form="isolated" 
d="M48 -15c6 64 24 144 39 208l59 -4l6 -10c-9 -44 -24 -110 -30 -157c-13 -101 48 -119 154 -119c95 0 176 27 223 48l-182 70l-4 10l34 88c56 3 103 14 134 32c-9 57 -18 114 -26 171l84 53l9 -5c14 -103 22 -162 22 -203c0 -20 -3 -38 -9 -54c-14 -39 -45 -64 -83 -80
c31 -13 63 -27 78 -42c53 -32 30 -100 -9 -130c-46 -37 -150 -79 -289 -79c-140 0 -222 60 -210 203zM551 -352l-94 42v16l37 79l94 -44v-15zM360 -401l-86 39v14l33 72l87 -41v-13zM217 -409l-86 39v14l33 72l87 -41v-13z" />
    <glyph glyph-name="uniFC6F" unicode="&#xfc6f;" horiz-adv-x="828" arabic-form="final" 
d="M258 -284c-132 0 -221 54 -210 199c5 65 23 146 39 212l59 -4l6 -10c-9 -44 -24 -111 -30 -154c-1 -10 -2 -20 -2 -28c1 -79 60 -95 157 -95c122 0 219 42 264 63c2 28 -8 32 -57 33h-43c-120 0 -180 29 -167 117c16 117 132 273 217 273c35 0 47 -16 111 -82
c17 -17 31 -32 45 -45c57 -55 85 -70 153 -71h28c12 0 23 -27 23 -61c0 -35 -11 -63 -23 -63h-30c-80 2 -127 29 -175 73c-22 19 -43 41 -66 64c-46 46 -67 74 -89 74c-46 0 -112 -113 -127 -153c22 -23 50 -27 142 -27c110 0 130 -45 130 -94c0 -47 -20 -108 -61 -140
c-50 -39 -163 -81 -294 -81zM734 -295l-94 43v16l37 79l94 -45v-14zM392 -462l-86 39v14l34 73l86 -41v-14zM249 -470l-86 39v14l34 73l86 -41v-14z" />
    <glyph glyph-name="uniFC70" unicode="&#xfc70;" horiz-adv-x="691" arabic-form="final" 
d="M545 446l-86 39v14l33 73l87 -41v-13zM402 438l-86 39v14l33 73l87 -41v-13zM-67 -129l5 7c30 -3 75 -6 98 -4c99 8 150 91 169 139c-6 47 -17 120 -42 258l76 48l11 -7c8 -43 14 -79 19 -110c26 -2 56 -2 105 -2c55 0 97 4 126 25v94l75 21l13 -9v-124
c0 -57 22 -83 75 -83h28c13 0 24 -27 24 -61c0 -35 -11 -63 -24 -63h-33c-71 0 -145 43 -150 134c-12 -41 -61 -55 -125 -55c-33 0 -65 0 -100 3c0 -18 1 -34 0 -49c-4 -145 -117 -258 -205 -268c-29 -3 -95 17 -123 30z" />
    <glyph glyph-name="uniFC71" unicode="&#xfc71;" horiz-adv-x="691" arabic-form="final" 
d="M545 446l-86 39v14l33 73l87 -41v-13zM402 438l-86 39v14l33 73l87 -41v-13zM199 380l-94 43v16l37 79l94 -45v-14zM-67 -129l5 7c30 -3 75 -6 98 -4c99 8 150 91 169 139c-6 47 -17 120 -42 258l76 48l11 -7c8 -43 14 -79 19 -110c26 -2 56 -2 105 -2c55 0 97 4 126 25
v94l75 21l13 -9v-124c0 -57 22 -83 75 -83h28c13 0 24 -27 24 -61c0 -35 -11 -63 -24 -63h-33c-71 0 -145 43 -150 134c-12 -41 -61 -55 -125 -55c-33 0 -65 0 -100 3c0 -18 1 -34 0 -49c-4 -145 -117 -258 -205 -268c-29 -3 -95 17 -123 30z" />
    <glyph glyph-name="uniFCE3" unicode="&#xfce3;" horiz-adv-x="624" arabic-form="medial" 
d="M398 402l-86 39v14l34 73l86 -41v-13zM255 394l-86 39v14l34 73l86 -41v-13zM326 -122c-25 24 -50 50 -76 74c-46 46 -74 48 -115 48h-135c-13 0 -23 28 -23 63c0 34 10 61 23 61h118c21 0 38 -1 55 -5c1 2 1 4 1 5c0 3 0 7 1 12s3 10 5 15c23 62 95 160 150 160
c32 0 47 -17 110 -79c89 -87 113 -108 184 -108c13 0 23 -27 23 -61c0 -35 -10 -63 -23 -63c-104 0 -147 48 -220 118c-49 48 -74 74 -88 74c-20 0 -64 -57 -74 -83c10 -18 42 -46 68 -73c29 -27 59 -56 87 -83l-59 -75h-12z" />
    <glyph glyph-name="uniFC73" unicode="&#xfc73;" horiz-adv-x="1027" arabic-form="final" 
d="M845 407l-86 39v15l34 72l86 -41v-13zM702 399l-86 39v15l34 72l86 -41v-13zM272 -193c-133 0 -237 80 -224 228c6 72 24 136 40 197l59 -4l6 -10c-10 -40 -23 -92 -30 -143c-13 -100 61 -144 169 -144c117 0 208 39 252 64c-10 76 -24 158 -44 274l73 47l13 -5
c6 -40 12 -76 18 -109c26 -2 56 -2 105 -2c55 0 97 4 126 25v94l75 21l13 -9v-124c0 -57 22 -83 75 -83h29c12 0 23 -27 23 -61c0 -35 -11 -63 -23 -63h-34c-71 0 -145 43 -150 134c-12 -41 -61 -55 -125 -55c-33 0 -65 0 -98 3c3 -32 4 -57 4 -76c-1 -28 -7 -74 -48 -107
c-59 -49 -165 -92 -304 -92zM347 120l-95 43v16l37 79l95 -45v-14z" />
    <glyph glyph-name="uniFCE4" unicode="&#xfce4;" horiz-adv-x="780" arabic-form="medial" 
d="M635 389l-86 39v14l33 73l87 -41v-13zM492 381l-86 39v14l33 73l87 -41v-13zM-23 63c0 34 10 61 23 61h104c20 95 39 169 68 268l83 57l69 -74c77 -84 81 -125 81 -164c0 -28 -2 -57 -19 -84c-38 -59 -96 -101 -209 -118c9 -57 45 -104 90 -148l65 111
c67 115 115 185 181 282h79c46 -86 74 -130 159 -130h29c13 0 24 -27 24 -61c0 -35 -11 -63 -24 -63h-29c-99 0 -155 52 -209 139c-46 -65 -116 -172 -150 -231l-84 -145h-89c-81 83 -122 163 -126 238l-93 -1c-13 0 -23 28 -23 63zM180 124c95 7 138 42 153 70
c0 23 -39 75 -95 136c-26 -79 -42 -130 -58 -206z" />
    <glyph glyph-name="uniFC0F" unicode="&#xfc0f;" horiz-adv-x="638" arabic-form="isolated" 
d="M529 431l-86 39v14l33 73l87 -41v-13zM386 423l-86 39v14l33 73l87 -41v-13zM48 -15c6 64 24 144 39 208l59 -4l6 -10c-9 -44 -24 -110 -30 -157c-13 -101 48 -119 154 -119c95 0 176 27 223 48l-182 70l-4 10l34 88c56 3 103 14 134 32c-9 57 -18 114 -26 171l84 53
l9 -5c14 -103 22 -162 22 -203c0 -20 -3 -38 -9 -54c-14 -39 -45 -64 -83 -80c31 -13 63 -27 78 -42c53 -32 30 -100 -9 -130c-46 -37 -150 -79 -289 -79c-140 0 -222 60 -210 203z" />
    <glyph glyph-name="uniFC74" unicode="&#xfc74;" horiz-adv-x="828" arabic-form="final" 
d="M534 408l-86 39v14l34 73l86 -41v-14zM391 400l-86 39v14l34 73l86 -41v-14zM258 -284c-132 0 -221 54 -210 199c5 65 23 146 39 212l59 -4l6 -10c-9 -44 -24 -111 -30 -154c-1 -10 -2 -20 -2 -28c1 -79 60 -95 157 -95c122 0 219 42 264 63c2 28 -8 32 -57 33h-43
c-120 0 -180 29 -167 117c16 117 132 273 217 273c35 0 47 -16 111 -82c17 -17 31 -32 45 -45c57 -55 85 -70 153 -71h28c12 0 23 -27 23 -61c0 -35 -11 -63 -23 -63h-30c-80 2 -127 29 -175 73c-22 19 -43 41 -66 64c-46 46 -67 74 -89 74c-46 0 -112 -113 -127 -153
c22 -23 50 -27 142 -27c110 0 130 -45 130 -94c0 -47 -20 -108 -61 -140c-50 -39 -163 -81 -294 -81z" />
    <glyph glyph-name="uniFC10" unicode="&#xfc10;" horiz-adv-x="638" arabic-form="isolated" 
d="M528 428l-86 39v14l33 73l87 -41v-14zM385 420l-86 39v14l33 73l87 -41v-14zM48 -15c6 64 24 144 39 208l59 -4l6 -10c-9 -44 -24 -110 -30 -157c-13 -101 48 -119 154 -119c95 0 176 27 223 48l-182 70l-4 10l34 88c56 3 103 14 134 32c-9 57 -18 114 -26 171l84 53
l9 -5c14 -103 22 -162 22 -203c0 -20 -3 -38 -9 -54c-14 -39 -45 -64 -83 -80c31 -13 63 -27 78 -42c53 -32 30 -100 -9 -130c-46 -37 -150 -79 -289 -79c-140 0 -222 60 -210 203zM358 -397l-86 39v15l34 72l86 -41v-13zM215 -405l-86 39v15l34 72l86 -41v-13z" />
    <glyph glyph-name="uniFC75" unicode="&#xfc75;" horiz-adv-x="828" arabic-form="final" 
d="M534 408l-86 39v14l34 73l86 -41v-14zM391 400l-86 39v14l34 73l86 -41v-14zM258 -284c-132 0 -221 54 -210 199c5 65 23 146 39 212l59 -4l6 -10c-9 -44 -24 -111 -30 -154c-1 -10 -2 -20 -2 -28c1 -79 60 -95 157 -95c122 0 219 42 264 63c2 28 -8 32 -57 33h-43
c-120 0 -180 29 -167 117c16 117 132 273 217 273c35 0 47 -16 111 -82c17 -17 31 -32 45 -45c57 -55 85 -70 153 -71h28c12 0 23 -27 23 -61c0 -35 -11 -63 -23 -63h-30c-80 2 -127 29 -175 73c-22 19 -43 41 -66 64c-46 46 -67 74 -89 74c-46 0 -112 -113 -127 -153
c22 -23 50 -27 142 -27c110 0 130 -45 130 -94c0 -47 -20 -108 -61 -140c-50 -39 -163 -81 -294 -81zM361 -461l-86 39v14l34 73l86 -41v-14zM218 -469l-86 39v14l34 73l86 -41v-14z" />
    <glyph glyph-name="uniFC76" unicode="&#xfc76;" horiz-adv-x="691" arabic-form="final" 
d="M472 559l-84 38v14l33 70l84 -40v-13zM573 446l-87 39v14l34 73l86 -41v-14zM423 438l-86 39v14l34 73l86 -41v-14zM-67 -129l5 7c30 -3 75 -6 98 -4c99 8 150 91 169 139c-6 47 -17 120 -42 258l76 48l11 -7c8 -43 14 -79 19 -110c26 -2 56 -2 105 -2c55 0 97 4 126 25
v94l75 21l13 -9v-124c0 -57 22 -83 75 -83h28c13 0 24 -27 24 -61c0 -35 -11 -63 -24 -63h-33c-71 0 -145 43 -150 134c-12 -41 -61 -55 -125 -55c-33 0 -65 0 -100 3c0 -18 1 -34 0 -49c-4 -145 -117 -258 -205 -268c-29 -3 -95 17 -123 30z" />
    <glyph glyph-name="uniFC77" unicode="&#xfc77;" horiz-adv-x="691" arabic-form="final" 
d="M472 559l-84 38v14l33 70l84 -40v-13zM573 446l-87 39v14l34 73l86 -41v-14zM423 438l-86 39v14l34 73l86 -41v-14zM199 380l-94 43v16l37 79l94 -45v-14zM-67 -129l5 7c30 -3 75 -6 98 -4c99 8 150 91 169 139c-6 47 -17 120 -42 258l76 48l11 -7c8 -43 14 -79 19 -110
c26 -2 56 -2 105 -2c55 0 97 4 126 25v94l75 21l13 -9v-124c0 -57 22 -83 75 -83h28c13 0 24 -27 24 -61c0 -35 -11 -63 -24 -63h-33c-71 0 -145 43 -150 134c-12 -41 -61 -55 -125 -55c-33 0 -65 0 -100 3c0 -18 1 -34 0 -49c-4 -145 -117 -258 -205 -268
c-29 -3 -95 17 -123 30z" />
    <glyph glyph-name="uniFCE5" unicode="&#xfce5;" horiz-adv-x="624" arabic-form="medial" 
d="M303 500l-83 38v14l32 70l84 -40v-13zM404 387l-86 39v14l33 73l87 -41v-13zM255 379l-87 39v14l34 73l86 -41v-13zM326 -122c-25 24 -50 50 -76 74c-46 46 -74 48 -115 48h-135c-13 0 -23 28 -23 63c0 34 10 61 23 61h118c21 0 38 -1 55 -5c1 2 1 4 1 5c0 3 0 7 1 12
s3 10 5 15c23 62 95 160 150 160c32 0 47 -17 110 -79c89 -87 113 -108 184 -108c13 0 23 -27 23 -61c0 -35 -10 -63 -23 -63c-104 0 -147 48 -220 118c-49 48 -74 74 -88 74c-20 0 -64 -57 -74 -83c10 -18 42 -46 68 -73c29 -27 59 -56 87 -83l-59 -75h-12z" />
    <glyph glyph-name="uniFC79" unicode="&#xfc79;" horiz-adv-x="1027" arabic-form="final" 
d="M758 515l-84 38v14l33 70l83 -40v-13zM859 402l-87 39v14l34 73l86 -41v-14zM709 394l-86 39v14l34 73l86 -41v-14zM272 -193c-133 0 -237 80 -224 228c6 72 24 136 40 197l59 -4l6 -10c-10 -40 -23 -92 -30 -143c-13 -100 61 -144 169 -144c117 0 208 39 252 64
c-10 76 -24 158 -44 274l73 47l13 -5c6 -40 12 -76 18 -109c26 -2 56 -2 105 -2c55 0 97 4 126 25v94l75 21l13 -9v-124c0 -57 22 -83 75 -83h29c12 0 23 -27 23 -61c0 -35 -11 -63 -23 -63h-34c-71 0 -145 43 -150 134c-12 -41 -61 -55 -125 -55c-33 0 -65 0 -98 3
c3 -32 4 -57 4 -76c-1 -28 -7 -74 -48 -107c-59 -49 -165 -92 -304 -92zM347 120l-95 43v16l37 79l95 -45v-14z" />
    <glyph glyph-name="uniFCE6" unicode="&#xfce6;" horiz-adv-x="780" arabic-form="medial" 
d="M547 497l-83 38v14l33 70l83 -40v-13zM648 384l-86 39v14l34 73l86 -41v-14zM499 376l-87 39v14l34 73l86 -41v-14zM-23 63c0 34 10 61 23 61h104c20 95 39 169 68 268l83 57l69 -74c77 -84 81 -125 81 -164c0 -28 -2 -57 -19 -84c-38 -59 -96 -101 -209 -118
c9 -57 45 -104 90 -148l65 111c67 115 115 185 181 282h79c46 -86 74 -130 159 -130h29c13 0 24 -27 24 -61c0 -35 -11 -63 -24 -63h-29c-99 0 -155 52 -209 139c-46 -65 -116 -172 -150 -231l-84 -145h-89c-81 83 -122 163 -126 238l-93 -1c-13 0 -23 28 -23 63zM180 124
c95 7 138 42 153 70c0 23 -39 75 -95 136c-26 -79 -42 -130 -58 -206z" />
    <glyph glyph-name="uniFC13" unicode="&#xfc13;" horiz-adv-x="638" arabic-form="isolated" 
d="M447 547l-84 38v14l33 70l84 -40l-1 -13zM548 433l-87 39v15l34 72l86 -41v-13zM398 425l-86 39v15l34 72l86 -41v-13zM48 -15c6 64 24 144 39 208l59 -4l6 -10c-9 -44 -24 -110 -30 -157c-13 -101 48 -119 154 -119c95 0 176 27 223 48l-182 70l-4 10l34 88
c56 3 103 14 134 32c-9 57 -18 114 -26 171l84 53l9 -5c14 -103 22 -162 22 -203c0 -20 -3 -38 -9 -54c-14 -39 -45 -64 -83 -80c31 -13 63 -27 78 -42c53 -32 30 -100 -9 -130c-46 -37 -150 -79 -289 -79c-140 0 -222 60 -210 203z" />
    <glyph glyph-name="uniFC7A" unicode="&#xfc7a;" horiz-adv-x="828" arabic-form="final" 
d="M442 526l-83 38v14l33 70l83 -40v-13zM543 412l-86 39v14l34 73l86 -41v-13zM394 404l-87 39v14l34 73l86 -41v-13zM258 -284c-132 0 -221 54 -210 199c5 65 23 146 39 212l59 -4l6 -10c-9 -44 -24 -111 -30 -154c-1 -10 -2 -20 -2 -28c1 -79 60 -95 157 -95
c122 0 219 42 264 63c2 28 -8 32 -57 33h-43c-120 0 -180 29 -167 117c16 117 132 273 217 273c35 0 47 -16 111 -82c17 -17 31 -32 45 -45c57 -55 85 -70 153 -71h28c12 0 23 -27 23 -61c0 -35 -11 -63 -23 -63h-30c-80 2 -127 29 -175 73c-22 19 -43 41 -66 64
c-46 46 -67 74 -89 74c-46 0 -112 -113 -127 -153c22 -23 50 -27 142 -27c110 0 130 -45 130 -94c0 -47 -20 -108 -61 -140c-50 -39 -163 -81 -294 -81z" />
    <glyph glyph-name="uniFC14" unicode="&#xfc14;" horiz-adv-x="638" arabic-form="isolated" 
d="M433 543l-84 38v14l33 70l84 -40v-13zM534 429l-86 39v15l33 72l87 -41v-13zM384 421l-86 39v15l34 72l86 -41v-13zM48 -15c6 64 24 144 39 208l59 -4l6 -10c-9 -44 -24 -110 -30 -157c-13 -101 48 -119 154 -119c95 0 176 27 223 48l-182 70l-4 10l34 88
c56 3 103 14 134 32c-9 57 -18 114 -26 171l84 53l9 -5c14 -103 22 -162 22 -203c0 -20 -3 -38 -9 -54c-14 -39 -45 -64 -83 -80c31 -13 63 -27 78 -42c53 -32 30 -100 -9 -130c-46 -37 -150 -79 -289 -79c-140 0 -222 60 -210 203zM358 -397l-86 39v15l34 72l86 -41v-13z
M215 -405l-86 39v15l34 72l86 -41v-13z" />
    <glyph glyph-name="uniFC7B" unicode="&#xfc7b;" horiz-adv-x="828" arabic-form="final" 
d="M442 526l-83 38v14l33 70l83 -40v-13zM543 412l-86 39v14l34 73l86 -41v-13zM394 404l-87 39v14l34 73l86 -41v-13zM258 -284c-132 0 -221 54 -210 199c5 65 23 146 39 212l59 -4l6 -10c-9 -44 -24 -111 -30 -154c-1 -10 -2 -20 -2 -28c1 -79 60 -95 157 -95
c122 0 219 42 264 63c2 28 -8 32 -57 33h-43c-120 0 -180 29 -167 117c16 117 132 273 217 273c35 0 47 -16 111 -82c17 -17 31 -32 45 -45c57 -55 85 -70 153 -71h28c12 0 23 -27 23 -61c0 -35 -11 -63 -23 -63h-30c-80 2 -127 29 -175 73c-22 19 -43 41 -66 64
c-46 46 -67 74 -89 74c-46 0 -112 -113 -127 -153c22 -23 50 -27 142 -27c110 0 130 -45 130 -94c0 -47 -20 -108 -61 -140c-50 -39 -163 -81 -294 -81zM361 -461l-86 39v14l34 73l86 -41v-14zM218 -469l-86 39v14l34 73l86 -41v-14z" />
    <glyph glyph-name="uniFD01" unicode="&#xfd01;" horiz-adv-x="902" arabic-form="isolated" 
d="M48 -12c6 64 24 144 39 208l59 -4l6 -10c-9 -44 -24 -110 -30 -157c-13 -101 48 -119 154 -119c95 0 176 27 223 48l-182 70l-4 10l32 83c75 7 143 32 231 90l59 38l-167 58c-18 6 -29 8 -38 8c-10 -1 -18 -6 -25 -16l-40 -60h-8l-44 52l35 65c25 43 45 70 91 69
c50 -1 191 -66 316 -97c14 -4 27 -7 41 -10l55 -11l4 -13l-37 -95l-83 15l-120 -84c-50 -37 -99 -65 -152 -85c68 -25 81 -32 93 -47c53 -32 30 -100 -9 -130c-46 -37 -150 -79 -289 -79c-140 0 -222 60 -210 203zM737 -103l-95 43v15l37 80l94 -45v-15z" />
    <glyph glyph-name="uniFD1D" unicode="&#xfd1d;" horiz-adv-x="889" arabic-form="final" 
d="M889 124c13 0 23 -27 23 -61c0 -35 -10 -63 -23 -63h-86c-102 0 -153 23 -166 113l-4 25l-18 -12c-50 -37 -99 -65 -152 -85c68 -25 81 -32 93 -47c53 -32 30 -100 -9 -130c-46 -37 -150 -79 -289 -79c-140 0 -222 60 -210 203c6 64 24 144 39 208l59 -4l6 -10
c-9 -44 -24 -110 -30 -157c-13 -101 48 -119 154 -119c95 0 176 27 223 48l-182 70l-4 10l32 83c75 7 143 32 231 90l59 38l-167 58c-18 6 -29 8 -38 8c-10 -1 -18 -6 -25 -16l-40 -60h-8l-44 52l35 65c25 43 45 70 91 69c50 -1 191 -66 316 -97c14 -4 27 -7 41 -10l55 -11
l4 -13l-37 -95l-83 15l-42 -29l4 -20c6 -35 42 -37 106 -37h86zM617 -130l37 79l94 -44v-15l-36 -78l-95 42v16z" />
    <glyph glyph-name="uniFD02" unicode="&#xfd02;" horiz-adv-x="902" arabic-form="isolated" 
d="M48 -12c6 64 24 144 39 208l59 -4l6 -10c-9 -44 -24 -110 -30 -157c-13 -101 48 -119 154 -119c95 0 176 27 223 48l-182 70l-4 10l32 83c75 7 143 32 231 90l59 38l-167 58c-18 6 -29 8 -38 8c-10 -1 -18 -6 -25 -16l-40 -60h-8l-44 52l35 65c25 43 45 70 91 69
c50 -1 191 -66 316 -97c14 -4 27 -7 41 -10l55 -11l4 -13l-37 -95l-83 15l-120 -84c-50 -37 -99 -65 -152 -85c68 -25 81 -32 93 -47c53 -32 30 -100 -9 -130c-46 -37 -150 -79 -289 -79c-140 0 -222 60 -210 203zM733 -102l-94 42v16l37 79l94 -44v-15zM356 -389l-86 39v14
l34 73l86 -41v-13zM213 -397l-86 39v14l34 73l86 -41v-13z" />
    <glyph glyph-name="uniFD1E" unicode="&#xfd1e;" horiz-adv-x="889" arabic-form="final" 
d="M889 124c13 0 23 -27 23 -61c0 -35 -10 -63 -23 -63h-86c-102 0 -153 23 -166 113l-4 25l-18 -12c-50 -37 -99 -65 -152 -85c68 -25 81 -32 93 -47c53 -32 30 -100 -9 -130c-46 -37 -150 -79 -289 -79c-140 0 -222 60 -210 203c6 64 24 144 39 208l59 -4l6 -10
c-9 -44 -24 -110 -30 -157c-13 -101 48 -119 154 -119c95 0 176 27 223 48l-182 70l-4 10l32 83c75 7 143 32 231 90l59 38l-167 58c-18 6 -29 8 -38 8c-10 -1 -18 -6 -25 -16l-40 -60h-8l-44 52l35 65c25 43 45 70 91 69c50 -1 191 -66 316 -97c14 -4 27 -7 41 -10l55 -11
l4 -13l-37 -95l-83 15l-42 -29l4 -20c6 -35 42 -37 106 -37h86zM614 -130l37 79l94 -44v-15l-37 -78l-94 42v16zM270 -336l34 73l86 -41v-13l-34 -72l-86 39v14zM127 -344l34 73l86 -41v-13l-34 -72l-86 39v14z" />
    <glyph glyph-name="uniFCFF" unicode="&#xfcff;" horiz-adv-x="902" arabic-form="isolated" 
d="M48 -12c6 64 24 144 39 208l59 -4l6 -10c-9 -44 -24 -110 -30 -157c-13 -101 48 -119 154 -119c95 0 176 27 223 48l-182 70l-4 10l32 83c75 7 143 32 231 90l59 38l-167 58c-18 6 -29 8 -38 8c-10 -1 -18 -6 -25 -16l-40 -60h-8l-44 52l35 65c25 43 45 70 91 69
c50 -1 191 -66 316 -97c14 -4 27 -7 41 -10l55 -11l4 -13l-37 -95l-83 15l-120 -84c-50 -37 -99 -65 -152 -85c68 -25 81 -32 93 -47c53 -32 30 -100 -9 -130c-46 -37 -150 -79 -289 -79c-140 0 -222 60 -210 203z" />
    <glyph glyph-name="uniFD1B" unicode="&#xfd1b;" horiz-adv-x="889" arabic-form="final" 
d="M889 124c13 0 23 -27 23 -61c0 -35 -10 -63 -23 -63h-86c-102 0 -153 23 -166 113l-4 25l-18 -12c-50 -37 -99 -65 -152 -85c68 -25 81 -32 93 -47c53 -32 30 -100 -9 -130c-46 -37 -150 -79 -289 -79c-140 0 -222 60 -210 203c6 64 24 144 39 208l59 -4l6 -10
c-9 -44 -24 -110 -30 -157c-13 -101 48 -119 154 -119c95 0 176 27 223 48l-182 70l-4 10l32 83c75 7 143 32 231 90l59 38l-167 58c-18 6 -29 8 -38 8c-10 -1 -18 -6 -25 -16l-40 -60h-8l-44 52l35 65c25 43 45 70 91 69c50 -1 191 -66 316 -97c14 -4 27 -7 41 -10l55 -11
l4 -13l-37 -95l-83 15l-42 -29l4 -20c6 -35 42 -37 106 -37h86z" />
    <glyph glyph-name="uniFD00" unicode="&#xfd00;" horiz-adv-x="872" arabic-form="isolated" 
d="M48 -12c6 64 24 144 39 208l59 -4l6 -10c-9 -44 -24 -110 -30 -157c-13 -101 48 -119 154 -119c95 0 176 27 223 48l-182 70l-4 10l32 83c75 7 143 32 231 90l59 38l-167 58c-18 6 -29 8 -38 8c-10 -1 -18 -6 -25 -16l-40 -60h-8l-44 52l35 65c25 43 45 70 91 69
c50 -1 191 -66 316 -97c14 -4 27 -7 41 -10l55 -11l4 -13l-37 -95l-83 15l-120 -84c-50 -37 -99 -65 -152 -85c68 -25 81 -32 93 -47c53 -32 30 -100 -9 -130c-46 -37 -150 -79 -289 -79c-140 0 -222 60 -210 203zM350 -386l-86 39v15l34 72l86 -41v-13zM207 -394l-86 39v15
l34 72l86 -41v-13z" />
    <glyph glyph-name="uniFD1C" unicode="&#xfd1c;" horiz-adv-x="872" arabic-form="final" 
d="M889 124c13 0 23 -27 23 -61c0 -35 -10 -63 -23 -63h-86c-102 0 -153 23 -166 113l-4 25l-18 -12c-50 -37 -99 -65 -152 -85c68 -25 81 -32 93 -47c53 -32 30 -100 -9 -130c-46 -37 -150 -79 -289 -79c-140 0 -222 60 -210 203c6 64 24 144 39 208l59 -4l6 -10
c-9 -44 -24 -110 -30 -157c-13 -101 48 -119 154 -119c95 0 176 27 223 48l-182 70l-4 10l32 83c75 7 143 32 231 90l59 38l-167 58c-18 6 -29 8 -38 8c-10 -1 -18 -6 -25 -16l-40 -60h-8l-44 52l35 65c25 43 45 70 91 69c50 -1 191 -66 316 -97c14 -4 27 -7 41 -10l55 -11
l4 -13l-37 -95l-83 15l-42 -29l4 -20c6 -35 42 -37 106 -37h86zM264 -332l34 72l86 -41v-13l-34 -72l-86 39v15zM121 -340l34 72l86 -41v-13l-34 -72l-86 39v15z" />
    <glyph glyph-name="uniFD03" unicode="&#xfd03;" horiz-adv-x="902" arabic-form="isolated" 
d="M449 486l-94 42v16l37 79l94 -45v-14zM48 -12c6 64 24 144 39 208l59 -4l6 -10c-9 -44 -24 -110 -30 -157c-13 -101 48 -119 154 -119c95 0 176 27 223 48l-182 70l-4 10l32 83c75 7 143 32 231 90l59 38l-167 58c-18 6 -29 8 -38 8c-10 -1 -18 -6 -25 -16l-40 -60h-8
l-44 52l35 65c25 43 45 70 91 69c50 -1 191 -66 316 -97c14 -4 27 -7 41 -10l55 -11l4 -13l-37 -95l-83 15l-120 -84c-50 -37 -99 -65 -152 -85c68 -25 81 -32 93 -47c53 -32 30 -100 -9 -130c-46 -37 -150 -79 -289 -79c-140 0 -222 60 -210 203z" />
    <glyph glyph-name="uniFD1F" unicode="&#xfd1f;" horiz-adv-x="889" arabic-form="final" 
d="M486 564l-37 -78l-94 42v16l37 79l94 -45v-14zM889 124c13 0 23 -27 23 -61c0 -35 -10 -63 -23 -63h-86c-102 0 -153 23 -166 113l-4 25l-18 -12c-50 -37 -99 -65 -152 -85c68 -25 81 -32 93 -47c53 -32 30 -100 -9 -130c-46 -37 -150 -79 -289 -79
c-140 0 -222 60 -210 203c6 64 24 144 39 208l59 -4l6 -10c-9 -44 -24 -110 -30 -157c-13 -101 48 -119 154 -119c95 0 176 27 223 48l-182 70l-4 10l32 83c75 7 143 32 231 90l59 38l-167 58c-18 6 -29 8 -38 8c-10 -1 -18 -6 -25 -16l-40 -60h-8l-44 52l35 65
c25 43 45 70 91 69c50 -1 191 -66 316 -97c14 -4 27 -7 41 -10l55 -11l4 -13l-37 -95l-83 15l-42 -29l4 -20c6 -35 42 -37 106 -37h86z" />
    <glyph glyph-name="uniFD04" unicode="&#xfd04;" horiz-adv-x="902" arabic-form="isolated" 
d="M449 486l-94 42v16l37 79l94 -45v-14zM48 -12c6 64 24 144 39 208l59 -4l6 -10c-9 -44 -24 -110 -30 -157c-13 -101 48 -119 154 -119c95 0 176 27 223 48l-182 70l-4 10l32 83c75 7 143 32 231 90l59 38l-167 58c-18 6 -29 8 -38 8c-10 -1 -18 -6 -25 -16l-40 -60h-8
l-44 52l35 65c25 43 45 70 91 69c50 -1 191 -66 316 -97c14 -4 27 -7 41 -10l55 -11l4 -13l-37 -95l-83 15l-120 -84c-50 -37 -99 -65 -152 -85c68 -25 81 -32 93 -47c53 -32 30 -100 -9 -130c-46 -37 -150 -79 -289 -79c-140 0 -222 60 -210 203zM356 -389l-86 39v14l34 73
l86 -41v-13zM213 -397l-86 39v14l34 73l86 -41v-13z" />
    <glyph glyph-name="uniFD20" unicode="&#xfd20;" horiz-adv-x="889" arabic-form="final" 
d="M486 564l-37 -78l-94 42v16l37 79l94 -45v-14zM889 124c13 0 23 -27 23 -61c0 -35 -10 -63 -23 -63h-86c-102 0 -153 23 -166 113l-4 25l-18 -12c-50 -37 -99 -65 -152 -85c68 -25 81 -32 93 -47c53 -32 30 -100 -9 -130c-46 -37 -150 -79 -289 -79
c-140 0 -222 60 -210 203c6 64 24 144 39 208l59 -4l6 -10c-9 -44 -24 -110 -30 -157c-13 -101 48 -119 154 -119c95 0 176 27 223 48l-182 70l-4 10l32 83c75 7 143 32 231 90l59 38l-167 58c-18 6 -29 8 -38 8c-10 -1 -18 -6 -25 -16l-40 -60h-8l-44 52l35 65
c25 43 45 70 91 69c50 -1 191 -66 316 -97c14 -4 27 -7 41 -10l55 -11l4 -13l-37 -95l-83 15l-42 -29l4 -20c6 -35 42 -37 106 -37h86zM270 -336l34 73l86 -41v-13l-34 -72l-86 39v14zM127 -344l34 73l86 -41v-13l-34 -72l-86 39v14z" />
    <glyph glyph-name="uniFD0E" unicode="&#xfd0e;" horiz-adv-x="1032" arabic-form="isolated" 
d="M78 -235c-29 -3 -95 17 -123 30l-22 76l5 7c30 -3 75 -6 98 -4c100 8 150 91 169 139c-4 33 -11 78 -22 149l38 68l224 55l28 -71c24 -58 37 -90 105 -90c91 0 117 26 118 80l2 53l74 2v-118c18 -10 46 -17 72 -17c20 0 40 5 54 16l-28 188l84 53l10 -5
c8 -59 14 -104 17 -140c3 -23 4 -43 4 -60c0 -19 -2 -38 -7 -55c-19 -76 -79 -121 -149 -121c-36 0 -75 10 -100 30c-6 5 -10 9 -13 14c-27 -25 -77 -44 -137 -44c-83 0 -125 36 -153 102l-30 70l-119 -32c6 -41 8 -71 8 -95c-2 -150 -115 -270 -207 -280z" />
    <glyph glyph-name="uniFD2A" unicode="&#xfd2a;" horiz-adv-x="1116" arabic-form="final" 
d="M78 -235c-29 -3 -95 17 -123 30l-22 76l5 7c30 -3 75 -6 98 -4c100 8 150 91 169 139c-4 33 -11 78 -22 149l38 68l224 55l28 -71c24 -58 46 -90 105 -90c91 0 117 26 118 80l2 53l74 2v-118c18 -10 45 -17 71 -17c21 0 41 5 55 16l-23 150l64 49l11 -5
c6 -37 11 -74 17 -111c11 -78 39 -99 113 -99h36c13 0 23 -27 23 -61c0 -35 -10 -63 -23 -63h-33c-74 0 -113 20 -136 59c-25 -35 -66 -59 -121 -59c-36 0 -77 11 -101 34c-3 3 -6 6 -9 10c-27 -25 -77 -44 -137 -44c-74 0 -125 36 -153 102l-30 70l-119 -32
c6 -42 8 -71 8 -97c-3 -149 -116 -268 -207 -278z" />
    <glyph glyph-name="uniFCE7" unicode="&#xfce7;" horiz-adv-x="1142" arabic-form="medial" 
d="M314 -122l-76 74c-46 46 -74 48 -115 48h-123c-13 0 -23 28 -23 63c0 34 10 61 23 61h106c21 0 39 -1 56 -5c0 4 0 8 1 12c0 3 2 7 3 10c1 4 3 9 6 14c22 60 92 156 146 156c33 0 47 -17 110 -79c89 -87 113 -108 179 -108c88 0 112 26 115 80l3 53l73 2v-118
c18 -10 45 -17 70 -17c22 0 42 5 55 16l-22 150l64 49l11 -5c5 -37 11 -74 16 -111c11 -78 40 -99 114 -99h36c13 0 23 -27 23 -61c0 -35 -10 -63 -23 -63h-33c-74 0 -113 20 -136 59c-4 -5 -7 -10 -12 -14c-25 -27 -62 -45 -110 -45c-33 0 -72 10 -96 30c-5 5 -10 9 -14 14
c-26 -25 -76 -44 -130 -44c-103 0 -146 48 -219 118c-49 48 -74 74 -88 74c-19 0 -64 -57 -74 -83c11 -18 44 -48 72 -76l83 -80l-59 -75h-12z" />
    <glyph glyph-name="uniFCB0" unicode="&#xfcb0;" horiz-adv-x="1058" arabic-form="initial" 
d="M314 -122l-76 74c-46 46 -74 48 -115 48h-123c-13 0 -23 28 -23 63c0 34 10 61 23 61h106c21 0 39 -1 56 -5c0 3 0 4 1 6c1 6 4 18 5 20c3 12 9 25 17 39c29 58 87 127 133 127c33 0 47 -17 110 -79c89 -87 113 -108 179 -108c88 0 112 26 115 80l3 53l73 2v-118
c18 -10 45 -17 70 -17c22 0 42 4 55 16l-27 188l84 53l9 -5c7 -53 13 -95 17 -128c4 -29 5 -52 5 -72c0 -36 -7 -67 -21 -93c-27 -53 -78 -83 -135 -83c-34 0 -73 9 -97 28c-7 5 -12 10 -17 16c-26 -25 -76 -44 -130 -44c-103 0 -146 48 -219 118c-49 48 -74 74 -88 74
c-19 0 -64 -57 -74 -83c10 -18 42 -46 68 -73c29 -27 59 -56 87 -83l-59 -75h-12z" />
    <glyph glyph-name="uniFCE8" unicode="&#xfce8;" horiz-adv-x="1287" arabic-form="medial" 
d="M219 -237c-81 83 -122 163 -126 237h-93c-13 0 -23 28 -23 63c0 34 10 61 23 61h104c20 95 39 169 68 268l83 57l69 -74c77 -84 81 -125 81 -164c0 -31 -4 -63 -24 -93c-39 -55 -95 -93 -204 -109c9 -57 45 -104 90 -148c22 38 44 75 65 110c67 116 116 186 182 284h77
c47 -89 77 -131 160 -131c86 0 115 25 117 80l1 53l74 2v-118c18 -10 46 -17 72 -17c21 0 40 5 54 16l-22 150l63 49l11 -5c6 -37 11 -74 17 -111c11 -78 40 -99 113 -99h36c13 0 24 -27 24 -61c0 -35 -11 -63 -24 -63h-33c-74 0 -113 20 -136 59c-2 -3 -4 -7 -7 -9
c-25 -31 -64 -50 -114 -50c-35 0 -77 11 -100 34c-4 3 -7 7 -10 10c-26 -25 -75 -44 -134 -44c-98 0 -156 50 -212 137c-46 -64 -115 -171 -149 -229l-84 -145h-89zM181 125c94 7 136 42 152 69c0 23 -40 75 -95 135c-25 -78 -41 -129 -57 -204z" />
    <glyph glyph-name="uniFD31" unicode="&#xfd31;" horiz-adv-x="1203" arabic-form="initial" 
d="M219 -237c-81 83 -122 163 -126 238l-93 -1c-13 0 -23 28 -23 63c0 34 10 61 23 61h104c20 95 39 169 68 268l83 57l69 -74c77 -84 81 -125 81 -164c0 -29 -3 -59 -21 -88c-38 -57 -96 -97 -207 -114c9 -57 45 -104 90 -148l62 107c68 117 118 188 185 287h77
c47 -89 77 -131 160 -131c86 0 115 25 117 80l1 53l74 2v-118c18 -10 45 -17 71 -17c21 0 41 4 55 16l-28 188l84 53l10 -5c12 -93 19 -145 20 -184c1 -20 0 -40 -4 -56c-4 -24 -12 -46 -23 -64c-28 -46 -75 -72 -128 -72c-31 0 -66 7 -91 23c-9 6 -16 13 -22 21
c-26 -25 -75 -44 -134 -44c-98 0 -156 50 -212 137c-46 -64 -115 -171 -149 -229l-84 -145h-89zM181 125c94 7 136 42 152 69c0 23 -40 75 -95 135c-25 -78 -41 -129 -57 -204z" />
    <glyph glyph-name="uniFCFB" unicode="&#xfcfb;" horiz-adv-x="1249" arabic-form="isolated" 
d="M258 -284c-132 0 -221 54 -210 199c5 65 23 146 39 212l59 -4l6 -10c-9 -44 -25 -115 -30 -159c-12 -100 50 -118 155 -118c122 0 219 42 264 63c2 27 -8 32 -53 33h-47c-120 0 -180 29 -167 117c16 117 132 273 217 273c35 0 47 -16 111 -82c16 -16 31 -32 45 -45
c57 -56 84 -71 150 -71c87 0 113 27 116 80l3 53l72 2v-118c19 -10 46 -17 72 -17c21 0 41 5 54 16l-27 188l84 53l9 -5c7 -51 12 -91 16 -124c3 -31 6 -55 6 -76c0 -23 -4 -46 -10 -65c-21 -70 -80 -111 -146 -111c-37 0 -78 10 -101 31c-5 4 -9 8 -13 13
c-28 -26 -76 -44 -135 -44c-89 0 -136 33 -191 89c-16 15 -32 31 -49 48c-46 46 -67 74 -89 74c-46 0 -112 -113 -127 -153c22 -23 50 -27 142 -27c110 0 130 -45 130 -94c0 -47 -20 -108 -61 -140c-50 -39 -163 -81 -294 -81z" />
    <glyph glyph-name="uniFD17" unicode="&#xfd17;" horiz-adv-x="1333" arabic-form="final" 
d="M258 -284c-132 0 -221 54 -210 199c5 65 23 146 39 212l59 -4l6 -10c-9 -44 -25 -115 -30 -159c-12 -100 50 -118 155 -118c122 0 219 42 264 63c2 29 -8 33 -62 33h-38c-120 0 -180 29 -167 117c16 117 132 273 217 273c35 0 47 -16 111 -82l32 -33
c66 -66 93 -83 163 -83c87 0 113 27 116 80l3 53l72 2v-118c19 -10 46 -17 72 -17c21 0 41 5 54 16l-22 150l63 49l11 -5c6 -37 11 -74 17 -111c11 -78 40 -99 114 -99h36c13 0 23 -27 23 -61c0 -35 -10 -63 -23 -63h-33c-74 0 -113 20 -136 59c-3 -4 -7 -9 -10 -12
c-26 -29 -63 -47 -112 -47c-33 0 -69 9 -93 27c-7 5 -13 11 -17 17c-28 -26 -76 -44 -135 -44c-96 0 -142 38 -202 99l-38 38c-46 46 -67 74 -89 74c-46 0 -112 -113 -127 -153c22 -23 50 -27 142 -27c110 0 130 -45 130 -94c0 -47 -20 -108 -61 -140
c-50 -39 -163 -81 -294 -81z" />
    <glyph glyph-name="uniFCFC" unicode="&#xfcfc;" horiz-adv-x="1249" arabic-form="isolated" 
d="M258 -284c-132 0 -221 54 -210 199c5 65 23 146 39 212l59 -4l6 -10c-9 -44 -25 -115 -30 -159c-12 -100 50 -118 155 -118c122 0 219 42 264 63c2 27 -8 32 -53 33h-47c-120 0 -180 29 -167 117c16 117 132 273 217 273c35 0 47 -16 111 -82c16 -16 31 -32 45 -45
c57 -56 84 -71 150 -71c87 0 113 27 116 80l3 53l72 2v-118c19 -10 46 -17 72 -17c21 0 41 5 54 16l-27 188l84 53l9 -5c7 -51 12 -91 16 -124c3 -31 6 -55 6 -76c0 -23 -4 -46 -10 -65c-21 -70 -80 -111 -146 -111c-37 0 -78 10 -101 31c-5 4 -9 8 -13 13
c-28 -26 -76 -44 -135 -44c-89 0 -136 33 -191 89c-16 15 -32 31 -49 48c-46 46 -67 74 -89 74c-46 0 -112 -113 -127 -153c22 -23 50 -27 142 -27c110 0 130 -45 130 -94c0 -47 -20 -108 -61 -140c-50 -39 -163 -81 -294 -81zM395 -459l-86 39v14l34 73l86 -41v-13z
M252 -467l-86 39v14l34 73l86 -41v-13z" />
    <glyph glyph-name="uniFD18" unicode="&#xfd18;" horiz-adv-x="1333" arabic-form="final" 
d="M258 -284c-132 0 -221 54 -210 199c5 65 23 146 39 212l59 -4l6 -10c-9 -44 -25 -115 -30 -159c-12 -100 50 -118 155 -118c122 0 219 42 264 63c2 29 -8 33 -62 33h-38c-120 0 -180 29 -167 117c16 117 132 273 217 273c35 0 47 -16 111 -82l32 -33
c66 -66 93 -83 163 -83c87 0 113 27 116 80l3 53l72 2v-118c19 -10 46 -17 72 -17c21 0 41 5 54 16l-22 150l63 49l11 -5c6 -37 11 -74 17 -111c11 -78 40 -99 114 -99h36c13 0 23 -27 23 -61c0 -35 -10 -63 -23 -63h-33c-74 0 -113 20 -136 59c-3 -4 -7 -9 -10 -12
c-26 -29 -63 -47 -112 -47c-33 0 -69 9 -93 27c-7 5 -13 11 -17 17c-28 -26 -76 -44 -135 -44c-96 0 -142 38 -202 99l-38 38c-46 46 -67 74 -89 74c-46 0 -112 -113 -127 -153c22 -23 50 -27 142 -27c110 0 130 -45 130 -94c0 -47 -20 -108 -61 -140
c-50 -39 -163 -81 -294 -81zM395 -459l-86 39v14l34 73l86 -41v-13zM252 -467l-86 39v14l34 73l86 -41v-13z" />
    <glyph glyph-name="uniFD0D" unicode="&#xfd0d;" horiz-adv-x="1032" arabic-form="isolated" 
d="M707 491l-84 38v14l33 70l83 -40v-13zM808 377l-87 39v14l34 73l86 -41v-13zM658 369l-86 39v14l33 73l87 -41v-13zM78 -235c-29 -3 -95 17 -123 30l-22 76l5 7c30 -3 75 -6 98 -4c100 8 150 91 169 139c-4 33 -11 78 -22 149l38 68l224 55l28 -71c24 -58 37 -90 105 -90
c91 0 117 26 118 80l2 53l74 2v-118c18 -10 46 -17 72 -17c20 0 40 5 54 16l-28 188l84 53l10 -5c8 -59 14 -104 17 -140c3 -23 4 -43 4 -60c0 -19 -2 -38 -7 -55c-19 -76 -79 -121 -149 -121c-36 0 -75 10 -100 30c-6 5 -10 9 -13 14c-27 -25 -77 -44 -137 -44
c-83 0 -125 36 -153 102l-30 70l-119 -32c6 -41 8 -71 8 -95c-2 -150 -115 -270 -207 -280z" />
    <glyph glyph-name="uniFD29" unicode="&#xfd29;" horiz-adv-x="1116" arabic-form="final" 
d="M707 491l-84 38v14l33 70l83 -40v-13zM808 377l-87 39v14l34 73l86 -41v-13zM658 369l-86 39v14l33 73l87 -41v-13zM78 -235c-29 -3 -95 17 -123 30l-22 76l5 7c30 -3 75 -6 98 -4c100 8 150 91 169 139c-4 33 -11 78 -22 149l38 68l224 55l28 -71c24 -58 46 -90 105 -90
c91 0 117 26 118 80l2 53l74 2v-118c18 -10 45 -17 71 -17c21 0 41 5 55 16l-23 150l64 49l11 -5c6 -37 11 -74 17 -111c11 -78 39 -99 113 -99h36c13 0 23 -27 23 -61c0 -35 -10 -63 -23 -63h-33c-74 0 -113 20 -136 59c-25 -35 -66 -59 -121 -59c-36 0 -77 11 -101 34
c-3 3 -6 6 -9 10c-27 -25 -77 -44 -137 -44c-74 0 -125 36 -153 102l-30 70l-119 -32c6 -42 8 -71 8 -97c-3 -149 -116 -268 -207 -278z" />
    <glyph glyph-name="uniFCE9" unicode="&#xfce9;" horiz-adv-x="1142" arabic-form="medial" 
d="M726 493l-84 38v14l33 70l84 -40l-1 -13zM827 380l-87 39v14l34 73l86 -41v-14zM677 372l-86 39v14l34 73l86 -41v-14zM314 -122l-76 74c-46 46 -74 48 -115 48h-123c-13 0 -23 28 -23 63c0 34 10 61 23 61h106c21 0 39 -1 56 -5c0 4 0 8 1 12c0 3 2 7 3 10c1 4 3 9 6 14
c22 60 92 156 146 156c33 0 47 -17 110 -79c89 -87 113 -108 179 -108c88 0 112 26 115 80l3 53l73 2v-118c18 -10 45 -17 70 -17c22 0 42 5 55 16l-22 150l64 49l11 -5c5 -37 11 -74 16 -111c11 -78 40 -99 114 -99h36c13 0 23 -27 23 -61c0 -35 -10 -63 -23 -63h-33
c-74 0 -113 20 -136 59c-4 -5 -7 -10 -12 -14c-25 -27 -62 -45 -110 -45c-33 0 -72 10 -96 30c-5 5 -10 9 -14 14c-26 -25 -76 -44 -130 -44c-103 0 -146 48 -219 118c-49 48 -74 74 -88 74c-19 0 -64 -57 -74 -83c11 -18 44 -48 72 -76l83 -80l-59 -75h-12z" />
    <glyph glyph-name="uniFD30" unicode="&#xfd30;" horiz-adv-x="1058" arabic-form="initial" 
d="M726 493l-84 38v14l33 70l84 -40l-1 -13zM827 380l-87 39v14l34 73l86 -41v-14zM677 372l-86 39v14l34 73l86 -41v-14zM314 -122l-76 74c-46 46 -74 48 -115 48h-123c-13 0 -23 28 -23 63c0 34 10 61 23 61h106c21 0 39 -1 56 -5c0 3 0 4 1 6c1 6 4 18 5 20
c3 12 9 25 17 39c29 58 87 127 133 127c33 0 47 -17 110 -79c89 -87 113 -108 179 -108c88 0 112 26 115 80l3 53l73 2v-118c18 -10 45 -17 70 -17c22 0 42 4 55 16l-27 188l84 53l9 -5c7 -53 13 -95 17 -128c4 -29 5 -52 5 -72c0 -36 -7 -67 -21 -93
c-27 -53 -78 -83 -135 -83c-34 0 -73 9 -97 28c-7 5 -12 10 -17 16c-26 -25 -76 -44 -130 -44c-103 0 -146 48 -219 118c-49 48 -74 74 -88 74c-19 0 -64 -57 -74 -83c10 -18 42 -46 68 -73c29 -27 59 -56 87 -83l-59 -75h-12z" />
    <glyph glyph-name="uniFCEA" unicode="&#xfcea;" horiz-adv-x="1287" arabic-form="medial" 
d="M870 491l-83 38v14l32 70l84 -40v-13zM971 377l-86 39v14l33 73l87 -41v-13zM822 369l-87 39v14l34 73l86 -41v-13zM219 -237c-81 83 -122 163 -126 237h-93c-13 0 -23 28 -23 63c0 34 10 61 23 61h104c20 95 39 169 68 268l83 57l69 -74c77 -84 81 -125 81 -164
c0 -31 -4 -63 -24 -93c-39 -55 -95 -93 -204 -109c9 -57 45 -104 90 -148c22 38 44 75 65 110c67 116 116 186 182 284h77c47 -89 77 -131 160 -131c86 0 115 25 117 80l1 53l74 2v-118c18 -10 46 -17 72 -17c21 0 40 5 54 16l-22 150l63 49l11 -5c6 -37 11 -74 17 -111
c11 -78 40 -99 113 -99h36c13 0 24 -27 24 -61c0 -35 -11 -63 -24 -63h-33c-74 0 -113 20 -136 59c-2 -3 -4 -7 -7 -9c-25 -31 -64 -50 -114 -50c-35 0 -77 11 -100 34c-4 3 -7 7 -10 10c-26 -25 -75 -44 -134 -44c-98 0 -156 50 -212 137c-46 -64 -115 -171 -149 -229
l-84 -145h-89zM181 125c94 7 136 42 152 69c0 23 -40 75 -95 135c-25 -78 -41 -129 -57 -204z" />
    <glyph glyph-name="uniFD32" unicode="&#xfd32;" horiz-adv-x="1203" arabic-form="initial" 
d="M853 491l-83 38v14l33 70l83 -40v-13zM954 377l-86 39v14l34 73l86 -41v-13zM805 369l-87 39v14l34 73l86 -41v-13zM219 -237c-81 83 -122 163 -126 238l-93 -1c-13 0 -23 28 -23 63c0 34 10 61 23 61h104c20 95 39 169 68 268l83 57l69 -74c77 -84 81 -125 81 -164
c0 -29 -3 -59 -21 -88c-38 -57 -96 -97 -207 -114c9 -57 45 -104 90 -148l62 107c68 117 118 188 185 287h77c47 -89 77 -131 160 -131c86 0 115 25 117 80l1 53l74 2v-118c18 -10 45 -17 71 -17c21 0 41 4 55 16l-28 188l84 53l10 -5c12 -93 19 -145 20 -184
c1 -20 0 -40 -4 -56c-4 -24 -12 -46 -23 -64c-28 -46 -75 -72 -128 -72c-31 0 -66 7 -91 23c-9 6 -16 13 -22 21c-26 -25 -75 -44 -134 -44c-98 0 -156 50 -212 137c-46 -64 -115 -171 -149 -229l-84 -145h-89zM181 125c94 7 136 42 152 69c0 23 -40 75 -95 135
c-25 -78 -41 -129 -57 -204z" />
    <glyph glyph-name="uniFCFD" unicode="&#xfcfd;" horiz-adv-x="1249" arabic-form="isolated" 
d="M911 482l-83 38v14l32 70l84 -40v-13zM1012 369l-86 39v14l33 73l87 -41v-14zM863 361l-87 39v14l34 73l86 -41v-14zM258 -284c-132 0 -221 54 -210 199c5 65 23 146 39 212l59 -4l6 -10c-9 -44 -25 -115 -30 -159c-12 -100 50 -118 155 -118c122 0 219 42 264 63
c2 27 -8 32 -53 33h-47c-120 0 -180 29 -167 117c16 117 132 273 217 273c35 0 47 -16 111 -82c16 -16 31 -32 45 -45c57 -56 84 -71 150 -71c87 0 113 27 116 80l3 53l72 2v-118c19 -10 46 -17 72 -17c21 0 41 5 54 16l-27 188l84 53l9 -5c7 -51 12 -91 16 -124
c3 -31 6 -55 6 -76c0 -23 -4 -46 -10 -65c-21 -70 -80 -111 -146 -111c-37 0 -78 10 -101 31c-5 4 -9 8 -13 13c-28 -26 -76 -44 -135 -44c-89 0 -136 33 -191 89c-16 15 -32 31 -49 48c-46 46 -67 74 -89 74c-46 0 -112 -113 -127 -153c22 -23 50 -27 142 -27
c110 0 130 -45 130 -94c0 -47 -20 -108 -61 -140c-50 -39 -163 -81 -294 -81z" />
    <glyph glyph-name="uniFD19" unicode="&#xfd19;" horiz-adv-x="1333" arabic-form="final" 
d="M911 482l-83 38v14l32 70l84 -40v-13zM1012 369l-86 39v14l33 73l87 -41v-14zM863 361l-87 39v14l34 73l86 -41v-14zM258 -284c-132 0 -221 54 -210 199c5 65 23 146 39 212l59 -4l6 -10c-9 -44 -25 -115 -30 -159c-12 -100 50 -118 155 -118c122 0 219 42 264 63
c2 29 -8 33 -62 33h-38c-120 0 -180 29 -167 117c16 117 132 273 217 273c35 0 47 -16 111 -82l32 -33c66 -66 93 -83 163 -83c87 0 113 27 116 80l3 53l72 2v-118c19 -10 46 -17 72 -17c21 0 41 5 54 16l-22 150l63 49l11 -5c6 -37 11 -74 17 -111c11 -78 40 -99 114 -99
h36c13 0 23 -27 23 -61c0 -35 -10 -63 -23 -63h-33c-74 0 -113 20 -136 59c-3 -4 -7 -9 -10 -12c-26 -29 -63 -47 -112 -47c-33 0 -69 9 -93 27c-7 5 -13 11 -17 17c-28 -26 -76 -44 -135 -44c-96 0 -142 38 -202 99l-38 38c-46 46 -67 74 -89 74c-46 0 -112 -113 -127 -153
c22 -23 50 -27 142 -27c110 0 130 -45 130 -94c0 -47 -20 -108 -61 -140c-50 -39 -163 -81 -294 -81z" />
    <glyph glyph-name="uniFCFE" unicode="&#xfcfe;" horiz-adv-x="1249" arabic-form="isolated" 
d="M865 491l-83 38v14l33 70l83 -40v-13zM966 378l-86 39v14l34 73l86 -41v-14zM817 370l-86 39v14l33 73l87 -41v-14zM258 -284c-132 0 -221 54 -210 199c5 65 23 146 39 212l59 -4l6 -10c-9 -44 -25 -115 -30 -159c-12 -100 50 -118 155 -118c122 0 219 42 264 63
c2 27 -8 32 -53 33h-47c-120 0 -180 29 -167 117c16 117 132 273 217 273c35 0 47 -16 111 -82c16 -16 31 -32 45 -45c57 -56 84 -71 150 -71c87 0 113 27 116 80l3 53l72 2v-118c19 -10 46 -17 72 -17c21 0 41 5 54 16l-27 188l84 53l9 -5c7 -51 12 -91 16 -124
c3 -31 6 -55 6 -76c0 -23 -4 -46 -10 -65c-21 -70 -80 -111 -146 -111c-37 0 -78 10 -101 31c-5 4 -9 8 -13 13c-28 -26 -76 -44 -135 -44c-89 0 -136 33 -191 89c-16 15 -32 31 -49 48c-46 46 -67 74 -89 74c-46 0 -112 -113 -127 -153c22 -23 50 -27 142 -27
c110 0 130 -45 130 -94c0 -47 -20 -108 -61 -140c-50 -39 -163 -81 -294 -81zM361 -459l-86 39v14l34 73l86 -41v-13zM218 -467l-86 39v14l34 73l86 -41v-13z" />
    </font>
</defs>
</svg>
