<?xml version="1.0" standalone="no"?>
<!DOCTYPE svg PUBLIC "-//W3C//DTD SVG 1.1//EN" "http://www.w3.org/Graphics/SVG/1.1/DTD/svg11.dtd" >
<svg xmlns="http://www.w3.org/2000/svg" xmlns:xlink="http://www.w3.org/1999/xlink" version="1.1">
<metadata>
Created by FontForge 20201107 at Fri Nov 12 19:00:20 2021
 By Unknown
Copyright \(c\) 2021 by Omid Emamian &#38; Kamyab Jafari. All rights reserved.
</metadata>
<defs>
<font id="Aria-Regular" horiz-adv-x="0" >
  <font-face 
    font-family="Aria Normal"
    font-weight="400"
    font-stretch="normal"
    units-per-em="1000"
    panose-1="0 0 5 0 0 0 0 0 0 0"
    ascent="800"
    descent="-200"
    x-height="461"
    cap-height="641"
    bbox="-179 -557 1911 2348"
    underline-thickness="78"
    underline-position="-473"
    stemh="78"
    stemv="58"
    unicode-range="U+0020-FEFF"
  />
<missing-glyph horiz-adv-x="290" 
 />
    <glyph glyph-name="uniFEFB" unicode="&#xfedf;&#xfe8e;" horiz-adv-x="454" arabic-form="isolated" 
d="M54 62l4 6c29 0 56 2 82 3l-65 472l55 25l48 -398c3 -25 4 -45 -2 -70l-7 -26c86 9 148 28 176 60l-5 499l60 15v-491c0 -144 -206 -167 -337 -167z" />
    <glyph glyph-name="uniFEFC" unicode="&#xfee0;&#xfe8e;" horiz-adv-x="538" arabic-form="final" 
d="M63 -10l-9 72l4 6c29 0 56 2 82 3l-65 472l55 25l48 -398c3 -25 4 -45 -2 -70l-7 -26c84 8 145 27 177 55c-1 12 -1 26 -1 36l-5 468l60 15v-464c0 -83 25 -106 108 -106h30c9 0 16 -17 16 -38c0 -23 -7 -40 -16 -40h-31c-78 0 -122 22 -144 71
c-61 -69 -201 -81 -300 -81z" />
    <glyph glyph-name="uniFEF7" unicode="&#xfedf;&#xfe84;" horiz-adv-x="454" arabic-form="isolated" 
d="M-18 610l8 44l50 21c-29 11 -47 42 -47 75c0 53 41 86 91 91c10 1 18 0 28 -1c11 -1 24 -4 37 -6v-47l-27 3c-13 2 -26 3 -36 3c-25 0 -42 -4 -52 -9c-3 -9 -3 -17 -3 -26c0 -33 23 -52 51 -52c13 0 27 2 41 6l69 21l2 -3l-8 -46l-25 -10c-59 -22 -117 -45 -176 -67z
M54 62l4 6c29 0 56 2 82 3l-65 472l55 25l48 -398c3 -25 4 -45 -2 -70l-7 -26c86 9 148 28 176 60l-5 499l60 15v-491c0 -144 -206 -167 -337 -167z" />
    <glyph glyph-name="uniFEF8" unicode="&#xfee0;&#xfe84;" horiz-adv-x="538" arabic-form="final" 
d="M-18 610l8 44l50 21c-29 11 -47 42 -47 75c0 53 41 86 91 91c10 1 18 0 28 -1c11 -1 24 -4 37 -6v-47l-27 3c-13 2 -26 3 -36 3c-25 0 -42 -4 -52 -9c-3 -9 -3 -17 -3 -26c0 -33 23 -52 51 -52c13 0 27 2 41 6l69 21l2 -3l-8 -46l-25 -10c-59 -22 -117 -45 -176 -67z
M63 -10l-9 72l4 6c29 0 56 2 82 3l-65 472l55 25l48 -398c3 -25 4 -45 -2 -70l-7 -26c84 8 145 27 177 55c-1 12 -1 26 -1 36l-5 468l60 15v-464c0 -83 25 -106 108 -106h30c9 0 16 -17 16 -38c0 -23 -7 -40 -16 -40h-31c-78 0 -122 22 -144 71c-61 -69 -201 -81 -300 -81z
" />
    <glyph glyph-name="uniFEF9" unicode="&#xfedf;&#xfe88;" horiz-adv-x="454" arabic-form="isolated" 
d="M54 62l4 6c29 0 56 2 82 3l-65 472l55 25l48 -398c3 -25 4 -45 -2 -70l-7 -26c86 9 148 28 176 60l-5 499l60 15v-491c0 -144 -206 -167 -337 -167zM70 -296l8 45l50 20c-29 12 -47 43 -47 76c0 53 41 86 91 91c10 0 18 0 27 -2c12 -1 25 -3 37 -6v-47c-8 2 -17 3 -26 4
c-14 2 -26 3 -36 3c-25 0 -42 -4 -52 -10c-3 -8 -3 -16 -3 -25c0 -33 22 -52 50 -52c14 0 28 1 42 6l69 20l2 -2l-8 -46l-25 -10c-59 -23 -117 -45 -176 -67z" />
    <glyph glyph-name="uniFEFA" unicode="&#xfee0;&#xfe88;" horiz-adv-x="538" arabic-form="final" 
d="M63 -10l-9 72l4 6c29 0 56 2 82 3l-65 472l55 25l48 -398c3 -25 4 -45 -2 -70l-7 -26c84 8 145 27 177 55c-1 12 -1 26 -1 36l-5 468l60 15v-464c0 -83 25 -106 108 -106h30c9 0 16 -17 16 -38c0 -23 -7 -40 -16 -40h-31c-78 0 -122 22 -144 71
c-61 -69 -201 -81 -300 -81zM70 -296l8 45l50 20c-29 12 -47 43 -47 76c0 53 41 86 91 91c10 0 18 0 27 -2c12 -1 25 -3 37 -6v-47c-8 2 -17 3 -26 4c-14 2 -26 3 -36 3c-25 0 -42 -4 -52 -10c-3 -8 -3 -16 -3 -25c0 -33 22 -52 50 -52c14 0 28 1 42 6l69 20l2 -2l-8 -46
l-25 -10c-59 -23 -117 -45 -176 -67z" />
    <glyph glyph-name="uniFEF5" unicode="&#xfedf;&#xfe82;" horiz-adv-x="454" arabic-form="isolated" 
d="M-39 604l-30 21l10 30c10 28 26 58 64 56c53 -4 103 -31 242 -2l4 -7l-19 -49c-118 -30 -182 -10 -242 4c-7 -15 -13 -31 -22 -51zM54 62l4 6c29 0 56 2 82 3l-65 472l55 25l48 -398c3 -25 4 -45 -2 -70l-7 -26c86 9 148 28 176 60l-5 499l60 15v-491
c0 -144 -206 -167 -337 -167z" />
    <glyph glyph-name="uniFEF6" unicode="&#xfee0;&#xfe82;" horiz-adv-x="538" arabic-form="final" 
d="M-39 604l-30 21l10 30c10 28 26 58 64 56c53 -4 103 -31 242 -2l4 -7l-19 -49c-118 -30 -182 -10 -242 4c-7 -15 -13 -31 -22 -51zM63 -10l-9 72l4 6c29 0 56 2 82 3l-65 472l55 25l48 -398c3 -25 4 -45 -2 -70l-7 -26c84 8 145 27 177 55c-1 12 -1 26 -1 36l-5 468
l60 15v-464c0 -83 25 -106 108 -106h30c9 0 16 -17 16 -38c0 -23 -7 -40 -16 -40h-31c-78 0 -122 22 -144 71c-61 -69 -201 -81 -300 -81z" />
    <glyph glyph-name="uniFEDFFB51" unicode="&#xfedf;&#xfb51;" horiz-adv-x="454" 
d="M-44 620l-5 1l-16 34l124 146c31 38 59 50 95 50c79 0 109 -76 109 -120c0 -63 -48 -85 -157 -85c-56 0 -87 10 -110 20zM106 695c66 0 97 5 120 15c0 8 0 18 -3 26c-8 35 -31 67 -75 67c-20 0 -37 -3 -47 -7l-75 -88c16 -8 48 -13 80 -13zM54 62l4 6c29 0 56 2 82 3
l-65 472l55 25l48 -398c3 -25 4 -45 -2 -70l-7 -26c86 9 148 28 176 60l-5 499l60 15v-491c0 -144 -206 -167 -337 -167z" />
    <glyph glyph-name="uniFEE0FB51" unicode="&#xfee0;&#xfb51;" horiz-adv-x="538" 
d="M-44 620l-5 1l-16 34l124 146c31 38 59 50 95 50c79 0 109 -76 109 -120c0 -63 -48 -85 -157 -85c-56 0 -87 10 -110 20zM106 695c66 0 97 5 120 15c0 8 0 18 -3 26c-8 35 -31 67 -75 67c-20 0 -37 -3 -47 -7l-75 -88c16 -8 48 -13 80 -13zM63 -10l-9 72l4 6
c29 0 56 2 82 3l-65 472l55 25l48 -398c3 -25 4 -45 -2 -70l-7 -26c84 8 145 27 177 55c-1 12 -1 26 -1 36l-5 468l60 15v-464c0 -83 25 -106 108 -106h30c9 0 16 -17 16 -38c0 -23 -7 -40 -16 -40h-31c-78 0 -122 22 -144 71c-61 -69 -201 -81 -300 -81z" />
    <glyph glyph-name="uniFE91FE8E" unicode="&#xfe91;&#xfe8e;" horiz-adv-x="502" 
d="M241 0c-133 0 -182 48 -182 155l-5 478l60 15v-471c0 -86 38 -99 127 -99c63 0 113 17 150 50l-26 179l57 37l7 -4c11 -90 19 -151 19 -187c0 -38 -11 -69 -32 -93c-35 -40 -98 -60 -175 -60zM275 -213l-76 34v14l29 63l77 -36v-13z" />
    <glyph glyph-name="uniFE92FE8E" unicode="&#xfe92;&#xfe8e;" horiz-adv-x="551" 
d="M238 0c-130 0 -179 48 -179 155l-5 478l60 15v-471c0 -86 38 -99 124 -99c89 0 128 13 137 64l22 116l8 6l42 -13l-15 -100c-6 -38 22 -73 87 -73h32c9 0 17 -17 17 -38c0 -23 -8 -40 -17 -40h-33c-62 0 -104 24 -121 63c-31 -48 -78 -63 -159 -63zM314 -213l-76 34v14
l29 63l77 -36v-13z" />
    <glyph glyph-name="uniFB58FE8E" unicode="&#xfb58;&#xfe8e;" horiz-adv-x="502" 
d="M241 0c-133 0 -182 48 -182 155l-5 478l60 15v-471c0 -86 38 -99 127 -99c63 0 113 17 150 50l-26 179l57 37l7 -4c11 -90 19 -151 19 -187c0 -38 -11 -69 -32 -93c-35 -40 -98 -60 -175 -60zM348 -188l-70 31v13l27 58l69 -34v-11zM199 -196l-70 31v13l27 58l70 -34v-11
zM294 -298l-70 31v13l27 57l70 -33v-11z" />
    <glyph glyph-name="uniFB59FE8E" unicode="&#xfb59;&#xfe8e;" horiz-adv-x="551" 
d="M238 0c-130 0 -179 48 -179 155l-5 478l60 15v-471c0 -86 38 -99 124 -99c89 0 128 13 137 64l22 116l8 6l42 -13l-15 -100c-6 -38 22 -73 87 -73h32c9 0 17 -17 17 -38c0 -23 -8 -40 -17 -40h-33c-62 0 -104 24 -121 63c-31 -48 -78 -63 -159 -63zM359 -193l-69 31v13
l26 58l70 -34v-11zM211 -201l-70 31v13l27 58l70 -34v-11zM306 -303l-70 31v13l26 57l70 -33v-11z" />
    <glyph glyph-name="uniFE97FE8E" unicode="&#xfe97;&#xfe8e;" horiz-adv-x="502" 
d="M241 0c-133 0 -182 48 -182 155l-5 478l60 15v-471c0 -86 38 -99 127 -99c63 0 113 17 150 50l-26 179l57 37l7 -4c11 -90 19 -151 19 -187c0 -38 -11 -69 -32 -93c-35 -40 -98 -60 -175 -60zM390 427l-70 32v12l27 58l70 -34v-11zM251 419l-70 32v12l27 58l70 -34v-11z
" />
    <glyph glyph-name="uniFE98FE8E" unicode="&#xfe98;&#xfe8e;" horiz-adv-x="551" 
d="M238 0c-130 0 -179 48 -179 155l-5 478l60 15v-471c0 -86 38 -99 124 -99c89 0 128 13 137 64l22 116l8 6l42 -13l-15 -100c-6 -38 22 -73 87 -73h32c9 0 17 -17 17 -38c0 -23 -8 -40 -17 -40h-33c-62 0 -104 24 -121 63c-31 -48 -78 -63 -159 -63zM423 379l-70 31v13
l26 57l70 -33v-11zM284 371l-70 31v13l27 57l70 -33v-11z" />
    <glyph glyph-name="uniFE9BFE8E" unicode="&#xfe9b;&#xfe8e;" horiz-adv-x="502" 
d="M241 0c-133 0 -182 48 -182 155l-5 478l60 15v-471c0 -86 38 -99 127 -99c63 0 113 17 150 50l-26 179l57 37l7 -4c11 -90 19 -151 19 -187c0 -38 -11 -69 -32 -93c-35 -40 -98 -60 -175 -60zM300 518l-69 31v13l26 57l70 -33v-12zM395 415l-70 32v12l27 58l70 -33v-12z
M247 407l-70 32v12l26 58l70 -33v-12z" />
    <glyph glyph-name="uniFE9CFE8E" unicode="&#xfe9c;&#xfe8e;" horiz-adv-x="551" 
d="M238 0c-130 0 -179 48 -179 155l-5 478l60 15v-471c0 -86 38 -99 124 -99c89 0 128 13 137 64l22 116l8 6l42 -13l-15 -100c-6 -38 22 -73 87 -73h32c9 0 17 -17 17 -38c0 -23 -8 -40 -17 -40h-33c-62 0 -104 24 -121 63c-31 -48 -78 -63 -159 -63zM335 472l-70 31v13
l27 57l70 -33v-11zM430 369l-70 32v12l27 58l70 -33v-12zM282 361l-70 32v12l26 58l70 -33v-12z" />
    <glyph glyph-name="uniFE9FFE8E" unicode="&#xfe9f;&#xfe8e;" horiz-adv-x="809" 
d="M200 0c-96 4 -141 52 -141 155l-5 478l60 15v-471c0 -80 33 -97 89 -99h13c94 0 175 21 279 89l89 59l-189 66c-20 7 -32 10 -41 10c-10 0 -20 -6 -27 -16l-41 -62h-6l-29 36l28 50c25 42 41 68 83 68c39 -1 154 -54 270 -88c24 -8 48 -14 72 -19l47 -10l3 -11l-25 -62
l-77 15l-138 -96c-95 -67 -196 -107 -302 -107h-12zM459 -153l-76 34v14l29 63l77 -36v-13z" />
    <glyph glyph-name="uniFEA0FE8E" unicode="&#xfea0;&#xfe8e;" horiz-adv-x="799" 
d="M799 78c9 0 17 -17 17 -38c0 -23 -8 -40 -17 -40h-89c-97 0 -142 20 -152 112l-3 24l-41 -29c-95 -67 -196 -107 -302 -107h-9c-98 3 -144 52 -144 155l-5 478l60 15v-471c0 -82 34 -98 93 -99h9c94 0 175 21 279 89l88 59l-188 66c-20 7 -32 10 -41 10
c-10 0 -20 -6 -27 -16l-41 -62h-6l-29 36l28 50c24 42 41 68 83 68c43 -1 174 -63 298 -97c16 -4 29 -7 44 -10l47 -10l3 -11l-25 -62l-77 15l-54 -38l5 -36c8 -51 55 -51 120 -51h76zM383 -105l29 63l77 -36v-13l-30 -62l-76 34v14z" />
    <glyph glyph-name="uniFB7CFE8E" unicode="&#xfb7c;&#xfe8e;" horiz-adv-x="809" 
d="M200 0c-96 4 -141 52 -141 155l-5 478l60 15v-471c0 -80 33 -97 89 -99h13c94 0 175 21 279 89l89 59l-189 66c-20 7 -32 10 -41 10c-10 0 -20 -6 -27 -16l-41 -62h-6l-29 36l28 50c25 42 41 68 83 68c39 -1 154 -54 270 -88c24 -8 48 -14 72 -19l47 -10l3 -11l-25 -62
l-77 15l-138 -96c-95 -67 -196 -107 -302 -107h-12zM542 -155l-69 31v13l26 58l70 -34v-11zM394 -163l-70 31v13l27 58l70 -34v-11zM489 -265l-70 31v13l26 57l70 -33v-11z" />
    <glyph glyph-name="uniFB7DFE8E" unicode="&#xfb7d;&#xfe8e;" horiz-adv-x="799" 
d="M799 78c9 0 17 -17 17 -38c0 -23 -8 -40 -17 -40h-89c-97 0 -142 20 -152 112l-3 24l-41 -29c-95 -67 -196 -107 -302 -107h-9c-98 3 -144 52 -144 155l-5 478l60 15v-471c0 -82 34 -98 93 -99h9c94 0 175 21 279 89l88 59l-188 66c-20 7 -32 10 -41 10
c-10 0 -20 -6 -27 -16l-41 -62h-6l-29 36l28 50c24 42 41 68 83 68c43 -1 174 -63 298 -97c16 -4 29 -7 44 -10l47 -10l3 -11l-25 -62l-77 15l-54 -38l5 -36c8 -51 55 -51 120 -51h76zM473 -111l26 58l70 -34v-11l-27 -57l-69 31v13zM421 -95v-11l-27 -57l-70 31v13l27 58z
M419 -221l26 57l70 -33v-11l-26 -57l-70 31v13z" />
    <glyph glyph-name="uniFEA3FE8E" unicode="&#xfea3;&#xfe8e;" horiz-adv-x="809" 
d="M200 0c-96 4 -141 52 -141 155l-5 478l60 15v-471c0 -80 33 -97 89 -99h13c94 0 175 21 279 89l89 59l-189 66c-20 7 -32 10 -41 10c-10 0 -20 -6 -27 -16l-41 -62h-6l-29 36l28 50c25 42 41 68 83 68c39 -1 154 -54 270 -88c24 -8 48 -14 72 -19l47 -10l3 -11l-25 -62
l-77 15l-138 -96c-95 -67 -196 -107 -302 -107h-12z" />
    <glyph glyph-name="uniFEA4FE8E" unicode="&#xfea4;&#xfe8e;" horiz-adv-x="799" 
d="M799 78c9 0 17 -17 17 -38c0 -23 -8 -40 -17 -40h-89c-97 0 -142 20 -152 112l-3 24l-41 -29c-95 -67 -196 -107 -302 -107h-9c-98 3 -144 52 -144 155l-5 478l60 15v-471c0 -82 34 -98 93 -99h9c94 0 175 21 279 89l88 59l-188 66c-20 7 -32 10 -41 10
c-10 0 -20 -6 -27 -16l-41 -62h-6l-29 36l28 50c24 42 41 68 83 68c43 -1 174 -63 298 -97c16 -4 29 -7 44 -10l47 -10l3 -11l-25 -62l-77 15l-54 -38l5 -36c8 -51 55 -51 120 -51h76z" />
    <glyph glyph-name="uniFEA7FE8E" unicode="&#xfea7;&#xfe8e;" horiz-adv-x="809" 
d="M200 0c-96 4 -141 52 -141 155l-5 478l60 15v-471c0 -80 33 -97 89 -99h13c94 0 175 21 279 89l89 59l-189 66c-20 7 -32 10 -41 10c-10 0 -20 -6 -27 -16l-41 -62h-6l-29 36l28 50c25 42 41 68 83 68c39 -1 154 -54 270 -88c24 -8 48 -14 72 -19l47 -10l3 -11l-25 -62
l-77 15l-138 -96c-95 -67 -196 -107 -302 -107h-12zM394 455l-76 34v14l29 63l77 -36v-13z" />
    <glyph glyph-name="uniFEA8FE8E" unicode="&#xfea8;&#xfe8e;" horiz-adv-x="799" 
d="M799 78c9 0 17 -17 17 -38c0 -23 -8 -40 -17 -40h-89c-97 0 -142 20 -152 112l-3 24l-41 -29c-95 -67 -196 -107 -302 -107h-9c-98 3 -144 52 -144 155l-5 478l60 15v-471c0 -82 34 -98 93 -99h9c94 0 175 21 279 89l88 59l-188 66c-20 7 -32 10 -41 10
c-10 0 -20 -6 -27 -16l-41 -62h-6l-29 36l28 50c24 42 41 68 83 68c43 -1 174 -63 298 -97c16 -4 29 -7 44 -10l47 -10l3 -11l-25 -62l-77 15l-54 -38l5 -36c8 -51 55 -51 120 -51h76zM421 517l-30 -62l-76 34v14l29 63l77 -36v-13z" />
    <glyph glyph-name="uniFEB3FE8E" unicode="&#xfeb3;&#xfe8e;" horiz-adv-x="936" 
d="M216 0c-108 0 -157 48 -157 155l-5 478l60 15v-471c0 -86 38 -99 96 -99c77 0 111 19 134 81l34 93l11 4l38 -19l-26 -77c-4 -13 -9 -26 -14 -39c20 -27 64 -43 121 -43c96 0 122 29 124 79l2 61l51 1v-120c19 -13 49 -21 78 -21c24 0 47 6 62 20l-28 202l56 37l7 -4
c12 -88 18 -141 20 -184c0 -21 -1 -40 -6 -58c-5 -17 -12 -31 -21 -43c-23 -32 -63 -48 -105 -48c-31 0 -65 8 -87 25c-9 5 -15 12 -20 19c-26 -26 -76 -44 -134 -44c-74 0 -129 24 -150 63c-26 -46 -73 -63 -141 -63z" />
    <glyph glyph-name="uniFEB4FE8E" unicode="&#xfeb4;&#xfe8e;" horiz-adv-x="1028" 
d="M216 0c-108 0 -157 48 -157 155l-5 478l60 15v-471c0 -86 38 -99 102 -99c71 0 105 19 128 81l34 93l11 4l38 -19l-28 -83c-4 -10 -8 -22 -12 -33c20 -27 64 -43 121 -43c96 0 122 29 124 79l2 61l51 1v-120c19 -13 49 -21 77 -21c25 0 48 6 63 20l-23 163l42 36l9 -4
c5 -37 10 -73 16 -113c10 -80 46 -102 126 -102h33c9 0 17 -17 17 -38c0 -23 -8 -40 -17 -40h-33c-74 0 -112 20 -135 57c-3 -6 -8 -12 -12 -17c-23 -25 -58 -40 -101 -40c-33 0 -71 10 -94 31c-4 3 -9 8 -12 13c-26 -26 -76 -44 -134 -44c-74 0 -129 24 -150 63
c-26 -46 -73 -63 -141 -63z" />
    <glyph glyph-name="uniFEB7FE8E" unicode="&#xfeb7;&#xfe8e;" horiz-adv-x="936" 
d="M216 0c-108 0 -157 48 -157 155l-5 478l60 15v-471c0 -86 38 -99 96 -99c77 0 111 19 134 81l34 93l11 4l38 -19l-26 -77c-4 -13 -9 -26 -14 -39c20 -27 64 -43 121 -43c96 0 122 29 124 79l2 61l51 1v-120c19 -13 49 -21 78 -21c24 0 47 6 62 20l-28 202l56 37l7 -4
c12 -88 18 -141 20 -184c0 -21 -1 -40 -6 -58c-5 -17 -12 -31 -21 -43c-23 -32 -63 -48 -105 -48c-31 0 -65 8 -87 25c-9 5 -15 12 -20 19c-26 -26 -76 -44 -134 -44c-74 0 -129 24 -150 63c-26 -46 -73 -63 -141 -63zM626 448l-70 32v12l27 58l70 -34v-11zM721 346l-70 31
v13l26 58l70 -34v-11zM572 338l-70 31v13l27 58l70 -34v-11z" />
    <glyph glyph-name="uniFEB8FE8E" unicode="&#xfeb8;&#xfe8e;" horiz-adv-x="1028" 
d="M216 0c-108 0 -157 48 -157 155l-5 478l60 15v-471c0 -86 38 -99 102 -99c71 0 105 19 128 81l34 93l11 4l38 -19l-28 -83c-4 -10 -8 -22 -12 -33c20 -27 64 -43 121 -43c96 0 122 29 124 79l2 61l51 1v-120c19 -13 49 -21 77 -21c25 0 48 6 63 20l-23 163l42 36l9 -4
c5 -37 10 -73 16 -113c10 -80 46 -102 126 -102h33c9 0 17 -17 17 -38c0 -23 -8 -40 -17 -40h-33c-74 0 -112 20 -135 57c-3 -6 -8 -12 -12 -17c-23 -25 -58 -40 -101 -40c-33 0 -71 10 -94 31c-4 3 -9 8 -12 13c-26 -26 -76 -44 -134 -44c-74 0 -129 24 -150 63
c-26 -46 -73 -63 -141 -63zM626 448l-70 32v12l27 58l70 -34v-11zM721 346l-70 31v13l26 58l70 -34v-11zM572 338l-70 31v13l27 58l70 -34v-11z" />
    <glyph glyph-name="uniFEBBFE8E" unicode="&#xfebb;&#xfe8e;" horiz-adv-x="1001" 
d="M54 633l60 15v-471c0 -86 38 -99 102 -99c74 0 111 31 136 98l31 84l10 4l38 -19l-36 -109c-6 -18 15 -45 58 -53l3 23l144 164c52 60 100 90 171 90c127 0 175 -114 175 -191c0 -97 -59 -169 -288 -169h-172c-67 0 -108 26 -125 66c-26 -49 -76 -66 -145 -66
c-108 0 -157 48 -157 155zM498 81c18 -2 36 -3 57 -3h110c129 0 186 17 223 50c3 89 -43 154 -128 154c-47 0 -69 -8 -88 -17z" />
    <glyph glyph-name="uniFEBCFE8E" unicode="&#xfebc;&#xfe8e;" horiz-adv-x="1049" 
d="M218 0c-108 0 -156 48 -157 155l-4 478l59 15v-471c0 -86 38 -99 102 -99c74 0 111 31 136 98l31 84l10 4l39 -19l-37 -109c-5 -18 15 -45 58 -53l3 23l144 164c52 60 100 90 171 90c127 0 176 -114 176 -191c0 -29 -5 -56 -19 -79c20 -9 44 -12 80 -12h39
c9 0 16 -17 16 -38c0 -23 -7 -40 -16 -40h-51c-50 0 -85 14 -114 44c-43 -28 -114 -44 -224 -44h-172c-67 0 -107 26 -125 66c-26 -49 -73 -66 -145 -66zM557 78h110c129 0 186 17 224 50c2 89 -44 154 -129 154c-47 0 -68 -8 -88 -17l-174 -184c18 -2 36 -3 57 -3z" />
    <glyph glyph-name="uniFEBFFE8E" unicode="&#xfebf;&#xfe8e;" horiz-adv-x="1001" 
d="M54 633l60 15v-471c0 -86 38 -99 102 -99c74 0 111 31 136 98l31 84l10 4l38 -19l-36 -109c-6 -18 15 -45 58 -53l3 23l144 164c52 60 100 90 171 90c127 0 175 -114 175 -191c0 -97 -59 -169 -288 -169h-172c-67 0 -108 26 -125 66c-26 -49 -76 -66 -145 -66
c-108 0 -157 48 -157 155zM749 434l-76 34v14l29 63l77 -36v-13zM498 81c18 -2 36 -3 57 -3h110c129 0 186 17 223 50c3 89 -43 154 -128 154c-47 0 -69 -8 -88 -17z" />
    <glyph glyph-name="uniFEC0FE8E" unicode="&#xfec0;&#xfe8e;" horiz-adv-x="1049" 
d="M218 0c-108 0 -156 48 -157 155l-4 478l59 15v-471c0 -86 38 -99 102 -99c74 0 111 31 136 98l31 84l10 4l39 -19l-37 -109c-5 -18 15 -45 58 -53l3 23l144 164c52 60 100 90 171 90c127 0 176 -114 176 -191c0 -29 -5 -56 -19 -79c20 -9 44 -12 80 -12h39
c9 0 16 -17 16 -38c0 -23 -7 -40 -16 -40h-51c-50 0 -85 14 -114 44c-43 -28 -114 -44 -224 -44h-172c-67 0 -107 26 -125 66c-26 -49 -73 -66 -145 -66zM749 434l-76 34v14l29 63l77 -36v-13zM557 78h110c129 0 186 17 224 50c2 89 -44 154 -129 154c-47 0 -68 -8 -88 -17
l-174 -184c18 -2 36 -3 57 -3z" />
    <glyph glyph-name="uniFEC3FE8E" unicode="&#xfec3;&#xfe8e;" horiz-adv-x="759" 
d="M216 0c-108 0 -157 48 -157 155l-5 478l60 15v-471c0 -69 24 -93 77 -97l93 104l-3 449l59 15v-315c0 -48 0 -58 -16 -102c12 12 23 26 34 39c52 60 100 90 171 90c127 0 176 -114 176 -191c0 -97 -59 -169 -288 -169h-201zM254 78h169c129 0 187 17 224 50
c3 89 -44 154 -128 154c-48 0 -69 -8 -89 -17z" />
    <glyph glyph-name="uniFEC4FE8E" unicode="&#xfec4;&#xfe8e;" horiz-adv-x="805" 
d="M216 0c-108 0 -157 48 -157 155l-5 478l60 15v-471c0 -69 24 -93 77 -97l93 105l-3 448l59 15v-315c0 -48 0 -58 -16 -102c12 12 23 26 34 39c53 59 100 90 171 90c127 0 176 -114 176 -191c0 -29 -5 -56 -18 -79c20 -9 44 -12 79 -12h39c9 0 17 -17 17 -38
c0 -23 -8 -40 -17 -40h-51c-50 0 -85 14 -114 44c-43 -28 -113 -44 -223 -44h-201zM254 78h169c129 0 187 17 224 50c3 89 -44 154 -128 154c-48 0 -69 -8 -89 -17z" />
    <glyph glyph-name="uniFEC7FE8E" unicode="&#xfec7;&#xfe8e;" horiz-adv-x="759" 
d="M216 0c-108 0 -157 48 -157 155l-5 478l60 15v-471c0 -69 24 -93 77 -97l93 104l-3 449l59 15v-315c0 -48 0 -58 -16 -102c12 12 23 26 34 39c52 60 100 90 171 90c127 0 176 -114 176 -191c0 -97 -59 -169 -288 -169h-201zM529 453l-76 35v14l29 63l76 -37v-12zM254 78
h169c129 0 187 17 224 50c3 89 -44 154 -128 154c-48 0 -69 -8 -89 -17z" />
    <glyph glyph-name="uniFEC8FE8E" unicode="&#xfec8;&#xfe8e;" horiz-adv-x="805" 
d="M216 0c-108 0 -157 48 -157 155l-5 478l60 15v-471c0 -69 24 -93 77 -97l93 105l-3 448l59 15v-315c0 -48 0 -58 -16 -102c12 12 23 26 34 39c53 59 100 90 171 90c127 0 176 -114 176 -191c0 -29 -5 -56 -18 -79c20 -9 44 -12 79 -12h39c9 0 17 -17 17 -38
c0 -23 -8 -40 -17 -40h-51c-50 0 -85 14 -114 44c-43 -28 -113 -44 -223 -44h-201zM529 453l-76 35v14l29 63l76 -37v-12zM254 78h169c129 0 187 17 224 50c3 89 -44 154 -128 154c-48 0 -69 -8 -89 -17z" />
    <glyph glyph-name="uniFECBFE8E" unicode="&#xfecb;&#xfe8e;" horiz-adv-x="623" 
d="M199 0c-108 0 -155 50 -156 155l-4 478l59 15v-471c0 -80 31 -99 101 -99c15 0 37 1 54 3c15 1 31 4 45 7c-40 18 -60 50 -60 94c0 27 7 58 20 95c29 79 86 100 161 100c36 0 61 -6 82 -11l5 -11l-8 -55c-17 2 -32 4 -46 5c-21 2 -39 3 -52 3c-37 0 -64 -6 -88 -14
c-8 -23 -13 -39 -19 -61c-2 -9 -3 -18 -3 -25c0 -49 40 -89 110 -89c20 0 50 6 69 12c38 11 76 24 114 35l9 -9v-56l-70 -24c-66 -23 -147 -52 -227 -67c-32 -6 -67 -10 -96 -10z" />
    <glyph glyph-name="uniFECCFE8E" unicode="&#xfecc;&#xfe8e;" horiz-adv-x="749" 
d="M217 0c-108 0 -158 48 -158 155l-5 478l60 15v-471c0 -81 32 -99 103 -99c34 0 62 2 89 6c31 4 58 11 84 21c-8 10 -17 19 -26 31c-30 37 -64 78 -100 118l4 14l-59 -9l-7 7l14 63l99 18c52 10 123 21 167 21c94 0 161 -20 161 -98c0 -58 -62 -112 -131 -169
c41 -18 93 -23 170 -23h67c9 0 17 -17 17 -38c0 -23 -8 -40 -17 -40h-87c-97 0 -159 10 -216 53c-33 -20 -67 -34 -108 -42c-34 -7 -73 -11 -121 -11zM452 136c52 33 102 71 143 112c2 34 -46 42 -114 42c-52 0 -101 -6 -155 -14c26 -29 51 -57 77 -87c18 -22 34 -39 49 -53
z" />
    <glyph glyph-name="uniFECFFE8E" unicode="&#xfecf;&#xfe8e;" horiz-adv-x="623" 
d="M199 0c-108 0 -155 50 -156 155l-4 478l59 15v-471c0 -80 31 -99 101 -99c15 0 37 1 54 3c15 1 31 4 45 7c-40 18 -60 50 -60 94c0 27 7 58 20 95c29 79 86 100 161 100c36 0 61 -6 82 -11l5 -11l-8 -55c-17 2 -32 4 -46 5c-21 2 -39 3 -52 3c-37 0 -64 -6 -88 -14
c-8 -23 -13 -39 -19 -61c-2 -9 -3 -18 -3 -25c0 -49 40 -89 110 -89c20 0 50 6 69 12c38 11 76 24 114 35l9 -9v-56l-70 -24c-66 -23 -147 -52 -227 -67c-32 -6 -67 -10 -96 -10zM376 453l-77 35v14l29 63l77 -37v-12z" />
    <glyph glyph-name="uniFED0FE8E" unicode="&#xfed0;&#xfe8e;" horiz-adv-x="749" 
d="M217 0c-108 0 -158 48 -158 155l-5 478l60 15v-471c0 -81 32 -99 103 -99c34 0 62 2 89 6c31 4 58 11 84 21c-8 10 -17 19 -26 31c-30 37 -64 78 -100 118l4 14l-59 -9l-7 7l14 63l99 18c52 10 123 21 167 21c94 0 161 -20 161 -98c0 -58 -62 -112 -131 -169
c41 -18 93 -23 170 -23h67c9 0 17 -17 17 -38c0 -23 -8 -40 -17 -40h-87c-97 0 -159 10 -216 53c-33 -20 -67 -34 -108 -42c-34 -7 -73 -11 -121 -11zM437 459l-76 35v13l29 63l77 -36v-13zM452 136c52 33 102 71 143 112c2 34 -46 42 -114 42c-52 0 -101 -6 -155 -14
c26 -29 51 -57 77 -87c18 -22 34 -39 49 -53z" />
    <glyph glyph-name="uniFED3FE8E" unicode="&#xfed3;&#xfe8e;" horiz-adv-x="569" 
d="M349 577l-76 34v14l29 63l77 -37v-12zM220 0c-110 0 -161 48 -161 155l-5 478l60 15v-471c0 -86 40 -99 106 -99c124 0 192 19 228 47c4 26 6 51 6 74c-56 -14 -107 -17 -142 -17c-62 0 -99 24 -105 78c-1 10 0 21 1 34c14 140 61 210 140 210c70 0 105 -37 126 -75
c24 -44 40 -122 41 -192c0 -77 -17 -147 -53 -179c-52 -45 -156 -58 -242 -58zM331 256c35 0 74 3 121 10c-5 60 -23 123 -38 155c-24 10 -43 14 -69 14c-48 0 -75 -21 -84 -120c-1 -7 -1 -12 -1 -17c0 -34 21 -42 71 -42z" />
    <glyph glyph-name="uniFED4FE8E" unicode="&#xfed4;&#xfe8e;" horiz-adv-x="633" 
d="M216 0c-108 0 -157 48 -157 155l-5 478l60 15v-471c0 -86 38 -99 102 -99c21 0 51 2 78 5c-29 29 -40 70 -25 125c22 81 41 163 115 163c137 0 176 -77 176 -151c0 -54 -24 -102 -53 -140c17 0 34 -2 54 -2h72c10 0 17 -17 17 -38c0 -23 -7 -40 -17 -40h-81
c-57 0 -119 7 -171 24c-53 -16 -115 -24 -165 -24zM411 448l-76 35v13l29 63l76 -36v-13zM422 91c58 40 91 77 91 119c0 52 -35 79 -120 89c-13 1 -28 3 -45 3c-13 -34 -23 -64 -30 -93c-14 -59 19 -100 104 -118z" />
    <glyph glyph-name="uniFED3FEE0FEE0FEEA" unicode="&#xfed3;&#xfee0;&#xfee0;&#xfeea;" horiz-adv-x="1340" 
d="M559 682l-4 143l43 7v-87c0 -23 -2 -48 -4 -62zM1131 587l-75 34v13l28 62l75 -36v-12zM517 509c-44 0 -81 17 -81 66c0 24 12 53 23 86l29 -14c-7 -23 -16 -55 -16 -67c0 -18 20 -24 41 -24c23 0 47 9 47 22v53h35v-44v-18c6 -7 28 -12 48 -12c15 0 28 5 34 10l-21 94
l39 25c13 -60 19 -88 19 -111c0 -36 -27 -66 -80 -66c-20 0 -43 8 -61 23c-14 -15 -33 -23 -56 -23zM438 0c-63 0 -108 21 -131 93l-22 -49c-30 -4 -58 -5 -85 -5c-92 0 -146 30 -146 101c1 66 33 120 135 169l105 52v67l61 16v-282c0 -59 30 -84 88 -84c60 0 96 19 116 42
l-10 301l60 15l6 -227c3 -101 39 -131 114 -131c53 0 74 9 99 33l-5 451l59 15l1 -393c0 -90 29 -106 127 -106c62 0 156 12 209 47c4 26 5 51 6 74c-56 -14 -107 -17 -142 -17c-66 0 -105 27 -106 89c0 7 0 14 1 23c14 140 62 210 141 210c69 0 105 -37 126 -75
c23 -44 39 -123 40 -192c1 -77 -16 -147 -53 -179c-52 -46 -164 -58 -223 -58c-90 0 -133 17 -156 59c-27 -42 -77 -59 -131 -59c-74 0 -123 39 -133 88c-21 -58 -76 -88 -151 -88zM1101 256c36 0 74 3 122 10c-6 60 -24 123 -39 155c-24 10 -42 14 -69 14
c-47 0 -74 -21 -84 -120c-1 -12 0 -21 1 -28c5 -23 25 -31 69 -31zM225 115c24 0 47 0 69 2v175l-57 -27l-128 -60c-4 -13 -5 -23 -5 -32c-1 -49 37 -58 121 -58z" />
    <glyph glyph-name="uniFED7FE8E" unicode="&#xfed7;&#xfe8e;" horiz-adv-x="569" 
d="M416 587l-70 32v12l27 58l70 -34v-11zM278 579l-70 32v12l26 58l70 -34v-11zM220 0c-110 0 -161 48 -161 155l-5 478l60 15v-471c0 -86 40 -99 106 -99c124 0 192 19 228 47c4 26 6 51 6 74c-56 -14 -107 -17 -142 -17c-62 0 -99 24 -105 78c-1 10 0 21 1 34
c14 140 61 210 140 210c70 0 105 -37 126 -75c24 -44 40 -122 41 -192c0 -77 -17 -147 -53 -179c-52 -45 -156 -58 -242 -58zM331 256c35 0 74 3 121 10c-5 60 -23 123 -38 155c-24 10 -43 14 -69 14c-48 0 -75 -21 -84 -120c-1 -7 -1 -12 -1 -17c0 -34 21 -42 71 -42z" />
    <glyph glyph-name="uniFED8FE8E" unicode="&#xfed8;&#xfe8e;" horiz-adv-x="633" 
d="M216 0c-108 0 -157 48 -157 155l-5 478l60 15v-471c0 -86 38 -99 102 -99c21 0 51 2 78 5c-29 29 -40 70 -25 125c22 81 41 163 115 163c137 0 176 -77 176 -151c0 -54 -24 -102 -53 -140c17 0 34 -2 54 -2h72c10 0 17 -17 17 -38c0 -23 -7 -40 -17 -40h-81
c-57 0 -119 7 -171 24c-53 -16 -115 -24 -165 -24zM477 460l-70 32v12l27 58l70 -34v-11zM339 452l-70 32v12l26 58l70 -34v-11zM422 91c58 40 91 77 91 119c0 52 -35 79 -120 89c-13 1 -28 3 -45 3c-13 -34 -23 -64 -30 -93c-14 -59 19 -100 104 -118z" />
    <glyph glyph-name="uniFB90FE8E" unicode="&#xfb90;&#xfe8e;" horiz-adv-x="623" 
d="M223 0c-115 0 -164 48 -164 155l-5 478l60 15v-471c0 -86 38 -99 110 -99c88 0 174 16 218 49c-7 35 -28 70 -92 134l-177 176l15 94l383 113l-2 -64l-343 -102l201 -203c40 -40 67 -88 64 -130c-2 -40 -20 -69 -45 -91c-59 -47 -160 -54 -223 -54z" />
    <glyph glyph-name="uniFB91FE8E" unicode="&#xfb91;&#xfe8e;" horiz-adv-x="708" 
d="M223 0c-115 0 -164 48 -164 155l-5 478l60 15v-471c0 -86 38 -99 109 -99c86 0 154 16 199 49c-8 35 -33 66 -89 128l-161 183l14 94l381 112l-3 -64l-339 -101l180 -204c137 -155 178 -193 285 -197h20c8 0 15 -17 15 -38c0 -23 -7 -40 -15 -40h-24
c-103 4 -162 38 -226 118c-3 -20 -11 -36 -22 -50c-50 -59 -155 -68 -215 -68z" />
    <glyph glyph-name="uniFB94FE8E" unicode="&#xfb94;&#xfe8e;" horiz-adv-x="623" 
d="M196 588l9 60l239 70l-2 -58zM223 0c-115 0 -164 48 -164 155l-5 478l60 15v-471c0 -86 38 -99 110 -99c88 0 174 16 218 49c-7 35 -28 70 -92 134l-177 176l15 94l383 113l-2 -64l-343 -102l201 -203c40 -40 67 -88 64 -130c-2 -40 -20 -69 -45 -91
c-59 -47 -160 -54 -223 -54z" />
    <glyph glyph-name="uniFB95FE8E" unicode="&#xfb95;&#xfe8e;" horiz-adv-x="708" 
d="M194 589l9 60l239 69l-2 -57zM223 0c-115 0 -164 48 -164 155l-5 478l60 15v-471c0 -86 38 -99 109 -99c86 0 154 16 199 49c-8 35 -33 66 -89 128l-161 183l14 94l381 112l-3 -64l-339 -101l180 -204c137 -155 178 -193 285 -197h20c8 0 15 -17 15 -38
c0 -23 -7 -40 -15 -40h-24c-103 4 -162 38 -226 118c-3 -20 -11 -36 -22 -50c-50 -59 -155 -68 -215 -68z" />
    <glyph glyph-name="uniFEDFFEE0FEEA" unicode="&#xfedf;&#xfee0;&#xfeea;" horiz-adv-x="933" 
d="M564 682l-4 143l43 7v-87c0 -23 -2 -48 -5 -62zM521 509c-43 0 -81 17 -81 66c0 24 12 53 24 86l28 -14c-6 -23 -15 -55 -15 -67c0 -18 20 -24 41 -24c22 0 46 9 46 22l1 53h35v-40c0 -8 0 -15 -1 -22c7 -7 29 -12 49 -12c15 0 28 5 34 10l-21 94l38 25
c13 -60 20 -88 20 -111c0 -36 -28 -66 -80 -66c-21 0 -43 8 -61 23c-14 -15 -33 -23 -57 -23zM438 0c-61 0 -108 21 -131 84l-22 -40c-30 -4 -58 -5 -85 -5c-92 0 -146 30 -146 101c1 66 46 119 143 168l97 49v71l61 17v-283c0 -59 30 -84 88 -84c60 0 96 19 116 42l-10 301
l60 15l6 -227c3 -101 39 -131 114 -131c52 0 71 9 97 34c0 57 -9 197 -26 398l60 15c13 -170 19 -271 19 -361c0 -53 -13 -90 -35 -115c-30 -37 -76 -49 -122 -49c-74 0 -123 39 -133 88c-21 -58 -76 -88 -151 -88zM225 115c23 0 47 1 69 2v166l-32 -14
c-69 -30 -106 -46 -153 -74c-4 -12 -5 -22 -5 -30c1 -44 38 -50 121 -50z" />
    <glyph glyph-name="uniFC43" unicode="&#xfedf;&#xfef0;" horiz-adv-x="631" arabic-form="isolated" 
d="M55 -27c5 61 22 140 35 193l39 -2l4 -7c-10 -46 -25 -115 -30 -162c-11 -105 53 -130 161 -130c115 0 210 40 258 67l-204 76l-3 8l23 62c74 5 125 25 154 50l-5 505l59 15l1 -491c0 -78 -47 -119 -113 -138c40 -14 91 -32 109 -41c24 -12 33 -30 33 -48
c0 -24 -16 -49 -40 -66c-51 -37 -153 -77 -288 -77c-121 0 -203 49 -193 186z" />
    <glyph glyph-name="uniFC86" unicode="&#xfee0;&#xfef0;" horiz-adv-x="700" arabic-form="final" 
d="M248 -213c-121 0 -203 49 -193 186c5 61 22 140 35 193l39 -2l4 -7c-10 -46 -25 -115 -30 -162c-11 -105 53 -130 161 -130c115 0 210 40 258 67l-204 76l-3 8l23 62c74 5 125 25 154 50l-5 505l59 15l1 -417c0 -132 56 -153 131 -153h22c9 0 17 -17 17 -38
c0 -23 -8 -40 -17 -40h-23c-63 0 -119 21 -151 80c-18 -31 -52 -50 -92 -61c40 -14 91 -32 109 -41c23 -12 33 -30 33 -48c1 -24 -16 -48 -40 -66c-51 -37 -153 -77 -288 -77z" />
    <glyph glyph-name="uniFEE3FE8E" unicode="&#xfee3;&#xfe8e;" horiz-adv-x="677" 
d="M54 633l60 15v-471c0 -86 38 -99 84 -99c68 0 98 37 119 75l63 108c23 41 53 63 102 63c96 0 150 -114 139 -269l-37 -65c-97 1 -202 19 -267 75c-26 -39 -54 -65 -119 -65c-90 0 -139 48 -139 155zM360 126c31 -31 120 -59 208 -61c3 102 -30 180 -93 181
c-15 0 -32 -3 -51 -7c-23 -42 -43 -76 -64 -113z" />
    <glyph glyph-name="uniFC88" unicode="&#xfee4;&#xfe8e;" horiz-adv-x="738" arabic-form="final" 
d="M584 -10c-97 1 -202 19 -267 75c-26 -38 -51 -65 -119 -65c-89 0 -139 48 -139 155l-5 478l60 15v-471c0 -86 38 -99 84 -99c70 0 98 38 122 79l58 100c24 42 56 67 105 67s85 -22 106 -41c9 -37 18 -78 25 -105c19 -77 51 -99 124 -100c9 0 17 -17 17 -38
c0 -23 -8 -40 -17 -40h-13c-35 0 -83 14 -109 56l-4 -16zM567 64c-2 57 -13 109 -26 164c-17 11 -39 17 -67 17c-54 0 -73 -49 -114 -119c32 -31 120 -59 207 -62z" />
    <glyph glyph-name="uniFEE7FE8E" unicode="&#xfee7;&#xfe8e;" horiz-adv-x="502" 
d="M241 0c-133 0 -182 48 -182 155l-5 478l60 15v-471c0 -86 38 -99 127 -99c63 0 113 17 150 50l-26 179l57 37l7 -4c11 -90 19 -151 19 -187c0 -38 -11 -69 -32 -93c-35 -40 -98 -60 -175 -60zM358 427l-77 35v13l29 63l77 -36v-13z" />
    <glyph glyph-name="uniFEE8FE8E" unicode="&#xfee8;&#xfe8e;" horiz-adv-x="551" 
d="M238 0c-130 0 -179 48 -179 155l-5 478l60 15v-471c0 -86 38 -99 124 -99c89 0 128 13 137 64l22 116l8 6l42 -13l-15 -100c-6 -38 22 -73 87 -73h32c9 0 17 -17 17 -38c0 -23 -8 -40 -17 -40h-33c-62 0 -104 24 -121 63c-31 -48 -78 -63 -159 -63zM320 366l-77 34v14
l29 63l77 -36v-13z" />
    <glyph glyph-name="uniFEEBFE8E" unicode="&#xfeeb;&#xfe8e;" horiz-adv-x="783" 
d="M210 0c-97 0 -146 48 -147 155l-4 478l59 15v-471c0 -86 38 -99 104 -99c23 0 53 3 80 9c-26 16 -39 39 -41 67c-4 20 -1 44 7 72c16 56 33 95 51 120l-38 12l15 63l10 5l220 -71c146 -46 202 -95 205 -217c0 -21 -1 -45 -3 -72l-45 -65l-176 20c-36 4 -74 9 -107 18
c-59 -26 -134 -39 -190 -39zM414 113c51 30 82 72 82 111c0 38 -23 66 -71 83c-20 8 -42 12 -68 13c-13 -17 -29 -50 -40 -93c-5 -18 -5 -34 -1 -47c10 -33 43 -53 98 -67zM678 74c1 24 1 43 0 61c-5 56 -25 100 -104 125l-37 13c5 -12 7 -25 7 -39c-1 -51 -19 -97 -52 -135
l43 -6z" />
    <glyph glyph-name="uniFEECFE8E" unicode="&#xfeec;&#xfe8e;" horiz-adv-x="686" 
d="M385 -238c-82 81 -122 163 -126 239c-14 0 -29 -1 -43 -1c-108 0 -157 48 -157 155l-5 478l60 15v-471c0 -86 38 -99 102 -99h53c18 97 43 182 75 287l60 42l58 -63c75 -81 84 -127 84 -164c0 -25 -2 -50 -18 -74c-37 -55 -100 -92 -211 -102c8 -65 50 -124 103 -174
l59 107c48 86 86 141 184 141h23c9 0 16 -17 16 -38c0 -23 -7 -40 -16 -40h-26c-79 0 -98 -31 -138 -104l-75 -134h-62zM324 79c105 7 156 47 175 82c0 31 -40 90 -107 162c-30 -88 -55 -161 -68 -244z" />
    <glyph glyph-name="uniFBE8FE8E" unicode="&#xfbe8;&#xfe8e;" horiz-adv-x="502" 
d="M241 0c-133 0 -182 48 -182 155l-5 478l60 15v-471c0 -86 38 -99 127 -99c63 0 113 17 150 50l-26 179l57 37l7 -4c11 -90 19 -151 19 -187c0 -38 -11 -69 -32 -93c-35 -40 -98 -60 -175 -60z" />
    <glyph glyph-name="uniFBE9FE8E" unicode="&#xfbe9;&#xfe8e;" horiz-adv-x="551" 
d="M238 0c-130 0 -179 48 -179 155l-5 478l60 15v-471c0 -86 38 -99 124 -99c89 0 128 13 137 64l22 116l8 6l42 -13l-15 -100c-6 -38 22 -73 87 -73h32c9 0 17 -17 17 -38c0 -23 -8 -40 -17 -40h-33c-62 0 -104 24 -121 63c-31 -48 -78 -63 -159 -63z" />
    <glyph glyph-name="uniFEF3FE8E" unicode="&#xfef3;&#xfe8e;" horiz-adv-x="502" 
d="M241 0c-133 0 -182 48 -182 155l-5 478l60 15v-471c0 -86 38 -99 127 -99c63 0 113 17 150 50l-26 179l57 37l7 -4c11 -90 19 -151 19 -187c0 -38 -11 -69 -32 -93c-35 -40 -98 -60 -175 -60zM342 -205l-70 32v12l26 58l70 -33v-12zM205 -213l-70 32v12l27 58l70 -33v-12
z" />
    <glyph glyph-name="uniFEF4FE8E" unicode="&#xfef4;&#xfe8e;" horiz-adv-x="551" 
d="M238 0c-130 0 -179 48 -179 155l-5 478l60 15v-471c0 -86 38 -99 124 -99c89 0 128 13 137 64l22 116l8 6l42 -13l-15 -100c-6 -38 22 -73 87 -73h32c9 0 17 -17 17 -38c0 -23 -8 -40 -17 -40h-33c-62 0 -104 24 -121 63c-31 -48 -78 -63 -159 -63zM377 -205l-70 32v12
l26 58l70 -33v-12zM240 -213l-70 32v12l27 58l70 -33v-12z" />
    <glyph glyph-name="uniFBEA" unicode="&#xfe8b;&#xfe8e;" horiz-adv-x="502" arabic-form="isolated" 
d="M241 0c-133 0 -182 48 -182 155l-5 478l60 15v-471c0 -86 38 -99 127 -99c63 0 113 17 150 50l-26 179l57 37l7 -4c11 -90 19 -151 19 -187c0 -38 -11 -69 -32 -93c-35 -40 -98 -60 -175 -60zM176 336l9 45l50 20c-30 12 -47 43 -47 76c0 53 41 86 91 90c9 1 17 0 27 -1
c12 -1 24 -4 37 -6v-47c-9 2 -18 3 -26 4c-14 2 -26 3 -37 3c-24 0 -42 -4 -52 -10c-2 -9 -3 -17 -3 -25c0 -33 23 -52 51 -52c13 0 27 1 42 6l68 20l3 -3l-9 -46l-25 -9l-176 -68z" />
    <glyph glyph-name="uniFBEB" unicode="&#xfe8c;&#xfe8e;" horiz-adv-x="551" arabic-form="final" 
d="M238 0c-130 0 -179 48 -179 155l-5 478l60 15v-471c0 -86 38 -99 124 -99c89 0 128 13 137 64l22 116l8 6l42 -13l-15 -100c-6 -38 22 -73 87 -73h32c9 0 17 -17 17 -38c0 -23 -8 -40 -17 -40h-33c-62 0 -104 24 -121 63c-31 -48 -78 -63 -159 -63zM194 270l9 44l50 21
c-30 11 -47 42 -47 75c0 53 41 86 91 91c9 1 17 0 27 -1c12 -1 24 -4 37 -6v-47l-26 3c-14 2 -26 3 -37 3c-24 0 -42 -4 -52 -9c-2 -9 -3 -17 -3 -26c0 -33 23 -52 51 -52c13 0 27 2 42 6l68 21l3 -3l-9 -46l-25 -10c-59 -22 -117 -45 -176 -67z" />
    <glyph glyph-name="uniFBFEFE8E" unicode="&#xfbfe;&#xfe8e;" horiz-adv-x="502" 
d="M241 0c-133 0 -182 48 -182 155l-5 478l60 15v-471c0 -86 38 -99 127 -99c63 0 113 17 150 50l-26 179l57 37l7 -4c11 -90 19 -151 19 -187c0 -38 -11 -69 -32 -93c-35 -40 -98 -60 -175 -60zM342 -205l-70 32v12l26 58l70 -33v-12zM205 -213l-70 32v12l27 58l70 -33v-12
z" />
    <glyph glyph-name="uniFBFFFE8E" unicode="&#xfbff;&#xfe8e;" horiz-adv-x="551" 
d="M238 0c-130 0 -179 48 -179 155l-5 478l60 15v-471c0 -86 38 -99 124 -99c89 0 128 13 137 64l22 116l8 6l42 -13l-15 -100c-6 -38 22 -73 87 -73h32c9 0 17 -17 17 -38c0 -23 -8 -40 -17 -40h-33c-62 0 -104 24 -121 63c-31 -48 -78 -63 -159 -63zM351 -205l-70 32v12
l26 58l70 -33v-12zM214 -213l-70 32v12l27 58l70 -33v-12z" />
    <glyph glyph-name="uniFDF2" unicode="&#x627;&#xfedf;&#xfee0;&#xfeea;" horiz-adv-x="1105" arabic-form="isolated" 
d="M564 682l-4 143l43 7v-87c0 -23 -2 -48 -5 -62zM521 509c-43 0 -81 17 -81 66c0 24 12 53 24 86l28 -14c-6 -23 -15 -55 -15 -67c0 -18 20 -24 41 -24c22 0 46 9 46 22l1 53h35v-40c0 -8 0 -15 -1 -22c7 -7 29 -12 49 -12c15 0 28 5 34 10l-21 94l38 25
c13 -60 20 -88 20 -111c0 -36 -28 -66 -80 -66c-21 0 -43 8 -61 23c-14 -15 -33 -23 -57 -23zM993 -9l-6 6c8 79 9 128 8 181l-4 455l59 15v-456c0 -89 -5 -121 -22 -191zM438 0c-61 0 -108 21 -131 84l-22 -40c-30 -4 -58 -5 -85 -5c-92 0 -146 30 -146 101
c1 66 46 119 143 168l97 49v71l61 17v-283c0 -59 30 -84 88 -84c60 0 96 19 116 42l-10 301l60 15l6 -227c3 -101 39 -131 114 -131c52 0 71 9 97 34c0 57 -9 197 -26 398l60 15c13 -170 19 -271 19 -361c0 -53 -13 -90 -35 -115c-30 -37 -76 -49 -122 -49
c-74 0 -123 39 -133 88c-21 -58 -76 -88 -151 -88zM225 115c23 0 47 1 69 2v166l-32 -14c-69 -30 -106 -46 -153 -74c-4 -12 -5 -22 -5 -30c1 -44 38 -50 121 -50z" />
    <glyph glyph-name="uniFE8E" unicode="&#x627;" horiz-adv-x="250" arabic-form="final" 
d="M219 0c-115 0 -160 53 -160 155l-5 478l60 15v-471c0 -80 34 -99 106 -99h30c10 0 17 -17 17 -38c0 -23 -7 -40 -17 -40h-31z" />
    <glyph glyph-name="uniFE84" unicode="&#x623;" horiz-adv-x="250" arabic-form="final" 
d="M-19 608l8 45l50 20c-29 12 -47 43 -47 75c0 53 41 86 91 91c10 1 18 0 27 -1c12 -1 25 -4 37 -6v-47c-8 1 -17 3 -26 4c-14 1 -26 2 -36 2c-25 0 -42 -4 -52 -9c-3 -9 -3 -17 -3 -26c0 -33 22 -51 50 -51c14 0 28 1 42 5l69 21l2 -3l-8 -46l-25 -10
c-59 -22 -117 -45 -176 -67zM219 0c-116 0 -160 53 -161 155l-4 393l59 15v-386c0 -80 34 -99 106 -99h31c9 0 16 -17 16 -38c0 -23 -7 -40 -16 -40h-31z" />
    <glyph glyph-name="uniFE88" unicode="&#x625;" horiz-adv-x="250" arabic-form="final" 
d="M219 0c-115 0 -160 53 -160 155l-5 478l60 15v-471c0 -80 34 -99 106 -99h30c10 0 17 -17 17 -38c0 -23 -7 -40 -17 -40h-31zM31 -297l8 45l50 20c-29 12 -47 43 -47 75c0 53 41 86 91 91c9 1 17 0 27 -1c12 -1 24 -4 37 -6v-47c-9 1 -18 3 -26 4c-14 1 -26 2 -36 2
c-25 0 -43 -4 -53 -9c-2 -9 -3 -17 -3 -26c0 -33 23 -51 51 -51c13 0 27 1 42 5l68 21l3 -3l-8 -46l-26 -10c-59 -22 -117 -45 -176 -67z" />
    <glyph glyph-name="uniFE82" unicode="&#x622;" horiz-adv-x="250" arabic-form="final" 
d="M-42 609l-31 21l11 30c10 28 26 58 63 56c54 -4 103 -31 242 -2l4 -7l-18 -49c-119 -30 -183 -10 -243 4l-21 -51zM219 0c-116 0 -160 53 -161 155l-4 393l59 15v-386c0 -80 34 -99 106 -99h31c9 0 16 -17 16 -38c0 -23 -7 -40 -16 -40h-31z" />
    <glyph glyph-name="uniFB51" unicode="&#x671;" horiz-adv-x="250" arabic-form="final" 
d="M-57 584l-5 1l-16 34l124 146c32 38 60 50 95 50c80 0 110 -76 110 -120c0 -63 -49 -85 -157 -85c-56 0 -88 10 -110 20zM94 659c65 0 96 5 119 15c1 8 0 18 -2 26c-9 35 -32 67 -75 67c-20 0 -37 -3 -47 -7l-75 -88c15 -8 47 -13 80 -13zM219 0c-116 0 -160 53 -161 155
l-4 393l59 15v-386c0 -80 34 -99 106 -99h31c9 0 16 -17 16 -38c0 -23 -7 -40 -16 -40h-31z" />
    <glyph glyph-name="uni066E.init" unicode="&#x66e;" horiz-adv-x="318" 
d="M0 0c-9 0 -17 17 -17 40c0 21 8 38 17 38c96 0 170 17 207 50l-26 179l57 37l7 -4c11 -90 19 -151 19 -187c0 -52 -23 -87 -57 -110c-54 -36 -136 -43 -207 -43z" />
    <glyph glyph-name="uni066E.medi" unicode="&#x66e;" horiz-adv-x="366" 
d="M0 0c-9 0 -17 17 -17 40c0 21 8 38 17 38h70c70 0 111 14 120 64l22 116l8 6l42 -13l-15 -100c-6 -38 22 -73 87 -73h32c9 0 17 -17 17 -38c0 -23 -8 -40 -17 -40h-33c-63 0 -104 24 -121 63c-31 -48 -79 -63 -145 -63h-67z" />
    <glyph glyph-name="uni066E.fina" unicode="&#x66e;" horiz-adv-x="799" 
d="M284 -10c-199 0 -234 77 -229 161c1 20 5 51 11 87l11 65l38 5l6 -5l-17 -126c-8 -59 12 -109 198 -109c231 0 310 14 321 74l21 116l9 6l42 -13l-16 -100c-5 -38 23 -73 88 -73h32c9 0 16 -17 16 -38c0 -23 -7 -40 -16 -40h-34c-63 0 -104 25 -122 65
c-45 -72 -214 -75 -359 -75z" />
    <glyph glyph-name="uniFE90" unicode="&#x628;" horiz-adv-x="799" arabic-form="final" 
d="M284 -10c-199 0 -234 77 -229 161c1 20 5 51 11 87l11 65l38 5l6 -5l-17 -126c-8 -59 12 -109 198 -109c231 0 310 14 321 74l21 116l9 6l42 -13l-16 -100c-5 -38 23 -73 88 -73h32c9 0 16 -17 16 -38c0 -23 -7 -40 -16 -40h-34c-63 0 -104 25 -122 65
c-45 -72 -214 -75 -359 -75zM356 -213l-76 34v14l29 63l77 -36v-13z" />
    <glyph glyph-name="uniFE92" unicode="&#x628;" horiz-adv-x="366" arabic-form="medial" 
d="M0 0c-9 0 -17 17 -17 40c0 21 8 38 17 38h70c70 0 111 14 120 64l22 116l8 6l42 -13l-15 -100c-6 -38 22 -73 87 -73h32c9 0 17 -17 17 -38c0 -23 -8 -40 -17 -40h-33c-63 0 -104 24 -121 63c-31 -48 -79 -63 -145 -63h-67zM106 -213l-76 34v14l29 63l77 -36v-13z" />
    <glyph glyph-name="uniFE91" unicode="&#x628;" horiz-adv-x="318" arabic-form="initial" 
d="M0 0c-9 0 -17 17 -17 40c0 21 8 38 17 38c96 0 170 17 207 50l-26 179l57 37l7 -4c11 -90 19 -151 19 -187c0 -52 -23 -87 -57 -110c-54 -36 -136 -43 -207 -43zM109 -213l-77 34v14l29 63l77 -36v-13z" />
    <glyph glyph-name="uniFB57" unicode="&#x67e;" horiz-adv-x="799" arabic-form="final" 
d="M284 -10c-199 0 -234 77 -229 161c1 20 5 51 11 87l11 65l38 5l6 -5l-17 -126c-8 -59 12 -109 198 -109c231 0 310 14 321 74l21 116l9 6l42 -13l-16 -100c-5 -38 23 -73 88 -73h32c9 0 16 -17 16 -38c0 -23 -7 -40 -16 -40h-34c-63 0 -104 25 -122 65
c-45 -72 -214 -75 -359 -75zM458 -205l-69 31v13l26 58l70 -34v-11zM310 -213l-70 31v13l27 58l70 -34v-11zM405 -315l-70 31v13l26 57l70 -33v-11z" />
    <glyph glyph-name="uniFB59" unicode="&#x67e;" horiz-adv-x="366" arabic-form="medial" 
d="M0 0c-9 0 -17 17 -17 40c0 21 8 38 17 38h70c70 0 111 14 120 64l22 116l8 6l42 -13l-15 -100c-6 -38 22 -73 87 -73h32c9 0 17 -17 17 -38c0 -23 -8 -40 -17 -40h-33c-63 0 -104 24 -121 63c-31 -48 -79 -63 -145 -63h-67zM254 -205l-69 31v13l26 58l70 -34v-11z
M106 -213l-70 31v13l27 58l70 -34v-11zM201 -315l-70 31v13l26 57l70 -33v-11z" />
    <glyph glyph-name="uniFB58" unicode="&#x67e;" horiz-adv-x="318" arabic-form="initial" 
d="M0 0c-9 0 -17 17 -17 40c0 21 8 38 17 38c96 0 170 17 207 50l-26 179l57 37l7 -4c11 -90 19 -151 19 -187c0 -52 -23 -87 -57 -110c-54 -36 -136 -43 -207 -43zM228 -205l-69 31v13l26 58l70 -34v-11zM80 -213l-70 31v13l27 58l70 -34v-11zM175 -315l-70 31v13l26 57
l70 -33v-11z" />
    <glyph glyph-name="uniFB5A" unicode="&#x680;" horiz-adv-x="783" arabic-form="isolated" 
d="M284 -10c-199 0 -234 77 -229 161c1 20 5 51 11 87l11 65l38 5l7 -5l-17 -126c-9 -59 12 -109 197 -109c224 0 332 30 369 59c-7 58 -16 120 -25 186l56 36l7 -4c12 -95 19 -151 19 -188c0 -43 -11 -76 -37 -97c-82 -62 -284 -70 -407 -70zM463 -190l-70 32v12l27 58
l70 -33v-12zM328 -198l-70 32v12l27 58l70 -33v-12zM463 -317l-70 32v12l27 58l70 -33v-12zM328 -325l-70 32v12l27 58l70 -33v-12z" />
    <glyph glyph-name="uniFB5B" unicode="&#x680;" horiz-adv-x="799" arabic-form="final" 
d="M284 -10c-199 0 -234 77 -229 161c1 20 5 51 11 87l11 65l38 5l6 -5l-17 -126c-8 -59 12 -109 198 -109c231 0 310 14 321 74l21 116l9 6l42 -13l-16 -100c-5 -38 23 -73 88 -73h32c9 0 16 -17 16 -38c0 -23 -7 -40 -16 -40h-34c-63 0 -104 25 -122 65
c-45 -72 -214 -75 -359 -75zM463 -190l-70 32v12l27 58l70 -33v-12zM328 -198l-70 32v12l27 58l70 -33v-12zM463 -317l-70 32v12l27 58l70 -33v-12zM328 -325l-70 32v12l27 58l70 -33v-12z" />
    <glyph glyph-name="uniFB5D" unicode="&#x680;" horiz-adv-x="366" arabic-form="medial" 
d="M0 0c-9 0 -17 17 -17 40c0 21 8 38 17 38h70c70 0 111 14 120 64l22 116l8 6l42 -13l-15 -100c-6 -38 22 -73 87 -73h32c9 0 17 -17 17 -38c0 -23 -8 -40 -17 -40h-33c-63 0 -104 24 -121 63c-31 -48 -79 -63 -145 -63h-67zM288 -190l-70 32v12l27 58l70 -33v-12z
M153 -198l-70 32v12l27 58l70 -33v-12zM288 -317l-70 32v12l27 58l70 -33v-12zM153 -325l-70 32v12l27 58l70 -33v-12z" />
    <glyph glyph-name="uniFB5C" unicode="&#x680;" horiz-adv-x="318" arabic-form="initial" 
d="M0 0c-9 0 -17 17 -17 40c0 21 8 38 17 38c96 0 170 17 207 50l-26 179l57 37l7 -4c11 -90 19 -151 19 -187c0 -52 -23 -87 -57 -110c-54 -36 -136 -43 -207 -43zM211 -190l-70 32v12l27 58l70 -33v-12zM76 -198l-70 32v12l27 58l70 -33v-12zM211 -317l-70 32v12l27 58
l70 -33v-12zM76 -325l-70 32v12l27 58l70 -33v-12z" />
    <glyph glyph-name="uniFBE9" unicode="&#x649;" horiz-adv-x="366" arabic-form="medial" 
d="M0 0c-9 0 -17 17 -17 40c0 21 8 38 17 38h70c70 0 111 14 120 64l22 116l8 6l42 -13l-15 -100c-6 -38 22 -73 87 -73h32c9 0 17 -17 17 -38c0 -23 -8 -40 -17 -40h-33c-63 0 -104 24 -121 63c-31 -48 -79 -63 -145 -63h-67z" />
    <glyph glyph-name="uniFBE8" unicode="&#x649;" horiz-adv-x="318" arabic-form="initial" 
d="M0 0c-9 0 -17 17 -17 40c0 21 8 38 17 38c96 0 170 17 207 50l-26 179l57 37l7 -4c11 -90 19 -151 19 -187c0 -52 -23 -87 -57 -110c-54 -36 -136 -43 -207 -43z" />
    <glyph glyph-name="uniFE96" unicode="&#x62a;" horiz-adv-x="799" arabic-form="final" 
d="M458 338l-70 31v13l27 57l70 -33v-11zM319 330l-69 31v13l26 57l70 -33v-11zM284 -10c-199 0 -234 77 -229 161c1 20 5 51 11 87l11 65l38 5l6 -5l-17 -126c-8 -59 12 -109 198 -109c231 0 310 14 321 74l21 116l9 6l42 -13l-16 -100c-5 -38 23 -73 88 -73h32
c9 0 16 -17 16 -38c0 -23 -7 -40 -16 -40h-34c-63 0 -104 25 -122 65c-45 -72 -214 -75 -359 -75z" />
    <glyph glyph-name="uniFE98" unicode="&#x62a;" horiz-adv-x="366" arabic-form="medial" 
d="M259 373l-70 31v13l26 57l70 -33v-12zM120 365l-70 31v13l27 57l70 -33v-12zM0 0c-9 0 -17 17 -17 40c0 21 8 38 17 38h70c70 0 111 14 120 64l22 116l8 6l42 -13l-15 -100c-6 -38 22 -73 87 -73h32c9 0 17 -17 17 -38c0 -23 -8 -40 -17 -40h-33c-63 0 -104 24 -121 63
c-31 -48 -79 -63 -145 -63h-67z" />
    <glyph glyph-name="uniFE97" unicode="&#x62a;" horiz-adv-x="318" arabic-form="initial" 
d="M206 440l-70 32v12l27 58l70 -34v-11zM68 432l-70 32v12l26 58l70 -34v-11zM0 0c-9 0 -17 17 -17 40c0 21 8 38 17 38c96 0 170 17 207 50l-26 179l57 37l7 -4c11 -90 19 -151 19 -187c0 -52 -23 -87 -57 -110c-54 -36 -136 -43 -207 -43z" />
    <glyph glyph-name="uni067C.init" unicode="&#x67c;" horiz-adv-x="318" 
d="M233 497l-27 -57l-70 32v12l27 58l70 -34v-11zM94 489l-26 -57l-70 32v12l26 58l70 -34v-11zM264 153c0 -52 -23 -87 -57 -110c-7 -5 -14 -9 -22 -12c18 -14 29 -35 29 -59c0 -41 -34 -75 -75 -75s-75 34 -75 75c0 11 2 21 7 31c-24 -2 -48 -3 -71 -3c-9 0 -17 17 -17 40
c0 21 8 38 17 38c96 0 170 17 207 50l-26 179l57 37l7 -4c11 -90 19 -151 19 -187zM139 -67c21 0 39 18 39 39s-18 39 -39 39s-39 -18 -39 -39s18 -39 39 -39z" />
    <glyph glyph-name="uni067C.medi" unicode="&#x67c;" horiz-adv-x="366" 
d="M285 429l-26 -56l-70 31v13l26 57l70 -33v-12zM147 421l-27 -56l-70 31v13l27 57l70 -33v-12zM366 78c9 0 17 -17 17 -38c0 -23 -8 -40 -17 -40h-33c-63 0 -104 24 -121 63c-14 -22 -33 -38 -55 -48c14 -13 22 -32 22 -52c0 -41 -34 -75 -75 -75s-75 34 -75 75
c0 13 4 26 10 37h-39c-9 0 -17 17 -17 40c0 21 8 38 17 38h70c70 0 111 14 120 64l22 116l8 6l42 -13l-15 -100c-6 -38 22 -73 87 -73h32zM143 -37c0 21 -18 39 -38 39c-3 0 -6 -1 -9 -1c-17 -4 -31 -20 -31 -38c0 -21 18 -39 39 -39s39 18 39 39z" />
    <glyph glyph-name="uni067C.fina" unicode="&#x67c;" horiz-adv-x="799" 
d="M485 395l-27 -57l-70 31v13l27 57l70 -33v-11zM346 387l-27 -57l-69 31v13l26 57l70 -33v-11zM799 78c9 0 16 -17 16 -38c0 -23 -7 -40 -16 -40h-34c-63 0 -104 25 -122 65c-44 -70 -205 -75 -347 -75c7 -11 11 -25 11 -39c0 -41 -34 -75 -75 -75s-75 34 -75 75
c0 19 7 36 19 49c-104 24 -125 85 -121 151c1 20 5 51 11 87l11 65l38 5l6 -5l-17 -126c-8 -59 12 -109 198 -109c231 0 310 14 321 74l21 116l9 6l42 -13l-16 -100c-5 -38 23 -73 88 -73h32zM232 -88c21 0 39 18 39 39s-18 39 -39 39s-39 -18 -39 -39s18 -39 39 -39z" />
    <glyph glyph-name="uni067D.init" unicode="&#x67d;" horiz-adv-x="318" 
d="M245 504l-70 32v12l26 58l70 -33v-12zM96 496l-70 32v12l27 58l70 -33v-12zM191 394l-70 32v12l27 58l69 -34v-11zM0 0c-9 0 -17 17 -17 40c0 21 8 38 17 38c96 0 170 17 207 50l-26 179l57 37l7 -4c11 -90 19 -151 19 -187c0 -52 -23 -87 -57 -110
c-54 -36 -136 -43 -207 -43z" />
    <glyph glyph-name="uni067D.medi" unicode="&#x67d;" horiz-adv-x="366" 
d="M279 436l-70 32v12l27 58l70 -33v-12zM131 428l-70 32v12l26 58l70 -33v-12zM225 326l-70 32v12l27 58l70 -34v-11zM0 0c-9 0 -17 17 -17 40c0 21 8 38 17 38h70c70 0 111 14 120 64l22 116l8 6l42 -13l-15 -100c-6 -38 22 -73 87 -73h32c9 0 17 -17 17 -38
c0 -23 -8 -40 -17 -40h-33c-63 0 -104 24 -121 63c-31 -48 -79 -63 -145 -63h-67z" />
    <glyph glyph-name="uni067D.fina" unicode="&#x67d;" horiz-adv-x="799" 
d="M458 362l-70 31v13l26 58l70 -34v-11zM309 354l-70 31v13l27 58l70 -34v-11zM404 252l-70 31v13l27 57l70 -33v-11zM284 -10c-199 0 -234 77 -229 161c1 20 5 51 11 87l11 65l38 5l6 -5l-17 -126c-8 -59 12 -109 198 -109c231 0 310 14 321 74l21 116l9 6l42 -13
l-16 -100c-5 -38 23 -73 88 -73h32c9 0 16 -17 16 -38c0 -23 -7 -40 -16 -40h-34c-63 0 -104 25 -122 65c-45 -72 -214 -75 -359 -75z" />
    <glyph glyph-name="uniFE9A" unicode="&#x62b;" horiz-adv-x="799" arabic-form="final" 
d="M389 450l-70 32v12l27 58l69 -33v-12zM484 348l-70 32v12l26 58l70 -34v-11zM335 340l-70 32v12l27 58l70 -34v-11zM284 -10c-199 0 -234 77 -229 161c1 20 5 51 11 87l11 65l38 5l6 -5l-17 -126c-8 -59 12 -109 198 -109c231 0 310 14 321 74l21 116l9 6l42 -13
l-16 -100c-5 -38 23 -73 88 -73h32c9 0 16 -17 16 -38c0 -23 -7 -40 -16 -40h-34c-63 0 -104 25 -122 65c-45 -72 -214 -75 -359 -75z" />
    <glyph glyph-name="uniFE9C" unicode="&#x62b;" horiz-adv-x="366" arabic-form="medial" 
d="M181 489l-69 31v13l26 57l70 -33v-11zM276 387l-70 31v13l27 57l70 -33v-12zM128 379l-70 31v13l26 57l70 -33v-12zM0 0c-9 0 -17 17 -17 40c0 21 8 38 17 38h70c70 0 111 14 120 64l22 116l8 6l42 -13l-15 -100c-6 -38 22 -73 87 -73h32c9 0 17 -17 17 -38
c0 -23 -8 -40 -17 -40h-33c-63 0 -104 24 -121 63c-31 -48 -79 -63 -145 -63h-67z" />
    <glyph glyph-name="uniFE9B" unicode="&#x62b;" horiz-adv-x="318" arabic-form="initial" 
d="M115 533l-69 31v13l26 57l70 -33v-11zM210 431l-70 31v13l27 57l70 -33v-12zM62 423l-70 31v13l26 57l70 -33v-12zM0 0c-9 0 -17 17 -17 40c0 21 8 38 17 38c96 0 170 17 207 50l-26 179l57 37l7 -4c11 -90 19 -151 19 -187c0 -52 -23 -87 -57 -110
c-54 -36 -136 -43 -207 -43z" />
    <glyph glyph-name="uniFB66" unicode="&#x679;" horiz-adv-x="783" arabic-form="isolated" 
d="M221 386h42l49 62l-2 227l38 9v-191c10 12 20 22 31 31c19 17 43 24 76 24c75 0 92 -66 92 -100c0 -62 -40 -108 -182 -108h-137zM304 386h65c81 0 122 11 146 33c4 51 -17 83 -67 83c-25 0 -37 -3 -58 -7zM284 -10c-199 0 -234 77 -229 161c1 20 5 51 11 87l11 65l38 5
l7 -5l-17 -126c-9 -59 12 -109 197 -109c224 0 332 30 369 59c-7 58 -16 120 -25 186l56 36l7 -4c12 -95 19 -151 19 -188c0 -43 -11 -76 -37 -97c-82 -62 -284 -70 -407 -70z" />
    <glyph glyph-name="uniFB67" unicode="&#x679;" horiz-adv-x="799" arabic-form="final" 
d="M221 386h42l49 62l-2 227l38 9v-191c10 12 20 22 31 31c19 17 43 24 76 24c75 0 92 -66 92 -100c0 -62 -40 -108 -182 -108h-137zM304 386h65c81 0 122 11 146 33c4 51 -17 83 -67 83c-25 0 -37 -3 -58 -7zM284 -10c-199 0 -234 77 -229 161c1 20 5 51 11 87l11 65l38 5
l6 -5l-17 -126c-8 -59 12 -109 198 -109c231 0 310 14 321 74l21 116l9 6l42 -13l-16 -100c-5 -38 23 -73 88 -73h32c9 0 16 -17 16 -38c0 -23 -7 -40 -16 -40h-34c-63 0 -104 25 -122 65c-45 -72 -214 -75 -359 -75z" />
    <glyph glyph-name="uniFB69" unicode="&#x679;" horiz-adv-x="366" arabic-form="medial" 
d="M-18 412h42l50 62l-2 226l38 10v-191c9 12 20 22 30 31c20 17 44 24 76 24c76 0 92 -66 92 -100c0 -62 -40 -108 -181 -108h-138zM65 412h66c80 0 122 10 146 33c3 51 -17 82 -68 82c-24 0 -36 -2 -57 -6zM0 0c-9 0 -17 17 -17 40c0 21 8 38 17 38h70c70 0 111 14 120 64
l22 116l8 6l42 -13l-15 -100c-6 -38 22 -73 87 -73h32c9 0 17 -17 17 -38c0 -23 -8 -40 -17 -40h-33c-63 0 -104 24 -121 63c-31 -48 -79 -63 -145 -63h-67z" />
    <glyph glyph-name="uniFB68" unicode="&#x679;" horiz-adv-x="318" arabic-form="initial" 
d="M-26 466h38l45 56l-2 205l34 9v-173c9 11 19 20 28 28c18 16 40 22 69 22c68 0 84 -60 84 -91c0 -56 -37 -98 -165 -98h-125zM49 466h60c73 0 110 9 132 29c3 47 -16 76 -61 76c-22 0 -33 -2 -52 -7zM0 0c-9 0 -17 17 -17 40c0 21 8 38 17 38c96 0 170 17 207 50l-26 179
l57 37l7 -4c11 -90 19 -151 19 -187c0 -52 -23 -87 -57 -110c-54 -36 -136 -43 -207 -43z" />
    <glyph glyph-name="uniFB5E" unicode="&#x67a;" horiz-adv-x="783" arabic-form="isolated" 
d="M399 437l-69 31v13l26 57l70 -33v-11zM399 303l-69 31v13l26 57l70 -33v-11zM284 -10c-199 0 -234 77 -229 161c1 20 5 51 11 87l11 65l38 5l7 -5l-17 -126c-9 -59 12 -109 197 -109c224 0 332 30 369 59c-7 58 -16 120 -25 186l56 36l7 -4c12 -95 19 -151 19 -188
c0 -43 -11 -76 -37 -97c-82 -62 -284 -70 -407 -70z" />
    <glyph glyph-name="uniFB5F" unicode="&#x67a;" horiz-adv-x="799" arabic-form="final" 
d="M399 437l-69 31v13l26 57l70 -33v-11zM399 303l-69 31v13l26 57l70 -33v-11zM284 -10c-199 0 -234 77 -229 161c1 20 5 51 11 87l11 65l38 5l6 -5l-17 -126c-8 -59 12 -109 198 -109c231 0 310 14 321 74l21 116l9 6l42 -13l-16 -100c-5 -38 23 -73 88 -73h32
c9 0 16 -17 16 -38c0 -23 -7 -40 -16 -40h-34c-63 0 -104 25 -122 65c-45 -72 -214 -75 -359 -75z" />
    <glyph glyph-name="uniFB61" unicode="&#x67a;" horiz-adv-x="366" arabic-form="medial" 
d="M211 480l-70 32v12l27 58l70 -33v-12zM211 346l-70 32v12l27 58l70 -33v-12zM0 0c-9 0 -17 17 -17 40c0 21 8 38 17 38h70c70 0 111 14 120 64l22 116l8 6l42 -13l-15 -100c-6 -38 22 -73 87 -73h32c9 0 17 -17 17 -38c0 -23 -8 -40 -17 -40h-33c-63 0 -104 24 -121 63
c-31 -48 -79 -63 -145 -63h-67z" />
    <glyph glyph-name="uniFB60" unicode="&#x67a;" horiz-adv-x="318" arabic-form="initial" 
d="M182 536l-70 32v12l27 58l70 -33v-12zM182 402l-70 32v12l27 58l70 -33v-12zM0 0c-9 0 -17 17 -17 40c0 21 8 38 17 38c96 0 170 17 207 50l-26 179l57 37l7 -4c11 -90 19 -151 19 -187c0 -52 -23 -87 -57 -110c-54 -36 -136 -43 -207 -43z" />
    <glyph glyph-name="uniFE9E" unicode="&#x62c;" horiz-adv-x="629" arabic-form="final" 
d="M629 78c9 0 16 -17 16 -38c0 -23 -7 -40 -16 -40h-128c-97 0 -142 20 -152 112l-3 28l-39 -22c-41 -22 -74 -46 -101 -68c-49 -39 -82 -84 -99 -138c19 -106 71 -179 305 -156l138 14l5 -6l-15 -69l-142 -14c-240 -24 -333 76 -332 212c0 101 78 205 258 308l73 42
l-195 49c-21 5 -34 9 -43 9c-10 0 -20 -6 -26 -16l-41 -63h-5l-31 35l28 51c23 42 40 68 82 68s148 -43 319 -81l77 -15l5 -10l-24 -64l-60 11l-94 -53l4 -27c9 -59 56 -59 121 -59h115zM266 -94l29 63l77 -36v-13l-29 -62l-77 35v13z" />
    <glyph glyph-name="uniFEA0" unicode="&#x62c;" horiz-adv-x="656" arabic-form="medial" 
d="M656 78c10 0 17 -17 17 -38c0 -23 -7 -40 -17 -40h-116c-97 0 -142 20 -153 112l-2 23l-41 -28c-95 -67 -195 -107 -302 -107h-42c-9 0 -17 17 -17 40c0 21 8 38 17 38h46c95 0 176 20 279 89l89 59l-189 66c-20 7 -32 9 -41 10c-10 0 -19 -6 -26 -16l-42 -62h-5l-30 36
l28 50c24 42 41 68 83 68c44 -1 173 -63 297 -96c16 -5 30 -8 45 -11s32 -6 47 -10l4 -11l-26 -62l-77 15l-54 -38l5 -36c8 -51 55 -51 120 -51h103zM216 -106l29 63l76 -36v-13l-29 -62l-76 34v14z" />
    <glyph glyph-name="uniFE9F" unicode="&#x62c;" horiz-adv-x="639" arabic-form="initial" 
d="M0 0c-9 0 -17 17 -17 40c0 21 8 38 17 38h46c95 0 176 20 279 89l89 59l-189 66c-20 7 -32 9 -41 10c-10 0 -19 -6 -26 -16l-42 -62h-5l-30 36l28 50c24 42 41 68 83 68c44 -1 173 -63 297 -96c16 -5 30 -8 45 -11s32 -6 47 -10l4 -11l-26 -62l-77 15l-138 -96
c-95 -67 -195 -107 -302 -107h-42zM327 -152l-76 34v14l29 63l77 -36v-13z" />
    <glyph glyph-name="uniFB7B" unicode="&#x686;" horiz-adv-x="629" arabic-form="final" 
d="M629 78c9 0 16 -17 16 -38c0 -23 -7 -40 -16 -40h-128c-97 0 -142 20 -152 112l-3 28l-39 -22c-41 -22 -74 -46 -101 -68c-49 -39 -82 -84 -99 -138c19 -106 71 -179 305 -156l138 14l5 -6l-15 -69l-142 -14c-240 -24 -333 76 -332 212c0 101 78 205 258 308l73 42
l-195 49c-21 5 -34 9 -43 9c-10 0 -20 -6 -26 -16l-41 -63h-5l-31 35l28 51c23 42 40 68 82 68s148 -43 319 -81l77 -15l5 -10l-24 -64l-60 11l-94 -53l4 -27c9 -59 56 -59 121 -59h115zM400 -49l-22 -47l-59 27v10l22 48l59 -28v-10zM275 -46v-9l-23 -48l-58 27v10l22 48z
M355 -142l-23 -47l-58 26v10l22 49l59 -28v-10z" />
    <glyph glyph-name="uniFB7D" unicode="&#x686;" horiz-adv-x="656" arabic-form="medial" 
d="M656 78c10 0 17 -17 17 -38c0 -23 -7 -40 -17 -40h-116c-97 0 -142 20 -153 112l-2 23l-41 -28c-95 -67 -195 -107 -302 -107h-42c-9 0 -17 17 -17 40c0 21 8 38 17 38h46c95 0 176 20 279 89l89 59l-189 66c-20 7 -32 9 -41 10c-10 0 -19 -6 -26 -16l-42 -62h-5l-30 36
l28 50c24 42 41 68 83 68c44 -1 173 -63 297 -96c16 -5 30 -8 45 -11s32 -6 47 -10l4 -11l-26 -62l-77 15l-54 -38l5 -36c8 -51 55 -51 120 -51h103zM294 -128l26 58l70 -33v-12l-27 -57l-69 32v12zM242 -111v-12l-27 -57l-70 32v12l27 58zM240 -238l26 58l70 -34v-11
l-26 -57l-70 32v12z" />
    <glyph glyph-name="uniFB7C" unicode="&#x686;" horiz-adv-x="639" arabic-form="initial" 
d="M0 0c-9 0 -17 17 -17 40c0 21 8 38 17 38h46c95 0 176 20 279 89l89 59l-189 66c-20 7 -32 9 -41 10c-10 0 -19 -6 -26 -16l-42 -62h-5l-30 36l28 50c24 42 41 68 83 68c44 -1 173 -63 297 -96c16 -5 30 -8 45 -11s32 -6 47 -10l4 -11l-26 -62l-77 15l-138 -96
c-95 -67 -195 -107 -302 -107h-42zM403 -171l-69 31v13l26 58l70 -34v-11zM255 -179l-70 31v13l27 58l70 -34v-11zM350 -281l-70 31v13l26 57l70 -33v-11z" />
    <glyph glyph-name="uniFB7E" unicode="&#x687;" horiz-adv-x="621" arabic-form="isolated" 
d="M398 -319c-240 -24 -333 76 -332 212c0 101 78 205 258 308l73 42l-195 49c-21 5 -34 9 -43 9c-10 0 -20 -6 -26 -16l-41 -63h-5l-31 35l28 51c23 42 40 68 82 68s148 -43 301 -77c48 -11 68 -14 95 -19l5 -10l-24 -64l-60 11l-176 -99c-41 -22 -74 -46 -101 -68
c-49 -39 -82 -84 -99 -138c19 -106 71 -179 305 -156l138 14l5 -6l-15 -69zM458 -28l-70 31v13l27 57l70 -33v-11zM323 -36l-70 31v13l27 57l70 -33v-11zM458 -155l-70 31v13l27 57l70 -33v-11zM323 -163l-70 31v13l27 57l70 -33v-11z" />
    <glyph glyph-name="uniFB7F" unicode="&#x687;" horiz-adv-x="629" arabic-form="final" 
d="M629 78c9 0 16 -17 16 -38c0 -23 -7 -40 -16 -40h-128c-97 0 -142 20 -152 112l-3 28l-39 -22c-41 -22 -74 -46 -101 -68c-49 -39 -82 -84 -99 -138c19 -106 71 -179 305 -156l138 14l5 -6l-15 -69l-142 -14c-240 -24 -333 76 -332 212c0 101 78 205 258 308l73 42
l-195 49c-21 5 -34 9 -43 9c-10 0 -20 -6 -26 -16l-41 -63h-5l-31 35l28 51c23 42 40 68 82 68s148 -43 319 -81l77 -15l5 -10l-24 -64l-60 11l-94 -53l4 -27c9 -59 56 -59 121 -59h115zM393 -18v-10l-22 -47l-58 26v10l22 48zM281 -25v-10l-23 -47l-58 26v11l22 48z
M313 -144l22 48l58 -28v-10l-22 -47l-58 26v11zM200 -151l22 48l59 -28v-9l-23 -48l-58 27v10z" />
    <glyph glyph-name="uniFB81" unicode="&#x687;" horiz-adv-x="656" arabic-form="medial" 
d="M656 78c10 0 17 -17 17 -38c0 -23 -7 -40 -17 -40h-116c-97 0 -142 20 -153 112l-2 23l-41 -28c-95 -67 -195 -107 -302 -107h-42c-9 0 -17 17 -17 40c0 21 8 38 17 38h46c95 0 176 20 279 89l89 59l-189 66c-20 7 -32 9 -41 10c-10 0 -19 -6 -26 -16l-42 -62h-5l-30 36
l28 50c24 42 41 68 83 68c44 -1 173 -63 297 -96c16 -5 30 -8 45 -11s32 -6 47 -10l4 -11l-26 -62l-77 15l-54 -38l5 -36c8 -51 55 -51 120 -51h103zM303 -74l27 58l70 -33v-12l-27 -57l-70 32v12zM168 -82l27 58l70 -33v-12l-27 -57l-70 32v12zM303 -201l27 58l70 -33v-12
l-27 -57l-70 32v12zM168 -209l27 58l70 -33v-12l-27 -57l-70 32v12z" />
    <glyph glyph-name="uniFB80" unicode="&#x687;" horiz-adv-x="639" arabic-form="initial" 
d="M0 0c-9 0 -17 17 -17 40c0 21 8 38 17 38h46c95 0 176 20 279 89l89 59l-189 66c-20 7 -32 9 -41 10c-10 0 -19 -6 -26 -16l-42 -62h-5l-30 36l28 50c24 42 41 68 83 68c44 -1 173 -63 297 -96c16 -5 30 -8 45 -11s32 -6 47 -10l4 -11l-26 -62l-77 15l-138 -96
c-95 -67 -195 -107 -302 -107h-42zM423 -118l-70 32v12l27 58l70 -33v-12zM288 -126l-70 32v12l27 58l70 -33v-12zM423 -245l-70 32v12l27 58l70 -33v-12zM288 -253l-70 32v12l27 58l70 -33v-12z" />
    <glyph glyph-name="uniFB76" unicode="&#x683;" horiz-adv-x="621" arabic-form="isolated" 
d="M398 -319c-240 -24 -333 76 -332 212c0 101 78 205 258 308l73 42l-195 49c-21 5 -34 9 -43 9c-10 0 -20 -6 -26 -16l-41 -63h-5l-31 35l28 51c23 42 40 68 82 68s148 -43 301 -77c48 -11 68 -14 95 -19l5 -10l-24 -64l-60 11l-176 -99c-41 -22 -74 -46 -101 -68
c-49 -39 -82 -84 -99 -138c19 -106 71 -179 305 -156l138 14l5 -6l-15 -69zM466 -81l-70 31v13l26 58l70 -34v-11zM329 -89l-70 31v13l27 58l70 -34v-11z" />
    <glyph glyph-name="uniFB77" unicode="&#x683;" horiz-adv-x="629" arabic-form="final" 
d="M629 78c9 0 16 -17 16 -38c0 -23 -7 -40 -16 -40h-128c-97 0 -142 20 -152 112l-3 28l-39 -22c-41 -22 -74 -46 -101 -68c-49 -39 -82 -84 -99 -138c19 -106 71 -179 305 -156l138 14l5 -6l-15 -69l-142 -14c-240 -24 -333 76 -332 212c0 101 78 205 258 308l73 42
l-195 49c-21 5 -34 9 -43 9c-10 0 -20 -6 -26 -16l-41 -63h-5l-31 35l28 51c23 42 40 68 82 68s148 -43 319 -81l77 -15l5 -10l-24 -64l-60 11l-94 -53l4 -27c9 -59 56 -59 121 -59h115zM351 -92l26 58l70 -33v-12l-26 -57l-70 32v12zM214 -100l27 58l70 -33v-12l-27 -57
l-70 32v12z" />
    <glyph glyph-name="uniFB79" unicode="&#x683;" horiz-adv-x="656" arabic-form="medial" 
d="M656 78c10 0 17 -17 17 -38c0 -23 -7 -40 -17 -40h-116c-97 0 -142 20 -153 112l-2 23l-41 -28c-95 -67 -195 -107 -302 -107h-42c-9 0 -17 17 -17 40c0 21 8 38 17 38h46c95 0 176 20 279 89l89 59l-189 66c-20 7 -32 9 -41 10c-10 0 -19 -6 -26 -16l-42 -62h-5l-30 36
l28 50c24 42 41 68 83 68c44 -1 173 -63 297 -96c16 -5 30 -8 45 -11s32 -6 47 -10l4 -11l-26 -62l-77 15l-54 -38l5 -36c8 -51 55 -51 120 -51h103zM316 -96l26 58l70 -33v-12l-26 -57l-70 32v12zM179 -104l27 58l70 -33v-12l-27 -57l-70 32v12z" />
    <glyph glyph-name="uniFB78" unicode="&#x683;" horiz-adv-x="639" arabic-form="initial" 
d="M0 0c-9 0 -17 17 -17 40c0 21 8 38 17 38h46c95 0 176 20 279 89l89 59l-189 66c-20 7 -32 9 -41 10c-10 0 -19 -6 -26 -16l-42 -62h-5l-30 36l28 50c24 42 41 68 83 68c44 -1 173 -63 297 -96c16 -5 30 -8 45 -11s32 -6 47 -10l4 -11l-26 -62l-77 15l-138 -96
c-95 -67 -195 -107 -302 -107h-42zM386 -140l-70 32v12l26 58l70 -33v-12zM249 -148l-70 32v12l27 58l70 -33v-12z" />
    <glyph glyph-name="uniFB72" unicode="&#x684;" horiz-adv-x="621" arabic-form="isolated" 
d="M398 -319c-240 -24 -333 76 -332 212c0 101 78 205 258 308l73 42l-195 49c-21 5 -34 9 -43 9c-10 0 -20 -6 -26 -16l-41 -63h-5l-31 35l28 51c23 42 40 68 82 68s148 -43 301 -77c48 -11 68 -14 95 -19l5 -10l-24 -64l-60 11l-176 -99c-41 -22 -74 -46 -101 -68
c-49 -39 -82 -84 -99 -138c19 -106 71 -179 305 -156l138 14l5 -6l-15 -69zM376 -39l-70 32v12l27 58l70 -33v-12zM376 -173l-70 32v12l27 58l70 -33v-12z" />
    <glyph glyph-name="uniFB73" unicode="&#x684;" horiz-adv-x="629" arabic-form="final" 
d="M629 78c9 0 16 -17 16 -38c0 -23 -7 -40 -16 -40h-128c-97 0 -142 20 -152 112l-3 28l-39 -22c-41 -22 -74 -46 -101 -68c-49 -39 -82 -84 -99 -138c19 -106 71 -179 305 -156l138 14l5 -6l-15 -69l-142 -14c-240 -24 -333 76 -332 212c0 101 78 205 258 308l73 42
l-195 49c-21 5 -34 9 -43 9c-10 0 -20 -6 -26 -16l-41 -63h-5l-31 35l28 51c23 42 40 68 82 68s148 -43 319 -81l77 -15l5 -10l-24 -64l-60 11l-94 -53l4 -27c9 -59 56 -59 121 -59h115zM324 2v-11l-25 -54l-67 30v12l26 55zM232 -149l26 55l66 -32v-11l-25 -54l-67 30v12z
" />
    <glyph glyph-name="uniFB75" unicode="&#x684;" horiz-adv-x="656" arabic-form="medial" 
d="M656 78c10 0 17 -17 17 -38c0 -23 -7 -40 -17 -40h-116c-97 0 -142 20 -153 112l-2 23l-41 -28c-95 -67 -195 -107 -302 -107h-42c-9 0 -17 17 -17 40c0 21 8 38 17 38h46c95 0 176 20 279 89l89 59l-189 66c-20 7 -32 9 -41 10c-10 0 -19 -6 -26 -16l-42 -62h-5l-30 36
l28 50c24 42 41 68 83 68c44 -1 173 -63 297 -96c16 -5 30 -8 45 -11s32 -6 47 -10l4 -11l-26 -62l-77 15l-54 -38l5 -36c8 -51 55 -51 120 -51h103zM274 -74l27 58l70 -33v-12l-27 -57l-70 32v12zM274 -208l27 58l70 -33v-12l-27 -57l-70 32v12z" />
    <glyph glyph-name="uniFB74" unicode="&#x684;" horiz-adv-x="639" arabic-form="initial" 
d="M0 0c-9 0 -17 17 -17 40c0 21 8 38 17 38h46c95 0 176 20 279 89l89 59l-189 66c-20 7 -32 9 -41 10c-10 0 -19 -6 -26 -16l-42 -62h-5l-30 36l28 50c24 42 41 68 83 68c44 -1 173 -63 297 -96c16 -5 30 -8 45 -11s32 -6 47 -10l4 -11l-26 -62l-77 15l-138 -96
c-95 -67 -195 -107 -302 -107h-42zM298 -118l-70 32v12l27 58l70 -33v-12zM298 -252l-70 32v12l27 58l70 -33v-12z" />
    <glyph glyph-name="uniFEA2" unicode="&#x62d;" horiz-adv-x="629" arabic-form="final" 
d="M629 78c9 0 16 -17 16 -38c0 -23 -7 -40 -16 -40h-128c-97 0 -142 20 -152 112l-3 28l-39 -22c-41 -22 -74 -46 -101 -68c-49 -39 -82 -84 -99 -138c19 -106 71 -179 305 -156l138 14l5 -6l-15 -69l-142 -14c-240 -24 -333 76 -332 212c0 101 78 205 258 308l73 42
l-195 49c-21 5 -34 9 -43 9c-10 0 -20 -6 -26 -16l-41 -63h-5l-31 35l28 51c23 42 40 68 82 68s148 -43 319 -81l77 -15l5 -10l-24 -64l-60 11l-94 -53l4 -27c9 -59 56 -59 121 -59h115z" />
    <glyph glyph-name="uniFEA4" unicode="&#x62d;" horiz-adv-x="656" arabic-form="medial" 
d="M656 78c10 0 17 -17 17 -38c0 -23 -7 -40 -17 -40h-116c-97 0 -142 20 -153 112l-2 23l-41 -28c-95 -67 -195 -107 -302 -107h-42c-9 0 -17 17 -17 40c0 21 8 38 17 38h46c95 0 176 20 279 89l89 59l-189 66c-20 7 -32 9 -41 10c-10 0 -19 -6 -26 -16l-42 -62h-5l-30 36
l28 50c24 42 41 68 83 68c44 -1 173 -63 297 -96c16 -5 30 -8 45 -11s32 -6 47 -10l4 -11l-26 -62l-77 15l-54 -38l5 -36c8 -51 55 -51 120 -51h103z" />
    <glyph glyph-name="uniFEA3" unicode="&#x62d;" horiz-adv-x="639" arabic-form="initial" 
d="M0 0c-9 0 -17 17 -17 40c0 21 8 38 17 38h46c95 0 176 20 279 89l89 59l-189 66c-20 7 -32 9 -41 10c-10 0 -19 -6 -26 -16l-42 -62h-5l-30 36l28 50c24 42 41 68 83 68c44 -1 173 -63 297 -96c16 -5 30 -8 45 -11s32 -6 47 -10l4 -11l-26 -62l-77 15l-138 -96
c-95 -67 -195 -107 -302 -107h-42z" />
    <glyph glyph-name="uni0681.init" unicode="&#x681;" horiz-adv-x="639" 
d="M107 442l9 44l50 21c-30 11 -48 42 -48 75c0 53 42 86 91 91c10 1 18 0 28 -1c12 -1 24 -4 37 -6v-47l-26 3c-14 2 -27 3 -37 3c-25 0 -42 -4 -52 -9c-3 -9 -3 -17 -3 -26c0 -33 23 -52 51 -52c13 0 27 2 41 6l69 21l3 -3l-9 -46l-25 -10c-59 -22 -117 -45 -176 -67zM0 0
c-9 0 -17 17 -17 40c0 21 8 38 17 38h46c95 0 176 20 279 89l89 59l-189 66c-20 7 -32 9 -41 10c-10 0 -19 -6 -26 -16l-42 -62h-5l-30 36l28 50c24 42 41 68 83 68c44 -1 173 -63 297 -96c16 -5 30 -8 45 -11s32 -6 47 -10l4 -11l-26 -62l-77 15l-138 -96
c-95 -67 -195 -107 -302 -107h-42z" />
    <glyph glyph-name="uni0681.medi" unicode="&#x681;" horiz-adv-x="656" 
d="M286 506c-59 -22 -117 -45 -176 -67l-3 3l9 44l50 21c-30 11 -48 42 -48 75c0 53 42 86 91 91c10 1 18 0 28 -1c12 -1 24 -4 37 -6v-47l-26 3c-14 2 -27 3 -37 3c-25 0 -42 -4 -52 -9c-3 -9 -3 -17 -3 -26c0 -33 23 -52 51 -52c13 0 27 2 41 6l69 21l3 -3l-9 -46zM656 78
c10 0 17 -17 17 -38c0 -23 -7 -40 -17 -40h-116c-97 0 -142 20 -153 112l-2 23l-41 -28c-95 -67 -195 -107 -302 -107h-42c-9 0 -17 17 -17 40c0 21 8 38 17 38h46c95 0 176 20 279 89l89 59l-189 66c-20 7 -32 9 -41 10c-10 0 -19 -6 -26 -16l-42 -62h-5l-30 36l28 50
c24 42 41 68 83 68c44 -1 173 -63 297 -96c16 -5 30 -8 45 -11s32 -6 47 -10l4 -11l-26 -62l-77 15l-54 -38l5 -36c8 -51 55 -51 120 -51h103z" />
    <glyph glyph-name="uni0681.fina" unicode="&#x681;" horiz-adv-x="629" 
d="M286 506c-59 -22 -117 -45 -176 -67l-3 3l9 44l50 21c-30 11 -48 42 -48 75c0 53 42 86 91 91c10 1 18 0 28 -1c12 -1 24 -4 37 -6v-47l-26 3c-14 2 -27 3 -37 3c-25 0 -42 -4 -52 -9c-3 -9 -3 -17 -3 -26c0 -33 23 -52 51 -52c13 0 27 2 41 6l69 21l3 -3l-9 -46zM629 78
c9 0 16 -17 16 -38c0 -23 -7 -40 -16 -40h-128c-97 0 -142 20 -152 112l-3 28l-39 -22c-41 -22 -74 -46 -101 -68c-49 -39 -82 -84 -99 -138c19 -106 71 -179 305 -156l138 14l5 -6l-15 -69l-142 -14c-240 -24 -333 76 -332 212c0 101 78 205 258 308l73 42l-195 49
c-21 5 -34 9 -43 9c-10 0 -20 -6 -26 -16l-41 -63h-5l-31 35l28 51c23 42 40 68 82 68s148 -43 319 -81l77 -15l5 -10l-24 -64l-60 11l-94 -53l4 -27c9 -59 56 -59 121 -59h115z" />
    <glyph glyph-name="uni0685.init" unicode="&#x685;" horiz-adv-x="639" 
d="M173 545l-70 32v12l26 58l70 -34v-11zM267 443l-70 31v13l27 57l70 -33v-11zM119 435l-70 31v13l27 57l69 -33v-11zM0 0c-9 0 -17 17 -17 40c0 21 8 38 17 38h46c95 0 176 20 279 89l89 59l-189 66c-20 7 -32 9 -41 10c-10 0 -19 -6 -26 -16l-42 -62h-5l-30 36l28 50
c24 42 41 68 83 68c44 -1 173 -63 297 -96c16 -5 30 -8 45 -11s32 -6 47 -10l4 -11l-26 -62l-77 15l-138 -96c-95 -67 -195 -107 -302 -107h-42z" />
    <glyph glyph-name="uni0685.medi" unicode="&#x685;" horiz-adv-x="656" 
d="M199 602l-26 -57l-70 32v12l26 58l70 -34v-11zM197 474v13l27 57l70 -33v-11l-27 -57zM145 492l-26 -57l-70 31v13l27 57l69 -33v-11zM656 78c10 0 17 -17 17 -38c0 -23 -7 -40 -17 -40h-116c-97 0 -142 20 -153 112l-2 23l-41 -28c-95 -67 -195 -107 -302 -107h-42
c-9 0 -17 17 -17 40c0 21 8 38 17 38h46c95 0 176 20 279 89l89 59l-189 66c-20 7 -32 9 -41 10c-10 0 -19 -6 -26 -16l-42 -62h-5l-30 36l28 50c24 42 41 68 83 68c44 -1 173 -63 297 -96c16 -5 30 -8 45 -11s32 -6 47 -10l4 -11l-26 -62l-77 15l-54 -38l5 -36
c8 -51 55 -51 120 -51h103z" />
    <glyph glyph-name="uni0685.fina" unicode="&#x685;" horiz-adv-x="629" 
d="M199 600l-26 -57l-70 31v13l26 57l70 -33v-11zM197 472v12l27 58l70 -33v-12l-27 -57zM145 489l-26 -57l-70 32v12l27 58l69 -33v-12zM629 78c9 0 16 -17 16 -38c0 -23 -7 -40 -16 -40h-128c-97 0 -142 20 -152 112l-3 28l-39 -22c-41 -22 -74 -46 -101 -68
c-49 -39 -82 -84 -99 -138c19 -106 71 -179 305 -156l138 14l5 -6l-15 -69l-142 -14c-240 -24 -333 76 -332 212c0 101 78 205 258 308l73 42l-195 49c-21 5 -34 9 -43 9c-10 0 -20 -6 -26 -16l-41 -63h-5l-31 35l28 51c23 42 40 68 82 68s148 -43 319 -81l77 -15l5 -10
l-24 -64l-60 11l-94 -53l4 -27c9 -59 56 -59 121 -59h115z" />
    <glyph glyph-name="uniFEA6" unicode="&#x62e;" horiz-adv-x="629" arabic-form="final" 
d="M200 512l-30 -62l-76 35v13l29 63l77 -36v-13zM629 78c9 0 16 -17 16 -38c0 -23 -7 -40 -16 -40h-128c-97 0 -142 20 -152 112l-3 28l-39 -22c-41 -22 -74 -46 -101 -68c-49 -39 -82 -84 -99 -138c19 -106 71 -179 305 -156l138 14l5 -6l-15 -69l-142 -14
c-240 -24 -333 76 -332 212c0 101 78 205 258 308l73 42l-195 49c-21 5 -34 9 -43 9c-10 0 -20 -6 -26 -16l-41 -63h-5l-31 35l28 51c23 42 40 68 82 68s148 -43 319 -81l77 -15l5 -10l-24 -64l-60 11l-94 -53l4 -27c9 -59 56 -59 121 -59h115z" />
    <glyph glyph-name="uniFEA8" unicode="&#x62e;" horiz-adv-x="656" arabic-form="medial" 
d="M236 512l-29 -62l-77 35v13l30 63l76 -36v-13zM656 78c10 0 17 -17 17 -38c0 -23 -7 -40 -17 -40h-116c-97 0 -142 20 -153 112l-2 23l-41 -28c-95 -67 -195 -107 -302 -107h-42c-9 0 -17 17 -17 40c0 21 8 38 17 38h46c95 0 176 20 279 89l89 59l-189 66
c-20 7 -32 9 -41 10c-10 0 -19 -6 -26 -16l-42 -62h-5l-30 36l28 50c24 42 41 68 83 68c44 -1 173 -63 297 -96c16 -5 30 -8 45 -11s32 -6 47 -10l4 -11l-26 -62l-77 15l-54 -38l5 -36c8 -51 55 -51 120 -51h103z" />
    <glyph glyph-name="uniFEA7" unicode="&#x62e;" horiz-adv-x="639" arabic-form="initial" 
d="M209 452l-76 35v13l29 63l76 -36v-13zM0 0c-9 0 -17 17 -17 40c0 21 8 38 17 38h46c95 0 176 20 279 89l89 59l-189 66c-20 7 -32 9 -41 10c-10 0 -19 -6 -26 -16l-42 -62h-5l-30 36l28 50c24 42 41 68 83 68c44 -1 173 -63 297 -96c16 -5 30 -8 45 -11s32 -6 47 -10
l4 -11l-26 -62l-77 15l-138 -96c-95 -67 -195 -107 -302 -107h-42z" />
    <glyph glyph-name="uniFEAA" unicode="&#x62f;" horiz-adv-x="523" arabic-form="final" 
d="M175 -10c-86 0 -128 32 -120 122l7 68l41 7l4 -5l-4 -60c-3 -50 28 -54 89 -54c56 0 117 18 148 41l-32 297l50 37l8 -4l24 -239c10 -101 42 -122 106 -122h27c9 0 17 -17 17 -38c0 -23 -8 -40 -17 -40h-33c-60 0 -102 24 -121 63c-31 -49 -135 -73 -194 -73z" />
    <glyph glyph-name="uniFEAC" unicode="&#x630;" horiz-adv-x="523" arabic-form="final" 
d="M313 519l-76 34v14l29 63l76 -36v-13zM175 -10c-86 0 -128 32 -120 122l7 68l41 7l4 -5l-4 -60c-3 -50 28 -54 89 -54c56 0 117 18 148 41l-32 297l50 37l8 -4l24 -239c10 -101 42 -122 106 -122h27c9 0 17 -17 17 -38c0 -23 -8 -40 -17 -40h-33c-60 0 -102 24 -121 63
c-31 -49 -135 -73 -194 -73z" />
    <glyph glyph-name="uniFB88" unicode="&#x688;" horiz-adv-x="484" arabic-form="isolated" 
d="M51 542h38l44 56l-1 206l34 8v-173c9 11 18 20 28 28c18 16 40 22 69 22c68 0 83 -60 83 -91c0 -56 -36 -98 -165 -98h-124zM126 542h60c72 0 110 10 132 30c3 46 -16 75 -61 75c-23 0 -33 -2 -52 -6zM175 -10c-86 0 -128 32 -120 122l7 68l41 7l4 -5l-4 -60
c-2 -50 28 -54 89 -54c86 0 165 25 192 61c-11 35 -52 92 -172 258l46 59c87 -125 171 -236 171 -309c0 -110 -141 -147 -254 -147z" />
    <glyph glyph-name="uniFB89" unicode="&#x688;" horiz-adv-x="523" arabic-form="final" 
d="M64 542h38l45 56l-2 206l34 8v-173c9 11 19 20 28 28c18 16 40 22 69 22c68 0 84 -60 84 -91c0 -56 -37 -98 -165 -98h-125zM139 542h60c73 0 110 10 132 30c3 46 -16 75 -61 75c-22 0 -33 -2 -52 -6zM175 -10c-86 0 -128 32 -120 122l7 68l41 7l4 -5l-4 -60
c-3 -50 28 -54 89 -54c56 0 117 18 148 41l-32 297l50 37l8 -4l24 -239c10 -101 42 -122 106 -122h27c9 0 17 -17 17 -38c0 -23 -8 -40 -17 -40h-33c-60 0 -102 24 -121 63c-31 -49 -135 -73 -194 -73z" />
    <glyph glyph-name="uniFB84" unicode="&#x68c;" horiz-adv-x="484" arabic-form="isolated" 
d="M302 529l-70 32v12l27 58l70 -33v-12zM164 521l-70 32v12l27 58l69 -33v-12zM175 -10c-86 0 -128 32 -120 122l7 68l41 7l4 -5l-4 -60c-2 -50 28 -54 89 -54c86 0 165 25 192 61c-11 35 -52 92 -172 258l46 59c87 -125 171 -236 171 -309c0 -110 -141 -147 -254 -147z
" />
    <glyph glyph-name="uniFB85" unicode="&#x68c;" horiz-adv-x="523" arabic-form="final" 
d="M401 529l-70 32v12l27 58l69 -33v-12zM262 521l-70 32v12l27 58l70 -33v-12zM175 -10c-86 0 -128 32 -120 122l7 68l41 7l4 -5l-4 -60c-3 -50 28 -54 89 -54c56 0 117 18 148 41l-32 297l50 37l8 -4l24 -239c10 -101 42 -122 106 -122h27c9 0 17 -17 17 -38
c0 -23 -8 -40 -17 -40h-33c-60 0 -102 24 -121 63c-31 -49 -135 -73 -194 -73z" />
    <glyph glyph-name="uniFB82" unicode="&#x68d;" horiz-adv-x="484" arabic-form="isolated" 
d="M175 -10c-86 0 -128 32 -120 122l7 68l41 7l4 -5l-4 -60c-2 -50 28 -54 89 -54c86 0 165 25 192 61c-11 35 -52 92 -172 258l46 59c87 -125 171 -236 171 -309c0 -110 -141 -147 -254 -147zM295 -198l-70 32v12l27 58l70 -34v-11zM157 -206l-70 32v12l26 58l70 -34v-11z
" />
    <glyph glyph-name="uniFB83" unicode="&#x68d;" horiz-adv-x="523" arabic-form="final" 
d="M175 -10c-86 0 -128 32 -120 122l7 68l41 7l4 -5l-4 -60c-3 -50 28 -54 89 -54c56 0 117 18 148 41l-32 297l50 37l8 -4l24 -239c10 -101 42 -122 106 -122h27c9 0 17 -17 17 -38c0 -23 -8 -40 -17 -40h-33c-60 0 -102 24 -121 63c-31 -49 -135 -73 -194 -73zM295 -198
l-70 32v12l27 58l70 -34v-11zM157 -206l-70 32v12l26 58l70 -34v-11z" />
    <glyph glyph-name="uni0689.fina" unicode="&#x689;" horiz-adv-x="523" 
d="M523 78c9 0 17 -17 17 -38c0 -23 -8 -40 -17 -40h-33c-60 0 -102 24 -121 63c-24 -37 -89 -60 -146 -69c9 -12 14 -27 14 -43c0 -41 -33 -75 -74 -75c-42 0 -75 34 -75 75c0 19 7 36 19 50c-40 15 -57 50 -52 111l7 68l41 7l4 -5l-4 -60c-3 -50 28 -54 89 -54
c56 0 117 18 148 41l-32 297l50 37l8 -4l24 -239c10 -101 42 -122 106 -122h27zM163 -88c21 0 39 18 39 39s-18 39 -39 39s-39 -18 -39 -39s18 -39 39 -39z" />
    <glyph glyph-name="uni068A.fina" unicode="&#x68a;" horiz-adv-x="523" 
d="M175 -10c-86 0 -128 32 -120 122l7 68l41 7l4 -5l-4 -60c-3 -50 28 -54 89 -54c56 0 117 18 148 41l-32 297l50 37l8 -4l24 -239c10 -101 42 -122 106 -122h27c9 0 17 -17 17 -38c0 -23 -8 -40 -17 -40h-33c-60 0 -102 24 -121 63c-31 -49 -135 -73 -194 -73zM222 -201
l-76 35v13l29 63l76 -36v-13z" />
    <glyph glyph-name="uni068B.fina" unicode="&#x68b;" horiz-adv-x="523" 
d="M64 542h38l45 56l-2 206l34 8v-173c9 11 19 20 28 28c18 16 40 22 69 22c68 0 84 -60 84 -91c0 -56 -37 -98 -165 -98h-125zM139 542h60c73 0 110 10 132 30c3 46 -16 75 -61 75c-22 0 -33 -2 -52 -6zM175 -10c-86 0 -128 32 -120 122l7 68l41 7l4 -5l-4 -60
c-3 -50 28 -54 89 -54c56 0 117 18 148 41l-32 297l50 37l8 -4l24 -239c10 -101 42 -122 106 -122h27c9 0 17 -17 17 -38c0 -23 -8 -40 -17 -40h-33c-60 0 -102 24 -121 63c-31 -49 -135 -73 -194 -73zM200 -227l-77 34v14l30 63l76 -37v-12z" />
    <glyph glyph-name="uniFB86" unicode="&#x68e;" horiz-adv-x="484" arabic-form="isolated" 
d="M221 635l-70 32v12l26 58l70 -34v-11zM315 533l-69 32v12l26 58l70 -34v-11zM167 525l-70 32v12l27 58l70 -34v-11zM175 -10c-86 0 -128 32 -120 122l7 68l41 7l4 -5l-4 -60c-2 -50 28 -54 89 -54c86 0 165 25 192 61c-11 35 -52 92 -172 258l46 59
c87 -125 171 -236 171 -309c0 -110 -141 -147 -254 -147z" />
    <glyph glyph-name="uniFB87" unicode="&#x68e;" horiz-adv-x="523" arabic-form="final" 
d="M304 635l-70 32v12l26 58l70 -34v-11zM398 533l-69 32v12l26 58l70 -34v-11zM250 525l-70 32v12l27 58l70 -34v-11zM175 -10c-86 0 -128 32 -120 122l7 68l41 7l4 -5l-4 -60c-3 -50 28 -54 89 -54c56 0 117 18 148 41l-32 297l50 37l8 -4l24 -239
c10 -101 42 -122 106 -122h27c9 0 17 -17 17 -38c0 -23 -8 -40 -17 -40h-33c-60 0 -102 24 -121 63c-31 -49 -135 -73 -194 -73z" />
    <glyph glyph-name="uni068F.fina" unicode="&#x68f;" horiz-adv-x="523" 
d="M358 611l-70 32v12l27 58l70 -34v-11zM210 603l-70 32v12l26 58l70 -34v-11zM304 501l-70 32v12l27 58l70 -34v-11zM175 -10c-86 0 -128 32 -120 122l7 68l41 7l4 -5l-4 -60c-3 -50 28 -54 89 -54c56 0 117 18 148 41l-32 297l50 37l8 -4l24 -239
c10 -101 42 -122 106 -122h27c9 0 17 -17 17 -38c0 -23 -8 -40 -17 -40h-33c-60 0 -102 24 -121 63c-31 -49 -135 -73 -194 -73z" />
    <glyph glyph-name="uni0690.fina" unicode="&#x690;" horiz-adv-x="523" 
d="M330 626l-69 32v12l26 58l70 -33v-12zM195 618l-69 32v12l26 58l70 -33v-12zM330 499l-69 32v12l26 58l70 -33v-12zM195 491l-69 32v12l26 58l70 -33v-12zM175 -10c-86 0 -128 32 -120 122l7 68l41 7l4 -5l-4 -60c-3 -50 28 -54 89 -54c56 0 117 18 148 41l-32 297l50 37
l8 -4l24 -239c10 -101 42 -122 106 -122h27c9 0 17 -17 17 -38c0 -23 -8 -40 -17 -40h-33c-60 0 -102 24 -121 63c-31 -49 -135 -73 -194 -73z" />
    <glyph glyph-name="uniFEAE" unicode="&#x631;" horiz-adv-x="376" arabic-form="final" 
d="M61 -233c-28 -3 -94 16 -116 27l-15 48l4 5c25 -5 73 -10 95 -8c104 8 164 104 176 167c-3 44 -14 115 -36 246l50 33l8 -6c6 -34 11 -66 18 -109c13 -72 39 -92 106 -92h25c9 0 16 -17 16 -38c0 -23 -7 -40 -16 -40h-28c-38 0 -68 9 -89 30v-9
c-4 -136 -115 -246 -198 -254z" />
    <glyph glyph-name="uniFEB0" unicode="&#x632;" horiz-adv-x="376" arabic-form="final" 
d="M194 366l-76 35v14l29 63l77 -37v-12zM61 -233c-28 -3 -94 16 -116 27l-15 48l4 5c25 -5 73 -10 95 -8c104 8 164 104 176 167c-3 44 -14 115 -36 246l50 33l8 -6c6 -34 11 -66 18 -109c13 -72 39 -92 106 -92h25c9 0 16 -17 16 -38c0 -23 -7 -40 -16 -40h-28
c-38 0 -68 9 -89 30v-9c-4 -136 -115 -246 -198 -254z" />
    <glyph glyph-name="uniFB8C" unicode="&#x691;" horiz-adv-x="314" arabic-form="isolated" 
d="M8 403h38l45 56l-2 206l34 8v-173c9 11 19 20 28 28c18 16 40 22 69 22c69 0 84 -60 84 -91c0 -56 -37 -98 -165 -98h-125zM83 403h60c73 0 110 10 132 30c3 46 -15 75 -61 75c-22 0 -33 -2 -52 -6zM61 -233c-28 -3 -94 16 -116 27l-15 48l4 5c25 -5 73 -10 95 -8
c104 8 162 102 176 164c-3 45 -14 116 -36 249l50 33l8 -6c23 -138 32 -204 32 -247c2 -140 -113 -257 -198 -265z" />
    <glyph glyph-name="uniFB8D" unicode="&#x691;" horiz-adv-x="376" arabic-form="final" 
d="M8 403h38l45 56l-2 206l34 8v-173c9 11 19 20 28 28c18 16 40 22 69 22c69 0 84 -60 84 -91c0 -56 -37 -98 -165 -98h-125zM83 403h60c73 0 110 10 132 30c3 46 -15 75 -61 75c-22 0 -33 -2 -52 -6zM61 -233c-28 -3 -94 16 -116 27l-15 48l4 5c25 -5 73 -10 95 -8
c104 8 164 104 176 167c-3 44 -14 115 -36 246l50 33l8 -6c6 -34 11 -66 18 -109c13 -72 39 -92 106 -92h25c9 0 16 -17 16 -38c0 -23 -7 -40 -16 -40h-28c-38 0 -68 9 -89 30v-9c-4 -136 -115 -246 -198 -254z" />
    <glyph glyph-name="uni0693.fina" unicode="&#x693;" horiz-adv-x="376" 
d="M376 78c9 0 16 -17 16 -38c0 -23 -7 -40 -16 -40h-28c-38 0 -68 9 -89 30v-9c-3 -108 -74 -199 -144 -237c16 -13 26 -33 26 -56c0 -42 -33 -75 -75 -75c-41 0 -74 33 -74 75c0 17 6 33 16 46c-25 5 -51 14 -63 20l-15 48l4 5c25 -5 73 -10 95 -8c104 8 164 104 176 167
c-3 44 -14 115 -36 246l50 33l8 -6c6 -34 11 -66 18 -109c13 -72 39 -92 106 -92h25zM66 -311c21 0 39 18 39 39s-18 39 -39 39s-39 -18 -39 -39s18 -39 39 -39z" />
    <glyph glyph-name="uni0695.fina" unicode="&#x695;" horiz-adv-x="376" 
d="M61 -233c-28 -3 -94 16 -116 27l-15 48l4 5c25 -5 73 -10 95 -8c104 8 164 104 176 167c-3 44 -14 115 -36 246l50 33l8 -6c6 -34 11 -66 18 -109c13 -72 39 -92 106 -92h25c9 0 16 -17 16 -38c0 -23 -7 -40 -16 -40h-28c-38 0 -68 9 -89 30v-9
c-4 -136 -115 -246 -198 -254zM72 -557l-90 234l30 23l72 -193l77 193l29 -23l-91 -218z" />
    <glyph glyph-name="uni0696.fina" unicode="&#x696;" horiz-adv-x="376" 
d="M194 366l-76 35v14l29 63l77 -37v-12zM61 -233c-28 -3 -94 16 -116 27l-15 48l4 5c25 -5 73 -10 95 -8c104 8 164 104 176 167c-3 44 -14 115 -36 246l50 33l8 -6c6 -34 11 -66 18 -109c13 -72 39 -92 106 -92h25c9 0 16 -17 16 -38c0 -23 -7 -40 -16 -40h-28
c-38 0 -68 9 -89 30v-9c-4 -136 -115 -246 -198 -254zM106 -425l-76 35v13l29 63l76 -36v-13z" />
    <glyph glyph-name="uniFB8B" unicode="&#x698;" horiz-adv-x="376" arabic-form="final" 
d="M172 469l-70 31v13l27 57l70 -33v-12zM267 366l-70 32v12l26 58l70 -33v-12zM118 358l-70 32v12l27 58l70 -33v-12zM61 -233c-28 -3 -94 16 -116 27l-15 48l4 5c25 -5 73 -10 95 -8c104 8 164 104 176 167c-3 44 -14 115 -36 246l50 33l8 -6c6 -34 11 -66 18 -109
c13 -72 39 -92 106 -92h25c9 0 16 -17 16 -38c0 -23 -7 -40 -16 -40h-28c-38 0 -68 9 -89 30v-9c-4 -136 -115 -246 -198 -254z" />
    <glyph glyph-name="uniFC5C" unicode="&#xfc5c;" horiz-adv-x="314" arabic-form="isolated" 
d="M163 368l-4 166l43 7v-110c0 -23 -2 -48 -4 -62zM61 -233c-28 -3 -94 16 -116 27l-15 48l4 5c25 -5 73 -10 95 -8c104 8 162 102 176 164c-3 45 -14 116 -36 249l50 33l8 -6c23 -138 32 -204 32 -247c2 -140 -113 -257 -198 -265z" />
    <glyph glyph-name="uniFEB2" unicode="&#x633;" horiz-adv-x="1189" arabic-form="final" 
d="M240 -193c-113 0 -195 49 -185 186c5 61 22 140 35 193l39 -2l4 -7c-10 -46 -25 -115 -30 -162c-11 -105 53 -130 154 -130c108 0 208 36 258 70c-9 78 -22 155 -41 268l49 32l9 -3l14 -77c13 -77 43 -97 123 -97c95 0 122 29 124 79l1 61l52 1v-120
c19 -13 49 -21 78 -21c25 0 47 7 62 20l-23 163l42 36l9 -4c5 -37 10 -73 15 -113c11 -80 47 -102 127 -102h33c9 0 17 -17 17 -38c0 -23 -8 -40 -17 -40h-33c-74 0 -112 20 -135 57c-2 -2 -4 -5 -6 -8c-21 -30 -60 -49 -107 -49c-36 0 -77 11 -100 35l-6 9
c-26 -26 -76 -44 -134 -44c-50 0 -82 9 -103 27c2 -17 3 -31 3 -43c0 -27 -3 -71 -47 -101c-61 -43 -161 -76 -281 -76z" />
    <glyph glyph-name="uniFEB4" unicode="&#x633;" horiz-adv-x="851" arabic-form="medial" 
d="M0 0c-9 0 -17 17 -17 40c0 21 8 38 17 38h33c77 0 111 19 134 81l34 93l10 4l38 -19l-30 -91l-9 -25c19 -27 63 -43 120 -43c96 0 123 29 124 79l2 61l51 1v-120c19 -13 49 -21 78 -21c24 0 48 7 63 20l-23 163l42 36l8 -4c5 -37 11 -73 16 -113c11 -80 46 -102 127 -102
h33c9 0 16 -17 16 -38c0 -23 -7 -40 -16 -40h-33c-74 0 -113 20 -136 57c-21 -35 -59 -57 -112 -57c-40 0 -89 15 -107 44c-25 -26 -75 -44 -134 -44c-74 0 -129 24 -149 63c-26 -46 -74 -63 -142 -63h-38z" />
    <glyph glyph-name="uniFEB3" unicode="&#x633;" horiz-adv-x="758" arabic-form="initial" 
d="M0 0c-9 0 -17 17 -17 40c0 21 8 38 17 38h33c77 0 111 19 134 81l34 93l10 4l38 -19l-30 -91l-9 -25c19 -27 63 -43 120 -43c96 0 123 29 124 79l2 61l51 1v-120c19 -13 50 -21 79 -21c23 0 47 7 62 20l-29 202l57 37l7 -4c7 -54 12 -100 16 -137c7 -50 8 -94 -10 -127
c-21 -46 -68 -69 -119 -69c-40 0 -89 15 -107 44c-25 -26 -75 -44 -134 -44c-74 0 -129 24 -149 63c-26 -46 -74 -63 -142 -63h-38z" />
    <glyph glyph-name="uniFEB6" unicode="&#x634;" horiz-adv-x="1189" arabic-form="final" 
d="M781 454l-70 31v13l27 58l70 -34v-11zM876 352l-70 31v13l27 57l70 -33v-11zM727 344l-69 31v13l26 57l70 -33v-11zM240 -193c-113 0 -195 49 -185 186c5 61 22 140 35 193l39 -2l4 -7c-10 -46 -25 -115 -30 -162c-11 -105 53 -130 154 -130c108 0 208 36 258 70
c-9 78 -22 155 -41 268l49 32l9 -3l14 -77c13 -77 43 -97 123 -97c95 0 122 29 124 79l1 61l52 1v-120c19 -13 49 -21 78 -21c25 0 47 7 62 20l-23 163l42 36l9 -4c5 -37 10 -73 15 -113c11 -80 47 -102 127 -102h33c9 0 17 -17 17 -38c0 -23 -8 -40 -17 -40h-33
c-74 0 -112 20 -135 57c-2 -2 -4 -5 -6 -8c-21 -30 -60 -49 -107 -49c-36 0 -77 11 -100 35l-6 9c-26 -26 -76 -44 -134 -44c-50 0 -82 9 -103 27c2 -17 3 -31 3 -43c0 -27 -3 -71 -47 -101c-61 -43 -161 -76 -281 -76z" />
    <glyph glyph-name="uniFEB8" unicode="&#x634;" horiz-adv-x="851" arabic-form="medial" 
d="M458 454l-70 31v13l27 58l70 -34v-11zM553 352l-70 31v13l27 57l70 -33v-11zM405 344l-70 31v13l26 57l70 -33v-11zM0 0c-9 0 -17 17 -17 40c0 21 8 38 17 38h33c77 0 111 19 134 81l34 93l10 4l38 -19l-30 -91l-9 -25c19 -27 63 -43 120 -43c96 0 123 29 124 79l2 61
l51 1v-120c19 -13 49 -21 78 -21c24 0 48 7 63 20l-23 163l42 36l8 -4c5 -37 11 -73 16 -113c11 -80 46 -102 127 -102h33c9 0 16 -17 16 -38c0 -23 -7 -40 -16 -40h-33c-74 0 -113 20 -136 57c-21 -35 -59 -57 -112 -57c-40 0 -89 15 -107 44c-25 -26 -75 -44 -134 -44
c-74 0 -129 24 -149 63c-26 -46 -74 -63 -142 -63h-38z" />
    <glyph glyph-name="uniFEB7" unicode="&#x634;" horiz-adv-x="758" arabic-form="initial" 
d="M458 454l-70 31v13l27 58l70 -34v-11zM553 352l-70 31v13l27 57l70 -33v-11zM405 344l-70 31v13l26 57l70 -33v-11zM0 0c-9 0 -17 17 -17 40c0 21 8 38 17 38h33c77 0 111 19 134 81l34 93l10 4l38 -19l-30 -91l-9 -25c19 -27 63 -43 120 -43c96 0 123 29 124 79l2 61
l51 1v-120c19 -13 50 -21 79 -21c23 0 47 7 62 20l-29 202l57 37l7 -4c7 -54 12 -100 16 -137c7 -50 8 -94 -10 -127c-21 -46 -68 -69 -119 -69c-40 0 -89 15 -107 44c-25 -26 -75 -44 -134 -44c-74 0 -129 24 -149 63c-26 -46 -74 -63 -142 -63h-38z" />
    <glyph glyph-name="uniFEBA" unicode="&#x635;" horiz-adv-x="1166" arabic-form="final" 
d="M240 -193c-113 0 -195 49 -185 186c5 61 22 140 35 193l39 -2l4 -7c-10 -46 -25 -115 -30 -162c-11 -105 53 -130 154 -130c108 0 208 36 258 70c-9 78 -22 155 -41 268l49 32l9 -3l13 -75c8 -44 19 -69 39 -83l3 26l132 150c53 60 100 90 171 90
c127 0 176 -114 176 -191c0 -29 -5 -56 -19 -78c20 -10 45 -13 80 -13h39c9 0 17 -17 17 -38c0 -23 -8 -40 -17 -40h-51c-50 0 -85 14 -114 44c-43 -28 -113 -44 -224 -44h-127c-38 0 -66 10 -85 27c2 -17 3 -31 3 -43c0 -27 -3 -71 -47 -101c-61 -43 -161 -76 -281 -76z
M653 78h131c129 0 186 17 224 50c2 89 -44 154 -129 154c-47 0 -68 -8 -88 -17l-173 -183c10 -3 21 -4 35 -4z" />
    <glyph glyph-name="uniFEBC" unicode="&#x635;" horiz-adv-x="870" arabic-form="medial" 
d="M-17 40c0 21 8 38 17 38h34c80 0 116 31 141 98l31 83l12 4l37 -18l-36 -109c-6 -18 14 -45 57 -53l4 23l143 164c52 60 101 90 171 90c127 0 176 -114 176 -191c0 -29 -5 -56 -19 -79c20 -9 44 -12 80 -12h39c9 0 17 -17 17 -38c0 -23 -8 -40 -17 -40h-51
c-50 0 -85 14 -114 44c-43 -28 -114 -44 -224 -44h-172c-67 0 -107 26 -125 66c-27 -51 -78 -66 -142 -66h-42c-9 0 -17 17 -17 40zM321 81c16 -2 33 -3 51 -3h116c129 0 186 17 224 50c2 89 -44 154 -129 154c-47 0 -68 -8 -88 -17z" />
    <glyph glyph-name="uniFEBB" unicode="&#x635;" horiz-adv-x="824" arabic-form="initial" 
d="M-17 40c0 21 8 38 17 38h34c80 0 116 31 141 98l31 83l12 4l37 -18l-36 -109c-6 -18 14 -45 57 -53l4 23l143 164c52 60 101 90 171 90c127 0 176 -114 176 -191c0 -97 -59 -169 -289 -169h-172c-67 0 -107 26 -125 66c-27 -51 -78 -66 -142 -66h-42c-9 0 -17 17 -17 40z
M321 81c16 -2 33 -3 51 -3h116c129 0 186 17 224 50c2 89 -44 154 -129 154c-47 0 -68 -8 -88 -17z" />
    <glyph glyph-name="uniFEBE" unicode="&#x636;" horiz-adv-x="1166" arabic-form="final" 
d="M882 450l-77 35v13l30 63l76 -36v-13zM240 -193c-113 0 -195 49 -185 186c5 61 22 140 35 193l39 -2l4 -7c-10 -46 -25 -115 -30 -162c-11 -105 53 -130 154 -130c108 0 208 36 258 70c-9 78 -22 155 -41 268l49 32l9 -3l13 -75c8 -44 19 -69 39 -83l3 26l132 150
c53 60 100 90 171 90c127 0 176 -114 176 -191c0 -29 -5 -56 -19 -78c20 -10 45 -13 80 -13h39c9 0 17 -17 17 -38c0 -23 -8 -40 -17 -40h-51c-50 0 -85 14 -114 44c-43 -28 -113 -44 -224 -44h-127c-38 0 -66 10 -85 27c2 -17 3 -31 3 -43c0 -27 -3 -71 -47 -101
c-61 -43 -161 -76 -281 -76zM653 78h131c129 0 186 17 224 50c2 89 -44 154 -129 154c-47 0 -68 -8 -88 -17l-173 -183c10 -3 21 -4 35 -4z" />
    <glyph glyph-name="uniFEC0" unicode="&#x636;" horiz-adv-x="870" arabic-form="medial" 
d="M608 450l-77 35v13l29 63l77 -36v-13zM-17 40c0 21 8 38 17 38h34c80 0 116 31 141 98l31 83l12 4l37 -18l-36 -109c-6 -18 14 -45 57 -53l4 23l143 164c52 60 101 90 171 90c127 0 176 -114 176 -191c0 -29 -5 -56 -19 -79c20 -9 44 -12 80 -12h39c9 0 17 -17 17 -38
c0 -23 -8 -40 -17 -40h-51c-50 0 -85 14 -114 44c-43 -28 -114 -44 -224 -44h-172c-67 0 -107 26 -125 66c-27 -51 -78 -66 -142 -66h-42c-9 0 -17 17 -17 40zM321 81c16 -2 33 -3 51 -3h116c129 0 186 17 224 50c2 89 -44 154 -129 154c-47 0 -68 -8 -88 -17z" />
    <glyph glyph-name="uniFEBF" unicode="&#x636;" horiz-adv-x="824" arabic-form="initial" 
d="M608 450l-77 35v13l29 63l77 -36v-13zM-17 40c0 21 8 38 17 38h34c80 0 116 31 141 98l31 83l12 4l37 -18l-36 -109c-6 -18 14 -45 57 -53l4 23l143 164c52 60 101 90 171 90c127 0 176 -114 176 -191c0 -97 -59 -169 -289 -169h-172c-67 0 -107 26 -125 66
c-27 -51 -78 -66 -142 -66h-42c-9 0 -17 17 -17 40zM321 81c16 -2 33 -3 51 -3h116c129 0 186 17 224 50c2 89 -44 154 -129 154c-47 0 -68 -8 -88 -17z" />
    <glyph glyph-name="uniFEC2" unicode="&#x637;" horiz-adv-x="743" arabic-form="final" 
d="M54 85l6 6c23 -3 47 -5 73 -7l88 100l-2 449l59 15v-315c0 -48 0 -58 -16 -102c11 12 23 26 34 39c52 60 100 90 171 90c127 0 176 -114 176 -191c0 -29 -5 -56 -19 -79c20 -9 44 -12 80 -12h39c9 0 17 -17 17 -38c0 -23 -8 -40 -17 -40h-51c-50 0 -85 14 -114 44
c-43 -28 -113 -44 -224 -44c-126 0 -217 4 -291 13zM195 81c44 -2 97 -3 166 -3c129 0 186 17 224 50c3 89 -44 154 -128 154c-48 0 -69 -8 -89 -17z" />
    <glyph glyph-name="uniFEC4" unicode="&#x637;" horiz-adv-x="721" arabic-form="medial" 
d="M-17 40c0 21 8 38 17 38h106l93 106l-2 449l59 15v-315c0 -48 0 -58 -16 -102c11 12 23 26 34 39c52 60 100 90 171 90c127 0 176 -114 176 -191c0 -29 -5 -56 -19 -79c20 -9 44 -12 80 -12h39c9 0 17 -17 17 -38c0 -23 -8 -40 -17 -40h-51c-50 0 -85 14 -114 44
c-43 -28 -113 -44 -224 -44h-332c-9 0 -17 17 -17 40zM170 78h169c129 0 186 17 224 50c3 89 -44 154 -128 154c-48 0 -69 -8 -89 -17z" />
    <glyph glyph-name="uniFEC3" unicode="&#x637;" horiz-adv-x="675" arabic-form="initial" 
d="M-17 40c0 21 8 38 17 38h106l93 106l-2 449l59 15v-315c0 -48 0 -58 -16 -102c11 12 23 26 34 39c52 60 100 90 171 90c127 0 176 -114 176 -191c0 -97 -59 -169 -289 -169h-332c-9 0 -17 17 -17 40zM170 78h169c129 0 186 17 224 50c3 89 -44 154 -128 154
c-48 0 -69 -8 -89 -17z" />
    <glyph glyph-name="uniFEC6" unicode="&#x638;" horiz-adv-x="743" arabic-form="final" 
d="M54 85l6 6c23 -3 47 -5 73 -7l88 100l-2 449l59 15v-315c0 -48 0 -58 -16 -102c11 12 23 26 34 39c52 60 100 90 171 90c127 0 176 -114 176 -191c0 -29 -5 -56 -19 -79c20 -9 44 -12 80 -12h39c9 0 17 -17 17 -38c0 -23 -8 -40 -17 -40h-51c-50 0 -85 14 -114 44
c-43 -28 -113 -44 -224 -44c-126 0 -217 4 -291 13zM474 450l-77 35v13l30 63l76 -36v-13zM195 81c44 -2 97 -3 166 -3c129 0 186 17 224 50c3 89 -44 154 -128 154c-48 0 -69 -8 -89 -17z" />
    <glyph glyph-name="uniFEC8" unicode="&#x638;" horiz-adv-x="721" arabic-form="medial" 
d="M-17 40c0 21 8 38 17 38h106l93 106l-2 449l59 15v-315c0 -48 0 -58 -16 -102c11 12 23 26 34 39c52 60 100 90 171 90c127 0 176 -114 176 -191c0 -29 -5 -56 -19 -79c20 -9 44 -12 80 -12h39c9 0 17 -17 17 -38c0 -23 -8 -40 -17 -40h-51c-50 0 -85 14 -114 44
c-43 -28 -113 -44 -224 -44h-332c-9 0 -17 17 -17 40zM467 450l-76 35v13l29 63l77 -36v-13zM170 78h169c129 0 186 17 224 50c3 89 -44 154 -128 154c-48 0 -69 -8 -89 -17z" />
    <glyph glyph-name="uniFEC7" unicode="&#x638;" horiz-adv-x="675" arabic-form="initial" 
d="M-17 40c0 21 8 38 17 38h106l93 106l-2 449l59 15v-315c0 -48 0 -58 -16 -102c11 12 23 26 34 39c52 60 100 90 171 90c127 0 176 -114 176 -191c0 -97 -59 -169 -289 -169h-332c-9 0 -17 17 -17 40zM467 450l-76 35v13l29 63l77 -36v-13zM170 78h169
c129 0 186 17 224 50c3 89 -44 154 -128 154c-48 0 -69 -8 -89 -17z" />
    <glyph glyph-name="uniFECA" unicode="&#x639;" horiz-adv-x="575" arabic-form="final" 
d="M440 -317c-239 -26 -335 58 -334 192c1 90 52 170 141 228c-10 10 -19 21 -29 33c-30 37 -64 78 -99 118l3 14l-61 -9l-7 6l15 64l91 17c54 11 130 22 176 22c94 0 161 -20 161 -98c0 -58 -62 -113 -132 -168c42 -19 94 -24 172 -24h38c10 0 17 -17 17 -38
c0 -23 -7 -40 -17 -40h-59c-93 0 -152 9 -208 47c-6 4 -13 9 -19 14c-71 -44 -119 -95 -142 -167c19 -104 75 -162 307 -136l87 10l5 -6l-15 -69zM306 136c52 33 102 71 144 112c1 35 -47 42 -115 42c-37 0 -111 -6 -156 -13c27 -30 52 -58 78 -88c18 -22 33 -38 49 -53z
" />
    <glyph glyph-name="uniFECC" unicode="&#x639;" horiz-adv-x="591" arabic-form="medial" 
d="M0 0c-9 0 -17 17 -17 40c0 21 8 38 17 38h52c73 0 130 5 181 27c-9 10 -18 19 -27 31c-30 37 -64 78 -99 118l3 14l-61 -9l-7 6l15 64l91 17c54 11 130 22 176 22c94 0 161 -20 161 -98c0 -58 -62 -113 -131 -169c41 -18 93 -23 171 -23h66c9 0 17 -17 17 -38
c0 -23 -8 -40 -17 -40h-87c-97 0 -158 10 -216 53c-62 -39 -125 -53 -217 -53h-71zM295 136c51 33 101 71 143 112c1 34 -47 42 -115 42c-37 0 -111 -6 -156 -13c27 -30 52 -58 78 -88c18 -22 34 -39 50 -53z" />
    <glyph glyph-name="uniFECB" unicode="&#x639;" horiz-adv-x="471" arabic-form="initial" 
d="M0 0c-9 0 -17 17 -17 40c0 21 8 38 17 38c48 0 73 2 124 10c-18 7 -33 18 -43 32c-24 38 -22 88 2 157c29 79 86 100 161 100c36 0 61 -6 82 -11l6 -11l-9 -55c-16 2 -33 3 -49 5c-65 6 -103 0 -137 -11c-7 -22 -12 -34 -17 -52c-9 -33 -7 -67 17 -90
c19 -20 49 -33 88 -33c20 0 50 6 69 12c38 11 76 24 114 35l8 -6v-59l-69 -24c-86 -30 -197 -71 -319 -76c-10 -1 -18 -1 -28 -1z" />
    <glyph glyph-name="uniFECE" unicode="&#x63a;" horiz-adv-x="575" arabic-form="final" 
d="M302 444l-77 34v14l29 63l77 -37v-12zM440 -317c-239 -26 -335 58 -334 192c1 90 52 170 141 228c-10 10 -19 21 -29 33c-30 37 -64 78 -99 118l3 14l-61 -9l-7 6l15 64l91 17c54 11 130 22 176 22c94 0 161 -20 161 -98c0 -58 -62 -113 -132 -168c42 -19 94 -24 172 -24
h38c10 0 17 -17 17 -38c0 -23 -7 -40 -17 -40h-59c-93 0 -152 9 -208 47c-6 4 -13 9 -19 14c-71 -44 -119 -95 -142 -167c19 -104 75 -162 307 -136l87 10l5 -6l-15 -69zM306 136c52 33 102 71 144 112c1 35 -47 42 -115 42c-37 0 -111 -6 -156 -13c27 -30 52 -58 78 -88
c18 -22 33 -38 49 -53z" />
    <glyph glyph-name="uniFED0" unicode="&#x63a;" horiz-adv-x="591" arabic-form="medial" 
d="M305 444l-76 34v14l29 63l76 -37v-12zM0 0c-9 0 -17 17 -17 40c0 21 8 38 17 38h52c73 0 130 5 181 27c-9 10 -18 19 -27 31c-30 37 -64 78 -99 118l3 14l-61 -9l-7 6l15 64l91 17c54 11 130 22 176 22c94 0 161 -20 161 -98c0 -58 -62 -113 -131 -169
c41 -18 93 -23 171 -23h66c9 0 17 -17 17 -38c0 -23 -8 -40 -17 -40h-87c-97 0 -158 10 -216 53c-62 -39 -125 -53 -217 -53h-71zM295 136c51 33 101 71 143 112c1 34 -47 42 -115 42c-37 0 -111 -6 -156 -13c27 -30 52 -58 78 -88c18 -22 34 -39 50 -53z" />
    <glyph glyph-name="uniFECF" unicode="&#x63a;" horiz-adv-x="471" arabic-form="initial" 
d="M215 455l-76 34v14l29 63l76 -36v-13zM0 0c-9 0 -17 17 -17 40c0 21 8 38 17 38c48 0 73 2 124 10c-18 7 -33 18 -43 32c-24 38 -22 88 2 157c29 79 86 100 161 100c36 0 61 -6 82 -11l6 -11l-9 -55c-16 2 -33 3 -49 5c-65 6 -103 0 -137 -11c-7 -22 -12 -34 -17 -52
c-9 -33 -7 -67 17 -90c19 -20 49 -33 88 -33c20 0 50 6 69 12c38 11 76 24 114 35l8 -6v-59l-69 -24c-86 -30 -197 -71 -319 -76c-10 -1 -18 -1 -28 -1z" />
    <glyph glyph-name="uniFED2" unicode="&#x641;" horiz-adv-x="837" arabic-form="final" 
d="M619 447l-76 34v14l29 63l77 -37v-12zM55 151c1 20 5 51 11 89c4 20 7 39 10 58l39 6l6 -5l-17 -122c-8 -59 12 -109 198 -109c61 0 137 7 195 16c-28 28 -39 69 -24 124c22 81 41 163 115 163c137 0 176 -77 176 -151c0 -58 -26 -100 -56 -140c17 -1 37 -2 57 -2h72
c10 0 17 -17 17 -38c0 -23 -7 -40 -17 -40h-69c-66 0 -136 8 -191 28c-81 -25 -189 -38 -293 -38c-199 0 -234 77 -229 161zM522 209c-14 -59 19 -100 104 -118c58 40 91 78 91 119c0 55 -38 83 -135 90c-9 1 -20 2 -30 2c-13 -34 -23 -64 -30 -93z" />
    <glyph glyph-name="uniFED4" unicode="&#x641;" horiz-adv-x="457" arabic-form="medial" 
d="M228 447l-77 34v14l30 63l76 -37v-12zM0 0c-9 0 -17 17 -17 40c0 21 8 38 17 38h30c26 0 58 2 88 5c-29 29 -41 70 -26 125c22 81 42 163 115 163c137 0 176 -77 176 -151c0 -54 -24 -102 -52 -140c17 0 34 -2 53 -2h73c9 0 16 -17 16 -38c0 -23 -7 -40 -16 -40h-70
c-63 0 -128 7 -181 24c-53 -16 -117 -24 -170 -24h-36zM245 91c58 40 91 78 91 119c0 55 -38 83 -135 90c-9 1 -19 2 -29 2c-13 -34 -24 -64 -31 -93c-13 -59 20 -100 104 -118z" />
    <glyph glyph-name="uniFED3" unicode="&#x641;" horiz-adv-x="391" arabic-form="initial" 
d="M192 586l-76 35v13l29 63l76 -36v-13zM0 0c-9 0 -17 17 -17 40c0 21 8 38 17 38h24c109 0 194 12 246 47c5 26 6 51 6 74c-55 -14 -106 -17 -141 -17c-66 0 -105 26 -106 88c0 7 0 15 1 24c14 140 62 210 141 210c69 0 105 -37 126 -75c23 -44 39 -123 40 -192
c1 -77 -17 -147 -53 -179c-54 -47 -162 -58 -248 -58h-36zM153 256c36 0 74 3 122 10c-6 60 -24 123 -39 155c-24 10 -42 14 -69 14c-47 0 -74 -21 -84 -120c0 -6 -1 -12 -1 -16c0 -35 22 -43 71 -43z" />
    <glyph glyph-name="uniFB6A" unicode="&#x6a4;" horiz-adv-x="803" arabic-form="isolated" 
d="M552 681l-69 32v12l26 58l70 -33v-12zM647 579l-70 32v12l27 58l70 -34v-11zM499 571l-70 32v12l26 58l70 -34v-11zM284 -10c-187 0 -229 68 -230 146c0 27 7 77 12 104c4 20 7 39 10 58l39 6l6 -5l-17 -122c-1 -6 -1 -13 -1 -20c0 -50 34 -89 199 -89
c206 0 322 20 380 57c4 26 5 51 6 74c-56 -14 -107 -17 -142 -17c-66 0 -105 27 -106 90c0 7 0 14 2 22c14 140 61 210 140 210c69 0 105 -37 126 -75c24 -44 41 -126 41 -196c0 -76 -18 -144 -52 -173c-60 -51 -233 -70 -413 -70zM565 256c35 0 74 3 121 10
c-5 60 -23 121 -38 155c-27 10 -47 14 -69 14c-49 0 -75 -21 -84 -120c-1 -6 -1 -11 -1 -16c0 -35 21 -43 71 -43z" />
    <glyph glyph-name="uniFB6B" unicode="&#x6a4;" horiz-adv-x="837" arabic-form="final" 
d="M580 542l-69 32v12l26 58l70 -34v-11zM675 440l-70 31v13l27 58l70 -34v-11zM527 432l-70 31v13l26 58l70 -34v-11zM55 151c1 20 5 51 11 89c4 20 7 39 10 58l39 6l6 -5l-17 -122c-8 -59 12 -109 198 -109c61 0 137 7 195 16c-28 28 -39 69 -24 124c22 81 41 163 115 163
c137 0 176 -77 176 -151c0 -58 -26 -100 -56 -140c17 -1 37 -2 57 -2h72c10 0 17 -17 17 -38c0 -23 -7 -40 -17 -40h-69c-66 0 -136 8 -191 28c-81 -25 -189 -38 -293 -38c-199 0 -234 77 -229 161zM522 209c-14 -59 19 -100 104 -118c58 40 91 78 91 119
c0 55 -38 83 -135 90c-9 1 -20 2 -30 2c-13 -34 -23 -64 -30 -93z" />
    <glyph glyph-name="uniFB6D" unicode="&#x6a4;" horiz-adv-x="457" arabic-form="medial" 
d="M231 542l-70 32v12l27 58l70 -34v-11zM326 440l-70 31v13l27 58l70 -34v-11zM177 432l-69 31v13l26 58l70 -34v-11zM0 0c-9 0 -17 17 -17 40c0 21 8 38 17 38h30c26 0 58 2 88 5c-29 29 -41 70 -26 125c22 81 42 163 115 163c137 0 176 -77 176 -151
c0 -54 -24 -102 -52 -140c17 0 34 -2 53 -2h73c9 0 16 -17 16 -38c0 -23 -7 -40 -16 -40h-70c-63 0 -128 7 -181 24c-53 -16 -117 -24 -170 -24h-36zM245 91c58 40 91 78 91 119c0 55 -38 83 -135 90c-9 1 -19 2 -29 2c-13 -34 -24 -64 -31 -93c-13 -59 20 -100 104 -118z
" />
    <glyph glyph-name="uniFB6C" unicode="&#x6a4;" horiz-adv-x="391" arabic-form="initial" 
d="M155 685l-70 32v12l27 58l70 -34v-11zM250 583l-70 32v12l26 58l70 -34v-11zM101 575l-70 32v12l27 58l70 -34v-11zM0 0c-9 0 -17 17 -17 40c0 21 8 38 17 38h24c109 0 194 12 246 47c5 26 6 51 6 74c-55 -14 -106 -17 -141 -17c-66 0 -105 26 -106 88c0 7 0 15 1 24
c14 140 62 210 141 210c69 0 105 -37 126 -75c23 -44 39 -123 40 -192c1 -77 -17 -147 -53 -179c-54 -47 -162 -58 -248 -58h-36zM153 256c36 0 74 3 122 10c-6 60 -24 123 -39 155c-24 10 -42 14 -69 14c-47 0 -74 -21 -84 -120c0 -6 -1 -12 -1 -16c0 -35 22 -43 71 -43z
" />
    <glyph glyph-name="uni06A1.init" unicode="&#x6a1;" horiz-adv-x="391" 
d="M0 0c-9 0 -17 17 -17 40c0 21 8 38 17 38h24c109 0 194 12 246 47c5 26 6 51 6 74c-55 -14 -106 -17 -141 -17c-66 0 -105 26 -106 88c0 7 0 15 1 24c14 140 62 210 141 210c69 0 105 -37 126 -75c23 -44 39 -123 40 -192c1 -77 -17 -147 -53 -179
c-54 -47 -162 -58 -248 -58h-36zM153 256c36 0 74 3 122 10c-6 60 -24 123 -39 155c-24 10 -42 14 -69 14c-47 0 -74 -21 -84 -120c0 -6 -1 -12 -1 -16c0 -35 22 -43 71 -43z" />
    <glyph glyph-name="uni06A1.medi" unicode="&#x6a1;" horiz-adv-x="457" 
d="M0 0c-9 0 -17 17 -17 40c0 21 8 38 17 38h30c26 0 58 2 88 5c-29 29 -41 70 -26 125c22 81 42 163 115 163c137 0 176 -77 176 -151c0 -54 -24 -102 -52 -140c17 0 34 -2 53 -2h73c9 0 16 -17 16 -38c0 -23 -7 -40 -16 -40h-70c-63 0 -128 7 -181 24
c-53 -16 -117 -24 -170 -24h-36zM245 91c58 40 91 78 91 119c0 55 -38 83 -135 90c-9 1 -19 2 -29 2c-13 -34 -24 -64 -31 -93c-13 -59 20 -100 104 -118z" />
    <glyph glyph-name="uni06A1.fina" unicode="&#x6a1;" horiz-adv-x="837" 
d="M55 151c1 20 5 51 11 89c4 20 7 39 10 58l39 6l6 -5l-17 -122c-8 -59 12 -109 198 -109c61 0 137 7 195 16c-28 28 -39 69 -24 124c22 81 41 163 115 163c137 0 176 -77 176 -151c0 -58 -26 -100 -56 -140c17 -1 37 -2 57 -2h72c10 0 17 -17 17 -38c0 -23 -7 -40 -17 -40
h-69c-66 0 -136 8 -191 28c-81 -25 -189 -38 -293 -38c-199 0 -234 77 -229 161zM522 209c-14 -59 19 -100 104 -118c58 40 91 78 91 119c0 55 -38 83 -135 90c-9 1 -20 2 -30 2c-13 -34 -23 -64 -30 -93z" />
    <glyph glyph-name="uni06A2.init" unicode="&#x6a2;" horiz-adv-x="391" 
d="M0 0c-9 0 -17 17 -17 40c0 21 8 38 17 38h24c109 0 194 12 246 47c5 26 6 51 6 74c-55 -14 -106 -17 -141 -17c-66 0 -105 26 -106 88c0 7 0 15 1 24c14 140 62 210 141 210c69 0 105 -37 126 -75c23 -44 39 -123 40 -192c1 -77 -17 -147 -53 -179
c-54 -47 -162 -58 -248 -58h-36zM153 256c36 0 74 3 122 10c-6 60 -24 123 -39 155c-24 10 -42 14 -69 14c-47 0 -74 -21 -84 -120c0 -6 -1 -12 -1 -16c0 -35 22 -43 71 -43zM171 -199l-76 34v14l29 63l77 -36v-13z" />
    <glyph glyph-name="uni06A2.medi" unicode="&#x6a2;" horiz-adv-x="457" 
d="M0 0c-9 0 -17 17 -17 40c0 21 8 38 17 38h30c26 0 58 2 88 5c-29 29 -41 70 -26 125c22 81 42 163 115 163c137 0 176 -77 176 -151c0 -54 -24 -102 -52 -140c17 0 34 -2 53 -2h73c9 0 16 -17 16 -38c0 -23 -7 -40 -16 -40h-70c-63 0 -128 7 -181 24
c-53 -16 -117 -24 -170 -24h-36zM245 91c58 40 91 78 91 119c0 55 -38 83 -135 90c-9 1 -19 2 -29 2c-13 -34 -24 -64 -31 -93c-13 -59 20 -100 104 -118zM180 -199l-76 34v14l29 63l77 -36v-13z" />
    <glyph glyph-name="uni06A2.fina" unicode="&#x6a2;" horiz-adv-x="837" 
d="M55 151c1 20 5 51 11 89c4 20 7 39 10 58l39 6l6 -5l-17 -122c-8 -59 12 -109 198 -109c61 0 137 7 195 16c-28 28 -39 69 -24 124c22 81 41 163 115 163c137 0 176 -77 176 -151c0 -58 -26 -100 -56 -140c17 -1 37 -2 57 -2h72c10 0 17 -17 17 -38c0 -23 -7 -40 -17 -40
h-69c-66 0 -136 8 -191 28c-81 -25 -189 -38 -293 -38c-199 0 -234 77 -229 161zM522 209c-14 -59 19 -100 104 -118c58 40 91 78 91 119c0 55 -38 83 -135 90c-9 1 -20 2 -30 2c-13 -34 -23 -64 -30 -93zM327 -226l-77 35v14l29 63l77 -37v-12z" />
    <glyph glyph-name="uniFB6E" unicode="&#x6a6;" horiz-adv-x="803" arabic-form="isolated" 
d="M637 702l-70 31v13l27 57l69 -33v-11zM502 694l-70 31v13l27 57l69 -33v-11zM637 575l-70 31v13l27 57l69 -33v-11zM502 567l-70 31v13l27 57l69 -33v-11zM284 -10c-187 0 -229 68 -230 146c0 27 7 77 12 104c4 20 7 39 10 58l39 6l6 -5l-17 -122c-1 -6 -1 -13 -1 -20
c0 -50 34 -89 199 -89c206 0 322 20 380 57c4 26 5 51 6 74c-56 -14 -107 -17 -142 -17c-66 0 -105 27 -106 90c0 7 0 14 2 22c14 140 61 210 140 210c69 0 105 -37 126 -75c24 -44 41 -126 41 -196c0 -76 -18 -144 -52 -173c-60 -51 -233 -70 -413 -70zM565 256
c35 0 74 3 121 10c-5 60 -23 121 -38 155c-27 10 -47 14 -69 14c-49 0 -75 -21 -84 -120c-1 -6 -1 -11 -1 -16c0 -35 21 -43 71 -43z" />
    <glyph glyph-name="uniFB6F" unicode="&#x6a6;" horiz-adv-x="837" arabic-form="final" 
d="M674 568l-70 31v13l26 57l70 -33v-11zM539 560l-70 31v13l26 57l70 -33v-11zM674 441l-70 31v13l26 57l70 -33v-11zM539 433l-70 31v13l26 57l70 -33v-11zM55 151c1 20 5 51 11 89c4 20 7 39 10 58l39 6l6 -5l-17 -122c-8 -59 12 -109 198 -109c61 0 137 7 195 16
c-28 28 -39 69 -24 124c22 81 41 163 115 163c137 0 176 -77 176 -151c0 -58 -26 -100 -56 -140c17 -1 37 -2 57 -2h72c10 0 17 -17 17 -38c0 -23 -7 -40 -17 -40h-69c-66 0 -136 8 -191 28c-81 -25 -189 -38 -293 -38c-199 0 -234 77 -229 161zM522 209
c-14 -59 19 -100 104 -118c58 40 91 78 91 119c0 55 -38 83 -135 90c-9 1 -20 2 -30 2c-13 -34 -23 -64 -30 -93z" />
    <glyph glyph-name="uniFB71" unicode="&#x6a6;" horiz-adv-x="457" arabic-form="medial" 
d="M306 568l-70 31v13l27 57l70 -33v-11zM171 560l-70 31v13l27 57l70 -33v-11zM306 441l-70 31v13l27 57l70 -33v-11zM171 433l-70 31v13l27 57l70 -33v-11zM0 0c-9 0 -17 17 -17 40c0 21 8 38 17 38h30c26 0 58 2 88 5c-29 29 -41 70 -26 125c22 81 42 163 115 163
c137 0 176 -77 176 -151c0 -54 -24 -102 -52 -140c17 0 34 -2 53 -2h73c9 0 16 -17 16 -38c0 -23 -7 -40 -16 -40h-70c-63 0 -128 7 -181 24c-53 -16 -117 -24 -170 -24h-36zM245 91c58 40 91 78 91 119c0 55 -38 83 -135 90c-9 1 -19 2 -29 2c-13 -34 -24 -64 -31 -93
c-13 -59 20 -100 104 -118z" />
    <glyph glyph-name="uniFB70" unicode="&#x6a6;" horiz-adv-x="391" arabic-form="initial" 
d="M243 701l-70 31v13l26 57l70 -33v-11zM108 693l-70 31v13l26 57l70 -33v-11zM243 574l-70 31v13l26 57l70 -33v-11zM108 566l-70 31v13l26 57l70 -33v-11zM0 0c-9 0 -17 17 -17 40c0 21 8 38 17 38h24c109 0 194 12 246 47c5 26 6 51 6 74c-55 -14 -106 -17 -141 -17
c-66 0 -105 26 -106 88c0 7 0 15 1 24c14 140 62 210 141 210c69 0 105 -37 126 -75c23 -44 39 -123 40 -192c1 -77 -17 -147 -53 -179c-54 -47 -162 -58 -248 -58h-36zM153 256c36 0 74 3 122 10c-6 60 -24 123 -39 155c-24 10 -42 14 -69 14c-47 0 -74 -21 -84 -120
c0 -6 -1 -12 -1 -16c0 -35 22 -43 71 -43z" />
    <glyph glyph-name="uni066F.fina" unicode="&#x66f;" horiz-adv-x="633" 
d="M240 -193c-113 0 -195 49 -185 186c5 61 22 140 35 193l39 -2l4 -7c-10 -46 -25 -115 -30 -162c-11 -105 53 -130 154 -130c100 0 195 26 252 63c3 20 4 38 5 54h-142c-66 0 -106 28 -106 92c0 7 1 13 2 20c14 140 61 210 140 210c70 0 105 -37 126 -75s37 -106 40 -171
h59c9 0 16 -17 16 -38c0 -23 -7 -40 -16 -40h-63c-7 -47 -23 -87 -51 -110c-58 -50 -150 -83 -279 -83zM391 76h122c-5 62 -22 127 -39 165c-26 10 -46 14 -69 14c-48 0 -75 -21 -84 -120c-1 -5 -1 -10 -1 -14c-1 -37 21 -45 71 -45z" />
    <glyph glyph-name="uniFED6" unicode="&#x642;" horiz-adv-x="633" arabic-form="final" 
d="M476 406l-70 32v12l27 58l70 -34v-11zM338 398l-70 32v12l26 58l70 -34v-11zM240 -193c-113 0 -195 49 -185 186c5 61 22 140 35 193l39 -2l4 -7c-10 -46 -25 -115 -30 -162c-11 -105 53 -130 154 -130c100 0 195 26 252 63c3 20 4 38 5 54h-142c-66 0 -106 28 -106 92
c0 7 1 13 2 20c14 140 61 210 140 210c70 0 105 -37 126 -75s37 -106 40 -171h59c9 0 16 -17 16 -38c0 -23 -7 -40 -16 -40h-63c-7 -47 -23 -87 -51 -110c-58 -50 -150 -83 -279 -83zM391 76h122c-5 62 -22 127 -39 165c-26 10 -46 14 -69 14c-48 0 -75 -21 -84 -120
c-1 -5 -1 -10 -1 -14c-1 -37 21 -45 71 -45z" />
    <glyph glyph-name="uniFED8" unicode="&#x642;" horiz-adv-x="457" arabic-form="medial" 
d="M314 464l-70 31v13l27 57l70 -33v-11zM176 456l-70 31v13l26 57l70 -33v-11zM0 0c-9 0 -17 17 -17 40c0 21 8 38 17 38h30c26 0 58 2 88 5c-29 29 -41 70 -26 125c22 81 42 163 115 163c137 0 176 -77 176 -151c0 -54 -24 -102 -52 -140c17 0 34 -2 53 -2h73
c9 0 16 -17 16 -38c0 -23 -7 -40 -16 -40h-70c-63 0 -128 7 -181 24c-53 -16 -117 -24 -170 -24h-36zM245 91c58 40 91 78 91 119c0 55 -38 83 -135 90c-9 1 -19 2 -29 2c-13 -34 -24 -64 -31 -93c-13 -59 20 -100 104 -118z" />
    <glyph glyph-name="uniFED7" unicode="&#x642;" horiz-adv-x="391" arabic-form="initial" 
d="M247 588l-70 31v13l27 57l70 -33v-12zM109 580l-70 31v13l26 57l70 -33v-12zM0 0c-9 0 -17 17 -17 40c0 21 8 38 17 38h24c109 0 194 12 246 47c5 26 6 51 6 74c-55 -14 -106 -17 -141 -17c-66 0 -105 26 -106 88c0 7 0 15 1 24c14 140 62 210 141 210
c69 0 105 -37 126 -75c23 -44 39 -123 40 -192c1 -77 -17 -147 -53 -179c-54 -47 -162 -58 -248 -58h-36zM153 256c36 0 74 3 122 10c-6 60 -24 123 -39 155c-24 10 -42 14 -69 14c-47 0 -74 -21 -84 -120c0 -6 -1 -12 -1 -16c0 -35 22 -43 71 -43z" />
    <glyph glyph-name="uniFEDA" unicode="&#x643;" horiz-adv-x="871" arabic-form="final" 
d="M284 -10c-199 0 -234 77 -229 161c1 20 5 51 11 89c4 20 7 39 10 58l39 6l6 -5l-17 -122c-8 -59 12 -109 198 -109c222 0 330 24 378 56l-4 509l59 15v-471c0 -80 34 -99 106 -99h30c10 0 17 -17 17 -38c0 -23 -7 -40 -17 -40h-31c-75 0 -119 23 -140 67
c-8 -9 -18 -15 -29 -22c-74 -45 -215 -55 -387 -55zM328 207l-32 43c92 44 127 67 149 86c-40 17 -86 33 -139 53v66l156 102l5 -50l-122 -79c32 -14 61 -25 94 -38c41 -14 54 -29 54 -48c0 -45 -75 -89 -165 -135z" />
    <glyph glyph-name="uniFEDC" unicode="&#x643;" horiz-adv-x="580" arabic-form="medial" 
d="M0 0c-9 0 -17 17 -17 40c0 21 8 38 17 38c182 0 248 16 293 49c-9 35 -34 67 -89 128l-161 183l14 94l381 112l-3 -64l-339 -101l180 -204c123 -139 168 -184 253 -194c15 -2 33 -3 51 -3c10 0 17 -17 17 -38c0 -23 -7 -40 -17 -40c-21 0 -40 1 -58 3
c-82 9 -134 44 -191 115c1 -9 1 -16 -1 -23c-34 -72 -139 -91 -270 -94c-21 -1 -40 -1 -60 -1z" />
    <glyph glyph-name="uniFEDB" unicode="&#x643;" horiz-adv-x="489" arabic-form="initial" 
d="M0 0c-9 0 -17 17 -17 40c0 21 8 38 17 38c191 0 261 16 306 49c-8 35 -28 70 -93 134l-176 176l14 94l383 113l-2 -64l-342 -102l201 -203c37 -37 64 -82 64 -124c0 -124 -136 -148 -305 -150c-16 -1 -33 -1 -50 -1z" />
    <glyph glyph-name="uniFB8F" unicode="&#x6a9;" horiz-adv-x="977" arabic-form="final" 
d="M291 -10c-199 0 -234 77 -230 161c2 20 6 51 12 89c4 20 6 39 10 58l38 6l6 -5l-16 -122c-8 -59 12 -109 198 -109c224 0 336 26 381 59c-9 35 -34 66 -89 128l-162 183l14 94l381 112l-2 -64l-340 -101l181 -204c130 -147 173 -189 269 -195c10 -1 22 -2 35 -2
c9 0 17 -17 17 -38c0 -23 -8 -40 -17 -40c-13 0 -25 0 -37 1c-94 7 -151 40 -213 117c-2 -17 -7 -32 -16 -44c-54 -67 -215 -84 -420 -84z" />
    <glyph glyph-name="uniFB91" unicode="&#x6a9;" horiz-adv-x="580" arabic-form="medial" 
d="M0 0c-9 0 -17 17 -17 40c0 21 8 38 17 38c182 0 248 16 293 49c-9 35 -34 67 -89 128l-161 183l14 94l381 112l-3 -64l-339 -101l180 -204c123 -139 168 -184 253 -194c15 -2 33 -3 51 -3c10 0 17 -17 17 -38c0 -23 -7 -40 -17 -40c-21 0 -40 1 -58 3
c-82 9 -134 44 -191 115c1 -9 1 -16 -1 -23c-34 -72 -139 -91 -270 -94c-21 -1 -40 -1 -60 -1z" />
    <glyph glyph-name="uniFB90" unicode="&#x6a9;" horiz-adv-x="489" arabic-form="initial" 
d="M0 0c-9 0 -17 17 -17 40c0 21 8 38 17 38c191 0 261 16 306 49c-8 35 -28 70 -93 134l-176 176l14 94l383 113l-2 -64l-342 -102l201 -203c37 -37 64 -82 64 -124c0 -124 -136 -148 -305 -150c-16 -1 -33 -1 -50 -1z" />
    <glyph glyph-name="uniFB93" unicode="&#x6af;" horiz-adv-x="977" arabic-form="final" 
d="M462 589l8 59l240 70l-3 -58zM291 -10c-199 0 -234 77 -230 161c2 20 6 51 12 89c4 20 6 39 10 58l38 6l6 -5l-16 -122c-8 -59 12 -109 198 -109c224 0 336 26 381 59c-9 35 -34 66 -89 128l-162 183l14 94l381 112l-2 -64l-340 -101l181 -204
c130 -147 173 -189 269 -195c10 -1 22 -2 35 -2c9 0 17 -17 17 -38c0 -23 -8 -40 -17 -40c-13 0 -25 0 -37 1c-94 7 -151 40 -213 117c-2 -17 -7 -32 -16 -44c-54 -67 -215 -84 -420 -84z" />
    <glyph glyph-name="uniFB95" unicode="&#x6af;" horiz-adv-x="580" arabic-form="medial" 
d="M65 589l9 59l239 70l-2 -58zM0 0c-9 0 -17 17 -17 40c0 21 8 38 17 38c182 0 248 16 293 49c-9 35 -34 67 -89 128l-161 183l14 94l381 112l-3 -64l-339 -101l180 -204c123 -139 168 -184 253 -194c15 -2 33 -3 51 -3c10 0 17 -17 17 -38c0 -23 -7 -40 -17 -40
c-21 0 -40 1 -58 3c-82 9 -134 44 -191 115c1 -9 1 -16 -1 -23c-34 -72 -139 -91 -270 -94c-21 -1 -40 -1 -60 -1z" />
    <glyph glyph-name="uniFB94" unicode="&#x6af;" horiz-adv-x="489" arabic-form="initial" 
d="M59 588l9 60l239 70l-2 -58zM0 0c-9 0 -17 17 -17 40c0 21 8 38 17 38c191 0 261 16 306 49c-8 35 -28 70 -93 134l-176 176l14 94l383 113l-2 -64l-342 -102l201 -203c37 -37 64 -82 64 -124c0 -124 -136 -148 -305 -150c-16 -1 -33 -1 -50 -1z" />
    <glyph glyph-name="uni06B0.init" unicode="&#x6b0;" horiz-adv-x="489" 
d="M307 718l-2 -58l-246 -71l9 59zM434 644l-2 -64l-63 -19c15 -13 25 -33 25 -55c0 -42 -34 -75 -75 -75s-75 33 -75 75c0 6 1 13 2 19l-156 -47l201 -203c37 -37 64 -82 64 -124c0 -124 -136 -148 -305 -150c-16 -1 -33 -1 -50 -1c-9 0 -17 17 -17 40c0 21 8 38 17 38
c191 0 261 16 306 49c-8 35 -28 70 -93 134l-176 176l14 94zM319 545h-6l-9 -3c-14 -6 -24 -20 -24 -36c0 -21 18 -39 39 -39s39 18 39 39s-18 39 -39 39z" />
    <glyph glyph-name="uni06B0.medi" unicode="&#x6b0;" horiz-adv-x="580" 
d="M313 718l-2 -58l-246 -71l9 59zM580 78c10 0 17 -17 17 -38c0 -23 -7 -40 -17 -40c-21 0 -40 1 -58 3c-82 9 -134 44 -191 115c1 -9 1 -16 -1 -23c-34 -72 -139 -91 -270 -94c-21 -1 -40 -1 -60 -1c-9 0 -17 17 -17 40c0 21 8 38 17 38c182 0 248 16 293 49
c-9 35 -34 67 -89 128l-161 183l14 94l381 112l-3 -64l-63 -19c15 -13 24 -33 24 -55c0 -42 -33 -75 -74 -75c-42 0 -75 33 -75 75c0 6 1 13 2 19l-153 -46l180 -204c123 -139 168 -184 253 -194c15 -2 33 -3 51 -3zM322 545c-2 0 -4 0 -6 -1l-9 -2c-14 -6 -24 -20 -24 -36
c0 -21 18 -39 39 -39s39 18 39 39s-18 39 -39 39z" />
    <glyph glyph-name="uni06B0.fina" unicode="&#x6b0;" horiz-adv-x="977" 
d="M708 721l-2 -58l-246 -72l9 60zM977 78c9 0 17 -17 17 -38c0 -23 -8 -40 -17 -40c-13 0 -25 0 -37 1c-94 7 -151 40 -213 117c-2 -17 -7 -32 -16 -44c-54 -67 -215 -84 -420 -84c-199 0 -234 77 -230 161c2 20 6 51 12 89c4 20 6 39 10 58l38 6l6 -5l-16 -122
c-8 -59 12 -109 198 -109c224 0 336 26 381 59c-9 35 -34 66 -89 128l-162 183l14 94l381 112l-2 -64l-76 -23c13 -13 21 -31 21 -51c0 -42 -33 -75 -74 -75c-42 0 -75 33 -75 75c0 5 0 9 1 14l-137 -41l181 -204c130 -147 173 -189 269 -195c10 -1 22 -2 35 -2zM742 506
c0 18 -14 34 -31 38l-35 -10c-7 -8 -12 -17 -12 -28c0 -21 18 -39 39 -39s39 18 39 39z" />
    <glyph glyph-name="uni06AA.init" unicode="&#x6aa;" horiz-adv-x="895" 
d="M0 0c-9 0 -17 17 -17 40c0 21 8 38 17 38h291c158 0 244 3 359 9c59 4 109 10 137 19c0 9 0 25 -5 42c-11 46 -47 98 -183 98h-352c-84 0 -166 9 -166 94c0 26 8 48 21 68c20 31 59 58 113 79l195 78l-10 -75l-128 -46c-55 -19 -106 -37 -142 -55c-2 -11 -2 -19 -1 -28
c6 -26 27 -42 97 -42h370c196 0 245 -105 245 -187c0 -107 -57 -132 -570 -132h-271z" />
    <glyph glyph-name="uni06AA.medi" unicode="&#x6aa;" horiz-adv-x="958" 
d="M-17 40c0 21 8 38 17 38h291c158 0 244 3 359 9c59 4 109 10 137 19c0 8 0 21 -3 34c-8 48 -41 106 -185 106h-352c-84 0 -166 9 -166 94c0 29 9 55 28 77c21 27 59 51 106 70l195 78l-10 -75l-128 -46c-55 -19 -106 -37 -142 -55c-2 -15 -1 -26 3 -37
c8 -19 31 -33 93 -33h370c196 0 245 -105 245 -187c0 -15 -1 -28 -6 -40c23 -12 49 -14 85 -14h38c9 0 17 -17 17 -38c0 -23 -8 -40 -17 -40h-51c-48 0 -84 13 -113 43c-61 -33 -202 -43 -523 -43h-271c-9 0 -17 17 -17 40z" />
    <glyph glyph-name="uni06AA.fina" unicode="&#x6aa;" horiz-adv-x="1035" 
d="M373 0c-128 0 -231 4 -310 15l-9 72l6 5c81 -10 168 -14 327 -14c143 0 240 3 351 10c55 4 99 10 126 18c0 8 0 18 -1 29c-7 48 -37 111 -187 111h-352c-84 0 -165 9 -165 94c0 29 8 55 26 77c21 27 59 51 108 70l195 78l-11 -75l-127 -46c-56 -19 -107 -37 -143 -55
c-2 -14 -1 -24 2 -34c7 -22 30 -36 94 -36h371c195 0 244 -105 244 -187c0 -15 -1 -28 -6 -40c23 -12 49 -14 85 -14h38c9 0 17 -17 17 -38c0 -23 -8 -40 -17 -40h-51c-48 0 -84 13 -113 43c-61 -33 -198 -43 -498 -43z" />
    <glyph glyph-name="uni06AB.init" unicode="&#x6ab;" horiz-adv-x="489" 
d="M434 644l-2 -64l-63 -19c15 -13 25 -33 25 -55c0 -41 -34 -75 -75 -75s-75 34 -75 75c0 6 1 13 2 19l-156 -47l201 -203c37 -37 64 -82 64 -124c0 -124 -136 -148 -305 -150c-16 -1 -33 -1 -50 -1c-9 0 -17 17 -17 40c0 21 8 38 17 38c191 0 261 16 306 49
c-8 35 -28 70 -93 134l-176 176l14 94zM319 545h-6l-9 -3c-14 -6 -24 -20 -24 -36c0 -21 18 -39 39 -39s39 18 39 39s-18 39 -39 39z" />
    <glyph glyph-name="uni06AB.medi" unicode="&#x6ab;" horiz-adv-x="580" 
d="M580 78c10 0 17 -17 17 -38c0 -23 -7 -40 -17 -40c-21 0 -40 1 -58 3c-82 9 -134 44 -191 115c1 -9 1 -16 -1 -23c-34 -72 -139 -91 -270 -94c-21 -1 -40 -1 -60 -1c-9 0 -17 17 -17 40c0 21 8 38 17 38c182 0 248 16 293 49c-9 35 -34 67 -89 128l-161 183l14 94
l381 112l-3 -64l-66 -20c15 -13 25 -33 25 -55c0 -42 -33 -75 -75 -75c-41 0 -74 33 -74 75c0 7 1 13 2 19l-151 -45l180 -204c123 -139 168 -184 253 -194c15 -2 33 -3 51 -3zM319 544c-2 0 -5 0 -7 -1l-7 -2c-14 -5 -25 -20 -25 -36c0 -21 18 -39 39 -39s39 18 39 39
s-18 39 -39 39z" />
    <glyph glyph-name="uni06AB.fina" unicode="&#x6ab;" horiz-adv-x="977" 
d="M977 78c9 0 17 -17 17 -38c0 -23 -8 -40 -17 -40c-13 0 -25 0 -37 1c-94 7 -151 40 -213 117c-2 -17 -7 -32 -16 -44c-54 -67 -215 -84 -420 -84c-199 0 -234 77 -230 161c2 20 6 51 12 89c4 20 6 39 10 58l38 6l6 -5l-16 -122c-8 -59 12 -109 198 -109
c224 0 336 26 381 59c-9 35 -34 66 -89 128l-162 183l14 94l381 112l-2 -64l-77 -23c13 -13 21 -32 21 -52c0 -41 -33 -74 -74 -74c-42 0 -75 33 -75 74c0 5 0 10 1 15l-136 -41l181 -204c130 -147 173 -189 269 -195c10 -1 22 -2 35 -2zM741 505c0 19 -14 35 -32 38l-33 -9
c-8 -8 -13 -18 -13 -29c0 -21 18 -39 39 -39s39 18 39 39z" />
    <glyph glyph-name="uniFBD3" unicode="&#x6ad;" horiz-adv-x="767" arabic-form="isolated" 
d="M347 644l-52 24v9l20 43l52 -25v-8zM289 -10c-61 0 -152 4 -226 13l-9 72l6 5c75 -9 152 -12 249 -12c206 0 300 25 348 57l-4 508l59 15v-483c0 -34 -5 -55 -16 -73c-45 -85 -192 -102 -407 -102zM418 568l-52 24v9l20 43l52 -25v-8zM307 562l-52 24v9l20 43l52 -25v-8z
M292 227l-27 35c76 36 104 56 123 71c-34 14 -71 27 -114 43v54l128 85l4 -42l-101 -65l78 -31c33 -12 44 -24 44 -39c0 -37 -62 -74 -135 -111z" />
    <glyph glyph-name="uniFBD4" unicode="&#x6ad;" horiz-adv-x="871" arabic-form="final" 
d="M393 644l-52 24v9l20 43l52 -25v-8zM284 -10c-199 0 -234 77 -229 161c1 20 5 51 11 89c4 20 7 39 10 58l39 6l6 -5l-17 -122c-8 -59 12 -109 198 -109c222 0 330 24 378 56l-4 509l59 15v-471c0 -80 34 -99 106 -99h30c10 0 17 -17 17 -38c0 -23 -7 -40 -17 -40h-31
c-75 0 -119 23 -140 67c-8 -9 -18 -15 -29 -22c-74 -45 -215 -55 -387 -55zM464 568l-53 24v9l20 43l53 -25v-8zM353 562l-52 24v9l20 43l52 -25v-8zM338 227l-26 35c75 36 104 56 122 71c-33 14 -71 27 -114 43v54l128 85l5 -42l-101 -65c26 -11 50 -20 77 -31
c34 -12 45 -24 45 -39c0 -37 -62 -74 -136 -111z" />
    <glyph glyph-name="uniFBD6" unicode="&#x6ad;" horiz-adv-x="580" arabic-form="medial" 
d="M193 732l-74 20l-3 13l17 61l75 -22l2 -11zM303 647l-74 20l-2 12l17 61l74 -21l2 -12zM157 615l-74 20l-2 12l17 61l75 -21l2 -12zM0 0c-9 0 -17 17 -17 40c0 21 8 38 17 38c182 0 248 16 293 49c-9 35 -34 67 -89 128l-161 183l14 94l381 112l-3 -64l-339 -101
l180 -204c123 -139 168 -184 253 -194c15 -2 33 -3 51 -3c10 0 17 -17 17 -38c0 -23 -7 -40 -17 -40c-21 0 -40 1 -58 3c-82 9 -134 44 -191 115c1 -9 1 -16 -1 -23c-34 -72 -139 -91 -270 -94c-21 -1 -40 -1 -60 -1z" />
    <glyph glyph-name="uniFBD5" unicode="&#x6ad;" horiz-adv-x="489" arabic-form="initial" 
d="M193 732l-74 20l-3 13l17 61l75 -22l2 -11zM303 647l-74 20l-2 12l17 61l74 -21l2 -12zM157 615l-74 20l-2 12l17 61l75 -21l2 -12zM0 0c-9 0 -17 17 -17 40c0 21 8 38 17 38c191 0 261 16 306 49c-8 35 -28 70 -93 134l-176 176l14 94l383 113l-2 -64l-342 -102
l201 -203c37 -37 64 -82 64 -124c0 -124 -136 -148 -305 -150c-16 -1 -33 -1 -50 -1z" />
    <glyph glyph-name="uniFB9A" unicode="&#x6b1;" horiz-adv-x="882" arabic-form="isolated" 
d="M640 746l-74 19l-2 12l16 62l75 -21l2 -11zM505 714l-74 19l-2 12l16 62l75 -21l2 -11zM452 589l9 59l240 70l-3 -58zM284 -10c-187 0 -230 68 -230 147c0 5 0 13 1 22c2 20 6 49 11 81c4 20 7 39 10 58l39 6l6 -5l-17 -122c-1 -7 -1 -13 -1 -20c0 -50 34 -89 199 -89
c243 0 350 26 397 59c-8 35 -28 70 -93 134l-176 176l14 94l383 113l-2 -64l-342 -102l201 -203c36 -37 64 -82 64 -124c0 -139 -191 -161 -464 -161z" />
    <glyph glyph-name="uniFB9B" unicode="&#x6b1;" horiz-adv-x="977" arabic-form="final" 
d="M633 745l-74 19l-3 13l17 61l74 -21l2 -11zM498 713l-74 19l-3 13l17 61l74 -21l2 -11zM462 589l8 59l240 70l-3 -58zM291 -10c-199 0 -234 77 -230 161c2 20 6 51 12 89c4 20 6 39 10 58l38 6l6 -5l-16 -122c-8 -59 12 -109 198 -109c224 0 336 26 381 59
c-9 35 -34 66 -89 128l-162 183l14 94l381 112l-2 -64l-340 -101l181 -204c130 -147 173 -189 269 -195c10 -1 22 -2 35 -2c9 0 17 -17 17 -38c0 -23 -8 -40 -17 -40c-13 0 -25 0 -37 1c-94 7 -151 40 -213 117c-2 -17 -7 -32 -16 -44c-54 -67 -215 -84 -420 -84z" />
    <glyph glyph-name="uniFB9D" unicode="&#x6b1;" horiz-adv-x="580" arabic-form="medial" 
d="M261 746l-74 19l-3 12l17 62l74 -21l2 -11zM126 714l-75 19l-2 12l17 62l74 -21l2 -11zM65 589l9 59l239 70l-2 -58zM0 0c-9 0 -17 17 -17 40c0 21 8 38 17 38c182 0 248 16 293 49c-9 35 -34 67 -89 128l-161 183l14 94l381 112l-3 -64l-339 -101l180 -204
c123 -139 168 -184 253 -194c15 -2 33 -3 51 -3c10 0 17 -17 17 -38c0 -23 -7 -40 -17 -40c-21 0 -40 1 -58 3c-82 9 -134 44 -191 115c1 -9 1 -16 -1 -23c-34 -72 -139 -91 -270 -94c-21 -1 -40 -1 -60 -1z" />
    <glyph glyph-name="uniFB9C" unicode="&#x6b1;" horiz-adv-x="489" arabic-form="initial" 
d="M261 746l-74 19l-3 12l17 62l74 -21l2 -11zM126 714l-75 19l-2 12l17 62l74 -21l2 -11zM59 588l9 60l239 70l-2 -58zM0 0c-9 0 -17 17 -17 40c0 21 8 38 17 38c191 0 261 16 306 49c-8 35 -28 70 -93 134l-176 176l14 94l383 113l-2 -64l-342 -102l201 -203
c37 -37 64 -82 64 -124c0 -124 -136 -148 -305 -150c-16 -1 -33 -1 -50 -1z" />
    <glyph glyph-name="uniFB96" unicode="&#x6b3;" horiz-adv-x="882" arabic-form="isolated" 
d="M452 589l9 59l240 70l-3 -58zM284 -10c-187 0 -230 68 -230 147c0 5 0 13 1 22c2 20 6 49 11 81c4 20 7 39 10 58l39 6l6 -5l-17 -122c-1 -7 -1 -13 -1 -20c0 -50 34 -89 199 -89c243 0 350 26 397 59c-8 35 -28 70 -93 134l-176 176l14 94l383 113l-2 -64l-342 -102
l201 -203c36 -37 64 -82 64 -124c0 -139 -191 -161 -464 -161zM349 -199l-70 32v12l27 58l69 -34v-11zM349 -333l-70 32v12l27 58l69 -34v-11z" />
    <glyph glyph-name="uniFB97" unicode="&#x6b3;" horiz-adv-x="977" arabic-form="final" 
d="M462 589l8 59l240 70l-3 -58zM291 -10c-199 0 -234 77 -230 161c2 20 6 51 12 89c4 20 6 39 10 58l38 6l6 -5l-16 -122c-8 -59 12 -109 198 -109c224 0 336 26 381 59c-9 35 -34 66 -89 128l-162 183l14 94l381 112l-2 -64l-340 -101l181 -204
c130 -147 173 -189 269 -195c10 -1 22 -2 35 -2c9 0 17 -17 17 -38c0 -23 -8 -40 -17 -40c-13 0 -25 0 -37 1c-94 7 -151 40 -213 117c-2 -17 -7 -32 -16 -44c-54 -67 -215 -84 -420 -84zM349 -199l-70 32v12l27 58l69 -34v-11zM349 -333l-70 32v12l27 58l69 -34v-11z" />
    <glyph glyph-name="uniFB99" unicode="&#x6b3;" horiz-adv-x="580" arabic-form="medial" 
d="M65 589l9 59l239 70l-2 -58zM0 0c-9 0 -17 17 -17 40c0 21 8 38 17 38c182 0 248 16 293 49c-9 35 -34 67 -89 128l-161 183l14 94l381 112l-3 -64l-339 -101l180 -204c123 -139 168 -184 253 -194c15 -2 33 -3 51 -3c10 0 17 -17 17 -38c0 -23 -7 -40 -17 -40
c-21 0 -40 1 -58 3c-82 9 -134 44 -191 115c1 -9 1 -16 -1 -23c-34 -72 -139 -91 -270 -94c-21 -1 -40 -1 -60 -1zM230 -168l-70 31v13l27 57l70 -33v-12zM230 -302l-70 31v13l27 57l70 -33v-12z" />
    <glyph glyph-name="uniFB98" unicode="&#x6b3;" horiz-adv-x="489" arabic-form="initial" 
d="M59 588l9 60l239 70l-2 -58zM0 0c-9 0 -17 17 -17 40c0 21 8 38 17 38c191 0 261 16 306 49c-8 35 -28 70 -93 134l-176 176l14 94l383 113l-2 -64l-342 -102l201 -203c37 -37 64 -82 64 -124c0 -124 -136 -148 -305 -150c-16 -1 -33 -1 -50 -1zM230 -168l-70 31v13
l27 57l70 -33v-11zM230 -302l-70 31v13l27 57l70 -33v-11z" />
    <glyph glyph-name="uniFEDE" unicode="&#x644;" horiz-adv-x="665" arabic-form="final" 
d="M55 -7c5 61 22 140 35 193l39 -2l4 -7c-10 -46 -25 -115 -30 -162c-11 -105 53 -130 151 -130s179 30 224 67l-24 681l60 15l14 -486c4 -66 32 -84 107 -84h30c9 0 17 -17 17 -38c0 -23 -8 -40 -17 -40h-31c-45 0 -78 8 -102 26c0 -12 1 -23 1 -34
c1 -37 -11 -82 -48 -110c-60 -45 -134 -75 -247 -75c-111 0 -193 49 -183 186z" />
    <glyph glyph-name="uniFEE0" unicode="&#x644;" horiz-adv-x="353" arabic-form="medial" 
d="M-17 40c0 21 8 38 17 38c8 0 16 0 26 1c61 2 108 19 134 43l-5 511l59 15l1 -464c0 -83 25 -106 108 -106h30c9 0 16 -17 16 -38c0 -23 -7 -40 -16 -40h-31c-75 0 -118 20 -140 66c-33 -41 -90 -61 -156 -65c-10 -1 -18 -1 -26 -1c-9 0 -17 17 -17 40z" />
    <glyph glyph-name="uniFEDF" unicode="&#x644;" horiz-adv-x="269" arabic-form="initial" 
d="M0 0c-9 0 -17 17 -17 40c0 21 8 38 17 38h14c64 3 118 20 146 44l-5 511l59 15l1 -491c0 -106 -91 -152 -198 -157h-17z" />
    <glyph glyph-name="uni06B5.init" unicode="&#x6b5;" horiz-adv-x="269" 
d="M154 689l-90 233l30 23l72 -193l78 193l28 -23l-90 -218zM0 0c-9 0 -17 17 -17 40c0 21 8 38 17 38h14c64 3 118 20 146 44l-5 511l59 15l1 -491c0 -106 -91 -152 -198 -157h-17z" />
    <glyph glyph-name="uni06B5.medi" unicode="&#x6b5;" horiz-adv-x="353" 
d="M156 690l-90 233l30 23l72 -193l78 193l28 -23l-90 -218zM-17 40c0 21 8 38 17 38c8 0 16 0 26 1c61 2 108 19 134 43l-5 511l59 15l1 -464c0 -83 25 -106 108 -106h30c9 0 16 -17 16 -38c0 -23 -7 -40 -16 -40h-31c-75 0 -118 20 -140 66c-33 -41 -90 -61 -156 -65
c-10 -1 -18 -1 -26 -1c-9 0 -17 17 -17 40z" />
    <glyph glyph-name="uni06B5.fina" unicode="&#x6b5;" horiz-adv-x="665" 
d="M55 -7c5 61 22 140 35 193l39 -2l4 -7c-10 -46 -25 -115 -30 -162c-11 -105 53 -130 151 -130s179 30 224 67l-24 681l60 15l14 -486c4 -66 32 -84 107 -84h30c9 0 17 -17 17 -38c0 -23 -8 -40 -17 -40h-31c-45 0 -78 8 -102 26c0 -12 1 -23 1 -34
c1 -37 -11 -82 -48 -110c-60 -45 -134 -75 -247 -75c-111 0 -193 49 -183 186zM243 263l-90 233l30 23l72 -192l77 192l29 -23l-91 -217z" />
    <glyph glyph-name="uniFEE2" unicode="&#x645;" horiz-adv-x="586" arabic-form="final" 
d="M65 -265l-11 328c-2 70 8 109 47 145c49 47 224 113 307 113c22 0 32 -8 38 -35l18 -78c20 -86 38 -130 122 -130c10 0 17 -17 17 -38c0 -23 -7 -40 -17 -40h-18c-37 1 -89 16 -114 65c0 -5 -2 -9 -2 -15l-26 -60h-89c-76 0 -156 16 -156 110c0 26 5 58 14 96
c-32 -14 -60 -29 -80 -44c-5 -82 4 -265 8 -402zM346 68h76l-32 154c-3 15 -8 21 -21 21c-32 0 -78 -12 -124 -28c-9 -41 -12 -67 -12 -86c0 -48 41 -61 113 -61z" />
    <glyph glyph-name="uniFEE4" unicode="&#x645;" horiz-adv-x="553" arabic-form="medial" 
d="M399 -10c-97 1 -202 19 -267 75c-26 -38 -50 -65 -117 -65h-15c-9 0 -17 17 -17 40c0 21 8 38 17 38h18c65 0 95 42 117 79l58 100c24 42 56 67 105 67s85 -22 106 -41c9 -37 18 -78 25 -105c19 -77 51 -99 124 -100c9 0 17 -17 17 -38c0 -23 -8 -40 -17 -40h-13
c-35 0 -83 14 -109 56l-4 -16zM382 64c-3 57 -13 109 -26 164c-17 11 -39 17 -67 17c-54 0 -73 -49 -114 -119c31 -31 120 -59 207 -62z" />
    <glyph glyph-name="uniFEE3" unicode="&#x645;" horiz-adv-x="492" arabic-form="initial" 
d="M-17 40c0 21 8 38 17 38h20c62 0 91 37 112 75l63 108c23 41 53 63 102 63c96 0 150 -114 139 -269l-37 -65c-97 1 -202 19 -267 75c-25 -38 -50 -65 -117 -65h-15c-9 0 -17 17 -17 40zM175 126c31 -31 120 -59 208 -61c3 102 -30 180 -93 181c-15 0 -32 -3 -51 -7
c-23 -42 -43 -76 -64 -113z" />
    <glyph glyph-name="uniFEE6" unicode="&#x646;" horiz-adv-x="719" arabic-form="final" 
d="M248 -193c-121 0 -203 49 -193 186c5 61 22 140 35 193l39 -2l4 -7c-10 -46 -25 -115 -30 -162c-11 -105 53 -130 161 -130c139 0 243 41 290 77c-9 77 -20 149 -42 282l50 31l9 -3l17 -106c12 -70 39 -88 106 -88h25c10 0 17 -17 17 -38c0 -23 -7 -40 -17 -40h-27
c-39 0 -67 9 -88 26c1 -13 2 -23 2 -34c0 -27 -4 -70 -46 -101c-61 -47 -167 -84 -312 -84zM346 91l-77 34v14l29 63l77 -37v-12z" />
    <glyph glyph-name="uniFEE8" unicode="&#x646;" horiz-adv-x="366" arabic-form="medial" 
d="M179 351l-76 35v13l29 63l77 -36v-13zM0 0c-9 0 -17 17 -17 40c0 21 8 38 17 38h70c70 0 111 14 120 64l22 116l8 6l42 -13l-15 -100c-6 -38 22 -73 87 -73h32c9 0 17 -17 17 -38c0 -23 -8 -40 -17 -40h-33c-63 0 -104 24 -121 63c-31 -48 -79 -63 -145 -63h-67z" />
    <glyph glyph-name="uniFEE7" unicode="&#x646;" horiz-adv-x="318" arabic-form="initial" 
d="M189 431l-77 35v13l30 63l76 -36v-13zM0 0c-9 0 -17 17 -17 40c0 21 8 38 17 38c96 0 170 17 207 50l-26 179l57 37l7 -4c11 -90 19 -151 19 -187c0 -52 -23 -87 -57 -110c-54 -36 -136 -43 -207 -43z" />
    <glyph glyph-name="uniFB9F" unicode="&#x6ba;" horiz-adv-x="719" arabic-form="final" 
d="M248 -193c-121 0 -203 49 -193 186c5 61 22 140 35 193l39 -2l4 -7c-10 -46 -25 -115 -30 -162c-11 -105 53 -130 161 -130c139 0 243 41 290 77c-9 77 -20 149 -42 282l50 31l9 -3l17 -106c12 -70 39 -88 106 -88h25c10 0 17 -17 17 -38c0 -23 -7 -40 -17 -40h-27
c-39 0 -67 9 -88 26c1 -13 2 -23 2 -34c0 -27 -4 -70 -46 -101c-61 -47 -167 -84 -312 -84z" />
    <glyph glyph-name="uniFBA0" unicode="&#x6bb;" horiz-adv-x="661" arabic-form="isolated" 
d="M158 269h38l45 56l-2 205l34 9v-173c9 11 19 20 28 28c18 16 40 22 69 22c68 0 84 -60 84 -91c0 -56 -37 -98 -165 -98h-125zM233 269h60c73 0 110 9 132 29c3 47 -16 76 -61 76c-22 0 -33 -2 -52 -7zM248 -193c-121 0 -203 49 -193 186c5 61 22 140 35 193l39 -2l4 -7
c-10 -46 -25 -115 -30 -162c-11 -105 53 -130 161 -130c139 0 243 41 290 77c-9 77 -20 149 -42 283l49 32l9 -4c22 -133 36 -232 36 -281c0 -27 -4 -70 -46 -101c-61 -47 -167 -84 -312 -84z" />
    <glyph glyph-name="uniFBA1" unicode="&#x6bb;" horiz-adv-x="719" arabic-form="final" 
d="M158 269h38l45 56l-2 205l34 9v-173c9 11 19 20 28 28c18 16 40 22 69 22c68 0 84 -60 84 -91c0 -56 -37 -98 -165 -98h-125zM233 269h60c73 0 110 9 132 29c3 47 -16 76 -61 76c-22 0 -33 -2 -52 -7zM248 -193c-121 0 -203 49 -193 186c5 61 22 140 35 193l39 -2l4 -7
c-10 -46 -25 -115 -30 -162c-11 -105 53 -130 161 -130c139 0 243 41 290 77c-9 77 -20 149 -42 282l50 31l9 -3l17 -106c12 -70 39 -88 106 -88h25c10 0 17 -17 17 -38c0 -23 -7 -40 -17 -40h-27c-39 0 -67 9 -88 26c1 -13 2 -23 2 -34c0 -27 -4 -70 -46 -101
c-61 -47 -167 -84 -312 -84z" />
    <glyph glyph-name="uniFBA3" unicode="&#x6bb;" horiz-adv-x="366" arabic-form="medial" 
d="M-11 372h38l45 56l-2 206l35 8v-173c9 11 18 20 28 28c17 16 39 22 69 22c68 0 83 -60 83 -91c0 -56 -36 -98 -165 -98h-125zM65 372h59c73 0 110 10 132 30c3 46 -15 75 -61 75c-22 0 -33 -2 -52 -6zM0 0c-9 0 -17 17 -17 40c0 21 8 38 17 38h70c70 0 111 14 120 64
l22 116l8 6l42 -13l-15 -100c-6 -38 22 -73 87 -73h32c9 0 17 -17 17 -38c0 -23 -8 -40 -17 -40h-33c-63 0 -104 24 -121 63c-31 -48 -79 -63 -145 -63h-67z" />
    <glyph glyph-name="uniFBA2" unicode="&#x6bb;" horiz-adv-x="318" arabic-form="initial" 
d="M-16 455h38l45 56l-2 205l34 9v-173c9 10 19 20 28 28c18 15 40 21 69 21c68 0 84 -59 84 -90c0 -56 -37 -98 -165 -98h-125zM59 455h60c73 0 110 9 132 29c3 47 -16 75 -61 75c-22 0 -33 -2 -52 -6zM0 0c-9 0 -17 17 -17 40c0 21 8 38 17 38c96 0 170 17 207 50l-26 179
l57 37l7 -4c11 -90 19 -151 19 -187c0 -52 -23 -87 -57 -110c-54 -36 -136 -43 -207 -43z" />
    <glyph glyph-name="uni06BC.init" unicode="&#x6bc;" horiz-adv-x="318" 
d="M218 493l-29 -62l-77 35v13l30 63l76 -36v-13zM245 340c11 -90 19 -151 19 -187c0 -52 -23 -87 -57 -110c-10 -6 -20 -12 -32 -17c16 -14 26 -34 26 -56c0 -41 -34 -75 -75 -75s-75 34 -75 75c0 11 3 22 7 32c-19 -2 -39 -2 -58 -2c-9 0 -17 17 -17 40c0 21 8 38 17 38
c96 0 170 17 207 50l-26 179l57 37zM126 -69c21 0 39 18 39 39s-18 39 -39 39s-39 -18 -39 -39s18 -39 39 -39z" />
    <glyph glyph-name="uni06BC.medi" unicode="&#x6bc;" horiz-adv-x="366" 
d="M209 413l-30 -62l-76 35v13l29 63l77 -36v-13zM366 78c9 0 17 -17 17 -38c0 -23 -8 -40 -17 -40h-33c-63 0 -104 24 -121 63c-13 -20 -29 -34 -48 -44c15 -14 24 -34 24 -55c0 -41 -34 -75 -75 -75s-75 34 -75 75c0 13 3 25 9 36h-47c-9 0 -17 17 -17 40c0 21 8 38 17 38
h70c70 0 111 14 120 64l22 116l8 6l42 -13l-15 -100c-6 -38 22 -73 87 -73h32zM113 3h-1c-2 0 -5 -1 -8 -1c-17 -4 -30 -20 -30 -38c0 -21 18 -39 39 -39s39 18 39 39s-18 39 -39 39z" />
    <glyph glyph-name="uni06BC.fina" unicode="&#x6bc;" horiz-adv-x="719" 
d="M719 78c10 0 17 -17 17 -38c0 -23 -7 -40 -17 -40h-27c-39 0 -67 9 -88 26c1 -13 2 -23 2 -34c0 -27 -4 -70 -46 -101c-54 -42 -144 -76 -265 -83c8 -11 12 -25 12 -40c0 -41 -34 -75 -75 -75s-75 34 -75 75c0 18 6 34 17 47c-79 18 -127 71 -119 178c5 61 22 140 35 193
l39 -2l4 -7c-10 -46 -25 -115 -30 -162c-11 -105 53 -130 161 -130c139 0 243 41 290 77c-9 77 -20 149 -42 282l50 31l9 -3l17 -106c12 -70 39 -88 106 -88h25zM375 153l-29 -62l-77 34v14l29 63l77 -37v-12zM232 -271c21 0 39 18 39 39s-18 39 -39 39s-39 -18 -39 -39
s18 -39 39 -39z" />
    <glyph glyph-name="uniFEE9" unicode="&#x647;" horiz-adv-x="650" arabic-form="isolated" 
d="M82 -34l-28 55l2 8c24 7 50 14 76 22c20 5 39 11 56 17c-42 22 -64 55 -64 103c0 16 3 35 9 55c16 56 33 95 51 120l-38 12l15 63l10 5l220 -71c149 -47 203 -97 205 -223c0 -20 -1 -42 -3 -66l-45 -65l-176 20c-31 4 -62 8 -91 14c-41 -19 -90 -36 -146 -53
c-18 -5 -36 -11 -53 -16zM280 113c47 29 81 70 81 111c0 40 -26 70 -78 86c-19 5 -39 9 -61 10c-13 -17 -29 -50 -40 -93c-3 -10 -5 -19 -5 -27c0 -46 39 -72 103 -87zM543 74c0 23 1 40 0 57c-4 58 -24 103 -104 129l-37 13c5 -12 7 -25 7 -39c-1 -55 -22 -100 -52 -135
l43 -6z" />
    <glyph glyph-name="uniFEEA" unicode="&#x647;" horiz-adv-x="471" arabic-form="final" 
d="M434 0c-60 0 -105 23 -127 93l-22 -49c-30 -4 -58 -5 -85 -5c-93 0 -147 30 -146 101c0 66 32 120 134 169l106 52v67l61 17v-283c0 -59 30 -84 85 -84h31c9 0 16 -17 16 -38c0 -23 -7 -40 -16 -40h-37zM225 115c23 0 47 1 69 2v175l-57 -27l-129 -60
c-3 -12 -5 -22 -5 -30c-1 -51 36 -60 122 -60z" />
    <glyph glyph-name="uniFEEC" unicode="&#x647;" horiz-adv-x="523" arabic-form="medial" 
d="M223 -238c-83 81 -123 163 -127 239l-96 -1c-9 0 -17 17 -17 40c0 21 8 38 17 38h106c18 97 43 182 75 287l61 42l58 -63c74 -81 83 -127 83 -164c0 -25 -2 -51 -18 -74c-37 -55 -100 -92 -210 -102c7 -65 50 -124 102 -174l59 107c48 86 86 141 184 141h23
c9 0 17 -17 17 -38c0 -23 -8 -40 -17 -40h-26c-79 0 -97 -31 -138 -104l-74 -134h-62zM161 79c106 7 157 47 176 82c0 31 -41 90 -108 162c-29 -88 -54 -161 -68 -244z" />
    <glyph glyph-name="uniFEEB" unicode="&#x647;" horiz-adv-x="620" arabic-form="initial" 
d="M0 0c-9 0 -17 17 -17 40c0 21 8 38 17 38h33c29 0 71 3 104 9c-28 18 -41 43 -43 77c-1 18 2 39 9 62c16 56 33 95 51 120l-38 12l15 63l10 5l220 -71c149 -47 204 -97 205 -224c0 -20 -1 -41 -3 -65l-45 -65l-176 20c-36 4 -74 9 -107 18c-58 -26 -127 -39 -198 -39h-37
zM249 113c52 30 82 72 82 111c0 42 -29 73 -88 88c-16 5 -33 7 -51 8c-13 -17 -29 -50 -40 -93c-3 -10 -4 -19 -4 -26c-1 -47 38 -72 101 -88zM513 74c0 22 1 40 0 57c-4 58 -24 103 -104 129l-37 13c5 -12 7 -25 7 -39c-1 -51 -19 -97 -52 -135l43 -6z" />
    <glyph glyph-name="uniFBA5" unicode="&#x6c0;" horiz-adv-x="471" arabic-form="final" 
d="M206 489l8 45l50 20c-29 12 -47 43 -47 75c0 53 41 86 91 91c10 1 18 0 27 -1c12 -1 25 -4 37 -6v-47c-8 1 -17 3 -26 4c-14 1 -26 2 -36 2c-25 0 -42 -4 -52 -9c-3 -9 -3 -17 -3 -26c0 -33 22 -51 50 -51c14 0 28 1 42 5l69 21l2 -3l-8 -46l-25 -10
c-59 -22 -117 -45 -176 -67zM434 0c-60 0 -105 23 -127 93l-22 -49c-30 -4 -58 -5 -85 -5c-93 0 -147 30 -146 101c0 66 32 120 134 169l106 52v67l61 17v-283c0 -59 30 -84 85 -84h31c9 0 16 -17 16 -38c0 -23 -7 -40 -16 -40h-37zM225 115c23 0 47 1 69 2v175l-57 -27
l-129 -60c-3 -12 -5 -22 -5 -30c-1 -51 36 -60 122 -60z" />
    <glyph glyph-name="uniFBA6" unicode="&#x6c1;" horiz-adv-x="430" arabic-form="isolated" 
d="M194 -10c-73 0 -140 27 -140 109c0 54 18 108 96 221l-40 33l29 63l10 2l87 -73c88 -73 139 -123 139 -197c0 -107 -89 -158 -181 -158zM202 68c58 0 108 15 131 68c-15 39 -54 80 -146 154c-58 -85 -82 -130 -82 -165c-1 -39 34 -57 97 -57z" />
    <glyph glyph-name="uniFBA7" unicode="&#x6c1;" horiz-adv-x="512" arabic-form="final" 
d="M477 0c-64 0 -130 26 -155 161l-23 125l-60 -53c-78 -69 -107 -92 -162 -170l-23 27c29 65 57 109 149 194l93 86l57 -28l28 -163c10 -56 33 -101 101 -101h30c9 0 17 -17 17 -38c0 -23 -8 -40 -17 -40h-35z" />
    <glyph glyph-name="uniFBA9" unicode="&#x6c1;" horiz-adv-x="518" arabic-form="medial" 
d="M216 -238c-73 93 -76 183 -59 288c-24 -36 -59 -50 -113 -50h-44c-9 0 -17 17 -17 40c0 21 8 38 17 38h59c68 0 108 36 126 96l28 92l45 -12l4 -8l-27 -99c-38 -147 -35 -250 14 -315l59 103c51 90 89 143 187 143h23c9 0 17 -17 17 -38c0 -23 -8 -40 -17 -40h-28
c-79 0 -97 -31 -138 -104l-76 -134h-60zM86 -245c-60 0 -78 38 -77 65c0 23 11 49 41 87l36 44l25 -28l-31 -38c-15 -19 -20 -30 -20 -41c0 -12 16 -25 50 -31z" />
    <glyph glyph-name="uniFBA8" unicode="&#x6c1;" horiz-adv-x="318" arabic-form="initial" 
d="M0 0c-9 0 -17 17 -17 40c0 21 8 38 17 38c96 0 170 17 207 50l-26 179l57 37l7 -4c11 -90 19 -151 19 -187c0 -52 -23 -87 -57 -110c-54 -36 -136 -43 -207 -43zM45 -168c0 24 11 50 42 88l36 44l25 -29l-31 -38c-15 -18 -20 -30 -20 -41c0 -13 18 -25 50 -31l-24 -58
c-60 0 -78 38 -78 65z" />
    <glyph glyph-name="uni06C2.init" unicode="&#x6c2;" horiz-adv-x="318" 
d="M57 387l8 45l50 20c-29 12 -47 43 -47 75c0 53 41 86 91 91c10 1 18 0 27 -1c12 -1 25 -4 37 -6v-47c-8 1 -17 3 -26 4c-14 1 -26 2 -36 2c-25 0 -42 -4 -52 -9c-3 -9 -3 -17 -3 -26c0 -33 22 -51 50 -51c14 0 28 1 42 5l69 21l2 -3l-8 -46l-25 -10
c-59 -22 -117 -45 -176 -67zM0 0c-9 0 -17 17 -17 40c0 21 8 38 17 38c96 0 170 17 207 50l-26 179l57 37l7 -4c11 -90 19 -151 19 -187c0 -52 -23 -87 -57 -110c-54 -36 -136 -43 -207 -43zM45 -168c0 24 11 50 42 88l36 44l25 -29l-31 -38c-15 -18 -20 -30 -20 -41
c0 -13 18 -25 50 -31l-24 -58c-60 0 -78 38 -78 65z" />
    <glyph glyph-name="uni06C2.medi" unicode="&#x6c2;" horiz-adv-x="518" 
d="M120 336l8 45l50 20c-29 12 -47 43 -47 75c0 53 41 86 91 91c10 1 18 0 27 -1c12 -1 25 -4 37 -6v-47c-8 1 -17 3 -26 4c-14 1 -26 2 -36 2c-25 0 -42 -4 -52 -9c-3 -9 -3 -17 -3 -26c0 -33 22 -51 50 -51c14 0 28 1 42 5l69 21l2 -3l-8 -46l-25 -10
c-59 -22 -117 -45 -176 -67zM216 -238c-73 93 -76 183 -59 288c-24 -36 -59 -50 -113 -50h-44c-9 0 -17 17 -17 40c0 21 8 38 17 38h59c68 0 108 36 126 96l28 92l45 -12l4 -8l-27 -99c-38 -147 -35 -250 14 -315l59 103c51 90 89 143 187 143h23c9 0 17 -17 17 -38
c0 -23 -8 -40 -17 -40h-28c-79 0 -97 -31 -138 -104l-76 -134h-60z" />
    <glyph glyph-name="uni06C2.fina" unicode="&#x6c2;" horiz-adv-x="471" 
d="M206 489l8 45l50 20c-29 12 -47 43 -47 75c0 53 41 86 91 91c10 1 18 0 27 -1c12 -1 25 -4 37 -6v-47c-8 1 -17 3 -26 4c-14 1 -26 2 -36 2c-25 0 -42 -4 -52 -9c-3 -9 -3 -17 -3 -26c0 -33 22 -51 50 -51c14 0 28 1 42 5l69 21l2 -3l-8 -46l-25 -10
c-59 -22 -117 -45 -176 -67zM434 0c-60 0 -105 23 -127 93l-22 -49c-30 -4 -58 -5 -85 -5c-93 0 -147 30 -146 101c0 66 32 120 134 169l106 52v67l61 17v-283c0 -59 30 -84 85 -84h31c9 0 16 -17 16 -38c0 -23 -7 -40 -16 -40h-37zM225 115c23 0 47 1 69 2v175l-57 -27
l-129 -60c-3 -12 -5 -22 -5 -30c-1 -51 36 -60 122 -60z" />
    <glyph glyph-name="uniFBAA" unicode="&#x6be;" horiz-adv-x="650" arabic-form="isolated" 
d="M82 -34l-28 55l2 8c24 7 50 14 76 22c20 5 39 11 56 17c-42 22 -64 55 -64 103c0 16 3 35 9 55c16 56 33 95 51 120l-38 12l15 63l10 5l220 -71c149 -47 203 -97 205 -223c0 -20 -1 -42 -3 -66l-45 -65l-176 20c-31 4 -62 8 -91 14c-41 -19 -90 -36 -146 -53
c-18 -5 -36 -11 -53 -16zM280 113c47 29 81 70 81 111c0 40 -26 70 -78 86c-19 5 -39 9 -61 10c-13 -17 -29 -50 -40 -93c-3 -10 -5 -19 -5 -27c0 -46 39 -72 103 -87zM543 74c0 23 1 40 0 57c-4 58 -24 103 -104 129l-37 13c5 -12 7 -25 7 -39c-1 -55 -22 -100 -52 -135
l43 -6z" />
    <glyph glyph-name="uniFBAB" unicode="&#x6be;" horiz-adv-x="603" arabic-form="final" 
d="M349 -234c-124 1 -183 100 -177 224l-90 -27l-28 55l2 8l126 36c20 105 46 193 79 303l61 42l58 -63c77 -84 84 -128 84 -164c0 -30 -7 -58 -32 -84c-8 -8 -25 -17 -35 -22c19 3 39 4 63 4h143c10 0 17 -17 17 -38c0 -23 -7 -40 -17 -40h-124c20 -24 28 -53 28 -79
c0 -80 -67 -155 -158 -155zM240 79c106 29 160 51 177 82c-1 33 -38 86 -107 162c-30 -88 -55 -161 -70 -244zM349 -162c70 -1 107 48 111 85c-11 46 -62 77 -143 77h-89c-5 -105 41 -162 121 -162z" />
    <glyph glyph-name="uniFBAD" unicode="&#x6be;" horiz-adv-x="659" arabic-form="medial" 
d="M0 0c-9 0 -17 17 -17 40c0 21 8 38 17 38h33c29 0 70 3 104 9c-29 19 -42 46 -43 81c0 17 3 36 9 58c16 56 33 95 51 120l-38 12l15 63l10 5l220 -71c138 -43 195 -89 203 -197c2 -23 1 -50 -1 -79c17 0 33 -1 48 -1h48c9 0 17 -17 17 -38c0 -23 -8 -40 -17 -40
c-83 0 -118 1 -164 5c-45 3 -90 9 -153 16c-36 4 -74 9 -107 18c-58 -26 -127 -39 -198 -39h-37zM250 113c51 30 81 72 81 111c0 41 -28 70 -82 86c-18 6 -36 9 -57 10c-13 -17 -29 -50 -40 -93c-3 -10 -4 -19 -4 -27c-1 -46 38 -71 102 -87zM513 73c1 31 1 57 -3 80
c-8 48 -31 85 -101 107l-37 13c5 -12 7 -25 7 -39c-1 -50 -19 -97 -52 -135l43 -6z" />
    <glyph glyph-name="uniFBAC" unicode="&#x6be;" horiz-adv-x="620" arabic-form="initial" 
d="M0 0c-9 0 -17 17 -17 40c0 21 8 38 17 38h33c29 0 71 3 104 9c-28 18 -41 43 -43 77c-1 18 2 39 9 62c16 56 33 95 51 120l-38 12l15 63l10 5l220 -71c149 -47 204 -97 205 -224c0 -20 -1 -41 -3 -65l-45 -65l-176 20c-36 4 -74 9 -107 18c-58 -26 -127 -39 -198 -39h-37
zM249 113c52 30 82 72 82 111c0 42 -29 73 -88 88c-16 5 -33 7 -51 8c-13 -17 -29 -50 -40 -93c-3 -10 -4 -19 -4 -26c-1 -47 38 -72 101 -88zM513 74c0 22 1 40 0 57c-4 58 -24 103 -104 129l-37 13c5 -12 7 -25 7 -39c-1 -51 -19 -97 -52 -135l43 -6z" />
    <glyph glyph-name="uniFCD9" unicode="&#xfcd9;" horiz-adv-x="620" arabic-form="initial" 
d="M328 477l-4 166l43 7v-110c0 -23 -2 -48 -5 -62zM0 0c-9 0 -17 17 -17 40c0 21 8 38 17 38h33c29 0 71 3 104 9c-28 18 -41 43 -43 77c-1 18 2 39 9 62c16 56 33 95 51 120l-38 12l15 63l10 5l220 -71c149 -47 204 -97 205 -224c0 -20 -1 -41 -3 -65l-45 -65l-176 20
c-36 4 -74 9 -107 18c-58 -26 -127 -39 -198 -39h-37zM249 113c52 30 82 72 82 111c0 42 -29 73 -88 88c-16 5 -33 7 -51 8c-13 -17 -29 -50 -40 -93c-3 -10 -4 -19 -4 -26c-1 -47 38 -72 101 -88zM513 74c0 22 1 40 0 57c-4 58 -24 103 -104 129l-37 13c5 -12 7 -25 7 -39
c-1 -51 -19 -97 -52 -135l43 -6z" />
    <glyph glyph-name="uniFE93" unicode="&#x629;" horiz-adv-x="430" arabic-form="isolated" 
d="M231 493l-70 32v12l26 58l70 -33v-12zM92 485l-70 32v12l27 58l70 -33v-12zM194 -10c-73 0 -140 27 -140 109c0 54 18 108 96 221l-40 33l29 63l10 2l87 -73c88 -73 139 -123 139 -197c0 -107 -89 -158 -181 -158zM202 68c58 0 108 15 131 68c-15 39 -54 80 -146 154
c-58 -85 -82 -130 -82 -165c-1 -39 34 -57 97 -57z" />
    <glyph glyph-name="uniFE94" unicode="&#x629;" horiz-adv-x="471" arabic-form="final" 
d="M311 518l-70 32v12l27 58l70 -34v-11zM173 510l-70 32v12l27 58l69 -34v-11zM434 0c-60 0 -105 23 -127 93l-22 -49c-30 -4 -58 -5 -85 -5c-93 0 -147 30 -146 101c0 66 32 120 134 169l106 52v67l61 17v-283c0 -59 30 -84 85 -84h31c9 0 16 -17 16 -38
c0 -23 -7 -40 -16 -40h-37zM225 115c23 0 47 1 69 2v175l-57 -27l-129 -60c-3 -12 -5 -22 -5 -30c-1 -51 36 -60 122 -60z" />
    <glyph glyph-name="uni06C3.fina" unicode="&#x6c3;" horiz-adv-x="512" 
d="M349 479l-70 31v13l27 58l70 -34v-11zM211 471l-70 31v13l26 58l70 -34v-11zM477 0c-64 0 -130 26 -155 161l-23 125l-60 -53c-78 -69 -107 -92 -162 -170l-23 27c29 65 57 109 149 194l93 86l57 -28l28 -163c10 -56 33 -101 101 -101h30c9 0 17 -17 17 -38
c0 -23 -8 -40 -17 -40h-35z" />
    <glyph glyph-name="uniFEEE" unicode="&#x648;" horiz-adv-x="456" arabic-form="final" 
d="M197 -233c-28 -3 -93 16 -128 27l-15 48l4 5c37 -5 85 -10 107 -8c92 7 157 91 180 161h-143c-66 0 -106 28 -106 92c0 7 1 13 2 20c13 140 61 210 141 210c69 0 105 -37 125 -75c16 -29 32 -83 37 -134c1 -11 2 -23 2 -35h53c9 0 17 -17 17 -38c0 -23 -8 -40 -17 -40
h-57c-26 -131 -128 -225 -202 -233zM221 74h127c-6 59 -26 129 -44 165c-26 10 -46 14 -69 14c-48 0 -74 -21 -84 -120c-1 -6 -1 -11 -1 -16c0 -35 21 -43 71 -43z" />
    <glyph glyph-name="uni06C4.fina" unicode="&#x6c4;" horiz-adv-x="456" 
d="M456 78c9 0 17 -17 17 -38c0 -23 -8 -40 -17 -40h-57c-21 -107 -93 -189 -159 -220c13 -14 21 -32 21 -52c0 -41 -34 -75 -75 -75s-75 34 -75 75c0 19 7 36 18 49c-22 5 -44 12 -60 17l-15 48l4 5c37 -5 85 -10 107 -8c92 7 157 91 180 161h-143c-66 0 -106 28 -106 92
c0 7 1 13 2 20c13 140 61 210 141 210c69 0 105 -37 125 -75c16 -29 32 -83 37 -134c1 -11 2 -23 2 -35h53zM221 74h127c-6 59 -26 129 -44 165c-26 10 -46 14 -69 14c-48 0 -74 -21 -84 -120c-1 -6 -1 -11 -1 -16c0 -35 21 -43 71 -43zM186 -311c21 0 39 18 39 39
c0 19 -15 36 -34 39h-7c-20 -1 -37 -19 -37 -39c0 -21 18 -39 39 -39z" />
    <glyph glyph-name="uni06CA.fina" unicode="&#x6ca;" horiz-adv-x="456" 
d="M293 384l-70 32v12l27 58l70 -33v-12zM154 376l-69 32v12l26 58l70 -33v-12zM197 -233c-28 -3 -93 16 -128 27l-15 48l4 5c37 -5 85 -10 107 -8c92 7 157 91 180 161h-143c-66 0 -106 28 -106 92c0 7 1 13 2 20c13 140 61 210 141 210c69 0 105 -37 125 -75
c16 -29 32 -83 37 -134c1 -11 2 -23 2 -35h53c9 0 17 -17 17 -38c0 -23 -8 -40 -17 -40h-57c-26 -131 -128 -225 -202 -233zM221 74h127c-6 59 -26 129 -44 165c-26 10 -46 14 -69 14c-48 0 -74 -21 -84 -120c-1 -6 -1 -11 -1 -16c0 -35 21 -43 71 -43z" />
    <glyph glyph-name="uniFE85" unicode="&#x624;" horiz-adv-x="459" arabic-form="isolated" 
d="M134 395l8 45l50 20c-29 12 -47 43 -47 75c0 53 41 86 91 91c10 1 18 0 27 -1c12 -1 25 -4 37 -6v-47c-8 1 -17 3 -26 4c-14 1 -26 2 -36 2c-25 0 -42 -4 -52 -9c-3 -9 -3 -17 -3 -26c0 -33 22 -51 50 -51c14 0 28 1 42 5l69 21l2 -3l-8 -46l-25 -10
c-59 -22 -117 -45 -176 -67zM197 -233c-28 -3 -93 16 -128 27l-15 48l4 5c37 -5 85 -10 107 -8c100 7 169 107 185 178c-59 -14 -111 -17 -148 -17c-65 0 -106 28 -106 92c0 7 1 13 2 20c13 140 61 210 141 210c69 0 105 -37 125 -75c21 -39 41 -118 41 -187
c0 -161 -124 -285 -208 -293zM221 74c37 0 78 3 127 10c-8 58 -28 122 -44 155c-26 10 -46 14 -69 14c-48 0 -74 -21 -84 -120c-1 -6 -1 -11 -1 -14c-1 -37 21 -45 71 -45z" />
    <glyph glyph-name="uniFE86" unicode="&#x624;" horiz-adv-x="456" arabic-form="final" 
d="M133 395l8 45l50 20c-29 12 -47 43 -47 75c0 53 41 86 91 91c10 1 18 0 27 -1c12 -1 25 -4 37 -6v-47c-8 1 -17 3 -26 4c-14 1 -26 2 -36 2c-25 0 -42 -4 -52 -9c-3 -9 -3 -17 -3 -26c0 -33 22 -51 50 -51c14 0 28 1 42 5l69 21l2 -3l-8 -46l-25 -10
c-59 -22 -117 -45 -176 -67zM197 -233c-28 -3 -93 16 -128 27l-15 48l4 5c37 -5 85 -10 107 -8c92 7 157 91 180 161h-143c-66 0 -106 28 -106 92c0 7 1 13 2 20c13 140 61 210 141 210c69 0 105 -37 125 -75c16 -29 32 -83 37 -134c1 -11 2 -23 2 -35h53c9 0 17 -17 17 -38
c0 -23 -8 -40 -17 -40h-57c-26 -131 -128 -225 -202 -233zM221 74h127c-6 59 -26 129 -44 165c-26 10 -46 14 -69 14c-48 0 -74 -21 -84 -120c-1 -6 -1 -11 -1 -16c0 -35 21 -43 71 -43z" />
    <glyph glyph-name="uniFBD9" unicode="&#x6c6;" horiz-adv-x="459" arabic-form="isolated" 
d="M224 391l-90 233l30 23l72 -193l78 193l28 -23l-90 -218zM197 -233c-28 -3 -93 16 -128 27l-15 48l4 5c37 -5 85 -10 107 -8c100 7 169 107 185 178c-59 -14 -111 -17 -148 -17c-65 0 -106 28 -106 92c0 7 1 13 2 20c13 140 61 210 141 210c69 0 105 -37 125 -75
c21 -39 41 -118 41 -187c0 -161 -124 -285 -208 -293zM221 74c37 0 78 3 127 10c-8 58 -28 122 -44 155c-26 10 -46 14 -69 14c-48 0 -74 -21 -84 -120c-1 -6 -1 -11 -1 -14c-1 -37 21 -45 71 -45z" />
    <glyph glyph-name="uniFBDA" unicode="&#x6c6;" horiz-adv-x="456" arabic-form="final" 
d="M224 391l-90 233l30 23l72 -193l78 193l28 -23l-90 -218zM197 -233c-28 -3 -93 16 -128 27l-15 48l4 5c37 -5 85 -10 107 -8c92 7 157 91 180 161h-143c-66 0 -106 28 -106 92c0 7 1 13 2 20c13 140 61 210 141 210c69 0 105 -37 125 -75c16 -29 32 -83 37 -134
c1 -11 2 -23 2 -35h53c9 0 17 -17 17 -38c0 -23 -8 -40 -17 -40h-57c-26 -131 -128 -225 -202 -233zM221 74h127c-6 59 -26 129 -44 165c-26 10 -46 14 -69 14c-48 0 -74 -21 -84 -120c-1 -6 -1 -11 -1 -16c0 -35 21 -43 71 -43z" />
    <glyph glyph-name="uniFBD7" unicode="&#x6c7;" horiz-adv-x="459" arabic-form="isolated" 
d="M108 387l8 45l98 38c-18 32 -26 58 -26 80c0 56 40 90 90 90c55 0 94 -36 94 -87c0 -40 -23 -78 -87 -103l-174 -66zM230 550c0 -16 11 -40 25 -65c41 13 74 34 74 67c0 21 -19 45 -53 44c-26 -1 -46 -19 -46 -46zM197 -233c-28 -3 -93 16 -128 27l-15 48l4 5
c37 -5 85 -10 107 -8c100 7 169 107 185 178c-59 -14 -111 -17 -148 -17c-65 0 -106 28 -106 92c0 7 1 13 2 20c13 140 61 210 141 210c69 0 105 -37 125 -75c21 -39 41 -118 41 -187c0 -161 -124 -285 -208 -293zM221 74c37 0 78 3 127 10c-8 58 -28 122 -44 155
c-26 10 -46 14 -69 14c-48 0 -74 -21 -84 -120c-1 -6 -1 -11 -1 -14c-1 -37 21 -45 71 -45z" />
    <glyph glyph-name="uniFBD8" unicode="&#x6c7;" horiz-adv-x="456" arabic-form="final" 
d="M108 387l8 45l98 38c-18 32 -26 58 -26 80c0 56 40 90 90 90c55 0 94 -36 94 -87c0 -40 -23 -78 -87 -103l-174 -66zM230 550c0 -16 11 -40 25 -65c41 13 74 34 74 67c0 21 -19 45 -53 44c-26 -1 -46 -19 -46 -46zM197 -233c-28 -3 -93 16 -128 27l-15 48l4 5
c37 -5 85 -10 107 -8c92 7 157 91 180 161h-143c-66 0 -106 28 -106 92c0 7 1 13 2 20c13 140 61 210 141 210c69 0 105 -37 125 -75c16 -29 32 -83 37 -134c1 -11 2 -23 2 -35h53c9 0 17 -17 17 -38c0 -23 -8 -40 -17 -40h-57c-26 -131 -128 -225 -202 -233zM221 74h127
c-6 59 -26 129 -44 165c-26 10 -46 14 -69 14c-48 0 -74 -21 -84 -120c-1 -6 -1 -11 -1 -16c0 -35 21 -43 71 -43z" />
    <glyph glyph-name="uniFBDB" unicode="&#x6c8;" horiz-adv-x="459" arabic-form="isolated" 
d="M222 394l-4 166l43 7v-110c0 -23 -2 -48 -5 -62zM197 -233c-28 -3 -93 16 -128 27l-15 48l4 5c37 -5 85 -10 107 -8c100 7 169 107 185 178c-59 -14 -111 -17 -148 -17c-65 0 -106 28 -106 92c0 7 1 13 2 20c13 140 61 210 141 210c69 0 105 -37 125 -75
c21 -39 41 -118 41 -187c0 -161 -124 -285 -208 -293zM221 74c37 0 78 3 127 10c-8 58 -28 122 -44 155c-26 10 -46 14 -69 14c-48 0 -74 -21 -84 -120c-1 -6 -1 -11 -1 -14c-1 -37 21 -45 71 -45z" />
    <glyph glyph-name="uniFBDC" unicode="&#x6c8;" horiz-adv-x="456" arabic-form="final" 
d="M221 394l-4 166l43 7v-110c0 -23 -2 -48 -5 -62zM197 -233c-28 -3 -93 16 -128 27l-15 48l4 5c37 -5 85 -10 107 -8c92 7 157 91 180 161h-143c-66 0 -106 28 -106 92c0 7 1 13 2 20c13 140 61 210 141 210c69 0 105 -37 125 -75c16 -29 32 -83 37 -134
c1 -11 2 -23 2 -35h53c9 0 17 -17 17 -38c0 -23 -8 -40 -17 -40h-57c-26 -131 -128 -225 -202 -233zM221 74h127c-6 59 -26 129 -44 165c-26 10 -46 14 -69 14c-48 0 -74 -21 -84 -120c-1 -6 -1 -11 -1 -16c0 -35 21 -43 71 -43z" />
    <glyph glyph-name="uniFBE2" unicode="&#x6c9;" horiz-adv-x="459" arabic-form="isolated" 
d="M222 649l27 -16l91 -217l-29 -24l-77 193l-72 -193l-30 24zM197 -233c-28 -3 -93 16 -128 27l-15 48l4 5c37 -5 85 -10 107 -8c100 7 169 107 185 178c-59 -14 -111 -17 -148 -17c-65 0 -106 28 -106 92c0 7 1 13 2 20c13 140 61 210 141 210c69 0 105 -37 125 -75
c21 -39 41 -118 41 -187c0 -161 -124 -285 -208 -293zM221 74c37 0 78 3 127 10c-8 58 -28 122 -44 155c-26 10 -46 14 -69 14c-48 0 -74 -21 -84 -120c-1 -6 -1 -11 -1 -14c-1 -37 21 -45 71 -45z" />
    <glyph glyph-name="uniFBE3" unicode="&#x6c9;" horiz-adv-x="456" arabic-form="final" 
d="M199 649l27 -16l90 -217l-28 -24l-78 193l-72 -193l-30 24zM197 -233c-28 -3 -93 16 -128 27l-15 48l4 5c37 -5 85 -10 107 -8c92 7 157 91 180 161h-143c-66 0 -106 28 -106 92c0 7 1 13 2 20c13 140 61 210 141 210c69 0 105 -37 125 -75c16 -29 32 -83 37 -134
c1 -11 2 -23 2 -35h53c9 0 17 -17 17 -38c0 -23 -8 -40 -17 -40h-57c-26 -131 -128 -225 -202 -233zM221 74h127c-6 59 -26 129 -44 165c-26 10 -46 14 -69 14c-48 0 -74 -21 -84 -120c-1 -6 -1 -11 -1 -16c0 -35 21 -43 71 -43z" />
    <glyph glyph-name="uniFBDE" unicode="&#x6cb;" horiz-adv-x="459" arabic-form="isolated" 
d="M201 482l-70 31v13l27 57l70 -33v-11zM296 379l-70 32v12l26 58l70 -33v-12zM147 371l-70 32v12l27 58l70 -33v-12zM197 -233c-28 -3 -93 16 -128 27l-15 48l4 5c37 -5 85 -10 107 -8c100 7 169 107 185 178c-59 -14 -111 -17 -148 -17c-65 0 -106 28 -106 92
c0 7 1 13 2 20c13 140 61 210 141 210c69 0 105 -37 125 -75c21 -39 41 -118 41 -187c0 -161 -124 -285 -208 -293zM221 74c37 0 78 3 127 10c-8 58 -28 122 -44 155c-26 10 -46 14 -69 14c-48 0 -74 -21 -84 -120c-1 -6 -1 -11 -1 -14c-1 -37 21 -45 71 -45z" />
    <glyph glyph-name="uniFBDF" unicode="&#x6cb;" horiz-adv-x="456" arabic-form="final" 
d="M201 482l-70 31v13l27 57l70 -33v-11zM296 379l-70 32v12l26 58l70 -33v-12zM147 371l-70 32v12l27 58l70 -33v-12zM197 -233c-28 -3 -93 16 -128 27l-15 48l4 5c37 -5 85 -10 107 -8c92 7 157 91 180 161h-143c-66 0 -106 28 -106 92c0 7 1 13 2 20
c13 140 61 210 141 210c69 0 105 -37 125 -75c16 -29 32 -83 37 -134c1 -11 2 -23 2 -35h53c9 0 17 -17 17 -38c0 -23 -8 -40 -17 -40h-57c-26 -131 -128 -225 -202 -233zM221 74h127c-6 59 -26 129 -44 165c-26 10 -46 14 -69 14c-48 0 -74 -21 -84 -120
c-1 -6 -1 -11 -1 -16c0 -35 21 -43 71 -43z" />
    <glyph glyph-name="uniFEF0" unicode="&#x649;" horiz-adv-x="619" arabic-form="final" 
d="M243 -213c-121 0 -202 49 -192 186c4 61 22 140 34 193l39 -2l5 -7c-11 -46 -25 -115 -30 -162c-11 -105 52 -130 161 -130c115 0 208 40 256 67l-200 75l-3 8l24 63h282c9 0 17 -17 17 -38c0 -23 -8 -40 -17 -40h-88c-35 0 -69 14 -96 22l-1 -4c36 -13 83 -30 104 -41
c53 -28 33 -83 -8 -113c-52 -37 -152 -77 -287 -77z" />
    <glyph glyph-name="uniFC5D" unicode="&#xfc5d;" horiz-adv-x="653" arabic-form="isolated" 
d="M146 252l-4 166l43 7v-110c0 -23 -2 -48 -5 -62zM248 -193c-121 0 -203 49 -193 186c5 61 22 140 35 193l39 -2l4 -7c-10 -46 -25 -115 -30 -162c-11 -105 53 -130 161 -130c140 0 250 54 287 86c0 33 -17 37 -75 38h-30c-112 0 -174 22 -172 94c0 7 0 16 3 27
c16 82 111 246 189 246c26 -2 58 -23 93 -48l-11 -51l-9 -4c-35 21 -63 33 -79 33c-44 0 -118 -108 -141 -186c19 -31 47 -40 154 -40c98 0 126 -33 126 -80c0 -35 -16 -78 -49 -103c-45 -44 -161 -90 -302 -90z" />
    <glyph glyph-name="uniFC90" unicode="&#xfc90;" horiz-adv-x="619" arabic-form="final" 
d="M209 223l-4 166l43 7v-110c0 -23 -2 -48 -5 -62zM243 -213c-121 0 -202 49 -192 186c4 61 22 140 34 193l39 -2l5 -7c-11 -46 -25 -115 -30 -162c-11 -105 52 -130 161 -130c115 0 208 40 256 67l-200 75l-3 8l24 63h282c9 0 17 -17 17 -38c0 -23 -8 -40 -17 -40h-88
c-35 0 -69 14 -96 22l-1 -4c36 -13 83 -30 104 -41c53 -28 33 -83 -8 -113c-52 -37 -152 -77 -287 -77z" />
    <glyph glyph-name="uniFEF1" unicode="&#x64a;" horiz-adv-x="653" arabic-form="isolated" 
d="M248 -193c-121 0 -203 49 -193 186c5 61 22 140 35 193l39 -2l4 -7c-10 -46 -25 -115 -30 -162c-11 -105 53 -130 161 -130c140 0 250 54 287 86c0 33 -17 37 -75 38h-30c-112 0 -174 22 -172 94c0 7 0 16 3 27c16 82 111 246 189 246c26 -2 58 -23 93 -48l-11 -51l-9 -4
c-35 21 -63 33 -79 33c-44 0 -118 -108 -141 -186c19 -31 47 -40 154 -40c98 0 126 -33 126 -80c0 -35 -16 -78 -49 -103c-45 -44 -161 -90 -302 -90zM382 -358l-70 32v12l27 58l69 -34v-11zM245 -366l-69 32v12l26 58l70 -34v-11z" />
    <glyph glyph-name="uniFEF2" unicode="&#x64a;" horiz-adv-x="619" arabic-form="final" 
d="M243 -213c-121 0 -202 49 -192 186c4 61 22 140 34 193l39 -2l5 -7c-11 -46 -25 -115 -30 -162c-11 -105 52 -130 161 -130c115 0 208 40 256 67l-200 75l-3 8l24 63h282c9 0 17 -17 17 -38c0 -23 -8 -40 -17 -40h-88c-35 0 -69 14 -96 22l-1 -4c36 -13 83 -30 104 -41
c53 -28 33 -83 -8 -113c-52 -37 -152 -77 -287 -77zM350 -366l-70 32v12l26 58l70 -33v-12zM213 -374l-70 32v12l27 58l70 -33v-12z" />
    <glyph glyph-name="uniFEF4" unicode="&#x64a;" horiz-adv-x="366" arabic-form="medial" 
d="M0 0c-9 0 -17 17 -17 40c0 21 8 38 17 38h70c70 0 111 14 120 64l22 116l8 6l42 -13l-15 -100c-6 -38 22 -73 87 -73h32c9 0 17 -17 17 -38c0 -23 -8 -40 -17 -40h-33c-63 0 -104 24 -121 63c-31 -48 -79 -63 -145 -63h-67zM250 -206l-70 32v12l26 58l70 -33v-12z
M113 -214l-70 32v12l27 58l70 -33v-12z" />
    <glyph glyph-name="uniFEF3" unicode="&#x64a;" horiz-adv-x="318" arabic-form="initial" 
d="M0 0c-9 0 -17 17 -17 40c0 21 8 38 17 38c96 0 170 17 207 50l-26 179l57 37l7 -4c11 -90 19 -151 19 -187c0 -52 -23 -87 -57 -110c-54 -36 -136 -43 -207 -43zM211 -206l-70 32v12l26 58l70 -33v-12zM74 -214l-70 32v12l27 58l70 -33v-12z" />
    <glyph glyph-name="uniFE89" unicode="&#x626;" horiz-adv-x="653" arabic-form="isolated" 
d="M58 252l8 45l50 20c-29 12 -47 43 -47 75c0 53 41 86 91 91c10 1 18 0 27 -1c12 -1 25 -4 37 -6v-47c-8 1 -17 3 -26 4c-14 1 -26 2 -36 2c-25 0 -42 -4 -52 -9c-3 -9 -3 -17 -3 -26c0 -33 22 -51 50 -51c14 0 28 1 42 5l69 21l2 -3l-8 -46l-25 -10
c-59 -22 -117 -45 -176 -67zM248 -193c-121 0 -203 49 -193 186c5 61 22 140 35 193l39 -2l4 -7c-10 -46 -25 -115 -30 -162c-11 -105 53 -130 161 -130c140 0 250 54 287 86c0 33 -17 37 -75 38h-30c-112 0 -174 22 -172 94c0 7 0 16 3 27c16 82 111 246 189 246
c26 -2 58 -23 93 -48l-11 -51l-9 -4c-35 21 -63 33 -79 33c-44 0 -118 -108 -141 -186c19 -31 47 -40 154 -40c98 0 126 -33 126 -80c0 -35 -16 -78 -49 -103c-45 -44 -161 -90 -302 -90z" />
    <glyph glyph-name="uniFE8A" unicode="&#x626;" horiz-adv-x="619" arabic-form="final" 
d="M121 223l8 45l50 20c-29 12 -47 43 -47 75c0 53 41 86 91 91c10 1 18 0 27 -1c12 -1 25 -4 37 -6v-47c-8 1 -17 3 -26 4c-14 1 -26 2 -36 2c-25 0 -42 -4 -52 -9c-3 -9 -3 -17 -3 -26c0 -33 22 -51 50 -51c14 0 28 1 42 5l69 21l2 -3l-8 -46l-25 -10
c-59 -22 -117 -45 -176 -67zM243 -213c-121 0 -202 49 -192 186c4 61 22 140 34 193l39 -2l5 -7c-11 -46 -25 -115 -30 -162c-11 -105 52 -130 161 -130c115 0 208 40 256 67l-200 75l-3 8l24 63h282c9 0 17 -17 17 -38c0 -23 -8 -40 -17 -40h-88c-35 0 -69 14 -96 22l-1 -4
c36 -13 83 -30 104 -41c53 -28 33 -83 -8 -113c-52 -37 -152 -77 -287 -77z" />
    <glyph glyph-name="uniFE8C" unicode="&#x626;" horiz-adv-x="366" arabic-form="medial" 
d="M136 350l8 45l50 20c-29 12 -47 43 -47 75c0 53 41 86 91 91c10 1 18 0 27 -1c12 -1 25 -4 37 -6v-47c-8 1 -17 3 -26 4c-14 1 -26 2 -36 2c-25 0 -42 -4 -52 -9c-3 -9 -3 -17 -3 -26c0 -33 22 -51 50 -51c14 0 28 1 42 5l69 21l2 -3l-8 -46l-25 -10
c-59 -22 -117 -45 -176 -67zM0 0c-9 0 -17 17 -17 40c0 21 8 38 17 38h70c70 0 111 14 120 64l22 116l8 6l42 -13l-15 -100c-6 -38 22 -73 87 -73h32c9 0 17 -17 17 -38c0 -23 -8 -40 -17 -40h-33c-63 0 -104 24 -121 63c-31 -48 -79 -63 -145 -63h-67z" />
    <glyph glyph-name="uniFE8B" unicode="&#x626;" horiz-adv-x="318" arabic-form="initial" 
d="M57 387l8 45l50 20c-29 12 -47 43 -47 75c0 53 41 86 91 91c10 1 18 0 27 -1c12 -1 25 -4 37 -6v-47c-8 1 -17 3 -26 4c-14 1 -26 2 -36 2c-25 0 -42 -4 -52 -9c-3 -9 -3 -17 -3 -26c0 -33 22 -51 50 -51c14 0 28 1 42 5l69 21l2 -3l-8 -46l-25 -10
c-59 -22 -117 -45 -176 -67zM0 0c-9 0 -17 17 -17 40c0 21 8 38 17 38c96 0 170 17 207 50l-26 179l57 37l7 -4c11 -90 19 -151 19 -187c0 -52 -23 -87 -57 -110c-54 -36 -136 -43 -207 -43z" />
    <glyph glyph-name="uni06CE.init" unicode="&#x6ce;" horiz-adv-x="318" 
d="M148 384l-90 233l30 23l72 -193l78 193l28 -23l-90 -218zM0 0c-9 0 -17 17 -17 40c0 21 8 38 17 38c96 0 170 17 207 50l-26 179l57 37l7 -4c11 -90 19 -151 19 -187c0 -52 -23 -87 -57 -110c-54 -36 -136 -43 -207 -43zM211 -206l-70 32v12l26 58l70 -33v-12zM74 -214
l-70 32v12l27 58l70 -33v-12z" />
    <glyph glyph-name="uni06CE.medi" unicode="&#x6ce;" horiz-adv-x="366" 
d="M227 347l-90 233l30 23l72 -193l78 193l28 -23l-90 -218zM0 0c-9 0 -17 17 -17 40c0 21 8 38 17 38h70c70 0 111 14 120 64l22 116l8 6l42 -13l-15 -100c-6 -38 22 -73 87 -73h32c9 0 17 -17 17 -38c0 -23 -8 -40 -17 -40h-33c-63 0 -104 24 -121 63
c-31 -48 -79 -63 -145 -63h-67zM250 -206l-70 32v12l26 58l70 -33v-12zM113 -214l-70 32v12l27 58l70 -33v-12z" />
    <glyph glyph-name="uni06CE.fina" unicode="&#x6ce;" horiz-adv-x="619" 
d="M212 220l-90 233l30 23l72 -193l78 193l28 -23l-90 -218zM243 -213c-121 0 -202 49 -192 186c4 61 22 140 34 193l39 -2l5 -7c-11 -46 -25 -115 -30 -162c-11 -105 52 -130 161 -130c115 0 208 40 256 67l-200 75l-3 8l24 63h282c9 0 17 -17 17 -38c0 -23 -8 -40 -17 -40
h-88c-35 0 -69 14 -96 22l-1 -4c36 -13 83 -30 104 -41c53 -28 33 -83 -8 -113c-52 -37 -152 -77 -287 -77z" />
    <glyph glyph-name="uniFBFD" unicode="&#x6cc;" horiz-adv-x="619" arabic-form="final" 
d="M243 -213c-121 0 -202 49 -192 186c4 61 22 140 34 193l39 -2l5 -7c-11 -46 -25 -115 -30 -162c-11 -105 52 -130 161 -130c115 0 208 40 256 67l-200 75l-3 8l24 63h282c9 0 17 -17 17 -38c0 -23 -8 -40 -17 -40h-88c-35 0 -69 14 -96 22l-1 -4c36 -13 83 -30 104 -41
c53 -28 33 -83 -8 -113c-52 -37 -152 -77 -287 -77z" />
    <glyph glyph-name="uniFBFF" unicode="&#x6cc;" horiz-adv-x="366" arabic-form="medial" 
d="M0 0c-9 0 -17 17 -17 40c0 21 8 38 17 38h70c70 0 111 14 120 64l22 116l8 6l42 -13l-15 -100c-6 -38 22 -73 87 -73h32c9 0 17 -17 17 -38c0 -23 -8 -40 -17 -40h-33c-63 0 -104 24 -121 63c-31 -48 -79 -63 -145 -63h-67zM250 -206l-70 32v12l26 58l70 -33v-12z
M113 -214l-70 32v12l27 58l70 -33v-12z" />
    <glyph glyph-name="uniFBFE" unicode="&#x6cc;" horiz-adv-x="318" arabic-form="initial" 
d="M0 0c-9 0 -17 17 -17 40c0 21 8 38 17 38c96 0 170 17 207 50l-26 179l57 37l7 -4c11 -90 19 -151 19 -187c0 -52 -23 -87 -57 -110c-54 -36 -136 -43 -207 -43zM211 -206l-70 32v12l26 58l70 -33v-12zM74 -214l-70 32v12l27 58l70 -33v-12z" />
    <glyph glyph-name="uni06CD.fina" unicode="&#x6cd;" horiz-adv-x="715" 
d="M339 -213c-121 0 -203 49 -193 186c3 46 15 103 25 149l-123 -27l-5 9l12 53l170 38l5 -9c-28 -136 -32 -156 -36 -191c-10 -105 53 -130 161 -130c115 0 211 40 258 67l-201 75l-3 8l23 63h283c9 0 16 -17 16 -38c0 -23 -7 -40 -16 -40h-88c-35 0 -70 14 -96 22l-2 -4
c37 -13 86 -30 107 -41c53 -28 33 -83 -9 -113c-51 -37 -153 -77 -288 -77z" />
    <glyph glyph-name="uniFBE4" unicode="&#x6d0;" horiz-adv-x="653" arabic-form="isolated" 
d="M248 -193c-121 0 -203 49 -193 186c5 61 22 140 35 193l39 -2l4 -7c-10 -46 -25 -115 -30 -162c-11 -105 53 -130 161 -130c140 0 250 54 287 86c0 33 -17 37 -75 38h-30c-112 0 -174 22 -172 94c0 7 0 16 3 27c16 82 111 246 189 246c26 -2 58 -23 93 -48l-11 -51l-9 -4
c-35 21 -63 33 -79 33c-44 0 -118 -108 -141 -186c19 -31 47 -40 154 -40c98 0 126 -33 126 -80c0 -35 -16 -78 -49 -103c-45 -44 -161 -90 -302 -90zM272 -380l-70 32v12l26 58l70 -33v-12zM272 -514l-70 32v12l26 58l70 -33v-12z" />
    <glyph glyph-name="uniFBE5" unicode="&#x6d0;" horiz-adv-x="619" arabic-form="final" 
d="M243 -213c-121 0 -202 49 -192 186c4 61 22 140 34 193l39 -2l5 -7c-11 -46 -25 -115 -30 -162c-11 -105 52 -130 161 -130c115 0 208 40 256 67l-200 75l-3 8l24 63h282c9 0 17 -17 17 -38c0 -23 -8 -40 -17 -40h-88c-35 0 -69 14 -96 22l-1 -4c36 -13 83 -30 104 -41
c53 -28 33 -83 -8 -113c-52 -37 -152 -77 -287 -77zM278 -401l-70 32v12l27 58l70 -33v-12zM278 -535l-70 32v12l27 58l70 -33v-12z" />
    <glyph glyph-name="uniFBE7" unicode="&#x6d0;" horiz-adv-x="366" arabic-form="medial" 
d="M0 0c-9 0 -17 17 -17 40c0 21 8 38 17 38h70c70 0 111 14 120 64l22 116l8 6l42 -13l-15 -100c-6 -38 22 -73 87 -73h32c9 0 17 -17 17 -38c0 -23 -8 -40 -17 -40h-33c-63 0 -104 24 -121 63c-31 -48 -79 -63 -145 -63h-67zM199 -175l-70 32v12l27 58l70 -33v-12z
M199 -309l-70 32v12l27 58l70 -33v-12z" />
    <glyph glyph-name="uniFBE6" unicode="&#x6d0;" horiz-adv-x="318" arabic-form="initial" 
d="M0 0c-9 0 -17 17 -17 40c0 21 8 38 17 38c96 0 170 17 207 50l-26 179l57 37l7 -4c11 -90 19 -151 19 -187c0 -52 -23 -87 -57 -110c-54 -36 -136 -43 -207 -43zM164 -180l-70 32v12l27 58l70 -33v-12zM164 -314l-70 32v12l27 58l70 -33v-12z" />
    <glyph glyph-name="uni06D1.init" unicode="&#x6d1;" horiz-adv-x="318" 
d="M0 0c-9 0 -17 17 -17 40c0 21 8 38 17 38c96 0 170 17 207 50l-26 179l57 37l7 -4c11 -90 19 -151 19 -187c0 -52 -23 -87 -57 -110c-54 -36 -136 -43 -207 -43zM228 -205l-69 31v13l26 58l70 -34v-11zM80 -213l-70 31v13l27 58l70 -34v-11zM175 -315l-70 31v13l26 57
l70 -33v-11z" />
    <glyph glyph-name="uni06D1.medi" unicode="&#x6d1;" horiz-adv-x="366" 
d="M0 0c-9 0 -17 17 -17 40c0 21 8 38 17 38h70c70 0 111 14 120 64l22 116l8 6l42 -13l-15 -100c-6 -38 22 -73 87 -73h32c9 0 17 -17 17 -38c0 -23 -8 -40 -17 -40h-33c-63 0 -104 24 -121 63c-31 -48 -79 -63 -145 -63h-67zM254 -205l-69 31v13l26 58l70 -34v-11z
M106 -213l-70 31v13l27 58l70 -34v-11zM201 -315l-70 31v13l26 57l70 -33v-11z" />
    <glyph glyph-name="uni06D1.fina" unicode="&#x6d1;" horiz-adv-x="619" 
d="M243 -213c-121 0 -202 49 -192 186c4 61 22 140 34 193l39 -2l5 -7c-11 -46 -25 -115 -30 -162c-11 -105 52 -130 161 -130c115 0 210 40 258 67l-202 75l-3 8l24 63h282c9 0 17 -17 17 -38c0 -23 -8 -40 -17 -40h-88c-35 0 -69 14 -96 22l-1 -4c36 -13 85 -30 106 -41
c53 -28 33 -83 -8 -113c-52 -38 -154 -77 -289 -77zM349 -374l-70 32v12l27 58l70 -33v-12zM200 -382l-70 32v12l27 58l70 -33v-12zM295 -483l-70 31v13l27 57l70 -33v-12z" />
    <glyph glyph-name="uniFBAF" unicode="&#x6d2;" horiz-adv-x="338" arabic-form="final" 
d="M217 -203c-115 0 -166 40 -162 119c1 74 50 162 227 162h56c9 0 16 -17 16 -38c0 -23 -7 -40 -16 -40h-56c-102 0 -142 -11 -177 -27c-7 -64 23 -97 123 -97h433l5 -9l-14 -70h-435z" />
    <glyph glyph-name="uniFBB0" unicode="&#x6d3;" horiz-adv-x="692" arabic-form="isolated" 
d="M176 436l9 45l49 20c-29 12 -47 43 -47 75c0 53 42 86 91 91c10 1 18 0 28 -1c12 -1 24 -4 37 -6v-47c-9 1 -18 3 -26 4c-14 1 -27 2 -37 2c-25 0 -42 -4 -52 -9c-3 -9 -3 -17 -3 -26c0 -33 23 -51 51 -51c13 0 27 1 41 5l69 21l3 -3l-9 -46l-25 -10
c-59 -22 -117 -45 -176 -67zM55 108c1 56 31 84 91 136c123 106 111 155 157 155c38 0 62 -26 116 -60l-12 -58l-7 -3c-39 22 -84 47 -108 46c-20 -31 -30 -55 -101 -117c-64 -55 -82 -69 -88 -88c7 -23 35 -41 132 -41h439l6 -8l-15 -70h-450c-123 0 -162 47 -160 108z" />
    <glyph glyph-name="uniFBB1" unicode="&#x6d3;" horiz-adv-x="322" arabic-form="final" 
d="M0 91l9 45l50 20c-30 12 -48 43 -48 75c0 53 42 86 92 91c9 1 17 0 27 -1c12 -1 24 -4 37 -6v-47c-9 1 -18 3 -26 4c-14 1 -26 2 -37 2c-25 0 -42 -4 -52 -9c-3 -9 -3 -17 -3 -26c0 -33 23 -51 51 -51c13 0 27 1 41 5l69 21l3 -3l-9 -46l-25 -10
c-59 -22 -117 -45 -176 -67zM217 -203c-115 0 -166 40 -162 119c1 74 50 162 227 162h56c9 0 16 -17 16 -38c0 -23 -7 -40 -16 -40h-56c-102 0 -142 -11 -177 -27c-7 -64 23 -97 123 -97h433l5 -9l-14 -70h-435z" />
    <glyph glyph-name="uniFBDD" unicode="&#x677;" horiz-adv-x="456" arabic-form="isolated" 
d="M240 371l8 45l99 38c-19 32 -27 58 -27 81c0 55 41 89 91 89c54 0 93 -36 93 -87c0 -40 -22 -78 -87 -102l-174 -67zM69 373l8 45l50 20c-29 11 -47 43 -47 75c0 53 41 86 91 91c10 1 18 0 27 -1c12 -1 25 -4 37 -6v-47l-26 3c-14 2 -26 3 -36 3c-25 0 -42 -4 -53 -9
c-2 -9 -3 -17 -3 -26c0 -33 23 -51 51 -51c13 0 28 1 42 5l68 21l3 -3l-8 -46l-25 -10c-59 -22 -117 -45 -176 -67zM362 535c0 -17 11 -41 25 -66c41 13 75 35 75 67c0 22 -20 45 -53 44c-26 0 -47 -19 -47 -45zM197 -233c-28 -3 -93 16 -128 27l-15 48l4 5
c37 -5 85 -10 107 -8c92 7 157 91 180 161h-143c-66 0 -106 28 -106 92c0 7 1 13 2 20c13 140 61 210 141 210c69 0 105 -37 125 -75c16 -29 32 -83 37 -134c1 -11 2 -23 2 -35h53c9 0 17 -17 17 -38c0 -23 -8 -40 -17 -40h-57c-26 -131 -128 -225 -202 -233zM221 74h127
c-6 59 -26 129 -44 165c-26 10 -46 14 -69 14c-48 0 -74 -21 -84 -120c-1 -6 -1 -11 -1 -16c0 -35 21 -43 71 -43z" />
    <glyph glyph-name="uni06D5.fina" unicode="&#x6d5;" horiz-adv-x="471" 
d="M434 0c-60 0 -105 23 -127 93l-22 -49c-30 -4 -58 -5 -85 -5c-93 0 -147 30 -146 101c0 66 32 120 134 169l106 52v67l61 17v-283c0 -59 30 -84 85 -84h31c9 0 16 -17 16 -38c0 -23 -7 -40 -16 -40h-37zM225 115c23 0 47 1 69 2v175l-57 -27l-129 -60
c-3 -12 -5 -22 -5 -30c-1 -51 36 -60 122 -60z" />
    <glyph glyph-name="uniFDF1" unicode="&#xfdf1;" horiz-adv-x="882" arabic-form="isolated" 
d="M729 588l-70 31v13l27 57l70 -33v-12zM591 580l-70 31v13l26 57l70 -33v-12zM255 -203c-138 0 -204 48 -200 135c1 107 89 165 185 221c14 8 26 15 38 23c14 9 17 15 17 27l-3 430l60 15v-471c0 -80 34 -99 105 -99h48c109 0 194 12 247 47c4 26 5 51 6 74
c-56 -14 -107 -17 -142 -17c-66 0 -105 27 -106 90c0 7 0 14 1 22c14 140 62 210 141 210c69 0 105 -37 126 -75c23 -44 39 -123 40 -192c1 -77 -16 -147 -53 -179c-53 -47 -161 -58 -247 -58h-60c-104 0 -150 41 -159 123l-15 -26c-80 -47 -149 -84 -179 -120
c-8 -67 26 -101 161 -101h529l6 -9l-15 -70h-531zM634 256c36 0 74 3 122 10c-6 60 -24 123 -39 155c-24 10 -42 14 -69 14c-47 0 -74 -21 -84 -120v-16c0 -35 21 -43 70 -43z" />
    <glyph glyph-name="uniFC6A" unicode="&#xfc6a;" horiz-adv-x="679" arabic-form="final" 
d="M-70 -158l4 5c25 -5 73 -10 95 -8c104 8 162 102 176 164c-3 45 -14 116 -36 249l50 33l8 -6c8 -47 14 -86 19 -118c32 -4 64 -4 115 -4c64 0 109 5 136 31v109l51 15l10 -7v-126c0 -69 27 -101 95 -101h26c9 0 16 -17 16 -38c0 -23 -7 -40 -16 -40h-33
c-66 0 -143 40 -143 135c-10 -42 -64 -56 -136 -56c-34 0 -73 0 -111 4c2 -21 3 -38 3 -51c2 -140 -113 -257 -198 -265c-28 -3 -94 16 -116 27zM431 -211l-77 34v14l29 63l77 -37v-12z" />
    <glyph glyph-name="uniFC6B" unicode="&#xfc6b;" horiz-adv-x="679" arabic-form="final" 
d="M194 366l-76 35v14l29 63l77 -37v-12zM-70 -158l4 5c25 -5 73 -10 95 -8c104 8 162 102 176 164c-3 45 -14 116 -36 249l50 33l8 -6c8 -47 14 -86 19 -118c32 -4 64 -4 115 -4c64 0 109 5 136 31v109l51 15l10 -7v-126c0 -69 27 -101 95 -101h26c9 0 16 -17 16 -38
c0 -23 -7 -40 -16 -40h-33c-66 0 -143 40 -143 135c-10 -42 -64 -56 -136 -56c-34 0 -73 0 -111 4c2 -21 3 -38 3 -51c2 -140 -113 -257 -198 -265c-28 -3 -94 16 -116 27zM432 -212l-76 35v14l29 63l77 -37v-12z" />
    <glyph glyph-name="uniFCE1" unicode="&#xfce1;" horiz-adv-x="607" arabic-form="medial" 
d="M319 -116c-23 22 -44 44 -67 66c-46 46 -72 50 -119 50h-133c-9 0 -17 17 -17 40c0 21 8 38 17 38h121c19 0 36 -1 51 -4l-3 8c-1 5 -2 10 -1 16c1 5 2 11 5 17c17 51 88 156 140 156c28 0 40 -14 104 -79c92 -92 118 -114 190 -114c9 0 17 -17 17 -38
c0 -23 -8 -40 -17 -40c-105 0 -148 54 -217 122c-51 50 -75 73 -88 73c-24 0 -79 -73 -89 -101c9 -18 40 -48 75 -83c27 -25 53 -51 80 -76l-39 -51h-10zM512 -217l-76 34v14l29 63l77 -36v-13z" />
    <glyph glyph-name="uniFC6D" unicode="&#xfc6d;" horiz-adv-x="1018" arabic-form="final" 
d="M261 -182c-121 0 -217 73 -206 209c6 69 22 133 36 184l38 -3l5 -7c-11 -42 -24 -98 -30 -152c-11 -105 65 -153 174 -153c121 0 224 41 272 78c-9 77 -21 148 -42 281l49 31l10 -3c6 -44 13 -85 18 -122c32 -4 64 -4 115 -4c65 0 110 5 136 31v109l51 15l10 -7v-126
c0 -69 27 -101 95 -101h26c9 0 17 -17 17 -38c0 -23 -8 -40 -17 -40h-33c-66 0 -142 40 -143 135c-10 -42 -63 -56 -136 -56c-34 0 -72 0 -110 4c4 -34 6 -60 6 -80c0 -27 -5 -70 -47 -101c-61 -47 -166 -84 -294 -84zM339 98l-76 34v14l29 63l77 -36v-13zM769 -195l-77 35
v13l30 63l76 -36v-13z" />
    <glyph glyph-name="uniFCE2" unicode="&#xfce2;" horiz-adv-x="758" arabic-form="medial" 
d="M-17 40c0 21 8 38 17 38h106c18 97 43 182 75 287l61 42l58 -63c79 -91 83 -130 83 -164c0 -24 -1 -49 -17 -72c-36 -56 -100 -94 -211 -104c7 -65 50 -124 102 -173l55 97c71 126 121 198 184 292h60c49 -94 84 -142 173 -142h29c9 0 17 -17 17 -38
c0 -23 -8 -40 -17 -40h-29c-101 0 -156 54 -210 144c-48 -67 -118 -176 -159 -248l-76 -134h-61c-83 81 -123 163 -127 239l-96 -1c-9 0 -17 17 -17 40zM161 79c106 7 157 47 176 82c0 31 -41 88 -108 162c-29 -88 -54 -161 -68 -244zM567 -215l-76 34v14l29 63l77 -36v-13z
" />
    <glyph glyph-name="uniFC09" unicode="&#xfc09;" horiz-adv-x="631" arabic-form="isolated" 
d="M55 -27c5 61 22 140 35 193l39 -2l4 -7c-10 -46 -25 -115 -30 -162c-11 -105 53 -130 161 -130c115 0 210 40 258 67l-204 76l-3 8l23 62c77 3 129 21 159 49c-7 57 -16 120 -26 186l56 35l8 -4c12 -95 19 -150 19 -187c0 -20 -3 -37 -8 -52c-16 -49 -63 -73 -111 -86
c40 -14 90 -32 108 -41c55 -29 34 -84 -7 -114c-51 -37 -153 -77 -288 -77c-121 0 -203 49 -193 186zM529 -339l-77 34v14l30 63l76 -36v-13z" />
    <glyph glyph-name="uniFC6E" unicode="&#xfc6e;" horiz-adv-x="799" arabic-form="final" 
d="M248 -288c-121 0 -203 49 -193 186c5 61 22 140 35 193l39 -2l4 -7c-10 -44 -24 -110 -29 -156c-1 -10 -2 -19 -2 -28c1 -86 62 -108 162 -108c135 0 248 52 287 86c0 33 -16 37 -72 38h-33c-119 0 -181 26 -168 112c14 94 110 245 187 245c30 0 40 -15 104 -79
c18 -17 32 -32 46 -45c58 -54 88 -69 158 -69h26c10 0 17 -17 17 -38c0 -23 -7 -40 -17 -40h-26c-81 0 -126 24 -170 63c-20 17 -39 37 -61 59c-51 50 -68 73 -88 73c-49 0 -120 -122 -133 -169c19 -32 47 -41 152 -41c98 0 126 -33 126 -80c0 -35 -16 -78 -49 -103
c-45 -44 -165 -90 -302 -90zM713 -280l-77 34v14l30 63l76 -37v-12z" />
    <glyph glyph-name="uniFC0A" unicode="&#xfc0a;" horiz-adv-x="631" arabic-form="isolated" 
d="M55 -27c5 61 22 140 35 193l39 -2l4 -7c-10 -46 -25 -115 -30 -162c-11 -105 53 -130 161 -130c115 0 210 40 258 67l-204 76l-3 8l23 62c77 3 129 21 159 49c-7 57 -16 120 -26 186l56 35l8 -4c12 -95 19 -150 19 -187c0 -20 -3 -37 -8 -52c-16 -49 -63 -73 -111 -86
c40 -14 90 -32 108 -41c55 -29 34 -84 -7 -114c-51 -37 -153 -77 -288 -77c-121 0 -203 49 -193 186zM533 -333l-76 34v14l29 63l76 -37v-12zM346 -382l-70 32v12l27 58l70 -33v-12zM210 -390l-70 32v12l26 58l70 -33v-12z" />
    <glyph glyph-name="uniFC6F" unicode="&#xfc6f;" horiz-adv-x="799" arabic-form="final" 
d="M248 -288c-121 0 -203 49 -193 186c5 61 22 140 35 193l39 -2l4 -7c-10 -44 -24 -110 -29 -156c-1 -10 -2 -19 -2 -28c1 -86 62 -108 162 -108c135 0 248 52 287 86c0 33 -16 37 -72 38h-33c-119 0 -181 26 -168 112c14 94 110 245 187 245c30 0 40 -15 104 -79
c18 -17 32 -32 46 -45c58 -54 88 -69 158 -69h26c10 0 17 -17 17 -38c0 -23 -7 -40 -17 -40h-26c-81 0 -126 24 -170 63c-20 17 -39 37 -61 59c-51 50 -68 73 -88 73c-49 0 -120 -122 -133 -169c19 -32 47 -41 152 -41c98 0 126 -33 126 -80c0 -35 -16 -78 -49 -103
c-45 -44 -165 -90 -302 -90zM712 -280l-77 35v13l29 63l77 -36v-13zM377 -451l-70 32v12l27 58l70 -33v-12zM241 -459l-70 32v12l27 58l70 -33v-12z" />
    <glyph glyph-name="uniFC70" unicode="&#xfc70;" horiz-adv-x="679" arabic-form="final" 
d="M534 431l-69 31v13l26 57l70 -33v-11zM396 423l-70 31v13l27 57l70 -33v-11zM-70 -158l4 5c25 -5 73 -10 95 -8c104 8 162 102 176 164c-3 45 -14 116 -36 249l50 33l8 -6c8 -47 14 -86 19 -118c32 -4 64 -4 115 -4c64 0 109 5 136 31v109l51 15l10 -7v-126
c0 -69 27 -101 95 -101h26c9 0 16 -17 16 -38c0 -23 -7 -40 -16 -40h-33c-66 0 -143 40 -143 135c-10 -42 -64 -56 -136 -56c-34 0 -73 0 -111 4c2 -21 3 -38 3 -51c2 -140 -113 -257 -198 -265c-28 -3 -94 16 -116 27z" />
    <glyph glyph-name="uniFC71" unicode="&#xfc71;" horiz-adv-x="679" arabic-form="final" 
d="M534 431l-69 31v13l26 57l70 -33v-11zM396 423l-70 31v13l27 57l70 -33v-11zM193 364l-76 34v14l29 63l76 -37v-12zM-70 -158l4 5c25 -5 73 -10 95 -8c104 8 162 102 176 164c-3 45 -14 116 -36 249l50 33l8 -6c8 -47 14 -86 19 -118c32 -4 64 -4 115 -4
c64 0 109 5 136 31v109l51 15l10 -7v-126c0 -69 27 -101 95 -101h26c9 0 16 -17 16 -38c0 -23 -7 -40 -16 -40h-33c-66 0 -143 40 -143 135c-10 -42 -64 -56 -136 -56c-34 0 -73 0 -111 4c2 -21 3 -38 3 -51c2 -140 -113 -257 -198 -265c-28 -3 -94 16 -116 27z" />
    <glyph glyph-name="uniFCE3" unicode="&#xfce3;" horiz-adv-x="607" arabic-form="medial" 
d="M373 375l-70 32v12l26 58l70 -33v-12zM234 367l-70 32v12l27 58l70 -33v-12zM319 -116c-23 22 -44 44 -67 66c-46 46 -72 50 -119 50h-133c-9 0 -17 17 -17 40c0 21 8 38 17 38h121c19 0 36 -1 51 -4l-3 8c-1 5 -2 10 -1 16c1 5 2 11 5 17c17 51 88 156 140 156
c28 0 40 -14 104 -79c92 -92 118 -114 190 -114c9 0 17 -17 17 -38c0 -23 -8 -40 -17 -40c-105 0 -148 54 -217 122c-51 50 -75 73 -88 73c-24 0 -79 -73 -89 -101c9 -18 40 -48 75 -83c27 -25 53 -51 80 -76l-39 -51h-10z" />
    <glyph glyph-name="uniFC73" unicode="&#xfc73;" horiz-adv-x="1018" arabic-form="final" 
d="M830 395l-70 31v13l26 58l70 -34v-11zM691 387l-70 31v13l27 58l70 -34v-11zM261 -182c-121 0 -217 73 -206 209c6 69 22 133 36 184l38 -3l5 -7c-11 -42 -24 -98 -30 -152c-11 -105 65 -153 174 -153c121 0 224 41 272 78c-9 77 -21 148 -42 281l49 31l10 -3
c6 -44 13 -85 18 -122c32 -4 64 -4 115 -4c65 0 110 5 136 31v109l51 15l10 -7v-126c0 -69 27 -101 95 -101h26c9 0 17 -17 17 -38c0 -23 -8 -40 -17 -40h-33c-66 0 -142 40 -143 135c-10 -42 -63 -56 -136 -56c-34 0 -72 0 -110 4c4 -34 6 -60 6 -80c0 -27 -5 -70 -47 -101
c-61 -47 -166 -84 -294 -84zM339 98l-76 34v14l29 63l77 -36v-13z" />
    <glyph glyph-name="uniFCE4" unicode="&#xfce4;" horiz-adv-x="758" arabic-form="medial" 
d="M602 366l-70 31v13l27 57l69 -33v-12zM463 358l-70 31v13l27 57l70 -33v-12zM-17 40c0 21 8 38 17 38h106c18 97 43 182 75 287l61 42l58 -63c79 -91 83 -130 83 -164c0 -24 -1 -49 -17 -72c-36 -56 -100 -94 -211 -104c7 -65 50 -124 102 -173l55 97
c71 126 121 198 184 292h60c49 -94 84 -142 173 -142h29c9 0 17 -17 17 -38c0 -23 -8 -40 -17 -40h-29c-101 0 -156 54 -210 144c-48 -67 -118 -176 -159 -248l-76 -134h-61c-83 81 -123 163 -127 239l-96 -1c-9 0 -17 17 -17 40zM161 79c106 7 157 47 176 82
c0 31 -41 88 -108 162c-29 -88 -54 -161 -68 -244z" />
    <glyph glyph-name="uniFC0F" unicode="&#xfc0f;" horiz-adv-x="631" arabic-form="isolated" 
d="M522 421l-70 31v13l27 58l69 -34v-11zM383 413l-70 31v13l27 58l70 -34v-11zM55 -27c5 61 22 140 35 193l39 -2l4 -7c-10 -46 -25 -115 -30 -162c-11 -105 53 -130 161 -130c115 0 210 40 258 67l-204 76l-3 8l23 62c77 3 129 21 159 49c-7 57 -16 120 -26 186l56 35
l8 -4c12 -95 19 -150 19 -187c0 -20 -3 -37 -8 -52c-16 -49 -63 -73 -111 -86c40 -14 90 -32 108 -41c55 -29 34 -84 -7 -114c-51 -37 -153 -77 -288 -77c-121 0 -203 49 -193 186z" />
    <glyph glyph-name="uniFC74" unicode="&#xfc74;" horiz-adv-x="799" arabic-form="final" 
d="M491 368l-70 31v13l27 57l70 -33v-11zM352 360l-69 31v13l26 57l70 -33v-11zM248 -288c-121 0 -203 49 -193 186c5 61 22 140 35 193l39 -2l4 -7c-10 -44 -24 -110 -29 -156c-1 -10 -2 -19 -2 -28c1 -86 62 -108 162 -108c135 0 248 52 287 86c0 33 -16 37 -72 38h-33
c-119 0 -181 26 -168 112c14 94 110 245 187 245c30 0 40 -15 104 -79c18 -17 32 -32 46 -45c58 -54 88 -69 158 -69h26c10 0 17 -17 17 -38c0 -23 -7 -40 -17 -40h-26c-81 0 -126 24 -170 63c-20 17 -39 37 -61 59c-51 50 -68 73 -88 73c-49 0 -120 -122 -133 -169
c19 -32 47 -41 152 -41c98 0 126 -33 126 -80c0 -35 -16 -78 -49 -103c-45 -44 -165 -90 -302 -90z" />
    <glyph glyph-name="uniFC10" unicode="&#xfc10;" horiz-adv-x="631" arabic-form="isolated" 
d="M522 422l-70 31v13l27 57l70 -33v-11zM384 414l-70 31v13l26 57l70 -33v-11zM55 -27c5 61 22 140 35 193l39 -2l4 -7c-10 -46 -25 -115 -30 -162c-11 -105 53 -130 161 -130c115 0 210 40 258 67l-204 76l-3 8l23 62c77 3 129 21 159 49c-7 57 -16 120 -26 186l56 35
l8 -4c12 -95 19 -150 19 -187c0 -20 -3 -37 -8 -52c-16 -49 -63 -73 -111 -86c40 -14 90 -32 108 -41c55 -29 34 -84 -7 -114c-51 -37 -153 -77 -288 -77c-121 0 -203 49 -193 186zM342 -378l-70 32v12l26 58l70 -33v-12zM205 -386l-70 32v12l27 58l70 -33v-12z" />
    <glyph glyph-name="uniFC75" unicode="&#xfc75;" horiz-adv-x="799" arabic-form="final" 
d="M490 368l-70 31v13l27 57l70 -33v-11zM352 360l-70 31v13l27 57l69 -33v-11zM248 -288c-121 0 -203 49 -193 186c5 61 22 140 35 193l39 -2l4 -7c-10 -44 -24 -110 -29 -156c-1 -10 -2 -19 -2 -28c1 -86 62 -108 162 -108c135 0 248 52 287 86c0 33 -16 37 -72 38h-33
c-119 0 -181 26 -168 112c14 94 110 245 187 245c30 0 40 -15 104 -79c18 -17 32 -32 46 -45c58 -54 88 -69 158 -69h26c10 0 17 -17 17 -38c0 -23 -7 -40 -17 -40h-26c-81 0 -126 24 -170 63c-20 17 -39 37 -61 59c-51 50 -68 73 -88 73c-49 0 -120 -122 -133 -169
c19 -32 47 -41 152 -41c98 0 126 -33 126 -80c0 -35 -16 -78 -49 -103c-45 -44 -165 -90 -302 -90zM342 -451l-70 32v12l26 58l70 -33v-12zM205 -459l-70 32v12l27 58l70 -33v-12z" />
    <glyph glyph-name="uniFC76" unicode="&#xfc76;" horiz-adv-x="679" arabic-form="final" 
d="M464 532l-70 32v12l27 58l70 -34v-11zM559 430l-70 31v13l27 58l70 -34v-11zM410 422l-69 31v13l26 58l70 -34v-11zM-70 -158l4 5c25 -5 73 -10 95 -8c104 8 162 102 176 164c-3 45 -14 116 -36 249l50 33l8 -6c8 -47 14 -86 19 -118c32 -4 64 -4 115 -4
c64 0 109 5 136 31v109l51 15l10 -7v-126c0 -69 27 -101 95 -101h26c9 0 16 -17 16 -38c0 -23 -7 -40 -16 -40h-33c-66 0 -143 40 -143 135c-10 -42 -64 -56 -136 -56c-34 0 -73 0 -111 4c2 -21 3 -38 3 -51c2 -140 -113 -257 -198 -265c-28 -3 -94 16 -116 27z" />
    <glyph glyph-name="uniFC77" unicode="&#xfc77;" horiz-adv-x="679" arabic-form="final" 
d="M464 532l-70 32v12l27 58l70 -34v-11zM559 430l-70 31v13l27 58l70 -34v-11zM410 422l-69 31v13l26 58l70 -34v-11zM191 363l-76 34v14l29 63l77 -37v-12zM-70 -158l4 5c25 -5 73 -10 95 -8c104 8 162 102 176 164c-3 45 -14 116 -36 249l50 33l8 -6
c8 -47 14 -86 19 -118c32 -4 64 -4 115 -4c64 0 109 5 136 31v109l51 15l10 -7v-126c0 -69 27 -101 95 -101h26c9 0 16 -17 16 -38c0 -23 -7 -40 -16 -40h-33c-66 0 -143 40 -143 135c-10 -42 -64 -56 -136 -56c-34 0 -73 0 -111 4c2 -21 3 -38 3 -51
c2 -140 -113 -257 -198 -265c-28 -3 -94 16 -116 27z" />
    <glyph glyph-name="uniFCE5" unicode="&#xfce5;" horiz-adv-x="607" arabic-form="medial" 
d="M285 461l-70 31v13l26 57l70 -33v-11zM379 358l-69 32v12l26 58l70 -33v-12zM231 350l-70 32v12l27 58l70 -33v-12zM319 -116c-23 22 -44 44 -67 66c-46 46 -72 50 -119 50h-133c-9 0 -17 17 -17 40c0 21 8 38 17 38h121c19 0 36 -1 51 -4l-3 8c-1 5 -2 10 -1 16
c1 5 2 11 5 17c17 51 88 156 140 156c28 0 40 -14 104 -79c92 -92 118 -114 190 -114c9 0 17 -17 17 -38c0 -23 -8 -40 -17 -40c-105 0 -148 54 -217 122c-51 50 -75 73 -88 73c-24 0 -79 -73 -89 -101c9 -18 40 -48 75 -83c27 -25 53 -51 80 -76l-39 -51h-10z" />
    <glyph glyph-name="uniFC79" unicode="&#xfc79;" horiz-adv-x="1018" arabic-form="final" 
d="M746 492l-69 31v13l26 57l70 -33v-11zM841 389l-70 32v12l27 58l70 -33v-12zM693 381l-70 32v12l26 58l70 -33v-12zM261 -182c-121 0 -217 73 -206 209c6 69 22 133 36 184l38 -3l5 -7c-11 -42 -24 -98 -30 -152c-11 -105 65 -153 174 -153c121 0 224 41 272 78
c-9 77 -21 148 -42 281l49 31l10 -3c6 -44 13 -85 18 -122c32 -4 64 -4 115 -4c65 0 110 5 136 31v109l51 15l10 -7v-126c0 -69 27 -101 95 -101h26c9 0 17 -17 17 -38c0 -23 -8 -40 -17 -40h-33c-66 0 -142 40 -143 135c-10 -42 -63 -56 -136 -56c-34 0 -72 0 -110 4
c4 -34 6 -60 6 -80c0 -27 -5 -70 -47 -101c-61 -47 -166 -84 -294 -84zM339 98l-76 34v14l29 63l77 -36v-13z" />
    <glyph glyph-name="uniFCE6" unicode="&#xfce6;" horiz-adv-x="758" arabic-form="medial" 
d="M520 463l-70 31v13l26 57l70 -33v-11zM614 361l-70 31v13l27 57l70 -33v-12zM466 353l-70 31v13l27 57l69 -33v-12zM-17 40c0 21 8 38 17 38h106c18 97 43 182 75 287l61 42l58 -63c79 -91 83 -130 83 -164c0 -24 -1 -49 -17 -72c-36 -56 -100 -94 -211 -104
c7 -65 50 -124 102 -173l55 97c71 126 121 198 184 292h60c49 -94 84 -142 173 -142h29c9 0 17 -17 17 -38c0 -23 -8 -40 -17 -40h-29c-101 0 -156 54 -210 144c-48 -67 -118 -176 -159 -248l-76 -134h-61c-83 81 -123 163 -127 239l-96 -1c-9 0 -17 17 -17 40zM161 79
c106 7 157 47 176 82c0 31 -41 88 -108 162c-29 -88 -54 -161 -68 -244z" />
    <glyph glyph-name="uniFC13" unicode="&#xfc13;" horiz-adv-x="631" arabic-form="isolated" 
d="M437 522l-70 32v12l26 58l70 -33v-12zM531 420l-69 32v12l26 58l70 -34v-11zM383 412l-70 32v12l27 58l70 -34v-11zM55 -27c5 61 22 140 35 193l39 -2l4 -7c-10 -46 -25 -115 -30 -162c-11 -105 53 -130 161 -130c115 0 210 40 258 67l-204 76l-3 8l23 62
c77 3 129 21 159 49c-7 57 -16 120 -26 186l56 35l8 -4c12 -95 19 -150 19 -187c0 -20 -3 -37 -8 -52c-16 -49 -63 -73 -111 -86c40 -14 90 -32 108 -41c55 -29 34 -84 -7 -114c-51 -37 -153 -77 -288 -77c-121 0 -203 49 -193 186z" />
    <glyph glyph-name="uniFC7A" unicode="&#xfc7a;" horiz-adv-x="799" arabic-form="final" 
d="M412 474l-70 31v13l27 58l70 -34v-11zM507 372l-70 31v13l27 57l69 -33v-11zM358 364l-70 31v13l27 57l70 -33v-11zM248 -288c-121 0 -203 49 -193 186c5 61 22 140 35 193l39 -2l4 -7c-10 -44 -24 -110 -29 -156c-1 -10 -2 -19 -2 -28c1 -86 62 -108 162 -108
c135 0 248 52 287 86c0 33 -16 37 -72 38h-33c-119 0 -181 26 -168 112c14 94 110 245 187 245c30 0 40 -15 104 -79c18 -17 32 -32 46 -45c58 -54 88 -69 158 -69h26c10 0 17 -17 17 -38c0 -23 -7 -40 -17 -40h-26c-81 0 -126 24 -170 63c-20 17 -39 37 -61 59
c-51 50 -68 73 -88 73c-49 0 -120 -122 -133 -169c19 -32 47 -41 152 -41c98 0 126 -33 126 -80c0 -35 -16 -78 -49 -103c-45 -44 -165 -90 -302 -90z" />
    <glyph glyph-name="uniFC14" unicode="&#xfc14;" horiz-adv-x="631" arabic-form="isolated" 
d="M437 522l-70 32v12l26 58l70 -33v-12zM531 420l-69 32v12l26 58l70 -34v-11zM383 412l-70 32v12l27 58l70 -34v-11zM55 -27c5 61 22 140 35 193l39 -2l4 -7c-10 -46 -25 -115 -30 -162c-11 -105 53 -130 161 -130c115 0 210 40 258 67l-204 76l-3 8l23 62
c77 3 129 21 159 49c-7 57 -16 120 -26 186l56 35l8 -4c12 -95 19 -150 19 -187c0 -20 -3 -37 -8 -52c-16 -49 -63 -73 -111 -86c40 -14 90 -32 108 -41c55 -29 34 -84 -7 -114c-51 -37 -153 -77 -288 -77c-121 0 -203 49 -193 186zM331 -378l-70 32v12l26 58l70 -33v-12z
M194 -386l-70 32v12l27 58l70 -33v-12z" />
    <glyph glyph-name="uniFC7B" unicode="&#xfc7b;" horiz-adv-x="799" arabic-form="final" 
d="M412 474l-70 31v13l27 58l70 -34v-11zM507 372l-70 31v13l27 57l69 -33v-11zM358 364l-70 31v13l27 57l70 -33v-11zM248 -288c-121 0 -203 49 -193 186c5 61 22 140 35 193l39 -2l4 -7c-10 -44 -24 -110 -29 -156c-1 -10 -2 -19 -2 -28c1 -86 62 -108 162 -108
c135 0 248 52 287 86c0 33 -16 37 -72 38h-33c-119 0 -181 26 -168 112c14 94 110 245 187 245c30 0 40 -15 104 -79c18 -17 32 -32 46 -45c58 -54 88 -69 158 -69h26c10 0 17 -17 17 -38c0 -23 -7 -40 -17 -40h-26c-81 0 -126 24 -170 63c-20 17 -39 37 -61 59
c-51 50 -68 73 -88 73c-49 0 -120 -122 -133 -169c19 -32 47 -41 152 -41c98 0 126 -33 126 -80c0 -35 -16 -78 -49 -103c-45 -44 -165 -90 -302 -90zM331 -451l-70 32v12l26 58l70 -33v-12zM194 -459l-70 32v12l27 58l70 -33v-12z" />
    <glyph glyph-name="uniFD01" unicode="&#xfd01;" horiz-adv-x="894" arabic-form="isolated" 
d="M55 -27c5 61 22 140 35 193l39 -2l4 -7c-10 -46 -25 -115 -30 -162c-11 -105 53 -130 161 -130c115 0 210 40 258 67l-204 76l-3 8l21 58c81 6 156 35 244 93l89 59l-189 66c-20 7 -32 10 -41 10c-10 0 -19 -6 -26 -16l-42 -62h-5l-30 36l29 50c24 42 41 68 82 68
c44 -1 174 -63 297 -96c16 -5 30 -8 45 -11l47 -10l4 -11l-26 -62l-77 15l-138 -96c-54 -38 -113 -69 -175 -85c71 -24 104 -35 119 -44c55 -29 34 -84 -7 -114c-51 -37 -153 -77 -288 -77c-121 0 -203 49 -193 186zM715 -89l-76 34v14l29 63l77 -36v-13z" />
    <glyph glyph-name="uniFD1D" unicode="&#xfd1d;" horiz-adv-x="891" arabic-form="final" 
d="M891 78c9 0 16 -17 16 -38c0 -23 -7 -40 -16 -40h-105c-97 0 -142 20 -152 112l-2 18l-33 -23c-54 -38 -113 -69 -175 -85c71 -24 104 -35 119 -44c55 -29 34 -84 -7 -114c-51 -37 -153 -77 -288 -77c-121 0 -203 49 -193 186c5 61 22 140 35 193l39 -2l4 -7
c-10 -46 -25 -115 -30 -162c-11 -105 53 -130 161 -130c115 0 210 40 258 67l-204 76l-3 8l21 58c81 6 156 35 244 93l89 59l-189 66c-20 7 -32 10 -41 10c-10 0 -19 -6 -26 -16l-42 -62h-5l-30 36l29 50c24 42 41 68 82 68c44 -1 174 -63 297 -96c16 -5 30 -8 45 -11
l47 -10l4 -11l-26 -62l-77 15l-63 -43l5 -31c8 -51 55 -51 120 -51h92zM624 -127l29 63l76 -36v-13l-29 -62l-76 34v14z" />
    <glyph glyph-name="uniFD02" unicode="&#xfd02;" horiz-adv-x="894" arabic-form="isolated" 
d="M55 -27c5 61 22 140 35 193l39 -2l4 -7c-10 -46 -25 -115 -30 -162c-11 -105 53 -130 161 -130c115 0 210 40 258 67l-204 76l-3 8l21 58c81 6 156 35 244 93l89 59l-189 66c-20 7 -32 10 -41 10c-10 0 -19 -6 -26 -16l-42 -62h-5l-30 36l29 50c24 42 41 68 82 68
c44 -1 174 -63 297 -96c16 -5 30 -8 45 -11l47 -10l4 -11l-26 -62l-77 15l-138 -96c-54 -38 -113 -69 -175 -85c71 -24 104 -35 119 -44c55 -29 34 -84 -7 -114c-51 -37 -153 -77 -288 -77c-121 0 -203 49 -193 186zM715 -89l-76 34v14l29 63l77 -36v-13zM342 -374l-70 32
v12l26 58l70 -33v-12zM205 -382l-70 32v12l27 58l70 -33v-12z" />
    <glyph glyph-name="uniFD1E" unicode="&#xfd1e;" horiz-adv-x="891" arabic-form="final" 
d="M891 78c9 0 16 -17 16 -38c0 -23 -7 -40 -16 -40h-105c-97 0 -142 20 -152 112l-2 18l-33 -23c-54 -38 -113 -69 -175 -85c71 -24 104 -35 119 -44c55 -29 34 -84 -7 -114c-51 -37 -153 -77 -288 -77c-121 0 -203 49 -193 186c5 61 22 140 35 193l39 -2l4 -7
c-10 -46 -25 -115 -30 -162c-11 -105 53 -130 161 -130c115 0 210 40 258 67l-204 76l-3 8l21 58c81 6 156 35 244 93l89 59l-189 66c-20 7 -32 10 -41 10c-10 0 -19 -6 -26 -16l-42 -62h-5l-30 36l29 50c24 42 41 68 82 68c44 -1 174 -63 297 -96c16 -5 30 -8 45 -11
l47 -10l4 -11l-26 -62l-77 15l-63 -43l5 -31c8 -51 55 -51 120 -51h92zM626 -127l30 63l76 -36v-13l-29 -62l-77 34v14zM272 -330l26 58l70 -33v-12l-26 -57l-70 32v12zM135 -338l27 58l70 -33v-12l-27 -57l-70 32v12z" />
    <glyph glyph-name="uniFCFF" unicode="&#xfcff;" horiz-adv-x="894" arabic-form="isolated" 
d="M55 -27c5 61 22 140 35 193l39 -2l4 -7c-10 -46 -25 -115 -30 -162c-11 -105 53 -130 161 -130c115 0 210 40 258 67l-204 76l-3 8l21 58c81 6 156 35 244 93l89 59l-189 66c-20 7 -32 10 -41 10c-10 0 -19 -6 -26 -16l-42 -62h-5l-30 36l29 50c24 42 41 68 82 68
c44 -1 174 -63 297 -96c16 -5 30 -8 45 -11l47 -10l4 -11l-26 -62l-77 15l-138 -96c-54 -38 -113 -69 -175 -85c71 -24 104 -35 119 -44c55 -29 34 -84 -7 -114c-51 -37 -153 -77 -288 -77c-121 0 -203 49 -193 186z" />
    <glyph glyph-name="uniFD1B" unicode="&#xfd1b;" horiz-adv-x="891" arabic-form="final" 
d="M891 78c9 0 16 -17 16 -38c0 -23 -7 -40 -16 -40h-105c-97 0 -142 20 -152 112l-2 18l-33 -23c-54 -38 -113 -69 -175 -85c71 -24 104 -35 119 -44c55 -29 34 -84 -7 -114c-51 -37 -153 -77 -288 -77c-121 0 -203 49 -193 186c5 61 22 140 35 193l39 -2l4 -7
c-10 -46 -25 -115 -30 -162c-11 -105 53 -130 161 -130c115 0 210 40 258 67l-204 76l-3 8l21 58c81 6 156 35 244 93l89 59l-189 66c-20 7 -32 10 -41 10c-10 0 -19 -6 -26 -16l-42 -62h-5l-30 36l29 50c24 42 41 68 82 68c44 -1 174 -63 297 -96c16 -5 30 -8 45 -11
l47 -10l4 -11l-26 -62l-77 15l-63 -43l5 -31c8 -51 55 -51 120 -51h92z" />
    <glyph glyph-name="uniFD00" unicode="&#xfd00;" horiz-adv-x="872" arabic-form="isolated" 
d="M55 -27c5 61 22 140 35 193l39 -2l4 -7c-10 -46 -25 -115 -30 -162c-11 -105 53 -130 161 -130c115 0 210 40 258 67l-204 76l-3 8l21 58c81 6 156 35 244 93l89 59l-189 66c-20 7 -32 10 -41 10c-10 0 -19 -6 -26 -16l-42 -62h-5l-30 36l29 50c24 42 41 68 82 68
c44 -1 174 -63 297 -96c16 -5 30 -8 45 -11l47 -10l4 -11l-26 -62l-77 15l-138 -96c-54 -38 -113 -69 -175 -85c71 -24 104 -35 119 -44c55 -29 34 -84 -7 -114c-51 -37 -153 -77 -288 -77c-121 0 -203 49 -193 186zM331 -374l-70 32v12l26 58l70 -33v-12zM194 -382l-70 32
v12l27 58l70 -33v-12z" />
    <glyph glyph-name="uniFD1C" unicode="&#xfd1c;" horiz-adv-x="872" arabic-form="final" 
d="M891 78c9 0 16 -17 16 -38c0 -23 -7 -40 -16 -40h-105c-97 0 -142 20 -152 112l-2 18l-33 -23c-54 -38 -113 -69 -175 -85c71 -24 104 -35 119 -44c55 -29 34 -84 -7 -114c-51 -37 -153 -77 -288 -77c-121 0 -203 49 -193 186c5 61 22 140 35 193l39 -2l4 -7
c-10 -46 -25 -115 -30 -162c-11 -105 53 -130 161 -130c115 0 210 40 258 67l-204 76l-3 8l21 58c81 6 156 35 244 93l89 59l-189 66c-20 7 -32 10 -41 10c-10 0 -19 -6 -26 -16l-42 -62h-5l-30 36l29 50c24 42 41 68 82 68c44 -1 174 -63 297 -96c16 -5 30 -8 45 -11
l47 -10l4 -11l-26 -62l-77 15l-63 -43l5 -31c8 -51 55 -51 120 -51h92zM261 -330l26 58l70 -33v-12l-26 -57l-70 32v12zM124 -338l27 58l70 -33v-12l-27 -57l-70 32v12z" />
    <glyph glyph-name="uniFD03" unicode="&#xfd03;" horiz-adv-x="894" arabic-form="isolated" 
d="M451 455l-76 34v14l29 63l76 -36v-13zM55 -27c5 61 22 140 35 193l39 -2l4 -7c-10 -46 -25 -115 -30 -162c-11 -105 53 -130 161 -130c115 0 210 40 258 67l-204 76l-3 8l21 58c81 6 156 35 244 93l89 59l-189 66c-20 7 -32 10 -41 10c-10 0 -19 -6 -26 -16l-42 -62h-5
l-30 36l29 50c24 42 41 68 82 68c44 -1 174 -63 297 -96c16 -5 30 -8 45 -11l47 -10l4 -11l-26 -62l-77 15l-138 -96c-54 -38 -113 -69 -175 -85c71 -24 104 -35 119 -44c55 -29 34 -84 -7 -114c-51 -37 -153 -77 -288 -77c-121 0 -203 49 -193 186z" />
    <glyph glyph-name="uniFD1F" unicode="&#xfd1f;" horiz-adv-x="891" arabic-form="final" 
d="M480 517l-29 -62l-76 34v14l29 63l76 -36v-13zM891 78c9 0 16 -17 16 -38c0 -23 -7 -40 -16 -40h-105c-97 0 -142 20 -152 112l-2 18l-33 -23c-54 -38 -113 -69 -175 -85c71 -24 104 -35 119 -44c55 -29 34 -84 -7 -114c-51 -37 -153 -77 -288 -77
c-121 0 -203 49 -193 186c5 61 22 140 35 193l39 -2l4 -7c-10 -46 -25 -115 -30 -162c-11 -105 53 -130 161 -130c115 0 210 40 258 67l-204 76l-3 8l21 58c81 6 156 35 244 93l89 59l-189 66c-20 7 -32 10 -41 10c-10 0 -19 -6 -26 -16l-42 -62h-5l-30 36l29 50
c24 42 41 68 82 68c44 -1 174 -63 297 -96c16 -5 30 -8 45 -11l47 -10l4 -11l-26 -62l-77 15l-63 -43l5 -31c8 -51 55 -51 120 -51h92z" />
    <glyph glyph-name="uniFD04" unicode="&#xfd04;" horiz-adv-x="894" arabic-form="isolated" 
d="M450 455l-77 34v14l29 63l77 -36v-13zM55 -27c5 61 22 140 35 193l39 -2l4 -7c-10 -46 -25 -115 -30 -162c-11 -105 53 -130 161 -130c115 0 210 40 258 67l-204 76l-3 8l21 58c81 6 156 35 244 93l89 59l-189 66c-20 7 -32 10 -41 10c-10 0 -19 -6 -26 -16l-42 -62h-5
l-30 36l29 50c24 42 41 68 82 68c44 -1 174 -63 297 -96c16 -5 30 -8 45 -11l47 -10l4 -11l-26 -62l-77 15l-138 -96c-54 -38 -113 -69 -175 -85c71 -24 104 -35 119 -44c55 -29 34 -84 -7 -114c-51 -37 -153 -77 -288 -77c-121 0 -203 49 -193 186zM331 -374l-70 32v12
l26 58l70 -33v-12zM194 -382l-70 32v12l27 58l70 -33v-12z" />
    <glyph glyph-name="uniFD20" unicode="&#xfd20;" horiz-adv-x="891" arabic-form="final" 
d="M480 517l-29 -62l-76 34v14l29 63l76 -36v-13zM891 78c9 0 16 -17 16 -38c0 -23 -7 -40 -16 -40h-105c-97 0 -142 20 -152 112l-2 18l-33 -23c-54 -38 -113 -69 -175 -85c71 -24 104 -35 119 -44c55 -29 34 -84 -7 -114c-51 -37 -153 -77 -288 -77
c-121 0 -203 49 -193 186c5 61 22 140 35 193l39 -2l4 -7c-10 -46 -25 -115 -30 -162c-11 -105 53 -130 161 -130c115 0 210 40 258 67l-204 76l-3 8l21 58c81 6 156 35 244 93l89 59l-189 66c-20 7 -32 10 -41 10c-10 0 -19 -6 -26 -16l-42 -62h-5l-30 36l29 50
c24 42 41 68 82 68c44 -1 174 -63 297 -96c16 -5 30 -8 45 -11l47 -10l4 -11l-26 -62l-77 15l-63 -43l5 -31c8 -51 55 -51 120 -51h92zM261 -330l26 58l70 -33v-12l-26 -57l-70 32v12zM124 -338l27 58l70 -33v-12l-27 -57l-70 32v12z" />
    <glyph glyph-name="uniFD0E" unicode="&#xfd0e;" horiz-adv-x="996" arabic-form="isolated" 
d="M61 -233c-28 -3 -94 16 -116 27l-15 48l4 5c25 -5 73 -10 95 -8c104 8 162 102 176 164c-2 29 -8 72 -18 138l28 49l204 51l28 -68c26 -63 43 -95 121 -95c96 0 123 29 124 79l2 61l51 1v-120c19 -13 50 -21 79 -21c23 0 47 7 62 20l-29 202l57 37l7 -4
c7 -57 13 -103 17 -142c2 -20 4 -38 4 -54s-2 -32 -6 -45c-16 -61 -70 -92 -128 -92c-35 0 -74 11 -96 32c-5 4 -8 8 -11 12c-25 -26 -75 -44 -134 -44c-85 0 -127 34 -155 101l-30 69l-132 -35c6 -48 9 -80 9 -103c2 -140 -113 -257 -198 -265z" />
    <glyph glyph-name="uniFD2A" unicode="&#xfd2a;" horiz-adv-x="1089" arabic-form="final" 
d="M61 -233c-28 -3 -94 16 -116 27l-15 48l4 5c25 -5 73 -10 95 -8c104 8 162 102 176 164c-2 29 -8 72 -18 138l28 49l204 51l28 -68c26 -63 51 -95 121 -95c96 0 123 29 124 79l2 61l51 1v-120c19 -13 49 -21 78 -21c24 0 48 7 63 20l-23 163l42 36l8 -4l16 -112
c11 -80 45 -103 127 -103h33c9 0 16 -17 16 -38c0 -23 -7 -40 -16 -40h-33c-74 0 -113 20 -136 57c-21 -35 -59 -57 -112 -57c-36 0 -76 11 -99 34c-2 3 -5 6 -8 10c-25 -26 -75 -44 -134 -44c-78 0 -127 34 -155 101l-30 69l-132 -35c6 -48 9 -80 9 -103
c2 -140 -113 -257 -198 -265z" />
    <glyph glyph-name="uniFCE7" unicode="&#xfce7;" horiz-adv-x="1118" arabic-form="medial" 
d="M308 -116l-67 66c-46 46 -72 50 -119 50h-122c-9 0 -17 17 -17 40c0 21 8 38 17 38h110c20 0 36 -1 51 -4l-3 11c-1 5 -1 10 0 15c0 3 1 8 4 14c15 51 87 157 140 157c28 0 40 -14 105 -79c92 -92 117 -114 190 -114c96 0 123 29 124 79l2 61l51 1v-120
c19 -13 49 -21 78 -21c24 0 48 7 63 20l-23 163l42 36l8 -4c5 -37 11 -73 16 -113c11 -80 46 -102 127 -102h33c9 0 16 -17 16 -38c0 -23 -7 -40 -16 -40h-33c-74 0 -113 20 -136 57l-7 -10c-22 -29 -58 -47 -105 -47c-35 0 -75 11 -97 33c-4 4 -7 7 -10 11
c-25 -26 -75 -44 -134 -44c-105 0 -148 54 -217 122c-51 50 -75 73 -88 73c-23 0 -79 -73 -89 -101c9 -18 40 -48 76 -83l79 -76l-39 -51h-10z" />
    <glyph glyph-name="uniFCB0" unicode="&#xfcb0;" horiz-adv-x="1025" arabic-form="initial" 
d="M308 -116l-67 66c-46 46 -72 50 -119 50h-122c-9 0 -17 17 -17 40c0 21 8 38 17 38h110c20 0 36 -1 51 -4c-1 3 -2 4 -3 6c-1 7 0 18 0 21c2 10 6 22 12 36c23 50 85 134 132 134c28 0 40 -14 105 -79c92 -92 117 -114 190 -114c96 0 123 29 124 79l2 61l51 1v-120
c19 -13 49 -21 78 -21c24 0 48 6 63 20l-29 202l57 37l7 -4c6 -51 12 -95 16 -133c3 -24 5 -45 5 -63c0 -28 -6 -52 -16 -72c-23 -43 -68 -65 -118 -65c-33 0 -71 10 -94 30c-5 4 -9 9 -13 14c-25 -26 -75 -44 -134 -44c-105 0 -148 54 -217 122c-51 50 -75 73 -88 73
c-23 0 -79 -73 -89 -101c9 -18 40 -48 76 -83l79 -76l-39 -51h-10z" />
    <glyph glyph-name="uniFCE8" unicode="&#xfce8;" horiz-adv-x="1252" arabic-form="medial" 
d="M223 -238c-83 81 -123 163 -127 238h-96c-9 0 -17 17 -17 40c0 21 8 38 17 38h106c18 97 43 182 75 287l61 42l58 -63c81 -89 83 -130 83 -164c0 -26 -2 -52 -19 -76c-38 -54 -100 -90 -209 -100c7 -65 50 -124 102 -173l55 97c71 126 121 198 184 292h60
c49 -94 84 -142 176 -142c95 0 122 29 124 79l1 61l51 1v-120c19 -13 50 -21 79 -21c24 0 47 7 62 20l-23 163l42 36l9 -4c5 -37 10 -73 15 -113c11 -80 47 -102 127 -102h33c9 0 17 -17 17 -38c0 -23 -8 -40 -17 -40h-33c-74 0 -113 20 -135 57l-6 -9
c-22 -30 -60 -48 -107 -48c-37 0 -80 12 -101 38c-2 2 -4 4 -5 6c-26 -26 -76 -44 -135 -44c-102 0 -157 54 -211 144c-48 -67 -118 -176 -159 -248l-76 -134h-61zM161 79c106 7 157 47 176 82c0 31 -41 88 -108 162c-29 -88 -54 -161 -68 -244z" />
    <glyph glyph-name="uniFD31" unicode="&#xfd31;" horiz-adv-x="1159" arabic-form="initial" 
d="M223 -238c-83 81 -123 163 -127 239l-96 -1c-9 0 -17 17 -17 40c0 21 8 38 17 38h106c18 97 43 182 75 287l61 42l58 -63c74 -81 83 -127 83 -164c0 -25 -2 -51 -18 -74c-37 -55 -100 -92 -210 -102c7 -65 50 -124 102 -173l55 97c71 126 121 198 184 292h60
c49 -94 84 -142 176 -142c95 0 122 29 124 79l1 61l51 1v-120c19 -13 49 -21 78 -21c25 0 48 6 63 20l-28 202l56 37l7 -4c11 -88 18 -141 20 -184c0 -17 -1 -34 -4 -49c-4 -17 -10 -33 -18 -45c-23 -37 -65 -55 -110 -55c-32 0 -67 8 -89 26c-8 5 -14 11 -18 18
c-26 -26 -76 -44 -135 -44c-102 0 -157 54 -211 144c-48 -67 -118 -176 -159 -248l-76 -134h-61zM161 79c106 7 156 47 175 82c0 31 -40 90 -107 162c-29 -88 -54 -161 -68 -244z" />
    <glyph glyph-name="uniFCFB" unicode="&#xfcfb;" horiz-adv-x="1196" arabic-form="isolated" 
d="M248 -288c-121 0 -203 49 -193 186c5 61 22 140 35 193l39 -2l4 -7c-10 -46 -25 -115 -30 -162c-11 -105 53 -130 161 -130c135 0 248 52 287 86c0 31 -13 37 -61 38h-44c-119 0 -181 26 -168 112c14 94 110 245 187 245c30 0 40 -15 104 -79l43 -42
c60 -57 89 -72 157 -72c95 0 122 29 124 79l1 61l51 1v-120c19 -13 50 -21 79 -21c24 0 47 7 62 20l-29 202l57 37l7 -4c7 -50 12 -93 16 -130c2 -27 5 -47 5 -66c0 -18 -3 -35 -7 -50c-18 -57 -69 -87 -127 -87c-35 0 -76 11 -98 34c-3 3 -6 6 -9 10
c-25 -26 -75 -44 -134 -44c-89 0 -133 32 -183 81c-14 13 -27 26 -42 41c-51 50 -68 73 -88 73c-49 0 -120 -122 -133 -169c19 -32 47 -41 152 -41c99 0 126 -33 126 -80c0 -35 -16 -78 -49 -103c-45 -44 -165 -90 -302 -90z" />
    <glyph glyph-name="uniFD17" unicode="&#xfd17;" horiz-adv-x="1289" arabic-form="final" 
d="M248 -288c-121 0 -203 49 -193 186c5 61 22 140 35 193l39 -2l4 -7c-10 -46 -25 -115 -30 -162c-11 -105 53 -130 161 -130c135 0 248 52 287 86c0 34 -17 38 -77 38h-28c-119 0 -181 26 -168 112c14 94 110 245 187 245c30 0 40 -15 104 -79c11 -10 20 -19 28 -28
c70 -68 98 -86 172 -86c95 0 122 29 124 79l1 61l51 1v-120c19 -13 50 -21 79 -21c24 0 47 7 62 20l-23 163l42 36l8 -4c5 -37 11 -73 16 -113c11 -80 47 -102 127 -102h33c9 0 16 -17 16 -38c0 -23 -7 -40 -16 -40h-33c-74 0 -113 20 -136 57c-2 -3 -4 -7 -7 -9
c-21 -30 -59 -48 -105 -48c-33 0 -70 10 -92 29c-6 5 -11 10 -15 15c-25 -26 -75 -44 -134 -44c-97 0 -140 37 -198 95l-27 27c-51 50 -68 73 -88 73c-49 0 -120 -122 -133 -169c19 -32 47 -41 152 -41c98 0 126 -33 126 -80c0 -35 -16 -78 -49 -103
c-45 -44 -165 -90 -302 -90z" />
    <glyph glyph-name="uniFCFC" unicode="&#xfcfc;" horiz-adv-x="1196" arabic-form="isolated" 
d="M248 -288c-121 0 -203 49 -193 186c5 61 22 140 35 193l39 -2l4 -7c-10 -46 -25 -115 -30 -162c-11 -105 53 -130 161 -130c135 0 248 52 287 86c0 31 -13 37 -61 38h-44c-119 0 -181 26 -168 112c14 94 110 245 187 245c30 0 40 -15 104 -79l43 -42
c60 -57 89 -72 157 -72c95 0 122 29 124 79l1 61l51 1v-120c19 -13 50 -21 79 -21c24 0 47 7 62 20l-29 202l57 37l7 -4c7 -50 12 -93 16 -130c2 -27 5 -47 5 -66c0 -18 -3 -35 -7 -50c-18 -57 -69 -87 -127 -87c-35 0 -76 11 -98 34c-3 3 -6 6 -9 10
c-25 -26 -75 -44 -134 -44c-89 0 -133 32 -183 81c-14 13 -27 26 -42 41c-51 50 -68 73 -88 73c-49 0 -120 -122 -133 -169c19 -32 47 -41 152 -41c99 0 126 -33 126 -80c0 -35 -16 -78 -49 -103c-45 -44 -165 -90 -302 -90zM375 -448l-70 32v12l27 58l70 -33v-12zM239 -456
l-70 32v12l26 58l70 -33v-12z" />
    <glyph glyph-name="uniFD18" unicode="&#xfd18;" horiz-adv-x="1289" arabic-form="final" 
d="M248 -288c-121 0 -203 49 -193 186c5 61 22 140 35 193l39 -2l4 -7c-10 -46 -25 -115 -30 -162c-11 -105 53 -130 161 -130c135 0 248 52 287 86c0 34 -17 38 -77 38h-28c-119 0 -181 26 -168 112c14 94 110 245 187 245c30 0 40 -15 104 -79c11 -10 20 -19 28 -28
c70 -68 98 -86 172 -86c95 0 122 29 124 79l1 61l51 1v-120c19 -13 50 -21 79 -21c24 0 47 7 62 20l-23 163l42 36l8 -4c5 -37 11 -73 16 -113c11 -80 47 -102 127 -102h33c9 0 16 -17 16 -38c0 -23 -7 -40 -16 -40h-33c-74 0 -113 20 -136 57c-2 -3 -4 -7 -7 -9
c-21 -30 -59 -48 -105 -48c-33 0 -70 10 -92 29c-6 5 -11 10 -15 15c-25 -26 -75 -44 -134 -44c-97 0 -140 37 -198 95l-27 27c-51 50 -68 73 -88 73c-49 0 -120 -122 -133 -169c19 -32 47 -41 152 -41c98 0 126 -33 126 -80c0 -35 -16 -78 -49 -103
c-45 -44 -165 -90 -302 -90zM375 -448l-70 32v12l27 58l70 -33v-12zM239 -456l-70 32v12l26 58l70 -33v-12z" />
    <glyph glyph-name="uniFD0D" unicode="&#xfd0d;" horiz-adv-x="996" arabic-form="isolated" 
d="M702 447l-70 32v12l27 58l69 -33v-12zM797 345l-70 32v12l26 58l70 -34v-11zM648 337l-70 32v12l27 58l70 -34v-11zM61 -233c-28 -3 -94 16 -116 27l-15 48l4 5c25 -5 73 -10 95 -8c104 8 162 102 176 164c-2 29 -8 72 -18 138l28 49l204 51l28 -68
c26 -63 43 -95 121 -95c96 0 123 29 124 79l2 61l51 1v-120c19 -13 50 -21 79 -21c23 0 47 7 62 20l-29 202l57 37l7 -4c7 -57 13 -103 17 -142c2 -20 4 -38 4 -54s-2 -32 -6 -45c-16 -61 -70 -92 -128 -92c-35 0 -74 11 -96 32c-5 4 -8 8 -11 12c-25 -26 -75 -44 -134 -44
c-85 0 -127 34 -155 101l-30 69l-132 -35c6 -48 9 -80 9 -103c2 -140 -113 -257 -198 -265z" />
    <glyph glyph-name="uniFD29" unicode="&#xfd29;" horiz-adv-x="1089" arabic-form="final" 
d="M702 447l-70 32v12l27 58l69 -33v-12zM797 345l-70 32v12l26 58l70 -34v-11zM648 337l-70 32v12l27 58l70 -34v-11zM61 -233c-28 -3 -94 16 -116 27l-15 48l4 5c25 -5 73 -10 95 -8c104 8 162 102 176 164c-2 29 -8 72 -18 138l28 49l204 51l28 -68
c26 -63 51 -95 121 -95c96 0 123 29 124 79l2 61l51 1v-120c19 -13 49 -21 78 -21c24 0 48 7 63 20l-23 163l42 36l8 -4l16 -112c11 -80 45 -103 127 -103h33c9 0 16 -17 16 -38c0 -23 -7 -40 -16 -40h-33c-74 0 -113 20 -136 57c-21 -35 -59 -57 -112 -57
c-36 0 -76 11 -99 34c-2 3 -5 6 -8 10c-25 -26 -75 -44 -134 -44c-78 0 -127 34 -155 101l-30 69l-132 -35c6 -48 9 -80 9 -103c2 -140 -113 -257 -198 -265z" />
    <glyph glyph-name="uniFCE9" unicode="&#xfce9;" horiz-adv-x="1118" arabic-form="medial" 
d="M725 450l-70 31v13l26 57l70 -33v-11zM819 347l-70 32v12l27 58l70 -33v-12zM671 339l-70 32v12l27 58l69 -33v-12zM308 -116l-67 66c-46 46 -72 50 -119 50h-122c-9 0 -17 17 -17 40c0 21 8 38 17 38h110c20 0 36 -1 51 -4l-3 11c-1 5 -1 10 0 15c0 3 1 8 4 14
c15 51 87 157 140 157c28 0 40 -14 105 -79c92 -92 117 -114 190 -114c96 0 123 29 124 79l2 61l51 1v-120c19 -13 49 -21 78 -21c24 0 48 7 63 20l-23 163l42 36l8 -4c5 -37 11 -73 16 -113c11 -80 46 -102 127 -102h33c9 0 16 -17 16 -38c0 -23 -7 -40 -16 -40h-33
c-74 0 -113 20 -136 57l-7 -10c-22 -29 -58 -47 -105 -47c-35 0 -75 11 -97 33c-4 4 -7 7 -10 11c-25 -26 -75 -44 -134 -44c-105 0 -148 54 -217 122c-51 50 -75 73 -88 73c-23 0 -79 -73 -89 -101c9 -18 40 -48 76 -83l79 -76l-39 -51h-10z" />
    <glyph glyph-name="uniFD30" unicode="&#xfd30;" horiz-adv-x="1025" arabic-form="initial" 
d="M725 450l-70 31v13l26 57l70 -33v-11zM819 347l-70 32v12l27 58l70 -33v-12zM671 339l-70 32v12l27 58l69 -33v-12zM308 -116l-67 66c-46 46 -72 50 -119 50h-122c-9 0 -17 17 -17 40c0 21 8 38 17 38h110c20 0 36 -1 51 -4c-1 3 -2 4 -3 6c-1 7 0 18 0 21
c2 10 6 22 12 36c23 50 85 134 132 134c28 0 40 -14 105 -79c92 -92 117 -114 190 -114c96 0 123 29 124 79l2 61l51 1v-120c19 -13 49 -21 78 -21c24 0 48 6 63 20l-29 202l57 37l7 -4c6 -51 12 -95 16 -133c3 -24 5 -45 5 -63c0 -28 -6 -52 -16 -72
c-23 -43 -68 -65 -118 -65c-33 0 -71 10 -94 30c-5 4 -9 9 -13 14c-25 -26 -75 -44 -134 -44c-105 0 -148 54 -217 122c-51 50 -75 73 -88 73c-23 0 -79 -73 -89 -101c9 -18 40 -48 76 -83l79 -76l-39 -51h-10z" />
    <glyph glyph-name="uniFCEA" unicode="&#xfcea;" horiz-adv-x="1252" arabic-form="medial" 
d="M858 447l-70 32v12l27 58l69 -33v-12zM953 345l-70 32v12l26 58l70 -34v-11zM804 337l-70 32v12l27 58l70 -34v-11zM223 -238c-83 81 -123 163 -127 238h-96c-9 0 -17 17 -17 40c0 21 8 38 17 38h106c18 97 43 182 75 287l61 42l58 -63c81 -89 83 -130 83 -164
c0 -26 -2 -52 -19 -76c-38 -54 -100 -90 -209 -100c7 -65 50 -124 102 -173l55 97c71 126 121 198 184 292h60c49 -94 84 -142 176 -142c95 0 122 29 124 79l1 61l51 1v-120c19 -13 50 -21 79 -21c24 0 47 7 62 20l-23 163l42 36l9 -4c5 -37 10 -73 15 -113
c11 -80 47 -102 127 -102h33c9 0 17 -17 17 -38c0 -23 -8 -40 -17 -40h-33c-74 0 -113 20 -135 57l-6 -9c-22 -30 -60 -48 -107 -48c-37 0 -80 12 -101 38c-2 2 -4 4 -5 6c-26 -26 -76 -44 -135 -44c-102 0 -157 54 -211 144c-48 -67 -118 -176 -159 -248l-76 -134h-61z
M161 79c106 7 157 47 176 82c0 31 -41 88 -108 162c-29 -88 -54 -161 -68 -244z" />
    <glyph glyph-name="uniFD32" unicode="&#xfd32;" horiz-adv-x="1159" arabic-form="initial" 
d="M842 447l-70 32v12l27 58l70 -33v-12zM937 345l-70 32v12l27 58l70 -34v-11zM788 337l-69 32v12l26 58l70 -34v-11zM223 -238c-83 81 -123 163 -127 239l-96 -1c-9 0 -17 17 -17 40c0 21 8 38 17 38h106c18 97 43 182 75 287l61 42l58 -63c74 -81 83 -127 83 -164
c0 -25 -2 -51 -18 -74c-37 -55 -100 -92 -210 -102c7 -65 50 -124 102 -173l55 97c71 126 121 198 184 292h60c49 -94 84 -142 176 -142c95 0 122 29 124 79l1 61l51 1v-120c19 -13 49 -21 78 -21c25 0 48 6 63 20l-28 202l56 37l7 -4c11 -88 18 -141 20 -184
c0 -17 -1 -34 -4 -49c-4 -17 -10 -33 -18 -45c-23 -37 -65 -55 -110 -55c-32 0 -67 8 -89 26c-8 5 -14 11 -18 18c-26 -26 -76 -44 -135 -44c-102 0 -157 54 -211 144c-48 -67 -118 -176 -159 -248l-76 -134h-61zM161 79c106 7 156 47 175 82c0 31 -40 90 -107 162
c-29 -88 -54 -161 -68 -244z" />
    <glyph glyph-name="uniFCFD" unicode="&#xfcfd;" horiz-adv-x="1196" arabic-form="isolated" 
d="M889 440l-69 31v13l26 57l70 -33v-12zM984 337l-70 32v12l27 58l70 -33v-12zM836 329l-70 32v12l26 58l70 -33v-12zM248 -288c-121 0 -203 49 -193 186c5 61 22 140 35 193l39 -2l4 -7c-10 -46 -25 -115 -30 -162c-11 -105 53 -130 161 -130c135 0 248 52 287 86
c0 31 -13 37 -61 38h-44c-119 0 -181 26 -168 112c14 94 110 245 187 245c30 0 40 -15 104 -79l43 -42c60 -57 89 -72 157 -72c95 0 122 29 124 79l1 61l51 1v-120c19 -13 50 -21 79 -21c24 0 47 7 62 20l-29 202l57 37l7 -4c7 -50 12 -93 16 -130c2 -27 5 -47 5 -66
c0 -18 -3 -35 -7 -50c-18 -57 -69 -87 -127 -87c-35 0 -76 11 -98 34c-3 3 -6 6 -9 10c-25 -26 -75 -44 -134 -44c-89 0 -133 32 -183 81c-14 13 -27 26 -42 41c-51 50 -68 73 -88 73c-49 0 -120 -122 -133 -169c19 -32 47 -41 152 -41c99 0 126 -33 126 -80
c0 -35 -16 -78 -49 -103c-45 -44 -165 -90 -302 -90z" />
    <glyph glyph-name="uniFD19" unicode="&#xfd19;" horiz-adv-x="1289" arabic-form="final" 
d="M890 440l-70 31v13l27 57l70 -33v-12zM985 337l-70 32v12l27 58l70 -33v-12zM836 329l-70 32v12l27 58l70 -33v-12zM248 -288c-121 0 -203 49 -193 186c5 61 22 140 35 193l39 -2l4 -7c-10 -46 -25 -115 -30 -162c-11 -105 53 -130 161 -130c135 0 248 52 287 86
c0 34 -17 38 -77 38h-28c-119 0 -181 26 -168 112c14 94 110 245 187 245c30 0 40 -15 104 -79c11 -10 20 -19 28 -28c70 -68 98 -86 172 -86c95 0 122 29 124 79l1 61l51 1v-120c19 -13 50 -21 79 -21c24 0 47 7 62 20l-23 163l42 36l8 -4c5 -37 11 -73 16 -113
c11 -80 47 -102 127 -102h33c9 0 16 -17 16 -38c0 -23 -7 -40 -16 -40h-33c-74 0 -113 20 -136 57c-2 -3 -4 -7 -7 -9c-21 -30 -59 -48 -105 -48c-33 0 -70 10 -92 29c-6 5 -11 10 -15 15c-25 -26 -75 -44 -134 -44c-97 0 -140 37 -198 95l-27 27c-51 50 -68 73 -88 73
c-49 0 -120 -122 -133 -169c19 -32 47 -41 152 -41c98 0 126 -33 126 -80c0 -35 -16 -78 -49 -103c-45 -44 -165 -90 -302 -90z" />
    <glyph glyph-name="uniFCFE" unicode="&#xfcfe;" horiz-adv-x="1196" arabic-form="isolated" 
d="M848 448l-70 32v12l27 58l70 -34v-11zM943 346l-70 31v13l27 58l70 -34v-11zM794 338l-70 31v13l27 58l70 -34v-11zM248 -288c-121 0 -203 49 -193 186c5 61 22 140 35 193l39 -2l4 -7c-10 -46 -25 -115 -30 -162c-11 -105 53 -130 161 -130c135 0 248 52 287 86
c0 31 -13 37 -61 38h-44c-119 0 -181 26 -168 112c14 94 110 245 187 245c30 0 40 -15 104 -79l43 -42c60 -57 89 -72 157 -72c95 0 122 29 124 79l1 61l51 1v-120c19 -13 50 -21 79 -21c24 0 47 7 62 20l-29 202l57 37l7 -4c7 -50 12 -93 16 -130c2 -27 5 -47 5 -66
c0 -18 -3 -35 -7 -50c-18 -57 -69 -87 -127 -87c-35 0 -76 11 -98 34c-3 3 -6 6 -9 10c-25 -26 -75 -44 -134 -44c-89 0 -133 32 -183 81c-14 13 -27 26 -42 41c-51 50 -68 73 -88 73c-49 0 -120 -122 -133 -169c19 -32 47 -41 152 -41c99 0 126 -33 126 -80
c0 -35 -16 -78 -49 -103c-45 -44 -165 -90 -302 -90zM331 -448l-70 32v12l26 58l70 -33v-12zM194 -456l-70 32v12l27 58l70 -33v-12z" />
    </font>
</defs>
</svg>
