<?xml version="1.0" standalone="no"?>
<!DOCTYPE svg PUBLIC "-//W3C//DTD SVG 1.1//EN" "http://www.w3.org/Graphics/SVG/1.1/DTD/svg11.dtd" >
<svg xmlns="http://www.w3.org/2000/svg" xmlns:xlink="http://www.w3.org/1999/xlink" version="1.1">
<metadata>
Created by FontForge 20170812 at Fri Nov 12 22:00:16 2021
 By www-data
Copyright \(c\) 2021 by Omid Emamian &#38; Kamyab Jafari. All rights reserved.
</metadata>
<defs>
<font id="Aria-ExtraBold" horiz-adv-x="0" >
  <font-face 
    font-family="Aria UltraBold"
    font-weight="800"
    font-stretch="semi-expanded"
    units-per-em="1000"
    panose-1="0 0 5 0 0 0 0 0 0 0"
    ascent="800"
    descent="-200"
    x-height="472"
    cap-height="646"
    bbox="-190 -593 2009 2363"
    underline-thickness="212"
    underline-position="-492"
    stemh="212"
    stemv="132"
    unicode-range="U+0020-FEFF"
  />
<missing-glyph horiz-adv-x="481" 
 />
    <glyph glyph-name="uniFEFB" unicode="&#xfedf;&#xfe8e;" horiz-adv-x="508" arabic-form="isolated" 
d="M38 180l7 9c25 0 48 1 70 1l-59 395l131 60l40 -317c3 -32 2 -57 -6 -84l-15 -46c56 6 102 16 137 27l-5 452l133 35v-492c0 -214 -253 -242 -408 -242z" />
    <glyph glyph-name="uniFEFC" unicode="&#xfee0;&#xfe8e;" horiz-adv-x="568" arabic-form="final" 
d="M63 -22l-25 202l7 9c25 0 48 1 70 2l-59 394l131 60l40 -317c3 -32 2 -57 -6 -84l-15 -46c57 6 103 16 137 28v40l-5 411l133 35v-426c0 -55 19 -74 69 -74h28c18 0 32 -48 32 -106c0 -59 -14 -106 -32 -106h-30c-70 0 -118 19 -142 85c-61 -98 -233 -107 -333 -107z" />
    <glyph glyph-name="uniFEF7" unicode="&#xfedf;&#xfe84;" horiz-adv-x="508" arabic-form="isolated" 
d="M-13 640l20 93l30 13c-15 16 -23 39 -23 62c0 63 47 116 112 121c12 0 25 -1 38 -5c9 -1 17 -3 25 -5l1 -80c-8 2 -16 3 -24 4c-12 1 -23 2 -32 2c-20 0 -36 -2 -50 -5c-1 -7 -1 -12 -1 -16c2 -24 17 -37 39 -37c7 0 16 1 24 3l91 22l5 -4l-19 -93l-24 -8
c-73 -24 -146 -50 -206 -72zM38 180l7 9c25 0 48 1 70 1l-59 395l131 60l40 -317c3 -32 2 -57 -6 -84l-15 -46c56 6 102 16 137 27l-5 452l133 35v-492c0 -214 -253 -242 -408 -242z" />
    <glyph glyph-name="uniFEF8" unicode="&#xfee0;&#xfe84;" horiz-adv-x="568" arabic-form="final" 
d="M-13 640l20 93l30 13c-15 16 -23 39 -23 62c0 63 47 116 112 121c12 0 25 -1 38 -5c9 -1 17 -3 25 -5l1 -80c-8 2 -16 3 -24 4c-12 1 -23 2 -32 2c-20 0 -36 -2 -50 -5c-1 -7 -1 -12 -1 -16c2 -24 17 -37 39 -37c7 0 16 1 24 3l91 22l5 -4l-19 -93l-24 -8
c-73 -24 -146 -50 -206 -72zM63 -22l-25 202l7 9c25 0 48 1 70 2l-59 394l131 60l40 -317c3 -32 2 -57 -6 -84l-15 -46c57 6 103 16 137 28v40l-5 411l133 35v-426c0 -55 19 -74 69 -74h28c18 0 32 -48 32 -106c0 -59 -14 -106 -32 -106h-30c-70 0 -118 19 -142 85
c-61 -98 -233 -107 -333 -107z" />
    <glyph glyph-name="uniFEF9" unicode="&#xfedf;&#xfe88;" horiz-adv-x="508" arabic-form="isolated" 
d="M38 180l7 9c25 0 48 1 70 1l-59 395l131 60l40 -317c3 -32 2 -57 -6 -84l-15 -46c56 6 102 16 137 27l-5 452l133 35v-492c0 -214 -253 -242 -408 -242zM59 -343l19 92l30 13c-14 16 -22 40 -22 63c0 63 47 116 111 121c13 0 26 -2 39 -5l25 -6v-80c-8 2 -16 3 -24 4
c-12 1 -22 2 -32 2c-20 0 -35 -2 -50 -5c-1 -6 -1 -11 0 -16c1 -24 16 -37 38 -37c8 0 16 1 24 3l91 23l5 -5l-18 -92l-25 -8c-73 -24 -146 -51 -206 -72z" />
    <glyph glyph-name="uniFEFA" unicode="&#xfee0;&#xfe88;" horiz-adv-x="568" arabic-form="final" 
d="M63 -22l-25 202l7 9c25 0 48 1 70 2l-59 394l131 60l40 -317c3 -32 2 -57 -6 -84l-15 -46c57 6 103 16 137 28v40l-5 411l133 35v-426c0 -55 19 -74 69 -74h28c18 0 32 -48 32 -106c0 -59 -14 -106 -32 -106h-30c-70 0 -118 19 -142 85c-61 -98 -233 -107 -333 -107z
M59 -343l19 92l30 13c-14 16 -22 40 -22 63c0 63 47 116 111 121c13 0 26 -2 39 -5l25 -6v-80c-8 2 -16 3 -24 4c-12 1 -22 2 -32 2c-20 0 -35 -2 -50 -5c-1 -6 -1 -11 0 -16c1 -24 16 -37 38 -37c8 0 16 1 24 3l91 23l5 -5l-18 -92l-25 -8c-73 -24 -146 -51 -206 -72z" />
    <glyph glyph-name="uniFEF5" unicode="&#xfedf;&#xfe82;" horiz-adv-x="508" arabic-form="isolated" 
d="M-14 647l-66 45l11 33c16 45 42 76 84 76c59 0 90 -38 267 1l6 -10l-36 -94c-121 -31 -186 -12 -234 1l-21 -48zM38 180l7 9c25 0 48 1 70 1l-59 395l131 60l40 -317c3 -32 2 -57 -6 -84l-15 -46c56 6 102 16 137 27l-5 452l133 35v-492c0 -214 -253 -242 -408 -242z" />
    <glyph glyph-name="uniFEF6" unicode="&#xfee0;&#xfe82;" horiz-adv-x="568" arabic-form="final" 
d="M-14 647l-66 45l11 33c16 45 42 76 84 76c59 0 90 -38 267 1l6 -10l-36 -94c-121 -31 -186 -12 -234 1l-21 -48zM63 -22l-25 202l7 9c25 0 48 1 70 2l-59 394l131 60l40 -317c3 -32 2 -57 -6 -84l-15 -46c57 6 103 16 137 28v40l-5 411l133 35v-426c0 -55 19 -74 69 -74
h28c18 0 32 -48 32 -106c0 -59 -14 -106 -32 -106h-30c-70 0 -118 19 -142 85c-61 -98 -233 -107 -333 -107z" />
    <glyph glyph-name="uniFEDFFB51" unicode="&#xfedf;&#xfb51;" horiz-adv-x="508" 
d="M-18 655l-8 2l-31 67l122 146c37 44 69 61 115 61c68 0 117 -74 117 -141c0 -76 -53 -106 -160 -106c-48 0 -83 9 -108 22zM147 773c40 0 67 4 84 8c0 9 -2 18 -5 25c-10 20 -28 37 -53 37c-16 0 -28 -2 -39 -5l-51 -59c15 -4 39 -6 64 -6zM38 180l7 9c25 0 48 1 70 1
l-59 395l131 60l40 -317c3 -32 2 -57 -6 -84l-15 -46c56 6 102 16 137 27l-5 452l133 35v-492c0 -214 -253 -242 -408 -242z" />
    <glyph glyph-name="uniFEE0FB51" unicode="&#xfee0;&#xfb51;" horiz-adv-x="568" 
d="M-18 655l-8 2l-31 67l122 146c37 44 69 61 115 61c68 0 117 -74 117 -141c0 -76 -53 -106 -160 -106c-48 0 -83 9 -108 22zM147 773c40 0 67 4 84 8c0 9 -2 18 -5 25c-10 20 -28 37 -53 37c-16 0 -28 -2 -39 -5l-51 -59c15 -4 39 -6 64 -6zM63 -22l-25 202l7 9
c25 0 48 1 70 2l-59 394l131 60l40 -317c3 -32 2 -57 -6 -84l-15 -46c57 6 103 16 137 28v40l-5 411l133 35v-426c0 -55 19 -74 69 -74h28c18 0 32 -48 32 -106c0 -59 -14 -106 -32 -106h-30c-70 0 -118 19 -142 85c-61 -98 -233 -107 -333 -107z" />
    <glyph glyph-name="uniFE91FE8E" unicode="&#xfe91;&#xfe8e;" horiz-adv-x="559" 
d="M247 0c-149 0 -204 75 -205 212l-4 465l132 35v-426c0 -57 21 -74 79 -74c44 0 89 6 124 22l-24 145l132 82l13 -9c16 -105 27 -174 27 -217c0 -74 -14 -134 -59 -170c-52 -43 -124 -65 -215 -65zM298 -245l-120 54v17l49 105l120 -57v-16z" />
    <glyph glyph-name="uniFE92FE8E" unicode="&#xfe92;&#xfe8e;" horiz-adv-x="606" 
d="M249 0c-144 0 -206 66 -207 212l-4 465l132 35v-426c0 -57 21 -74 79 -74c94 0 123 2 134 56l18 96l12 9l108 -27l-12 -77c-6 -37 15 -57 55 -57h42c19 0 33 -48 33 -106c0 -59 -14 -106 -33 -106h-56c-62 0 -104 30 -123 76c-46 -70 -108 -76 -178 -76zM358 -245
l-120 54v17l48 105l120 -57v-16z" />
    <glyph glyph-name="uniFB58FE8E" unicode="&#xfb58;&#xfe8e;" horiz-adv-x="559" 
d="M247 0c-149 0 -204 75 -205 212l-4 465l132 35v-426c0 -57 21 -74 79 -74c44 0 89 6 124 22l-24 145l132 82l13 -9c16 -105 27 -174 27 -217c0 -74 -14 -134 -59 -170c-52 -43 -124 -65 -215 -65zM404 -224l-109 49v16l44 95l110 -51v-15zM258 -232l-110 49v16l44 95
l110 -51v-15zM359 -355l-102 47v15l42 89l102 -49v-14z" />
    <glyph glyph-name="uniFB59FE8E" unicode="&#xfb59;&#xfe8e;" horiz-adv-x="606" 
d="M249 0c-144 0 -206 66 -207 212l-4 465l132 35v-426c0 -57 21 -74 79 -74c94 0 123 2 134 56l18 96l12 9l108 -27l-12 -77c-6 -37 15 -57 55 -57h42c19 0 33 -48 33 -106c0 -59 -14 -106 -33 -106h-56c-62 0 -104 30 -123 76c-46 -70 -108 -76 -178 -76zM397 -223
l-109 49v16l44 96l110 -52v-15zM251 -231l-110 49v16l44 96l110 -52v-15zM352 -353l-102 47v15l42 88l102 -49v-14z" />
    <glyph glyph-name="uniFE97FE8E" unicode="&#xfe97;&#xfe8e;" horiz-adv-x="559" 
d="M247 0c-149 0 -204 75 -205 212l-4 465l132 35v-426c0 -57 21 -74 79 -74c44 0 89 6 124 22l-24 145l132 82l13 -9c16 -105 27 -174 27 -217c0 -74 -14 -134 -59 -170c-52 -43 -124 -65 -215 -65zM394 661l110 -51v-15l-45 -95l-109 50v14l-34 -72l-109 50v16l44 95
l110 -51v-13z" />
    <glyph glyph-name="uniFE98FE8E" unicode="&#xfe98;&#xfe8e;" horiz-adv-x="606" 
d="M249 0c-144 0 -206 66 -207 212l-4 465l132 35v-426c0 -57 21 -74 79 -74c94 0 123 2 134 56l18 96l12 9l108 -27l-12 -77c-6 -37 15 -57 55 -57h42c19 0 33 -48 33 -106c0 -59 -14 -106 -33 -106h-56c-62 0 -104 30 -123 76c-46 -70 -108 -76 -178 -76zM421 611l109 -51
v-15l-44 -95l-110 50v14l-33 -72l-110 50v16l45 95l109 -51v-13z" />
    <glyph glyph-name="uniFE9BFE8E" unicode="&#xfe9b;&#xfe8e;" horiz-adv-x="559" 
d="M398 724l-41 -84l-98 46v14l41 86l98 -48v-14zM247 0c-149 0 -204 75 -205 212l-4 465l132 35v-426c0 -57 21 -74 79 -74c44 0 89 6 124 22l-24 145l132 82l13 -9c16 -105 27 -174 27 -217c0 -74 -14 -134 -59 -170c-52 -43 -124 -65 -215 -65zM399 659l110 -51v-15
l-45 -94l-109 49v5l-29 -62l-110 49v16l44 95l110 -51v-4z" />
    <glyph glyph-name="uniFE9CFE8E" unicode="&#xfe9c;&#xfe8e;" horiz-adv-x="606" 
d="M417 669l-40 -84l-98 45v15l41 85l98 -47zM249 0c-144 0 -206 66 -207 212l-4 465l132 35v-426c0 -57 21 -74 79 -74c94 0 123 2 134 56l18 96l12 9l108 -27l-12 -77c-6 -37 15 -57 55 -57h42c19 0 33 -48 33 -106c0 -59 -14 -106 -33 -106h-56c-62 0 -104 30 -123 76
c-46 -70 -108 -76 -178 -76zM419 604l109 -51v-15l-44 -95l-110 49v6l-29 -63l-110 49v16l45 96l109 -51v-4z" />
    <glyph glyph-name="uniFE9FFE8E" unicode="&#xfe9f;&#xfe8e;" horiz-adv-x="908" 
d="M229 0c-132 2 -186 76 -187 212l-4 465l132 35v-426c0 -55 19 -73 63 -74h75c73 0 136 14 203 56l46 27l-130 42c-13 4 -22 5 -30 4c-9 -2 -17 -8 -23 -17l-35 -54h-11l-72 83l45 82c24 45 57 72 106 72c52 -1 215 -64 335 -95c32 -8 59 -15 82 -19l40 -8l6 -13l-55 -150
l-88 14l-175 -134c-88 -66 -182 -102 -281 -102h-42zM540 -185l-120 54v17l48 105l120 -57v-16z" />
    <glyph glyph-name="uniFEA0FE8E" unicode="&#xfea0;&#xfe8e;" horiz-adv-x="881" 
d="M881 212c18 0 32 -48 32 -106c0 -59 -14 -106 -32 -106h-51c-99 0 -160 32 -186 114l-17 46l-75 -58c-88 -66 -182 -102 -281 -102h-41c-133 1 -187 76 -188 212l-4 465l132 35v-426c0 -56 20 -74 64 -74h74c73 0 136 14 203 56l46 27l-130 42c-14 4 -23 5 -32 3
c-8 -2 -16 -8 -21 -16l-35 -54h-11l-72 83l45 82c24 45 57 72 106 72c54 -1 225 -68 349 -99c22 -5 40 -9 56 -12l52 -11l6 -13l-55 -150l-88 14l-4 -3c11 -18 32 -21 67 -21h91zM420 -114l48 105l120 -57v-16l-48 -103l-120 54v17z" />
    <glyph glyph-name="uniFB7CFE8E" unicode="&#xfb7c;&#xfe8e;" horiz-adv-x="908" 
d="M229 0c-132 2 -186 76 -187 212l-4 465l132 35v-426c0 -55 19 -73 63 -74h75c73 0 136 14 203 56l46 27l-130 42c-13 4 -22 5 -30 4c-9 -2 -17 -8 -23 -17l-35 -54h-11l-72 83l45 82c24 45 57 72 106 72c52 -1 215 -64 335 -95c32 -8 59 -15 82 -19l40 -8l6 -13l-55 -150
l-88 14l-175 -134c-88 -66 -182 -102 -281 -102h-42zM642 -172l-110 49v16l45 96l109 -51v-15zM495 -180l-109 49v16l44 96l109 -51v-15zM596 -302l-101 47v15l42 89l101 -50v-14z" />
    <glyph glyph-name="uniFB7DFE8E" unicode="&#xfb7d;&#xfe8e;" horiz-adv-x="881" 
d="M881 212c18 0 32 -48 32 -106c0 -59 -14 -106 -32 -106h-51c-99 0 -160 32 -186 114l-17 46l-75 -58c-88 -66 -182 -102 -281 -102h-41c-133 1 -187 76 -188 212l-4 465l132 35v-426c0 -56 20 -74 64 -74h74c73 0 136 14 203 56l46 27l-130 42c-14 4 -23 5 -32 3
c-8 -2 -16 -8 -21 -16l-35 -54h-11l-72 83l45 82c24 45 57 72 106 72c54 -1 225 -68 349 -99c22 -5 40 -9 56 -12l52 -11l6 -13l-55 -150l-88 14l-4 -3c11 -18 32 -21 67 -21h91zM532 -107l45 96l109 -51v-15l-44 -95l-110 49v16zM539 -85l-44 -95l-109 49v16l44 96l109 -51
v-15zM495 -240l42 89l101 -50v-14l-42 -87l-101 47v15z" />
    <glyph glyph-name="uniFEA3FE8E" unicode="&#xfea3;&#xfe8e;" horiz-adv-x="908" 
d="M229 0c-132 2 -186 76 -187 212l-4 465l132 35v-426c0 -55 19 -73 63 -74h75c73 0 136 14 203 56l46 27l-130 42c-13 4 -22 5 -30 4c-9 -2 -17 -8 -23 -17l-35 -54h-11l-72 83l45 82c24 45 57 72 106 72c52 -1 215 -64 335 -95c32 -8 59 -15 82 -19l40 -8l6 -13l-55 -150
l-88 14l-175 -134c-88 -66 -182 -102 -281 -102h-42z" />
    <glyph glyph-name="uniFEA4FE8E" unicode="&#xfea4;&#xfe8e;" horiz-adv-x="881" 
d="M881 212c18 0 32 -48 32 -106c0 -59 -14 -106 -32 -106h-51c-99 0 -160 32 -186 114l-17 46l-75 -58c-88 -66 -182 -102 -281 -102h-41c-133 1 -187 76 -188 212l-4 465l132 35v-426c0 -56 20 -74 64 -74h74c73 0 136 14 203 56l46 27l-130 42c-14 4 -23 5 -32 3
c-8 -2 -16 -8 -21 -16l-35 -54h-11l-72 83l45 82c24 45 57 72 106 72c54 -1 225 -68 349 -99c22 -5 40 -9 56 -12l52 -11l6 -13l-55 -150l-88 14l-4 -3c11 -18 32 -21 67 -21h91z" />
    <glyph glyph-name="uniFEA7FE8E" unicode="&#xfea7;&#xfe8e;" horiz-adv-x="908" 
d="M453 562l-120 54v17l48 105l120 -56v-17zM229 0c-132 2 -186 76 -187 212l-4 465l132 35v-426c0 -55 19 -73 63 -74h75c73 0 136 14 203 56l46 27l-130 42c-13 4 -22 5 -30 4c-9 -2 -17 -8 -23 -17l-35 -54h-11l-72 83l45 82c24 45 57 72 106 72c52 -1 215 -64 335 -95
c32 -8 59 -15 82 -19l40 -8l6 -13l-55 -150l-88 14l-175 -134c-88 -66 -182 -102 -281 -102h-42z" />
    <glyph glyph-name="uniFEA8FE8E" unicode="&#xfea8;&#xfe8e;" horiz-adv-x="881" 
d="M499 665l-48 -103l-120 54v17l49 105l119 -56v-17zM881 212c18 0 32 -48 32 -106c0 -59 -14 -106 -32 -106h-51c-99 0 -160 32 -186 114l-17 46l-75 -58c-88 -66 -182 -102 -281 -102h-41c-133 1 -187 76 -188 212l-4 465l132 35v-426c0 -56 20 -74 64 -74h74
c73 0 136 14 203 56l46 27l-130 42c-14 4 -23 5 -32 3c-8 -2 -16 -8 -21 -16l-35 -54h-11l-72 83l45 82c24 45 57 72 106 72c54 -1 225 -68 349 -99c22 -5 40 -9 56 -12l52 -11l6 -13l-55 -150l-88 14l-4 -3c11 -18 32 -21 67 -21h91z" />
    <glyph glyph-name="uniFEB3FE8E" unicode="&#xfeb3;&#xfe8e;" horiz-adv-x="1058" 
d="M253 0c-147 0 -209 61 -211 212l-4 465l132 35v-426c0 -64 23 -74 80 -74c69 0 91 10 106 66l23 86l12 9l107 -30l-15 -66c-3 -15 -7 -29 -10 -44c20 -14 44 -21 83 -21c76 0 100 20 100 67l1 53l112 1v-108c17 -9 39 -13 61 -13c16 0 31 2 43 8l-25 159l132 82l13 -9
c10 -69 18 -119 22 -161c3 -31 4 -58 2 -79c-3 -38 -12 -74 -29 -105c-33 -64 -90 -107 -158 -107c-36 0 -71 6 -98 21c-12 6 -22 13 -29 23c-24 -25 -74 -44 -143 -44c-77 0 -130 24 -157 64c-27 -48 -74 -64 -150 -64z" />
    <glyph glyph-name="uniFEB4FE8E" unicode="&#xfeb4;&#xfe8e;" horiz-adv-x="1118" 
d="M253 0c-147 0 -209 61 -211 212l-4 465l132 35v-426c0 -64 23 -74 83 -74c66 0 88 10 103 66l23 86l12 9l107 -30l-16 -68l-9 -42c20 -14 44 -21 83 -21c76 0 100 20 100 67l1 53l112 1v-108c17 -9 39 -13 61 -13c16 0 31 2 43 8l-23 142l104 68l15 -9l21 -125
c11 -63 27 -84 83 -84h45c18 0 32 -48 32 -106c0 -59 -14 -106 -32 -106h-33c-74 0 -113 20 -136 59c-4 -6 -9 -11 -14 -16c-26 -28 -66 -44 -116 -44c-38 0 -75 11 -100 30c-6 4 -12 9 -16 15c-24 -25 -74 -44 -143 -44c-77 0 -130 24 -157 64c-27 -48 -74 -64 -150 -64z
" />
    <glyph glyph-name="uniFEB7FE8E" unicode="&#xfeb7;&#xfe8e;" horiz-adv-x="1058" 
d="M253 0c-147 0 -209 61 -211 212l-4 465l132 35v-426c0 -64 23 -74 80 -74c69 0 91 10 106 66l23 86l12 9l107 -30l-15 -66c-3 -15 -7 -29 -10 -44c20 -14 44 -21 83 -21c76 0 100 20 100 67l1 53l112 1v-108c17 -9 39 -13 61 -13c16 0 31 2 43 8l-25 159l132 82l13 -9
c10 -69 18 -119 22 -161c3 -31 4 -58 2 -79c-3 -38 -12 -74 -29 -105c-33 -64 -90 -107 -158 -107c-36 0 -71 6 -98 21c-12 6 -22 13 -29 23c-24 -25 -74 -44 -143 -44c-77 0 -130 24 -157 64c-27 -48 -74 -64 -150 -64zM702 645l-41 -84l-98 45v15l41 85l98 -47v-14z
M703 580l110 -52v-15l-44 -94l-110 49v6l-29 -63l-110 49v16l44 96l110 -52v-3z" />
    <glyph glyph-name="uniFEB8FE8E" unicode="&#xfeb8;&#xfe8e;" horiz-adv-x="1118" 
d="M253 0c-147 0 -209 61 -211 212l-4 465l132 35v-426c0 -64 23 -74 83 -74c66 0 88 10 103 66l23 86l12 9l107 -30l-16 -68l-9 -42c20 -14 44 -21 83 -21c76 0 100 20 100 67l1 53l112 1v-108c17 -9 39 -13 61 -13c16 0 31 2 43 8l-23 142l104 68l15 -9l21 -125
c11 -63 27 -84 83 -84h45c18 0 32 -48 32 -106c0 -59 -14 -106 -32 -106h-33c-74 0 -113 20 -136 59c-4 -6 -9 -11 -14 -16c-26 -28 -66 -44 -116 -44c-38 0 -75 11 -100 30c-6 4 -12 9 -16 15c-24 -25 -74 -44 -143 -44c-77 0 -130 24 -157 64c-27 -48 -74 -64 -150 -64z
M702 645l-41 -84l-98 45v15l41 85l98 -47v-14zM703 580l110 -52v-15l-44 -94l-110 49v6l-29 -63l-110 49v16l44 96l110 -52v-3z" />
    <glyph glyph-name="uniFEBBFE8E" unicode="&#xfebb;&#xfe8e;" horiz-adv-x="1104" 
d="M38 677l132 35v-426c0 -64 23 -74 83 -74c67 0 89 16 105 71l21 81l12 9l107 -30l-25 -108c10 -8 27 -20 58 -23l3 34l109 125c65 77 120 122 207 122c147 0 217 -122 217 -232c0 -165 -115 -261 -356 -261h-163c-70 0 -118 24 -145 64c-26 -47 -74 -64 -156 -64
c-141 0 -203 61 -205 212zM650 206c17 0 33 -1 50 -1h67c95 0 135 12 164 34c-3 54 -36 97 -98 97c-34 0 -50 -5 -69 -11z" />
    <glyph glyph-name="uniFEBCFE8E" unicode="&#xfebc;&#xfe8e;" horiz-adv-x="1154" 
d="M247 0c-141 0 -203 61 -205 212l-4 465l132 35v-426c0 -64 23 -74 83 -74c67 0 89 16 105 71l21 81l12 9l107 -30l-25 -108c10 -8 27 -20 58 -23l3 34l109 125c65 77 120 122 207 122c147 0 217 -122 217 -232c0 -17 -2 -32 -8 -47c16 -2 32 -2 52 -2h43
c19 0 33 -48 33 -106c0 -59 -14 -106 -33 -106h-53c-67 0 -114 20 -148 51c-57 -33 -138 -51 -242 -51h-163c-70 0 -118 24 -145 64c-26 -47 -74 -64 -156 -64zM701 205h66c95 0 135 12 164 34c-3 54 -36 97 -98 97c-34 0 -50 -5 -69 -11l-114 -119c17 0 34 -1 51 -1z" />
    <glyph glyph-name="uniFEBFFE8E" unicode="&#xfebf;&#xfe8e;" horiz-adv-x="1104" 
d="M832 550l-119 54v17l48 105l120 -57v-16zM38 677l132 35v-426c0 -64 23 -74 83 -74c67 0 89 16 105 71l21 81l12 9l107 -30l-25 -108c10 -8 27 -20 58 -23l3 34l109 125c65 77 120 122 207 122c147 0 217 -122 217 -232c0 -165 -115 -261 -356 -261h-163
c-70 0 -118 24 -145 64c-26 -47 -74 -64 -156 -64c-141 0 -203 61 -205 212zM650 206c17 0 33 -1 50 -1h67c95 0 135 12 164 34c-3 54 -36 97 -98 97c-34 0 -50 -5 -69 -11z" />
    <glyph glyph-name="uniFEC0FE8E" unicode="&#xfec0;&#xfe8e;" horiz-adv-x="1154" 
d="M832 550l-119 54v17l48 105l120 -57v-16zM247 0c-141 0 -203 61 -205 212l-4 465l132 35v-426c0 -64 23 -74 83 -74c67 0 89 16 105 71l21 81l12 9l107 -30l-25 -108c10 -8 27 -20 58 -23l3 34l109 125c65 77 120 122 207 122c147 0 217 -122 217 -232
c0 -17 -2 -32 -8 -47c16 -2 32 -2 52 -2h43c19 0 33 -48 33 -106c0 -59 -14 -106 -33 -106h-53c-67 0 -114 20 -148 51c-57 -33 -138 -51 -242 -51h-163c-70 0 -118 24 -145 64c-26 -47 -74 -64 -156 -64zM701 205h66c95 0 135 12 164 34c-3 54 -36 97 -98 97
c-34 0 -50 -5 -69 -11l-114 -119c17 0 34 -1 51 -1z" />
    <glyph glyph-name="uniFEC3FE8E" unicode="&#xfec3;&#xfe8e;" horiz-adv-x="846" 
d="M236 0c-138 0 -193 75 -194 212l-4 465l132 35v-426c0 -59 18 -71 77 -73l57 65l-4 399l132 35v-192c0 -53 -1 -75 -15 -115c12 11 23 21 35 30c41 37 83 58 140 58c147 0 216 -122 216 -232c0 -165 -114 -261 -355 -261h-217zM392 206l117 -1c95 0 135 12 164 34
c-3 54 -36 97 -98 97c-34 0 -50 -5 -69 -11z" />
    <glyph glyph-name="uniFEC4FE8E" unicode="&#xfec4;&#xfe8e;" horiz-adv-x="896" 
d="M236 0c-138 0 -193 75 -194 212l-4 465l132 35v-426c0 -59 18 -71 77 -73l57 65l-4 399l132 35v-192c0 -53 -1 -75 -15 -115c9 10 19 18 29 27c43 38 86 61 146 61c147 0 216 -122 216 -232c0 -17 -2 -32 -7 -47c15 -2 31 -2 51 -2h44c18 0 32 -48 32 -106
c0 -59 -14 -106 -32 -106h-53c-67 0 -114 20 -148 51c-57 -33 -138 -51 -242 -51h-217zM392 206l117 -1c95 0 135 12 164 34c-3 54 -36 97 -98 97c-34 0 -50 -5 -69 -11z" />
    <glyph glyph-name="uniFEC7FE8E" unicode="&#xfec7;&#xfe8e;" horiz-adv-x="846" 
d="M657 551l-120 54v18l48 104l120 -56v-16zM236 0c-138 0 -193 75 -194 212l-4 465l132 35v-426c0 -59 18 -71 77 -73l57 65l-4 399l132 35v-192c0 -53 -1 -75 -15 -115c12 11 23 21 35 30c41 37 83 58 140 58c147 0 216 -122 216 -232c0 -165 -114 -261 -355 -261h-217z
M392 206l117 -1c95 0 135 12 164 34c-3 54 -36 97 -98 97c-34 0 -50 -5 -69 -11z" />
    <glyph glyph-name="uniFEC8FE8E" unicode="&#xfec8;&#xfe8e;" horiz-adv-x="896" 
d="M657 551l-120 54v18l48 104l120 -56v-16zM236 0c-138 0 -193 75 -194 212l-4 465l132 35v-426c0 -59 18 -71 77 -73l57 65l-4 399l132 35v-192c0 -53 -1 -75 -15 -115c9 10 19 18 29 27c43 38 86 61 146 61c147 0 216 -122 216 -232c0 -17 -2 -32 -7 -47
c15 -2 31 -2 51 -2h44c18 0 32 -48 32 -106c0 -59 -14 -106 -32 -106h-53c-67 0 -114 20 -148 51c-57 -33 -138 -51 -242 -51h-217zM392 206l117 -1c95 0 135 12 164 34c-3 54 -36 97 -98 97c-34 0 -50 -5 -69 -11z" />
    <glyph glyph-name="uniFECBFE8E" unicode="&#xfecb;&#xfe8e;" horiz-adv-x="688" 
d="M228 0c-138 0 -193 75 -194 212l-4 465l133 35v-426c0 -57 20 -74 67 -74h25c6 0 13 1 18 1c-11 14 -16 30 -16 49c0 33 13 77 27 114c38 101 112 126 189 126c51 0 75 -8 111 -19l6 -13l-16 -126c-19 2 -35 4 -51 5c-27 2 -50 5 -69 5c-28 0 -49 -4 -63 -8
c-3 -12 -6 -21 -10 -34c-2 -7 -4 -16 -4 -22c0 -35 24 -59 74 -59c12 0 33 5 68 13s77 19 133 32l10 -9l-4 -156l-69 -23c-57 -19 -132 -49 -213 -68c-46 -12 -96 -20 -148 -20z" />
    <glyph glyph-name="uniFECCFE8E" unicode="&#xfecc;&#xfe8e;" horiz-adv-x="823" 
d="M236 0c-138 0 -193 75 -194 212l-4 465l132 35v-426c0 -57 21 -74 68 -74c26 0 50 0 73 1c27 1 51 3 75 5c-8 9 -17 17 -25 25c-17 20 -35 41 -54 61l5 19l-73 -12l-10 11l32 143l116 22c58 11 130 21 170 21c129 0 201 -39 201 -141c0 -52 -37 -100 -89 -150
c26 -4 56 -5 96 -5h68c19 0 33 -48 33 -106c0 -59 -14 -106 -33 -106h-100c-100 0 -152 10 -208 62c-51 -42 -96 -56 -171 -59c-34 -2 -69 -3 -108 -3zM530 234c38 27 70 55 95 83c-1 23 -29 30 -93 27c-32 -2 -61 -4 -93 -9c17 -19 34 -37 51 -57c14 -16 27 -31 40 -44z
" />
    <glyph glyph-name="uniFECFFE8E" unicode="&#xfecf;&#xfe8e;" horiz-adv-x="688" 
d="M450 566l-120 54v18l48 104l120 -56v-16zM228 0c-138 0 -193 75 -194 212l-4 465l133 35v-426c0 -57 20 -74 67 -74h25c6 0 13 1 18 1c-11 14 -16 30 -16 49c0 33 13 77 27 114c38 101 112 126 189 126c51 0 75 -8 111 -19l6 -13l-16 -126c-19 2 -35 4 -51 5
c-27 2 -50 5 -69 5c-28 0 -49 -4 -63 -8c-3 -12 -6 -21 -10 -34c-2 -7 -4 -16 -4 -22c0 -35 24 -59 74 -59c12 0 33 5 68 13s77 19 133 32l10 -9l-4 -156l-69 -23c-57 -19 -132 -49 -213 -68c-46 -12 -96 -20 -148 -20z" />
    <glyph glyph-name="uniFED0FE8E" unicode="&#xfed0;&#xfe8e;" horiz-adv-x="823" 
d="M524 572l-120 54v17l49 105l120 -56v-17zM236 0c-138 0 -193 75 -194 212l-4 465l132 35v-426c0 -57 21 -74 68 -74c26 0 50 0 73 1c27 1 51 3 75 5c-8 9 -17 17 -25 25c-17 20 -35 41 -54 61l5 19l-73 -12l-10 11l32 143l116 22c58 11 130 21 170 21
c129 0 201 -39 201 -141c0 -52 -37 -100 -89 -150c26 -4 56 -5 96 -5h68c19 0 33 -48 33 -106c0 -59 -14 -106 -33 -106h-100c-100 0 -152 10 -208 62c-51 -42 -96 -56 -171 -59c-34 -2 -69 -3 -108 -3zM530 234c38 27 70 55 95 83c-1 23 -29 30 -93 27
c-32 -2 -61 -4 -93 -9c17 -19 34 -37 51 -57c14 -16 27 -31 40 -44z" />
    <glyph glyph-name="uniFED3FE8E" unicode="&#xfed3;&#xfe8e;" horiz-adv-x="662" 
d="M439 703l-120 54v17l48 105l120 -56v-17zM225 0c-129 4 -182 79 -183 212l-4 465l132 35v-426c0 -57 21 -74 68 -74c180 0 214 6 253 15c1 15 1 29 2 43c-51 -9 -81 -12 -139 -12c-76 0 -118 42 -120 112c-1 10 0 21 1 31c18 175 87 253 189 253c65 0 104 -30 132 -67
c41 -53 61 -143 67 -232c7 -98 -14 -244 -62 -286c-67 -60 -212 -69 -336 -69zM384 404c36 -1 73 2 100 6c-4 40 -14 77 -22 99c-17 4 -32 7 -50 7c-37 0 -56 -11 -65 -66c0 -6 -1 -13 -2 -20c0 -22 11 -25 39 -26z" />
    <glyph glyph-name="uniFED4FE8E" unicode="&#xfed4;&#xfe8e;" horiz-adv-x="704" 
d="M487 560l-120 54v18l48 104l120 -56v-16zM236 0c-138 0 -193 75 -194 212l-4 465l132 35v-426c0 -57 21 -74 68 -74c14 0 29 0 43 1c-8 28 -9 60 -1 95c19 76 61 202 151 202c130 0 216 -79 216 -175c0 -44 -13 -89 -27 -123h38h46c18 -1 32 -48 32 -106
s-14 -105 -32 -106h-90c-71 0 -139 14 -194 40c-60 -31 -131 -40 -184 -40zM468 217c45 31 67 56 67 81c0 35 -20 53 -79 63c-12 2 -26 3 -43 4c-8 -27 -17 -49 -21 -67c-10 -45 24 -69 76 -81z" />
    <glyph glyph-name="uniFED3FEE0FEE0FEEA" unicode="&#xfed3;&#xfee0;&#xfee0;&#xfeea;" horiz-adv-x="1538" 
d="M649 809l-6 179l82 14v-114c0 -28 -4 -66 -9 -78zM1320 708l-119 53v18l48 105l120 -57v-16zM617 601c-55 0 -97 27 -97 84c0 32 13 66 29 110l54 -27c-5 -24 -12 -49 -12 -59c0 -11 14 -16 27 -16c18 0 32 7 32 17l1 42l67 1v-33v-20c5 -4 20 -7 34 -7c8 0 15 2 19 3
l-18 82l70 46c14 -63 23 -105 23 -136c0 -53 -41 -87 -98 -87c-27 0 -49 6 -68 21c-16 -15 -36 -21 -63 -21zM511 0c-77 0 -135 32 -164 100l-28 -63c-27 -3 -60 -5 -89 -5c-123 0 -192 44 -192 150c0 87 51 181 187 245l86 41v68l132 38v-295c0 -45 18 -67 61 -67
c45 0 82 9 110 20l-5 273l131 35l2 -241c1 -66 25 -87 72 -87c44 0 74 5 103 17l-5 419l133 33v-395c0 -57 20 -74 79 -74c154 0 198 2 243 15c1 15 2 29 2 43c-51 -9 -81 -12 -138 -12c-78 0 -120 43 -121 117c0 8 0 17 1 26c19 175 87 253 189 253c77 0 121 -41 150 -92
c29 -52 45 -131 49 -207c7 -98 -14 -244 -62 -286c-57 -50 -173 -67 -286 -69c-99 0 -135 12 -166 54c-37 -35 -93 -54 -163 -54s-114 29 -134 68c-37 -45 -97 -68 -177 -68zM1260 404c37 -1 73 2 100 6c-4 40 -13 77 -22 99c-17 4 -32 7 -50 7c-38 0 -57 -11 -65 -69
c-1 -8 -1 -15 -1 -23c2 -16 13 -19 38 -20zM264 209c16 0 31 -1 46 0v115l-50 -20c-35 -15 -63 -26 -98 -41c-2 -9 -2 -16 -1 -23c4 -26 32 -31 103 -31z" />
    <glyph glyph-name="uniFED7FE8E" unicode="&#xfed7;&#xfe8e;" horiz-adv-x="662" 
d="M431 871l110 -52v-15l-45 -94l-109 49v14l-34 -71l-109 49v16l44 96l110 -52v-12zM225 0c-129 4 -182 79 -183 212l-4 465l132 35v-426c0 -57 21 -74 68 -74c180 0 214 6 253 15c1 15 1 29 2 43c-51 -9 -81 -12 -139 -12c-76 0 -118 42 -120 112c-1 10 0 21 1 31
c18 175 87 253 189 253c65 0 104 -30 132 -67c41 -53 61 -143 67 -232c7 -98 -14 -244 -62 -286c-67 -60 -212 -69 -336 -69zM384 404c36 -1 73 2 100 6c-4 40 -14 77 -22 99c-17 4 -32 7 -50 7c-37 0 -56 -11 -65 -66c0 -6 -1 -13 -2 -20c0 -22 11 -25 39 -26z" />
    <glyph glyph-name="uniFED8FE8E" unicode="&#xfed8;&#xfe8e;" horiz-adv-x="704" 
d="M470 726l110 -51v-15l-45 -95l-109 49v15l-34 -72l-109 49v16l44 96l110 -51v-13zM236 0c-138 0 -193 75 -194 212l-4 465l132 35v-426c0 -57 21 -74 68 -74c14 0 29 0 43 1c-8 28 -9 60 -1 95c19 76 61 202 151 202c130 0 216 -79 216 -175c0 -44 -13 -89 -27 -123h38
h46c18 -1 32 -48 32 -106s-14 -105 -32 -106h-90c-71 0 -139 14 -194 40c-60 -31 -131 -40 -184 -40zM468 217c45 31 67 56 67 81c0 35 -20 53 -79 63c-12 2 -26 3 -43 4c-8 -27 -17 -49 -21 -67c-10 -45 24 -69 76 -81z" />
    <glyph glyph-name="uniFB90FE8E" unicode="&#xfb90;&#xfe8e;" horiz-adv-x="681" 
d="M240 0c-142 0 -197 75 -198 212l-4 465l132 35v-426c0 -57 21 -74 72 -74c63 0 131 6 167 22c-16 26 -36 53 -72 92l-129 139l24 153l411 109l-5 -157l-253 -70l122 -135c41 -51 63 -96 63 -156c1 -69 -25 -115 -67 -148c-65 -48 -169 -61 -263 -61z" />
    <glyph glyph-name="uniFB91FE8E" unicode="&#xfb91;&#xfe8e;" horiz-adv-x="764" 
d="M240 0c-142 0 -197 75 -198 212l-4 465l132 35v-426c0 -57 21 -74 72 -74c63 0 124 6 160 22c-15 24 -35 47 -68 86l-126 145l24 153l411 109l-5 -157l-252 -70l124 -147c87 -104 135 -140 210 -141h45c18 0 31 -48 31 -106c0 -59 -13 -106 -31 -106h-36
c-87 2 -146 29 -198 104c-12 -21 -29 -39 -51 -53c-67 -44 -173 -51 -240 -51z" />
    <glyph glyph-name="uniFB94FE8E" unicode="&#xfb94;&#xfe8e;" horiz-adv-x="681" 
d="M238 659l16 96l269 71l-6 -92zM240 0c-142 0 -197 75 -198 212l-4 465l132 35v-426c0 -57 21 -74 72 -74c63 0 131 6 167 22c-16 26 -36 53 -72 92l-129 139l24 153l411 109l-5 -157l-253 -70l122 -135c41 -51 63 -96 63 -156c1 -69 -25 -115 -67 -148
c-65 -48 -169 -61 -263 -61z" />
    <glyph glyph-name="uniFB95FE8E" unicode="&#xfb95;&#xfe8e;" horiz-adv-x="764" 
d="M238 659l16 96l269 71l-6 -92zM240 0c-142 0 -197 75 -198 212l-4 465l132 35v-426c0 -57 21 -74 72 -74c63 0 124 6 160 22c-15 24 -35 47 -68 86l-126 145l24 153l411 109l-5 -157l-252 -70l124 -147c87 -104 135 -140 210 -141h45c18 0 31 -48 31 -106
c0 -59 -13 -106 -31 -106h-36c-87 2 -146 29 -198 104c-12 -21 -29 -39 -51 -53c-67 -44 -173 -51 -240 -51z" />
    <glyph glyph-name="uniFEDFFEE0FEEA" unicode="&#xfedf;&#xfee0;&#xfeea;" horiz-adv-x="1081" 
d="M651 809l-5 179l82 14v-114c0 -28 -5 -66 -9 -78zM620 601c-56 0 -98 27 -98 84c0 32 13 66 29 110l55 -27c-6 -24 -13 -49 -13 -59c0 -11 14 -16 28 -16c17 0 32 7 32 17v42l67 1v-28v-25c4 -3 18 -6 30 -6c10 -1 19 0 23 2l-18 82l71 46c14 -63 22 -105 22 -136
c0 -53 -41 -87 -97 -87c-28 0 -50 6 -69 21c-16 -15 -36 -21 -62 -21zM511 0c-75 0 -135 32 -164 96l-28 -59c-27 -3 -60 -5 -89 -5c-123 0 -192 44 -192 150c0 87 57 181 191 244l82 40v70l132 39v-296c0 -47 20 -67 63 -67c44 0 82 9 108 20l-5 273l131 35l2 -241
c1 -66 25 -87 72 -87c45 0 74 5 103 17c1 100 -8 233 -22 386l127 46c18 -178 21 -322 21 -411c0 -112 -20 -162 -58 -196c-37 -36 -93 -54 -163 -54s-114 29 -134 68c-37 -45 -97 -68 -177 -68zM264 209h46v111l-34 -13c-46 -18 -78 -31 -114 -49c-2 -9 -2 -17 0 -23
c5 -23 33 -26 102 -26z" />
    <glyph glyph-name="uniFC43" unicode="&#xfedf;&#xfef0;" horiz-adv-x="647" arabic-form="isolated" 
d="M39 13c4 69 22 151 44 237l98 -7l11 -14c-10 -48 -21 -101 -27 -150c-11 -84 33 -102 130 -102c55 0 104 13 138 22l-148 65l-5 11l50 127c41 3 79 10 129 25l-5 450l133 35l-1 -489c0 -72 -26 -112 -87 -145c19 -8 40 -18 54 -26c43 -24 56 -45 56 -71
c0 -30 -16 -91 -38 -115c-40 -41 -142 -85 -290 -85c-176 0 -253 83 -242 232z" />
    <glyph glyph-name="uniFC86" unicode="&#xfee0;&#xfef0;" horiz-adv-x="757" arabic-form="final" 
d="M281 -219c-176 0 -253 83 -242 232c4 69 22 151 44 237l98 -7l11 -14c-10 -48 -21 -101 -27 -150c-11 -84 33 -102 130 -102c54 0 103 13 136 22l-146 65l-5 11l50 127c41 3 79 10 129 25l-5 450l132 35v-344c0 -136 65 -156 132 -156h39c18 0 32 -48 32 -106
c0 -59 -14 -106 -32 -106c-10 0 -19 1 -28 1c-67 6 -138 41 -171 123c-14 -18 -35 -33 -59 -46c19 -8 40 -18 54 -26c43 -24 56 -46 56 -72c0 -29 -16 -90 -38 -114c-40 -41 -142 -85 -290 -85z" />
    <glyph glyph-name="uniFEE3FE8E" unicode="&#xfee3;&#xfe8e;" horiz-adv-x="748" 
d="M38 677l132 35v-426c0 -57 21 -74 72 -74c54 0 77 19 94 51l50 91c31 58 72 89 134 89c141 0 201 -130 189 -324l-85 -129c-97 0 -204 18 -270 74c-26 -37 -63 -63 -128 -64c-128 -2 -183 75 -184 212zM437 210c25 -23 89 -41 153 -44c1 70 -24 125 -71 125
c-11 0 -23 -2 -39 -6c-15 -28 -30 -52 -43 -75z" />
    <glyph glyph-name="uniFC88" unicode="&#xfee4;&#xfe8e;" horiz-adv-x="791" arabic-form="final" 
d="M624 -10c-97 0 -204 18 -270 74c-26 -37 -63 -63 -128 -64c-128 -2 -183 75 -184 212l-4 465l132 35v-426c0 -57 21 -74 72 -74c54 0 77 20 94 51l50 91c31 58 72 89 134 89c63 0 102 -23 148 -51c10 -39 19 -79 28 -112c13 -52 35 -68 95 -68c19 0 33 -48 33 -106
c0 -59 -14 -106 -33 -106h-17c-36 0 -84 15 -113 54l-5 -9zM590 165c-5 39 -11 75 -22 114c-12 7 -28 12 -49 12c-40 0 -55 -35 -82 -81c25 -23 90 -42 153 -45z" />
    <glyph glyph-name="uniFEE7FE8E" unicode="&#xfee7;&#xfe8e;" horiz-adv-x="559" 
d="M247 0c-149 0 -204 75 -205 212l-4 465l132 35v-426c0 -57 21 -74 79 -74c44 0 89 6 124 22l-24 145l132 82l13 -9c16 -105 27 -174 27 -217c0 -74 -14 -134 -59 -170c-52 -43 -124 -65 -215 -65zM393 486l-120 54v17l48 105l120 -57v-16z" />
    <glyph glyph-name="uniFEE8FE8E" unicode="&#xfee8;&#xfe8e;" horiz-adv-x="606" 
d="M249 0c-144 0 -206 66 -207 212l-4 465l132 35v-426c0 -57 21 -74 79 -74c94 0 123 2 134 56l18 96l12 9l108 -27l-12 -77c-6 -37 15 -57 55 -57h42c19 0 33 -48 33 -106c0 -59 -14 -106 -33 -106h-56c-62 0 -104 30 -123 76c-46 -70 -108 -76 -178 -76zM387 442l-120 54
v17l49 105l120 -56v-17z" />
    <glyph glyph-name="uniFEEBFE8E" unicode="&#xfeeb;&#xfe8e;" horiz-adv-x="877" 
d="M230 0c-132 0 -187 75 -188 212l-4 465l132 35v-426c0 -57 21 -74 68 -74c14 0 33 1 53 2c-7 16 -11 30 -10 47c-1 16 2 34 9 58c9 31 18 56 30 75l-44 14l34 152l18 10l272 -87c190 -61 237 -147 239 -288c0 -29 -2 -61 -6 -96l-69 -103l-216 25c-36 4 -78 10 -115 26
c-61 -32 -135 -47 -203 -47zM463 216c38 24 64 53 64 78c0 24 -18 42 -48 54c-17 6 -37 10 -59 13c-8 -14 -17 -38 -26 -67c-3 -13 -3 -25 2 -35c9 -22 36 -36 67 -43zM720 181c0 17 0 33 -3 47c-6 33 -24 60 -77 77l-26 8c1 -11 1 -21 0 -31c-2 -31 -12 -58 -29 -84
c11 -1 22 -3 33 -4z" />
    <glyph glyph-name="uniFEECFE8E" unicode="&#xfeec;&#xfe8e;" horiz-adv-x="815" 
d="M410 -235c-77 86 -120 169 -126 237c-16 -1 -31 -2 -46 -2c-133 0 -195 66 -196 212l-4 465l132 35v-426c0 -57 21 -74 68 -74c15 0 32 1 49 1c15 89 34 161 62 257l120 83l84 -91c72 -78 88 -123 88 -189c0 -36 -10 -79 -37 -119c-39 -59 -98 -108 -194 -134
c12 -41 37 -78 71 -114l95 151c61 99 110 155 200 155h39c19 0 32 -48 32 -106c0 -59 -13 -106 -32 -106h-47c-66 0 -93 -30 -145 -118l-70 -117h-143zM398 210c74 3 112 36 124 57c0 18 -33 60 -78 111c-23 -70 -34 -107 -46 -168z" />
    <glyph glyph-name="uniFBE8FE8E" unicode="&#xfbe8;&#xfe8e;" horiz-adv-x="559" 
d="M247 0c-149 0 -204 75 -205 212l-4 465l132 35v-426c0 -57 21 -74 79 -74c44 0 89 6 124 22l-24 145l132 82l13 -9c16 -105 27 -174 27 -217c0 -74 -14 -134 -59 -170c-52 -43 -124 -65 -215 -65z" />
    <glyph glyph-name="uniFBE9FE8E" unicode="&#xfbe9;&#xfe8e;" horiz-adv-x="606" 
d="M249 0c-144 0 -206 66 -207 212l-4 465l132 35v-426c0 -57 21 -74 79 -74c94 0 123 2 134 56l18 96l12 9l108 -27l-12 -77c-6 -37 15 -57 55 -57h42c19 0 33 -48 33 -106c0 -59 -14 -106 -33 -106h-56c-62 0 -104 30 -123 76c-46 -70 -108 -76 -178 -76z" />
    <glyph glyph-name="uniFEF3FE8E" unicode="&#xfef3;&#xfe8e;" horiz-adv-x="559" 
d="M247 0c-149 0 -204 75 -205 212l-4 465l132 35v-426c0 -57 21 -74 79 -74c44 0 89 6 124 22l-24 145l132 82l13 -9c16 -105 27 -174 27 -217c0 -74 -14 -134 -59 -170c-52 -43 -124 -65 -215 -65zM319 -73l109 -52v-15l-44 -94l-110 49v14l-33 -71l-110 49v16l45 96
l109 -52v-13z" />
    <glyph glyph-name="uniFEF4FE8E" unicode="&#xfef4;&#xfe8e;" horiz-adv-x="606" 
d="M249 0c-144 0 -206 66 -207 212l-4 465l132 35v-426c0 -57 21 -74 79 -74c94 0 123 2 134 56l18 96l12 9l108 -27l-12 -77c-6 -37 15 -57 55 -57h42c19 0 33 -48 33 -106c0 -59 -14 -106 -33 -106h-56c-62 0 -104 30 -123 76c-46 -70 -108 -76 -178 -76zM354 -73l110 -52
v-15l-44 -94l-110 49v14l-33 -71l-110 49v16l44 96l110 -52v-13z" />
    <glyph glyph-name="uniFBEA" unicode="&#xfe8b;&#xfe8e;" horiz-adv-x="559" arabic-form="isolated" 
d="M221 434l19 93l30 13c-14 16 -22 40 -22 63c0 63 46 116 111 120c13 1 26 -1 39 -4l25 -6v-80c-8 2 -16 3 -24 4c-12 1 -23 2 -32 2c-20 0 -35 -2 -50 -5c-1 -6 -1 -11 0 -16c1 -24 16 -37 38 -37c7 0 16 1 24 3l91 23l5 -5l-19 -93l-24 -7c-73 -25 -146 -51 -206 -72z
M247 0c-149 0 -204 75 -205 212l-4 465l132 35v-426c0 -57 21 -74 79 -74c44 0 89 6 124 22l-24 145l132 82l13 -9c16 -105 27 -174 27 -217c0 -74 -14 -134 -59 -170c-52 -43 -124 -65 -215 -65z" />
    <glyph glyph-name="uniFBEB" unicode="&#xfe8c;&#xfe8e;" horiz-adv-x="606" arabic-form="final" 
d="M249 0c-144 0 -206 66 -207 212l-4 465l132 35v-426c0 -57 21 -74 79 -74c94 0 123 2 134 56l18 96l12 9l108 -27l-12 -77c-6 -37 15 -57 55 -57h42c19 0 33 -48 33 -106c0 -59 -14 -106 -33 -106h-56c-62 0 -104 30 -123 76c-46 -70 -108 -76 -178 -76zM239 384l19 93
l30 13c-14 16 -22 39 -22 62c0 63 47 116 111 121c13 0 26 -1 39 -5c8 -1 17 -3 25 -5v-80l-24 3c-12 2 -22 3 -32 3c-20 0 -35 -2 -50 -6c-1 -6 -1 -11 0 -16c1 -23 16 -37 39 -37c7 0 15 1 23 4l91 22l5 -5l-18 -92l-25 -8c-73 -24 -146 -50 -206 -72z" />
    <glyph glyph-name="uniFBFEFE8E" unicode="&#xfbfe;&#xfe8e;" horiz-adv-x="559" 
d="M247 0c-149 0 -204 75 -205 212l-4 465l132 35v-426c0 -57 21 -74 79 -74c44 0 89 6 124 22l-24 145l132 82l13 -9c16 -105 27 -174 27 -217c0 -74 -14 -134 -59 -170c-52 -43 -124 -65 -215 -65zM319 -73l109 -52v-15l-44 -94l-110 49v14l-33 -71l-110 49v16l45 96
l109 -52v-13z" />
    <glyph glyph-name="uniFBFFFE8E" unicode="&#xfbff;&#xfe8e;" horiz-adv-x="606" 
d="M249 0c-144 0 -206 66 -207 212l-4 465l132 35v-426c0 -57 21 -74 79 -74c94 0 123 2 134 56l18 96l12 9l108 -27l-12 -77c-6 -37 15 -57 55 -57h42c19 0 33 -48 33 -106c0 -59 -14 -106 -33 -106h-56c-62 0 -104 30 -123 76c-46 -70 -108 -76 -178 -76zM328 -73l110 -52
v-15l-44 -94l-110 49v14l-33 -71l-110 49v16l44 96l110 -52v-13z" />
    <glyph glyph-name="uniFDF2" unicode="&#x627;&#xfedf;&#xfee0;&#xfeea;" horiz-adv-x="1292" arabic-form="isolated" 
d="M651 809l-5 179l82 14v-114c0 -28 -5 -66 -9 -78zM620 601c-56 0 -98 27 -98 84c0 32 13 66 29 110l55 -27c-6 -24 -13 -49 -13 -59c0 -11 14 -16 28 -16c17 0 32 7 32 17v42l67 1v-28v-25c4 -3 18 -6 30 -6c10 -1 19 0 23 2l-18 82l71 46c14 -63 22 -105 22 -136
c0 -53 -41 -87 -97 -87c-28 0 -50 6 -69 21c-16 -15 -36 -21 -62 -21zM1126 -9l-7 8c7 83 9 132 8 188l-5 490l132 35v-510c0 -87 -4 -113 -29 -183zM511 0c-75 0 -135 32 -164 96l-28 -59c-27 -3 -60 -5 -89 -5c-123 0 -192 44 -192 150c0 87 57 181 191 244l82 40v70
l132 39v-296c0 -47 20 -67 63 -67c44 0 82 9 108 20l-5 273l131 35l2 -241c1 -66 25 -87 72 -87c45 0 74 5 103 17c1 100 -8 233 -22 386l127 46c18 -178 21 -322 21 -411c0 -112 -20 -162 -58 -196c-37 -36 -93 -54 -163 -54s-114 29 -134 68c-37 -45 -97 -68 -177 -68z
M264 209h46v111l-34 -13c-46 -18 -78 -31 -114 -49c-2 -9 -2 -17 0 -23c5 -23 33 -26 102 -26z" />
    <glyph glyph-name="uniFE8E" unicode="&#x627;" horiz-adv-x="267" arabic-form="final" 
d="M238 0c-142 0 -194 77 -196 212l-4 465l132 35v-426c0 -55 19 -74 70 -74h27c19 0 33 -48 33 -106c0 -59 -14 -106 -33 -106h-29z" />
    <glyph glyph-name="uniFE84" unicode="&#x623;" horiz-adv-x="266" arabic-form="final" 
d="M-23 627l19 92l30 13c-14 16 -22 40 -22 63c0 63 47 116 111 121c13 0 26 -2 39 -5l25 -6l1 -80c-8 2 -17 3 -25 4c-12 1 -22 2 -32 2c-20 0 -35 -2 -50 -5c-1 -6 -1 -11 0 -16c1 -24 16 -37 39 -37c7 0 15 1 23 3l91 23l5 -5l-18 -92l-25 -8c-73 -24 -146 -51 -206 -72z
M237 0c-142 0 -194 77 -196 212l-3 378l131 35v-339c0 -55 19 -74 70 -74h27c19 0 33 -48 33 -106c0 -59 -14 -106 -33 -106h-29z" />
    <glyph glyph-name="uniFE88" unicode="&#x625;" horiz-adv-x="267" arabic-form="final" 
d="M238 0c-142 0 -194 77 -196 212l-4 465l132 35v-426c0 -55 19 -74 70 -74h27c19 0 33 -48 33 -106c0 -59 -14 -106 -33 -106h-29zM13 -337l20 93l30 13c-15 16 -23 40 -23 63c0 63 47 116 112 120c12 1 25 -1 39 -4l24 -6l1 -80c-8 2 -16 3 -24 4c-12 1 -23 2 -32 2
c-20 0 -36 -2 -50 -5c-1 -6 -1 -11 -1 -16c2 -24 17 -37 39 -37c7 0 16 1 24 3l91 23l5 -5l-19 -93l-24 -7c-73 -25 -146 -51 -206 -72z" />
    <glyph glyph-name="uniFE82" unicode="&#x622;" horiz-adv-x="266" arabic-form="final" 
d="M-16 639l-66 45l12 33c15 45 41 76 83 76c59 0 90 -39 267 1l6 -10l-36 -94c-121 -31 -186 -12 -234 1l-21 -48zM237 0c-142 0 -194 77 -196 212l-3 378l131 35v-339c0 -55 19 -74 70 -74h27c19 0 33 -48 33 -106c0 -59 -14 -106 -33 -106h-29z" />
    <glyph glyph-name="uniFB51" unicode="&#x671;" horiz-adv-x="266" arabic-form="final" 
d="M-34 629l-8 3l-31 67l122 146c36 43 69 60 115 60c68 0 117 -73 117 -140c0 -76 -53 -106 -160 -106c-48 0 -83 8 -108 22zM131 748c40 0 66 3 84 8c-1 9 -2 17 -6 24c-10 21 -27 38 -52 38c-16 0 -29 -2 -40 -5l-51 -60c16 -3 39 -5 65 -5zM237 0
c-142 0 -194 77 -196 212l-3 378l131 35v-339c0 -55 19 -74 70 -74h27c19 0 33 -48 33 -106c0 -59 -14 -106 -33 -106h-29z" />
    <glyph glyph-name="uni066E.init" unicode="&#x66e;" horiz-adv-x="351" 
d="M0 0c-18 0 -32 47 -32 106c0 58 14 106 32 106c51 0 116 6 165 22l-24 145l132 82l13 -9c16 -105 27 -174 27 -217c0 -79 -18 -141 -68 -177c-64 -45 -149 -58 -245 -58z" />
    <glyph glyph-name="uni066E.medi" unicode="&#x66e;" horiz-adv-x="378" 
d="M0 0c-18 0 -32 47 -32 106c0 58 14 106 32 106h50c69 0 95 7 104 56l19 96l12 9l108 -27l-12 -77c-6 -37 15 -57 54 -57h43c19 0 33 -48 33 -106c0 -59 -14 -106 -33 -106h-56c-62 0 -104 30 -123 76c-39 -60 -92 -74 -152 -75c-15 -1 -31 -1 -47 -1z" />
    <glyph glyph-name="uni066E.fina" unicode="&#x66e;" horiz-adv-x="840" 
d="M309 -10c-214 0 -275 70 -271 192c1 36 5 77 14 128c4 24 7 49 12 77l102 15l11 -11l-13 -99c-8 -61 12 -90 166 -90c241 0 287 8 298 66l19 96l12 9l108 -27l-12 -77c-6 -37 15 -57 54 -57h31c18 0 32 -48 32 -106c0 -59 -14 -106 -32 -106h-44c-62 0 -104 30 -123 76
c-52 -78 -157 -85 -364 -86z" />
    <glyph glyph-name="uniFE90" unicode="&#x628;" horiz-adv-x="840" arabic-form="final" 
d="M309 -10c-214 0 -275 70 -271 192c1 36 5 77 14 128c4 24 7 49 12 77l102 15l11 -11l-13 -99c-8 -61 12 -90 166 -90c241 0 287 8 298 66l19 96l12 9l108 -27l-12 -77c-6 -37 15 -57 54 -57h31c18 0 32 -48 32 -106c0 -59 -14 -106 -32 -106h-44c-62 0 -104 30 -123 76
c-52 -78 -157 -85 -364 -86zM411 -251l-120 53v18l48 105l120 -57v-16z" />
    <glyph glyph-name="uniFE92" unicode="&#x628;" horiz-adv-x="378" arabic-form="medial" 
d="M0 0c-18 0 -32 47 -32 106c0 58 14 106 32 106h50c69 0 95 7 104 56l19 96l12 9l108 -27l-12 -77c-6 -37 15 -57 54 -57h43c19 0 33 -48 33 -106c0 -59 -14 -106 -33 -106h-56c-62 0 -104 30 -123 76c-39 -60 -92 -74 -152 -75c-15 -1 -31 -1 -47 -1zM149 -251l-120 53
v18l49 105l120 -57v-16z" />
    <glyph glyph-name="uniFE91" unicode="&#x628;" horiz-adv-x="351" arabic-form="initial" 
d="M0 0c-18 0 -32 47 -32 106c0 58 14 106 32 106c51 0 116 6 165 22l-24 145l132 82l13 -9c16 -105 27 -174 27 -217c0 -79 -18 -141 -68 -177c-64 -45 -149 -58 -245 -58zM130 -247l-120 54v17l48 105l120 -56v-17z" />
    <glyph glyph-name="uniFB57" unicode="&#x67e;" horiz-adv-x="840" arabic-form="final" 
d="M309 -10c-214 0 -275 70 -271 192c1 36 5 77 14 128c4 24 7 49 12 77l102 15l11 -11l-13 -99c-8 -61 12 -90 166 -90c241 0 287 8 298 66l19 96l12 9l108 -27l-12 -77c-6 -37 15 -57 54 -57h31c18 0 32 -48 32 -106c0 -59 -14 -106 -32 -106h-44c-62 0 -104 30 -123 76
c-52 -78 -157 -85 -364 -86zM496 -238l-109 49v16l44 96l110 -52v-15zM350 -246l-110 49v16l44 96l110 -52v-15zM451 -369l-102 48v14l42 89l102 -49v-14z" />
    <glyph glyph-name="uniFB59" unicode="&#x67e;" horiz-adv-x="378" arabic-form="medial" 
d="M0 0c-18 0 -32 47 -32 106c0 58 14 106 32 106h50c69 0 95 7 104 56l19 96l12 9l108 -27l-12 -77c-6 -37 15 -57 54 -57h43c19 0 33 -48 33 -106c0 -59 -14 -106 -33 -106h-56c-62 0 -104 30 -123 76c-39 -60 -92 -74 -152 -75c-15 -1 -31 -1 -47 -1zM280 -224l-109 49
v16l44 96l109 -52v-15zM133 -232l-109 49v16l44 96l109 -52v-15zM234 -354l-101 47v15l42 88l102 -49l-1 -14z" />
    <glyph glyph-name="uniFB58" unicode="&#x67e;" horiz-adv-x="351" arabic-form="initial" 
d="M0 0c-18 0 -32 47 -32 106c0 58 14 106 32 106c51 0 116 6 165 22l-24 145l132 82l13 -9c16 -105 27 -174 27 -217c0 -79 -18 -141 -68 -177c-64 -45 -149 -58 -245 -58zM266 -222l-109 49v16l44 96l110 -51v-15zM120 -230l-110 49v16l44 96l110 -51v-15zM221 -352
l-102 47v15l42 89l102 -50v-14z" />
    <glyph glyph-name="uniFB5A" unicode="&#x680;" horiz-adv-x="808" arabic-form="isolated" 
d="M743 452c16 -105 27 -174 27 -217c0 -74 -14 -136 -62 -171c-74 -54 -242 -74 -399 -74c-214 0 -275 70 -271 192c1 40 7 85 16 145c3 19 6 39 10 60l102 15l11 -11l-13 -99c-8 -61 12 -90 166 -90c146 0 239 15 292 32l-24 145l132 82zM402 -138l30 65l110 -51v-15
l-43 -92l43 -20v-15l-44 -95l-110 49v8l-30 -65l-110 49v16l42 92l-42 19v16l44 96l110 -51v-6zM430 -204l-42 19v8l-29 -62l43 -20v-6z" />
    <glyph glyph-name="uniFB5B" unicode="&#x680;" horiz-adv-x="840" arabic-form="final" 
d="M840 212c18 0 32 -48 32 -106c0 -59 -14 -106 -32 -106h-44c-62 0 -104 30 -123 76c-52 -78 -157 -85 -364 -86c-214 0 -275 70 -271 192c1 36 5 77 14 128c4 24 7 49 12 77l102 15l11 -11l-13 -99c-8 -61 12 -90 166 -90c241 0 287 8 298 66l19 96l12 9l108 -27l-12 -77
c-6 -37 15 -57 54 -57h31zM402 -138l30 65l110 -51v-15l-43 -92l43 -20v-15l-44 -95l-110 49v8l-30 -65l-110 49v16l42 92l-42 19v16l44 96l110 -51v-6zM430 -204l-42 19v8l-29 -62l43 -20v-6z" />
    <glyph glyph-name="uniFB5D" unicode="&#x680;" horiz-adv-x="378" arabic-form="medial" 
d="M378 212c19 0 33 -48 33 -106c0 -59 -14 -106 -33 -106h-56c-62 0 -104 30 -123 76c-39 -60 -92 -74 -152 -75c-15 -1 -31 -1 -47 -1c-18 0 -32 47 -32 106c0 58 14 106 32 106h50c69 0 95 7 104 56l19 96l12 9l108 -27l-12 -77c-6 -37 15 -57 54 -57h43zM206 -123l30 65
l110 -52v-15l-43 -92l43 -20v-15l-44 -94l-110 49v7l-30 -64l-110 49v16l42 92l-42 19v16l44 96l110 -52v-5zM234 -189l-42 19v7l-29 -62l43 -20v-5z" />
    <glyph glyph-name="uniFB5C" unicode="&#x680;" horiz-adv-x="351" arabic-form="initial" 
d="M245 58c-64 -45 -149 -58 -245 -58c-18 0 -32 47 -32 106c0 58 14 106 32 106c51 0 116 6 165 22l-24 145l132 82l13 -9c16 -105 27 -174 27 -217c0 -79 -18 -141 -68 -177zM147 -125l31 67l109 -51v-15l-43 -92l43 -20v-15l-44 -94l-109 49v9l-31 -66l-109 49v16l43 92
l-43 19v16l44 95l109 -51v-8zM177 -188l-43 19v9l-30 -64l43 -20v-8z" />
    <glyph glyph-name="uniFBE9" unicode="&#x649;" horiz-adv-x="378" arabic-form="medial" 
d="M0 0c-18 0 -32 47 -32 106c0 58 14 106 32 106h50c69 0 95 7 104 56l19 96l12 9l108 -27l-12 -77c-6 -37 15 -57 54 -57h43c19 0 33 -48 33 -106c0 -59 -14 -106 -33 -106h-56c-62 0 -104 30 -123 76c-39 -60 -92 -74 -152 -75c-15 -1 -31 -1 -47 -1z" />
    <glyph glyph-name="uniFBE8" unicode="&#x649;" horiz-adv-x="351" arabic-form="initial" 
d="M0 0c-18 0 -32 47 -32 106c0 58 14 106 32 106c51 0 116 6 165 22l-24 145l132 82l13 -9c16 -105 27 -174 27 -217c0 -79 -18 -141 -68 -177c-64 -45 -149 -58 -245 -58z" />
    <glyph glyph-name="uniFE96" unicode="&#x62a;" horiz-adv-x="840" arabic-form="final" 
d="M384 443l-33 -71l-110 49v16l44 96l110 -52v-12l33 72l110 -52v-15l-44 -94l-110 49v14zM840 212c18 0 32 -48 32 -106c0 -59 -14 -106 -32 -106h-44c-62 0 -104 30 -123 76c-52 -78 -157 -85 -364 -86c-214 0 -275 70 -271 192c1 36 5 77 14 128c4 24 7 49 12 77l102 15
l11 -11l-13 -99c-8 -61 12 -90 166 -90c241 0 287 8 298 66l19 96l12 9l108 -27l-12 -77c-6 -37 15 -57 54 -57h31z" />
    <glyph glyph-name="uniFE98" unicode="&#x62a;" horiz-adv-x="378" arabic-form="medial" 
d="M173 514l-33 -71l-110 49v16l44 96l110 -52v-12l33 72l110 -52v-15l-44 -94l-110 49v14zM378 212c19 0 33 -48 33 -106c0 -59 -14 -106 -33 -106h-56c-62 0 -104 30 -123 76c-39 -60 -92 -74 -152 -75c-15 -1 -31 -1 -47 -1c-18 0 -32 47 -32 106c0 58 14 106 32 106h50
c69 0 95 7 104 56l19 96l12 9l108 -27l-12 -77c-6 -37 15 -57 54 -57h43z" />
    <glyph glyph-name="uniFE97" unicode="&#x62a;" horiz-adv-x="351" arabic-form="initial" 
d="M120 571l-33 -71l-110 49v16l44 96l110 -52v-12l33 72l110 -52v-15l-44 -94l-110 49v14zM286 452c16 -105 27 -174 27 -217c0 -79 -18 -141 -68 -177c-64 -45 -149 -58 -245 -58c-18 0 -32 47 -32 106c0 58 14 106 32 106c51 0 116 6 165 22l-24 145l132 82z" />
    <glyph glyph-name="uni067C.init" unicode="&#x67c;" horiz-adv-x="351" 
d="M120 571l-33 -71l-110 49v16l44 96l110 -52v-12l33 72l110 -52v-15l-44 -94l-110 49v14zM286 452c16 -105 27 -174 27 -217c0 -79 -18 -141 -68 -177c-13 -9 -26 -17 -40 -23c9 -14 15 -30 15 -48c0 -45 -36 -81 -81 -81s-81 36 -81 81c0 5 0 10 1 15
c-19 -1 -39 -2 -59 -2c-18 0 -32 47 -32 106c0 58 14 106 32 106c51 0 116 6 165 22l-24 145l132 82zM139 -37c13 0 24 11 24 24s-11 25 -24 25s-24 -12 -24 -25s11 -24 24 -24z" />
    <glyph glyph-name="uni067C.medi" unicode="&#x67c;" horiz-adv-x="378" 
d="M173 514l-33 -71l-110 49v16l44 96l110 -52v-12l33 72l110 -52v-15l-44 -94l-110 49v14zM378 212c19 0 33 -48 33 -106c0 -59 -14 -106 -33 -106h-56c-62 0 -104 30 -123 76c-10 -15 -20 -27 -31 -36c13 -15 21 -34 21 -55c0 -45 -36 -81 -81 -81s-81 36 -81 81
c0 5 0 10 1 15h-28c-18 0 -32 47 -32 106c0 58 14 106 32 106h50c69 0 95 7 104 56l19 96l12 9l108 -27l-12 -77c-6 -37 15 -57 54 -57h43zM132 -15c0 12 -10 23 -22 24l-14 -3c-8 -5 -13 -12 -13 -21c0 -13 12 -25 25 -25s24 12 24 25z" />
    <glyph glyph-name="uni067C.fina" unicode="&#x67c;" horiz-adv-x="840" 
d="M384 443l-33 -71l-110 49v16l44 96l110 -52v-12l33 72l110 -52v-15l-44 -94l-110 49v14zM840 212c18 0 32 -48 32 -106c0 -59 -14 -106 -32 -106h-44c-62 0 -104 30 -123 76c-52 -78 -156 -85 -362 -86c3 -8 4 -16 4 -24c0 -45 -36 -81 -81 -81s-81 36 -81 81
c0 15 4 28 10 40c-97 27 -128 88 -125 176c1 36 5 77 14 128c4 24 7 49 12 77l102 15l11 -11l-13 -99c-8 -61 12 -90 166 -90c241 0 287 8 298 66l19 96l12 9l108 -27l-12 -77c-6 -37 15 -57 54 -57h31zM234 -58c13 0 25 11 25 24s-12 24 -25 24s-24 -11 -24 -24
s11 -24 24 -24z" />
    <glyph glyph-name="uni067D.init" unicode="&#x67d;" horiz-adv-x="351" 
d="M240 590l-109 49v16l44 96l110 -52v-15zM93 582l-109 49v16l44 96l110 -52v-15zM194 460l-101 47v15l42 88l102 -49v-14zM0 0c-18 0 -32 47 -32 106c0 58 14 106 32 106c51 0 116 6 165 22l-24 145l132 82l13 -9c16 -105 27 -174 27 -217c0 -79 -18 -141 -68 -177
c-64 -45 -149 -58 -245 -58z" />
    <glyph glyph-name="uni067D.medi" unicode="&#x67d;" horiz-adv-x="378" 
d="M311 537l-110 49v16l44 96l110 -52v-15zM164 529l-110 49v16l45 96l109 -52v-15zM265 407l-102 47l1 15l42 88l101 -49v-14zM0 0c-18 0 -32 47 -32 106c0 58 14 106 32 106h50c69 0 95 7 104 56l19 96l12 9l108 -27l-12 -77c-6 -37 15 -57 54 -57h43c19 0 33 -48 33 -106
c0 -59 -14 -106 -33 -106h-56c-62 0 -104 30 -123 76c-39 -60 -92 -74 -152 -75c-15 -1 -31 -1 -47 -1z" />
    <glyph glyph-name="uni067D.fina" unicode="&#x67d;" horiz-adv-x="840" 
d="M485 423l-109 50v16l44 95l110 -51v-15zM339 415l-110 50v16l44 95l110 -51v-15zM440 293l-102 47v15l42 89l102 -49v-15zM309 -10c-214 0 -275 70 -271 192c1 36 5 77 14 128c4 24 7 49 12 77l102 15l11 -11l-13 -99c-8 -61 12 -90 166 -90c241 0 287 8 298 66l19 96
l12 9l108 -27l-12 -77c-6 -37 15 -57 54 -57h31c18 0 32 -48 32 -106c0 -59 -14 -106 -32 -106h-44c-62 0 -104 30 -123 76c-52 -78 -157 -85 -364 -86z" />
    <glyph glyph-name="uniFE9A" unicode="&#x62b;" horiz-adv-x="840" arabic-form="final" 
d="M452 609l-41 -84l-98 45v15l41 85l98 -47v-14zM409 438l-30 -63l-109 49v16l44 96l110 -51v-4l29 63l109 -51v-15l-44 -95l-109 49v6zM840 212c18 0 32 -48 32 -106c0 -59 -14 -106 -32 -106h-44c-62 0 -104 30 -123 76c-52 -78 -157 -85 -364 -86
c-214 0 -275 70 -271 192c1 36 5 77 14 128c4 24 7 49 12 77l102 15l11 -11l-13 -99c-8 -61 12 -90 166 -90c241 0 287 8 298 66l19 96l12 9l108 -27l-12 -77c-6 -37 15 -57 54 -57h31z" />
    <glyph glyph-name="uniFE9C" unicode="&#x62b;" horiz-adv-x="378" arabic-form="medial" 
d="M229 676l-41 -84l-98 45v14l41 86l98 -48v-13zM186 505l-30 -63l-109 49v16l44 96l110 -52v-3l29 63l109 -52v-15l-44 -94l-109 49v6zM378 212c19 0 33 -48 33 -106c0 -59 -14 -106 -33 -106h-56c-62 0 -104 30 -123 76c-39 -60 -92 -74 -152 -75c-15 -1 -31 -1 -47 -1
c-18 0 -32 47 -32 106c0 58 14 106 32 106h50c69 0 95 7 104 56l19 96l12 9l108 -27l-12 -77c-6 -37 15 -57 54 -57h43z" />
    <glyph glyph-name="uniFE9B" unicode="&#x62b;" horiz-adv-x="351" arabic-form="initial" 
d="M181 737l-41 -84l-98 46v14l41 86l98 -48v-14zM137 566l-29 -62l-109 49v16l44 95l109 -51v-4l30 63l109 -51v-15l-44 -94l-110 49v5zM286 452c16 -105 27 -174 27 -217c0 -79 -18 -141 -68 -177c-64 -45 -149 -58 -245 -58c-18 0 -32 47 -32 106c0 58 14 106 32 106
c51 0 116 6 165 22l-24 145l132 82z" />
    <glyph glyph-name="uniFB66" unicode="&#x679;" horiz-adv-x="808" arabic-form="isolated" 
d="M230 460h45l31 39l-1 217l62 16v-160c10 11 21 19 31 26c19 12 40 18 64 18c66 0 101 -57 101 -114c0 -78 -60 -125 -191 -125h-129zM347 460h30c69 0 105 7 128 23c-1 38 -18 55 -51 55c-21 0 -30 -1 -49 -5zM309 -10c-214 0 -275 70 -271 192c1 40 7 85 16 145
c3 19 6 39 10 60l102 15l11 -11l-13 -99c-8 -61 12 -90 166 -90c146 0 239 15 292 32l-24 145l132 82l13 -9c16 -105 27 -174 27 -217c0 -74 -14 -136 -62 -171c-74 -54 -242 -74 -399 -74z" />
    <glyph glyph-name="uniFB67" unicode="&#x679;" horiz-adv-x="840" arabic-form="final" 
d="M253 460h45l31 39l-1 217l62 16v-160c10 11 20 19 31 26c18 12 40 18 64 18c66 0 101 -57 101 -114c0 -78 -60 -125 -191 -125h-130zM370 460h30c68 0 105 7 128 23c-2 38 -19 55 -51 55c-21 0 -31 -1 -49 -5zM309 -10c-214 0 -275 70 -271 192c1 36 5 77 14 128
c4 24 7 49 12 77l102 15l11 -11l-13 -99c-8 -61 12 -90 166 -90c241 0 287 8 298 66l19 96l12 9l108 -27l-12 -77c-6 -37 15 -57 54 -57h31c18 0 32 -48 32 -106c0 -59 -14 -106 -32 -106h-44c-62 0 -104 30 -123 76c-52 -78 -157 -85 -364 -86z" />
    <glyph glyph-name="uniFB69" unicode="&#x679;" horiz-adv-x="378" arabic-form="medial" 
d="M31 528h45l31 39l-1 218l62 15v-159c10 10 20 19 31 25c18 12 40 18 64 18c66 0 101 -57 101 -114c0 -78 -60 -125 -191 -125h-130zM148 528h29c69 0 106 7 129 23c-2 38 -19 55 -51 55c-21 0 -31 -1 -49 -5zM0 0c-18 0 -32 47 -32 106c0 58 14 106 32 106h50
c69 0 95 7 104 56l19 96l12 9l108 -27l-12 -77c-6 -37 15 -57 54 -57h43c19 0 33 -48 33 -106c0 -59 -14 -106 -33 -106h-56c-62 0 -104 30 -123 76c-39 -60 -92 -74 -152 -75c-15 -1 -31 -1 -47 -1z" />
    <glyph glyph-name="uniFB68" unicode="&#x679;" horiz-adv-x="351" arabic-form="initial" 
d="M-13 562h41l28 35l-1 198l56 13v-144c9 9 19 17 28 23c17 11 36 16 58 16c61 0 92 -51 92 -103c0 -71 -54 -114 -173 -114h-118zM93 562h27c63 0 96 6 116 21c-1 34 -16 50 -46 50c-19 0 -28 -1 -44 -5zM0 0c-18 0 -32 47 -32 106c0 58 14 106 32 106c51 0 116 6 165 22
l-24 145l132 82l13 -9c16 -105 27 -174 27 -217c0 -79 -18 -141 -68 -177c-64 -45 -149 -58 -245 -58z" />
    <glyph glyph-name="uniFB5E" unicode="&#x67a;" horiz-adv-x="808" arabic-form="isolated" 
d="M459 433l-44 -94l-109 49v16l43 95l-43 19v16l44 96l109 -52v-15l-44 -94l44 -21v-15zM743 452c16 -105 27 -174 27 -217c0 -74 -14 -136 -62 -171c-74 -54 -242 -74 -399 -74c-214 0 -275 70 -271 192c1 40 7 85 16 145c3 19 6 39 10 60l102 15l11 -11l-13 -99
c-8 -61 12 -90 166 -90c146 0 239 15 292 32l-24 145l132 82z" />
    <glyph glyph-name="uniFB5F" unicode="&#x67a;" horiz-adv-x="840" arabic-form="final" 
d="M478 433l-44 -94l-110 49v16l43 95l-43 19v16l44 96l110 -52v-15l-44 -94l-7 3l51 -24v-15zM840 212c18 0 32 -48 32 -106c0 -59 -14 -106 -32 -106h-44c-62 0 -104 30 -123 76c-52 -78 -157 -85 -364 -86c-214 0 -275 70 -271 192c1 36 5 77 14 128c4 24 7 49 12 77
l102 15l11 -11l-13 -99c-8 -61 12 -90 166 -90c241 0 287 8 298 66l19 96l12 9l108 -27l-12 -77c-6 -37 15 -57 54 -57h31z" />
    <glyph glyph-name="uniFB61" unicode="&#x67a;" horiz-adv-x="378" arabic-form="medial" 
d="M292 512l-45 -94l-109 49v16l43 95l-43 19v16l44 95l110 -51v-15l-45 -94l45 -21v-15zM378 212c19 0 33 -48 33 -106c0 -59 -14 -106 -33 -106h-56c-62 0 -104 30 -123 76c-39 -60 -92 -74 -152 -75c-15 -1 -31 -1 -47 -1c-18 0 -32 47 -32 106c0 58 14 106 32 106h50
c69 0 95 7 104 56l19 96l12 9l108 -27l-12 -77c-6 -37 15 -57 54 -57h43z" />
    <glyph glyph-name="uniFB60" unicode="&#x67a;" horiz-adv-x="351" arabic-form="initial" 
d="M229 568l-44 -94l-109 49v16l43 95l-43 19v16l44 95l109 -51v-15l-44 -94l44 -21v-15zM286 452c16 -105 27 -174 27 -217c0 -79 -18 -141 -68 -177c-64 -45 -149 -58 -245 -58c-18 0 -32 47 -32 106c0 58 14 106 32 106c51 0 116 6 165 22l-24 145l132 82z" />
    <glyph glyph-name="uniFE9E" unicode="&#x62c;" horiz-adv-x="709" arabic-form="final" 
d="M709 212c18 0 32 -48 32 -106c0 -59 -14 -106 -32 -106h-77c-100 0 -158 34 -187 114l-31 72l-87 -49c-34 -19 -61 -37 -82 -53c-42 -32 -64 -63 -81 -98c16 -85 108 -115 264 -101l188 18l7 -12l-37 -171l-151 -15c-232 -26 -380 67 -379 250c0 117 68 218 212 315
c17 13 36 26 56 38l-115 30c-11 2 -18 4 -24 4c-12 0 -23 -6 -29 -17l-35 -55h-12l-71 83l43 82c25 45 57 72 107 72c54 0 212 -60 363 -94c43 -10 73 -16 99 -21l6 -13l-54 -150l-73 11c11 -25 31 -28 68 -28h112zM281 -11l45 96l109 -51v-15l-44 -95l-110 49v16z" />
    <glyph glyph-name="uniFEA0" unicode="&#x62c;" horiz-adv-x="697" arabic-form="medial" 
d="M697 212c18 0 32 -48 32 -106c0 -59 -14 -106 -32 -106h-70c-100 0 -161 33 -186 114l-17 46l-75 -58c-88 -66 -182 -102 -281 -102h-68c-18 0 -32 47 -32 106c0 58 14 106 32 106h105c73 0 136 13 203 56l46 27l-130 42c-11 3 -17 5 -23 5c-12 0 -23 -7 -30 -18l-35 -54
h-11l-72 83l45 82c24 45 57 72 106 72c54 -1 224 -68 348 -98c26 -7 46 -11 64 -15l45 -9l6 -13l-55 -150l-88 14l-4 -3c11 -19 30 -21 67 -21h110zM231 -114l49 105l120 -56v-17l-49 -103l-120 54v17z" />
    <glyph glyph-name="uniFE9F" unicode="&#x62c;" horiz-adv-x="705" arabic-form="initial" 
d="M0 0c-18 0 -32 47 -32 106c0 58 14 106 32 106h105c73 0 136 13 203 56l46 27l-130 42c-11 3 -17 5 -23 5c-12 0 -23 -7 -30 -18l-35 -54h-11l-72 83l45 82c24 45 57 72 106 72c54 -1 224 -68 348 -98c26 -7 46 -11 64 -15l45 -9l6 -13l-55 -150l-88 14l-175 -134
c-88 -66 -182 -102 -281 -102h-68zM371 -184l-120 54v17l48 105l120 -57v-16z" />
    <glyph glyph-name="uniFB7B" unicode="&#x686;" horiz-adv-x="709" arabic-form="final" 
d="M709 212c18 0 32 -48 32 -106c0 -59 -14 -106 -32 -106h-77c-100 0 -158 34 -187 114l-31 72l-87 -49c-34 -19 -61 -37 -82 -53c-42 -32 -64 -63 -81 -98c16 -85 108 -115 264 -101l188 18l7 -12l-37 -171l-151 -15c-232 -26 -380 67 -379 250c0 117 68 218 212 315
c17 13 36 26 56 38l-115 30c-11 2 -18 4 -24 4c-12 0 -23 -6 -29 -17l-35 -55h-12l-71 83l43 82c25 45 57 72 107 72c54 0 212 -60 363 -94c43 -10 73 -16 99 -21l6 -13l-54 -150l-73 11c11 -25 31 -28 68 -28h112zM459 46l-27 -59l-70 31v10l28 61l69 -33v-10zM362 51v-10
l-28 -59l-70 31v10l28 60zM427 -42l-27 -55l-65 30l1 9l26 56l65 -31v-9z" />
    <glyph glyph-name="uniFB7D" unicode="&#x686;" horiz-adv-x="697" arabic-form="medial" 
d="M697 212c18 0 32 -48 32 -106c0 -59 -14 -106 -32 -106h-70c-100 0 -161 33 -186 114l-17 46l-75 -58c-88 -66 -182 -102 -281 -102h-68c-18 0 -32 47 -32 106c0 58 14 106 32 106h105c73 0 136 13 203 56l46 27l-130 42c-11 3 -17 5 -23 5c-12 0 -23 -7 -30 -18l-35 -54
h-11l-72 83l45 82c24 45 57 72 106 72c54 -1 224 -68 348 -98c26 -7 46 -11 64 -15l45 -9l6 -13l-55 -150l-88 14l-4 -3c11 -19 30 -21 67 -21h110zM352 -100l44 96l109 -51v-15l-44 -95l-109 49v16zM358 -78l-44 -95l-109 49v16l44 96l109 -51v-15zM314 -233l42 89l102 -50
l-1 -14l-42 -87l-101 47v15z" />
    <glyph glyph-name="uniFB7C" unicode="&#x686;" horiz-adv-x="705" arabic-form="initial" 
d="M0 0c-18 0 -32 47 -32 106c0 58 14 106 32 106h105c73 0 136 13 203 56l46 27l-130 42c-11 3 -17 5 -23 5c-12 0 -23 -7 -30 -18l-35 -54h-11l-72 83l45 82c24 45 57 72 106 72c54 -1 224 -68 348 -98c26 -7 46 -11 64 -15l45 -9l6 -13l-55 -150l-88 14l-175 -134
c-88 -66 -182 -102 -281 -102h-68zM476 -164l-109 49v16l44 96l110 -52v-15zM330 -172l-110 49v16l44 96l110 -52v-15zM431 -295l-102 48v14l43 89l101 -49v-14z" />
    <glyph glyph-name="uniFB7E" unicode="&#x687;" horiz-adv-x="694" arabic-form="isolated" 
d="M428 -115l188 18l7 -12l-37 -171l-151 -15c-232 -26 -380 67 -379 250c0 117 68 218 212 315c17 13 36 26 56 38l-115 30c-11 2 -18 4 -24 4c-12 0 -23 -6 -29 -17l-35 -55h-12l-71 83l43 82c25 45 57 72 107 72c54 0 212 -61 354 -92c52 -12 82 -18 108 -23l6 -13
l-54 -150l-88 13l-187 -105c-34 -19 -61 -37 -82 -53c-42 -32 -64 -63 -81 -98c16 -85 108 -115 264 -101zM529 102v-12l-33 -71l33 -16v-12l-34 -74l-86 39v6l-24 -51l-85 38v13l33 72l-33 15v12l34 75l86 -40v-5l24 51zM443 40l-34 15v6l-23 -48l34 -16v-5z" />
    <glyph glyph-name="uniFB7F" unicode="&#x687;" horiz-adv-x="709" arabic-form="final" 
d="M709 212c18 0 32 -48 32 -106c0 -59 -14 -106 -32 -106h-77c-100 0 -158 34 -187 114l-31 72l-87 -49c-34 -19 -61 -37 -82 -53c-42 -32 -64 -63 -81 -98c16 -85 108 -115 264 -101l188 18l7 -12l-37 -171l-151 -15c-232 -26 -380 67 -379 250c0 117 68 218 212 315
c17 13 36 26 56 38l-115 30c-11 2 -18 4 -24 4c-12 0 -23 -6 -29 -17l-35 -55h-12l-71 83l43 82c25 45 57 72 107 72c54 0 212 -60 363 -94c43 -10 73 -16 99 -21l6 -13l-54 -150l-73 11c11 -25 31 -28 68 -28h112zM456 65v-10l-29 -62l29 -14v-10l-30 -64l-74 33v7l-21 -45
l-74 33v11l29 62l-29 13v11l30 65l74 -35v-5l21 45zM381 11l-29 13v7l-20 -43l29 -14v-6z" />
    <glyph glyph-name="uniFB81" unicode="&#x687;" horiz-adv-x="697" arabic-form="medial" 
d="M697 212c18 0 32 -48 32 -106c0 -59 -14 -106 -32 -106h-70c-100 0 -161 33 -186 114l-17 46l-75 -58c-88 -66 -182 -102 -281 -102h-68c-18 0 -32 47 -32 106c0 58 14 106 32 106h105c73 0 136 13 203 56l46 27l-130 42c-11 3 -17 5 -23 5c-12 0 -23 -7 -30 -18l-35 -54
h-11l-72 83l45 82c24 45 57 72 106 72c54 -1 224 -68 348 -98c26 -7 46 -11 64 -15l45 -9l6 -13l-55 -150l-88 14l-4 -3c11 -19 30 -21 67 -21h110zM353 -51l30 65l109 -52v-15l-43 -92l43 -20v-15l-44 -94l-109 49v8l-31 -65l-109 49v16l42 92l-42 19v16l44 96l110 -52v-5z
M381 -117l-42 19v8l-30 -62l44 -21v-5z" />
    <glyph glyph-name="uniFB80" unicode="&#x687;" horiz-adv-x="705" arabic-form="initial" 
d="M661 385l6 -13l-55 -150l-88 14l-175 -134c-88 -66 -182 -102 -281 -102h-68c-18 0 -32 47 -32 106c0 58 14 106 32 106h105c73 0 136 13 203 56l46 27l-130 42c-11 3 -17 5 -23 5c-12 0 -23 -7 -30 -18l-35 -54h-11l-72 83l45 82c24 45 57 72 106 72
c54 -1 224 -68 348 -98c26 -7 46 -11 64 -15zM372 -51l30 65l110 -52v-15l-44 -91l44 -21v-15l-45 -94l-109 49v7l-30 -64l-110 49v16l42 92l-42 19v16l44 96l110 -52v-5zM400 -117l-42 19v7l-29 -62l43 -20v-5z" />
    <glyph glyph-name="uniFB76" unicode="&#x683;" horiz-adv-x="694" arabic-form="isolated" 
d="M435 -295c-232 -26 -380 67 -379 250c0 117 68 218 212 315c17 13 36 26 56 38l-115 30c-11 2 -18 4 -24 4c-12 0 -23 -6 -29 -17l-35 -55h-12l-71 83l43 82c25 45 57 72 107 72c54 0 212 -61 354 -92c52 -12 82 -18 108 -23l6 -13l-54 -150l-88 13l-187 -105
c-34 -19 -61 -37 -82 -53c-42 -32 -64 -63 -81 -98c16 -85 108 -115 264 -101l188 18l7 -12l-37 -171zM453 104l104 -49v-14l-42 -89l-103 46v14l-32 -68l-103 47v15l42 90l103 -49v-12z" />
    <glyph glyph-name="uniFB77" unicode="&#x683;" horiz-adv-x="709" arabic-form="final" 
d="M709 212c18 0 32 -48 32 -106c0 -59 -14 -106 -32 -106h-77c-100 0 -158 34 -187 114l-31 72l-87 -49c-34 -19 -61 -37 -82 -53c-42 -32 -64 -63 -81 -98c16 -85 108 -115 264 -101l188 18l7 -12l-37 -171l-151 -15c-232 -26 -380 67 -379 250c0 117 68 218 212 315
c17 13 36 26 56 38l-115 30c-11 2 -18 4 -24 4c-12 0 -23 -6 -29 -17l-35 -55h-12l-71 83l43 82c25 45 57 72 107 72c54 0 212 -60 363 -94c43 -10 73 -16 99 -21l6 -13l-54 -150l-73 11c11 -25 31 -28 68 -28h112zM459 -75l-97 44v12l-30 -63l-98 44v14l40 85l97 -46v-11
l30 64l98 -46v-13z" />
    <glyph glyph-name="uniFB79" unicode="&#x683;" horiz-adv-x="697" arabic-form="medial" 
d="M697 212c18 0 32 -48 32 -106c0 -59 -14 -106 -32 -106h-70c-100 0 -161 33 -186 114l-17 46l-75 -58c-88 -66 -182 -102 -281 -102h-68c-18 0 -32 47 -32 106c0 58 14 106 32 106h105c73 0 136 13 203 56l46 27l-130 42c-11 3 -17 5 -23 5c-12 0 -23 -7 -30 -18l-35 -54
h-11l-72 83l45 82c24 45 57 72 106 72c54 -1 224 -68 348 -98c26 -7 46 -11 64 -15l45 -9l6 -13l-55 -150l-88 14l-4 -3c11 -19 30 -21 67 -21h110zM330 -81l33 73l110 -52v-15l-44 -94l-110 49v14l-33 -71l-110 49v16l44 96l110 -52v-13z" />
    <glyph glyph-name="uniFB78" unicode="&#x683;" horiz-adv-x="705" arabic-form="initial" 
d="M0 0c-18 0 -32 47 -32 106c0 58 14 106 32 106h105c73 0 136 13 203 56l46 27l-130 42c-11 3 -17 5 -23 5c-12 0 -23 -7 -30 -18l-35 -54h-11l-72 83l45 82c24 45 57 72 106 72c54 -1 224 -68 348 -98c26 -7 46 -11 64 -15l45 -9l6 -13l-55 -150l-88 14l-175 -134
c-88 -66 -182 -102 -281 -102h-68zM363 -8l110 -52v-15l-44 -94l-110 49v14l-33 -71l-110 49v16l44 96l110 -52v-13z" />
    <glyph glyph-name="uniFB72" unicode="&#x684;" horiz-adv-x="694" arabic-form="isolated" 
d="M428 -115l188 18l7 -12l-37 -171l-151 -15c-232 -26 -380 67 -379 250c0 117 68 218 212 315c17 13 36 26 56 38l-115 30c-11 2 -18 4 -24 4c-12 0 -23 -6 -29 -17l-35 -55h-12l-71 83l43 82c25 45 57 72 107 72c54 0 212 -61 354 -92c52 -12 82 -18 108 -23l6 -13
l-54 -150l-88 13l-187 -105c-34 -19 -61 -37 -82 -53c-42 -32 -64 -63 -81 -98c16 -85 108 -115 264 -101zM457 95v-12l-35 -75l35 -16v-12l-35 -76l-88 39v13l35 75l-35 16v13l36 77z" />
    <glyph glyph-name="uniFB73" unicode="&#x684;" horiz-adv-x="709" arabic-form="final" 
d="M709 212c18 0 32 -48 32 -106c0 -59 -14 -106 -32 -106h-77c-100 0 -158 34 -187 114l-31 72l-87 -49c-34 -19 -61 -37 -82 -53c-42 -32 -64 -63 -81 -98c16 -85 108 -115 264 -101l188 18l7 -12l-37 -171l-151 -15c-232 -26 -380 67 -379 250c0 117 68 218 212 315
c17 13 36 26 56 38l-115 30c-11 2 -18 4 -24 4c-12 0 -23 -6 -29 -17l-35 -55h-12l-71 83l43 82c25 45 57 72 107 72c54 0 212 -60 363 -94c43 -10 73 -16 99 -21l6 -13l-54 -150l-73 11c11 -25 31 -28 68 -28h112zM396 62l-32 -68l32 -15v-11l-32 -69l-79 36v12l32 68
l-32 14v12l32 69l79 -37v-11z" />
    <glyph glyph-name="uniFB75" unicode="&#x684;" horiz-adv-x="697" arabic-form="medial" 
d="M697 212c18 0 32 -48 32 -106c0 -59 -14 -106 -32 -106h-70c-100 0 -161 33 -186 114l-17 46l-75 -58c-88 -66 -182 -102 -281 -102h-68c-18 0 -32 47 -32 106c0 58 14 106 32 106h105c73 0 136 13 203 56l46 27l-130 42c-11 3 -17 5 -23 5c-12 0 -23 -7 -30 -18l-35 -54
h-11l-72 83l45 82c24 45 57 72 106 72c54 -1 224 -68 348 -98c26 -7 46 -11 64 -15l45 -9l6 -13l-55 -150l-88 14l-4 -3c11 -19 30 -21 67 -21h110zM274 -86l44 96l110 -52v-15l-44 -94l-7 3l51 -24v-15l-44 -94l-110 49v16l43 95l-43 19v16z" />
    <glyph glyph-name="uniFB74" unicode="&#x684;" horiz-adv-x="705" arabic-form="initial" 
d="M661 385l6 -13l-55 -150l-88 14l-175 -134c-88 -66 -182 -102 -281 -102h-68c-18 0 -32 47 -32 106c0 58 14 106 32 106h105c73 0 136 13 203 56l46 27l-130 42c-11 3 -17 5 -23 5c-12 0 -23 -7 -30 -18l-35 -54h-11l-72 83l45 82c24 45 57 72 106 72
c54 -1 224 -68 348 -98c26 -7 46 -11 64 -15zM256 -86l45 96l109 -52v-15l-44 -94l44 -21v-15l-44 -94l-110 49v16l44 94l-44 20v16z" />
    <glyph glyph-name="uniFEA2" unicode="&#x62d;" horiz-adv-x="709" arabic-form="final" 
d="M709 212c18 0 32 -48 32 -106c0 -59 -14 -106 -32 -106h-77c-100 0 -158 34 -187 114l-31 72l-87 -49c-34 -19 -61 -37 -82 -53c-42 -32 -64 -63 -81 -98c16 -85 108 -115 264 -101l188 18l7 -12l-37 -171l-151 -15c-232 -26 -380 67 -379 250c0 117 68 218 212 315
c17 13 36 26 56 38l-115 30c-11 2 -18 4 -24 4c-12 0 -23 -6 -29 -17l-35 -55h-12l-71 83l43 82c25 45 57 72 107 72c54 0 212 -60 363 -94c43 -10 73 -16 99 -21l6 -13l-54 -150l-73 11c11 -25 31 -28 68 -28h112z" />
    <glyph glyph-name="uniFEA4" unicode="&#x62d;" horiz-adv-x="697" arabic-form="medial" 
d="M697 212c18 0 32 -48 32 -106c0 -59 -14 -106 -32 -106h-70c-100 0 -161 33 -186 114l-17 46l-75 -58c-88 -66 -182 -102 -281 -102h-68c-18 0 -32 47 -32 106c0 58 14 106 32 106h105c73 0 136 13 203 56l46 27l-130 42c-11 3 -17 5 -23 5c-12 0 -23 -7 -30 -18l-35 -54
h-11l-72 83l45 82c24 45 57 72 106 72c54 -1 224 -68 348 -98c26 -7 46 -11 64 -15l45 -9l6 -13l-55 -150l-88 14l-4 -3c11 -19 30 -21 67 -21h110z" />
    <glyph glyph-name="uniFEA3" unicode="&#x62d;" horiz-adv-x="705" arabic-form="initial" 
d="M0 0c-18 0 -32 47 -32 106c0 58 14 106 32 106h105c73 0 136 13 203 56l46 27l-130 42c-11 3 -17 5 -23 5c-12 0 -23 -7 -30 -18l-35 -54h-11l-72 83l45 82c24 45 57 72 106 72c54 -1 224 -68 348 -98c26 -7 46 -11 64 -15l45 -9l6 -13l-55 -150l-88 14l-175 -134
c-88 -66 -182 -102 -281 -102h-68z" />
    <glyph glyph-name="uni0681.init" unicode="&#x681;" horiz-adv-x="705" 
d="M77 542l19 93l30 13c-14 16 -22 40 -22 63c0 63 47 116 111 120c13 1 26 -1 39 -4l25 -6l1 -80c-8 2 -17 3 -25 4c-12 1 -22 2 -32 2c-20 0 -35 -2 -49 -5c-1 -6 -1 -11 -1 -16c1 -24 16 -37 39 -37c7 0 16 1 24 3l91 23l4 -5l-18 -93l-24 -7c-74 -25 -147 -51 -206 -72z
M0 0c-18 0 -32 47 -32 106c0 58 14 106 32 106h105c73 0 136 13 203 56l46 27l-130 42c-11 3 -17 5 -23 5c-12 0 -23 -7 -30 -18l-35 -54h-11l-72 83l45 82c24 45 57 72 106 72c54 -1 224 -68 348 -98c26 -7 46 -11 64 -15l45 -9l6 -13l-55 -150l-88 14l-175 -134
c-88 -66 -182 -102 -281 -102h-68z" />
    <glyph glyph-name="uni0681.medi" unicode="&#x681;" horiz-adv-x="697" 
d="M289 610c-74 -25 -147 -51 -206 -72l-6 4l19 93l30 13c-14 16 -22 40 -22 63c0 63 47 116 111 120c13 1 26 -1 39 -4l25 -6l1 -80c-8 2 -17 3 -25 4c-12 1 -22 2 -32 2c-20 0 -35 -2 -49 -5c-1 -6 -1 -11 -1 -16c1 -24 16 -37 39 -37c7 0 16 1 24 3l91 23l4 -5l-18 -93z
M697 212c18 0 32 -48 32 -106c0 -59 -14 -106 -32 -106h-70c-100 0 -161 33 -186 114l-17 46l-75 -58c-88 -66 -182 -102 -281 -102h-68c-18 0 -32 47 -32 106c0 58 14 106 32 106h105c73 0 136 13 203 56l46 27l-130 42c-11 3 -17 5 -23 5c-12 0 -23 -7 -30 -18l-35 -54
h-11l-72 83l45 82c24 45 57 72 106 72c54 -1 224 -68 348 -98c26 -7 46 -11 64 -15l45 -9l6 -13l-55 -150l-88 14l-4 -3c11 -19 30 -21 67 -21h110z" />
    <glyph glyph-name="uni0681.fina" unicode="&#x681;" horiz-adv-x="709" 
d="M289 610c-74 -25 -147 -51 -206 -72l-6 4l19 93l30 13c-14 16 -22 40 -22 63c0 63 47 116 111 120c13 1 26 -1 39 -4l25 -6l1 -80c-8 2 -17 3 -25 4c-12 1 -22 2 -32 2c-20 0 -35 -2 -49 -5c-1 -6 -1 -11 -1 -16c1 -24 16 -37 39 -37c7 0 16 1 24 3l91 23l4 -5l-18 -93z
M709 212c18 0 32 -48 32 -106c0 -59 -14 -106 -32 -106h-77c-100 0 -158 34 -187 114l-31 72l-87 -49c-34 -19 -61 -37 -82 -53c-42 -32 -64 -63 -81 -98c16 -85 108 -115 264 -101l188 18l7 -12l-37 -171l-151 -15c-232 -26 -380 67 -379 250c0 117 68 218 212 315
c17 13 36 26 56 38l-115 30c-11 2 -18 4 -24 4c-12 0 -23 -6 -29 -17l-35 -55h-12l-71 83l43 82c25 45 57 72 107 72c54 0 212 -60 363 -94c43 -10 73 -16 99 -21l6 -13l-54 -150l-73 11c11 -25 31 -28 68 -28h112z" />
    <glyph glyph-name="uni0685.init" unicode="&#x685;" horiz-adv-x="705" 
d="M216 785l-41 -85l-98 46v14l41 86l98 -48v-13zM217 720l110 -52v-15l-45 -94l-109 49v5l-29 -62l-110 49v16l44 96l110 -52v-4zM0 0c-18 0 -32 47 -32 106c0 58 14 106 32 106h105c73 0 136 13 203 56l46 27l-130 42c-11 3 -17 5 -23 5c-12 0 -23 -7 -30 -18l-35 -54h-11
l-72 83l45 82c24 45 57 72 106 72c54 -1 224 -68 348 -98c26 -7 46 -11 64 -15l45 -9l6 -13l-55 -150l-88 14l-175 -134c-88 -66 -182 -102 -281 -102h-68z" />
    <glyph glyph-name="uni0685.medi" unicode="&#x685;" horiz-adv-x="697" 
d="M216 785l-41 -85l-98 46v14l41 86l98 -48v-13zM173 613l-29 -62l-110 49v16l44 96l110 -52v-4l29 64l110 -52v-15l-45 -94l-109 49v5zM697 212c18 0 32 -48 32 -106c0 -59 -14 -106 -32 -106h-70c-100 0 -161 33 -186 114l-17 46l-75 -58c-88 -66 -182 -102 -281 -102
h-68c-18 0 -32 47 -32 106c0 58 14 106 32 106h105c73 0 136 13 203 56l46 27l-130 42c-11 3 -17 5 -23 5c-12 0 -23 -7 -30 -18l-35 -54h-11l-72 83l45 82c24 45 57 72 106 72c54 -1 224 -68 348 -98c26 -7 46 -11 64 -15l45 -9l6 -13l-55 -150l-88 14l-4 -3
c11 -19 30 -21 67 -21h110z" />
    <glyph glyph-name="uni0685.fina" unicode="&#x685;" horiz-adv-x="709" 
d="M216 783l-41 -84l-98 46v14l41 86l98 -48v-14zM173 612l-29 -63l-110 50v16l44 95l110 -51v-4l29 63l110 -51v-15l-45 -95l-109 50v5zM709 212c18 0 32 -48 32 -106c0 -59 -14 -106 -32 -106h-77c-100 0 -158 34 -187 114l-31 72l-87 -49c-34 -19 -61 -37 -82 -53
c-42 -32 -64 -63 -81 -98c16 -85 108 -115 264 -101l188 18l7 -12l-37 -171l-151 -15c-232 -26 -380 67 -379 250c0 117 68 218 212 315c17 13 36 26 56 38l-115 30c-11 2 -18 4 -24 4c-12 0 -23 -6 -29 -17l-35 -55h-12l-71 83l43 82c25 45 57 72 107 72
c54 0 212 -60 363 -94c43 -10 73 -16 99 -21l6 -13l-54 -150l-73 11c11 -25 31 -28 68 -28h112z" />
    <glyph glyph-name="uniFEA6" unicode="&#x62e;" horiz-adv-x="709" arabic-form="final" 
d="M266 662l-48 -103l-120 54v17l48 105l120 -56v-17zM709 212c18 0 32 -48 32 -106c0 -59 -14 -106 -32 -106h-77c-100 0 -158 34 -187 114l-31 72l-87 -49c-34 -19 -61 -37 -82 -53c-42 -32 -64 -63 -81 -98c16 -85 108 -115 264 -101l188 18l7 -12l-37 -171l-151 -15
c-232 -26 -380 67 -379 250c0 117 68 218 212 315c17 13 36 26 56 38l-115 30c-11 2 -18 4 -24 4c-12 0 -23 -6 -29 -17l-35 -55h-12l-71 83l43 82c25 45 57 72 107 72c54 0 212 -60 363 -94c43 -10 73 -16 99 -21l6 -13l-54 -150l-73 11c11 -25 31 -28 68 -28h112z" />
    <glyph glyph-name="uniFEA8" unicode="&#x62e;" horiz-adv-x="697" arabic-form="medial" 
d="M291 665l-48 -103l-120 54v17l49 105l119 -56v-17zM697 212c18 0 32 -48 32 -106c0 -59 -14 -106 -32 -106h-70c-100 0 -161 33 -186 114l-17 46l-75 -58c-88 -66 -182 -102 -281 -102h-68c-18 0 -32 47 -32 106c0 58 14 106 32 106h105c73 0 136 13 203 56l46 27
l-130 42c-11 3 -17 5 -23 5c-12 0 -23 -7 -30 -18l-35 -54h-11l-72 83l45 82c24 45 57 72 106 72c54 -1 224 -68 348 -98c26 -7 46 -11 64 -15l45 -9l6 -13l-55 -150l-88 14l-4 -3c11 -19 30 -21 67 -21h110z" />
    <glyph glyph-name="uniFEA7" unicode="&#x62e;" horiz-adv-x="705" arabic-form="initial" 
d="M243 562l-120 54v17l49 105l119 -56v-17zM0 0c-18 0 -32 47 -32 106c0 58 14 106 32 106h105c73 0 136 13 203 56l46 27l-130 42c-11 3 -17 5 -23 5c-12 0 -23 -7 -30 -18l-35 -54h-11l-72 83l45 82c24 45 57 72 106 72c54 -1 224 -68 348 -98c26 -7 46 -11 64 -15l45 -9
l6 -13l-55 -150l-88 14l-175 -134c-88 -66 -182 -102 -281 -102h-68z" />
    <glyph glyph-name="uniFEAA" unicode="&#x62f;" horiz-adv-x="554" arabic-form="final" 
d="M210 -10c-129 0 -183 40 -171 183l10 108l96 14l8 -8l-2 -49c-2 -35 15 -40 70 -40c29 0 67 8 95 19l-28 253l110 82l17 -8l25 -247c7 -72 33 -85 85 -85h29c18 0 32 -48 32 -106c0 -59 -14 -106 -32 -106h-51c-59 0 -102 25 -121 62c-32 -48 -102 -72 -172 -72z" />
    <glyph glyph-name="uniFEAC" unicode="&#x630;" horiz-adv-x="554" arabic-form="final" 
d="M339 582l-120 54v17l49 105l120 -56v-17zM210 -10c-129 0 -183 40 -171 183l10 108l96 14l8 -8l-2 -49c-2 -35 15 -40 70 -40c29 0 67 8 95 19l-28 253l110 82l17 -8l25 -247c7 -72 33 -85 85 -85h29c18 0 32 -48 32 -106c0 -59 -14 -106 -32 -106h-51
c-59 0 -102 25 -121 62c-32 -48 -102 -72 -172 -72z" />
    <glyph glyph-name="uniFB88" unicode="&#x688;" horiz-adv-x="528" arabic-form="isolated" 
d="M98 664h41l28 35l-1 197l56 14v-144c9 9 19 17 28 23c17 11 36 16 58 16c60 0 92 -52 92 -103c0 -71 -55 -114 -173 -114h-118zM204 664h27c62 0 95 6 116 21c-1 34 -16 49 -46 49c-19 0 -28 -1 -44 -4zM210 -10c-129 0 -183 40 -171 183l10 108l96 14l8 -8l-2 -49
c-1 -35 15 -40 70 -40c58 0 105 11 133 25c-27 41 -73 99 -146 198l111 132c96 -131 171 -219 171 -339c0 -134 -103 -224 -280 -224z" />
    <glyph glyph-name="uniFB89" unicode="&#x688;" horiz-adv-x="554" arabic-form="final" 
d="M141 662h40l28 36l-1 197l57 14v-145c9 10 18 18 27 23c18 11 37 17 59 17c60 0 91 -52 91 -103c0 -72 -54 -114 -173 -114h-117zM246 662h27c63 0 96 7 117 21c-2 34 -17 50 -47 50c-18 0 -27 -1 -44 -5zM210 -10c-129 0 -183 40 -171 183l10 108l96 14l8 -8l-2 -49
c-2 -35 15 -40 70 -40c29 0 67 8 95 19l-28 253l110 82l17 -8l25 -247c7 -72 33 -85 85 -85h29c18 0 32 -48 32 -106c0 -59 -14 -106 -32 -106h-51c-59 0 -102 25 -121 62c-32 -48 -102 -72 -172 -72z" />
    <glyph glyph-name="uniFB84" unicode="&#x68c;" horiz-adv-x="528" arabic-form="isolated" 
d="M293 773l109 -52v-15l-44 -94l-110 49v14l-33 -71l-110 49v16l45 96l109 -52v-13zM210 -10c-129 0 -183 40 -171 183l10 108l96 14l8 -8l-2 -49c-1 -35 15 -40 70 -40c58 0 105 11 133 25c-27 41 -73 99 -146 198l111 132c96 -131 171 -219 171 -339
c0 -134 -103 -224 -280 -224z" />
    <glyph glyph-name="uniFB85" unicode="&#x68c;" horiz-adv-x="554" arabic-form="final" 
d="M373 754l110 -51v-15l-44 -95l-110 49v15l-33 -72l-110 49v16l44 96l110 -51v-13zM210 -10c-129 0 -183 40 -171 183l10 108l96 14l8 -8l-2 -49c-2 -35 15 -40 70 -40c29 0 67 8 95 19l-28 253l110 82l17 -8l25 -247c7 -72 33 -85 85 -85h29c18 0 32 -48 32 -106
c0 -59 -14 -106 -32 -106h-51c-59 0 -102 25 -121 62c-32 -48 -102 -72 -172 -72z" />
    <glyph glyph-name="uniFB82" unicode="&#x68d;" horiz-adv-x="528" arabic-form="isolated" 
d="M210 -10c-129 0 -183 40 -171 183l10 108l96 14l8 -8l-2 -49c-1 -35 15 -40 70 -40c58 0 105 11 133 25c-27 41 -73 99 -146 198l111 132c96 -131 171 -219 171 -339c0 -134 -103 -224 -280 -224zM262 -72l110 -52v-15l-44 -94l-110 49v14l-33 -71l-110 49v16l44 96
l110 -52v-12z" />
    <glyph glyph-name="uniFB83" unicode="&#x68d;" horiz-adv-x="554" arabic-form="final" 
d="M210 -10c-129 0 -183 40 -171 183l10 108l96 14l8 -8l-2 -49c-2 -35 15 -40 70 -40c29 0 67 8 95 19l-28 253l110 82l17 -8l25 -247c7 -72 33 -85 85 -85h29c18 0 32 -48 32 -106c0 -59 -14 -106 -32 -106h-51c-59 0 -102 25 -121 62c-32 -48 -102 -72 -172 -72zM262 -72
l110 -52v-15l-44 -94l-110 49v14l-33 -71l-110 49v16l44 96l110 -52v-12z" />
    <glyph glyph-name="uni0689.fina" unicode="&#x689;" horiz-adv-x="554" 
d="M554 212c18 0 32 -48 32 -106c0 -59 -14 -106 -32 -106h-51c-59 0 -102 25 -121 62c-23 -34 -64 -56 -111 -66c4 -9 6 -19 6 -30c0 -45 -36 -81 -81 -81s-81 36 -81 81c0 12 3 24 7 34c-65 19 -92 68 -83 173l10 108l96 14l8 -8l-2 -49c-2 -35 15 -40 70 -40
c29 0 67 8 95 19l-28 253l110 82l17 -8l25 -247c7 -72 33 -85 85 -85h29zM196 -58c13 0 24 11 24 24s-11 24 -24 24s-24 -11 -24 -24s11 -24 24 -24z" />
    <glyph glyph-name="uni068A.fina" unicode="&#x68a;" horiz-adv-x="554" 
d="M210 -10c-129 0 -183 40 -171 183l10 108l96 14l8 -8l-2 -49c-2 -35 15 -40 70 -40c29 0 67 8 95 19l-28 253l110 82l17 -8l25 -247c7 -72 33 -85 85 -85h29c18 0 32 -48 32 -106c0 -59 -14 -106 -32 -106h-51c-59 0 -102 25 -121 62c-32 -48 -102 -72 -172 -72z
M259 -235l-120 54v17l48 105l120 -57v-16z" />
    <glyph glyph-name="uni068B.fina" unicode="&#x68b;" horiz-adv-x="554" 
d="M141 662h40l28 36l-1 197l57 14v-145c9 10 18 18 27 23c18 11 37 17 59 17c60 0 91 -52 91 -103c0 -72 -54 -114 -173 -114h-117zM246 662h27c63 0 96 7 117 21c-2 34 -17 50 -47 50c-18 0 -27 -1 -44 -5zM210 -10c-129 0 -183 40 -171 183l10 108l96 14l8 -8l-2 -49
c-2 -35 15 -40 70 -40c29 0 67 8 95 19l-28 253l110 82l17 -8l25 -247c7 -72 33 -85 85 -85h29c18 0 32 -48 32 -106c0 -59 -14 -106 -32 -106h-51c-59 0 -102 25 -121 62c-32 -48 -102 -72 -172 -72zM239 -266l-120 54v17l48 105l120 -57v-16z" />
    <glyph glyph-name="uniFB86" unicode="&#x68e;" horiz-adv-x="528" arabic-form="isolated" 
d="M286 832l-41 -84l-98 46v14l41 86l98 -48v-14zM287 767l109 -51v-15l-44 -95l-110 50v5l-29 -63l-109 50v16l44 95l109 -51v-4zM210 -10c-129 0 -183 40 -171 183l10 108l96 14l8 -8l-2 -49c-1 -35 15 -40 70 -40c58 0 105 11 133 25c-27 41 -73 99 -146 198l111 132
c96 -131 171 -219 171 -339c0 -134 -103 -224 -280 -224z" />
    <glyph glyph-name="uniFB87" unicode="&#x68e;" horiz-adv-x="554" arabic-form="final" 
d="M360 826l-41 -84l-98 45v15l41 86l98 -48v-14zM361 761l109 -51v-15l-44 -95l-109 49v6l-30 -63l-109 49v16l44 96l110 -51v-4zM210 -10c-129 0 -183 40 -171 183l10 108l96 14l8 -8l-2 -49c-2 -35 15 -40 70 -40c29 0 67 8 95 19l-28 253l110 82l17 -8l25 -247
c7 -72 33 -85 85 -85h29c18 0 32 -48 32 -106c0 -59 -14 -106 -32 -106h-51c-59 0 -102 25 -121 62c-32 -48 -102 -72 -172 -72z" />
    <glyph glyph-name="uni068F.fina" unicode="&#x68f;" horiz-adv-x="554" 
d="M395 695l-110 49v16l44 96l110 -52v-15zM248 687l-110 49v16l44 96l110 -52v-15zM349 565l-102 47v15l43 88l101 -49v-14zM210 -10c-129 0 -183 40 -171 183l10 108l96 14l8 -8l-2 -49c-2 -35 15 -40 70 -40c29 0 67 8 95 19l-28 253l110 82l17 -8l25 -247
c7 -72 33 -85 85 -85h29c18 0 32 -48 32 -106c0 -59 -14 -106 -32 -106h-51c-59 0 -102 25 -121 62c-32 -48 -102 -72 -172 -72z" />
    <glyph glyph-name="uni0690.fina" unicode="&#x690;" horiz-adv-x="554" 
d="M265 644l-30 -64l-110 49v16l43 92l-43 19v16l45 96l109 -52v-6l31 66l109 -52v-15l-43 -92l43 -20v-15l-44 -94l-110 49v7zM236 709l43 -20v-6l29 62l-43 19v7zM554 212c18 0 32 -48 32 -106c0 -59 -14 -106 -32 -106h-51c-59 0 -102 25 -121 62
c-32 -48 -102 -72 -172 -72c-129 0 -183 40 -171 183l10 108l96 14l8 -8l-2 -49c-2 -35 15 -40 70 -40c29 0 67 8 95 19l-28 253l110 82l17 -8l25 -247c7 -72 33 -85 85 -85h29z" />
    <glyph glyph-name="uniFEAE" unicode="&#x631;" horiz-adv-x="449" arabic-form="final" 
d="M104 -240c-28 -1 -75 13 -128 37l-34 129l10 13c50 -4 77 -6 105 -5c80 4 132 55 171 103c-12 75 -26 145 -51 277l121 76l13 -8c6 -29 13 -58 19 -87c13 -59 23 -83 77 -83h42c18 0 32 -48 32 -106c0 -59 -14 -106 -32 -106h-29c-30 0 -55 7 -76 19c-1 -3 -1 -6 -2 -10
c-26 -136 -125 -245 -238 -249z" />
    <glyph glyph-name="uniFEB0" unicode="&#x632;" horiz-adv-x="449" arabic-form="final" 
d="M230 423l-120 54v17l48 105l120 -57v-16zM104 -240c-28 -1 -75 13 -128 37l-34 129l10 13c50 -4 77 -6 105 -5c80 4 132 55 171 103c-12 75 -26 145 -51 277l121 76l13 -8c6 -29 13 -58 19 -87c13 -59 23 -83 77 -83h42c18 0 32 -48 32 -106c0 -59 -14 -106 -32 -106h-29
c-30 0 -55 7 -76 19c-1 -3 -1 -6 -2 -10c-26 -136 -125 -245 -238 -249z" />
    <glyph glyph-name="uniFB8C" unicode="&#x691;" horiz-adv-x="393" arabic-form="isolated" 
d="M73 517h41l28 35l-2 197l57 14v-144c9 9 18 17 28 23c17 11 36 16 58 16c60 0 92 -52 92 -103c0 -71 -55 -114 -174 -114h-117zM178 517h28c62 0 95 6 116 21c-1 34 -17 49 -46 49c-19 0 -28 -1 -44 -4zM104 -240c-28 -1 -75 13 -128 37l-34 129l10 13
c50 -4 77 -6 105 -5c80 4 132 55 171 103c-12 75 -26 145 -51 277l121 76l13 -8c35 -157 44 -224 44 -274c0 -175 -107 -344 -251 -348z" />
    <glyph glyph-name="uniFB8D" unicode="&#x691;" horiz-adv-x="449" arabic-form="final" 
d="M73 517h41l28 35l-2 197l57 14v-144c9 9 18 17 28 23c17 11 36 16 58 16c60 0 92 -52 92 -103c0 -71 -55 -114 -174 -114h-117zM178 517h28c62 0 95 6 116 21c-1 34 -17 49 -46 49c-19 0 -28 -1 -44 -4zM104 -240c-28 -1 -75 13 -128 37l-34 129l10 13
c50 -4 77 -6 105 -5c80 4 132 55 171 103c-12 75 -26 145 -51 277l121 76l13 -8c6 -29 13 -58 19 -87c13 -59 23 -83 77 -83h42c18 0 32 -48 32 -106c0 -59 -14 -106 -32 -106h-29c-30 0 -55 7 -76 19c-1 -3 -1 -6 -2 -10c-26 -136 -125 -245 -238 -249z" />
    <glyph glyph-name="uni0693.fina" unicode="&#x693;" horiz-adv-x="449" 
d="M449 212c18 0 32 -48 32 -106c0 -59 -14 -106 -32 -106h-29c-30 0 -55 7 -76 19c-1 -3 -1 -6 -2 -10c-20 -102 -80 -189 -158 -228c9 -13 14 -28 14 -45c0 -45 -36 -81 -81 -81s-81 36 -81 81c0 12 3 24 8 35c-21 6 -44 15 -68 26l-34 129l10 13c50 -4 77 -6 105 -5
c80 4 132 55 171 103c-12 75 -26 145 -51 277l121 76l13 -8c6 -29 13 -58 19 -87c13 -59 23 -83 77 -83h42zM117 -288c13 0 24 11 24 24s-11 24 -24 24s-25 -11 -25 -24s12 -24 25 -24z" />
    <glyph glyph-name="uni0695.fina" unicode="&#x695;" horiz-adv-x="449" 
d="M104 -240c-28 -1 -75 13 -128 37l-34 129l10 13c50 -4 77 -6 105 -5c80 4 132 55 171 103c-12 75 -26 145 -51 277l121 76l13 -8c6 -29 13 -58 19 -87c13 -59 23 -83 77 -83h42c18 0 32 -48 32 -106c0 -59 -14 -106 -32 -106h-29c-30 0 -55 7 -76 19c-1 -3 -1 -6 -2 -10
c-26 -136 -125 -245 -238 -249zM91 -565l-88 227l59 46l57 -161l61 162l57 -46l-81 -195z" />
    <glyph glyph-name="uni0696.fina" unicode="&#x696;" horiz-adv-x="449" 
d="M230 423l-120 54v17l48 105l120 -57v-16zM104 -240c-28 -1 -75 13 -128 37l-34 129l10 13c50 -4 77 -6 105 -5c80 4 132 55 171 103c-12 75 -26 145 -51 277l121 76l13 -8c6 -29 13 -58 19 -87c13 -59 23 -83 77 -83h42c18 0 32 -48 32 -106c0 -59 -14 -106 -32 -106h-29
c-30 0 -55 7 -76 19c-1 -3 -1 -6 -2 -10c-26 -136 -125 -245 -238 -249zM175 -477l-119 54v17l48 105l120 -56v-17z" />
    <glyph glyph-name="uniFB8B" unicode="&#x698;" horiz-adv-x="449" arabic-form="final" 
d="M251 669l-41 -85l-98 46v14l41 86l98 -48v-13zM252 604l110 -52v-15l-45 -94l-109 49v5l-30 -62l-109 49v16l44 96l110 -52v-4zM104 -240c-28 -1 -75 13 -128 37l-34 129l10 13c50 -4 77 -6 105 -5c80 4 132 55 171 103c-12 75 -26 145 -51 277l121 76l13 -8
c6 -29 13 -58 19 -87c13 -59 23 -83 77 -83h42c18 0 32 -48 32 -106c0 -59 -14 -106 -32 -106h-29c-30 0 -55 7 -76 19c-1 -3 -1 -6 -2 -10c-26 -136 -125 -245 -238 -249z" />
    <glyph glyph-name="uniFC5C" unicode="&#xfc5c;" horiz-adv-x="393" arabic-form="isolated" 
d="M189 441l-5 191l81 15v-127c0 -27 -4 -66 -8 -77zM104 -240c-28 -1 -75 13 -128 37l-34 129l10 13c50 -4 77 -6 105 -5c80 4 132 55 171 103c-12 75 -26 145 -51 277l121 76l13 -8c35 -157 44 -224 44 -274c0 -175 -107 -344 -251 -348z" />
    <glyph glyph-name="uniFEB2" unicode="&#x633;" horiz-adv-x="1268" arabic-form="final" 
d="M276 -193c-142 0 -248 65 -237 233c4 68 22 150 44 236l98 -7l11 -14c-10 -48 -21 -101 -26 -138c-10 -78 33 -98 133 -98c79 0 153 20 205 42c-11 74 -28 164 -42 238l117 72l16 -8l16 -79c11 -53 29 -72 96 -72c75 0 99 19 100 67l1 53l111 1v-108c17 -9 39 -13 62 -13
c16 0 31 2 43 8l-24 142l105 68l14 -9c7 -41 14 -83 22 -125c10 -63 26 -84 82 -84h45c19 0 32 -48 32 -106c0 -59 -13 -106 -32 -106h-33c-74 0 -113 20 -136 59c-2 -4 -4 -7 -7 -10c-25 -30 -63 -49 -112 -49c-45 0 -90 11 -117 34c-4 3 -7 6 -10 10
c-24 -25 -73 -44 -137 -44c-40 0 -67 6 -89 15c0 -7 -1 -14 -1 -20c-4 -25 -11 -58 -38 -81c-60 -64 -172 -107 -312 -107z" />
    <glyph glyph-name="uniFEB4" unicode="&#x633;" horiz-adv-x="923" arabic-form="medial" 
d="M0 0c-18 0 -32 47 -32 106c0 58 14 106 32 106h72c53 0 75 17 89 66l23 86l12 9l107 -30l-20 -84c-1 -9 -4 -17 -6 -26c21 -14 45 -21 84 -21c75 0 99 20 100 67l1 53l111 1v-108c18 -9 39 -13 62 -13c16 0 31 2 43 8l-23 142l104 68l14 -9c8 -41 15 -83 22 -125
c11 -63 27 -84 82 -84h46c18 0 32 -48 32 -106c0 -59 -14 -106 -32 -106h-33c-74 0 -113 20 -136 59c-25 -37 -70 -60 -130 -60c-47 0 -94 17 -116 45c-24 -25 -74 -44 -144 -44c-76 0 -129 24 -156 64c-26 -47 -74 -64 -143 -64h-65z" />
    <glyph glyph-name="uniFEB3" unicode="&#x633;" horiz-adv-x="863" arabic-form="initial" 
d="M0 0c-18 0 -32 47 -32 106c0 58 14 106 32 106h72c53 0 75 17 89 66l23 86l12 9l107 -30l-20 -84c-1 -9 -4 -17 -6 -26c21 -14 45 -21 84 -21c75 0 99 20 100 67l1 53l111 1v-108c18 -9 40 -13 63 -13c15 0 30 2 42 8l-25 159l132 82l13 -9c8 -50 14 -95 19 -133
c13 -84 13 -147 -24 -215c-33 -63 -90 -104 -158 -104c-52 0 -103 14 -127 44c-24 -25 -74 -44 -144 -44c-76 0 -129 24 -156 64c-26 -47 -74 -64 -143 -64h-65z" />
    <glyph glyph-name="uniFEB6" unicode="&#x634;" horiz-adv-x="1268" arabic-form="final" 
d="M854 646l-41 -84l-98 45l1 14l40 86l98 -48v-13zM855 581l110 -52v-15l-44 -94l-110 49v5l-29 -62l-110 49v16l45 96l109 -52v-4zM276 -193c-142 0 -248 65 -237 233c4 68 22 150 44 236l98 -7l11 -14c-10 -48 -21 -101 -26 -138c-10 -78 33 -98 133 -98
c79 0 153 20 205 42c-11 74 -28 164 -42 238l117 72l16 -8l16 -79c11 -53 29 -72 96 -72c75 0 99 19 100 67l1 53l111 1v-108c17 -9 39 -13 62 -13c16 0 31 2 43 8l-24 142l105 68l14 -9c7 -41 14 -83 22 -125c10 -63 26 -84 82 -84h45c19 0 32 -48 32 -106
c0 -59 -13 -106 -32 -106h-33c-74 0 -113 20 -136 59c-2 -4 -4 -7 -7 -10c-25 -30 -63 -49 -112 -49c-45 0 -90 11 -117 34c-4 3 -7 6 -10 10c-24 -25 -73 -44 -137 -44c-40 0 -67 6 -89 15c0 -7 -1 -14 -1 -20c-4 -25 -11 -58 -38 -81c-60 -64 -172 -107 -312 -107z" />
    <glyph glyph-name="uniFEB8" unicode="&#x634;" horiz-adv-x="923" arabic-form="medial" 
d="M511 646l-40 -84l-98 45v14l41 86l98 -48zM513 581l109 -52v-15l-44 -94l-110 49v5l-29 -62l-109 49v16l44 96l109 -52v-4zM0 0c-18 0 -32 47 -32 106c0 58 14 106 32 106h72c53 0 75 17 89 66l23 86l12 9l107 -30l-20 -84c-1 -9 -4 -17 -6 -26c21 -14 45 -21 84 -21
c75 0 99 20 100 67l1 53l111 1v-108c18 -9 39 -13 62 -13c16 0 31 2 43 8l-23 142l104 68l14 -9c8 -41 15 -83 22 -125c11 -63 27 -84 82 -84h46c18 0 32 -48 32 -106c0 -59 -14 -106 -32 -106h-33c-74 0 -113 20 -136 59c-25 -37 -70 -60 -130 -60c-47 0 -94 17 -116 45
c-24 -25 -74 -44 -144 -44c-76 0 -129 24 -156 64c-26 -47 -74 -64 -143 -64h-65z" />
    <glyph glyph-name="uniFEB7" unicode="&#x634;" horiz-adv-x="863" arabic-form="initial" 
d="M518 646l-41 -84l-98 45v14l41 86l98 -48v-13zM519 581l109 -52v-15l-44 -94l-109 49v5l-30 -62l-109 49v16l44 96l109 -52v-4zM0 0c-18 0 -32 47 -32 106c0 58 14 106 32 106h72c53 0 75 17 89 66l23 86l12 9l107 -30l-20 -84c-1 -9 -4 -17 -6 -26c21 -14 45 -21 84 -21
c75 0 99 20 100 67l1 53l111 1v-108c18 -9 40 -13 63 -13c15 0 30 2 42 8l-25 159l132 82l13 -9c8 -50 14 -95 19 -133c13 -84 13 -147 -24 -215c-33 -63 -90 -104 -158 -104c-52 0 -103 14 -127 44c-24 -25 -74 -44 -144 -44c-76 0 -129 24 -156 64
c-26 -47 -74 -64 -143 -64h-65z" />
    <glyph glyph-name="uniFEBA" unicode="&#x635;" horiz-adv-x="1264" arabic-form="final" 
d="M276 -193c-142 0 -248 65 -237 233c4 68 22 150 44 236l98 -7l11 -14c-10 -48 -21 -101 -26 -138c-10 -78 33 -98 133 -98c79 0 153 20 205 42c-11 74 -28 164 -42 238l117 72l16 -8l16 -79c9 -44 15 -60 35 -66l4 35l102 118c66 77 120 122 207 122
c148 0 217 -122 217 -232c0 -17 -2 -32 -7 -47c15 -2 32 -2 53 -2h42c18 0 32 -48 32 -106c0 -59 -14 -106 -32 -106h-53c-67 0 -114 20 -148 51c-57 -33 -138 -51 -242 -51h-95c-43 0 -74 6 -98 15c-1 -10 -3 -20 -5 -29c-5 -25 -17 -63 -46 -85c-62 -56 -169 -94 -301 -94
zM784 206l93 -1c95 0 134 12 164 34c-3 54 -37 97 -98 97c-34 0 -51 -5 -69 -11l-114 -119h24z" />
    <glyph glyph-name="uniFEBC" unicode="&#x635;" horiz-adv-x="959" arabic-form="medial" 
d="M-32 106c0 58 14 106 32 106h72c53 0 76 22 91 71l21 81l13 8l106 -29l-25 -108c10 -8 27 -20 58 -23l3 34l108 125c66 77 121 122 207 122c148 0 217 -122 217 -232c0 -17 -2 -32 -7 -47c12 -2 26 -2 44 -2h51c18 0 32 -48 32 -106c0 -59 -14 -106 -32 -106h-53
c-67 0 -114 20 -148 51c-57 -33 -138 -51 -242 -51h-163c-70 0 -118 24 -145 64c-26 -47 -74 -64 -143 -64h-65c-18 0 -32 47 -32 106zM455 206h35l82 -1c95 0 134 12 164 34c-3 54 -36 97 -98 97c-34 0 -50 -5 -69 -11z" />
    <glyph glyph-name="uniFEBB" unicode="&#x635;" horiz-adv-x="909" arabic-form="initial" 
d="M-32 106c0 58 14 106 32 106h72c53 0 76 22 91 71l21 81l13 8l106 -29l-25 -108c10 -8 27 -20 58 -23l3 34l108 125c66 77 121 122 207 122c148 0 217 -122 217 -232c0 -165 -114 -261 -355 -261h-163c-70 0 -118 24 -145 64c-26 -47 -74 -64 -143 -64h-65
c-18 0 -32 47 -32 106zM455 206h39l78 -1c95 0 134 12 164 34c-3 54 -36 97 -98 97c-34 0 -50 -5 -69 -11z" />
    <glyph glyph-name="uniFEBE" unicode="&#x636;" horiz-adv-x="1264" arabic-form="final" 
d="M944 558l-120 54v17l49 105l120 -56v-17zM276 -193c-142 0 -248 65 -237 233c4 68 22 150 44 236l98 -7l11 -14c-10 -48 -21 -101 -26 -138c-10 -78 33 -98 133 -98c79 0 153 20 205 42c-11 74 -28 164 -42 238l117 72l16 -8l16 -79c9 -44 15 -60 35 -66l4 35l102 118
c66 77 120 122 207 122c148 0 217 -122 217 -232c0 -17 -2 -32 -7 -47c15 -2 32 -2 53 -2h42c18 0 32 -48 32 -106c0 -59 -14 -106 -32 -106h-53c-67 0 -114 20 -148 51c-57 -33 -138 -51 -242 -51h-95c-43 0 -74 6 -98 15c-1 -10 -3 -20 -5 -29c-5 -25 -17 -63 -46 -85
c-62 -56 -169 -94 -301 -94zM784 206l93 -1c95 0 134 12 164 34c-3 54 -37 97 -98 97c-34 0 -51 -5 -69 -11l-114 -119h24z" />
    <glyph glyph-name="uniFEC0" unicode="&#x636;" horiz-adv-x="959" arabic-form="medial" 
d="M655 558l-120 54v17l48 105l120 -56v-17zM-32 106c0 58 14 106 32 106h72c53 0 76 22 91 71l21 81l13 8l106 -29l-25 -108c10 -8 27 -20 58 -23l3 34l108 125c66 77 121 122 207 122c148 0 217 -122 217 -232c0 -17 -2 -32 -7 -47c12 -2 26 -2 44 -2h51
c18 0 32 -48 32 -106c0 -59 -14 -106 -32 -106h-53c-67 0 -114 20 -148 51c-57 -33 -138 -51 -242 -51h-163c-70 0 -118 24 -145 64c-26 -47 -74 -64 -143 -64h-65c-18 0 -32 47 -32 106zM455 206h35l82 -1c95 0 134 12 164 34c-3 54 -36 97 -98 97c-34 0 -50 -5 -69 -11z
" />
    <glyph glyph-name="uniFEBF" unicode="&#x636;" horiz-adv-x="909" arabic-form="initial" 
d="M655 558l-120 54v17l48 105l120 -56v-17zM-32 106c0 58 14 106 32 106h72c53 0 76 22 91 71l21 81l13 8l106 -29l-25 -108c10 -8 27 -20 58 -23l3 34l108 125c66 77 121 122 207 122c148 0 217 -122 217 -232c0 -165 -114 -261 -355 -261h-163c-70 0 -118 24 -145 64
c-26 -47 -74 -64 -143 -64h-65c-18 0 -32 47 -32 106zM455 206h39l78 -1c95 0 134 12 164 34c-3 54 -36 97 -98 97c-34 0 -50 -5 -69 -11z" />
    <glyph glyph-name="uniFEC2" unicode="&#x637;" horiz-adv-x="786" arabic-form="final" 
d="M38 207l11 11c33 -3 55 -6 86 -8l59 68l-5 399l133 35v-192c0 -53 -1 -75 -15 -115c10 10 21 20 31 29c42 37 85 59 143 59c148 0 217 -122 217 -232c0 -17 -2 -32 -7 -47c14 -2 29 -2 48 -2h47c18 0 32 -48 32 -106c0 -59 -14 -106 -32 -106h-53c-67 0 -114 20 -148 51
c-57 -33 -138 -51 -242 -51c-114 0 -201 5 -294 16zM283 207c35 -1 73 -2 116 -2c95 0 134 12 164 34c-3 54 -37 97 -98 97c-34 0 -50 -5 -69 -11z" />
    <glyph glyph-name="uniFEC4" unicode="&#x637;" horiz-adv-x="732" arabic-form="medial" 
d="M-32 106c0 58 14 106 32 106h83l57 66l-4 399l132 35v-192c0 -53 -1 -75 -15 -115c10 10 20 19 30 27c43 39 86 61 145 61c147 0 216 -122 216 -232c0 -17 -2 -32 -7 -47c15 -2 31 -2 52 -2h43c18 0 32 -48 32 -106c0 -59 -14 -106 -32 -106h-53c-67 0 -114 20 -148 51
c-57 -33 -138 -51 -242 -51h-289c-18 0 -32 47 -32 106zM228 206l117 -1c95 0 135 12 164 34c-3 54 -36 97 -98 97c-34 0 -50 -5 -69 -11z" />
    <glyph glyph-name="uniFEC3" unicode="&#x637;" horiz-adv-x="682" arabic-form="initial" 
d="M-32 106c0 58 14 106 32 106h83l57 66l-4 399l132 35v-192c0 -53 -1 -75 -15 -115c9 9 18 17 27 25c43 40 87 63 148 63c147 0 216 -122 216 -232c0 -165 -114 -261 -355 -261h-289c-18 0 -32 47 -32 106zM228 206l117 -1c95 0 135 12 164 34c-3 54 -36 97 -98 97
c-34 0 -50 -5 -69 -11z" />
    <glyph glyph-name="uniFEC6" unicode="&#x638;" horiz-adv-x="786" arabic-form="final" 
d="M504 550l-120 54v17l48 105l120 -56v-17zM38 207l11 11c33 -3 55 -6 86 -8l59 68l-5 399l133 35v-192c0 -53 -1 -75 -15 -115c10 10 21 20 31 29c42 37 85 59 143 59c148 0 217 -122 217 -232c0 -17 -2 -32 -7 -47c14 -2 29 -2 48 -2h47c18 0 32 -48 32 -106
c0 -59 -14 -106 -32 -106h-53c-67 0 -114 20 -148 51c-57 -33 -138 -51 -242 -51c-114 0 -201 5 -294 16zM283 207c35 -1 73 -2 116 -2c95 0 134 12 164 34c-3 54 -37 97 -98 97c-34 0 -50 -5 -69 -11z" />
    <glyph glyph-name="uniFEC8" unicode="&#x638;" horiz-adv-x="732" arabic-form="medial" 
d="M504 550l-120 54v17l48 105l120 -56v-17zM-32 106c0 58 14 106 32 106h83l57 66l-4 399l132 35v-192c0 -53 -1 -75 -15 -115c10 10 20 19 30 27c43 39 86 61 145 61c147 0 216 -122 216 -232c0 -17 -2 -32 -7 -47c15 -2 31 -2 52 -2h43c18 0 32 -48 32 -106
c0 -59 -14 -106 -32 -106h-53c-67 0 -114 20 -148 51c-57 -33 -138 -51 -242 -51h-289c-18 0 -32 47 -32 106zM228 206l117 -1c95 0 135 12 164 34c-3 54 -36 97 -98 97c-34 0 -50 -5 -69 -11z" />
    <glyph glyph-name="uniFEC7" unicode="&#x638;" horiz-adv-x="682" arabic-form="initial" 
d="M504 550l-120 54v17l48 105l120 -56v-17zM-32 106c0 58 14 106 32 106h83l57 66l-4 399l132 35v-192c0 -53 -1 -75 -15 -115c9 9 18 17 27 25c43 40 87 63 148 63c147 0 216 -122 216 -232c0 -165 -114 -261 -355 -261h-289c-18 0 -32 47 -32 106zM228 206l117 -1
c95 0 135 12 164 34c-3 54 -36 97 -98 97c-34 0 -50 -5 -69 -11z" />
    <glyph glyph-name="uniFECA" unicode="&#x639;" horiz-adv-x="617" arabic-form="final" 
d="M428 -294c-254 -27 -351 78 -351 229c1 112 60 190 145 258c-8 9 -17 17 -25 26c-26 28 -54 57 -81 85l5 19l-73 -12l-10 11l32 143l111 22c59 11 134 21 175 21c129 0 201 -38 201 -141c0 -52 -37 -100 -90 -150c30 -4 63 -5 107 -5h43c18 0 32 -48 32 -106
c0 -59 -14 -106 -32 -106h-54c-98 0 -153 11 -227 75l-19 15c-74 -42 -111 -72 -133 -117c13 -71 62 -105 236 -87l166 16l7 -12l-37 -171zM339 234c38 27 69 55 94 83c0 23 -28 29 -92 27c-25 -2 -66 -4 -94 -9c18 -19 35 -37 52 -57c14 -16 27 -31 40 -44z" />
    <glyph glyph-name="uniFECC" unicode="&#x639;" horiz-adv-x="605" arabic-form="medial" 
d="M0 0c-18 0 -32 47 -32 106c0 58 14 106 32 106h69c39 0 71 2 98 6l-24 26c-18 20 -35 40 -54 60l5 19l-73 -12l-10 11l32 143l111 21c59 11 134 22 175 22c129 0 201 -39 201 -141c0 -52 -37 -100 -89 -150c27 -4 58 -5 99 -5h65c19 0 32 -48 32 -106
c0 -59 -13 -106 -32 -106h-100c-100 0 -152 10 -208 62c-61 -48 -117 -62 -211 -62h-86zM312 234c38 27 69 55 94 83c0 23 -28 30 -92 27c-25 -2 -66 -4 -94 -9c18 -19 34 -37 52 -57c14 -16 27 -31 40 -44z" />
    <glyph glyph-name="uniFECB" unicode="&#x639;" horiz-adv-x="502" arabic-form="initial" 
d="M0 0c-18 0 -32 47 -32 106c0 58 14 106 32 106c28 0 50 0 75 1c-5 9 -9 18 -11 29c-8 38 5 87 22 134c38 101 112 126 189 126c51 0 75 -8 111 -19l6 -13l-15 -126c-40 4 -73 8 -102 8c-38 3 -64 0 -81 -6c-5 -15 -11 -33 -13 -48c-3 -15 0 -30 9 -41
c11 -16 32 -26 63 -26c12 0 33 4 66 12c35 8 78 20 135 33l10 -8l-3 -157l-70 -23c-89 -30 -220 -86 -352 -88h-39z" />
    <glyph glyph-name="uniFECE" unicode="&#x63a;" horiz-adv-x="617" arabic-form="final" 
d="M333 564l-120 54v18l49 105l119 -57v-16zM428 -294c-254 -27 -351 78 -351 229c1 112 60 190 145 258c-8 9 -17 17 -25 26c-26 28 -54 57 -81 85l5 19l-73 -12l-10 11l32 143l111 22c59 11 134 21 175 21c129 0 201 -38 201 -141c0 -52 -37 -100 -90 -150
c30 -4 63 -5 107 -5h43c18 0 32 -48 32 -106c0 -59 -14 -106 -32 -106h-54c-98 0 -153 11 -227 75l-19 15c-74 -42 -111 -72 -133 -117c13 -71 62 -105 236 -87l166 16l7 -12l-37 -171zM339 234c38 27 69 55 94 83c0 23 -28 29 -92 27c-25 -2 -66 -4 -94 -9
c18 -19 35 -37 52 -57c14 -16 27 -31 40 -44z" />
    <glyph glyph-name="uniFED0" unicode="&#x63a;" horiz-adv-x="605" arabic-form="medial" 
d="M317 564l-120 54v17l48 105l120 -56v-17zM0 0c-18 0 -32 47 -32 106c0 58 14 106 32 106h69c39 0 71 2 98 6l-24 26c-18 20 -35 40 -54 60l5 19l-73 -12l-10 11l32 143l111 21c59 11 134 22 175 22c129 0 201 -39 201 -141c0 -52 -37 -100 -89 -150c27 -4 58 -5 99 -5h65
c19 0 32 -48 32 -106c0 -59 -13 -106 -32 -106h-100c-100 0 -152 10 -208 62c-61 -48 -117 -62 -211 -62h-86zM312 234c38 27 69 55 94 83c0 23 -28 30 -92 27c-25 -2 -66 -4 -94 -9c18 -19 34 -37 52 -57c14 -16 27 -31 40 -44z" />
    <glyph glyph-name="uniFECF" unicode="&#x63a;" horiz-adv-x="502" arabic-form="initial" 
d="M260 568l-120 53v18l48 105l120 -57v-16zM0 0c-18 0 -32 47 -32 106c0 58 14 106 32 106c28 0 50 0 75 1c-5 9 -9 18 -11 29c-8 38 5 87 22 134c38 101 112 126 189 126c51 0 75 -8 111 -19l6 -13l-15 -126c-40 4 -73 8 -102 8c-38 3 -64 0 -81 -6
c-5 -15 -11 -33 -13 -48c-3 -15 0 -30 9 -41c11 -16 32 -26 63 -26c12 0 33 4 66 12c35 8 78 20 135 33l10 -8l-3 -157l-70 -23c-89 -30 -220 -86 -352 -88h-39z" />
    <glyph glyph-name="uniFED2" unicode="&#x641;" horiz-adv-x="897" arabic-form="final" 
d="M676 560l-120 53v18l48 105l120 -57v-16zM38 182c1 37 6 79 14 133c4 22 7 46 12 72l102 15l11 -11l-13 -99c-8 -61 12 -90 166 -90c41 0 96 3 145 8c-9 29 -10 62 -1 98c19 76 60 202 151 202c130 0 214 -79 214 -175c0 -46 -13 -88 -28 -123h34h52c18 0 32 -48 32 -106
c0 -59 -14 -106 -32 -106h-84c-75 0 -146 14 -203 42c-78 -35 -202 -52 -301 -52c-214 0 -275 70 -271 192zM586 298c-11 -45 24 -69 75 -81c45 31 67 57 67 81c0 36 -23 57 -91 64l-30 3c-9 -27 -17 -49 -21 -67z" />
    <glyph glyph-name="uniFED4" unicode="&#x641;" horiz-adv-x="514" arabic-form="medial" 
d="M294 560l-119 53v18l48 105l120 -57v-16zM0 0c-18 0 -32 47 -32 106c0 58 14 106 32 106h41c17 0 35 0 52 1c-10 29 -11 60 -2 95c20 76 60 202 151 202c130 0 215 -79 215 -175c0 -44 -12 -89 -26 -123h34h49c19 0 32 -48 32 -106c0 -59 -13 -106 -32 -106h-84
c-73 0 -141 15 -197 41c-51 -25 -109 -37 -176 -40c-18 0 -37 -1 -57 -1zM278 217c46 31 67 57 67 81c0 37 -24 57 -94 65c-8 1 -18 1 -27 2c-9 -27 -17 -49 -21 -67c-10 -45 24 -69 75 -81z" />
    <glyph glyph-name="uniFED3" unicode="&#x641;" horiz-adv-x="451" arabic-form="initial" 
d="M236 708l-120 53v18l48 105l120 -57v-16zM0 0c-18 0 -32 47 -32 106c0 58 14 106 32 106h52c104 0 175 2 227 15c2 15 2 29 2 43c-51 -9 -81 -12 -138 -12c-78 0 -120 43 -121 118c0 8 0 16 1 25c19 175 87 253 189 253c75 0 119 -38 147 -87c31 -52 48 -134 53 -212
c6 -98 -15 -244 -62 -286c-56 -49 -166 -65 -290 -68c-19 -1 -40 -1 -60 -1zM173 404c36 -1 72 2 100 6c-5 40 -14 77 -23 99c-17 4 -32 7 -50 7c-41 0 -61 -13 -66 -82v-6c0 -20 11 -23 39 -24z" />
    <glyph glyph-name="uniFB6A" unicode="&#x6a4;" horiz-adv-x="851" arabic-form="isolated" 
d="M597 934l-41 -84l-98 46v14l41 86l98 -48v-14zM598 869l110 -51v-15l-45 -95l-109 50v5l-29 -63l-110 50v16l44 95l110 -51v-4zM309 -10c-211 0 -274 68 -271 188c0 38 6 86 14 132c3 24 7 49 12 77l102 15l11 -11l-13 -99c-1 -8 -2 -15 -2 -21c1 -46 32 -69 168 -69
c196 0 288 10 349 25c2 15 2 29 2 43c-51 -9 -81 -12 -138 -12c-79 0 -121 43 -121 118c0 8 0 17 1 25c19 175 87 253 189 253c82 0 127 -45 155 -102c25 -51 41 -126 45 -199c6 -97 -15 -243 -62 -284c-62 -54 -213 -79 -441 -79zM590 404c28 0 55 2 83 6
c-5 40 -14 76 -23 99c-19 4 -33 7 -50 7c-41 0 -60 -13 -66 -77v-8c0 -24 17 -27 56 -27z" />
    <glyph glyph-name="uniFB6B" unicode="&#x6a4;" horiz-adv-x="897" arabic-form="final" 
d="M654 783l-41 -84l-98 45l1 15l40 85l98 -47v-14zM655 718l110 -52v-15l-44 -94l-110 49v5l-29 -62l-110 49v16l44 96l110 -52v-4zM38 182c1 37 6 79 14 133c4 22 7 46 12 72l102 15l11 -11l-13 -99c-8 -61 12 -90 166 -90c41 0 96 3 145 8c-9 29 -10 62 -1 98
c19 76 60 202 151 202c130 0 214 -79 214 -175c0 -46 -13 -88 -28 -123h34h52c18 0 32 -48 32 -106c0 -59 -14 -106 -32 -106h-84c-75 0 -146 14 -203 42c-78 -35 -202 -52 -301 -52c-214 0 -275 70 -271 192zM586 298c-11 -45 24 -69 75 -81c45 31 67 57 67 81
c0 36 -23 57 -91 64l-30 3c-9 -27 -17 -49 -21 -67z" />
    <glyph glyph-name="uniFB6D" unicode="&#x6a4;" horiz-adv-x="514" arabic-form="medial" 
d="M275 783l-40 -84l-99 45l1 15l40 85l98 -47v-14zM276 718l110 -52v-15l-44 -94l-110 49v5l-29 -62l-110 49v16l45 96l109 -52v-4zM0 0c-18 0 -32 47 -32 106c0 58 14 106 32 106h41c17 0 35 0 52 1c-10 29 -11 60 -2 95c20 76 60 202 151 202c130 0 215 -79 215 -175
c0 -44 -12 -89 -26 -123h34h49c19 0 32 -48 32 -106c0 -59 -13 -106 -32 -106h-84c-73 0 -141 15 -197 41c-51 -25 -109 -37 -176 -40c-18 0 -37 -1 -57 -1zM278 217c46 31 67 57 67 81c0 37 -24 57 -94 65c-8 1 -18 1 -27 2c-9 -27 -17 -49 -21 -67c-10 -45 24 -69 75 -81z
" />
    <glyph glyph-name="uniFB6C" unicode="&#x6a4;" horiz-adv-x="451" arabic-form="initial" 
d="M203 936l-41 -85l-98 46v14l41 86l98 -48v-13zM204 871l110 -52v-15l-45 -94l-109 49v5l-29 -62l-110 49v16l44 96l110 -52v-4zM0 0c-18 0 -32 47 -32 106c0 58 14 106 32 106h52c104 0 175 2 227 15c2 15 2 29 2 43c-51 -9 -81 -12 -138 -12c-78 0 -120 43 -121 118
c0 8 0 16 1 25c19 175 87 253 189 253c75 0 119 -38 147 -87c31 -52 48 -134 53 -212c6 -98 -15 -244 -62 -286c-56 -49 -166 -65 -290 -68c-19 -1 -40 -1 -60 -1zM173 404c36 -1 72 2 100 6c-5 40 -14 77 -23 99c-17 4 -32 7 -50 7c-41 0 -61 -13 -66 -82v-6
c0 -20 11 -23 39 -24z" />
    <glyph glyph-name="uni06A1.init" unicode="&#x6a1;" horiz-adv-x="451" 
d="M0 0c-18 0 -32 47 -32 106c0 58 14 106 32 106h52c104 0 175 2 227 15c2 15 2 29 2 43c-51 -9 -81 -12 -138 -12c-78 0 -120 43 -121 118c0 8 0 16 1 25c19 175 87 253 189 253c75 0 119 -38 147 -87c31 -52 48 -134 53 -212c6 -98 -15 -244 -62 -286
c-56 -49 -166 -65 -290 -68c-19 -1 -40 -1 -60 -1zM173 404c36 -1 72 2 100 6c-5 40 -14 77 -23 99c-17 4 -32 7 -50 7c-41 0 -61 -13 -66 -82v-6c0 -20 11 -23 39 -24z" />
    <glyph glyph-name="uni06A1.medi" unicode="&#x6a1;" horiz-adv-x="514" 
d="M0 0c-18 0 -32 47 -32 106c0 58 14 106 32 106h41c17 0 35 0 52 1c-10 29 -11 60 -2 95c20 76 60 202 151 202c130 0 215 -79 215 -175c0 -44 -12 -89 -26 -123h34h49c19 0 32 -48 32 -106c0 -59 -13 -106 -32 -106h-84c-73 0 -141 15 -197 41c-51 -25 -109 -37 -176 -40
c-18 0 -37 -1 -57 -1zM278 217c46 31 67 57 67 81c0 37 -24 57 -94 65c-8 1 -18 1 -27 2c-9 -27 -17 -49 -21 -67c-10 -45 24 -69 75 -81z" />
    <glyph glyph-name="uni06A1.fina" unicode="&#x6a1;" horiz-adv-x="897" 
d="M38 182c1 37 6 79 14 133c4 22 7 46 12 72l102 15l11 -11l-13 -99c-8 -61 12 -90 166 -90c41 0 96 3 145 8c-9 29 -10 62 -1 98c19 76 60 202 151 202c130 0 214 -79 214 -175c0 -46 -13 -88 -28 -123h34h52c18 0 32 -48 32 -106c0 -59 -14 -106 -32 -106h-84
c-75 0 -146 14 -203 42c-78 -35 -202 -52 -301 -52c-214 0 -275 70 -271 192zM586 298c-11 -45 24 -69 75 -81c45 31 67 57 67 81c0 36 -23 57 -91 64l-30 3c-9 -27 -17 -49 -21 -67z" />
    <glyph glyph-name="uni06A2.init" unicode="&#x6a2;" horiz-adv-x="451" 
d="M0 0c-18 0 -32 47 -32 106c0 58 14 106 32 106h52c104 0 175 2 227 15c2 15 2 29 2 43c-51 -9 -81 -12 -138 -12c-78 0 -120 43 -121 118c0 8 0 16 1 25c19 175 87 253 189 253c75 0 119 -38 147 -87c31 -52 48 -134 53 -212c6 -98 -15 -244 -62 -286
c-56 -49 -166 -65 -290 -68c-19 -1 -40 -1 -60 -1zM173 404c36 -1 72 2 100 6c-5 40 -14 77 -23 99c-17 4 -32 7 -50 7c-41 0 -61 -13 -66 -82v-6c0 -20 11 -23 39 -24zM215 -231l-120 54v17l48 105l120 -57v-16z" />
    <glyph glyph-name="uni06A2.medi" unicode="&#x6a2;" horiz-adv-x="514" 
d="M0 0c-18 0 -32 47 -32 106c0 58 14 106 32 106h41c17 0 35 0 52 1c-10 29 -11 60 -2 95c20 76 60 202 151 202c130 0 215 -79 215 -175c0 -44 -12 -89 -26 -123h34h49c19 0 32 -48 32 -106c0 -59 -13 -106 -32 -106h-84c-73 0 -141 15 -197 41c-51 -25 -109 -37 -176 -40
c-18 0 -37 -1 -57 -1zM278 217c46 31 67 57 67 81c0 37 -24 57 -94 65c-8 1 -18 1 -27 2c-9 -27 -17 -49 -21 -67c-10 -45 24 -69 75 -81zM227 -231l-120 54v17l49 105l120 -57v-16z" />
    <glyph glyph-name="uni06A2.fina" unicode="&#x6a2;" horiz-adv-x="897" 
d="M38 182c1 37 6 79 14 133c4 22 7 46 12 72l102 15l11 -11l-13 -99c-8 -61 12 -90 166 -90c41 0 96 3 145 8c-9 29 -10 62 -1 98c19 76 60 202 151 202c130 0 214 -79 214 -175c0 -46 -13 -88 -28 -123h34h52c18 0 32 -48 32 -106c0 -59 -14 -106 -32 -106h-84
c-75 0 -146 14 -203 42c-78 -35 -202 -52 -301 -52c-214 0 -275 70 -271 192zM586 298c-11 -45 24 -69 75 -81c45 31 67 57 67 81c0 36 -23 57 -91 64l-30 3c-9 -27 -17 -49 -21 -67zM386 -261l-120 54v18l49 104l120 -56v-16z" />
    <glyph glyph-name="uniFB6E" unicode="&#x6a6;" horiz-adv-x="851" arabic-form="isolated" 
d="M563 760l-30 -65l-110 49v16l42 92l-42 19v16l44 96l110 -51v-6l30 65l110 -51v-15l-43 -92l43 -20v-15l-45 -95l-109 49v8zM534 825l43 -20v-6l28 61l-42 19v8zM812 353c6 -97 -15 -243 -62 -284c-62 -54 -213 -79 -441 -79c-211 0 -274 68 -271 188c0 38 6 86 14 132
c3 24 7 49 12 77l102 15l11 -11l-13 -99c-1 -8 -2 -15 -2 -21c1 -46 32 -69 168 -69c196 0 288 10 349 25c2 15 2 29 2 43c-51 -9 -81 -12 -138 -12c-79 0 -121 43 -121 118c0 8 0 17 1 25c19 175 87 253 189 253c82 0 127 -45 155 -102c25 -51 41 -126 45 -199zM590 404
c28 0 55 2 83 6c-5 40 -14 76 -23 99c-19 4 -33 7 -50 7c-41 0 -60 -13 -66 -77v-8c0 -24 17 -27 56 -27z" />
    <glyph glyph-name="uniFB6F" unicode="&#x6a6;" horiz-adv-x="897" arabic-form="final" 
d="M605 617l-30 -64l-110 49v16l42 92l-42 19v16l44 96l110 -52v-5l30 65l110 -52v-15l-44 -91l44 -21v-15l-45 -94l-109 49v7zM576 682l43 -20v-5l28 61l-42 19v7zM897 212c18 0 32 -48 32 -106c0 -59 -14 -106 -32 -106h-84c-75 0 -146 14 -203 42
c-78 -35 -202 -52 -301 -52c-214 0 -275 70 -271 192c1 37 6 79 14 133c4 22 7 46 12 72l102 15l11 -11l-13 -99c-8 -61 12 -90 166 -90c41 0 96 3 145 8c-9 29 -10 62 -1 98c19 76 60 202 151 202c130 0 214 -79 214 -175c0 -46 -13 -88 -28 -123h34h52zM661 217
c45 31 67 57 67 81c0 36 -23 57 -91 64l-30 3c-9 -27 -17 -49 -21 -67c-11 -45 24 -69 75 -81z" />
    <glyph glyph-name="uniFB71" unicode="&#x6a6;" horiz-adv-x="514" arabic-form="medial" 
d="M218 617l-30 -64l-110 49v16l42 92l-42 19v16l44 96l110 -52v-5l30 65l110 -52v-15l-43 -92l43 -20v-15l-44 -94l-110 49v7zM189 682l43 -20v-5l28 61l-42 19v7zM514 212c19 0 32 -48 32 -106c0 -59 -13 -106 -32 -106h-84c-73 0 -141 15 -197 41
c-51 -25 -109 -37 -176 -40c-18 0 -37 -1 -57 -1c-18 0 -32 47 -32 106c0 58 14 106 32 106h41c17 0 35 0 52 1c-10 29 -11 60 -2 95c20 76 60 202 151 202c130 0 215 -79 215 -175c0 -44 -12 -89 -26 -123h34h49zM278 217c46 31 67 57 67 81c0 37 -24 57 -94 65
c-8 1 -18 1 -27 2c-9 -27 -17 -49 -21 -67c-10 -45 24 -69 75 -81z" />
    <glyph glyph-name="uniFB70" unicode="&#x6a6;" horiz-adv-x="451" arabic-form="initial" 
d="M167 760l-30 -64l-110 49v16l42 92l-42 19v16l44 96l110 -52v-5l30 65l110 -52v-15l-44 -91l44 -21v-15l-45 -94l-109 49v7zM138 825l43 -20v-5l28 61l-42 19v7zM412 355c6 -98 -15 -244 -62 -286c-56 -49 -166 -65 -290 -68c-19 -1 -40 -1 -60 -1c-18 0 -32 47 -32 106
c0 58 14 106 32 106h52c104 0 175 2 227 15c2 15 2 29 2 43c-51 -9 -81 -12 -138 -12c-78 0 -120 43 -121 118c0 8 0 16 1 25c19 175 87 253 189 253c75 0 119 -38 147 -87c31 -52 48 -134 53 -212zM173 404c36 -1 72 2 100 6c-5 40 -14 77 -23 99c-17 4 -32 7 -50 7
c-41 0 -61 -13 -66 -82v-6c0 -20 11 -23 39 -24z" />
    <glyph glyph-name="uni066F.fina" unicode="&#x66f;" horiz-adv-x="712" 
d="M276 -258c-142 0 -248 66 -237 233c4 69 22 150 44 237l98 -7l11 -15c-10 -47 -21 -100 -26 -137c-12 -94 33 -114 133 -114c90 0 163 13 237 35l3 27h-120c-95 0 -149 42 -149 133c0 13 1 26 3 39c24 178 87 256 185 256c66 0 107 -30 137 -67c29 -35 50 -91 60 -150h57
c18 0 32 -48 32 -106c0 -59 -14 -106 -32 -106h-50c-11 -73 -31 -128 -61 -157c-52 -49 -163 -101 -325 -101zM428 166h99c-4 45 -14 82 -23 105c-18 4 -33 7 -50 7c-39 0 -59 -12 -65 -75c0 -2 -1 -6 -1 -10c-1 -23 10 -27 40 -27z" />
    <glyph glyph-name="uniFED6" unicode="&#x642;" horiz-adv-x="712" arabic-form="final" 
d="M463 642l109 -51v-15l-44 -95l-110 49v15l-33 -72l-110 49v16l45 96l109 -51v-13zM276 -258c-142 0 -248 66 -237 233c4 69 22 150 44 237l98 -7l11 -15c-10 -47 -21 -100 -26 -137c-12 -94 33 -114 133 -114c90 0 163 13 237 35l3 27h-120c-95 0 -149 42 -149 133
c0 13 1 26 3 39c24 178 87 256 185 256c66 0 107 -30 137 -67c29 -35 50 -91 60 -150h57c18 0 32 -48 32 -106c0 -59 -14 -106 -32 -106h-50c-11 -73 -31 -128 -61 -157c-52 -49 -163 -101 -325 -101zM428 166h99c-4 45 -14 82 -23 105c-18 4 -33 7 -50 7
c-39 0 -59 -12 -65 -75c0 -2 -1 -6 -1 -10c-1 -23 10 -27 40 -27z" />
    <glyph glyph-name="uniFED8" unicode="&#x642;" horiz-adv-x="514" arabic-form="medial" 
d="M287 727l110 -52v-15l-44 -94l-110 49v14l-33 -71l-110 49v16l44 96l110 -52v-13zM0 0c-18 0 -32 47 -32 106c0 58 14 106 32 106h41c17 0 35 0 52 1c-10 29 -11 60 -2 95c20 76 60 202 151 202c130 0 215 -79 215 -175c0 -44 -12 -89 -26 -123h34h49
c19 0 32 -48 32 -106c0 -59 -13 -106 -32 -106h-84c-73 0 -141 15 -197 41c-51 -25 -109 -37 -176 -40c-18 0 -37 -1 -57 -1zM278 217c46 31 67 57 67 81c0 37 -24 57 -94 65c-8 1 -18 1 -27 2c-9 -27 -17 -49 -21 -67c-10 -45 24 -69 75 -81z" />
    <glyph glyph-name="uniFED7" unicode="&#x642;" horiz-adv-x="451" arabic-form="initial" 
d="M224 870l109 -52v-15l-44 -94l-109 49v14l-34 -71l-109 49v16l44 96l109 -52v-13zM0 0c-18 0 -32 47 -32 106c0 58 14 106 32 106h52c104 0 175 2 227 15c2 15 2 29 2 43c-51 -9 -81 -12 -138 -12c-78 0 -120 43 -121 118c0 8 0 16 1 25c19 175 87 253 189 253
c75 0 119 -38 147 -87c31 -52 48 -134 53 -212c6 -98 -15 -244 -62 -286c-56 -49 -166 -65 -290 -68c-19 -1 -40 -1 -60 -1zM173 404c36 -1 72 2 100 6c-5 40 -14 77 -23 99c-17 4 -32 7 -50 7c-41 0 -61 -13 -66 -82v-6c0 -20 11 -23 39 -24z" />
    <glyph glyph-name="uniFEDA" unicode="&#x643;" horiz-adv-x="876" arabic-form="final" 
d="M309 -10c-214 0 -275 70 -271 192c1 35 5 74 13 124l13 81l102 15l11 -11l-13 -99c-8 -61 12 -90 166 -90c180 0 262 9 302 29l-5 446l139 35l-1 -426c0 -55 19 -74 70 -74h41c19 0 33 -48 33 -106c0 -59 -14 -106 -33 -106h-52c-67 0 -111 28 -132 74
c-13 -18 -28 -31 -47 -42c-61 -34 -164 -39 -336 -42zM346 282l-58 77c59 29 93 48 123 66c-37 15 -73 28 -113 43v97l175 117l9 -95l-91 -59c21 -8 41 -16 63 -24c44 -16 61 -37 61 -67c0 -53 -54 -94 -169 -155z" />
    <glyph glyph-name="uniFEDC" unicode="&#x643;" horiz-adv-x="564" arabic-form="medial" 
d="M0 0c-18 0 -32 47 -32 106c0 58 14 106 32 106c98 0 155 4 204 17c-17 28 -38 53 -74 94l-123 142l24 153l411 109l-5 -157l-252 -70l123 -147c82 -97 133 -137 198 -140c18 -1 38 -1 58 -1c18 0 32 -48 32 -106c0 -59 -14 -106 -32 -106s-34 0 -50 1
c-79 3 -135 32 -185 103c-3 -6 -6 -12 -10 -18c-43 -63 -131 -84 -232 -86h-87z" />
    <glyph glyph-name="uniFEDB" unicode="&#x643;" horiz-adv-x="480" arabic-form="initial" 
d="M0 0c-18 0 -32 47 -32 106c0 58 14 106 32 106c105 0 163 4 212 17c-16 26 -35 52 -72 91l-133 145l24 153l411 109l-5 -157l-253 -70l122 -135c41 -51 69 -96 69 -154c0 -138 -117 -209 -340 -211h-35z" />
    <glyph glyph-name="uniFB8F" unicode="&#x6a9;" horiz-adv-x="959" arabic-form="final" 
d="M309 -10c-214 0 -275 70 -271 192c1 36 5 77 14 129l12 76l102 15l11 -11l-13 -99c-8 -61 12 -90 166 -90c142 0 218 11 270 27c-14 24 -33 46 -66 83l-132 153l24 153l411 109l-5 -157l-252 -70l124 -147c84 -101 134 -139 204 -141h51c18 0 32 -48 32 -106
c0 -59 -14 -106 -32 -106h-40c-84 2 -142 30 -193 102c-9 -13 -20 -25 -35 -36c-65 -50 -189 -73 -382 -76z" />
    <glyph glyph-name="uniFB91" unicode="&#x6a9;" horiz-adv-x="564" arabic-form="medial" 
d="M0 0c-18 0 -32 47 -32 106c0 58 14 106 32 106c98 0 155 4 204 17c-17 28 -38 53 -74 94l-123 142l24 153l411 109l-5 -157l-252 -70l123 -147c82 -97 133 -137 198 -140c18 -1 38 -1 58 -1c18 0 32 -48 32 -106c0 -59 -14 -106 -32 -106s-34 0 -50 1
c-79 3 -135 32 -185 103c-3 -6 -6 -12 -10 -18c-43 -63 -131 -84 -232 -86h-87z" />
    <glyph glyph-name="uniFB90" unicode="&#x6a9;" horiz-adv-x="480" arabic-form="initial" 
d="M0 0c-18 0 -32 47 -32 106c0 58 14 106 32 106c105 0 163 4 212 17c-16 26 -35 52 -72 91l-133 145l24 153l411 109l-5 -157l-253 -70l122 -135c41 -51 69 -96 69 -154c0 -138 -117 -209 -340 -211h-35z" />
    <glyph glyph-name="uniFB93" unicode="&#x6af;" horiz-adv-x="959" arabic-form="final" 
d="M433 660l16 95l269 72l-6 -93zM309 -10c-214 0 -275 70 -271 192c1 36 5 77 14 129l12 76l102 15l11 -11l-13 -99c-8 -61 12 -90 166 -90c142 0 218 11 270 27c-14 24 -33 46 -66 83l-132 153l24 153l411 109l-5 -157l-252 -70l124 -147c84 -101 134 -139 204 -141h51
c18 0 32 -48 32 -106c0 -59 -14 -106 -32 -106h-40c-84 2 -142 30 -193 102c-9 -13 -20 -25 -35 -36c-65 -50 -189 -73 -382 -76z" />
    <glyph glyph-name="uniFB95" unicode="&#x6af;" horiz-adv-x="564" arabic-form="medial" 
d="M35 659l17 96l268 71l-6 -92zM0 0c-18 0 -32 47 -32 106c0 58 14 106 32 106c98 0 155 4 204 17c-17 28 -38 53 -74 94l-123 142l24 153l411 109l-5 -157l-252 -70l123 -147c82 -97 133 -137 198 -140c18 -1 38 -1 58 -1c18 0 32 -48 32 -106c0 -59 -14 -106 -32 -106
s-34 0 -50 1c-79 3 -135 32 -185 103c-3 -6 -6 -12 -10 -18c-43 -63 -131 -84 -232 -86h-87z" />
    <glyph glyph-name="uniFB94" unicode="&#x6af;" horiz-adv-x="480" arabic-form="initial" 
d="M35 659l17 96l268 71l-6 -92zM0 0c-18 0 -32 47 -32 106c0 58 14 106 32 106c105 0 163 4 212 17c-16 26 -35 52 -72 91l-133 145l24 153l411 109l-5 -157l-253 -70l122 -135c41 -51 69 -96 69 -154c0 -138 -117 -209 -340 -211h-35z" />
    <glyph glyph-name="uni06B0.init" unicode="&#x6b0;" horiz-adv-x="486" 
d="M323 825l-6 -93l-279 -74l16 95zM442 727l-5 -157l-33 -9c8 -13 13 -28 13 -44c0 -45 -36 -81 -81 -81s-81 36 -81 81v3l-71 -20l122 -135c41 -51 69 -96 69 -154c0 -138 -117 -209 -340 -211h-35c-18 0 -32 47 -32 106c0 58 14 106 32 106c105 0 163 4 212 17
c-16 26 -35 52 -72 91l-133 145l24 153zM336 493c13 0 24 11 24 24s-11 24 -24 24s-25 -11 -25 -24s12 -24 25 -24z" />
    <glyph glyph-name="uni06B0.medi" unicode="&#x6b0;" horiz-adv-x="564" 
d="M323 825l-6 -93l-279 -74l16 95zM564 212c18 0 32 -48 32 -106c0 -59 -14 -106 -32 -106s-34 0 -50 1c-79 3 -135 32 -185 103c-3 -6 -6 -12 -10 -18c-43 -63 -131 -84 -232 -86h-87c-18 0 -32 47 -32 106c0 58 14 106 32 106c98 0 155 4 204 17c-17 28 -38 53 -74 94
l-123 142l24 153l411 109l-5 -157l-31 -9c7 -12 12 -27 12 -43c0 -45 -36 -81 -81 -81s-81 36 -81 81v2l-71 -20l123 -147c82 -97 133 -137 198 -140c18 -1 38 -1 58 -1zM337 542h-1l-10 -3c-8 -4 -13 -12 -13 -21c0 -13 11 -25 24 -25s24 12 24 25s-11 24 -24 24z" />
    <glyph glyph-name="uni06B0.fina" unicode="&#x6b0;" horiz-adv-x="959" 
d="M717 828l-6 -93l-279 -74l16 95zM959 212c18 0 32 -48 32 -106c0 -59 -14 -106 -32 -106h-40c-84 2 -142 30 -193 102c-9 -13 -20 -25 -35 -36c-65 -50 -189 -73 -382 -76c-214 0 -275 70 -271 192c1 36 5 77 14 129l12 76l102 15l11 -11l-13 -99c-8 -61 12 -90 166 -90
c142 0 218 11 270 27c-14 24 -33 46 -66 83l-132 153l24 153l411 109l-5 -157l-40 -11c8 -12 12 -27 12 -42c0 -45 -36 -81 -81 -81s-81 36 -81 81l-62 -17l124 -147c84 -101 134 -139 204 -141h51zM747 517c0 12 -9 22 -20 24l-20 -6c-5 -4 -9 -11 -9 -18
c0 -13 12 -24 25 -24s24 11 24 24z" />
    <glyph glyph-name="uni06AA.init" unicode="&#x6aa;" horiz-adv-x="937" 
d="M0 0c-18 0 -32 47 -32 106c0 58 14 106 32 106h337c121 0 215 1 320 3c54 2 103 3 146 6c0 11 -3 23 -15 32c-12 17 -38 35 -100 35h-475c-105 0 -176 49 -176 145c0 43 11 85 35 121c30 44 79 81 153 104l181 60l-29 -153l-120 -33c-39 -11 -80 -22 -112 -33
c1 -7 2 -13 4 -18c6 -12 18 -18 46 -18h420c202 0 284 -110 284 -240c0 -161 -104 -223 -436 -223h-463z" />
    <glyph glyph-name="uni06AA.medi" unicode="&#x6aa;" horiz-adv-x="999" 
d="M-32 106c0 58 14 106 32 106h279c132 0 236 1 351 3c62 2 121 3 173 6c0 8 -2 18 -8 26c-9 19 -35 41 -107 41h-475c-105 0 -176 49 -176 145c0 42 10 82 34 119c30 45 79 83 154 106l181 60l-29 -153l-120 -33c-39 -11 -80 -22 -112 -33c1 -9 3 -17 8 -23
c6 -8 18 -13 42 -13h420c180 0 258 -89 278 -188c4 -20 5 -40 5 -60c18 -3 37 -3 61 -3h40c19 0 33 -48 33 -106c0 -59 -14 -106 -33 -106h-59c-45 0 -89 18 -125 52c-62 -37 -169 -52 -352 -52h-463c-18 0 -32 47 -32 106z" />
    <glyph glyph-name="uni06AA.fina" unicode="&#x6aa;" horiz-adv-x="1068" 
d="M532 0c-167 0 -322 2 -470 5l-24 201l10 11c100 -4 200 -5 332 -5c127 0 226 1 336 3c57 2 110 3 156 6c0 9 -2 18 -11 25c-10 19 -33 42 -104 42h-474c-106 0 -177 49 -177 145c0 45 12 89 39 127c30 42 78 76 149 98l182 60l-30 -153l-120 -33
c-39 -11 -80 -22 -112 -33c1 -9 2 -16 7 -21c6 -10 18 -15 44 -15h419c187 0 267 -95 281 -203c2 -15 3 -30 2 -45c17 -3 36 -3 59 -3h42c19 0 33 -48 33 -106c0 -59 -14 -106 -33 -106h-59c-45 0 -89 18 -125 52c-61 -37 -169 -52 -352 -52z" />
    <glyph glyph-name="uni06AB.init" unicode="&#x6ab;" horiz-adv-x="480" 
d="M442 727l-5 -157l-33 -9c8 -13 13 -28 13 -44c0 -45 -36 -81 -81 -81s-81 36 -81 81v3l-71 -20l122 -135c41 -51 69 -96 69 -154c0 -138 -117 -209 -340 -211h-35c-18 0 -32 47 -32 106c0 58 14 106 32 106c105 0 163 4 212 17c-16 26 -35 52 -72 91l-133 145l24 153z
M336 493c13 0 24 11 24 24s-11 24 -24 24s-25 -11 -25 -24s12 -24 25 -24z" />
    <glyph glyph-name="uni06AB.medi" unicode="&#x6ab;" horiz-adv-x="564" 
d="M564 212c18 0 32 -48 32 -106c0 -59 -14 -106 -32 -106s-34 0 -50 1c-79 3 -135 32 -185 103c-3 -6 -6 -12 -10 -18c-43 -63 -131 -84 -232 -86h-87c-18 0 -32 47 -32 106c0 58 14 106 32 106c98 0 155 4 204 17c-17 28 -38 53 -74 94l-123 142l24 153l411 109l-5 -157
l-34 -9c8 -13 13 -28 13 -44c0 -45 -36 -81 -81 -81s-81 36 -81 81v2l-69 -19l123 -147c82 -97 133 -137 198 -140c18 -1 38 -1 58 -1zM335 541h-3l-6 -2c-9 -4 -15 -12 -15 -22c0 -13 11 -24 24 -24s24 11 24 24s-11 24 -24 24z" />
    <glyph glyph-name="uni06AB.fina" unicode="&#x6ab;" horiz-adv-x="959" 
d="M959 212c18 0 32 -48 32 -106c0 -59 -14 -106 -32 -106h-40c-84 2 -142 30 -193 102c-9 -13 -20 -25 -35 -36c-65 -50 -189 -73 -382 -76c-214 0 -275 70 -271 192c1 36 5 77 14 129l12 76l102 15l11 -11l-13 -99c-8 -61 12 -90 166 -90c142 0 218 11 270 27
c-14 24 -33 46 -66 83l-132 153l24 153l411 109l-5 -157l-41 -11c7 -13 11 -27 11 -42c0 -45 -36 -81 -81 -81s-81 36 -81 81l-60 -17l124 -147c84 -101 134 -139 204 -141h51zM746 517c0 11 -9 21 -20 24l-21 -6c-5 -5 -8 -11 -8 -18c0 -13 11 -24 24 -24s25 11 25 24z" />
    <glyph glyph-name="uniFBD3" unicode="&#x6ad;" horiz-adv-x="809" arabic-form="isolated" 
d="M380 797l-31 -63l-73 34v11l31 64l73 -36v-10zM381 749l81 -39v-11l-33 -71l-81 37v4l-22 -47l-82 37v12l33 72l82 -39v-3zM368 -9c-136 0 -232 20 -306 34l-24 158l12 11c77 -8 186 -19 320 -19c123 0 209 9 267 25l-4 477l139 35l-1 -508c0 -65 -18 -110 -57 -140
c-61 -59 -182 -73 -346 -73zM314 275l-48 63c49 24 77 40 102 54c-31 13 -61 23 -93 35v81l143 96l8 -78l-75 -49c17 -7 34 -13 52 -20c37 -13 50 -31 50 -55c0 -43 -45 -78 -139 -127z" />
    <glyph glyph-name="uniFBD4" unicode="&#x6ad;" horiz-adv-x="876" arabic-form="final" 
d="M415 797l-30 -63l-73 34v11l30 64l73 -36v-10zM416 749l82 -39v-11l-33 -71l-82 37v4l-22 -47l-82 37v12l33 72l82 -39v-3zM309 -10c-214 0 -275 70 -271 192c1 35 5 74 13 124l13 81l102 15l11 -11l-13 -99c-8 -61 12 -90 166 -90c180 0 262 9 302 29l-5 446l139 35
l-1 -426c0 -55 19 -74 70 -74h41c19 0 33 -48 33 -106c0 -59 -14 -106 -33 -106h-52c-67 0 -111 28 -132 74c-13 -18 -28 -31 -47 -42c-61 -34 -164 -39 -336 -42zM349 275l-47 63c48 24 76 40 101 54c-31 13 -60 23 -93 35v81l144 96l7 -78l-74 -49c17 -7 34 -13 51 -20
c37 -13 51 -31 51 -55c0 -43 -45 -78 -140 -127z" />
    <glyph glyph-name="uniFBD6" unicode="&#x6ad;" horiz-adv-x="564" arabic-form="medial" 
d="M190 914l-25 -86l-99 27l-2 13l24 87l100 -28zM201 853l112 -30l2 -14l-26 -96l-110 28l-1 5l-17 -63l-111 28l-3 15l26 97l111 -30l1 -4zM0 0c-18 0 -32 47 -32 106c0 58 14 106 32 106c98 0 155 4 204 17c-17 28 -38 53 -74 94l-123 142l24 153l411 109l-5 -157
l-252 -70l123 -147c82 -97 133 -137 198 -140c18 -1 38 -1 58 -1c18 0 32 -48 32 -106c0 -59 -14 -106 -32 -106s-34 0 -50 1c-79 3 -135 32 -185 103c-3 -6 -6 -12 -10 -18c-43 -63 -131 -84 -232 -86h-87z" />
    <glyph glyph-name="uniFBD5" unicode="&#x6ad;" horiz-adv-x="480" arabic-form="initial" 
d="M190 914l-25 -86l-99 27l-2 13l24 87l100 -28zM201 853l112 -30l2 -14l-26 -96l-110 28l-1 5l-17 -63l-111 28l-3 15l26 97l111 -30l1 -4zM0 0c-18 0 -32 47 -32 106c0 58 14 106 32 106c105 0 163 4 212 17c-16 26 -35 52 -72 91l-133 145l24 153l411 109l-5 -157
l-253 -70l122 -135c41 -51 69 -96 69 -154c0 -138 -117 -209 -340 -211h-35z" />
    <glyph glyph-name="uniFB9A" unicode="&#x6b1;" horiz-adv-x="875" arabic-form="isolated" 
d="M561 979l117 -32l3 -15l-27 -100l-117 29l-2 14l-21 -76l-116 29l-3 16l27 102l117 -32l2 -12zM432 659l16 96l269 71l-6 -92zM309 -10c-211 0 -274 68 -271 188c0 8 0 20 1 30c3 31 7 68 14 111c4 23 7 46 11 68l102 15l11 -11l-13 -99c-1 -7 -2 -13 -2 -20
c0 -47 31 -70 168 -70c149 0 226 11 277 27c-15 26 -35 52 -71 91l-134 145l24 153l411 109l-5 -157l-253 -70l122 -135c41 -51 69 -96 69 -150c2 -136 -105 -219 -461 -225z" />
    <glyph glyph-name="uniFB9B" unicode="&#x6b1;" horiz-adv-x="959" arabic-form="final" 
d="M553 977l117 -32l3 -15l-28 -100l-116 29l-2 14l-21 -76l-116 30l-3 15l27 102l117 -31l2 -13zM433 660l16 95l269 72l-6 -93zM309 -10c-214 0 -275 70 -271 192c1 36 5 77 14 129l12 76l102 15l11 -11l-13 -99c-8 -61 12 -90 166 -90c142 0 218 11 270 27
c-14 24 -33 46 -66 83l-132 153l24 153l411 109l-5 -157l-252 -70l124 -147c84 -101 134 -139 204 -141h51c18 0 32 -48 32 -106c0 -59 -14 -106 -32 -106h-40c-84 2 -142 30 -193 102c-9 -13 -20 -25 -35 -36c-65 -50 -189 -73 -382 -76z" />
    <glyph glyph-name="uniFB9D" unicode="&#x6b1;" horiz-adv-x="564" arabic-form="medial" 
d="M175 978l117 -31l3 -15l-27 -101l-117 29l-2 14l-21 -76l-116 30l-3 15l27 103l117 -32l2 -13zM35 659l17 96l268 71l-6 -92zM0 0c-18 0 -32 47 -32 106c0 58 14 106 32 106c98 0 155 4 204 17c-17 28 -38 53 -74 94l-123 142l24 153l411 109l-5 -157l-252 -70l123 -147
c82 -97 133 -137 198 -140c18 -1 38 -1 58 -1c18 0 32 -48 32 -106c0 -59 -14 -106 -32 -106s-34 0 -50 1c-79 3 -135 32 -185 103c-3 -6 -6 -12 -10 -18c-43 -63 -131 -84 -232 -86h-87z" />
    <glyph glyph-name="uniFB9C" unicode="&#x6b1;" horiz-adv-x="480" arabic-form="initial" 
d="M175 978l117 -31l3 -15l-27 -101l-117 29l-2 14l-21 -76l-116 30l-3 15l27 103l117 -32l2 -13zM35 659l17 96l268 71l-6 -92zM0 0c-18 0 -32 47 -32 106c0 58 14 106 32 106c105 0 163 4 212 17c-16 26 -35 52 -72 91l-133 145l24 153l411 109l-5 -157l-253 -70l122 -135
c41 -51 69 -96 69 -154c0 -138 -117 -209 -340 -211h-35z" />
    <glyph glyph-name="uniFB96" unicode="&#x6b3;" horiz-adv-x="875" arabic-form="isolated" 
d="M717 826l-6 -92l-279 -75l16 96zM837 727l-5 -157l-253 -70l122 -135c41 -51 69 -96 69 -150c2 -136 -105 -219 -461 -225c-211 0 -274 68 -271 188c0 8 0 20 1 30c3 31 7 68 14 111c4 23 7 46 11 68l102 15l11 -11l-13 -99c-1 -7 -2 -13 -2 -20c0 -47 31 -70 168 -70
c149 0 226 11 277 27c-15 26 -35 52 -71 91l-134 145l24 153zM274 -176l44 96l110 -52v-15l-44 -94l-7 3l51 -24v-15l-44 -94l-110 49v16l43 95l-43 19v16z" />
    <glyph glyph-name="uniFB97" unicode="&#x6b3;" horiz-adv-x="959" arabic-form="final" 
d="M718 827l-6 -93l-279 -74l16 95zM959 212c18 0 32 -48 32 -106c0 -59 -14 -106 -32 -106h-40c-84 2 -142 30 -193 102c-9 -13 -20 -25 -35 -36c-65 -50 -189 -73 -382 -76c-214 0 -275 70 -271 192c1 36 5 77 14 129l12 76l102 15l11 -11l-13 -99c-8 -61 12 -90 166 -90
c142 0 218 11 270 27c-14 24 -33 46 -66 83l-132 153l24 153l411 109l-5 -157l-252 -70l124 -147c84 -101 134 -139 204 -141h51zM265 -171l45 96l109 -51v-15l-44 -95l44 -20v-15l-44 -95l-110 50v16l44 93l-44 20v16z" />
    <glyph glyph-name="uniFB99" unicode="&#x6b3;" horiz-adv-x="564" arabic-form="medial" 
d="M320 826l-6 -92l-279 -75l17 96zM564 212c18 0 32 -48 32 -106c0 -59 -14 -106 -32 -106s-34 0 -50 1c-79 3 -135 32 -185 103c-3 -6 -6 -12 -10 -18c-43 -63 -131 -84 -232 -86h-87c-18 0 -32 47 -32 106c0 58 14 106 32 106c98 0 155 4 204 17c-17 28 -38 53 -74 94
l-123 142l24 153l411 109l-5 -157l-252 -70l123 -147c82 -97 133 -137 198 -140c18 -1 38 -1 58 -1zM136 -153l44 96l110 -52v-15l-44 -94l44 -20v-15l-44 -95l-110 50v16l43 94l-43 19v16z" />
    <glyph glyph-name="uniFB98" unicode="&#x6b3;" horiz-adv-x="480" arabic-form="initial" 
d="M320 826l-6 -92l-279 -75l17 96zM442 727l-5 -157l-253 -70l122 -135c41 -51 69 -96 69 -154c0 -138 -117 -209 -340 -211h-35c-18 0 -32 47 -32 106c0 58 14 106 32 106c105 0 163 4 212 17c-16 26 -35 52 -72 91l-133 145l24 153zM143 -150l45 95l109 -51v-15l-44 -94
l44 -21v-15l-44 -94l-110 49v16l44 94l-44 20v16z" />
    <glyph glyph-name="uniFEDE" unicode="&#x644;" horiz-adv-x="728" arabic-form="final" 
d="M52 40c4 68 22 150 44 236l98 -7l11 -14c-10 -48 -21 -101 -26 -138c-11 -78 33 -98 121 -98c75 0 131 17 179 41l-21 617l133 36l12 -446c2 -42 22 -55 71 -55h54c19 0 33 -48 33 -106c0 -59 -14 -106 -33 -106h-31c-34 0 -65 7 -91 21l-3 -27c-4 -25 -16 -59 -38 -80
c-61 -66 -150 -107 -288 -107c-130 0 -237 65 -225 233z" />
    <glyph glyph-name="uniFEE0" unicode="&#x644;" horiz-adv-x="373" arabic-form="medial" 
d="M-32 106c0 58 14 106 32 106h18c42 1 84 8 113 19l-5 446l133 35l-1 -426c0 -55 19 -74 70 -74h45c18 0 32 -48 32 -106c0 -59 -14 -106 -32 -106h-40c-62 0 -105 19 -132 56c-39 -35 -98 -54 -172 -56h-29c-18 0 -32 47 -32 106z" />
    <glyph glyph-name="uniFEDF" unicode="&#x644;" horiz-adv-x="300" arabic-form="initial" 
d="M0 0c-18 0 -32 47 -32 106c0 58 14 106 32 106h13c45 1 91 7 121 20l-5 445l133 35l-1 -514c0 -116 -83 -196 -235 -198h-26z" />
    <glyph glyph-name="uni06B5.init" unicode="&#x6b5;" horiz-adv-x="300" 
d="M160 722l-87 227l59 46l57 -161l61 162l56 -46l-80 -195zM0 0c-18 0 -32 47 -32 106c0 58 14 106 32 106h13c45 1 91 7 121 20l-5 445l133 35l-1 -514c0 -116 -83 -196 -235 -198h-26z" />
    <glyph glyph-name="uni06B5.medi" unicode="&#x6b5;" horiz-adv-x="373" 
d="M160 722l-87 227l59 46l57 -161l61 162l56 -46l-80 -195zM-32 106c0 58 14 106 32 106h18c42 1 84 8 113 19l-5 446l133 35l-1 -426c0 -55 19 -74 70 -74h45c18 0 32 -48 32 -106c0 -59 -14 -106 -32 -106h-40c-62 0 -105 19 -132 56c-39 -35 -98 -54 -172 -56h-29
c-18 0 -32 47 -32 106z" />
    <glyph glyph-name="uni06B5.fina" unicode="&#x6b5;" horiz-adv-x="728" 
d="M52 40c4 68 22 150 44 236l98 -7l11 -14c-10 -48 -21 -101 -26 -138c-11 -78 33 -98 121 -98c75 0 131 17 179 41l-21 617l133 36l12 -446c2 -42 22 -55 71 -55h54c19 0 33 -48 33 -106c0 -59 -14 -106 -33 -106h-31c-34 0 -65 7 -91 21l-3 -27c-4 -25 -16 -59 -38 -80
c-61 -66 -150 -107 -288 -107c-130 0 -237 65 -225 233zM244 327l-88 228l59 46l57 -162l62 162l56 -46l-81 -195z" />
    <glyph glyph-name="uniFEE2" unicode="&#x645;" horiz-adv-x="660" arabic-form="final" 
d="M48 -248l-10 378c-2 80 20 144 81 195c65 54 266 126 363 126c41 0 55 -15 64 -60l22 -101c12 -54 30 -78 92 -78c19 0 33 -48 33 -106c0 -59 -14 -106 -33 -106h-25c-53 0 -96 17 -127 69c-1 -3 -3 -5 -4 -8l-30 -71h-85c-96 0 -173 38 -173 140c0 30 5 62 14 101
c-21 -8 -41 -18 -58 -26c1 -119 8 -275 13 -416zM411 166h54l-20 105c-3 11 -6 16 -19 16c-29 0 -62 -8 -96 -19c-6 -30 -7 -47 -7 -59c0 -36 33 -43 88 -43z" />
    <glyph glyph-name="uniFEE4" unicode="&#x645;" horiz-adv-x="569" arabic-form="medial" 
d="M402 -10c-97 0 -204 18 -270 74c-26 -37 -50 -64 -117 -64h-15c-18 0 -32 47 -32 106c0 58 14 106 32 106h25c48 0 72 20 89 51l50 91c30 58 71 89 134 89c62 0 101 -23 148 -51c10 -39 19 -79 28 -112c13 -52 35 -68 95 -68c18 0 32 -48 32 -106
c0 -59 -14 -106 -32 -106h-17c-36 0 -84 15 -113 54l-4 -7zM368 165c-5 39 -12 75 -22 114c-13 7 -29 12 -50 12c-39 0 -54 -35 -81 -81c25 -22 90 -42 153 -45z" />
    <glyph glyph-name="uniFEE3" unicode="&#x645;" horiz-adv-x="526" arabic-form="initial" 
d="M-32 106c0 58 14 106 32 106h25c48 0 72 20 89 51l50 91c30 58 71 89 134 89c141 0 200 -130 188 -324l-84 -129c-97 0 -204 18 -270 74c-26 -37 -50 -64 -117 -64h-15c-18 0 -32 47 -32 106zM215 210c25 -23 89 -41 152 -44c1 70 -23 125 -71 125c-10 0 -23 -2 -38 -6z
" />
    <glyph glyph-name="uniFEE6" unicode="&#x646;" horiz-adv-x="759" arabic-form="final" 
d="M363 210l-120 54v17l48 105l120 -57v-16zM280 -193c-146 0 -252 65 -241 233c4 68 22 150 44 236l98 -7l11 -14c-10 -48 -21 -101 -26 -138c-10 -78 33 -98 137 -98c93 0 168 22 219 46c-11 73 -27 161 -42 244l117 72l16 -8l21 -100c9 -46 23 -61 70 -61h55
c19 0 33 -48 33 -106c0 -59 -14 -106 -33 -106h-16c-34 0 -65 9 -92 28l-3 -25c-6 -27 -16 -61 -41 -85c-61 -67 -175 -111 -327 -111z" />
    <glyph glyph-name="uniFEE8" unicode="&#x646;" horiz-adv-x="378" arabic-form="medial" 
d="M208 434l-120 53v18l49 105l120 -57v-16zM0 0c-18 0 -32 47 -32 106c0 58 14 106 32 106h50c69 0 95 7 104 56l19 96l12 9l108 -27l-12 -77c-6 -37 15 -57 54 -57h43c19 0 33 -48 33 -106c0 -59 -14 -106 -33 -106h-56c-62 0 -104 30 -123 76c-39 -60 -92 -74 -152 -75
c-15 -1 -31 -1 -47 -1z" />
    <glyph glyph-name="uniFEE7" unicode="&#x646;" horiz-adv-x="351" arabic-form="initial" 
d="M189 501l-120 54v17l49 105l120 -56v-17zM0 0c-18 0 -32 47 -32 106c0 58 14 106 32 106c51 0 116 6 165 22l-24 145l132 82l13 -9c16 -105 27 -174 27 -217c0 -79 -18 -141 -68 -177c-64 -45 -149 -58 -245 -58z" />
    <glyph glyph-name="uniFB9F" unicode="&#x6ba;" horiz-adv-x="759" arabic-form="final" 
d="M280 -193c-146 0 -252 65 -241 233c4 68 22 150 44 236l98 -7l11 -14c-10 -48 -21 -101 -26 -138c-10 -78 33 -98 137 -98c93 0 168 22 219 46c-11 73 -27 161 -42 244l117 72l16 -8l21 -100c9 -46 23 -61 70 -61h55c19 0 33 -48 33 -106c0 -59 -14 -106 -33 -106h-16
c-34 0 -65 9 -92 28l-3 -25c-6 -27 -16 -61 -41 -85c-61 -67 -175 -111 -327 -111z" />
    <glyph glyph-name="uniFBA0" unicode="&#x6bb;" horiz-adv-x="694" arabic-form="isolated" 
d="M174 385h41l28 35l-1 197l56 14v-144c9 9 19 17 28 23c17 11 36 16 58 16c60 0 92 -52 92 -103c0 -71 -55 -114 -173 -114h-118zM280 385h27c62 0 95 6 116 21c-1 34 -17 49 -46 49c-19 0 -28 -1 -44 -4zM280 -193c-146 0 -252 65 -241 233c4 68 22 150 44 236l98 -7
l11 -14c-10 -48 -21 -101 -26 -138c-10 -78 33 -98 137 -98c93 0 168 22 219 46c-11 73 -27 161 -42 244l117 72l16 -8c22 -130 43 -243 43 -311c0 -52 -14 -107 -49 -144c-61 -67 -175 -111 -327 -111z" />
    <glyph glyph-name="uniFBA1" unicode="&#x6bb;" horiz-adv-x="759" arabic-form="final" 
d="M174 385h41l28 35l-1 197l56 14v-144c9 9 19 17 28 23c17 11 36 16 58 16c60 0 92 -52 92 -103c0 -71 -55 -114 -173 -114h-118zM280 385h27c62 0 95 6 116 21c-1 34 -17 49 -46 49c-19 0 -28 -1 -44 -4zM280 -193c-146 0 -252 65 -241 233c4 68 22 150 44 236l98 -7
l11 -14c-10 -48 -21 -101 -26 -138c-10 -78 33 -98 137 -98c93 0 168 22 219 46c-11 73 -27 161 -42 244l117 72l16 -8l21 -100c9 -46 23 -61 70 -61h55c19 0 33 -48 33 -106c0 -59 -14 -106 -33 -106h-16c-34 0 -65 9 -92 28l-3 -25c-6 -27 -16 -61 -41 -85
c-61 -67 -175 -111 -327 -111z" />
    <glyph glyph-name="uniFBA3" unicode="&#x6bb;" horiz-adv-x="378" arabic-form="medial" 
d="M33 503h40l28 35l-1 197l57 14v-144c9 9 18 17 28 23c17 11 36 16 58 16c60 0 92 -51 92 -103c0 -71 -55 -114 -174 -114h-117zM138 503h28c62 0 95 6 116 21c-2 34 -17 50 -47 50c-18 0 -27 -1 -43 -5zM0 0c-18 0 -32 47 -32 106c0 58 14 106 32 106h50
c69 0 95 7 104 56l19 96l12 9l108 -27l-12 -77c-6 -37 15 -57 54 -57h43c19 0 33 -48 33 -106c0 -59 -14 -106 -33 -106h-56c-62 0 -104 30 -123 76c-39 -60 -92 -74 -152 -75c-15 -1 -31 -1 -47 -1z" />
    <glyph glyph-name="uniFBA2" unicode="&#x6bb;" horiz-adv-x="351" arabic-form="initial" 
d="M-25 563h41l28 35l-1 198l56 14v-145c9 9 19 17 28 23c17 11 36 16 58 16c61 0 92 -51 92 -103c0 -71 -54 -113 -173 -113h-118zM81 563h27c63 0 96 7 116 21c-1 34 -16 50 -46 50c-19 0 -28 -1 -44 -5zM0 0c-18 0 -32 47 -32 106c0 58 14 106 32 106c51 0 116 6 165 22
l-24 145l132 82l13 -9c16 -105 27 -174 27 -217c0 -79 -18 -141 -68 -177c-64 -45 -149 -58 -245 -58z" />
    <glyph glyph-name="uni06BC.init" unicode="&#x6bc;" horiz-adv-x="351" 
d="M238 604l-49 -103l-120 54v17l49 105l120 -56v-17zM286 452c16 -105 27 -174 27 -217c0 -79 -18 -141 -68 -177c-13 -9 -26 -17 -41 -23c10 -13 15 -30 15 -47c0 -45 -36 -81 -81 -81s-81 36 -81 81c0 5 0 9 1 14c-19 -1 -38 -2 -58 -2c-18 0 -32 47 -32 106
c0 58 14 106 32 106c51 0 116 6 165 22l-24 145l132 82zM138 -36c13 0 24 11 24 24s-11 24 -24 24s-25 -11 -25 -24s12 -24 25 -24z" />
    <glyph glyph-name="uni06BC.medi" unicode="&#x6bc;" horiz-adv-x="378" 
d="M257 537l-49 -103l-120 53v18l49 105l120 -57v-16zM378 212c19 0 33 -48 33 -106c0 -59 -14 -106 -33 -106h-56c-62 0 -104 30 -123 76c-8 -12 -17 -23 -26 -31c15 -15 24 -35 24 -58c0 -45 -36 -81 -81 -81s-81 36 -81 81c0 5 0 9 1 13h-36c-18 0 -32 47 -32 106
c0 58 14 106 32 106h50c69 0 95 7 104 56l19 96l12 9l108 -27l-12 -77c-6 -37 15 -57 54 -57h43zM140 -13c0 13 -11 24 -23 24c-5 -1 -9 -3 -14 -4c-6 -4 -11 -12 -11 -20c0 -13 11 -24 24 -24s24 11 24 24z" />
    <glyph glyph-name="uni06BC.fina" unicode="&#x6bc;" horiz-adv-x="759" 
d="M411 313l-48 -103l-120 54v17l48 105l120 -57v-16zM759 212c19 0 33 -48 33 -106c0 -59 -14 -106 -33 -106h-16c-34 0 -65 9 -92 28l-3 -25c-6 -27 -16 -61 -41 -85c-57 -63 -161 -106 -300 -111c4 -9 6 -19 6 -30c0 -45 -36 -81 -81 -81s-81 36 -81 81c0 18 5 34 15 47
c-83 29 -135 96 -127 216c4 68 22 150 44 236l98 -7l11 -14c-10 -48 -21 -101 -26 -138c-10 -78 33 -98 137 -98c93 0 168 22 219 46c-11 73 -27 161 -42 244l117 72l16 -8l21 -100c9 -46 23 -61 70 -61h55zM232 -247c13 0 24 11 24 24s-11 24 -24 24s-24 -11 -24 -24
s11 -24 24 -24z" />
    <glyph glyph-name="uniFEE9" unicode="&#x647;" horiz-adv-x="732" arabic-form="isolated" 
d="M123 -48l-85 145l3 20c24 9 48 16 71 24c17 6 34 11 50 17c-19 35 -29 67 -28 102c1 20 5 39 11 59c10 31 19 56 30 75l-43 14l33 152l19 10l271 -87c191 -61 239 -148 239 -291c0 -29 -2 -60 -5 -93l-69 -103l-216 25c-23 2 -48 6 -72 11c-43 -19 -90 -36 -140 -54
c-23 -9 -46 -18 -69 -26zM319 216c38 24 64 53 64 78c0 27 -23 46 -59 57c-15 5 -32 8 -49 10c-8 -14 -17 -38 -25 -67c-2 -6 -3 -11 -3 -17c0 -33 32 -52 72 -61zM575 181c0 16 0 31 -2 44c-5 35 -23 63 -77 80l-26 8c0 -10 0 -20 -1 -29c-1 -32 -11 -60 -28 -86l34 -4z
" />
    <glyph glyph-name="uniFEEA" unicode="&#x647;" horiz-adv-x="543" arabic-form="final" 
d="M511 0c-77 0 -136 33 -164 100l-28 -63c-27 -3 -60 -5 -89 -5c-123 0 -192 44 -192 150c0 87 51 181 161 233l112 53v68l132 39v-296c0 -45 18 -67 61 -67h39c18 0 32 -48 32 -106c0 -59 -14 -106 -32 -106h-32zM264 209h46v115l-47 -19c-35 -15 -65 -27 -101 -42
c-1 -6 -1 -11 -1 -15c-1 -33 24 -39 103 -39z" />
    <glyph glyph-name="uniFEEC" unicode="&#x647;" horiz-adv-x="628" arabic-form="medial" 
d="M223 -235c-77 85 -120 168 -127 235h-96c-18 0 -32 47 -32 106c0 58 14 106 32 106h99c15 90 34 162 62 258l121 83l83 -91c73 -78 89 -123 89 -189c0 -27 -5 -57 -21 -87c-35 -69 -100 -134 -210 -166c11 -41 37 -78 71 -114l94 151c62 99 111 155 200 155h40
c18 0 32 -48 32 -106c0 -59 -14 -106 -32 -106h-48c-65 0 -93 -30 -145 -118l-69 -117h-143zM210 210c74 3 113 36 125 57c0 18 -34 60 -79 111c-22 -70 -33 -107 -46 -168z" />
    <glyph glyph-name="uniFEEB" unicode="&#x647;" horiz-adv-x="688" arabic-form="initial" 
d="M0 0c-18 0 -32 47 -32 106c0 58 14 106 32 106h40c18 0 41 0 62 1c-7 15 -11 29 -12 47c0 16 4 35 11 59c9 31 18 56 30 75l-44 14l34 152l19 10l271 -87c191 -61 239 -148 239 -291c0 -29 -2 -60 -5 -93l-69 -103l-217 25c-36 4 -76 9 -112 24
c-60 -32 -131 -45 -198 -45h-49zM274 216c39 24 64 53 64 78c0 28 -26 49 -67 60c-12 3 -26 5 -40 7c-8 -14 -17 -38 -25 -67c-2 -5 -2 -10 -2 -15c-1 -34 30 -54 70 -63zM531 181c0 16 0 31 -2 45c-6 34 -24 62 -78 79l-26 8c1 -10 1 -20 0 -30c-1 -31 -11 -59 -29 -85
c12 -1 23 -3 35 -4z" />
    <glyph glyph-name="uniFBA5" unicode="&#x6c0;" horiz-adv-x="543" arabic-form="final" 
d="M212 577l19 93l30 13c-14 16 -23 39 -23 62c0 63 47 116 112 121c12 0 25 -1 39 -5c8 -1 16 -3 24 -5l1 -80l-24 3c-12 2 -23 3 -32 3c-20 0 -36 -2 -50 -5c-1 -7 -1 -12 0 -17c1 -23 16 -36 38 -36c7 0 16 1 24 3l91 22l5 -5l-19 -92l-24 -8c-73 -24 -146 -50 -206 -72z
M511 0c-77 0 -136 33 -164 100l-28 -63c-27 -3 -60 -5 -89 -5c-123 0 -192 44 -192 150c0 87 51 181 161 233l112 53v68l132 39v-296c0 -45 18 -67 61 -67h39c18 0 32 -48 32 -106c0 -59 -14 -106 -32 -106h-32zM264 209h46v115l-47 -19c-35 -15 -65 -27 -101 -42
c-1 -6 -1 -11 -1 -15c-1 -33 24 -39 103 -39z" />
    <glyph glyph-name="uniFBA6" unicode="&#x6c1;" horiz-adv-x="489" arabic-form="isolated" 
d="M220 -10c-100 0 -180 45 -182 150c-2 58 22 122 94 232l-37 26l66 145l15 2l103 -77c116 -85 171 -166 173 -258c2 -151 -105 -220 -232 -220zM233 177c40 0 74 10 93 40c-21 31 -53 62 -105 104c-38 -57 -54 -87 -54 -110s23 -34 66 -34z" />
    <glyph glyph-name="uniFBA7" unicode="&#x6c1;" horiz-adv-x="535" arabic-form="final" 
d="M487 0c-81 0 -147 47 -168 161l-16 85l-42 -39c-67 -62 -103 -99 -148 -167l-75 89c38 115 74 180 161 263l86 80l108 -49l25 -141c8 -47 30 -70 80 -70h37c18 0 32 -48 32 -106c0 -59 -14 -106 -32 -106h-48z" />
    <glyph glyph-name="uniFBA9" unicode="&#x6c1;" horiz-adv-x="619" arabic-form="medial" 
d="M227 -235c-71 91 -86 179 -81 278c-25 -31 -59 -43 -103 -43h-43c-18 0 -32 47 -32 106c0 58 14 106 32 106h49c83 0 114 20 127 69l25 95l113 -27l8 -15l-21 -85c-38 -156 -40 -258 -4 -325l82 133c62 99 111 155 200 155h40c18 0 32 -48 32 -106
c0 -59 -14 -106 -32 -106h-48c-65 0 -92 -30 -145 -118l-69 -117h-130zM96 -281c-84 -1 -110 53 -110 90c0 32 17 68 53 113l42 51l49 -57l-28 -33c-13 -16 -17 -25 -17 -34c0 -11 20 -22 53 -28z" />
    <glyph glyph-name="uniFBA8" unicode="&#x6c1;" horiz-adv-x="351" arabic-form="initial" 
d="M0 0c-18 0 -32 47 -32 106c0 58 14 106 32 106c51 0 116 6 165 22l-24 145l132 82l13 -9c16 -105 27 -174 27 -217c0 -79 -18 -141 -68 -177c-64 -45 -149 -58 -245 -58zM39 -173c0 32 17 68 53 113l42 51l48 -57l-27 -33c-13 -16 -17 -25 -17 -34c0 -11 20 -22 53 -28
l-43 -102c-83 -1 -109 53 -109 90z" />
    <glyph glyph-name="uni06C2.init" unicode="&#x6c2;" horiz-adv-x="351" 
d="M37 457l20 93l30 13c-15 16 -23 39 -23 62c0 63 47 116 112 121c12 0 25 -1 38 -5c9 -1 17 -3 25 -5l1 -80l-24 3c-12 2 -23 3 -32 3c-20 0 -36 -2 -50 -5c-1 -7 -1 -12 -1 -17c2 -23 17 -36 39 -36c7 0 16 1 24 3l91 22l5 -5l-19 -92l-24 -8c-73 -24 -146 -50 -206 -72z
M0 0c-18 0 -32 47 -32 106c0 58 14 106 32 106c51 0 116 6 165 22l-24 145l132 82l13 -9c16 -105 27 -174 27 -217c0 -79 -18 -141 -68 -177c-64 -45 -149 -58 -245 -58zM39 -173c0 32 17 68 53 113l42 51l48 -57l-27 -33c-13 -16 -17 -25 -17 -34c0 -11 20 -22 53 -28
l-43 -102c-83 -1 -109 53 -109 90z" />
    <glyph glyph-name="uni06C2.medi" unicode="&#x6c2;" horiz-adv-x="619" 
d="M110 421l19 93l30 13c-14 16 -22 39 -22 62c0 63 47 116 111 121c13 0 26 -1 39 -5c8 -1 17 -3 25 -5l1 -80l-25 3c-12 2 -22 3 -32 3c-20 0 -35 -2 -50 -6c-1 -6 -1 -11 0 -16c1 -23 16 -37 39 -37c7 0 15 1 23 4l91 22l5 -5l-18 -92l-25 -8c-73 -24 -146 -50 -206 -72z
M227 -235c-71 91 -86 179 -81 278c-25 -31 -59 -43 -103 -43h-43c-18 0 -32 47 -32 106c0 58 14 106 32 106h49c83 0 114 20 127 69l25 95l113 -27l8 -15l-21 -85c-38 -156 -40 -258 -4 -325l82 133c62 99 111 155 200 155h40c18 0 32 -48 32 -106c0 -59 -14 -106 -32 -106
h-48c-65 0 -92 -30 -145 -118l-69 -117h-130z" />
    <glyph glyph-name="uni06C2.fina" unicode="&#x6c2;" horiz-adv-x="543" 
d="M212 577l19 93l30 13c-14 16 -23 39 -23 62c0 63 47 116 112 121c12 0 25 -1 39 -5c8 -1 16 -3 24 -5l1 -80l-24 3c-12 2 -23 3 -32 3c-20 0 -36 -2 -50 -5c-1 -7 -1 -12 0 -17c1 -23 16 -36 38 -36c7 0 16 1 24 3l91 22l5 -5l-19 -92l-24 -8c-73 -24 -146 -50 -206 -72z
M511 0c-77 0 -136 33 -164 100l-28 -63c-27 -3 -60 -5 -89 -5c-123 0 -192 44 -192 150c0 87 51 181 161 233l112 53v68l132 39v-296c0 -45 18 -67 61 -67h39c18 0 32 -48 32 -106c0 -59 -14 -106 -32 -106h-32zM264 209h46v115l-47 -19c-35 -15 -65 -27 -101 -42
c-1 -6 -1 -11 -1 -15c-1 -33 24 -39 103 -39z" />
    <glyph glyph-name="uniFBAA" unicode="&#x6be;" horiz-adv-x="732" arabic-form="isolated" 
d="M123 -48l-85 145l3 20c24 9 48 16 71 24c17 6 34 11 50 17c-19 35 -29 67 -28 102c1 20 5 39 11 59c10 31 19 56 30 75l-43 14l33 152l19 10l271 -87c191 -61 239 -148 239 -291c0 -29 -2 -60 -5 -93l-69 -103l-216 25c-23 2 -48 6 -72 11c-43 -19 -90 -36 -140 -54
c-23 -9 -46 -18 -69 -26zM319 216c38 24 64 53 64 78c0 27 -23 46 -59 57c-15 5 -32 8 -49 10c-8 -14 -17 -38 -25 -67c-2 -6 -3 -11 -3 -17c0 -33 32 -52 72 -61zM575 181c0 16 0 31 -2 44c-5 35 -23 63 -77 80l-26 8c0 -10 0 -20 -1 -29c-1 -32 -11 -60 -28 -86l34 -4z
" />
    <glyph glyph-name="uniFBAB" unicode="&#x6be;" horiz-adv-x="716" arabic-form="final" 
d="M408 -253c-139 0 -207 104 -209 235l-87 -26l-74 151l4 20l164 45c17 114 32 172 69 298l120 83l84 -91c72 -78 88 -123 88 -189c0 -20 -2 -41 -12 -61c-3 -9 -7 -17 -12 -25c33 17 67 25 102 25h71c19 0 32 -48 32 -106c0 -59 -13 -106 -32 -106h-135
c10 -23 13 -46 13 -70c0 -93 -80 -183 -186 -183zM323 210c74 11 114 38 125 57c0 18 -33 60 -79 111c-22 -70 -33 -107 -46 -168zM411 -89c50 0 77 35 81 57c-12 38 -51 58 -113 58h-55c-4 -78 31 -115 87 -115z" />
    <glyph glyph-name="uniFBAD" unicode="&#x6be;" horiz-adv-x="741" arabic-form="medial" 
d="M0 0c-18 0 -32 47 -32 106c0 58 14 106 32 106h39c18 0 42 0 63 1c-7 16 -12 32 -12 51c1 16 4 33 11 55c9 31 18 56 30 75l-44 14l34 152l19 10l271 -87c138 -44 202 -100 225 -188c7 -25 10 -52 11 -83h51h43c19 0 33 -48 33 -106c0 -59 -14 -106 -33 -106
c-52 0 -96 0 -139 2c-79 1 -106 4 -218 17c-61 6 -101 11 -137 26c-60 -32 -131 -45 -198 -45h-49zM275 216c38 24 63 53 63 78c0 28 -25 48 -64 59c-13 4 -28 6 -43 8c-8 -14 -17 -38 -25 -67c-2 -6 -2 -11 -2 -16c-1 -34 31 -53 71 -62zM531 181c0 22 0 43 -5 60
c-8 27 -29 50 -75 64l-26 8c1 -8 1 -16 1 -24c-1 -35 -12 -62 -30 -91c12 -1 23 -3 35 -4z" />
    <glyph glyph-name="uniFBAC" unicode="&#x6be;" horiz-adv-x="688" arabic-form="initial" 
d="M0 0c-18 0 -32 47 -32 106c0 58 14 106 32 106h40c18 0 41 0 62 1c-7 15 -11 29 -12 47c0 16 4 35 11 59c9 31 18 56 30 75l-44 14l34 152l19 10l271 -87c191 -61 239 -148 239 -291c0 -29 -2 -60 -5 -93l-69 -103l-217 25c-36 4 -76 9 -112 24
c-60 -32 -131 -45 -198 -45h-49zM274 216c39 24 64 53 64 78c0 28 -26 49 -67 60c-12 3 -26 5 -40 7c-8 -14 -17 -38 -25 -67c-2 -5 -2 -10 -2 -15c-1 -34 30 -54 70 -63zM531 181c0 16 0 31 -2 45c-6 34 -24 62 -78 79l-26 8c1 -10 1 -20 0 -30c-1 -31 -11 -59 -29 -85
c12 -1 23 -3 35 -4z" />
    <glyph glyph-name="uniFCD9" unicode="&#xfcd9;" horiz-adv-x="688" arabic-form="initial" 
d="M353 582l-6 191l82 15v-127c0 -27 -4 -66 -9 -77zM0 0c-18 0 -32 47 -32 106c0 58 14 106 32 106h40c18 0 41 0 62 1c-7 15 -11 29 -12 47c0 16 4 35 11 59c9 31 18 56 30 75l-44 14l34 152l19 10l271 -87c191 -61 239 -148 239 -291c0 -29 -2 -60 -5 -93l-69 -103
l-217 25c-36 4 -76 9 -112 24c-60 -32 -131 -45 -198 -45h-49zM274 216c39 24 64 53 64 78c0 28 -26 49 -67 60c-12 3 -26 5 -40 7c-8 -14 -17 -38 -25 -67c-2 -5 -2 -10 -2 -15c-1 -34 30 -54 70 -63zM531 181c0 16 0 31 -2 45c-6 34 -24 62 -78 79l-26 8
c1 -10 1 -20 0 -30c-1 -31 -11 -59 -29 -85c12 -1 23 -3 35 -4z" />
    <glyph glyph-name="uniFE93" unicode="&#x629;" horiz-adv-x="489" arabic-form="isolated" 
d="M197 737l110 -52v-15l-45 -94l-109 49v14l-34 -71l-109 49v16l44 96l110 -52v-13zM220 -10c-100 0 -180 45 -182 150c-2 58 22 122 94 232l-37 26l66 145l15 2l103 -77c116 -85 171 -166 173 -258c2 -151 -105 -220 -232 -220zM233 177c40 0 74 10 93 40
c-21 31 -53 62 -105 104c-38 -57 -54 -87 -54 -110s23 -34 66 -34z" />
    <glyph glyph-name="uniFE94" unicode="&#x629;" horiz-adv-x="543" arabic-form="final" 
d="M297 772l110 -52v-15l-45 -94l-109 49v14l-34 -71l-109 49v16l44 96l110 -52v-13zM511 0c-77 0 -136 33 -164 100l-28 -63c-27 -3 -60 -5 -89 -5c-123 0 -192 44 -192 150c0 87 51 181 161 233l112 53v68l132 39v-296c0 -45 18 -67 61 -67h39c18 0 32 -48 32 -106
c0 -59 -14 -106 -32 -106h-32zM264 209h46v115l-47 -19c-35 -15 -65 -27 -101 -42c-1 -6 -1 -11 -1 -15c-1 -33 24 -39 103 -39z" />
    <glyph glyph-name="uni06C3.fina" unicode="&#x6c3;" horiz-adv-x="535" 
d="M298 685l109 -51v-15l-44 -95l-110 50v14l-33 -72l-110 50v16l45 95l109 -51v-13zM487 0c-81 0 -147 47 -168 161l-16 85l-42 -39c-67 -62 -103 -99 -148 -167l-75 89c38 115 74 180 161 263l86 80l108 -49l25 -141c8 -47 30 -70 80 -70h37c18 0 32 -48 32 -106
c0 -59 -14 -106 -32 -106h-48z" />
    <glyph glyph-name="uniFEEE" unicode="&#x648;" horiz-adv-x="484" arabic-form="final" 
d="M196 -240c-28 -1 -71 11 -143 37l-34 129l10 13c56 -4 92 -6 120 -5c68 3 121 45 162 88h-97c-96 0 -150 42 -149 135c0 12 1 24 3 37c24 178 87 256 185 256c70 0 113 -33 143 -75c22 -30 39 -72 50 -118c3 -14 6 -29 8 -45h30c19 0 33 -48 33 -106
c0 -59 -14 -106 -33 -106h-39c-38 -134 -140 -236 -249 -240zM221 187c37 -1 75 1 103 3c-5 42 -16 79 -25 101c-18 5 -34 8 -50 8c-39 0 -58 -12 -65 -72c-1 -4 -1 -8 -1 -14c-1 -22 10 -25 38 -26z" />
    <glyph glyph-name="uni06C4.fina" unicode="&#x6c4;" horiz-adv-x="484" 
d="M484 212c19 0 33 -48 33 -106c0 -59 -14 -106 -33 -106h-39c-30 -107 -101 -193 -184 -226c6 -11 9 -24 9 -38c0 -45 -36 -81 -81 -81s-81 36 -81 81c0 14 4 27 10 39c-19 6 -40 13 -65 22l-34 129l10 13c56 -4 92 -6 120 -5c68 3 121 45 162 88h-97
c-96 0 -150 42 -149 135c0 12 1 24 3 37c24 178 87 256 185 256c70 0 113 -33 143 -75c22 -30 39 -72 50 -118c3 -14 6 -29 8 -45h30zM221 187c37 -1 75 1 103 3c-5 42 -16 79 -25 101c-18 5 -34 8 -50 8c-39 0 -58 -12 -65 -72c-1 -4 -1 -8 -1 -14c-1 -22 10 -25 38 -26z
M189 -288c13 0 24 11 24 24s-10 23 -23 24h-1v0c-13 0 -24 -11 -24 -24s11 -24 24 -24z" />
    <glyph glyph-name="uni06CA.fina" unicode="&#x6ca;" horiz-adv-x="484" 
d="M248 653l110 -52v-15l-45 -94l-109 49v14l-34 -71l-109 49v16l44 96l110 -52v-13zM196 -240c-28 -1 -71 11 -143 37l-34 129l10 13c56 -4 92 -6 120 -5c68 3 121 45 162 88h-97c-96 0 -150 42 -149 135c0 12 1 24 3 37c24 178 87 256 185 256c70 0 113 -33 143 -75
c22 -30 39 -72 50 -118c3 -14 6 -29 8 -45h30c19 0 33 -48 33 -106c0 -59 -14 -106 -33 -106h-39c-38 -134 -140 -236 -249 -240zM221 187c37 -1 75 1 103 3c-5 42 -16 79 -25 101c-18 5 -34 8 -50 8c-39 0 -58 -12 -65 -72c-1 -4 -1 -8 -1 -14c-1 -22 10 -25 38 -26z" />
    <glyph glyph-name="uniFE85" unicode="&#x624;" horiz-adv-x="500" arabic-form="isolated" 
d="M97 482l20 93l30 13c-15 16 -23 40 -23 63c0 63 47 116 112 120c12 1 25 -1 39 -4l24 -6l1 -80c-8 2 -16 3 -24 4c-12 1 -23 2 -32 2c-20 0 -36 -2 -50 -5c-1 -6 -1 -11 -1 -16c2 -24 17 -37 39 -37c7 0 16 1 24 3l91 23l5 -5l-19 -93l-24 -7c-73 -25 -146 -51 -206 -72z
M196 -240c-28 -1 -71 11 -143 37l-34 129l10 13c56 -4 92 -6 120 -5c75 3 132 54 174 100c-39 -8 -78 -12 -109 -12c-96 0 -150 42 -149 134c0 12 1 24 3 38c24 178 87 256 185 256c76 0 123 -39 154 -89c37 -59 55 -152 55 -242c0 -182 -123 -355 -266 -359zM221 187
c37 -1 75 2 103 6c-6 41 -16 76 -25 98c-18 5 -34 8 -50 8c-38 0 -57 -12 -65 -70c-1 -5 -1 -9 -1 -15c-1 -23 10 -26 38 -27z" />
    <glyph glyph-name="uniFE86" unicode="&#x624;" horiz-adv-x="484" arabic-form="final" 
d="M97 482l20 93l30 13c-15 16 -23 40 -23 63c0 63 47 116 112 120c12 1 25 -1 39 -4l24 -6l1 -80c-8 2 -16 3 -24 4c-12 1 -23 2 -32 2c-20 0 -36 -2 -50 -5c-1 -6 -1 -11 -1 -16c2 -24 17 -37 39 -37c7 0 16 1 24 3l91 23l5 -5l-19 -93l-24 -7c-73 -25 -146 -51 -206 -72z
M196 -240c-28 -1 -71 11 -143 37l-34 129l10 13c56 -4 92 -6 120 -5c68 3 121 45 162 88h-97c-96 0 -150 42 -149 135c0 12 1 24 3 37c24 178 87 256 185 256c70 0 113 -33 143 -75c22 -30 39 -72 50 -118c3 -14 6 -29 8 -45h30c19 0 33 -48 33 -106
c0 -59 -14 -106 -33 -106h-39c-38 -134 -140 -236 -249 -240zM221 187c37 -1 75 1 103 3c-5 42 -16 79 -25 101c-18 5 -34 8 -50 8c-39 0 -58 -12 -65 -72c-1 -4 -1 -8 -1 -14c-1 -22 10 -25 38 -26z" />
    <glyph glyph-name="uniFBD9" unicode="&#x6c6;" horiz-adv-x="500" arabic-form="isolated" 
d="M222 495l-87 228l59 46l57 -162l61 162l56 -46l-80 -195zM196 -240c-28 -1 -71 11 -143 37l-34 129l10 13c56 -4 92 -6 120 -5c75 3 132 54 174 100c-39 -8 -78 -12 -109 -12c-96 0 -150 42 -149 134c0 12 1 24 3 38c24 178 87 256 185 256c76 0 123 -39 154 -89
c37 -59 55 -152 55 -242c0 -182 -123 -355 -266 -359zM221 187c37 -1 75 2 103 6c-6 41 -16 76 -25 98c-18 5 -34 8 -50 8c-38 0 -57 -12 -65 -70c-1 -5 -1 -9 -1 -15c-1 -23 10 -26 38 -27z" />
    <glyph glyph-name="uniFBDA" unicode="&#x6c6;" horiz-adv-x="484" arabic-form="final" 
d="M224 509l-87 228l59 46l56 -162l62 162l56 -46l-81 -195zM196 -240c-28 -1 -71 11 -143 37l-34 129l10 13c56 -4 92 -6 120 -5c68 3 121 45 162 88h-97c-96 0 -150 42 -149 135c0 12 1 24 3 37c24 178 87 256 185 256c70 0 113 -33 143 -75c22 -30 39 -72 50 -118
c3 -14 6 -29 8 -45h30c19 0 33 -48 33 -106c0 -59 -14 -106 -33 -106h-39c-38 -134 -140 -236 -249 -240zM221 187c37 -1 75 1 103 3c-5 42 -16 79 -25 101c-18 5 -34 8 -50 8c-39 0 -58 -12 -65 -72c-1 -4 -1 -8 -1 -14c-1 -22 10 -25 38 -26z" />
    <glyph glyph-name="uniFBD7" unicode="&#x6c7;" horiz-adv-x="500" arabic-form="isolated" 
d="M108 472l17 95l62 26c-12 24 -16 42 -16 58c0 64 44 106 104 106c66 0 109 -42 109 -106c0 -49 -29 -91 -87 -113l-184 -71zM245 649c0 -10 7 -27 17 -44c25 7 49 21 49 44c0 15 -15 29 -37 28c-16 0 -29 -11 -29 -28zM196 -240c-28 -1 -71 11 -143 37l-34 129l10 13
c56 -4 92 -6 120 -5c75 3 132 54 174 100c-39 -8 -78 -12 -109 -12c-96 0 -150 42 -149 134c0 12 1 24 3 38c24 178 87 256 185 256c76 0 123 -39 154 -89c37 -59 55 -152 55 -242c0 -182 -123 -355 -266 -359zM221 187c37 -1 75 2 103 6c-6 41 -16 76 -25 98
c-18 5 -34 8 -50 8c-38 0 -57 -12 -65 -70c-1 -5 -1 -9 -1 -15c-1 -23 10 -26 38 -27z" />
    <glyph glyph-name="uniFBD8" unicode="&#x6c7;" horiz-adv-x="484" arabic-form="final" 
d="M108 472l17 95l62 26c-12 24 -16 42 -16 58c0 64 44 106 104 106c66 0 109 -42 109 -106c0 -49 -29 -91 -87 -113l-184 -71zM245 649c0 -10 7 -27 17 -44c25 7 49 21 49 44c0 15 -15 29 -37 28c-16 0 -29 -11 -29 -28zM196 -240c-28 -1 -71 11 -143 37l-34 129l10 13
c56 -4 92 -6 120 -5c68 3 121 45 162 88h-97c-96 0 -150 42 -149 135c0 12 1 24 3 37c24 178 87 256 185 256c70 0 113 -33 143 -75c22 -30 39 -72 50 -118c3 -14 6 -29 8 -45h30c19 0 33 -48 33 -106c0 -59 -14 -106 -33 -106h-39c-38 -134 -140 -236 -249 -240zM221 187
c37 -1 75 1 103 3c-5 42 -16 79 -25 101c-18 5 -34 8 -50 8c-39 0 -58 -12 -65 -72c-1 -4 -1 -8 -1 -14c-1 -22 10 -25 38 -26z" />
    <glyph glyph-name="uniFBDB" unicode="&#x6c8;" horiz-adv-x="500" arabic-form="isolated" 
d="M218 498l-6 190l82 15v-126c0 -28 -4 -66 -8 -78zM196 -240c-28 -1 -71 11 -143 37l-34 129l10 13c56 -4 92 -6 120 -5c75 3 132 54 174 100c-39 -8 -78 -12 -109 -12c-96 0 -150 42 -149 134c0 12 1 24 3 38c24 178 87 256 185 256c76 0 123 -39 154 -89
c37 -59 55 -152 55 -242c0 -182 -123 -355 -266 -359zM221 187c37 -1 75 2 103 6c-6 41 -16 76 -25 98c-18 5 -34 8 -50 8c-38 0 -57 -12 -65 -70c-1 -5 -1 -9 -1 -15c-1 -23 10 -26 38 -27z" />
    <glyph glyph-name="uniFBDC" unicode="&#x6c8;" horiz-adv-x="484" arabic-form="final" 
d="M218 498l-6 190l82 15v-126c0 -28 -4 -66 -8 -78zM196 -240c-28 -1 -71 11 -143 37l-34 129l10 13c56 -4 92 -6 120 -5c68 3 121 45 162 88h-97c-96 0 -150 42 -149 135c0 12 1 24 3 37c24 178 87 256 185 256c70 0 113 -33 143 -75c22 -30 39 -72 50 -118
c3 -14 6 -29 8 -45h30c19 0 33 -48 33 -106c0 -59 -14 -106 -33 -106h-39c-38 -134 -140 -236 -249 -240zM221 187c37 -1 75 1 103 3c-5 42 -16 79 -25 101c-18 5 -34 8 -50 8c-39 0 -58 -12 -65 -72c-1 -4 -1 -8 -1 -14c-1 -22 10 -25 38 -26z" />
    <glyph glyph-name="uniFBE2" unicode="&#x6c9;" horiz-adv-x="500" arabic-form="isolated" 
d="M223 761l66 -33l80 -195l-56 -46l-61 162l-57 -161l-59 46zM196 -240c-28 -1 -71 11 -143 37l-34 129l10 13c56 -4 92 -6 120 -5c75 3 132 54 174 100c-39 -8 -78 -12 -109 -12c-96 0 -150 42 -149 134c0 12 1 24 3 38c24 178 87 256 185 256c76 0 123 -39 154 -89
c37 -59 55 -152 55 -242c0 -182 -123 -355 -266 -359zM221 187c37 -1 75 2 103 6c-6 41 -16 76 -25 98c-18 5 -34 8 -50 8c-38 0 -57 -12 -65 -70c-1 -5 -1 -9 -1 -15c-1 -23 10 -26 38 -27z" />
    <glyph glyph-name="uniFBE3" unicode="&#x6c9;" horiz-adv-x="484" arabic-form="final" 
d="M212 761l65 -33l81 -195l-57 -46l-61 162l-57 -161l-59 46zM196 -240c-28 -1 -71 11 -143 37l-34 129l10 13c56 -4 92 -6 120 -5c68 3 121 45 162 88h-97c-96 0 -150 42 -149 135c0 12 1 24 3 37c24 178 87 256 185 256c70 0 113 -33 143 -75c22 -30 39 -72 50 -118
c3 -14 6 -29 8 -45h30c19 0 33 -48 33 -106c0 -59 -14 -106 -33 -106h-39c-38 -134 -140 -236 -249 -240zM221 187c37 -1 75 1 103 3c-5 42 -16 79 -25 101c-18 5 -34 8 -50 8c-39 0 -58 -12 -65 -72c-1 -4 -1 -8 -1 -14c-1 -22 10 -25 38 -26z" />
    <glyph glyph-name="uniFBDE" unicode="&#x6cb;" horiz-adv-x="500" arabic-form="isolated" 
d="M234 703l-41 -85l-98 46v14l41 86l98 -48v-13zM235 638l109 -52v-15l-44 -94l-110 49v5l-29 -62l-109 49v16l44 96l109 -52v-4zM196 -240c-28 -1 -71 11 -143 37l-34 129l10 13c56 -4 92 -6 120 -5c75 3 132 54 174 100c-39 -8 -78 -12 -109 -12c-96 0 -150 42 -149 134
c0 12 1 24 3 38c24 178 87 256 185 256c76 0 123 -39 154 -89c37 -59 55 -152 55 -242c0 -182 -123 -355 -266 -359zM221 187c37 -1 75 2 103 6c-6 41 -16 76 -25 98c-18 5 -34 8 -50 8c-38 0 -57 -12 -65 -70c-1 -5 -1 -9 -1 -15c-1 -23 10 -26 38 -27z" />
    <glyph glyph-name="uniFBDF" unicode="&#x6cb;" horiz-adv-x="484" arabic-form="final" 
d="M234 703l-41 -85l-98 46v14l41 86l98 -48v-13zM235 638l109 -52v-15l-44 -94l-110 49v5l-29 -62l-109 49v16l44 96l109 -52v-4zM196 -240c-28 -1 -71 11 -143 37l-34 129l10 13c56 -4 92 -6 120 -5c68 3 121 45 162 88h-97c-96 0 -150 42 -149 135c0 12 1 24 3 37
c24 178 87 256 185 256c70 0 113 -33 143 -75c22 -30 39 -72 50 -118c3 -14 6 -29 8 -45h30c19 0 33 -48 33 -106c0 -59 -14 -106 -33 -106h-39c-38 -134 -140 -236 -249 -240zM221 187c37 -1 75 1 103 3c-5 42 -16 79 -25 101c-18 5 -34 8 -50 8c-39 0 -58 -12 -65 -72
c-1 -4 -1 -8 -1 -14c-1 -22 10 -25 38 -26z" />
    <glyph glyph-name="uniFEF0" unicode="&#x649;" horiz-adv-x="635" arabic-form="final" 
d="M635 212c18 0 32 -48 32 -106c0 -59 -14 -106 -32 -106h-32c-7 0 -15 1 -24 3c4 -9 7 -18 9 -24c13 -47 -22 -97 -69 -125c-50 -31 -130 -55 -226 -55c-170 0 -246 84 -236 233c5 68 23 150 45 236l98 -6l10 -15c-10 -47 -21 -100 -27 -150c-11 -89 34 -107 125 -107
c64 0 135 13 177 27l-179 59l-5 12l46 124h288z" />
    <glyph glyph-name="uniFC5D" unicode="&#xfc5d;" horiz-adv-x="695" arabic-form="isolated" 
d="M141 329l-5 191l82 14v-126c0 -27 -5 -66 -9 -77zM280 -193c-143 0 -247 61 -242 220c2 71 22 157 45 249l98 -7l11 -14c-10 -47 -25 -120 -27 -155c-6 -80 42 -96 138 -96c102 0 173 21 231 36c1 24 -4 38 -40 38h-77c-96 0 -147 32 -146 104c0 14 2 30 6 46
c26 112 140 293 223 293c44 -1 79 -31 120 -73l-27 -114l-11 -6c-45 25 -67 35 -93 34c-31 -2 -75 -59 -101 -112c22 -12 52 -14 124 -14c108 0 146 -55 146 -148c0 -68 -32 -151 -73 -187c-60 -54 -175 -94 -305 -94z" />
    <glyph glyph-name="uniFC90" unicode="&#xfc90;" horiz-adv-x="635" arabic-form="final" 
d="M272 317l-68 -1l-5 190l81 15v-126c0 -28 -4 -66 -8 -78zM635 212c18 0 32 -48 32 -106c0 -59 -14 -106 -32 -106h-32c-7 0 -15 1 -24 3c4 -9 7 -18 9 -24c13 -47 -22 -97 -69 -125c-50 -31 -130 -55 -226 -55c-170 0 -246 84 -236 233c5 68 23 150 45 236l98 -6l10 -15
c-10 -47 -21 -100 -27 -150c-11 -89 34 -107 125 -107c64 0 135 13 177 27l-179 59l-5 12l46 124h288z" />
    <glyph glyph-name="uniFEF1" unicode="&#x64a;" horiz-adv-x="695" arabic-form="isolated" 
d="M280 -193c-143 0 -247 61 -242 220c2 71 22 157 45 249l98 -7l11 -14c-10 -47 -25 -120 -27 -155c-6 -80 42 -96 138 -96c102 0 173 21 231 36c1 24 -4 38 -40 38h-77c-96 0 -147 32 -146 104c0 14 2 30 6 46c26 112 140 293 223 293c44 -1 79 -31 120 -73l-27 -114
l-11 -6c-45 25 -67 35 -93 34c-31 -2 -75 -59 -101 -112c22 -12 52 -14 124 -14c108 0 146 -55 146 -148c0 -68 -32 -151 -73 -187c-60 -54 -175 -94 -305 -94zM357 -236l110 -52v-15l-44 -94l-110 49v14l-33 -71l-110 49v16l44 96l110 -52v-13z" />
    <glyph glyph-name="uniFEF2" unicode="&#x64a;" horiz-adv-x="635" arabic-form="final" 
d="M635 212c18 0 32 -48 32 -106c0 -59 -14 -106 -32 -106h-32c-7 0 -15 1 -24 3c4 -9 7 -18 9 -24c13 -47 -22 -97 -69 -125c-50 -31 -130 -55 -226 -55c-170 0 -246 84 -236 233c5 68 23 150 45 236l98 -6l10 -15c-10 -47 -21 -100 -27 -150c-11 -89 34 -107 125 -107
c64 0 135 13 177 27l-179 59l-5 12l46 124h288zM312 -313l34 73l109 -52v-15l-44 -94l-110 49v14l-33 -71l-110 49v16l45 96l109 -52v-13z" />
    <glyph glyph-name="uniFEF4" unicode="&#x64a;" horiz-adv-x="378" arabic-form="medial" 
d="M0 0c-18 0 -32 47 -32 106c0 58 14 106 32 106h50c69 0 95 7 104 56l19 96l12 9l108 -27l-12 -77c-6 -37 15 -57 54 -57h43c19 0 33 -48 33 -106c0 -59 -14 -106 -33 -106h-56c-62 0 -104 30 -123 76c-39 -60 -92 -74 -152 -75c-15 -1 -31 -1 -47 -1zM203 -74l109 -52
v-15l-44 -94l-110 49v14l-33 -71l-110 49v16l45 96l109 -52v-13z" />
    <glyph glyph-name="uniFEF3" unicode="&#x64a;" horiz-adv-x="351" arabic-form="initial" 
d="M0 0c-18 0 -32 47 -32 106c0 58 14 106 32 106c51 0 116 6 165 22l-24 145l132 82l13 -9c16 -105 27 -174 27 -217c0 -79 -18 -141 -68 -177c-64 -45 -149 -58 -245 -58zM177 -74l110 -52v-15l-44 -94l-110 49v14l-33 -71l-110 49v16l44 96l110 -52v-13z" />
    <glyph glyph-name="uniFE89" unicode="&#x626;" horiz-adv-x="695" arabic-form="isolated" 
d="M53 327l19 93l30 13c-14 16 -22 39 -22 62c0 63 46 116 111 121c13 0 26 -1 39 -5c8 -1 17 -3 25 -5v-80c-8 2 -16 3 -24 4c-12 1 -23 2 -32 2c-20 0 -35 -2 -50 -5c-1 -7 -1 -12 0 -16c1 -24 16 -37 38 -37c7 0 16 1 24 3l91 22l5 -4l-19 -93l-24 -8
c-73 -24 -146 -50 -206 -72zM280 -193c-143 0 -247 61 -242 220c2 71 22 157 45 249l98 -7l11 -14c-10 -47 -25 -120 -27 -155c-6 -80 42 -96 138 -96c102 0 173 21 231 36c1 24 -4 38 -40 38h-77c-96 0 -147 32 -146 104c0 14 2 30 6 46c26 112 140 293 223 293
c44 -1 79 -31 120 -73l-27 -114l-11 -6c-45 25 -67 35 -93 34c-31 -2 -75 -59 -101 -112c22 -12 52 -14 124 -14c108 0 146 -55 146 -148c0 -68 -32 -151 -73 -187c-60 -54 -175 -94 -305 -94z" />
    <glyph glyph-name="uniFE8A" unicode="&#x626;" horiz-adv-x="635" arabic-form="final" 
d="M352 380c-73 -24 -146 -50 -206 -72l-5 5l19 93l30 13c-14 16 -22 39 -22 62c0 63 46 116 111 121c13 0 26 -1 39 -5c8 -1 17 -3 25 -5v-80l-24 3c-12 2 -23 3 -32 3c-20 0 -35 -2 -50 -6c-1 -6 -1 -11 0 -16c1 -23 16 -37 38 -37c7 0 16 1 24 4l91 22l5 -5l-19 -92z
M635 212c18 0 32 -48 32 -106c0 -59 -14 -106 -32 -106h-32c-7 0 -15 1 -24 3c4 -9 7 -18 9 -24c13 -47 -22 -97 -69 -125c-50 -31 -130 -55 -226 -55c-170 0 -246 84 -236 233c5 68 23 150 45 236l98 -6l10 -15c-10 -47 -21 -100 -27 -150c-11 -89 34 -107 125 -107
c64 0 135 13 177 27l-179 59l-5 12l46 124h288z" />
    <glyph glyph-name="uniFE8C" unicode="&#x626;" horiz-adv-x="378" arabic-form="medial" 
d="M100 422l19 92l30 13c-14 17 -22 40 -22 63c0 63 47 116 111 121c13 0 26 -2 39 -5c8 -2 17 -3 25 -5v-80l-24 3c-12 2 -22 3 -32 3c-20 0 -35 -3 -50 -6c-1 -6 -1 -11 0 -16c1 -24 16 -37 39 -37c7 0 15 1 23 3l91 23l5 -5l-18 -92l-25 -8c-73 -24 -146 -50 -206 -72z
M0 0c-18 0 -32 47 -32 106c0 58 14 106 32 106h50c69 0 95 7 104 56l19 96l12 9l108 -27l-12 -77c-6 -37 15 -57 54 -57h43c19 0 33 -48 33 -106c0 -59 -14 -106 -33 -106h-56c-62 0 -104 30 -123 76c-39 -60 -92 -74 -152 -75c-15 -1 -31 -1 -47 -1z" />
    <glyph glyph-name="uniFE8B" unicode="&#x626;" horiz-adv-x="351" arabic-form="initial" 
d="M53 461l19 92l30 13c-14 17 -22 40 -22 63c0 63 46 116 111 121c13 0 26 -2 39 -5c8 -2 17 -3 25 -5v-80l-24 3c-12 2 -23 3 -32 3c-20 0 -35 -3 -50 -6c-1 -6 -1 -11 0 -16c1 -24 16 -37 38 -37c7 0 16 1 24 3l91 23l5 -5l-19 -92l-24 -8c-73 -24 -146 -50 -206 -72z
M0 0c-18 0 -32 47 -32 106c0 58 14 106 32 106c51 0 116 6 165 22l-24 145l132 82l13 -9c16 -105 27 -174 27 -217c0 -79 -18 -141 -68 -177c-64 -45 -149 -58 -245 -58z" />
    <glyph glyph-name="uni06CE.init" unicode="&#x6ce;" horiz-adv-x="351" 
d="M141 456l-87 227l59 46l57 -161l61 162l56 -46l-80 -195zM0 0c-18 0 -32 47 -32 106c0 58 14 106 32 106c51 0 116 6 165 22l-24 145l132 82l13 -9c16 -105 27 -174 27 -217c0 -79 -18 -141 -68 -177c-64 -45 -149 -58 -245 -58zM177 -74l110 -52v-15l-44 -94l-110 49v14
l-33 -71l-110 49v16l44 96l110 -52v-13z" />
    <glyph glyph-name="uni06CE.medi" unicode="&#x6ce;" horiz-adv-x="378" 
d="M199 420l-88 228l59 46l57 -162l62 162l56 -46l-81 -195zM0 0c-18 0 -32 47 -32 106c0 58 14 106 32 106h50c69 0 95 7 104 56l19 96l12 9l108 -27l-12 -77c-6 -37 15 -57 54 -57h43c19 0 33 -48 33 -106c0 -59 -14 -106 -33 -106h-56c-62 0 -104 30 -123 76
c-39 -60 -92 -74 -152 -75c-15 -1 -31 -1 -47 -1zM203 -74l109 -52v-15l-44 -94l-110 49v14l-33 -71l-110 49v16l45 96l109 -52v-13z" />
    <glyph glyph-name="uni06CE.fina" unicode="&#x6ce;" horiz-adv-x="635" 
d="M279 340l-66 -33l-87 227l59 46l57 -161l61 162l56 -46zM635 212c18 0 32 -48 32 -106c0 -59 -14 -106 -32 -106h-32c-7 0 -15 1 -24 3c4 -9 7 -18 9 -24c13 -47 -22 -97 -69 -125c-50 -31 -130 -55 -226 -55c-170 0 -246 84 -236 233c5 68 23 150 45 236l98 -6l10 -15
c-10 -47 -21 -100 -27 -150c-11 -89 34 -107 125 -107c64 0 135 13 177 27l-179 59l-5 12l46 124h288z" />
    <glyph glyph-name="uniFBFD" unicode="&#x6cc;" horiz-adv-x="635" arabic-form="final" 
d="M635 212c18 0 32 -48 32 -106c0 -59 -14 -106 -32 -106h-32c-7 0 -15 1 -24 3c4 -9 7 -18 9 -24c13 -47 -22 -97 -69 -125c-50 -31 -130 -55 -226 -55c-170 0 -246 84 -236 233c5 68 23 150 45 236l98 -6l10 -15c-10 -47 -21 -100 -27 -150c-11 -89 34 -107 125 -107
c64 0 135 13 177 27l-179 59l-5 12l46 124h288z" />
    <glyph glyph-name="uniFBFF" unicode="&#x6cc;" horiz-adv-x="378" arabic-form="medial" 
d="M0 0c-18 0 -32 47 -32 106c0 58 14 106 32 106h50c69 0 95 7 104 56l19 96l12 9l108 -27l-12 -77c-6 -37 15 -57 54 -57h43c19 0 33 -48 33 -106c0 -59 -14 -106 -33 -106h-56c-62 0 -104 30 -123 76c-39 -60 -92 -74 -152 -75c-15 -1 -31 -1 -47 -1zM203 -74l109 -52
v-15l-44 -94l-110 49v14l-33 -71l-110 49v16l45 96l109 -52v-13z" />
    <glyph glyph-name="uniFBFE" unicode="&#x6cc;" horiz-adv-x="351" arabic-form="initial" 
d="M0 0c-18 0 -32 47 -32 106c0 58 14 106 32 106c51 0 116 6 165 22l-24 145l132 82l13 -9c16 -105 27 -174 27 -217c0 -79 -18 -141 -68 -177c-64 -45 -149 -58 -245 -58zM177 -74l110 -52v-15l-44 -94l-110 49v14l-33 -71l-110 49v16l44 96l110 -52v-13z" />
    <glyph glyph-name="uni06CD.fina" unicode="&#x6cd;" horiz-adv-x="703" 
d="M703 212c18 0 32 -48 32 -106c0 -59 -14 -106 -32 -106h-32c-7 0 -15 1 -24 3c4 -9 7 -18 9 -24c13 -47 -22 -97 -69 -125c-50 -32 -130 -55 -226 -55c-170 0 -246 84 -236 233c2 29 8 62 14 94l-90 -20l-11 14l23 110l210 47l11 -15c-20 -92 -26 -121 -31 -165
c-11 -89 34 -107 125 -107c64 0 135 13 178 27l-180 59l-4 12l45 124h288z" />
    <glyph glyph-name="uniFBE4" unicode="&#x6d0;" horiz-adv-x="695" arabic-form="isolated" 
d="M512 236c108 0 146 -55 146 -148c0 -68 -32 -151 -73 -187c-60 -54 -175 -94 -305 -94c-143 0 -247 61 -242 220c2 71 22 157 45 249l98 -7l11 -14c-10 -47 -25 -120 -27 -155c-6 -80 42 -96 138 -96c102 0 173 21 231 36c1 24 -4 38 -40 38h-77c-96 0 -147 32 -146 104
c0 14 2 30 6 46c26 112 140 293 223 293c44 -1 79 -31 120 -73l-27 -114l-11 -6c-45 25 -67 35 -93 34c-31 -2 -75 -59 -101 -112c22 -12 52 -14 124 -14zM207 -348l42 91l104 -49v-14l-42 -89l42 -20v-14l-42 -90l-104 47v15l41 89l-41 19v15z" />
    <glyph glyph-name="uniFBE5" unicode="&#x6d0;" horiz-adv-x="635" arabic-form="final" 
d="M635 212c18 0 32 -48 32 -106c0 -59 -14 -106 -32 -106h-32c-7 0 -15 1 -24 3c4 -9 7 -18 9 -24c13 -47 -22 -97 -69 -125c-50 -31 -130 -55 -226 -55c-170 0 -246 84 -236 233c5 68 23 150 45 236l98 -6l10 -15c-10 -47 -21 -100 -27 -150c-11 -89 34 -107 125 -107
c64 0 135 13 177 27l-179 59l-5 12l46 124h288zM244 -355l42 91l104 -49v-14l-42 -89l42 -20v-14l-42 -90l-104 47v15l41 89l-41 19v15z" />
    <glyph glyph-name="uniFBE7" unicode="&#x6d0;" horiz-adv-x="378" arabic-form="medial" 
d="M378 212c19 0 33 -48 33 -106c0 -59 -14 -106 -33 -106h-56c-62 0 -104 30 -123 76c-39 -60 -92 -74 -152 -75c-15 -1 -31 -1 -47 -1c-18 0 -32 47 -32 106c0 58 14 106 32 106h50c69 0 95 7 104 56l19 96l12 9l108 -27l-12 -77c-6 -37 15 -57 54 -57h43zM104 -143l45 96
l109 -52v-15l-44 -94l44 -21v-15l-44 -94l-110 49v16l44 94l-44 20v16z" />
    <glyph glyph-name="uniFBE6" unicode="&#x6d0;" horiz-adv-x="351" arabic-form="initial" 
d="M286 452c16 -105 27 -174 27 -217c0 -79 -18 -141 -68 -177c-64 -45 -149 -58 -245 -58c-18 0 -32 47 -32 106c0 58 14 106 32 106c51 0 116 6 165 22l-24 145l132 82zM94 -148l44 96l110 -52v-15l-44 -94l-7 3l51 -24v-15l-44 -94l-110 49v16l43 95l-43 19v16z" />
    <glyph glyph-name="uni06D1.init" unicode="&#x6d1;" horiz-adv-x="351" 
d="M0 0c-18 0 -32 47 -32 106c0 58 14 106 32 106c51 0 116 6 165 22l-24 145l132 82l13 -9c16 -105 27 -174 27 -217c0 -79 -18 -141 -68 -177c-64 -45 -149 -58 -245 -58zM266 -222l-109 49v16l44 96l110 -51v-15zM120 -230l-110 49v16l44 96l110 -51v-15zM221 -352
l-102 47v15l42 89l102 -50v-14z" />
    <glyph glyph-name="uni06D1.medi" unicode="&#x6d1;" horiz-adv-x="378" 
d="M0 0c-18 0 -32 47 -32 106c0 58 14 106 32 106h50c69 0 95 7 104 56l19 96l12 9l108 -27l-12 -77c-6 -37 15 -57 54 -57h43c19 0 33 -48 33 -106c0 -59 -14 -106 -33 -106h-56c-62 0 -104 30 -123 76c-39 -60 -92 -74 -152 -75c-15 -1 -31 -1 -47 -1zM280 -224l-109 49
v16l44 96l109 -52v-15zM133 -232l-109 49v16l44 96l109 -52v-15zM234 -354l-101 47v15l42 88l102 -49l-1 -14z" />
    <glyph glyph-name="uni06D1.fina" unicode="&#x6d1;" horiz-adv-x="635" 
d="M635 212c18 0 32 -48 32 -106c0 -59 -14 -106 -32 -106h-32c-7 0 -15 1 -24 3c4 -9 7 -18 9 -24c13 -47 -22 -97 -69 -125c-50 -31 -130 -55 -226 -55c-170 0 -246 84 -236 233c5 68 23 150 45 236l98 -6l10 -15c-10 -47 -21 -100 -27 -150c-11 -89 34 -107 125 -107
c64 0 135 13 177 27l-179 59l-5 12l46 124h288zM322 -326l44 96l110 -51v-15l-44 -95l-110 49v16zM329 -304l-44 -95l-110 49v16l44 96l110 -51v-15zM284 -459l43 90l103 -50v-14l-43 -89l-103 48v15z" />
    <glyph glyph-name="uniFBAF" unicode="&#x6d2;" horiz-adv-x="473" arabic-form="final" 
d="M233 -247c-166 0 -203 115 -193 205c5 69 52 254 333 254h100c18 0 32 -48 32 -106c0 -59 -14 -106 -32 -106h-87c-92 0 -163 -4 -230 -9c-9 -42 18 -54 88 -54h438l6 -10l-30 -174h-425z" />
    <glyph glyph-name="uniFBB0" unicode="&#x6d3;" horiz-adv-x="747" arabic-form="isolated" 
d="M175 557l19 92l30 13c-14 17 -22 40 -22 63c0 63 47 116 111 121c13 0 26 -2 39 -5c8 -2 17 -3 25 -5v-80l-24 3c-12 2 -22 3 -32 3c-20 0 -35 -3 -50 -6c-1 -6 -1 -11 0 -16c1 -24 16 -37 38 -37c8 0 16 1 24 3l91 23l5 -5l-18 -92l-25 -8c-73 -24 -146 -50 -206 -72z
M40 201c5 61 44 120 97 168c114 104 118 163 183 163c41 0 74 -29 148 -93l-29 -127l-11 -5c-59 31 -93 45 -121 52c-19 -26 -35 -48 -83 -90c-31 -27 -47 -40 -58 -50c18 -28 48 -35 115 -35h437l6 -10l-29 -174h-425c-203 0 -240 116 -230 201z" />
    <glyph glyph-name="uniFBB1" unicode="&#x6d3;" horiz-adv-x="465" arabic-form="final" 
d="M61 204l19 93l30 13c-14 16 -23 39 -23 62c0 63 47 116 112 121c13 0 25 -1 39 -5c8 -1 17 -3 25 -5v-80c-8 2 -16 3 -24 4c-12 1 -23 2 -32 2c-20 0 -35 -2 -50 -5c-1 -7 -1 -12 0 -16c1 -24 16 -37 38 -37c7 0 16 1 24 3l91 22l5 -4l-19 -93l-24 -8
c-73 -24 -146 -50 -206 -72zM233 -247c-166 0 -203 115 -193 205c5 69 52 254 333 254h100c18 0 32 -48 32 -106c0 -59 -14 -106 -32 -106h-87c-92 0 -163 -4 -230 -9c-9 -42 18 -54 88 -54h438l6 -10l-30 -174h-425z" />
    <glyph glyph-name="uniFBDD" unicode="&#x677;" horiz-adv-x="484" arabic-form="isolated" 
d="M264 484l18 96l61 25c-11 24 -16 42 -16 59c0 63 44 105 105 105c66 0 108 -42 108 -105c0 -49 -29 -91 -86 -113l-184 -71zM39 479l19 92l30 13c-14 17 -23 40 -23 63c0 63 47 116 112 121c13 0 25 -2 39 -5c8 -2 17 -3 25 -5v-80l-24 3c-12 2 -23 3 -32 3
c-20 0 -35 -3 -50 -6c-1 -6 -1 -11 0 -16c1 -24 16 -37 38 -37c7 0 16 1 24 3l91 23l5 -5l-19 -92l-24 -8c-73 -24 -146 -50 -206 -72zM401 661c0 -10 7 -26 18 -43c24 6 48 21 49 43c-1 16 -16 29 -37 29c-16 -1 -30 -12 -30 -29zM196 -240c-28 -1 -71 11 -143 37l-34 129
l10 13c56 -4 92 -6 120 -5c68 3 121 45 162 88h-97c-96 0 -150 42 -149 135c0 12 1 24 3 37c24 178 87 256 185 256c70 0 113 -33 143 -75c22 -30 39 -72 50 -118c3 -14 6 -29 8 -45h30c19 0 33 -48 33 -106c0 -59 -14 -106 -33 -106h-39c-38 -134 -140 -236 -249 -240z
M221 187c37 -1 75 1 103 3c-5 42 -16 79 -25 101c-18 5 -34 8 -50 8c-39 0 -58 -12 -65 -72c-1 -4 -1 -8 -1 -14c-1 -22 10 -25 38 -26z" />
    <glyph glyph-name="uni06D5.fina" unicode="&#x6d5;" horiz-adv-x="543" 
d="M511 0c-77 0 -136 33 -164 100l-28 -63c-27 -3 -60 -5 -89 -5c-123 0 -192 44 -192 150c0 87 51 181 161 233l112 53v68l132 39v-296c0 -45 18 -67 61 -67h39c18 0 32 -48 32 -106c0 -59 -14 -106 -32 -106h-32zM264 209h46v115l-47 -19c-35 -15 -65 -27 -101 -42
c-1 -6 -1 -11 -1 -15c-1 -33 24 -39 103 -39z" />
    <glyph glyph-name="uniFDF1" unicode="&#xfdf1;" horiz-adv-x="999" arabic-form="isolated" 
d="M768 867l109 -51v-15l-44 -95l-110 49v15l-33 -72l-110 49v16l45 96l109 -51v-13zM262 -250c-153 -1 -222 88 -224 197c-2 136 94 256 234 296c15 5 29 9 43 14c20 8 22 21 22 38l-4 382l133 35v-426c0 -55 19 -74 69 -74h56c110 0 183 2 237 15c1 15 2 29 2 43
c-51 -9 -81 -12 -138 -12c-79 0 -121 43 -121 118c0 8 0 17 1 25c19 175 87 253 189 253c67 0 107 -31 135 -70c39 -53 58 -142 64 -229c7 -98 -14 -244 -62 -286c-57 -50 -169 -66 -297 -68c-20 -1 -39 -1 -68 -1c-98 0 -152 36 -176 104l-27 -53
c-67 -21 -139 -42 -192 -62c-4 -40 26 -52 108 -52h642l6 -10l-30 -174zM721 404c36 -1 73 2 100 6c-4 40 -13 77 -22 99c-17 4 -32 7 -50 7c-39 0 -59 -12 -66 -73v-13c-1 -22 10 -25 38 -26z" />
    <glyph glyph-name="uniFC6A" unicode="&#xfc6a;" horiz-adv-x="765" arabic-form="final" 
d="M-58 -74l10 13c50 -4 77 -6 105 -5c80 4 132 55 171 103c-12 75 -26 145 -51 277l121 76l13 -8c9 -39 16 -72 21 -101c24 -1 52 -2 95 -2c51 0 91 5 119 21l-1 80l119 33l15 -9v-121c0 -49 18 -71 61 -71h25c18 0 32 -48 32 -106c0 -59 -14 -106 -32 -106h-30
c-92 0 -158 44 -174 130c-18 -35 -61 -50 -120 -50c-26 0 -58 0 -90 2l-3 -44c-20 -149 -123 -274 -244 -278c-28 -1 -75 13 -128 37zM528 -241l-120 54v17l49 105l120 -56v-17z" />
    <glyph glyph-name="uniFC6B" unicode="&#xfc6b;" horiz-adv-x="765" arabic-form="final" 
d="M230 441l-120 54v17l48 105l120 -56v-17zM-58 -74l10 13c50 -4 77 -6 105 -5c80 4 132 55 171 103c-12 75 -26 145 -51 277l121 76l13 -8c9 -39 16 -72 21 -101c24 -1 52 -2 95 -2c51 0 91 5 119 21l-1 80l119 33l15 -9v-121c0 -49 18 -71 61 -71h25c18 0 32 -48 32 -106
c0 -59 -14 -106 -32 -106h-30c-92 0 -158 44 -174 130c-18 -35 -61 -50 -120 -50c-26 0 -58 0 -90 2l-3 -44c-20 -149 -123 -274 -244 -278c-28 -1 -75 13 -128 37zM528 -241l-120 54v17l49 105l120 -56v-17z" />
    <glyph glyph-name="uniFCE1" unicode="&#xfce1;" horiz-adv-x="677" arabic-form="medial" 
d="M342 -134l-92 86c-47 45 -74 48 -115 48h-135c-18 0 -32 47 -32 106c0 58 14 106 32 106h118c31 0 55 -4 78 -10c0 2 1 4 1 7l3 11c2 4 3 9 5 13c32 69 116 150 166 151c44 0 58 -23 125 -83c81 -74 101 -89 181 -89c18 0 32 -48 32 -106c0 -59 -14 -106 -32 -106
c-105 0 -147 31 -230 108c-52 47 -72 73 -88 73c-13 0 -43 -32 -54 -55c11 -16 36 -40 60 -65l84 -79l-95 -116h-12zM585 -256l-119 54v17l48 105l120 -56v-17z" />
    <glyph glyph-name="uniFC6D" unicode="&#xfc6d;" horiz-adv-x="1061" arabic-form="final" 
d="M287 -193c-147 0 -260 77 -248 244c5 73 22 147 44 232l99 -7l10 -15c-10 -46 -21 -92 -26 -132c-10 -79 40 -110 143 -110c86 0 161 22 212 46c-11 73 -27 161 -42 244l117 72l16 -8c5 -32 11 -63 15 -92c25 -1 53 -2 96 -2c51 0 91 5 119 21v80l118 33l15 -9v-121
c0 -49 18 -71 61 -71h25c19 0 32 -48 32 -106c0 -59 -13 -106 -32 -106h-29c-93 0 -159 44 -175 130c-18 -35 -61 -50 -120 -50c-28 0 -56 0 -84 1c1 -24 0 -44 -2 -61c-6 -35 -17 -74 -46 -102c-60 -67 -175 -111 -318 -111zM362 209l-120 53v18l48 105l120 -57v-16z
M837 -231l-120 54v17l49 105l120 -57v-16z" />
    <glyph glyph-name="uniFCE2" unicode="&#xfce2;" horiz-adv-x="848" arabic-form="medial" 
d="M-32 106c0 58 14 106 32 106h99c15 90 34 162 62 258l121 83l83 -91c73 -78 89 -123 89 -189c0 -28 -6 -60 -22 -91c-35 -67 -101 -130 -209 -162c11 -41 37 -78 71 -114l96 154c62 101 112 174 175 267h102c42 -77 72 -115 152 -115h29c18 0 32 -48 32 -106
c0 -59 -14 -106 -32 -106l-29 -1c-102 0 -160 54 -215 142c-41 -56 -93 -135 -131 -199l-107 -177h-143c-77 85 -120 168 -127 235h-96c-18 0 -32 47 -32 106zM210 210c74 3 113 36 125 57c0 18 -34 60 -79 111c-22 -70 -33 -107 -46 -168zM672 -247l-119 54v17l48 105
l120 -57v-16z" />
    <glyph glyph-name="uniFC09" unicode="&#xfc09;" horiz-adv-x="658" arabic-form="isolated" 
d="M39 1c4 69 22 151 44 237l98 -7l11 -15c-10 -47 -21 -100 -27 -149c-11 -84 33 -102 130 -102c66 0 119 12 156 23l-148 64l-4 11l49 127c40 3 85 8 114 20c-7 48 -16 96 -24 145l132 81l14 -9c15 -104 27 -185 27 -228c0 -23 -4 -43 -11 -63c-13 -32 -38 -57 -71 -76
c38 -21 59 -39 66 -70c24 -32 5 -108 -24 -136c-40 -41 -142 -85 -290 -85c-176 0 -253 83 -242 232zM631 -371l-120 54v17l48 105l120 -57v-16z" />
    <glyph glyph-name="uniFC6E" unicode="&#xfc6e;" horiz-adv-x="883" arabic-form="final" 
d="M280 -272c-143 0 -247 61 -242 220c2 71 22 157 45 249l98 -7l11 -14c-10 -48 -22 -101 -26 -138c-1 -10 -2 -19 -2 -28c0 -70 47 -85 139 -85c97 0 168 20 231 35c1 22 -5 27 -41 27h-72c-106 0 -157 35 -151 114c7 154 176 326 276 326c44 0 60 -16 133 -95
c15 -17 31 -33 45 -49c51 -52 76 -69 137 -71h22c19 0 33 -48 33 -106c0 -59 -14 -106 -33 -106c-10 0 -19 1 -29 1c-69 5 -119 35 -181 97l-83 85c-40 41 -66 74 -93 74c-34 0 -88 -70 -116 -118c20 -13 55 -15 114 -15c119 0 155 -51 155 -118c0 -64 -24 -148 -65 -184
c-60 -54 -175 -94 -305 -94zM783 -309l-120 54v17l48 105l120 -56v-17z" />
    <glyph glyph-name="uniFC0A" unicode="&#xfc0a;" horiz-adv-x="658" arabic-form="isolated" 
d="M39 1c4 69 22 151 44 237l98 -7l11 -15c-10 -47 -21 -100 -27 -149c-11 -84 33 -102 130 -102c66 0 119 12 156 23l-148 64l-4 11l49 127c40 3 85 8 114 20c-7 48 -16 96 -24 145l132 81l14 -9c15 -104 27 -185 27 -228c0 -23 -4 -43 -11 -63c-13 -32 -38 -57 -71 -76
c38 -21 59 -39 66 -70c24 -32 5 -108 -24 -136c-40 -41 -142 -85 -290 -85c-176 0 -253 83 -242 232zM631 -371l-120 54v17l48 105l120 -57v-16zM341 -281l110 -51v-15l-45 -95l-109 49v15l-34 -72l-109 49v16l44 96l110 -51v-13z" />
    <glyph glyph-name="uniFC6F" unicode="&#xfc6f;" horiz-adv-x="883" arabic-form="final" 
d="M280 -272c-143 0 -247 61 -242 220c2 71 22 157 45 249l98 -7l11 -14c-10 -48 -22 -101 -26 -138c-1 -10 -2 -19 -2 -28c0 -70 47 -85 139 -85c97 0 168 20 231 35c1 22 -5 27 -41 27h-72c-106 0 -157 35 -151 114c7 154 176 326 276 326c44 0 60 -16 133 -95
c15 -17 31 -33 45 -49c51 -52 76 -69 137 -71h22c19 0 33 -48 33 -106c0 -59 -14 -106 -33 -106c-10 0 -19 1 -29 1c-69 5 -119 35 -181 97l-83 85c-40 41 -66 74 -93 74c-34 0 -88 -70 -116 -118c20 -13 55 -15 114 -15c119 0 155 -51 155 -118c0 -64 -24 -148 -65 -184
c-60 -54 -175 -94 -305 -94zM783 -309l-120 54v17l48 105l120 -56v-17zM356 -317l109 -52v-15l-44 -94l-110 49v14l-33 -71l-110 49v16l45 96l109 -52v-13z" />
    <glyph glyph-name="uniFC70" unicode="&#xfc70;" horiz-adv-x="765" arabic-form="final" 
d="M507 635l110 -52v-15l-44 -94l-110 49v14l-33 -71l-110 49v16l44 96l110 -52v-13zM-58 -74l10 13c50 -4 77 -6 105 -5c80 4 132 55 171 103c-12 75 -26 145 -51 277l121 76l13 -8c9 -39 16 -72 21 -101c24 -1 52 -2 95 -2c51 0 91 5 119 21l-1 80l119 33l15 -9v-121
c0 -49 18 -71 61 -71h25c18 0 32 -48 32 -106c0 -59 -14 -106 -32 -106h-30c-92 0 -158 44 -174 130c-18 -35 -61 -50 -120 -50c-26 0 -58 0 -90 2l-3 -44c-20 -149 -123 -274 -244 -278c-28 -1 -75 13 -128 37z" />
    <glyph glyph-name="uniFC71" unicode="&#xfc71;" horiz-adv-x="765" arabic-form="final" 
d="M507 635l110 -52v-15l-44 -94l-110 49v14l-33 -71l-110 49v16l44 96l110 -52v-13zM218 441l-120 54v17l48 105l120 -56v-17zM-58 -74l10 13c50 -4 77 -6 105 -5c80 4 132 55 171 103c-12 75 -26 145 -51 277l121 76l13 -8c9 -39 16 -72 21 -101c24 -1 52 -2 95 -2
c51 0 91 5 119 21l-1 80l119 33l15 -9v-121c0 -49 18 -71 61 -71h25c18 0 32 -48 32 -106c0 -59 -14 -106 -32 -106h-30c-92 0 -158 44 -174 130c-18 -35 -61 -50 -120 -50c-26 0 -58 0 -90 2l-3 -44c-20 -149 -123 -274 -244 -278c-28 -1 -75 13 -128 37z" />
    <glyph glyph-name="uniFCE3" unicode="&#xfce3;" horiz-adv-x="677" arabic-form="medial" 
d="M386 615l110 -52v-15l-44 -94l-110 49v14l-33 -71l-110 49v16l44 96l110 -52v-13zM342 -134l-92 86c-47 45 -74 48 -115 48h-135c-18 0 -32 47 -32 106c0 58 14 106 32 106h118c31 0 55 -4 78 -10c0 2 1 4 1 7l3 11c2 4 3 9 5 13c32 69 116 150 166 151
c44 0 58 -23 125 -83c81 -74 101 -89 181 -89c18 0 32 -48 32 -106c0 -59 -14 -106 -32 -106c-105 0 -147 31 -230 108c-52 47 -72 73 -88 73c-13 0 -43 -32 -54 -55c11 -16 36 -40 60 -65l84 -79l-95 -116h-12z" />
    <glyph glyph-name="uniFC73" unicode="&#xfc73;" horiz-adv-x="1061" arabic-form="final" 
d="M788 617l109 -52v-15l-44 -94l-109 49v14l-34 -71l-109 49v16l44 96l109 -52v-13zM287 -193c-147 0 -260 77 -248 244c5 73 22 147 44 232l99 -7l10 -15c-10 -46 -21 -92 -26 -132c-10 -79 40 -110 143 -110c86 0 161 22 212 46c-11 73 -27 161 -42 244l117 72l16 -8
c5 -32 11 -63 15 -92c25 -1 53 -2 96 -2c51 0 91 5 119 21v80l118 33l15 -9v-121c0 -49 18 -71 61 -71h25c19 0 32 -48 32 -106c0 -59 -13 -106 -32 -106h-29c-93 0 -159 44 -175 130c-18 -35 -61 -50 -120 -50c-28 0 -56 0 -84 1c1 -24 0 -44 -2 -61
c-6 -35 -17 -74 -46 -102c-60 -67 -175 -111 -318 -111zM362 209l-120 53v18l48 105l120 -57v-16z" />
    <glyph glyph-name="uniFCE4" unicode="&#xfce4;" horiz-adv-x="848" arabic-form="medial" 
d="M640 592l110 -51v-15l-45 -95l-109 49v15l-34 -72l-109 49v16l44 96l110 -51v-13zM-32 106c0 58 14 106 32 106h99c15 90 34 162 62 258l121 83l83 -91c73 -78 89 -123 89 -189c0 -28 -6 -60 -22 -91c-35 -67 -101 -130 -209 -162c11 -41 37 -78 71 -114l96 154
c62 101 112 174 175 267h102c42 -77 72 -115 152 -115h29c18 0 32 -48 32 -106c0 -59 -14 -106 -32 -106l-29 -1c-102 0 -160 54 -215 142c-41 -56 -93 -135 -131 -199l-107 -177h-143c-77 85 -120 168 -127 235h-96c-18 0 -32 47 -32 106zM210 210c74 3 113 36 125 57
c0 18 -34 60 -79 111c-22 -70 -33 -107 -46 -168z" />
    <glyph glyph-name="uniFC0F" unicode="&#xfc0f;" horiz-adv-x="658" arabic-form="isolated" 
d="M455 628l110 -52v-15l-44 -94l-110 49v14l-33 -71l-110 49v16l44 96l110 -52v-13zM39 1c4 69 22 151 44 237l98 -7l11 -15c-10 -47 -21 -100 -27 -149c-11 -84 33 -102 130 -102c66 0 119 12 156 23l-148 64l-4 11l49 127c40 3 85 8 114 20c-7 48 -16 96 -24 145l132 81
l14 -9c15 -104 27 -185 27 -228c0 -23 -4 -43 -11 -63c-13 -32 -38 -57 -71 -76c38 -21 59 -39 66 -70c24 -32 5 -108 -24 -136c-40 -41 -142 -85 -290 -85c-176 0 -253 83 -242 232z" />
    <glyph glyph-name="uniFC74" unicode="&#xfc74;" horiz-adv-x="883" arabic-form="final" 
d="M540 655l109 -51v-15l-44 -95l-110 50v14l-33 -72l-110 50v16l45 95l109 -51v-13zM280 -272c-143 0 -247 61 -242 220c2 71 22 157 45 249l98 -7l11 -14c-10 -48 -22 -101 -26 -138c-1 -10 -2 -19 -2 -28c0 -70 47 -85 139 -85c97 0 168 20 231 35c1 22 -5 27 -41 27h-72
c-106 0 -157 35 -151 114c7 154 176 326 276 326c44 0 60 -16 133 -95c15 -17 31 -33 45 -49c51 -52 76 -69 137 -71h22c19 0 33 -48 33 -106c0 -59 -14 -106 -33 -106c-10 0 -19 1 -29 1c-69 5 -119 35 -181 97l-83 85c-40 41 -66 74 -93 74c-34 0 -88 -70 -116 -118
c20 -13 55 -15 114 -15c119 0 155 -51 155 -118c0 -64 -24 -148 -65 -184c-60 -54 -175 -94 -305 -94z" />
    <glyph glyph-name="uniFC10" unicode="&#xfc10;" horiz-adv-x="658" arabic-form="isolated" 
d="M452 615l109 -51v-15l-44 -95l-110 50v14l-33 -72l-110 50v16l45 95l109 -51v-13zM39 1c4 69 22 151 44 237l98 -7l11 -15c-10 -47 -21 -100 -27 -149c-11 -84 33 -102 130 -102c66 0 119 12 156 23l-148 64l-4 11l49 127c40 3 85 8 114 20c-7 48 -16 96 -24 145l132 81
l14 -9c15 -104 27 -185 27 -228c0 -23 -4 -43 -11 -63c-13 -32 -38 -57 -71 -76c38 -21 59 -39 66 -70c24 -32 5 -108 -24 -136c-40 -41 -142 -85 -290 -85c-176 0 -253 83 -242 232zM340 -273l110 -52v-15l-44 -94l-110 49v14l-33 -71l-110 49v16l44 96l110 -52v-13z" />
    <glyph glyph-name="uniFC75" unicode="&#xfc75;" horiz-adv-x="883" arabic-form="final" 
d="M540 655l109 -51v-15l-44 -95l-110 50v14l-33 -72l-110 50v16l45 95l109 -51v-13zM280 -272c-143 0 -247 61 -242 220c2 71 22 157 45 249l98 -7l11 -14c-10 -48 -22 -101 -26 -138c-1 -10 -2 -19 -2 -28c0 -70 47 -85 139 -85c97 0 168 20 231 35c1 22 -5 27 -41 27h-72
c-106 0 -157 35 -151 114c7 154 176 326 276 326c44 0 60 -16 133 -95c15 -17 31 -33 45 -49c51 -52 76 -69 137 -71h22c19 0 33 -48 33 -106c0 -59 -14 -106 -33 -106c-10 0 -19 1 -29 1c-69 5 -119 35 -181 97l-83 85c-40 41 -66 74 -93 74c-34 0 -88 -70 -116 -118
c20 -13 55 -15 114 -15c119 0 155 -51 155 -118c0 -64 -24 -148 -65 -184c-60 -54 -175 -94 -305 -94zM353 -314l109 -51v-15l-44 -95l-110 50v14l-33 -72l-110 50v16l45 95l109 -51v-13z" />
    <glyph glyph-name="uniFC76" unicode="&#xfc76;" horiz-adv-x="765" arabic-form="final" 
d="M519 700l-41 -84l-98 46v14l41 86l98 -48v-14zM520 635l110 -51v-15l-45 -95l-109 50v5l-29 -63l-110 50v16l44 95l110 -51v-4zM-58 -74l10 13c50 -4 77 -6 105 -5c80 4 132 55 171 103c-12 75 -26 145 -51 277l121 76l13 -8c9 -39 16 -72 21 -101c24 -1 52 -2 95 -2
c51 0 91 5 119 21l-1 80l119 33l15 -9v-121c0 -49 18 -71 61 -71h25c18 0 32 -48 32 -106c0 -59 -14 -106 -32 -106h-30c-92 0 -158 44 -174 130c-18 -35 -61 -50 -120 -50c-26 0 -58 0 -90 2l-3 -44c-20 -149 -123 -274 -244 -278c-28 -1 -75 13 -128 37z" />
    <glyph glyph-name="uniFC77" unicode="&#xfc77;" horiz-adv-x="765" arabic-form="final" 
d="M519 700l-41 -84l-98 46v14l41 86l98 -48v-14zM520 635l110 -51v-15l-45 -95l-109 50v5l-29 -63l-110 50v16l44 95l110 -51v-4zM218 441l-120 54v17l48 105l120 -56v-17zM-58 -74l10 13c50 -4 77 -6 105 -5c80 4 132 55 171 103c-12 75 -26 145 -51 277l121 76l13 -8
c9 -39 16 -72 21 -101c24 -1 52 -2 95 -2c51 0 91 5 119 21l-1 80l119 33l15 -9v-121c0 -49 18 -71 61 -71h25c18 0 32 -48 32 -106c0 -59 -14 -106 -32 -106h-30c-92 0 -158 44 -174 130c-18 -35 -61 -50 -120 -50c-26 0 -58 0 -90 2l-3 -44c-20 -149 -123 -274 -244 -278
c-28 -1 -75 13 -128 37z" />
    <glyph glyph-name="uniFCE5" unicode="&#xfce5;" horiz-adv-x="677" arabic-form="medial" 
d="M378 673l-41 -85l-98 46v14l41 86l98 -48v-13zM379 608l110 -52v-15l-45 -94l-109 49v5l-30 -62l-109 49v16l44 96l110 -52v-4zM342 -134l-92 86c-47 45 -74 48 -115 48h-135c-18 0 -32 47 -32 106c0 58 14 106 32 106h118c31 0 55 -4 78 -10c0 2 1 4 1 7l3 11
c2 4 3 9 5 13c32 69 116 150 166 151c44 0 58 -23 125 -83c81 -74 101 -89 181 -89c18 0 32 -48 32 -106c0 -59 -14 -106 -32 -106c-105 0 -147 31 -230 108c-52 47 -72 73 -88 73c-13 0 -43 -32 -54 -55c11 -16 36 -40 60 -65l84 -79l-95 -116h-12z" />
    <glyph glyph-name="uniFC79" unicode="&#xfc79;" horiz-adv-x="1061" arabic-form="final" 
d="M804 680l-40 -84l-99 46l1 14l40 86l98 -48v-14zM805 615l110 -51v-15l-44 -95l-110 50v5l-29 -63l-110 50v16l45 95l109 -51v-4zM287 -193c-147 0 -260 77 -248 244c5 73 22 147 44 232l99 -7l10 -15c-10 -46 -21 -92 -26 -132c-10 -79 40 -110 143 -110
c86 0 161 22 212 46c-11 73 -27 161 -42 244l117 72l16 -8c5 -32 11 -63 15 -92c25 -1 53 -2 96 -2c51 0 91 5 119 21v80l118 33l15 -9v-121c0 -49 18 -71 61 -71h25c19 0 32 -48 32 -106c0 -59 -13 -106 -32 -106h-29c-93 0 -159 44 -175 130c-18 -35 -61 -50 -120 -50
c-28 0 -56 0 -84 1c1 -24 0 -44 -2 -61c-6 -35 -17 -74 -46 -102c-60 -67 -175 -111 -318 -111zM362 209l-120 53v18l48 105l120 -57v-16z" />
    <glyph glyph-name="uniFCE6" unicode="&#xfce6;" horiz-adv-x="848" arabic-form="medial" 
d="M640 638l-40 -84l-98 46v14l41 86l98 -48zM642 573l109 -51v-15l-44 -95l-110 50v5l-29 -63l-109 50v16l44 95l109 -51v-4zM-32 106c0 58 14 106 32 106h99c15 90 34 162 62 258l121 83l83 -91c73 -78 89 -123 89 -189c0 -28 -6 -60 -22 -91c-35 -67 -101 -130 -209 -162
c11 -41 37 -78 71 -114l96 154c62 101 112 174 175 267h102c42 -77 72 -115 152 -115h29c18 0 32 -48 32 -106c0 -59 -14 -106 -32 -106l-29 -1c-102 0 -160 54 -215 142c-41 -56 -93 -135 -131 -199l-107 -177h-143c-77 85 -120 168 -127 235h-96c-18 0 -32 47 -32 106z
M210 210c74 3 113 36 125 57c0 18 -34 60 -79 111c-22 -70 -33 -107 -46 -168z" />
    <glyph glyph-name="uniFC13" unicode="&#xfc13;" horiz-adv-x="658" arabic-form="isolated" 
d="M503 708l-41 -84l-98 45v15l41 85l98 -47v-14zM504 643l109 -52v-15l-44 -94l-109 49v5l-30 -62l-109 49v16l44 96l109 -52v-4zM39 1c4 69 22 151 44 237l98 -7l11 -15c-10 -47 -21 -100 -27 -149c-11 -84 33 -102 130 -102c66 0 119 12 156 23l-148 64l-4 11l49 127
c40 3 85 8 114 20c-7 48 -16 96 -24 145l132 81l14 -9c15 -104 27 -185 27 -228c0 -23 -4 -43 -11 -63c-13 -32 -38 -57 -71 -76c38 -21 59 -39 66 -70c24 -32 5 -108 -24 -136c-40 -41 -142 -85 -290 -85c-176 0 -253 83 -242 232z" />
    <glyph glyph-name="uniFC7A" unicode="&#xfc7a;" horiz-adv-x="883" arabic-form="final" 
d="M533 722l-41 -84l-98 45v15l41 86l98 -48v-14zM534 657l109 -51v-15l-44 -95l-109 49v6l-30 -63l-109 49v16l44 96l110 -51v-4zM280 -272c-143 0 -247 61 -242 220c2 71 22 157 45 249l98 -7l11 -14c-10 -48 -22 -101 -26 -138c-1 -10 -2 -19 -2 -28
c0 -70 47 -85 139 -85c97 0 168 20 231 35c1 22 -5 27 -41 27h-72c-106 0 -157 35 -151 114c7 154 176 326 276 326c44 0 60 -16 133 -95c15 -17 31 -33 45 -49c51 -52 76 -69 137 -71h22c19 0 33 -48 33 -106c0 -59 -14 -106 -33 -106c-10 0 -19 1 -29 1
c-69 5 -119 35 -181 97l-83 85c-40 41 -66 74 -93 74c-34 0 -88 -70 -116 -118c20 -13 55 -15 114 -15c119 0 155 -51 155 -118c0 -64 -24 -148 -65 -184c-60 -54 -175 -94 -305 -94z" />
    <glyph glyph-name="uniFC14" unicode="&#xfc14;" horiz-adv-x="658" arabic-form="isolated" 
d="M447 692l-41 -84l-98 45l1 15l40 85l98 -47v-14zM448 627l110 -52v-15l-44 -94l-110 49v5l-29 -62l-110 49v16l45 96l109 -52v-4zM39 1c4 69 22 151 44 237l98 -7l11 -15c-10 -47 -21 -100 -27 -149c-11 -84 33 -102 130 -102c66 0 119 12 156 23l-148 64l-4 11l49 127
c40 3 85 8 114 20c-7 48 -16 96 -24 145l132 81l14 -9c15 -104 27 -185 27 -228c0 -23 -4 -43 -11 -63c-13 -32 -38 -57 -71 -76c38 -21 59 -39 66 -70c24 -32 5 -108 -24 -136c-40 -41 -142 -85 -290 -85c-176 0 -253 83 -242 232zM340 -273l110 -52v-15l-44 -94l-110 49
v14l-33 -71l-110 49v16l44 96l110 -52v-13z" />
    <glyph glyph-name="uniFC7B" unicode="&#xfc7b;" horiz-adv-x="883" arabic-form="final" 
d="M533 722l-41 -84l-98 45v15l41 86l98 -48v-14zM534 657l109 -51v-15l-44 -95l-109 49v6l-30 -63l-109 49v16l44 96l110 -51v-4zM280 -272c-143 0 -247 61 -242 220c2 71 22 157 45 249l98 -7l11 -14c-10 -48 -22 -101 -26 -138c-1 -10 -2 -19 -2 -28
c0 -70 47 -85 139 -85c97 0 168 20 231 35c1 22 -5 27 -41 27h-72c-106 0 -157 35 -151 114c7 154 176 326 276 326c44 0 60 -16 133 -95c15 -17 31 -33 45 -49c51 -52 76 -69 137 -71h22c19 0 33 -48 33 -106c0 -59 -14 -106 -33 -106c-10 0 -19 1 -29 1
c-69 5 -119 35 -181 97l-83 85c-40 41 -66 74 -93 74c-34 0 -88 -70 -116 -118c20 -13 55 -15 114 -15c119 0 155 -51 155 -118c0 -64 -24 -148 -65 -184c-60 -54 -175 -94 -305 -94zM353 -314l109 -51v-15l-44 -95l-110 50v14l-33 -72l-110 50v16l45 95l109 -51v-13z" />
    <glyph glyph-name="uniFD01" unicode="&#xfd01;" horiz-adv-x="917" arabic-form="isolated" 
d="M39 13c4 69 22 151 44 237l98 -7l11 -14c-10 -48 -21 -101 -27 -150c-11 -84 33 -102 130 -102c67 0 120 13 157 23l-149 65l-4 11l49 124c67 4 127 22 187 59l53 31l-139 44c-13 4 -23 6 -31 4s-16 -8 -22 -16l-35 -54h-11l-72 83l45 81c24 46 57 73 106 72
c54 0 222 -68 348 -98c15 -4 30 -7 45 -10l51 -10l6 -14l-55 -150l-84 13l-96 -72c-41 -30 -81 -60 -130 -83c61 -29 75 -44 81 -78c24 -32 5 -107 -24 -136c-40 -41 -142 -85 -290 -85c-176 0 -253 83 -242 232zM771 -124l-120 54v18l49 104l120 -56v-16z" />
    <glyph glyph-name="uniFD1D" unicode="&#xfd1d;" horiz-adv-x="881" arabic-form="final" 
d="M881 212c18 0 32 -48 32 -106c0 -59 -14 -106 -32 -106h-58c-100 0 -161 32 -187 114l-12 34c-35 -25 -69 -49 -110 -68c61 -29 75 -44 81 -78c24 -32 5 -107 -24 -136c-40 -41 -142 -85 -290 -85c-176 0 -253 83 -242 232c4 69 22 151 44 237l98 -7l11 -14
c-10 -48 -21 -101 -27 -150c-11 -84 33 -102 130 -102c67 0 120 13 157 23l-149 65l-4 11l49 124c67 4 127 22 187 59l53 31l-139 44c-13 4 -23 6 -31 4s-16 -8 -22 -16l-35 -54h-11l-72 83l45 81c24 46 57 73 106 72c54 0 222 -68 348 -98c15 -4 30 -7 45 -10l51 -10l6 -14
l-55 -150l-84 13l-16 -12c12 -9 31 -11 59 -11h98zM626 -136l49 105l120 -57v-16l-49 -103l-120 54v17z" />
    <glyph glyph-name="uniFD02" unicode="&#xfd02;" horiz-adv-x="917" arabic-form="isolated" 
d="M39 13c4 69 22 151 44 237l98 -7l11 -14c-10 -48 -21 -101 -27 -150c-11 -84 33 -102 130 -102c67 0 120 13 157 23l-149 65l-4 11l49 124c67 4 127 22 187 59l53 31l-139 44c-13 4 -23 6 -31 4s-16 -8 -22 -16l-35 -54h-11l-72 83l45 81c24 46 57 73 106 72
c54 0 222 -68 348 -98c15 -4 30 -7 45 -10l51 -10l6 -14l-55 -150l-84 13l-96 -72c-41 -30 -81 -60 -130 -83c61 -29 75 -44 81 -78c24 -32 5 -107 -24 -136c-40 -41 -142 -85 -290 -85c-176 0 -253 83 -242 232zM759 -121l-120 54v17l48 105l120 -57v-16zM333 -254l109 -52
v-15l-44 -94l-109 49v14l-34 -71l-109 49v16l44 96l109 -52v-13z" />
    <glyph glyph-name="uniFD1E" unicode="&#xfd1e;" horiz-adv-x="881" arabic-form="final" 
d="M881 212c18 0 32 -48 32 -106c0 -59 -14 -106 -32 -106h-58c-100 0 -161 32 -187 114l-12 34c-35 -25 -69 -49 -110 -68c61 -29 75 -44 81 -78c24 -32 5 -107 -24 -136c-40 -41 -142 -85 -290 -85c-176 0 -253 83 -242 232c4 69 22 151 44 237l98 -7l11 -14
c-10 -48 -21 -101 -27 -150c-11 -84 33 -102 130 -102c67 0 120 13 157 23l-149 65l-4 11l49 124c67 4 127 22 187 59l53 31l-139 44c-13 4 -23 6 -31 4s-16 -8 -22 -16l-35 -54h-11l-72 83l45 81c24 46 57 73 106 72c54 0 222 -68 348 -98c15 -4 30 -7 45 -10l51 -10l6 -14
l-55 -150l-84 13l-16 -12c12 -9 31 -11 59 -11h98zM614 -136l48 105l120 -57v-16l-48 -103l-120 54v17zM299 -327l34 73l109 -52v-15l-44 -94l-109 49v14l-34 -71l-109 49v16l44 96l109 -52v-13z" />
    <glyph glyph-name="uniFCFF" unicode="&#xfcff;" horiz-adv-x="917" arabic-form="isolated" 
d="M39 13c4 69 22 151 44 237l98 -7l11 -14c-10 -48 -21 -101 -27 -150c-11 -84 33 -102 130 -102c67 0 120 13 157 23l-149 65l-4 11l49 124c67 4 127 22 187 59l53 31l-139 44c-13 4 -23 6 -31 4s-16 -8 -22 -16l-35 -54h-11l-72 83l45 81c24 46 57 73 106 72
c54 0 222 -68 348 -98c15 -4 30 -7 45 -10l51 -10l6 -14l-55 -150l-84 13l-96 -72c-41 -30 -81 -60 -130 -83c61 -29 75 -44 81 -78c24 -32 5 -107 -24 -136c-40 -41 -142 -85 -290 -85c-176 0 -253 83 -242 232z" />
    <glyph glyph-name="uniFD1B" unicode="&#xfd1b;" horiz-adv-x="881" arabic-form="final" 
d="M881 212c18 0 32 -48 32 -106c0 -59 -14 -106 -32 -106h-58c-100 0 -161 32 -187 114l-12 34c-35 -25 -69 -49 -110 -68c61 -29 75 -44 81 -78c24 -32 5 -107 -24 -136c-40 -41 -142 -85 -290 -85c-176 0 -253 83 -242 232c4 69 22 151 44 237l98 -7l11 -14
c-10 -48 -21 -101 -27 -150c-11 -84 33 -102 130 -102c67 0 120 13 157 23l-149 65l-4 11l49 124c67 4 127 22 187 59l53 31l-139 44c-13 4 -23 6 -31 4s-16 -8 -22 -16l-35 -54h-11l-72 83l45 81c24 46 57 73 106 72c54 0 222 -68 348 -98c15 -4 30 -7 45 -10l51 -10l6 -14
l-55 -150l-84 13l-16 -12c12 -9 31 -11 59 -11h98z" />
    <glyph glyph-name="uniFD00" unicode="&#xfd00;" horiz-adv-x="872" arabic-form="isolated" 
d="M39 13c4 69 22 151 44 237l98 -7l11 -14c-10 -48 -21 -101 -27 -150c-11 -84 33 -102 130 -102c67 0 120 13 157 23l-149 65l-4 11l49 124c67 4 127 22 187 59l53 31l-139 44c-13 4 -23 6 -31 4s-16 -8 -22 -16l-35 -54h-11l-72 83l45 81c24 46 57 73 106 72
c54 0 222 -68 348 -98c15 -4 30 -7 45 -10l51 -10l6 -14l-55 -150l-84 13l-96 -72c-41 -30 -81 -60 -130 -83c61 -29 75 -44 81 -78c24 -32 5 -107 -24 -136c-40 -41 -142 -85 -290 -85c-176 0 -253 83 -242 232zM308 -242l110 -52v-15l-44 -94l-110 49v14l-33 -71l-110 49
v16l44 96l110 -52v-13z" />
    <glyph glyph-name="uniFD1C" unicode="&#xfd1c;" horiz-adv-x="872" arabic-form="final" 
d="M881 212c18 0 32 -48 32 -106c0 -59 -14 -106 -32 -106h-58c-100 0 -161 32 -187 114l-12 34c-35 -25 -69 -49 -110 -68c61 -29 75 -44 81 -78c24 -32 5 -107 -24 -136c-40 -41 -142 -85 -290 -85c-176 0 -253 83 -242 232c4 69 22 151 44 237l98 -7l11 -14
c-10 -48 -21 -101 -27 -150c-11 -84 33 -102 130 -102c67 0 120 13 157 23l-149 65l-4 11l49 124c67 4 127 22 187 59l53 31l-139 44c-13 4 -23 6 -31 4s-16 -8 -22 -16l-35 -54h-11l-72 83l45 81c24 46 57 73 106 72c54 0 222 -68 348 -98c15 -4 30 -7 45 -10l51 -10l6 -14
l-55 -150l-84 13l-16 -12c12 -9 31 -11 59 -11h98zM275 -315l33 73l110 -52v-15l-44 -94l-110 49v14l-33 -71l-110 49v16l44 96l110 -52v-13z" />
    <glyph glyph-name="uniFD03" unicode="&#xfd03;" horiz-adv-x="917" arabic-form="isolated" 
d="M462 562l-120 54v17l48 105l120 -56v-17zM39 13c4 69 22 151 44 237l98 -7l11 -14c-10 -48 -21 -101 -27 -150c-11 -84 33 -102 130 -102c67 0 120 13 157 23l-149 65l-4 11l49 124c67 4 127 22 187 59l53 31l-139 44c-13 4 -23 6 -31 4s-16 -8 -22 -16l-35 -54h-11
l-72 83l45 81c24 46 57 73 106 72c54 0 222 -68 348 -98c15 -4 30 -7 45 -10l51 -10l6 -14l-55 -150l-84 13l-96 -72c-41 -30 -81 -60 -130 -83c61 -29 75 -44 81 -78c24 -32 5 -107 -24 -136c-40 -41 -142 -85 -290 -85c-176 0 -253 83 -242 232z" />
    <glyph glyph-name="uniFD1F" unicode="&#xfd1f;" horiz-adv-x="881" arabic-form="final" 
d="M510 665l-48 -103l-120 54v17l48 105l120 -56v-17zM881 212c18 0 32 -48 32 -106c0 -59 -14 -106 -32 -106h-58c-100 0 -161 32 -187 114l-12 34c-35 -25 -69 -49 -110 -68c61 -29 75 -44 81 -78c24 -32 5 -107 -24 -136c-40 -41 -142 -85 -290 -85
c-176 0 -253 83 -242 232c4 69 22 151 44 237l98 -7l11 -14c-10 -48 -21 -101 -27 -150c-11 -84 33 -102 130 -102c67 0 120 13 157 23l-149 65l-4 11l49 124c67 4 127 22 187 59l53 31l-139 44c-13 4 -23 6 -31 4s-16 -8 -22 -16l-35 -54h-11l-72 83l45 81
c24 46 57 73 106 72c54 0 222 -68 348 -98c15 -4 30 -7 45 -10l51 -10l6 -14l-55 -150l-84 13l-16 -12c12 -9 31 -11 59 -11h98z" />
    <glyph glyph-name="uniFD04" unicode="&#xfd04;" horiz-adv-x="917" arabic-form="isolated" 
d="M462 562l-120 54v17l48 105l120 -56v-17zM39 13c4 69 22 151 44 237l98 -7l11 -14c-10 -48 -21 -101 -27 -150c-11 -84 33 -102 130 -102c67 0 120 13 157 23l-149 65l-4 11l49 124c67 4 127 22 187 59l53 31l-139 44c-13 4 -23 6 -31 4s-16 -8 -22 -16l-35 -54h-11
l-72 83l45 81c24 46 57 73 106 72c54 0 222 -68 348 -98c15 -4 30 -7 45 -10l51 -10l6 -14l-55 -150l-84 13l-96 -72c-41 -30 -81 -60 -130 -83c61 -29 75 -44 81 -78c24 -32 5 -107 -24 -136c-40 -41 -142 -85 -290 -85c-176 0 -253 83 -242 232zM333 -254l109 -52v-15
l-44 -94l-109 49v14l-34 -71l-109 49v16l44 96l109 -52v-13z" />
    <glyph glyph-name="uniFD20" unicode="&#xfd20;" horiz-adv-x="881" arabic-form="final" 
d="M510 665l-48 -103l-120 54v17l48 105l120 -56v-17zM881 212c18 0 32 -48 32 -106c0 -59 -14 -106 -32 -106h-58c-100 0 -161 32 -187 114l-12 34c-35 -25 -69 -49 -110 -68c61 -29 75 -44 81 -78c24 -32 5 -107 -24 -136c-40 -41 -142 -85 -290 -85
c-176 0 -253 83 -242 232c4 69 22 151 44 237l98 -7l11 -14c-10 -48 -21 -101 -27 -150c-11 -84 33 -102 130 -102c67 0 120 13 157 23l-149 65l-4 11l49 124c67 4 127 22 187 59l53 31l-139 44c-13 4 -23 6 -31 4s-16 -8 -22 -16l-35 -54h-11l-72 83l45 81
c24 46 57 73 106 72c54 0 222 -68 348 -98c15 -4 30 -7 45 -10l51 -10l6 -14l-55 -150l-84 13l-16 -12c12 -9 31 -11 59 -11h98zM299 -327l34 73l109 -52v-15l-44 -94l-109 49v14l-34 -71l-109 49v16l44 96l109 -52v-13z" />
    <glyph glyph-name="uniFD0E" unicode="&#xfd0e;" horiz-adv-x="1117" arabic-form="isolated" 
d="M104 -240c-28 -1 -75 13 -128 37l-34 129l10 13c50 -4 77 -6 105 -5c81 3 132 55 171 103c-9 54 -17 104 -32 175l60 104l232 57l37 -89c19 -46 37 -72 91 -72c75 0 99 20 100 67l1 53l111 1v-108c17 -9 39 -13 62 -13c15 0 31 2 43 8l-26 159l132 82l14 -9
c8 -53 15 -100 20 -139c4 -31 7 -58 7 -78c0 -23 -2 -44 -7 -64c-22 -98 -95 -171 -183 -171c-42 0 -84 9 -111 29c-7 4 -13 9 -17 15c-24 -25 -73 -44 -143 -44c-85 0 -128 37 -158 105l-31 71l-80 -21c3 -29 5 -53 4 -69c-7 -168 -113 -322 -250 -326z" />
    <glyph glyph-name="uniFD2A" unicode="&#xfd2a;" horiz-adv-x="1177" arabic-form="final" 
d="M104 -240c-28 -1 -75 13 -128 37l-34 129l10 13c50 -4 77 -6 105 -5c81 3 132 55 171 103c-9 54 -17 104 -32 175l60 104l232 57l37 -89c19 -46 41 -72 91 -72c75 0 99 20 100 67l1 53l111 1v-108c17 -9 39 -13 62 -13c15 0 31 2 43 8l-23 142l104 68l14 -9
c7 -41 14 -83 22 -125c10 -63 27 -84 82 -84h45c19 0 33 -48 33 -106c0 -59 -14 -106 -33 -106h-33c-74 0 -113 20 -136 59c-25 -37 -70 -60 -129 -60c-40 0 -80 12 -105 33c-4 4 -8 7 -12 12c-24 -25 -73 -44 -143 -44c-81 0 -128 37 -158 105l-31 71l-80 -21
c4 -34 5 -55 4 -77c-10 -165 -116 -314 -250 -318z" />
    <glyph glyph-name="uniFCE7" unicode="&#xfce7;" horiz-adv-x="1199" arabic-form="medial" 
d="M337 -134l-92 86c-48 45 -74 48 -115 48h-130c-18 0 -32 47 -32 106c0 58 14 106 32 106h113c31 0 54 -4 77 -10c1 5 3 11 6 17c2 6 4 10 7 16c3 7 7 14 12 20c35 59 105 128 151 129c43 0 58 -23 125 -83c81 -74 101 -89 159 -89c63 0 82 21 88 67l7 53l105 1v-108
c17 -9 39 -13 62 -13c15 0 31 2 43 8l-23 142l104 68l14 -9c8 -41 14 -83 22 -125c10 -63 27 -84 82 -84h45c19 0 33 -48 33 -106c0 -59 -14 -106 -33 -106h-33c-74 0 -113 20 -136 59c-5 -8 -12 -16 -20 -22c-26 -24 -63 -38 -109 -38c-35 0 -70 9 -94 26
c-9 5 -17 12 -23 19c-24 -25 -73 -44 -121 -44c-96 0 -138 31 -222 108c-51 47 -72 73 -88 73c-13 0 -42 -32 -53 -55c12 -18 43 -48 73 -76c23 -23 47 -46 71 -68l-95 -116h-12z" />
    <glyph glyph-name="uniFCB0" unicode="&#xfcb0;" horiz-adv-x="1139" arabic-form="initial" 
d="M337 -134l-92 86c-48 45 -74 48 -115 48h-130c-18 0 -32 47 -32 106c0 58 14 106 32 106h113c31 0 54 -4 77 -10c2 5 4 11 7 17c3 8 7 19 12 26c7 13 16 26 26 39c37 50 92 99 131 100c43 0 58 -23 125 -83c81 -74 101 -89 159 -89c63 0 82 21 88 67l7 53l105 1v-108
c17 -9 39 -13 62 -13c15 0 31 2 43 8l-26 159l132 82l14 -9c7 -48 14 -92 19 -129c5 -35 8 -66 8 -88c0 -42 -9 -82 -25 -116c-32 -71 -93 -119 -165 -119c-41 0 -81 8 -108 26c-8 6 -15 11 -20 18c-24 -25 -73 -44 -121 -44c-96 0 -138 31 -222 108c-51 47 -72 73 -88 73
c-13 0 -42 -32 -53 -55c11 -16 35 -40 60 -64c26 -26 56 -54 84 -80l-95 -116h-12z" />
    <glyph glyph-name="uniFCE8" unicode="&#xfce8;" horiz-adv-x="1373" arabic-form="medial" 
d="M223 -235c-77 85 -120 168 -127 235h-96c-18 0 -32 47 -32 106c0 58 14 106 32 106h99c15 90 34 162 62 258l121 83l83 -91c73 -78 89 -123 89 -189c0 -37 -12 -82 -42 -125c-38 -56 -97 -103 -189 -128c11 -41 37 -78 71 -114l94 151c64 104 115 179 180 275h97
c46 -89 80 -120 154 -120c56 0 92 17 92 67l1 53l112 1v-108c17 -9 39 -13 62 -13c15 0 30 2 42 8l-23 142l104 68l15 -9l21 -125c11 -63 27 -84 83 -84h45c18 0 32 -48 32 -106c0 -59 -14 -106 -32 -106h-33c-74 0 -113 20 -136 59c-3 -5 -7 -10 -10 -14
c-27 -28 -68 -46 -120 -46c-33 0 -67 9 -90 25c-10 6 -19 12 -26 20c-24 -24 -70 -44 -131 -44c-95 0 -162 43 -227 136c-40 -56 -91 -133 -127 -194l-107 -177h-143zM213 214c71 3 107 34 119 54c0 18 -32 58 -75 106c-21 -66 -32 -101 -44 -160z" />
    <glyph glyph-name="uniFD31" unicode="&#xfd31;" horiz-adv-x="1313" arabic-form="initial" 
d="M223 -235c-77 85 -120 168 -127 235h-96c-18 0 -32 47 -32 106c0 58 14 106 32 106h99c15 90 34 162 62 258l121 83l83 -91c73 -78 89 -123 89 -189c0 -32 -8 -69 -29 -105c-38 -63 -100 -119 -202 -148c11 -41 37 -78 71 -114c30 48 58 94 84 135
c68 111 122 190 190 291h97c46 -89 80 -120 154 -120c56 0 92 17 92 67l1 53l112 1v-108c17 -9 39 -13 61 -13c16 0 31 2 43 8l-25 159l132 82l13 -9c10 -66 17 -114 21 -155c4 -31 5 -60 4 -81c-2 -36 -11 -71 -25 -101c-32 -68 -92 -115 -163 -115c-39 0 -78 8 -105 24
c-9 6 -16 13 -22 20c-24 -24 -70 -44 -131 -44c-95 0 -162 43 -227 136c-40 -56 -91 -133 -127 -194l-107 -177h-143zM213 214c71 3 107 34 119 54c0 18 -32 58 -75 106c-21 -66 -32 -101 -44 -160z" />
    <glyph glyph-name="uniFCFB" unicode="&#xfcfb;" horiz-adv-x="1362" arabic-form="isolated" 
d="M280 -272c-143 0 -247 61 -242 220c2 71 22 157 45 249l98 -7l11 -14c-10 -48 -25 -117 -27 -155c-6 -80 42 -96 138 -96c97 0 168 20 231 35c1 21 -5 27 -39 27h-74c-106 0 -157 35 -151 114c7 154 176 326 276 326c44 0 60 -16 133 -95c15 -17 31 -33 45 -48
c53 -56 78 -72 146 -72c57 0 84 22 89 67l6 53l108 1v-108c17 -9 39 -13 62 -13c15 0 30 2 42 8l-25 159l132 82l13 -9c7 -46 14 -87 18 -123c5 -38 9 -70 9 -94c0 -31 -5 -61 -13 -89c-28 -86 -96 -146 -177 -146c-40 0 -80 9 -106 26c-9 5 -16 12 -21 18
c-31 -28 -72 -44 -137 -44c-81 0 -133 32 -205 106l-75 77c-40 41 -66 74 -93 74c-34 0 -88 -70 -116 -118c20 -13 55 -15 114 -15c119 0 155 -51 155 -118c0 -64 -24 -148 -65 -184c-60 -54 -175 -94 -305 -94z" />
    <glyph glyph-name="uniFD17" unicode="&#xfd17;" horiz-adv-x="1422" arabic-form="final" 
d="M280 -272c-143 0 -247 61 -242 220c2 71 22 157 45 249l98 -7l11 -14c-10 -48 -25 -117 -27 -155c-6 -80 42 -96 138 -96c97 0 168 20 231 35c1 22 -6 27 -43 27h-70c-106 0 -157 35 -151 114c7 154 176 326 276 326c44 0 60 -16 133 -95c13 -15 26 -29 39 -43
c57 -61 82 -77 152 -77c57 0 84 22 89 67l6 53l108 1v-108c17 -9 39 -13 62 -13c15 0 30 2 42 8l-23 142l104 68l15 -9l21 -125c11 -63 27 -84 82 -84h46c18 0 32 -48 32 -106c0 -59 -14 -106 -32 -106h-33c-74 0 -113 20 -136 59l-12 -15c-27 -28 -67 -45 -118 -45
c-37 0 -73 11 -99 29c-7 5 -13 10 -17 16c-32 -28 -72 -44 -137 -44c-84 0 -136 34 -210 110c-23 25 -47 49 -70 73c-40 41 -66 74 -93 74c-34 0 -88 -70 -116 -118c20 -13 55 -15 114 -15c119 0 155 -51 155 -118c0 -64 -24 -148 -65 -184c-60 -54 -175 -94 -305 -94z" />
    <glyph glyph-name="uniFCFC" unicode="&#xfcfc;" horiz-adv-x="1362" arabic-form="isolated" 
d="M280 -272c-143 0 -247 61 -242 220c2 71 22 157 45 249l98 -7l11 -14c-10 -48 -25 -117 -27 -155c-6 -80 42 -96 138 -96c97 0 168 20 231 35c1 21 -5 27 -39 27h-74c-106 0 -157 35 -151 114c7 154 176 326 276 326c44 0 60 -16 133 -95c15 -17 31 -33 45 -48
c53 -56 78 -72 146 -72c57 0 84 22 89 67l6 53l108 1v-108c17 -9 39 -13 62 -13c15 0 30 2 42 8l-25 159l132 82l13 -9c7 -46 14 -87 18 -123c5 -38 9 -70 9 -94c0 -31 -5 -61 -13 -89c-28 -86 -96 -146 -177 -146c-40 0 -80 9 -106 26c-9 5 -16 12 -21 18
c-31 -28 -72 -44 -137 -44c-81 0 -133 32 -205 106l-75 77c-40 41 -66 74 -93 74c-34 0 -88 -70 -116 -118c20 -13 55 -15 114 -15c119 0 155 -51 155 -118c0 -64 -24 -148 -65 -184c-60 -54 -175 -94 -305 -94zM368 -312l109 -52v-15l-44 -94l-109 49v14l-34 -71l-109 49
v16l44 96l109 -52v-13z" />
    <glyph glyph-name="uniFD18" unicode="&#xfd18;" horiz-adv-x="1422" arabic-form="final" 
d="M280 -272c-143 0 -247 61 -242 220c2 71 22 157 45 249l98 -7l11 -14c-10 -48 -25 -117 -27 -155c-6 -80 42 -96 138 -96c97 0 168 20 231 35c1 22 -6 27 -43 27h-70c-106 0 -157 35 -151 114c7 154 176 326 276 326c44 0 60 -16 133 -95c13 -15 26 -29 39 -43
c57 -61 82 -77 152 -77c57 0 84 22 89 67l6 53l108 1v-108c17 -9 39 -13 62 -13c15 0 30 2 42 8l-23 142l104 68l15 -9l21 -125c11 -63 27 -84 82 -84h46c18 0 32 -48 32 -106c0 -59 -14 -106 -32 -106h-33c-74 0 -113 20 -136 59l-12 -15c-27 -28 -67 -45 -118 -45
c-37 0 -73 11 -99 29c-7 5 -13 10 -17 16c-32 -28 -72 -44 -137 -44c-84 0 -136 34 -210 110c-23 25 -47 49 -70 73c-40 41 -66 74 -93 74c-34 0 -88 -70 -116 -118c20 -13 55 -15 114 -15c119 0 155 -51 155 -118c0 -64 -24 -148 -65 -184c-60 -54 -175 -94 -305 -94z
M368 -312l109 -52v-15l-44 -94l-109 49v14l-34 -71l-109 49v16l44 96l109 -52v-13z" />
    <glyph glyph-name="uniFD0D" unicode="&#xfd0d;" horiz-adv-x="1117" arabic-form="isolated" 
d="M768 645l-41 -84l-98 45v15l41 86l98 -48v-14zM769 580l110 -51v-15l-45 -95l-109 49v6l-29 -63l-110 49v16l44 96l110 -51v-4zM104 -240c-28 -1 -75 13 -128 37l-34 129l10 13c50 -4 77 -6 105 -5c81 3 132 55 171 103c-9 54 -17 104 -32 175l60 104l232 57l37 -89
c19 -46 37 -72 91 -72c75 0 99 20 100 67l1 53l111 1v-108c17 -9 39 -13 62 -13c15 0 31 2 43 8l-26 159l132 82l14 -9c8 -53 15 -100 20 -139c4 -31 7 -58 7 -78c0 -23 -2 -44 -7 -64c-22 -98 -95 -171 -183 -171c-42 0 -84 9 -111 29c-7 4 -13 9 -17 15
c-24 -25 -73 -44 -143 -44c-85 0 -128 37 -158 105l-31 71l-80 -21c3 -29 5 -53 4 -69c-7 -168 -113 -322 -250 -326z" />
    <glyph glyph-name="uniFD29" unicode="&#xfd29;" horiz-adv-x="1177" arabic-form="final" 
d="M768 645l-41 -84l-98 45v15l41 86l98 -48v-14zM769 580l110 -51v-15l-45 -95l-109 49v6l-29 -63l-110 49v16l44 96l110 -51v-4zM104 -240c-28 -1 -75 13 -128 37l-34 129l10 13c50 -4 77 -6 105 -5c81 3 132 55 171 103c-9 54 -17 104 -32 175l60 104l232 57l37 -89
c19 -46 41 -72 91 -72c75 0 99 20 100 67l1 53l111 1v-108c17 -9 39 -13 62 -13c15 0 31 2 43 8l-23 142l104 68l14 -9c7 -41 14 -83 22 -125c10 -63 27 -84 82 -84h45c19 0 33 -48 33 -106c0 -59 -14 -106 -33 -106h-33c-74 0 -113 20 -136 59c-25 -37 -70 -60 -129 -60
c-40 0 -80 12 -105 33c-4 4 -8 7 -12 12c-24 -25 -73 -44 -143 -44c-81 0 -128 37 -158 105l-31 71l-80 -21c4 -34 5 -55 4 -77c-10 -165 -116 -314 -250 -318z" />
    <glyph glyph-name="uniFCE9" unicode="&#xfce9;" horiz-adv-x="1199" arabic-form="medial" 
d="M788 646l-41 -84l-98 46v14l41 86l98 -48v-14zM789 581l109 -51v-15l-44 -95l-109 50v5l-30 -63l-109 50v16l44 95l109 -51v-4zM337 -134l-92 86c-48 45 -74 48 -115 48h-130c-18 0 -32 47 -32 106c0 58 14 106 32 106h113c31 0 54 -4 77 -10c1 5 3 11 6 17
c2 6 4 10 7 16c3 7 7 14 12 20c35 59 105 128 151 129c43 0 58 -23 125 -83c81 -74 101 -89 159 -89c63 0 82 21 88 67l7 53l105 1v-108c17 -9 39 -13 62 -13c15 0 31 2 43 8l-23 142l104 68l14 -9c8 -41 14 -83 22 -125c10 -63 27 -84 82 -84h45c19 0 33 -48 33 -106
c0 -59 -14 -106 -33 -106h-33c-74 0 -113 20 -136 59c-5 -8 -12 -16 -20 -22c-26 -24 -63 -38 -109 -38c-35 0 -70 9 -94 26c-9 5 -17 12 -23 19c-24 -25 -73 -44 -121 -44c-96 0 -138 31 -222 108c-51 47 -72 73 -88 73c-13 0 -42 -32 -53 -55c12 -18 43 -48 73 -76
c23 -23 47 -46 71 -68l-95 -116h-12z" />
    <glyph glyph-name="uniFD30" unicode="&#xfd30;" horiz-adv-x="1139" arabic-form="initial" 
d="M788 646l-41 -84l-98 46v14l41 86l98 -48v-14zM789 581l109 -51v-15l-44 -95l-109 50v5l-30 -63l-109 50v16l44 95l109 -51v-4zM337 -134l-92 86c-48 45 -74 48 -115 48h-130c-18 0 -32 47 -32 106c0 58 14 106 32 106h113c31 0 54 -4 77 -10c2 5 4 11 7 17
c3 8 7 19 12 26c7 13 16 26 26 39c37 50 92 99 131 100c43 0 58 -23 125 -83c81 -74 101 -89 159 -89c63 0 82 21 88 67l7 53l105 1v-108c17 -9 39 -13 62 -13c15 0 31 2 43 8l-26 159l132 82l14 -9c7 -48 14 -92 19 -129c5 -35 8 -66 8 -88c0 -42 -9 -82 -25 -116
c-32 -71 -93 -119 -165 -119c-41 0 -81 8 -108 26c-8 6 -15 11 -20 18c-24 -25 -73 -44 -121 -44c-96 0 -138 31 -222 108c-51 47 -72 73 -88 73c-13 0 -42 -32 -53 -55c11 -16 35 -40 60 -64c26 -26 56 -54 84 -80l-95 -116h-12z" />
    <glyph glyph-name="uniFCEA" unicode="&#xfcea;" horiz-adv-x="1373" arabic-form="medial" 
d="M960 645l-41 -84l-98 45l1 15l40 86l98 -48v-14zM961 580l110 -51v-15l-44 -95l-110 49v6l-29 -63l-110 49v16l44 96l110 -51v-4zM223 -235c-77 85 -120 168 -127 235h-96c-18 0 -32 47 -32 106c0 58 14 106 32 106h99c15 90 34 162 62 258l121 83l83 -91
c73 -78 89 -123 89 -189c0 -37 -12 -82 -42 -125c-38 -56 -97 -103 -189 -128c11 -41 37 -78 71 -114l94 151c64 104 115 179 180 275h97c46 -89 80 -120 154 -120c56 0 92 17 92 67l1 53l112 1v-108c17 -9 39 -13 62 -13c15 0 30 2 42 8l-23 142l104 68l15 -9l21 -125
c11 -63 27 -84 83 -84h45c18 0 32 -48 32 -106c0 -59 -14 -106 -32 -106h-33c-74 0 -113 20 -136 59c-3 -5 -7 -10 -10 -14c-27 -28 -68 -46 -120 -46c-33 0 -67 9 -90 25c-10 6 -19 12 -26 20c-24 -24 -70 -44 -131 -44c-95 0 -162 43 -227 136c-40 -56 -91 -133 -127 -194
l-107 -177h-143zM213 214c71 3 107 34 119 54c0 18 -32 58 -75 106c-21 -66 -32 -101 -44 -160z" />
    <glyph glyph-name="uniFD32" unicode="&#xfd32;" horiz-adv-x="1313" arabic-form="initial" 
d="M952 645l-40 -84l-98 45v15l41 86l98 -48zM954 580l109 -51v-15l-44 -95l-110 49v6l-29 -63l-109 49v16l44 96l109 -51v-4zM223 -235c-77 85 -120 168 -127 235h-96c-18 0 -32 47 -32 106c0 58 14 106 32 106h99c15 90 34 162 62 258l121 83l83 -91
c73 -78 89 -123 89 -189c0 -32 -8 -69 -29 -105c-38 -63 -100 -119 -202 -148c11 -41 37 -78 71 -114c30 48 58 94 84 135c68 111 122 190 190 291h97c46 -89 80 -120 154 -120c56 0 92 17 92 67l1 53l112 1v-108c17 -9 39 -13 61 -13c16 0 31 2 43 8l-25 159l132 82l13 -9
c10 -66 17 -114 21 -155c4 -31 5 -60 4 -81c-2 -36 -11 -71 -25 -101c-32 -68 -92 -115 -163 -115c-39 0 -78 8 -105 24c-9 6 -16 13 -22 20c-24 -24 -70 -44 -131 -44c-95 0 -162 43 -227 136c-40 -56 -91 -133 -127 -194l-107 -177h-143zM213 214c71 3 107 34 119 54
c0 18 -32 58 -75 106c-21 -66 -32 -101 -44 -160z" />
    <glyph glyph-name="uniFCFD" unicode="&#xfcfd;" horiz-adv-x="1362" arabic-form="isolated" 
d="M1007 641l-41 -84l-98 46l1 14l40 86l98 -48v-14zM1008 576l110 -51v-15l-44 -95l-110 50v5l-29 -63l-110 50v16l44 95l110 -51v-4zM280 -272c-143 0 -247 61 -242 220c2 71 22 157 45 249l98 -7l11 -14c-10 -48 -25 -117 -27 -155c-6 -80 42 -96 138 -96
c97 0 168 20 231 35c1 21 -5 27 -39 27h-74c-106 0 -157 35 -151 114c7 154 176 326 276 326c44 0 60 -16 133 -95c15 -17 31 -33 45 -48c53 -56 78 -72 146 -72c57 0 84 22 89 67l6 53l108 1v-108c17 -9 39 -13 62 -13c15 0 30 2 42 8l-25 159l132 82l13 -9
c7 -46 14 -87 18 -123c5 -38 9 -70 9 -94c0 -31 -5 -61 -13 -89c-28 -86 -96 -146 -177 -146c-40 0 -80 9 -106 26c-9 5 -16 12 -21 18c-31 -28 -72 -44 -137 -44c-81 0 -133 32 -205 106l-75 77c-40 41 -66 74 -93 74c-34 0 -88 -70 -116 -118c20 -13 55 -15 114 -15
c119 0 155 -51 155 -118c0 -64 -24 -148 -65 -184c-60 -54 -175 -94 -305 -94z" />
    </font>
</defs>
</svg>
