<?xml version="1.0" standalone="no"?>
<!DOCTYPE svg PUBLIC "-//W3C//DTD SVG 1.1//EN" "http://www.w3.org/Graphics/SVG/1.1/DTD/svg11.dtd" >
<svg xmlns="http://www.w3.org/2000/svg" xmlns:xlink="http://www.w3.org/1999/xlink" version="1.1">
<metadata>
Created by FontForge 20170812 at Fri Nov 12 22:00:10 2021
 By www-data
Copyright \(c\) 2021 by Omid Emamian &#38; Kamyab Jafari. All rights reserved.
</metadata>
<defs>
<font id="Aria-Bold" horiz-adv-x="0" >
  <font-face 
    font-family="Aria SemiBold"
    font-weight="700"
    font-stretch="normal"
    units-per-em="1000"
    panose-1="0 0 5 0 0 0 0 0 0 0"
    ascent="800"
    descent="-200"
    x-height="468"
    cap-height="644"
    bbox="-185 -565 1992 2359"
    underline-thickness="153"
    underline-position="-486"
    stemh="153"
    stemv="101"
    unicode-range="U+0020-FEFF"
  />
<missing-glyph horiz-adv-x="385" 
 />
    <glyph glyph-name="uniFEFB" unicode="&#xfedf;&#xfe8e;" horiz-adv-x="481" arabic-form="isolated" 
d="M44 129l6 8c26 0 50 1 73 2l-62 431l98 45l44 -358c4 -28 3 -50 -5 -76l-11 -37c66 7 118 18 153 33l-5 484l102 27v-499c0 -179 -232 -205 -375 -205z" />
    <glyph glyph-name="uniFEFC" unicode="&#xfee0;&#xfe8e;" horiz-adv-x="554" arabic-form="final" 
d="M62 -16l-18 145l6 8c26 0 50 1 73 2l-62 431l98 45l44 -358c4 -28 3 -50 -5 -76l-11 -37c67 7 119 18 154 33c-1 12 -1 24 -1 36l-5 448l102 27v-449c0 -66 22 -86 86 -86h31c15 0 26 -34 26 -76c0 -43 -11 -77 -26 -77h-32c-73 0 -120 20 -145 73
c-64 -78 -218 -89 -315 -89z" />
    <glyph glyph-name="uniFEF7" unicode="&#xfedf;&#xfe84;" horiz-adv-x="481" arabic-form="isolated" 
d="M-20 624l14 73l36 15c-19 15 -31 42 -31 69c0 58 45 103 104 108c11 1 21 -1 32 -3c11 -1 22 -4 32 -6v-68c-8 2 -16 3 -24 4c-14 1 -25 2 -35 2c-24 0 -40 -3 -52 -7c-1 -7 -1 -13 0 -18c0 -27 18 -43 42 -43c10 0 20 1 31 4l83 23l4 -4l-14 -74l-24 -8
c-67 -24 -134 -49 -194 -71zM44 129l6 8c26 0 50 1 73 2l-62 431l98 45l44 -358c4 -28 3 -50 -5 -76l-11 -37c66 7 118 18 153 33l-5 484l102 27v-499c0 -179 -232 -205 -375 -205z" />
    <glyph glyph-name="uniFEF8" unicode="&#xfee0;&#xfe84;" horiz-adv-x="554" arabic-form="final" 
d="M-20 624l14 73l36 15c-19 15 -31 42 -31 69c0 58 45 103 104 108c11 1 21 -1 32 -3c11 -1 22 -4 32 -6v-68c-8 2 -16 3 -24 4c-14 1 -25 2 -35 2c-24 0 -40 -3 -52 -7c-1 -7 -1 -13 0 -18c0 -27 18 -43 42 -43c10 0 20 1 31 4l83 23l4 -4l-14 -74l-24 -8
c-67 -24 -134 -49 -194 -71zM62 -16l-18 145l6 8c26 0 50 1 73 2l-62 431l98 45l44 -358c4 -28 3 -50 -5 -76l-11 -37c67 7 119 18 154 33c-1 12 -1 24 -1 36l-5 448l102 27v-449c0 -66 22 -86 86 -86h31c15 0 26 -34 26 -76c0 -43 -11 -77 -26 -77h-32
c-73 0 -120 20 -145 73c-64 -78 -218 -89 -315 -89z" />
    <glyph glyph-name="uniFEF9" unicode="&#xfedf;&#xfe88;" horiz-adv-x="481" arabic-form="isolated" 
d="M44 129l6 8c26 0 50 1 73 2l-62 431l98 45l44 -358c4 -28 3 -50 -5 -76l-11 -37c66 7 118 18 153 33l-5 484l102 27v-499c0 -179 -232 -205 -375 -205zM58 -322l15 73l35 15c-19 15 -31 42 -31 68c0 58 45 103 104 109c11 0 21 -1 32 -3c11 -1 22 -4 32 -6l1 -68
c-8 2 -17 3 -25 4c-13 1 -25 2 -35 2c-24 0 -40 -3 -51 -7c-1 -7 -1 -13 -1 -18c1 -27 18 -43 42 -43c10 0 21 1 31 4l83 22l4 -3l-14 -74l-24 -9c-67 -23 -133 -48 -194 -70z" />
    <glyph glyph-name="uniFEFA" unicode="&#xfee0;&#xfe88;" horiz-adv-x="554" arabic-form="final" 
d="M62 -16l-18 145l6 8c26 0 50 1 73 2l-62 431l98 45l44 -358c4 -28 3 -50 -5 -76l-11 -37c67 7 119 18 154 33c-1 12 -1 24 -1 36l-5 448l102 27v-449c0 -66 22 -86 86 -86h31c15 0 26 -34 26 -76c0 -43 -11 -77 -26 -77h-32c-73 0 -120 20 -145 73
c-64 -78 -218 -89 -315 -89zM58 -322l15 73l35 15c-19 15 -31 42 -31 68c0 58 45 103 104 109c11 0 21 -1 32 -3c11 -1 22 -4 32 -6l1 -68c-8 2 -17 3 -25 4c-13 1 -25 2 -35 2c-24 0 -40 -3 -51 -7c-1 -7 -1 -13 -1 -18c1 -27 18 -43 42 -43c10 0 21 1 31 4l83 22l4 -3
l-14 -74l-24 -9c-67 -23 -133 -48 -194 -70z" />
    <glyph glyph-name="uniFEF5" unicode="&#xfedf;&#xfe82;" horiz-adv-x="481" arabic-form="isolated" 
d="M-30 630l-50 34l10 32c13 37 35 71 77 71c52 0 89 -37 256 -1l4 -9l-28 -76c-124 -32 -188 -10 -238 2l-21 -50zM44 129l6 8c26 0 50 1 73 2l-62 431l98 45l44 -358c4 -28 3 -50 -5 -76l-11 -37c66 7 118 18 153 33l-5 484l102 27v-499c0 -179 -232 -205 -375 -205z" />
    <glyph glyph-name="uniFEF6" unicode="&#xfee0;&#xfe82;" horiz-adv-x="554" arabic-form="final" 
d="M-30 630l-50 34l10 32c13 37 35 71 77 71c52 0 89 -37 256 -1l4 -9l-28 -76c-124 -32 -188 -10 -238 2l-21 -50zM62 -16l-18 145l6 8c26 0 50 1 73 2l-62 431l98 45l44 -358c4 -28 3 -50 -5 -76l-11 -37c67 7 119 18 154 33c-1 12 -1 24 -1 36l-5 448l102 27v-449
c0 -66 22 -86 86 -86h31c15 0 26 -34 26 -76c0 -43 -11 -77 -26 -77h-32c-73 0 -120 20 -145 73c-64 -78 -218 -89 -315 -89z" />
    <glyph glyph-name="uniFEDFFB51" unicode="&#xfedf;&#xfb51;" horiz-adv-x="481" 
d="M-35 635l-6 2l-25 54l123 147c35 42 65 57 108 57c77 0 116 -78 116 -132c0 -72 -49 -99 -161 -99c-53 0 -86 9 -110 21zM124 738c54 0 82 4 102 10c0 9 -1 18 -5 26c-10 27 -30 49 -63 49c-17 0 -33 -2 -43 -6l-61 -71c16 -5 42 -8 70 -8zM44 129l6 8c26 0 50 1 73 2
l-62 431l98 45l44 -358c4 -28 3 -50 -5 -76l-11 -37c66 7 118 18 153 33l-5 484l102 27v-499c0 -179 -232 -205 -375 -205z" />
    <glyph glyph-name="uniFEE0FB51" unicode="&#xfee0;&#xfb51;" horiz-adv-x="554" 
d="M-35 635l-6 2l-25 54l123 147c35 42 65 57 108 57c77 0 116 -78 116 -132c0 -72 -49 -99 -161 -99c-53 0 -86 9 -110 21zM124 738c54 0 82 4 102 10c0 9 -1 18 -5 26c-10 27 -30 49 -63 49c-17 0 -33 -2 -43 -6l-61 -71c16 -5 42 -8 70 -8zM62 -16l-18 145l6 8
c26 0 50 1 73 2l-62 431l98 45l44 -358c4 -28 3 -50 -5 -76l-11 -37c67 7 119 18 154 33c-1 12 -1 24 -1 36l-5 448l102 27v-449c0 -66 22 -86 86 -86h31c15 0 26 -34 26 -76c0 -43 -11 -77 -26 -77h-32c-73 0 -120 20 -145 73c-64 -78 -218 -89 -315 -89z" />
    <glyph glyph-name="uniFE91FE8E" unicode="&#xfe91;&#xfe8e;" horiz-adv-x="534" 
d="M248 0c-145 0 -198 62 -199 186l-5 475l102 27v-449c0 -71 25 -86 103 -86c51 0 95 8 132 30l-25 162l100 63l11 -7c14 -103 23 -164 23 -205c0 -57 -12 -104 -46 -134c-43 -41 -109 -62 -196 -62zM290 -233l-103 47v16l40 88l103 -49v-15z" />
    <glyph glyph-name="uniFE92FE8E" unicode="&#xfe92;&#xfe8e;" horiz-adv-x="583" 
d="M249 0c-143 0 -199 58 -200 186l-5 475l102 27v-449c0 -71 25 -86 103 -86c88 0 121 7 131 56l20 105l11 8l79 -21l-13 -85c-5 -35 18 -63 68 -63h38c14 0 26 -34 26 -76c0 -43 -12 -77 -26 -77h-45c-62 0 -103 27 -122 69c-40 -58 -94 -69 -167 -69zM341 -233l-103 47
v16l41 88l103 -49v-15z" />
    <glyph glyph-name="uniFB58FE8E" unicode="&#xfb58;&#xfe8e;" horiz-adv-x="534" 
d="M248 0c-145 0 -198 62 -199 186l-5 475l102 27v-449c0 -71 25 -86 103 -86c51 0 95 8 132 30l-25 162l100 63l11 -7c14 -103 23 -164 23 -205c0 -57 -12 -104 -46 -134c-43 -41 -109 -62 -196 -62zM380 -209l-94 42v15l37 80l94 -44v-14zM230 -217l-94 42v15l37 80
l94 -44v-14zM330 -330l-90 41v14l36 77l90 -43v-14z" />
    <glyph glyph-name="uniFB59FE8E" unicode="&#xfb59;&#xfe8e;" horiz-adv-x="583" 
d="M249 0c-143 0 -199 58 -200 186l-5 475l102 27v-449c0 -71 25 -86 103 -86c88 0 121 7 131 56l20 105l11 8l79 -21l-13 -85c-5 -35 18 -63 68 -63h38c14 0 26 -34 26 -76c0 -43 -12 -77 -26 -77h-45c-62 0 -103 27 -122 69c-40 -58 -94 -69 -167 -69zM385 -211l-94 42v15
l37 80l94 -44v-14zM235 -219l-94 42v15l37 80l94 -44v-14zM335 -332l-90 41v14l36 77l90 -43v-14z" />
    <glyph glyph-name="uniFE97FE8E" unicode="&#xfe97;&#xfe8e;" horiz-adv-x="534" 
d="M248 0c-145 0 -198 62 -199 186l-5 475l102 27v-449c0 -71 25 -86 103 -86c51 0 95 8 132 30l-25 162l100 63l11 -7c14 -103 23 -164 23 -205c0 -57 -12 -104 -46 -134c-43 -41 -109 -62 -196 -62zM431 465l-94 43v14l37 81l94 -45v-14zM288 457l-94 43v14l37 81l94 -45
v-14z" />
    <glyph glyph-name="uniFE98FE8E" unicode="&#xfe98;&#xfe8e;" horiz-adv-x="583" 
d="M249 0c-143 0 -199 58 -200 186l-5 475l102 27v-449c0 -71 25 -86 103 -86c88 0 121 7 131 56l20 105l11 8l79 -21l-13 -85c-5 -35 18 -63 68 -63h38c14 0 26 -34 26 -76c0 -43 -12 -77 -26 -77h-45c-62 0 -103 27 -122 69c-40 -58 -94 -69 -167 -69zM461 417l-94 42v15
l37 80l95 -44v-14zM318 409l-94 42v15l37 80l95 -44v-14z" />
    <glyph glyph-name="uniFE9BFE8E" unicode="&#xfe9b;&#xfe8e;" horiz-adv-x="534" 
d="M331 581l-88 40v14l36 76l88 -43v-13zM248 0c-145 0 -198 62 -199 186l-5 475l102 27v-449c0 -71 25 -86 103 -86c51 0 95 8 132 30l-25 162l100 63l11 -7c14 -103 23 -164 23 -205c0 -57 -12 -104 -46 -134c-43 -41 -109 -62 -196 -62zM435 458l-95 42v15l38 80l94 -44
v-14zM289 450l-94 42v15l37 80l94 -44v-14z" />
    <glyph glyph-name="uniFE9CFE8E" unicode="&#xfe9c;&#xfe8e;" horiz-adv-x="583" 
d="M249 0c-143 0 -199 58 -200 186l-5 475l102 27v-449c0 -71 25 -86 103 -86c88 0 121 7 131 56l20 105l11 8l79 -21l-13 -85c-5 -35 18 -63 68 -63h38c14 0 26 -34 26 -76c0 -43 -12 -77 -26 -77h-45c-62 0 -103 27 -122 69c-40 -58 -94 -69 -167 -69zM363 531l-88 41v14
l35 75l89 -42v-13zM466 409l-94 42v15l37 80l94 -44v-14zM320 401l-94 42v15l37 80l95 -44v-14z" />
    <glyph glyph-name="uniFE9FFE8E" unicode="&#xfe9f;&#xfe8e;" horiz-adv-x="863" 
d="M215 0c-115 3 -165 65 -166 186l-5 475l102 27v-449c0 -67 22 -84 73 -86h44c85 0 156 16 248 76l54 34l-153 51c-17 6 -27 8 -35 7c-10 -1 -18 -7 -25 -16l-38 -58h-9l-54 63l39 70c24 44 49 71 96 70c48 -1 185 -58 302 -91c29 -8 55 -15 79 -19l48 -10l4 -13l-43 -113
l-85 15l-151 -112c-96 -69 -195 -107 -298 -107h-27zM504 -173l-103 47v16l41 88l103 -49v-15z" />
    <glyph glyph-name="uniFEA0FE8E" unicode="&#xfea0;&#xfe8e;" horiz-adv-x="837" 
d="M837 153c15 0 27 -34 27 -76c0 -43 -12 -77 -27 -77h-62c-102 0 -156 26 -174 113l-8 33l-53 -39c-96 -69 -195 -107 -298 -107h-25c-116 2 -167 65 -168 186l-5 475l102 27v-449c0 -68 23 -85 76 -86h41c85 0 156 16 248 76l54 34l-153 51c-17 6 -28 8 -36 7
c-9 -1 -18 -7 -24 -16l-38 -58h-9l-54 63l39 70c24 44 49 71 96 70c51 -1 203 -67 327 -98l48 -11l54 -11l4 -13l-43 -113l-85 15l-27 -20l2 -10c7 -33 38 -36 95 -36h76zM401 -110l41 88l103 -49v-15l-41 -87l-103 47v16z" />
    <glyph glyph-name="uniFB7CFE8E" unicode="&#xfb7c;&#xfe8e;" horiz-adv-x="863" 
d="M215 0c-115 3 -165 65 -166 186l-5 475l102 27v-449c0 -67 22 -84 73 -86h44c85 0 156 16 248 76l54 34l-153 51c-17 6 -27 8 -35 7c-10 -1 -18 -7 -25 -16l-38 -58h-9l-54 63l39 70c24 44 49 71 96 70c48 -1 185 -58 302 -91c29 -8 55 -15 79 -19l48 -10l4 -13l-43 -113
l-85 15l-151 -112c-96 -69 -195 -107 -298 -107h-27zM599 -166l-94 42v15l37 80l94 -44v-14zM449 -174l-94 42v15l37 80l94 -44v-14zM549 -287l-90 41v14l36 77l90 -43v-14z" />
    <glyph glyph-name="uniFB7DFE8E" unicode="&#xfb7d;&#xfe8e;" horiz-adv-x="837" 
d="M837 153c15 0 27 -34 27 -76c0 -43 -12 -77 -27 -77h-62c-102 0 -156 26 -174 113l-8 33l-53 -39c-96 -69 -195 -107 -298 -107h-25c-116 2 -167 65 -168 186l-5 475l102 27v-449c0 -68 23 -85 76 -86h41c85 0 156 16 248 76l54 34l-153 51c-17 6 -28 8 -36 7
c-9 -1 -18 -7 -24 -16l-38 -58h-9l-54 63l39 70c24 44 49 71 96 70c51 -1 203 -67 327 -98l48 -11l54 -11l4 -13l-43 -113l-85 15l-27 -20l2 -10c7 -33 38 -36 95 -36h76zM505 -109l37 80l94 -44v-14l-37 -79l-94 42v15zM486 -81v-14l-37 -79l-94 42v15l37 80zM459 -232
l36 77l90 -43v-14l-36 -75l-90 41v14z" />
    <glyph glyph-name="uniFEA3FE8E" unicode="&#xfea3;&#xfe8e;" horiz-adv-x="863" 
d="M215 0c-115 3 -165 65 -166 186l-5 475l102 27v-449c0 -67 22 -84 73 -86h44c85 0 156 16 248 76l54 34l-153 51c-17 6 -27 8 -35 7c-10 -1 -18 -7 -25 -16l-38 -58h-9l-54 63l39 70c24 44 49 71 96 70c48 -1 185 -58 302 -91c29 -8 55 -15 79 -19l48 -10l4 -13l-43 -113
l-85 15l-151 -112c-96 -69 -195 -107 -298 -107h-27z" />
    <glyph glyph-name="uniFEA4FE8E" unicode="&#xfea4;&#xfe8e;" horiz-adv-x="837" 
d="M837 153c15 0 27 -34 27 -76c0 -43 -12 -77 -27 -77h-62c-102 0 -156 26 -174 113l-8 33l-53 -39c-96 -69 -195 -107 -298 -107h-25c-116 2 -167 65 -168 186l-5 475l102 27v-449c0 -68 23 -85 76 -86h41c85 0 156 16 248 76l54 34l-153 51c-17 6 -28 8 -36 7
c-9 -1 -18 -7 -24 -16l-38 -58h-9l-54 63l39 70c24 44 49 71 96 70c51 -1 203 -67 327 -98l48 -11l54 -11l4 -13l-43 -113l-85 15l-27 -20l2 -10c7 -33 38 -36 95 -36h76z" />
    <glyph glyph-name="uniFEA7FE8E" unicode="&#xfea7;&#xfe8e;" horiz-adv-x="863" 
d="M215 0c-115 3 -165 65 -166 186l-5 475l102 27v-449c0 -67 22 -84 73 -86h44c85 0 156 16 248 76l54 34l-153 51c-17 6 -27 8 -35 7c-10 -1 -18 -7 -25 -16l-38 -58h-9l-54 63l39 70c24 44 49 71 96 70c48 -1 185 -58 302 -91c29 -8 55 -15 79 -19l48 -10l4 -13l-43 -113
l-85 15l-151 -112c-96 -69 -195 -107 -298 -107h-27zM428 511l-103 46v17l41 88l103 -49v-15z" />
    <glyph glyph-name="uniFEA8FE8E" unicode="&#xfea8;&#xfe8e;" horiz-adv-x="837" 
d="M837 153c15 0 27 -34 27 -76c0 -43 -12 -77 -27 -77h-62c-102 0 -156 26 -174 113l-8 33l-53 -39c-96 -69 -195 -107 -298 -107h-25c-116 2 -167 65 -168 186l-5 475l102 27v-449c0 -68 23 -85 76 -86h41c85 0 156 16 248 76l54 34l-153 51c-17 6 -28 8 -36 7
c-9 -1 -18 -7 -24 -16l-38 -58h-9l-54 63l39 70c24 44 49 71 96 70c51 -1 203 -67 327 -98l48 -11l54 -11l4 -13l-43 -113l-85 15l-27 -20l2 -10c7 -33 38 -36 95 -36h76zM466 598l-40 -87l-103 46v17l40 88l103 -49v-15z" />
    <glyph glyph-name="uniFEB3FE8E" unicode="&#xfeb3;&#xfe8e;" horiz-adv-x="1005" 
d="M236 0c-129 0 -186 55 -187 186l-5 475l102 27v-449c0 -74 26 -86 85 -86c73 0 99 15 118 74l29 88l12 7l77 -26l-20 -68l-12 -44c20 -20 51 -31 100 -31c86 0 111 24 112 76l2 53l86 2v-115c18 -10 43 -16 68 -16c19 0 38 4 51 14l-27 178l100 63l11 -7
c11 -85 18 -137 20 -177c2 -27 1 -50 -3 -69c-4 -29 -14 -55 -28 -77c-30 -48 -78 -78 -133 -78c-32 0 -67 7 -92 21c-11 6 -20 14 -27 23c-25 -25 -75 -44 -138 -44c-78 0 -131 24 -155 64c-26 -47 -74 -64 -146 -64z" />
    <glyph glyph-name="uniFEB4FE8E" unicode="&#xfeb4;&#xfe8e;" horiz-adv-x="1081" 
d="M236 0c-129 0 -186 55 -187 186l-5 475l102 27v-449c0 -74 26 -86 90 -86c68 0 94 15 113 74l29 88l12 7l77 -26l-21 -72c-4 -13 -7 -27 -11 -40c20 -20 51 -31 100 -31c86 0 111 24 112 76l2 53l86 2v-115c18 -10 43 -16 67 -16c20 0 39 4 52 14l-23 147l77 56l12 -7
c7 -39 12 -77 19 -116c10 -73 35 -94 103 -94h39c15 0 26 -34 26 -76c0 -43 -11 -77 -26 -77h-33c-74 0 -113 20 -136 59c-4 -6 -9 -12 -14 -17c-25 -26 -63 -42 -110 -42c-35 0 -72 9 -98 29c-5 4 -10 9 -15 15c-25 -25 -75 -44 -138 -44c-78 0 -131 24 -155 64
c-26 -47 -74 -64 -146 -64z" />
    <glyph glyph-name="uniFEB7FE8E" unicode="&#xfeb7;&#xfe8e;" horiz-adv-x="1005" 
d="M236 0c-129 0 -186 55 -187 186l-5 475l102 27v-449c0 -74 26 -86 85 -86c73 0 99 15 118 74l29 88l12 7l77 -26l-20 -68l-12 -44c20 -20 51 -31 100 -31c86 0 111 24 112 76l2 53l86 2v-115c18 -10 43 -16 68 -16c19 0 38 4 51 14l-27 178l100 63l11 -7
c11 -85 18 -137 20 -177c2 -27 1 -50 -3 -69c-4 -29 -14 -55 -28 -77c-30 -48 -78 -78 -133 -78c-32 0 -67 7 -92 21c-11 6 -20 14 -27 23c-25 -25 -75 -44 -138 -44c-78 0 -131 24 -155 64c-26 -47 -74 -64 -146 -64zM646 514l-88 41v14l35 75l89 -42l-1 -13zM749 392
l-94 42v15l37 80l94 -44v-14zM603 384l-94 42v15l37 80l94 -44v-14z" />
    <glyph glyph-name="uniFEB8FE8E" unicode="&#xfeb8;&#xfe8e;" horiz-adv-x="1081" 
d="M236 0c-129 0 -186 55 -187 186l-5 475l102 27v-449c0 -74 26 -86 90 -86c68 0 94 15 113 74l29 88l12 7l77 -26l-21 -72c-4 -13 -7 -27 -11 -40c20 -20 51 -31 100 -31c86 0 111 24 112 76l2 53l86 2v-115c18 -10 43 -16 67 -16c20 0 39 4 52 14l-23 147l77 56l12 -7
c7 -39 12 -77 19 -116c10 -73 35 -94 103 -94h39c15 0 26 -34 26 -76c0 -43 -11 -77 -26 -77h-33c-74 0 -113 20 -136 59c-4 -6 -9 -12 -14 -17c-25 -26 -63 -42 -110 -42c-35 0 -72 9 -98 29c-5 4 -10 9 -15 15c-25 -25 -75 -44 -138 -44c-78 0 -131 24 -155 64
c-26 -47 -74 -64 -146 -64zM646 514l-88 41v14l35 75l89 -42l-1 -13zM749 392l-94 42v15l37 80l94 -44v-14zM603 384l-94 42v15l37 80l94 -44v-14z" />
    <glyph glyph-name="uniFEBBFE8E" unicode="&#xfebb;&#xfe8e;" horiz-adv-x="1060" 
d="M44 661l102 27v-449c0 -74 26 -86 90 -86c68 0 97 25 117 83l25 79l12 7l77 -26l-31 -108c3 -10 23 -29 62 -34l3 29l124 143c58 68 110 108 191 108c140 0 200 -122 200 -214c0 -133 -92 -220 -326 -220h-174c-66 0 -110 24 -134 64c-26 -47 -74 -64 -150 -64
c-125 0 -182 55 -183 186zM586 150h49h86c111 0 159 15 193 41c-2 66 -43 117 -113 117c-41 0 -59 -6 -77 -12z" />
    <glyph glyph-name="uniFEBCFE8E" unicode="&#xfebc;&#xfe8e;" horiz-adv-x="1106" 
d="M232 0c-125 0 -182 55 -183 186l-5 475l102 27v-449c0 -74 26 -86 90 -86c68 0 97 25 117 83l25 79l12 7l77 -26l-31 -108c3 -10 23 -29 62 -34l3 29l124 143c58 68 110 108 191 108c140 0 200 -122 200 -214c0 -23 -4 -44 -13 -62c17 -4 35 -5 61 -5h42
c14 0 26 -34 26 -76c0 -43 -12 -77 -26 -77h-53c-58 0 -99 17 -131 48c-51 -31 -128 -48 -232 -48h-174c-66 0 -110 24 -134 64c-26 -47 -74 -64 -150 -64zM636 150h85c111 0 159 15 193 41c-2 66 -43 117 -113 117c-41 0 -59 -6 -77 -12l-138 -146h50z" />
    <glyph glyph-name="uniFEBFFE8E" unicode="&#xfebf;&#xfe8e;" horiz-adv-x="1060" 
d="M44 661l102 27v-449c0 -74 26 -86 90 -86c68 0 97 25 117 83l25 79l12 7l77 -26l-31 -108c3 -10 23 -29 62 -34l3 29l124 143c58 68 110 108 191 108c140 0 200 -122 200 -214c0 -133 -92 -220 -326 -220h-174c-66 0 -110 24 -134 64c-26 -47 -74 -64 -150 -64
c-125 0 -182 55 -183 186zM791 494l-103 47v16l41 88l103 -49v-15zM586 150h49h86c111 0 159 15 193 41c-2 66 -43 117 -113 117c-41 0 -59 -6 -77 -12z" />
    <glyph glyph-name="uniFEC0FE8E" unicode="&#xfec0;&#xfe8e;" horiz-adv-x="1106" 
d="M232 0c-125 0 -182 55 -183 186l-5 475l102 27v-449c0 -74 26 -86 90 -86c68 0 97 25 117 83l25 79l12 7l77 -26l-31 -108c3 -10 23 -29 62 -34l3 29l124 143c58 68 110 108 191 108c140 0 200 -122 200 -214c0 -23 -4 -44 -13 -62c17 -4 35 -5 61 -5h42
c14 0 26 -34 26 -76c0 -43 -12 -77 -26 -77h-53c-58 0 -99 17 -131 48c-51 -31 -128 -48 -232 -48h-174c-66 0 -110 24 -134 64c-26 -47 -74 -64 -150 -64zM791 494l-103 47v16l41 88l103 -49v-15zM636 150h85c111 0 159 15 193 41c-2 66 -43 117 -113 117
c-41 0 -59 -6 -77 -12l-138 -146h50z" />
    <glyph glyph-name="uniFEC3FE8E" unicode="&#xfec3;&#xfe8e;" horiz-adv-x="801" 
d="M227 0c-124 0 -177 62 -178 186l-5 475l102 27v-449c0 -64 19 -81 70 -84l72 82l-3 424l102 27v-251c0 -49 -1 -65 -17 -108c10 10 19 20 29 29c46 48 92 76 158 76c139 0 200 -122 200 -214c0 -133 -92 -220 -327 -220h-203zM327 150h135c111 0 159 15 192 41
c-1 66 -42 117 -112 117c-41 0 -59 -6 -77 -12z" />
    <glyph glyph-name="uniFEC4FE8E" unicode="&#xfec4;&#xfe8e;" horiz-adv-x="847" 
d="M227 0c-124 0 -177 62 -178 186l-5 475l102 27v-449c0 -64 19 -81 70 -84l73 83l-4 423l102 27v-251c0 -49 -1 -65 -17 -108c9 9 18 19 27 27c47 49 93 78 160 78c139 0 200 -122 200 -214c0 -23 -4 -44 -13 -62c16 -4 35 -5 61 -5h42c14 0 26 -34 26 -76
c0 -43 -12 -77 -26 -77h-53c-58 0 -100 17 -131 48c-52 -31 -128 -48 -233 -48h-203zM327 150h135c111 0 159 15 192 41c-1 66 -42 117 -112 117c-41 0 -59 -6 -77 -12z" />
    <glyph glyph-name="uniFEC7FE8E" unicode="&#xfec7;&#xfe8e;" horiz-adv-x="801" 
d="M227 0c-124 0 -177 62 -178 186l-5 475l102 27v-449c0 -64 19 -81 70 -84l72 82l-3 424l102 27v-251c0 -49 -1 -65 -17 -108c10 10 19 20 29 29c46 48 92 76 158 76c139 0 200 -122 200 -214c0 -133 -92 -220 -327 -220h-203zM587 508l-103 46v16l41 88l103 -48v-16z
M327 150h135c111 0 159 15 192 41c-1 66 -42 117 -112 117c-41 0 -59 -6 -77 -12z" />
    <glyph glyph-name="uniFEC8FE8E" unicode="&#xfec8;&#xfe8e;" horiz-adv-x="847" 
d="M227 0c-124 0 -177 62 -178 186l-5 475l102 27v-449c0 -64 19 -81 70 -84l73 83l-4 423l102 27v-251c0 -49 -1 -65 -17 -108c9 9 18 19 27 27c47 49 93 78 160 78c139 0 200 -122 200 -214c0 -23 -4 -44 -13 -62c16 -4 35 -5 61 -5h42c14 0 26 -34 26 -76
c0 -43 -12 -77 -26 -77h-53c-58 0 -100 17 -131 48c-52 -31 -128 -48 -233 -48h-203zM587 508l-103 46v16l41 88l103 -48v-16zM327 150h135c111 0 159 15 192 41c-1 66 -42 117 -112 117c-41 0 -59 -6 -77 -12z" />
    <glyph glyph-name="uniFECBFE8E" unicode="&#xfecb;&#xfe8e;" horiz-adv-x="650" 
d="M213 0c-124 0 -177 62 -178 186l-5 475l102 27v-449c0 -71 25 -86 82 -86c10 0 22 0 34 1c9 0 17 1 22 2c-19 18 -28 40 -28 67c0 30 11 69 25 106c35 95 105 117 177 117c46 0 71 -7 100 -15l6 -13l-13 -96c-19 2 -35 4 -50 5c-26 2 -46 4 -62 4c-31 0 -55 -4 -73 -10
c-6 -18 -10 -29 -15 -46c-2 -7 -3 -15 -3 -22c0 -39 31 -71 90 -71c15 0 41 5 66 12l127 35l10 -10l-2 -112l-71 -24c-62 -22 -140 -51 -220 -68c-39 -9 -80 -15 -121 -15z" />
    <glyph glyph-name="uniFECCFE8E" unicode="&#xfecc;&#xfe8e;" horiz-adv-x="790" 
d="M227 0c-124 0 -177 62 -178 186l-5 475l102 27v-449c0 -71 25 -86 82 -86c28 0 54 1 78 3c29 2 54 4 78 9c-7 8 -14 15 -20 23c-25 30 -51 61 -79 91l4 17l-69 -11l-10 9l25 110l115 22c54 10 124 20 164 20c115 0 187 -30 187 -124c0 -56 -50 -109 -107 -160
c29 -6 66 -9 121 -9h75c15 0 26 -34 26 -76c0 -43 -11 -77 -26 -77h-100c-99 0 -154 10 -208 55c-41 -31 -81 -44 -140 -49c-34 -4 -71 -6 -115 -6zM494 191c43 29 83 61 117 95c0 27 -40 33 -104 31c-42 -1 -77 -4 -119 -10c21 -23 41 -44 63 -70c16 -18 29 -33 43 -46z
" />
    <glyph glyph-name="uniFECFFE8E" unicode="&#xfecf;&#xfe8e;" horiz-adv-x="650" 
d="M213 0c-124 0 -177 62 -178 186l-5 475l102 27v-449c0 -71 25 -86 82 -86c10 0 22 0 34 1c9 0 17 1 22 2c-19 18 -28 40 -28 67c0 30 11 69 25 106c35 95 105 117 177 117c46 0 71 -7 100 -15l6 -13l-13 -96c-19 2 -35 4 -50 5c-26 2 -46 4 -62 4c-31 0 -55 -4 -73 -10
c-6 -18 -10 -29 -15 -46c-2 -7 -3 -15 -3 -22c0 -39 31 -71 90 -71c15 0 41 5 66 12l127 35l10 -10l-2 -112l-71 -24c-62 -22 -140 -51 -220 -68c-39 -9 -80 -15 -121 -15zM412 512l-103 47v16l41 88l103 -49v-15z" />
    <glyph glyph-name="uniFED0FE8E" unicode="&#xfed0;&#xfe8e;" horiz-adv-x="790" 
d="M227 0c-124 0 -177 62 -178 186l-5 475l102 27v-449c0 -71 25 -86 82 -86c28 0 54 1 78 3c29 2 54 4 78 9c-7 8 -14 15 -20 23c-25 30 -51 61 -79 91l4 17l-69 -11l-10 9l25 110l115 22c54 10 124 20 164 20c115 0 187 -30 187 -124c0 -56 -50 -109 -107 -160
c29 -6 66 -9 121 -9h75c15 0 26 -34 26 -76c0 -43 -11 -77 -26 -77h-100c-99 0 -154 10 -208 55c-41 -31 -81 -44 -140 -49c-34 -4 -71 -6 -115 -6zM481 521l-103 46v17l41 88l103 -49v-15zM494 191c43 29 83 61 117 95c0 27 -40 33 -104 31c-42 -1 -77 -4 -119 -10
c21 -23 41 -44 63 -70c16 -18 29 -33 43 -46z" />
    <glyph glyph-name="uniFED3FE8E" unicode="&#xfed3;&#xfe8e;" horiz-adv-x="614" 
d="M392 640l-102 47v16l40 88l103 -49v-15zM222 0c-120 2 -172 64 -173 186l-5 475l102 27v-449c0 -71 25 -86 82 -86c150 0 199 12 236 25c3 19 3 38 4 56c-51 -11 -90 -14 -139 -14c-67 0 -108 33 -113 95c-1 10 -1 21 0 32c16 158 75 238 169 238c71 0 107 -36 131 -74
c32 -46 50 -130 54 -212c3 -87 -18 -200 -58 -235c-61 -54 -188 -64 -290 -64zM356 338c37 0 74 2 107 7c-6 47 -19 95 -30 121c-19 6 -34 9 -56 9c-42 0 -64 -15 -73 -91c0 -5 -1 -10 -1 -15c0 -28 17 -31 53 -31z" />
    <glyph glyph-name="uniFED4FE8E" unicode="&#xfed4;&#xfe8e;" horiz-adv-x="673" 
d="M227 0c-124 0 -177 62 -178 186l-5 475l102 27v-449c0 -71 25 -86 82 -86c17 0 36 1 53 3c-13 29 -17 64 -6 104c19 73 50 187 137 187c133 0 196 -80 196 -166c0 -47 -16 -92 -33 -127c13 0 25 -1 38 -1h60c14 0 26 -34 26 -76s-12 -76 -26 -77h-86
c-64 0 -130 11 -184 33c-57 -24 -122 -33 -176 -33zM454 506l-103 47v16l41 88l103 -49v-15zM447 162c51 36 77 65 77 94c0 40 -24 62 -94 73c-13 2 -29 4 -46 5c-10 -31 -20 -58 -24 -78c-12 -52 27 -80 87 -94z" />
    <glyph glyph-name="uniFED3FEE0FEE0FEEA" unicode="&#xfed3;&#xfee0;&#xfee0;&#xfeea;" horiz-adv-x="1439" 
d="M603 756l-5 162l66 12v-103c0 -26 -4 -58 -7 -69zM1227 649l-103 46v16l41 88l103 -48v-16zM568 563c-50 0 -91 22 -91 78c0 29 13 62 27 99l44 -21c-6 -22 -14 -53 -14 -63c0 -13 15 -18 33 -18c19 0 37 7 37 18l1 47l54 1v-38v-20c5 -5 24 -8 40 -8c10 0 20 2 24 4
l-19 88l58 38c13 -58 21 -97 21 -125c0 -48 -36 -80 -91 -80c-24 0 -46 7 -65 22c-15 -15 -35 -22 -59 -22zM476 0c-71 0 -121 27 -148 96l-27 -59c-28 -4 -58 -5 -86 -5c-108 0 -171 39 -171 127c0 80 43 158 170 219l88 41v68l102 28v-289c0 -48 21 -73 71 -73
s86 13 110 27l-8 287l102 26l3 -232c2 -84 34 -108 93 -108c48 0 69 6 95 20l-5 434l102 26v-394c0 -71 25 -86 103 -86c97 0 167 5 219 25c2 19 3 38 4 56c-51 -11 -90 -14 -139 -14c-70 0 -112 36 -114 104c0 8 0 15 1 23c16 158 74 238 168 238c77 0 116 -41 140 -86
c26 -46 42 -125 45 -200c4 -87 -17 -200 -58 -235c-55 -50 -174 -63 -252 -64c-96 0 -136 14 -165 53c-33 -36 -84 -53 -144 -53c-74 0 -121 36 -136 78c-29 -50 -83 -78 -163 -78zM1181 338c37 0 73 2 106 7c-6 47 -18 95 -29 121c-20 6 -34 9 -57 9c-42 0 -64 -15 -73 -92
c-1 -9 0 -17 1 -24c4 -18 21 -21 52 -21zM247 167c19 0 36 -1 55 0v139l-54 -23c-40 -18 -71 -31 -111 -49c-2 -10 -2 -18 -2 -25c3 -35 33 -42 112 -42z" />
    <glyph glyph-name="uniFED7FE8E" unicode="&#xfed7;&#xfe8e;" horiz-adv-x="614" 
d="M456 651l-94 42v15l37 80l94 -44v-14zM313 643l-94 42v15l37 80l94 -44v-14zM222 0c-120 2 -172 64 -173 186l-5 475l102 27v-449c0 -71 25 -86 82 -86c150 0 199 12 236 25c3 19 3 38 4 56c-51 -11 -90 -14 -139 -14c-67 0 -108 33 -113 95c-1 10 -1 21 0 32
c16 158 75 238 169 238c71 0 107 -36 131 -74c32 -46 50 -130 54 -212c3 -87 -18 -200 -58 -235c-61 -54 -188 -64 -290 -64zM356 338c37 0 74 2 107 7c-6 47 -19 95 -30 121c-19 6 -34 9 -56 9c-42 0 -64 -15 -73 -91c0 -5 -1 -10 -1 -15c0 -28 17 -31 53 -31z" />
    <glyph glyph-name="uniFED8FE8E" unicode="&#xfed8;&#xfe8e;" horiz-adv-x="673" 
d="M227 0c-124 0 -177 62 -178 186l-5 475l102 27v-449c0 -71 25 -86 82 -86c17 0 36 1 53 3c-13 29 -17 64 -6 104c19 73 50 187 137 187c133 0 196 -80 196 -166c0 -47 -16 -92 -33 -127c13 0 25 -1 38 -1h60c14 0 26 -34 26 -76s-12 -76 -26 -77h-86
c-64 0 -130 11 -184 33c-57 -24 -122 -33 -176 -33zM511 516l-94 42v15l37 81l94 -45v-14zM368 508l-94 42v15l37 81l94 -45v-14zM447 162c51 36 77 65 77 94c0 40 -24 62 -94 73c-13 2 -29 4 -46 5c-10 -31 -20 -58 -24 -78c-12 -52 27 -80 87 -94z" />
    <glyph glyph-name="uniFB90FE8E" unicode="&#xfb90;&#xfe8e;" horiz-adv-x="650" 
d="M234 0c-131 0 -184 62 -185 186l-5 475l102 27v-449c0 -71 25 -86 89 -86c63 0 143 9 186 30c-13 29 -33 57 -83 108l-153 158l20 133l402 111l-4 -117l-297 -85l164 -173c37 -41 60 -84 61 -135c0 -57 -22 -96 -56 -124c-62 -49 -166 -59 -241 -59z" />
    <glyph glyph-name="uniFB91FE8E" unicode="&#xfb91;&#xfe8e;" horiz-adv-x="733" 
d="M234 0c-131 0 -184 62 -185 186l-5 475l102 27v-449c0 -71 25 -86 89 -86c63 0 129 9 172 30c-12 28 -34 53 -81 105l-141 161l20 133l402 111l-4 -117l-297 -85l155 -179c112 -128 153 -157 240 -159h33c14 0 25 -34 25 -76c0 -43 -11 -77 -25 -77h-30
c-95 3 -154 30 -208 104c-9 -20 -24 -36 -41 -50c-62 -47 -165 -54 -221 -54z" />
    <glyph glyph-name="uniFB94FE8E" unicode="&#xfb94;&#xfe8e;" horiz-adv-x="650" 
d="M211 626l14 83l259 72l-4 -80zM234 0c-131 0 -184 62 -185 186l-5 475l102 27v-449c0 -71 25 -86 89 -86c63 0 143 9 186 30c-13 29 -33 57 -83 108l-153 158l20 133l402 111l-4 -117l-297 -85l164 -173c37 -41 60 -84 61 -135c0 -57 -22 -96 -56 -124
c-62 -49 -166 -59 -241 -59z" />
    <glyph glyph-name="uniFB95FE8E" unicode="&#xfb95;&#xfe8e;" horiz-adv-x="733" 
d="M211 626l14 83l259 72l-4 -80zM234 0c-131 0 -184 62 -185 186l-5 475l102 27v-449c0 -71 25 -86 89 -86c63 0 129 9 172 30c-12 28 -34 53 -81 105l-141 161l20 133l402 111l-4 -117l-297 -85l155 -179c112 -128 153 -157 240 -159h33c14 0 25 -34 25 -76
c0 -43 -11 -77 -25 -77h-30c-95 3 -154 30 -208 104c-9 -20 -24 -36 -41 -50c-62 -47 -165 -54 -221 -54z" />
    <glyph glyph-name="uniFEDFFEE0FEEA" unicode="&#xfedf;&#xfee0;&#xfeea;" horiz-adv-x="1009" 
d="M608 756l-6 162l67 12v-103c0 -26 -4 -58 -7 -69zM572 563c-49 0 -91 22 -91 78c0 29 13 62 27 99l44 -21c-5 -22 -14 -53 -14 -63c0 -13 16 -18 33 -18c19 0 37 7 37 18l1 47l54 1v-32v-26c5 -4 22 -8 38 -8c11 0 21 1 27 4l-20 88l58 38c13 -58 22 -97 22 -125
c0 -48 -37 -80 -92 -80c-24 0 -46 7 -65 22c-15 -15 -34 -22 -59 -22zM476 0c-69 0 -121 27 -148 89l-27 -52c-28 -4 -58 -5 -86 -5c-108 0 -171 39 -171 127c0 80 55 157 177 217l81 40v71l102 30v-291c0 -49 22 -73 72 -73s86 13 109 27l-8 287l102 26l3 -232
c2 -84 34 -108 93 -108c48 0 69 6 95 21c1 72 -8 204 -24 390l99 32c15 -181 20 -302 20 -389c0 -82 -17 -125 -47 -155c-33 -36 -83 -52 -143 -52c-74 0 -121 36 -136 78c-29 -50 -83 -78 -163 -78zM247 167h55v132l-29 -12c-60 -24 -95 -38 -136 -62c-2 -9 -2 -17 -2 -24
c5 -30 35 -34 112 -34z" />
    <glyph glyph-name="uniFC43" unicode="&#xfedf;&#xfef0;" horiz-adv-x="639" arabic-form="isolated" 
d="M45 -4c5 66 23 147 41 218l72 -5l7 -11c-9 -45 -22 -107 -29 -155c-12 -95 43 -113 146 -113c80 0 150 22 192 39l-171 68l-4 11l39 101c52 3 96 13 136 31l-4 481l101 27v-498c0 -73 -33 -112 -91 -139c24 -10 52 -20 68 -29c35 -19 47 -40 47 -63
c0 -29 -17 -74 -40 -94c-44 -39 -147 -81 -290 -81c-152 0 -232 67 -220 212z" />
    <glyph glyph-name="uniFC86" unicode="&#xfee0;&#xfef0;" horiz-adv-x="735" arabic-form="final" 
d="M265 -216c-152 0 -232 67 -220 212c5 66 23 147 41 218l72 -5l7 -11c-9 -45 -22 -107 -29 -155c-12 -95 43 -113 146 -113c80 0 149 22 191 39l-170 68l-4 11l39 101c52 3 96 13 136 31l-4 481l101 27v-379c0 -136 65 -156 132 -156h32c15 0 26 -34 26 -76
c0 -43 -11 -77 -26 -77c-9 0 -18 0 -27 1c-61 2 -127 30 -163 98c-16 -21 -39 -36 -65 -49c24 -9 52 -19 68 -28c35 -19 47 -40 47 -64c0 -28 -17 -73 -40 -93c-44 -39 -147 -81 -290 -81z" />
    <glyph glyph-name="uniFEE3FE8E" unicode="&#xfee3;&#xfe8e;" horiz-adv-x="713" 
d="M44 661l102 27v-449c0 -71 25 -86 74 -86c61 0 87 29 107 64l54 96c27 50 64 77 120 77c121 0 179 -123 167 -298l-63 -102c-97 0 -204 18 -270 74c-26 -37 -57 -63 -123 -64c-109 -1 -162 62 -163 186zM402 173c28 -25 102 -47 175 -50c1 80 -27 144 -82 144
c-11 0 -26 -3 -44 -7z" />
    <glyph glyph-name="uniFC88" unicode="&#xfee4;&#xfe8e;" horiz-adv-x="770" arabic-form="final" 
d="M605 -10c-97 0 -204 18 -270 74c-26 -37 -57 -63 -123 -64c-109 -1 -162 62 -163 186l-5 475l102 27v-449c0 -71 25 -86 74 -86c61 0 88 30 107 64l54 96c27 50 64 77 120 77c57 0 96 -22 130 -47c10 -37 19 -77 26 -104c17 -65 43 -86 113 -86c15 0 26 -34 26 -76
c0 -43 -11 -77 -26 -77h-15c-36 0 -84 15 -113 54l-5 -8zM577 122c-5 46 -13 87 -24 131c-15 9 -34 14 -58 14c-45 0 -62 -40 -93 -94c29 -25 103 -48 175 -51z" />
    <glyph glyph-name="uniFEE7FE8E" unicode="&#xfee7;&#xfe8e;" horiz-adv-x="534" 
d="M248 0c-145 0 -198 62 -199 186l-5 475l102 27v-449c0 -71 25 -86 103 -86c51 0 95 8 132 30l-25 162l100 63l11 -7c14 -103 23 -164 23 -205c0 -57 -12 -104 -46 -134c-43 -41 -109 -62 -196 -62zM385 458l-103 47v16l41 88l103 -49v-15z" />
    <glyph glyph-name="uniFEE8FE8E" unicode="&#xfee8;&#xfe8e;" horiz-adv-x="583" 
d="M249 0c-143 0 -199 58 -200 186l-5 475l102 27v-449c0 -71 25 -86 103 -86c88 0 121 7 131 56l20 105l11 8l79 -21l-13 -85c-5 -35 18 -63 68 -63h38c14 0 26 -34 26 -76c0 -43 -12 -77 -26 -77h-45c-62 0 -103 27 -122 69c-40 -58 -94 -69 -167 -69zM355 406l-103 46v16
l40 88l103 -49v-15z" />
    <glyph glyph-name="uniFEEBFE8E" unicode="&#xfeeb;&#xfe8e;" horiz-adv-x="830" 
d="M216 0c-113 0 -166 62 -167 186l-5 475l102 27v-449c0 -71 25 -86 82 -86c13 0 34 1 55 3c-10 15 -16 31 -17 50c-3 19 0 40 8 67c13 43 24 75 39 98l-41 13l26 115l15 8l248 -80c170 -54 222 -124 225 -255c0 -25 -2 -53 -4 -84l-61 -90l-196 23c-36 4 -77 9 -113 22
c-61 -29 -138 -43 -196 -43zM436 172c43 27 71 61 71 89c0 30 -21 53 -57 66c-19 7 -40 11 -65 13c-9 -14 -21 -45 -30 -79c-4 -15 -3 -28 1 -39c11 -26 43 -41 80 -50zM695 135c1 18 0 36 -1 51c-7 42 -26 75 -87 95l-29 10v-29c-1 -42 -15 -76 -35 -107c10 -1 21 -3 32 -4
z" />
    <glyph glyph-name="uniFEECFE8E" unicode="&#xfeec;&#xfe8e;" horiz-adv-x="752" 
d="M397 -236c-80 83 -122 165 -126 237c-14 0 -29 -1 -43 -1c-122 0 -178 58 -179 186l-5 475l102 27v-449c0 -71 25 -86 82 -86c17 0 34 1 51 1c19 93 37 166 66 264l96 66l73 -80c76 -82 84 -125 84 -172c0 -32 -6 -68 -28 -101c-38 -57 -96 -99 -201 -118
c10 -52 43 -96 84 -137l74 124c57 95 100 153 194 153h31c15 0 26 -34 26 -76c0 -43 -11 -77 -26 -77h-37c-72 0 -92 -31 -138 -111l-73 -125h-107zM367 153c88 5 129 40 144 65c0 22 -38 70 -90 128c-25 -76 -39 -122 -54 -193z" />
    <glyph glyph-name="uniFBE8FE8E" unicode="&#xfbe8;&#xfe8e;" horiz-adv-x="534" 
d="M248 0c-145 0 -198 62 -199 186l-5 475l102 27v-449c0 -71 25 -86 103 -86c51 0 95 8 132 30l-25 162l100 63l11 -7c14 -103 23 -164 23 -205c0 -57 -12 -104 -46 -134c-43 -41 -109 -62 -196 -62z" />
    <glyph glyph-name="uniFBE9FE8E" unicode="&#xfbe9;&#xfe8e;" horiz-adv-x="583" 
d="M249 0c-143 0 -199 58 -200 186l-5 475l102 27v-449c0 -71 25 -86 103 -86c88 0 121 7 131 56l20 105l11 8l79 -21l-13 -85c-5 -35 18 -63 68 -63h38c14 0 26 -34 26 -76c0 -43 -12 -77 -26 -77h-45c-62 0 -103 27 -122 69c-40 -58 -94 -69 -167 -69z" />
    <glyph glyph-name="uniFEF3FE8E" unicode="&#xfef3;&#xfe8e;" horiz-adv-x="534" 
d="M248 0c-145 0 -198 62 -199 186l-5 475l102 27v-449c0 -71 25 -86 103 -86c51 0 95 8 132 30l-25 162l100 63l11 -7c14 -103 23 -164 23 -205c0 -57 -12 -104 -46 -134c-43 -41 -109 -62 -196 -62zM367 -223l-94 43v15l37 80l95 -44v-14zM224 -231l-94 43v15l37 80
l95 -44v-14z" />
    <glyph glyph-name="uniFEF4FE8E" unicode="&#xfef4;&#xfe8e;" horiz-adv-x="583" 
d="M249 0c-143 0 -199 58 -200 186l-5 475l102 27v-449c0 -71 25 -86 103 -86c88 0 121 7 131 56l20 105l11 8l79 -21l-13 -85c-5 -35 18 -63 68 -63h38c14 0 26 -34 26 -76c0 -43 -12 -77 -26 -77h-45c-62 0 -103 27 -122 69c-40 -58 -94 -69 -167 -69zM404 -223l-94 43v15
l37 80l94 -44v-14zM261 -231l-94 43v15l37 80l94 -44v-14z" />
    <glyph glyph-name="uniFBEA" unicode="&#xfe8b;&#xfe8e;" horiz-adv-x="534" arabic-form="isolated" 
d="M248 0c-145 0 -198 62 -199 186l-5 475l102 27v-449c0 -71 25 -86 103 -86c51 0 95 8 132 30l-25 162l100 63l11 -7c14 -103 23 -164 23 -205c0 -57 -12 -104 -46 -134c-43 -41 -109 -62 -196 -62zM201 391l15 73l35 15c-19 15 -30 42 -30 68c0 58 44 103 103 109
c11 0 22 -1 33 -3c10 -1 21 -4 32 -6v-68l-25 3c-13 2 -25 3 -34 3c-24 0 -40 -3 -52 -7c-1 -7 -1 -13 -1 -19c1 -26 19 -42 43 -42c9 0 20 1 31 4l83 22l4 -4l-15 -73l-23 -9c-68 -23 -134 -48 -194 -70z" />
    <glyph glyph-name="uniFBEB" unicode="&#xfe8c;&#xfe8e;" horiz-adv-x="583" arabic-form="final" 
d="M249 0c-143 0 -199 58 -200 186l-5 475l102 27v-449c0 -71 25 -86 103 -86c88 0 121 7 131 56l20 105l11 8l79 -21l-13 -85c-5 -35 18 -63 68 -63h38c14 0 26 -34 26 -76c0 -43 -12 -77 -26 -77h-45c-62 0 -103 27 -122 69c-40 -58 -94 -69 -167 -69zM216 331l15 73
l36 15c-20 15 -31 42 -31 69c0 58 44 103 104 108c10 1 21 -1 32 -3c11 -1 21 -4 32 -6v-68c-8 2 -16 3 -24 4c-14 1 -26 2 -35 2c-24 0 -40 -3 -52 -7c-1 -7 -1 -13 -1 -18c1 -27 19 -43 43 -43c9 0 20 1 31 4l83 23l4 -4l-15 -74l-23 -8c-67 -24 -134 -49 -194 -71z" />
    <glyph glyph-name="uniFBFEFE8E" unicode="&#xfbfe;&#xfe8e;" horiz-adv-x="534" 
d="M248 0c-145 0 -198 62 -199 186l-5 475l102 27v-449c0 -71 25 -86 103 -86c51 0 95 8 132 30l-25 162l100 63l11 -7c14 -103 23 -164 23 -205c0 -57 -12 -104 -46 -134c-43 -41 -109 -62 -196 -62zM367 -223l-94 43v15l37 80l95 -44v-14zM224 -231l-94 43v15l37 80
l95 -44v-14z" />
    <glyph glyph-name="uniFBFFFE8E" unicode="&#xfbff;&#xfe8e;" horiz-adv-x="583" 
d="M249 0c-143 0 -199 58 -200 186l-5 475l102 27v-449c0 -71 25 -86 103 -86c88 0 121 7 131 56l20 105l11 8l79 -21l-13 -85c-5 -35 18 -63 68 -63h38c14 0 26 -34 26 -76c0 -43 -12 -77 -26 -77h-45c-62 0 -103 27 -122 69c-40 -58 -94 -69 -167 -69zM378 -223l-94 43v15
l37 80l94 -44v-14zM235 -231l-94 43v15l37 80l94 -44v-14z" />
    <glyph glyph-name="uniFDF2" unicode="&#x627;&#xfedf;&#xfee0;&#xfeea;" horiz-adv-x="1201" arabic-form="isolated" 
d="M608 756l-6 162l67 12v-103c0 -26 -4 -58 -7 -69zM572 563c-49 0 -91 22 -91 78c0 29 13 62 27 99l44 -21c-5 -22 -14 -53 -14 -63c0 -13 16 -18 33 -18c19 0 37 7 37 18l1 47l54 1v-32v-26c5 -4 22 -8 38 -8c11 0 21 1 27 4l-20 88l58 38c13 -58 22 -97 22 -125
c0 -48 -37 -80 -92 -80c-24 0 -46 7 -65 22c-15 -15 -34 -22 -59 -22zM1059 -10l-6 8c7 80 8 130 7 185l-5 478l102 27v-491c0 -89 -5 -116 -27 -187zM476 0c-69 0 -121 27 -148 89l-27 -52c-28 -4 -58 -5 -86 -5c-108 0 -171 39 -171 127c0 80 55 157 177 217l81 40v71
l102 30v-291c0 -49 22 -73 72 -73s86 13 109 27l-8 287l102 26l3 -232c2 -84 34 -108 93 -108c48 0 69 6 95 21c1 72 -8 204 -24 390l99 32c15 -181 20 -302 20 -389c0 -82 -17 -125 -47 -155c-33 -36 -83 -52 -143 -52c-74 0 -121 36 -136 78c-29 -50 -83 -78 -163 -78z
M247 167h55v132l-29 -12c-60 -24 -95 -38 -136 -62c-2 -9 -2 -17 -2 -24c5 -30 35 -34 112 -34z" />
    <glyph glyph-name="uniFE8E" unicode="&#x627;" horiz-adv-x="263" arabic-form="final" 
d="M230 0c-131 0 -180 66 -181 186l-5 475l102 27v-449c0 -66 22 -86 85 -86h32c14 0 26 -34 26 -76c0 -43 -12 -77 -26 -77h-33z" />
    <glyph glyph-name="uniFE84" unicode="&#x623;" horiz-adv-x="262" arabic-form="final" 
d="M-23 624l15 73l35 15c-19 15 -31 42 -31 68c0 58 45 103 104 109c11 0 21 -1 33 -3c10 -1 21 -4 31 -6l1 -68c-8 2 -17 3 -25 4c-13 1 -25 2 -35 2c-24 0 -40 -3 -51 -7c-1 -7 -1 -13 -1 -18c1 -27 18 -43 42 -43c10 0 21 1 31 4l83 22l4 -3l-14 -74l-24 -9
c-67 -23 -133 -48 -194 -70zM229 0c-131 0 -180 66 -181 186l-4 390l101 26v-363c0 -66 22 -86 85 -86h32c14 0 26 -34 26 -76c0 -43 -12 -77 -26 -77h-33z" />
    <glyph glyph-name="uniFE88" unicode="&#x625;" horiz-adv-x="263" arabic-form="final" 
d="M230 0c-131 0 -180 66 -181 186l-5 475l102 27v-449c0 -66 22 -86 85 -86h32c14 0 26 -34 26 -76c0 -43 -12 -77 -26 -77h-33zM20 -322l15 74l35 14c-19 16 -30 42 -30 69c0 58 44 103 103 108c11 1 22 0 33 -3c10 -1 21 -3 32 -5v-68l-25 3c-13 2 -25 3 -35 3
c-24 0 -39 -3 -51 -7c-1 -8 -1 -14 -1 -19c1 -27 18 -42 43 -42c9 0 20 1 30 4l83 22l4 -4l-14 -74l-24 -8c-67 -24 -133 -48 -194 -71z" />
    <glyph glyph-name="uniFE82" unicode="&#x622;" horiz-adv-x="262" arabic-form="final" 
d="M-29 629l-51 34l11 32c13 37 35 71 76 71c53 0 89 -37 256 -1l5 -9l-29 -77c-124 -31 -187 -9 -237 3l-22 -50zM229 0c-131 0 -180 66 -181 186l-4 390l101 26v-363c0 -66 22 -86 85 -86h32c14 0 26 -34 26 -76c0 -43 -12 -77 -26 -77h-33z" />
    <glyph glyph-name="uniFB51" unicode="&#x671;" horiz-adv-x="262" arabic-form="final" 
d="M-47 612l-7 2l-25 54l123 146c35 43 65 58 109 58c76 0 115 -78 115 -132c0 -72 -49 -99 -161 -99c-53 0 -86 9 -110 21zM112 715c53 0 82 4 102 10c-1 9 -2 18 -5 26c-11 26 -31 49 -63 49c-18 0 -33 -3 -44 -6l-60 -71c15 -5 41 -8 70 -8zM229 0
c-131 0 -180 66 -181 186l-4 390l101 26v-363c0 -66 22 -86 85 -86h32c14 0 26 -34 26 -76c0 -43 -12 -77 -26 -77h-33z" />
    <glyph glyph-name="uni066E.init" unicode="&#x66e;" horiz-adv-x="335" 
d="M0 0c-15 0 -26 34 -26 77c0 42 12 76 26 76c71 0 139 9 183 30l-26 162l100 63l11 -7c14 -103 24 -164 24 -205c0 -67 -21 -115 -63 -145c-59 -42 -144 -51 -229 -51z" />
    <glyph glyph-name="uni066E.medi" unicode="&#x66e;" horiz-adv-x="372" 
d="M0 0c-15 0 -26 34 -26 77c0 42 11 76 26 76h59c69 0 101 10 110 56l20 105l11 8l80 -21l-14 -85c-5 -35 18 -63 68 -63h38c15 0 26 -34 26 -76c0 -43 -11 -77 -26 -77h-45c-62 0 -102 27 -122 69c-36 -54 -86 -68 -149 -69h-56z" />
    <glyph glyph-name="uni066E.fina" unicode="&#x66e;" horiz-adv-x="821" 
d="M298 -10c-208 0 -258 73 -254 176c1 28 5 65 13 111c4 23 7 46 11 71l75 11l9 -9l-16 -114c-7 -55 12 -93 183 -93c232 0 295 9 306 66l20 105l11 8l79 -21l-13 -85c-5 -35 18 -63 68 -63h31c15 0 27 -34 27 -76c0 -43 -12 -77 -27 -77h-38c-62 0 -103 27 -123 70
c-50 -75 -181 -80 -362 -80z" />
    <glyph glyph-name="uniFE90" unicode="&#x628;" horiz-adv-x="821" arabic-form="final" 
d="M298 -10c-208 0 -258 73 -254 176c1 28 5 65 13 111c4 23 7 46 11 71l75 11l9 -9l-16 -114c-7 -55 12 -93 183 -93c232 0 295 9 306 66l20 105l11 8l79 -21l-13 -85c-5 -35 18 -63 68 -63h31c15 0 27 -34 27 -76c0 -43 -12 -77 -27 -77h-38c-62 0 -103 27 -123 70
c-50 -75 -181 -80 -362 -80zM388 -236l-102 47v16l40 88l103 -49v-15z" />
    <glyph glyph-name="uniFE92" unicode="&#x628;" horiz-adv-x="372" arabic-form="medial" 
d="M0 0c-15 0 -26 34 -26 77c0 42 11 76 26 76h59c69 0 101 10 110 56l20 105l11 8l80 -21l-14 -85c-5 -35 18 -63 68 -63h38c15 0 26 -34 26 -76c0 -43 -11 -77 -26 -77h-45c-62 0 -102 27 -122 69c-36 -54 -86 -68 -149 -69h-56zM133 -236l-103 47v16l40 88l103 -49v-15z
" />
    <glyph glyph-name="uniFE91" unicode="&#x628;" horiz-adv-x="335" arabic-form="initial" 
d="M0 0c-15 0 -26 34 -26 77c0 42 12 76 26 76c71 0 139 9 183 30l-26 162l100 63l11 -7c14 -103 24 -164 24 -205c0 -67 -21 -115 -63 -145c-59 -42 -144 -51 -229 -51zM113 -234l-103 47v16l41 88l103 -49v-15z" />
    <glyph glyph-name="uniFB57" unicode="&#x67e;" horiz-adv-x="821" arabic-form="final" 
d="M298 -10c-208 0 -258 73 -254 176c1 28 5 65 13 111c4 23 7 46 11 71l75 11l9 -9l-16 -114c-7 -55 12 -93 183 -93c232 0 295 9 306 66l20 105l11 8l79 -21l-13 -85c-5 -35 18 -63 68 -63h31c15 0 27 -34 27 -76c0 -43 -12 -77 -27 -77h-38c-62 0 -103 27 -123 70
c-50 -75 -181 -80 -362 -80zM484 -225l-94 43v15l37 80l94 -45v-14zM334 -233l-94 43v15l37 80l94 -45v-14zM434 -346l-90 42v14l36 77l90 -44v-13z" />
    <glyph glyph-name="uniFB59" unicode="&#x67e;" horiz-adv-x="372" arabic-form="medial" 
d="M0 0c-15 0 -26 34 -26 77c0 42 11 76 26 76h59c69 0 101 10 110 56l20 105l11 8l80 -21l-14 -85c-5 -35 18 -63 68 -63h38c15 0 26 -34 26 -76c0 -43 -11 -77 -26 -77h-45c-62 0 -102 27 -122 69c-36 -54 -86 -68 -149 -69h-56zM274 -218l-94 43v15l37 80l94 -45v-13z
M124 -226l-94 43v15l37 80l94 -45v-13zM224 -339l-90 42v14l36 77l90 -44v-13z" />
    <glyph glyph-name="uniFB58" unicode="&#x67e;" horiz-adv-x="335" arabic-form="initial" 
d="M0 0c-15 0 -26 34 -26 77c0 42 12 76 26 76c71 0 139 9 183 30l-26 162l100 63l11 -7c14 -103 24 -164 24 -205c0 -67 -21 -115 -63 -145c-59 -42 -144 -51 -229 -51zM254 -216l-94 42v15l37 80l94 -44v-14zM104 -224l-94 42v15l37 80l94 -44v-14zM204 -337l-90 41v14
l36 77l90 -43v-14z" />
    <glyph glyph-name="uniFB5A" unicode="&#x680;" horiz-adv-x="799" arabic-form="isolated" 
d="M298 -10c-208 0 -258 73 -254 176c1 30 6 69 14 120c4 20 7 40 10 62l75 11l9 -9l-16 -114c-7 -55 12 -93 183 -93c185 0 282 21 327 40c-8 54 -17 108 -25 162l100 63l11 -7c14 -103 23 -164 23 -205c0 -57 -12 -107 -50 -135c-78 -58 -267 -71 -407 -71zM485 -215
l-94 42v15l37 81l94 -45v-14zM347 -223l-94 42v15l37 81l94 -45v-14zM485 -342l-94 42v15l37 81l94 -45v-14zM347 -350l-94 42v15l37 81l94 -45v-14z" />
    <glyph glyph-name="uniFB5B" unicode="&#x680;" horiz-adv-x="821" arabic-form="final" 
d="M298 -10c-208 0 -258 73 -254 176c1 28 5 65 13 111c4 23 7 46 11 71l75 11l9 -9l-16 -114c-7 -55 12 -93 183 -93c232 0 295 9 306 66l20 105l11 8l79 -21l-13 -85c-5 -35 18 -63 68 -63h31c15 0 27 -34 27 -76c0 -43 -12 -77 -27 -77h-38c-62 0 -103 27 -123 70
c-50 -75 -181 -80 -362 -80zM485 -215l-94 42v15l37 81l94 -45v-14zM347 -223l-94 42v15l37 81l94 -45v-14zM485 -342l-94 42v15l37 81l94 -45v-14zM347 -350l-94 42v15l37 81l94 -45v-14z" />
    <glyph glyph-name="uniFB5D" unicode="&#x680;" horiz-adv-x="372" arabic-form="medial" 
d="M0 0c-15 0 -26 34 -26 77c0 42 11 76 26 76h59c69 0 101 10 110 56l20 105l11 8l80 -21l-14 -85c-5 -35 18 -63 68 -63h38c15 0 26 -34 26 -76c0 -43 -11 -77 -26 -77h-45c-62 0 -102 27 -122 69c-36 -54 -86 -68 -149 -69h-56zM299 -208l-94 43v15l37 80l94 -44v-14z
M162 -216l-94 43v15l37 80l94 -44v-14zM299 -335l-94 43v15l37 80l94 -44v-14zM162 -343l-94 43v15l37 80l94 -44v-14z" />
    <glyph glyph-name="uniFB5C" unicode="&#x680;" horiz-adv-x="335" arabic-form="initial" 
d="M0 0c-15 0 -26 34 -26 77c0 42 12 76 26 76c71 0 139 9 183 30l-26 162l100 63l11 -7c14 -103 24 -164 24 -205c0 -67 -21 -115 -63 -145c-59 -42 -144 -51 -229 -51zM231 -207l-94 42v15l38 80l94 -44v-14zM94 -215l-94 42v15l37 80l94 -44v-14zM231 -334l-94 42v15
l38 80l94 -44v-14zM94 -342l-94 42v15l37 80l94 -44v-14z" />
    <glyph glyph-name="uniFBE9" unicode="&#x649;" horiz-adv-x="372" arabic-form="medial" 
d="M0 0c-15 0 -26 34 -26 77c0 42 11 76 26 76h59c69 0 101 10 110 56l20 105l11 8l80 -21l-14 -85c-5 -35 18 -63 68 -63h38c15 0 26 -34 26 -76c0 -43 -11 -77 -26 -77h-45c-62 0 -102 27 -122 69c-36 -54 -86 -68 -149 -69h-56z" />
    <glyph glyph-name="uniFBE8" unicode="&#x649;" horiz-adv-x="335" arabic-form="initial" 
d="M0 0c-15 0 -26 34 -26 77c0 42 12 76 26 76c71 0 139 9 183 30l-26 162l100 63l11 -7c14 -103 24 -164 24 -205c0 -67 -21 -115 -63 -145c-59 -42 -144 -51 -229 -51z" />
    <glyph glyph-name="uniFE96" unicode="&#x62a;" horiz-adv-x="821" arabic-form="final" 
d="M478 363l-94 43v15l37 80l94 -44v-14zM335 355l-94 43v15l37 80l94 -44v-14zM298 -10c-208 0 -258 73 -254 176c1 28 5 65 13 111c4 23 7 46 11 71l75 11l9 -9l-16 -114c-7 -55 12 -93 183 -93c232 0 295 9 306 66l20 105l11 8l79 -21l-13 -85c-5 -35 18 -63 68 -63h31
c15 0 27 -34 27 -76c0 -43 -12 -77 -27 -77h-38c-62 0 -103 27 -123 70c-50 -75 -181 -80 -362 -80z" />
    <glyph glyph-name="uniFE98" unicode="&#x62a;" horiz-adv-x="372" arabic-form="medial" 
d="M274 414l-94 43v15l37 80l94 -44v-14zM131 406l-94 43v15l37 80l94 -44v-14zM0 0c-15 0 -26 34 -26 77c0 42 11 76 26 76h59c69 0 101 10 110 56l20 105l11 8l80 -21l-14 -85c-5 -35 18 -63 68 -63h38c15 0 26 -34 26 -76c0 -43 -11 -77 -26 -77h-45
c-62 0 -102 27 -122 69c-36 -54 -86 -68 -149 -69h-56z" />
    <glyph glyph-name="uniFE97" unicode="&#x62a;" horiz-adv-x="335" arabic-form="initial" 
d="M221 477l-94 43v15l37 80l94 -45v-14zM78 469l-94 43v15l37 80l94 -45v-14zM0 0c-15 0 -26 34 -26 77c0 42 12 76 26 76c71 0 139 9 183 30l-26 162l100 63l11 -7c14 -103 24 -164 24 -205c0 -67 -21 -115 -63 -145c-59 -42 -144 -51 -229 -51z" />
    <glyph glyph-name="uni067C.init" unicode="&#x67c;" horiz-adv-x="335" 
d="M258 556l-37 -79l-94 43v15l37 80l94 -45v-14zM115 548l-37 -79l-94 43v15l37 80l94 -45v-14zM268 401c14 -103 24 -164 24 -205c0 -67 -21 -115 -63 -145c-9 -7 -19 -12 -29 -17c12 -15 20 -33 20 -54c0 -45 -36 -81 -81 -81s-81 36 -81 81c0 8 1 15 3 22
c-20 -1 -41 -2 -61 -2c-15 0 -26 34 -26 77c0 42 12 76 26 76c71 0 139 9 183 30l-26 162l100 63zM139 -52c17 0 32 15 32 32s-15 31 -32 31s-32 -14 -32 -31s15 -32 32 -32z" />
    <glyph glyph-name="uni067C.medi" unicode="&#x67c;" horiz-adv-x="372" 
d="M311 494l-37 -80l-94 43v15l37 80l94 -44v-14zM168 486l-37 -80l-94 43v15l37 80l94 -44v-14zM372 153c15 0 26 -34 26 -76c0 -43 -11 -77 -26 -77h-45c-62 0 -102 27 -122 69c-12 -17 -25 -31 -39 -40c13 -15 21 -34 21 -55c0 -45 -36 -81 -81 -81s-81 36 -81 81
c0 9 1 18 4 26h-29c-15 0 -26 34 -26 77c0 42 11 76 26 76h59c69 0 101 10 110 56l20 105l11 8l80 -21l-14 -85c-5 -35 18 -63 68 -63h38zM137 -26c0 16 -13 30 -29 31c-5 -1 -9 -2 -14 -2c-11 -5 -20 -16 -20 -29c0 -17 15 -32 32 -32s31 15 31 32z" />
    <glyph glyph-name="uni067C.fina" unicode="&#x67c;" horiz-adv-x="821" 
d="M515 443l-37 -80l-94 43v15l37 80l94 -44v-14zM372 435l-37 -80l-94 43v15l37 80l94 -44v-14zM821 153c15 0 27 -34 27 -76c0 -43 -12 -77 -27 -77h-38c-62 0 -103 27 -123 70c-49 -74 -176 -80 -352 -80c4 -10 6 -21 6 -32c0 -45 -36 -81 -81 -81s-81 36 -81 81
c0 17 5 33 14 46c-98 26 -125 86 -122 162c1 28 5 65 13 111c4 23 7 46 11 71l75 11l9 -9l-16 -114c-7 -55 12 -93 183 -93c232 0 295 9 306 66l20 105l11 8l79 -21l-13 -85c-5 -35 18 -63 68 -63h31zM233 -73c17 0 32 14 32 31s-15 32 -32 32s-31 -15 -31 -32
s14 -31 31 -31z" />
    <glyph glyph-name="uni067D.init" unicode="&#x67d;" horiz-adv-x="335" 
d="M245 551l-94 42v15l38 81l94 -45v-14zM96 543l-95 42v15l38 81l94 -45v-14zM196 430l-91 41l1 15l36 76l90 -43v-14zM0 0c-15 0 -26 34 -26 77c0 42 12 76 26 76c71 0 139 9 183 30l-26 162l100 63l11 -7c14 -103 24 -164 24 -205c0 -67 -21 -115 -63 -145
c-59 -42 -144 -51 -229 -51z" />
    <glyph glyph-name="uni067D.medi" unicode="&#x67d;" horiz-adv-x="372" 
d="M296 487l-94 42v15l37 81l94 -45v-14zM146 479l-94 42v15l37 81l94 -45v-14zM246 366l-90 41v15l36 76l90 -43v-13zM0 0c-15 0 -26 34 -26 77c0 42 11 76 26 76h59c69 0 101 10 110 56l20 105l11 8l80 -21l-14 -85c-5 -35 18 -63 68 -63h38c15 0 26 -34 26 -76
c0 -43 -11 -77 -26 -77h-45c-62 0 -102 27 -122 69c-36 -54 -86 -68 -149 -69h-56z" />
    <glyph glyph-name="uni067D.fina" unicode="&#x67d;" horiz-adv-x="821" 
d="M473 390l-94 42v15l37 80l94 -44v-14zM323 382l-94 42v15l37 80l94 -44v-14zM423 269l-90 41v14l36 77l90 -43v-14zM298 -10c-208 0 -258 73 -254 176c1 28 5 65 13 111c4 23 7 46 11 71l75 11l9 -9l-16 -114c-7 -55 12 -93 183 -93c232 0 295 9 306 66l20 105l11 8
l79 -21l-13 -85c-5 -35 18 -63 68 -63h31c15 0 27 -34 27 -76c0 -43 -12 -77 -27 -77h-38c-62 0 -103 27 -123 70c-50 -75 -181 -80 -362 -80z" />
    <glyph glyph-name="uniFE9A" unicode="&#x62b;" horiz-adv-x="821" arabic-form="final" 
d="M402 487l-89 41l1 14l35 75l88 -42v-13zM505 365l-94 42v15l37 80l94 -44v-14zM359 357l-94 42v15l37 80l94 -44v-14zM298 -10c-208 0 -258 73 -254 176c1 28 5 65 13 111c4 23 7 46 11 71l75 11l9 -9l-16 -114c-7 -55 12 -93 183 -93c232 0 295 9 306 66l20 105l11 8
l79 -21l-13 -85c-5 -35 18 -63 68 -63h31c15 0 27 -34 27 -76c0 -43 -12 -77 -27 -77h-38c-62 0 -103 27 -123 70c-50 -75 -181 -80 -362 -80z" />
    <glyph glyph-name="uniFE9C" unicode="&#x62b;" horiz-adv-x="372" arabic-form="medial" 
d="M180 546l-88 40v14l35 76l89 -43v-13zM283 423l-94 42v15l38 81l94 -45v-14zM137 415l-94 42v15l38 81l94 -45v-14zM0 0c-15 0 -26 34 -26 77c0 42 11 76 26 76h59c69 0 101 10 110 56l20 105l11 8l80 -21l-14 -85c-5 -35 18 -63 68 -63h38c15 0 26 -34 26 -76
c0 -43 -11 -77 -26 -77h-45c-62 0 -102 27 -122 69c-36 -54 -86 -68 -149 -69h-56z" />
    <glyph glyph-name="uniFE9B" unicode="&#x62b;" horiz-adv-x="335" arabic-form="initial" 
d="M131 598l-88 40v14l35 76l89 -43v-13zM234 475l-94 42v15l37 80l95 -44v-14zM88 467l-94 42v15l38 80l94 -44v-14zM0 0c-15 0 -26 34 -26 77c0 42 12 76 26 76c71 0 139 9 183 30l-26 162l100 63l11 -7c14 -103 24 -164 24 -205c0 -67 -21 -115 -63 -145
c-59 -42 -144 -51 -229 -51z" />
    <glyph glyph-name="uniFB66" unicode="&#x679;" horiz-adv-x="799" arabic-form="isolated" 
d="M225 428h44l38 47l-1 223l53 13v-172c10 11 20 20 31 28c19 13 42 19 68 19c75 0 99 -66 99 -109c0 -70 -52 -119 -188 -119h-134zM329 428h44c74 0 114 8 137 26c-1 43 -19 66 -60 66c-22 0 -33 -2 -52 -6zM298 -10c-208 0 -258 73 -254 176c1 30 6 69 14 120
c4 20 7 40 10 62l75 11l9 -9l-16 -114c-7 -55 12 -93 183 -93c185 0 282 21 327 40c-8 54 -17 108 -25 162l100 63l11 -7c14 -103 23 -164 23 -205c0 -57 -12 -107 -50 -135c-78 -58 -267 -71 -407 -71z" />
    <glyph glyph-name="uniFB67" unicode="&#x679;" horiz-adv-x="821" arabic-form="final" 
d="M237 428h43l38 47l-1 223l53 13v-172c10 11 21 20 31 28c20 13 43 19 69 19c74 0 98 -66 98 -109c0 -70 -52 -119 -188 -119h-133zM340 428h45c73 0 113 8 136 26c-1 43 -18 66 -59 66c-23 0 -33 -2 -53 -6zM298 -10c-208 0 -258 73 -254 176c1 28 5 65 13 111
c4 23 7 46 11 71l75 11l9 -9l-16 -114c-7 -55 12 -93 183 -93c232 0 295 9 306 66l20 105l11 8l79 -21l-13 -85c-5 -35 18 -63 68 -63h31c15 0 27 -34 27 -76c0 -43 -12 -77 -27 -77h-38c-62 0 -103 27 -123 70c-50 -75 -181 -80 -362 -80z" />
    <glyph glyph-name="uniFB69" unicode="&#x679;" horiz-adv-x="372" arabic-form="medial" 
d="M4 477h44l38 47l-2 223l54 13v-172c10 11 20 20 31 28c19 13 42 19 68 19c75 0 99 -66 99 -109c0 -70 -52 -118 -188 -118h-134zM108 477h44c74 0 113 8 137 26c-1 43 -19 66 -60 66c-22 0 -33 -2 -52 -6zM0 0c-15 0 -26 34 -26 77c0 42 11 76 26 76h59
c69 0 101 10 110 56l20 105l11 8l80 -21l-14 -85c-5 -35 18 -63 68 -63h38c15 0 26 -34 26 -76c0 -43 -11 -77 -26 -77h-45c-62 0 -102 27 -122 69c-36 -54 -86 -68 -149 -69h-56z" />
    <glyph glyph-name="uniFB68" unicode="&#x679;" horiz-adv-x="335" arabic-form="initial" 
d="M-18 519h40l35 43l-2 202l49 12v-156c9 10 18 18 28 25c17 13 38 18 62 18c67 0 89 -60 89 -99c0 -64 -47 -108 -171 -108h-121zM76 519h41c67 0 102 8 124 24c-1 39 -17 60 -55 60c-20 0 -29 -2 -47 -5zM0 0c-15 0 -26 34 -26 77c0 42 12 76 26 76c71 0 139 9 183 30
l-26 162l100 63l11 -7c14 -103 24 -164 24 -205c0 -67 -21 -115 -63 -145c-59 -42 -144 -51 -229 -51z" />
    <glyph glyph-name="uniFB5E" unicode="&#x67a;" horiz-adv-x="799" arabic-form="isolated" 
d="M409 453l-94 42v15l37 80l94 -44v-14zM409 321l-94 42v15l37 81l94 -45v-14zM298 -10c-208 0 -258 73 -254 176c1 30 6 69 14 120c4 20 7 40 10 62l75 11l9 -9l-16 -114c-7 -55 12 -93 183 -93c185 0 282 21 327 40c-8 54 -17 108 -25 162l100 63l11 -7
c14 -103 23 -164 23 -205c0 -57 -12 -107 -50 -135c-78 -58 -267 -71 -407 -71z" />
    <glyph glyph-name="uniFB5F" unicode="&#x67a;" horiz-adv-x="821" arabic-form="final" 
d="M418 453l-94 42v15l37 80l94 -44v-14zM418 321l-94 42v15l37 81l94 -45v-14zM298 -10c-208 0 -258 73 -254 176c1 28 5 65 13 111c4 23 7 46 11 71l75 11l9 -9l-16 -114c-7 -55 12 -93 183 -93c232 0 295 9 306 66l20 105l11 8l79 -21l-13 -85c-5 -35 18 -63 68 -63h31
c15 0 27 -34 27 -76c0 -43 -12 -77 -27 -77h-38c-62 0 -103 27 -123 70c-50 -75 -181 -80 -362 -80z" />
    <glyph glyph-name="uniFB61" unicode="&#x67a;" horiz-adv-x="372" arabic-form="medial" 
d="M234 511l-95 42v15l38 80l94 -44v-14zM234 379l-95 42v15l38 81l94 -45v-14zM0 0c-15 0 -26 34 -26 77c0 42 11 76 26 76h59c69 0 101 10 110 56l20 105l11 8l80 -21l-14 -85c-5 -35 18 -63 68 -63h38c15 0 26 -34 26 -76c0 -43 -11 -77 -26 -77h-45
c-62 0 -102 27 -122 69c-36 -54 -86 -68 -149 -69h-56z" />
    <glyph glyph-name="uniFB60" unicode="&#x67a;" horiz-adv-x="335" arabic-form="initial" 
d="M188 567l-94 42v15l37 80l94 -44v-14zM188 435l-94 42v15l37 81l94 -45v-14zM0 0c-15 0 -26 34 -26 77c0 42 12 76 26 76c71 0 139 9 183 30l-26 162l100 63l11 -7c14 -103 24 -164 24 -205c0 -67 -21 -115 -63 -145c-59 -42 -144 -51 -229 -51z" />
    <glyph glyph-name="uniFE9E" unicode="&#x62c;" horiz-adv-x="673" arabic-form="final" 
d="M673 153c15 0 27 -34 27 -76c0 -43 -12 -77 -27 -77h-101c-101 0 -154 27 -173 113l-14 51l-65 -36c-39 -21 -69 -43 -93 -61c-43 -34 -69 -69 -87 -112c17 -95 85 -148 282 -129l170 17l6 -10l-27 -127l-151 -15c-240 -25 -360 72 -360 235c0 113 75 216 243 319
c17 11 35 22 53 33l-150 38c-16 4 -26 7 -33 7c-11 0 -22 -7 -28 -17l-38 -59h-9l-54 62l38 71c23 44 48 71 96 71c51 0 181 -53 353 -91c33 -7 60 -12 84 -17l6 -12l-42 -115l-76 13l-40 -22l3 -12c9 -39 40 -42 95 -42h112zM271 -51l39 85l99 -47v-15l-39 -83l-99 45v15z
" />
    <glyph glyph-name="uniFEA0" unicode="&#x62c;" horiz-adv-x="684" arabic-form="medial" 
d="M684 153c15 0 26 -34 26 -76c0 -43 -11 -77 -26 -77h-97c-102 0 -156 26 -173 113l-8 33l-53 -39c-96 -69 -195 -107 -298 -107h-55c-15 0 -26 34 -26 77c0 42 11 76 26 76h76c85 0 156 15 248 76l54 34l-153 51c-15 6 -25 7 -32 8c-11 0 -21 -6 -28 -17l-38 -58h-9
l-54 63l39 70c23 44 49 70 96 70c51 -1 202 -67 326 -98c20 -5 36 -9 52 -12c18 -4 34 -7 51 -10l4 -13l-43 -113l-85 15l-27 -20l2 -11c7 -33 38 -35 95 -35h110zM216 -110l40 88l103 -49v-15l-40 -87l-103 46v17z" />
    <glyph glyph-name="uniFE9F" unicode="&#x62c;" horiz-adv-x="676" arabic-form="initial" 
d="M0 0c-15 0 -26 34 -26 77c0 42 11 76 26 76h76c85 0 156 15 248 76l54 34l-153 51c-15 6 -25 7 -32 8c-11 0 -21 -6 -28 -17l-38 -58h-9l-54 63l39 70c23 44 49 70 96 70c51 -1 202 -67 326 -98c20 -5 36 -9 52 -12c18 -4 34 -7 51 -10l4 -13l-43 -113l-85 15l-151 -112
c-96 -69 -195 -107 -298 -107h-55zM354 -172l-103 47v16l41 88l103 -49v-15z" />
    <glyph glyph-name="uniFB7B" unicode="&#x686;" horiz-adv-x="673" arabic-form="final" 
d="M673 153c15 0 27 -34 27 -76c0 -43 -12 -77 -27 -77h-101c-101 0 -154 27 -173 113l-14 51l-65 -36c-39 -21 -69 -43 -93 -61c-43 -34 -69 -69 -87 -112c17 -95 85 -148 282 -129l170 17l6 -10l-27 -127l-151 -15c-240 -25 -360 72 -360 235c0 113 75 216 243 319
c17 11 35 22 53 33l-150 38c-16 4 -26 7 -33 7c-11 0 -22 -7 -28 -17l-38 -59h-9l-54 62l38 71c23 44 48 71 96 71c51 0 181 -53 353 -91c33 -7 60 -12 84 -17l6 -12l-42 -115l-76 13l-40 -22l3 -12c9 -39 40 -42 95 -42h112zM436 0l-26 -56l-68 30v11l27 57l67 -32v-10z
M324 4v-10l-26 -56l-68 30v11l26 57zM398 -90l-26 -55l-65 30v10l25 55l66 -30v-10z" />
    <glyph glyph-name="uniFB7D" unicode="&#x686;" horiz-adv-x="684" arabic-form="medial" 
d="M684 153c15 0 26 -34 26 -76c0 -43 -11 -77 -26 -77h-97c-102 0 -156 26 -173 113l-8 33l-53 -39c-96 -69 -195 -107 -298 -107h-55c-15 0 -26 34 -26 77c0 42 11 76 26 76h76c85 0 156 15 248 76l54 34l-153 51c-15 6 -25 7 -32 8c-11 0 -21 -6 -28 -17l-38 -58h-9
l-54 63l39 70c23 44 49 70 96 70c51 -1 202 -67 326 -98c20 -5 36 -9 52 -12c18 -4 34 -7 51 -10l4 -13l-43 -113l-85 15l-27 -20l2 -11c7 -33 38 -35 95 -35h110zM325 -114l37 80l94 -44v-14l-37 -79l-94 42v15zM306 -86v-14l-37 -79l-94 42v15l37 80zM279 -237l36 77
l90 -43v-14l-36 -75l-90 41v14z" />
    <glyph glyph-name="uniFB7C" unicode="&#x686;" horiz-adv-x="676" arabic-form="initial" 
d="M0 0c-15 0 -26 34 -26 77c0 42 11 76 26 76h76c85 0 156 15 248 76l54 34l-153 51c-15 6 -25 7 -32 8c-11 0 -21 -6 -28 -17l-38 -58h-9l-54 63l39 70c23 44 49 70 96 70c51 -1 202 -67 326 -98c20 -5 36 -9 52 -12c18 -4 34 -7 51 -10l4 -13l-43 -113l-85 15l-151 -112
c-96 -69 -195 -107 -298 -107h-55zM447 -171l-95 43v15l38 80l94 -45v-14zM297 -179l-94 43v15l37 80l94 -45v-14zM397 -292l-90 42v14l36 77l90 -44v-13z" />
    <glyph glyph-name="uniFB7E" unicode="&#x687;" horiz-adv-x="665" arabic-form="isolated" 
d="M420 -309c-240 -25 -360 72 -360 235c0 113 75 216 243 319c17 11 35 22 53 33l-150 38c-16 4 -26 7 -33 7c-11 0 -22 -7 -28 -17l-38 -59h-9l-54 62l38 71c23 44 48 71 96 71c51 0 181 -54 337 -88c49 -11 76 -15 100 -20l6 -12l-42 -115l-76 13l-183 -101
c-39 -21 -69 -43 -93 -61c-43 -34 -69 -69 -87 -112c17 -95 85 -148 282 -129l170 17l6 -10l-27 -127zM483 -6l-84 38v13l33 72l84 -40v-12zM360 -13l-84 38v13l34 71l83 -39v-13zM483 -119l-84 38v13l33 71l84 -39v-13zM360 -126l-84 38v13l34 71l83 -39v-13z" />
    <glyph glyph-name="uniFB7F" unicode="&#x687;" horiz-adv-x="673" arabic-form="final" 
d="M673 153c15 0 27 -34 27 -76c0 -43 -12 -77 -27 -77h-101c-101 0 -154 27 -173 113l-14 51l-65 -36c-39 -21 -69 -43 -93 -61c-43 -34 -69 -69 -87 -112c17 -95 85 -148 282 -129l170 17l6 -10l-27 -127l-151 -15c-240 -25 -360 72 -360 235c0 113 75 216 243 319
c17 11 35 22 53 33l-150 38c-16 4 -26 7 -33 7c-11 0 -22 -7 -28 -17l-38 -59h-9l-54 62l38 71c23 44 48 71 96 71c51 0 181 -53 353 -91c33 -7 60 -12 84 -17l6 -12l-42 -115l-76 13l-40 -22l3 -12c9 -39 40 -42 95 -42h112zM428 28v-11l-28 -59l-70 32v11l28 60zM325 22
v-11l-28 -59l-71 32v11l28 60zM330 -95l28 61l70 -34v-10l-28 -60l-70 32v11zM226 -101l28 61l71 -34v-10l-28 -60l-71 32v11z" />
    <glyph glyph-name="uniFB81" unicode="&#x687;" horiz-adv-x="684" arabic-form="medial" 
d="M684 153c15 0 26 -34 26 -76c0 -43 -11 -77 -26 -77h-97c-102 0 -156 26 -173 113l-8 33l-53 -39c-96 -69 -195 -107 -298 -107h-55c-15 0 -26 34 -26 77c0 42 11 76 26 76h76c85 0 156 15 248 76l54 34l-153 51c-15 6 -25 7 -32 8c-11 0 -21 -6 -28 -17l-38 -58h-9
l-54 63l39 70c23 44 49 70 96 70c51 -1 202 -67 326 -98c20 -5 36 -9 52 -12c18 -4 34 -7 51 -10l4 -13l-43 -113l-85 15l-27 -20l2 -11c7 -33 38 -35 95 -35h110zM321 -78l37 80l94 -44v-14l-37 -80l-94 43v15zM183 -86l38 80l94 -44v-14l-38 -80l-94 43v15zM321 -205
l37 80l94 -44v-14l-37 -80l-94 43v15zM183 -213l38 80l94 -44v-14l-38 -80l-94 43v15z" />
    <glyph glyph-name="uniFB80" unicode="&#x687;" horiz-adv-x="676" arabic-form="initial" 
d="M0 0c-15 0 -26 34 -26 77c0 42 11 76 26 76h76c85 0 156 15 248 76l54 34l-153 51c-15 6 -25 7 -32 8c-11 0 -21 -6 -28 -17l-38 -58h-9l-54 63l39 70c23 44 49 70 96 70c51 -1 202 -67 326 -98c20 -5 36 -9 52 -12c18 -4 34 -7 51 -10l4 -13l-43 -113l-85 15l-151 -112
c-96 -69 -195 -107 -298 -107h-55zM450 -136l-95 43v15l38 80l94 -44v-14zM312 -144l-94 43v15l37 80l94 -44v-14zM450 -263l-95 43v15l38 80l94 -44v-14zM312 -271l-94 43v15l37 80l94 -44v-14z" />
    <glyph glyph-name="uniFB76" unicode="&#x683;" horiz-adv-x="665" arabic-form="isolated" 
d="M420 -309c-240 -25 -360 72 -360 235c0 113 75 216 243 319c17 11 35 22 53 33l-150 38c-16 4 -26 7 -33 7c-11 0 -22 -7 -28 -17l-38 -59h-9l-54 62l38 71c23 44 48 71 96 71c51 0 181 -54 337 -88c49 -11 76 -15 100 -20l6 -12l-42 -115l-76 13l-183 -101
c-39 -21 -69 -43 -93 -61c-43 -34 -69 -69 -87 -112c17 -95 85 -148 282 -129l170 17l6 -10l-27 -127zM497 -66l-92 41v15l37 78l91 -43v-14zM358 -74l-92 42v14l37 78l91 -43v-14z" />
    <glyph glyph-name="uniFB77" unicode="&#x683;" horiz-adv-x="673" arabic-form="final" 
d="M673 153c15 0 27 -34 27 -76c0 -43 -12 -77 -27 -77h-101c-101 0 -154 27 -173 113l-14 51l-65 -36c-39 -21 -69 -43 -93 -61c-43 -34 -69 -69 -87 -112c17 -95 85 -148 282 -129l170 17l6 -10l-27 -127l-151 -15c-240 -25 -360 72 -360 235c0 113 75 216 243 319
c17 11 35 22 53 33l-150 38c-16 4 -26 7 -33 7c-11 0 -22 -7 -28 -17l-38 -59h-9l-54 62l38 71c23 44 48 71 96 71c51 0 181 -53 353 -91c33 -7 60 -12 84 -17l6 -12l-42 -115l-76 13l-40 -22l3 -12c9 -39 40 -42 95 -42h112zM358 -55l35 76l89 -42v-13l-35 -75l-89 40v14z
M223 -63l35 76l89 -42v-13l-35 -75l-89 40v14z" />
    <glyph glyph-name="uniFB79" unicode="&#x683;" horiz-adv-x="684" arabic-form="medial" 
d="M684 153c15 0 26 -34 26 -76c0 -43 -11 -77 -26 -77h-97c-102 0 -156 26 -173 113l-8 33l-53 -39c-96 -69 -195 -107 -298 -107h-55c-15 0 -26 34 -26 77c0 42 11 76 26 76h76c85 0 156 15 248 76l54 34l-153 51c-15 6 -25 7 -32 8c-11 0 -21 -6 -28 -17l-38 -58h-9
l-54 63l39 70c23 44 49 70 96 70c51 -1 202 -67 326 -98c20 -5 36 -9 52 -12c18 -4 34 -7 51 -10l4 -13l-43 -113l-85 15l-27 -20l2 -11c7 -33 38 -35 95 -35h110zM319 -100l37 80l94 -44v-14l-37 -80l-94 43v15zM176 -108l37 80l94 -44v-14l-37 -80l-94 43v15z" />
    <glyph glyph-name="uniFB78" unicode="&#x683;" horiz-adv-x="676" arabic-form="initial" 
d="M0 0c-15 0 -26 34 -26 77c0 42 11 76 26 76h76c85 0 156 15 248 76l54 34l-153 51c-15 6 -25 7 -32 8c-11 0 -21 -6 -28 -17l-38 -58h-9l-54 63l39 70c23 44 49 70 96 70c51 -1 202 -67 326 -98c20 -5 36 -9 52 -12c18 -4 34 -7 51 -10l4 -13l-43 -113l-85 15l-151 -112
c-96 -69 -195 -107 -298 -107h-55zM413 -158l-94 43v15l37 80l94 -44v-14zM270 -166l-94 43v15l37 80l94 -44v-14z" />
    <glyph glyph-name="uniFB72" unicode="&#x684;" horiz-adv-x="665" arabic-form="isolated" 
d="M420 -309c-240 -25 -360 72 -360 235c0 113 75 216 243 319c17 11 35 22 53 33l-150 38c-16 4 -26 7 -33 7c-11 0 -22 -7 -28 -17l-38 -59h-9l-54 62l38 71c23 44 48 71 96 71c51 0 181 -54 337 -88c49 -11 76 -15 100 -20l6 -12l-42 -115l-76 13l-183 -101
c-39 -21 -69 -43 -93 -61c-43 -34 -69 -69 -87 -112c17 -95 85 -148 282 -129l170 17l6 -10l-27 -127zM404 -20l-85 38v14l34 72l84 -40v-13zM404 -139l-85 38v14l34 72l84 -40v-12z" />
    <glyph glyph-name="uniFB73" unicode="&#x684;" horiz-adv-x="673" arabic-form="final" 
d="M673 153c15 0 27 -34 27 -76c0 -43 -12 -77 -27 -77h-101c-101 0 -154 27 -173 113l-14 51l-65 -36c-39 -21 -69 -43 -93 -61c-43 -34 -69 -69 -87 -112c17 -95 85 -148 282 -129l170 17l6 -10l-27 -127l-151 -15c-240 -25 -360 72 -360 235c0 113 75 216 243 319
c17 11 35 22 53 33l-150 38c-16 4 -26 7 -33 7c-11 0 -22 -7 -28 -17l-38 -59h-9l-54 62l38 71c23 44 48 71 96 71c51 0 181 -53 353 -91c33 -7 60 -12 84 -17l6 -12l-42 -115l-76 13l-40 -22l3 -12c9 -39 40 -42 95 -42h112zM366 41v-12l-31 -66l-79 35v13l32 67zM256 -100
l32 68l78 -38v-11l-31 -67l-79 36v12z" />
    <glyph glyph-name="uniFB75" unicode="&#x684;" horiz-adv-x="684" arabic-form="medial" 
d="M684 153c15 0 26 -34 26 -76c0 -43 -11 -77 -26 -77h-97c-102 0 -156 26 -173 113l-8 33l-53 -39c-96 -69 -195 -107 -298 -107h-55c-15 0 -26 34 -26 77c0 42 11 76 26 76h76c85 0 156 15 248 76l54 34l-153 51c-15 6 -25 7 -32 8c-11 0 -21 -6 -28 -17l-38 -58h-9
l-54 63l39 70c23 44 49 70 96 70c51 -1 202 -67 326 -98c20 -5 36 -9 52 -12c18 -4 34 -7 51 -10l4 -13l-43 -113l-85 15l-27 -20l2 -11c7 -33 38 -35 95 -35h110zM274 -80l37 80l94 -45v-14l-37 -79l-94 43v15zM274 -212l37 80l94 -44v-14l-37 -80l-94 43v15z" />
    <glyph glyph-name="uniFB74" unicode="&#x684;" horiz-adv-x="676" arabic-form="initial" 
d="M0 0c-15 0 -26 34 -26 77c0 42 11 76 26 76h76c85 0 156 15 248 76l54 34l-153 51c-15 6 -25 7 -32 8c-11 0 -21 -6 -28 -17l-38 -58h-9l-54 63l39 70c23 44 49 70 96 70c51 -1 202 -67 326 -98c20 -5 36 -9 52 -12c18 -4 34 -7 51 -10l4 -13l-43 -113l-85 15l-151 -112
c-96 -69 -195 -107 -298 -107h-55zM336 -138l-94 43v15l37 80l94 -45v-14zM336 -270l-94 43v15l37 80l94 -44v-14z" />
    <glyph glyph-name="uniFEA2" unicode="&#x62d;" horiz-adv-x="673" arabic-form="final" 
d="M673 153c15 0 27 -34 27 -76c0 -43 -12 -77 -27 -77h-101c-101 0 -154 27 -173 113l-14 51l-65 -36c-39 -21 -69 -43 -93 -61c-43 -34 -69 -69 -87 -112c17 -95 85 -148 282 -129l170 17l6 -10l-27 -127l-151 -15c-240 -25 -360 72 -360 235c0 113 75 216 243 319
c17 11 35 22 53 33l-150 38c-16 4 -26 7 -33 7c-11 0 -22 -7 -28 -17l-38 -59h-9l-54 62l38 71c23 44 48 71 96 71c51 0 181 -53 353 -91c33 -7 60 -12 84 -17l6 -12l-42 -115l-76 13l-40 -22l3 -12c9 -39 40 -42 95 -42h112z" />
    <glyph glyph-name="uniFEA4" unicode="&#x62d;" horiz-adv-x="684" arabic-form="medial" 
d="M684 153c15 0 26 -34 26 -76c0 -43 -11 -77 -26 -77h-97c-102 0 -156 26 -173 113l-8 33l-53 -39c-96 -69 -195 -107 -298 -107h-55c-15 0 -26 34 -26 77c0 42 11 76 26 76h76c85 0 156 15 248 76l54 34l-153 51c-15 6 -25 7 -32 8c-11 0 -21 -6 -28 -17l-38 -58h-9
l-54 63l39 70c23 44 49 70 96 70c51 -1 202 -67 326 -98c20 -5 36 -9 52 -12c18 -4 34 -7 51 -10l4 -13l-43 -113l-85 15l-27 -20l2 -11c7 -33 38 -35 95 -35h110z" />
    <glyph glyph-name="uniFEA3" unicode="&#x62d;" horiz-adv-x="676" arabic-form="initial" 
d="M0 0c-15 0 -26 34 -26 77c0 42 11 76 26 76h76c85 0 156 15 248 76l54 34l-153 51c-15 6 -25 7 -32 8c-11 0 -21 -6 -28 -17l-38 -58h-9l-54 63l39 70c23 44 49 70 96 70c51 -1 202 -67 326 -98c20 -5 36 -9 52 -12c18 -4 34 -7 51 -10l4 -13l-43 -113l-85 15l-151 -112
c-96 -69 -195 -107 -298 -107h-55z" />
    <glyph glyph-name="uni0681.init" unicode="&#x681;" horiz-adv-x="676" 
d="M90 497l15 74l35 14c-19 16 -31 42 -31 69c0 58 45 103 104 108c11 1 21 0 33 -3c10 -1 21 -3 32 -5v-68l-25 3c-13 2 -25 3 -35 3c-24 0 -39 -3 -51 -7c-1 -8 -1 -14 -1 -19c1 -27 18 -42 42 -42c10 0 21 1 31 4l83 22l4 -4l-14 -74l-24 -8c-67 -24 -133 -48 -194 -71z
M0 0c-15 0 -26 34 -26 77c0 42 11 76 26 76h76c85 0 156 15 248 76l54 34l-153 51c-15 6 -25 7 -32 8c-11 0 -21 -6 -28 -17l-38 -58h-9l-54 63l39 70c23 44 49 70 96 70c51 -1 202 -67 326 -98c20 -5 36 -9 52 -12c18 -4 34 -7 51 -10l4 -13l-43 -113l-85 15l-151 -112
c-96 -69 -195 -107 -298 -107h-55z" />
    <glyph glyph-name="uni0681.medi" unicode="&#x681;" horiz-adv-x="684" 
d="M288 564c-67 -24 -133 -48 -194 -71l-4 4l15 74l35 14c-19 16 -31 42 -31 69c0 58 45 103 104 108c11 1 21 0 33 -3c10 -1 21 -3 32 -5v-68l-25 3c-13 2 -25 3 -35 3c-24 0 -39 -3 -51 -7c-1 -8 -1 -14 -1 -19c1 -27 18 -42 42 -42c10 0 21 1 31 4l83 22l4 -4l-14 -74z
M684 153c15 0 26 -34 26 -76c0 -43 -11 -77 -26 -77h-97c-102 0 -156 26 -173 113l-8 33l-53 -39c-96 -69 -195 -107 -298 -107h-55c-15 0 -26 34 -26 77c0 42 11 76 26 76h76c85 0 156 15 248 76l54 34l-153 51c-15 6 -25 7 -32 8c-11 0 -21 -6 -28 -17l-38 -58h-9l-54 63
l39 70c23 44 49 70 96 70c51 -1 202 -67 326 -98c20 -5 36 -9 52 -12c18 -4 34 -7 51 -10l4 -13l-43 -113l-85 15l-27 -20l2 -11c7 -33 38 -35 95 -35h110z" />
    <glyph glyph-name="uni0681.fina" unicode="&#x681;" horiz-adv-x="673" 
d="M288 564c-67 -24 -133 -48 -194 -71l-4 4l15 74l35 14c-19 16 -31 42 -31 69c0 58 45 103 104 108c11 1 21 0 33 -3c10 -1 21 -3 32 -5v-68l-25 3c-13 2 -25 3 -35 3c-24 0 -39 -3 -51 -7c-1 -8 -1 -14 -1 -19c1 -27 18 -42 42 -42c10 0 21 1 31 4l83 22l4 -4l-14 -74z
M673 153c15 0 27 -34 27 -76c0 -43 -12 -77 -27 -77h-101c-101 0 -154 27 -173 113l-14 51l-65 -36c-39 -21 -69 -43 -93 -61c-43 -34 -69 -69 -87 -112c17 -95 85 -148 282 -129l170 17l6 -10l-27 -127l-151 -15c-240 -25 -360 72 -360 235c0 113 75 216 243 319
c17 11 35 22 53 33l-150 38c-16 4 -26 7 -33 7c-11 0 -22 -7 -28 -17l-38 -59h-9l-54 62l38 71c23 44 48 71 96 71c51 0 181 -53 353 -91c33 -7 60 -12 84 -17l6 -12l-42 -115l-76 13l-40 -22l3 -12c9 -39 40 -42 95 -42h112z" />
    <glyph glyph-name="uni0685.init" unicode="&#x685;" horiz-adv-x="676" 
d="M175 627l-88 41v14l35 75l88 -43v-13zM278 504l-94 43v15l37 80l94 -45v-14zM132 496l-94 43v15l37 80l94 -45v-14zM0 0c-15 0 -26 34 -26 77c0 42 11 76 26 76h76c85 0 156 15 248 76l54 34l-153 51c-15 6 -25 7 -32 8c-11 0 -21 -6 -28 -17l-38 -58h-9l-54 63l39 70
c23 44 49 70 96 70c51 -1 202 -67 326 -98c20 -5 36 -9 52 -12c18 -4 34 -7 51 -10l4 -13l-43 -113l-85 15l-151 -112c-96 -69 -195 -107 -298 -107h-55z" />
    <glyph glyph-name="uni0685.medi" unicode="&#x685;" horiz-adv-x="684" 
d="M210 701l-35 -74l-88 41v14l35 75l88 -43v-13zM184 547v15l37 80l94 -45v-14l-37 -79zM169 575l-37 -79l-94 43v15l37 80l94 -45v-14zM684 153c15 0 26 -34 26 -76c0 -43 -11 -77 -26 -77h-97c-102 0 -156 26 -173 113l-8 33l-53 -39c-96 -69 -195 -107 -298 -107h-55
c-15 0 -26 34 -26 77c0 42 11 76 26 76h76c85 0 156 15 248 76l54 34l-153 51c-15 6 -25 7 -32 8c-11 0 -21 -6 -28 -17l-38 -58h-9l-54 63l39 70c23 44 49 70 96 70c51 -1 202 -67 326 -98c20 -5 36 -9 52 -12c18 -4 34 -7 51 -10l4 -13l-43 -113l-85 15l-27 -20l2 -11
c7 -33 38 -35 95 -35h110z" />
    <glyph glyph-name="uni0685.fina" unicode="&#x685;" horiz-adv-x="673" 
d="M210 699l-35 -74l-88 41v14l35 75l88 -43v-13zM184 545v14l37 81l94 -45v-14l-37 -79zM169 573l-37 -79l-94 43v14l37 81l94 -45v-14zM673 153c15 0 27 -34 27 -76c0 -43 -12 -77 -27 -77h-101c-101 0 -154 27 -173 113l-14 51l-65 -36c-39 -21 -69 -43 -93 -61
c-43 -34 -69 -69 -87 -112c17 -95 85 -148 282 -129l170 17l6 -10l-27 -127l-151 -15c-240 -25 -360 72 -360 235c0 113 75 216 243 319c17 11 35 22 53 33l-150 38c-16 4 -26 7 -33 7c-11 0 -22 -7 -28 -17l-38 -59h-9l-54 62l38 71c23 44 48 71 96 71
c51 0 181 -53 353 -91c33 -7 60 -12 84 -17l6 -12l-42 -115l-76 13l-40 -22l3 -12c9 -39 40 -42 95 -42h112z" />
    <glyph glyph-name="uniFEA6" unicode="&#x62e;" horiz-adv-x="673" arabic-form="final" 
d="M234 596l-41 -86l-103 46v16l41 88l103 -49v-15zM673 153c15 0 27 -34 27 -76c0 -43 -12 -77 -27 -77h-101c-101 0 -154 27 -173 113l-14 51l-65 -36c-39 -21 -69 -43 -93 -61c-43 -34 -69 -69 -87 -112c17 -95 85 -148 282 -129l170 17l6 -10l-27 -127l-151 -15
c-240 -25 -360 72 -360 235c0 113 75 216 243 319c17 11 35 22 53 33l-150 38c-16 4 -26 7 -33 7c-11 0 -22 -7 -28 -17l-38 -59h-9l-54 62l38 71c23 44 48 71 96 71c51 0 181 -53 353 -91c33 -7 60 -12 84 -17l6 -12l-42 -115l-76 13l-40 -22l3 -12c9 -39 40 -42 95 -42
h112z" />
    <glyph glyph-name="uniFEA8" unicode="&#x62e;" horiz-adv-x="684" arabic-form="medial" 
d="M270 598l-40 -87l-103 46v17l40 88l103 -49v-15zM684 153c15 0 26 -34 26 -76c0 -43 -11 -77 -26 -77h-97c-102 0 -156 26 -173 113l-8 33l-53 -39c-96 -69 -195 -107 -298 -107h-55c-15 0 -26 34 -26 77c0 42 11 76 26 76h76c85 0 156 15 248 76l54 34l-153 51
c-15 6 -25 7 -32 8c-11 0 -21 -6 -28 -17l-38 -58h-9l-54 63l39 70c23 44 49 70 96 70c51 -1 202 -67 326 -98c20 -5 36 -9 52 -12c18 -4 34 -7 51 -10l4 -13l-43 -113l-85 15l-27 -20l2 -11c7 -33 38 -35 95 -35h110z" />
    <glyph glyph-name="uniFEA7" unicode="&#x62e;" horiz-adv-x="676" arabic-form="initial" 
d="M230 511l-103 46v17l40 88l103 -49v-15zM0 0c-15 0 -26 34 -26 77c0 42 11 76 26 76h76c85 0 156 15 248 76l54 34l-153 51c-15 6 -25 7 -32 8c-11 0 -21 -6 -28 -17l-38 -58h-9l-54 63l39 70c23 44 49 70 96 70c51 -1 202 -67 326 -98c20 -5 36 -9 52 -12
c18 -4 34 -7 51 -10l4 -13l-43 -113l-85 15l-151 -112c-96 -69 -195 -107 -298 -107h-55z" />
    <glyph glyph-name="uniFEAA" unicode="&#x62f;" horiz-adv-x="537" arabic-form="final" 
d="M191 -10c-108 0 -157 36 -146 153l8 91l73 11l7 -7l-3 -56c-3 -38 19 -40 77 -40c40 0 86 11 117 25l-31 272l86 64l13 -6l23 -237c9 -92 39 -107 93 -107h29c15 0 26 -34 26 -76c0 -43 -11 -77 -26 -77h-42c-59 0 -102 25 -121 62c-32 -48 -118 -72 -183 -72z" />
    <glyph glyph-name="uniFEAC" unicode="&#x630;" horiz-adv-x="537" arabic-form="final" 
d="M320 551l-103 46v17l41 88l103 -49v-15zM191 -10c-108 0 -157 36 -146 153l8 91l73 11l7 -7l-3 -56c-3 -38 19 -40 77 -40c40 0 86 11 117 25l-31 272l86 64l13 -6l23 -237c9 -92 39 -107 93 -107h29c15 0 26 -34 26 -76c0 -43 -11 -77 -26 -77h-42
c-59 0 -102 25 -121 62c-32 -48 -118 -72 -183 -72z" />
    <glyph glyph-name="uniFB88" unicode="&#x688;" horiz-adv-x="505" arabic-form="isolated" 
d="M72 607h40l34 43l-1 202l48 12v-156c10 10 19 18 29 25c17 12 38 18 62 18c67 0 89 -60 89 -99c0 -64 -47 -108 -171 -108h-121zM166 607h40c67 0 103 8 124 24c0 39 -17 60 -54 60c-20 0 -29 -2 -47 -6zM191 -10c-108 0 -156 36 -146 153l8 91l73 11l7 -7l-3 -56
c-2 -38 19 -40 77 -40c73 0 130 16 159 36c-18 35 -62 93 -160 226l84 102c90 -128 172 -229 172 -327c0 -124 -122 -189 -271 -189z" />
    <glyph glyph-name="uniFB89" unicode="&#x688;" horiz-adv-x="537" arabic-form="final" 
d="M93 606h40l35 44l-2 202l49 11v-156c9 10 18 19 28 25c18 13 38 18 62 18c68 0 89 -60 89 -99c0 -63 -47 -107 -170 -107h-121zM187 606h41c67 0 103 8 124 25c-1 38 -17 59 -54 59c-21 0 -30 -1 -48 -5zM191 -10c-108 0 -157 36 -146 153l8 91l73 11l7 -7l-3 -56
c-3 -38 19 -40 77 -40c40 0 86 11 117 25l-31 272l86 64l13 -6l23 -237c9 -92 39 -107 93 -107h29c15 0 26 -34 26 -76c0 -43 -11 -77 -26 -77h-42c-59 0 -102 25 -121 62c-32 -48 -118 -72 -183 -72z" />
    <glyph glyph-name="uniFB84" unicode="&#x68c;" horiz-adv-x="505" arabic-form="isolated" 
d="M332 573l-94 43v15l37 80l94 -45v-14zM189 565l-94 43v15l37 80l94 -45v-14zM191 -10c-108 0 -156 36 -146 153l8 91l73 11l7 -7l-3 -56c-2 -38 19 -40 77 -40c73 0 130 16 159 36c-18 35 -62 93 -160 226l84 102c90 -128 172 -229 172 -327c0 -124 -122 -189 -271 -189z
" />
    <glyph glyph-name="uniFB85" unicode="&#x68c;" horiz-adv-x="537" arabic-form="final" 
d="M422 564l-94 42v15l37 81l94 -45v-14zM279 556l-94 42v15l37 81l94 -45v-14zM191 -10c-108 0 -157 36 -146 153l8 91l73 11l7 -7l-3 -56c-3 -38 19 -40 77 -40c40 0 86 11 117 25l-31 272l86 64l13 -6l23 -237c9 -92 39 -107 93 -107h29c15 0 26 -34 26 -76
c0 -43 -11 -77 -26 -77h-42c-59 0 -102 25 -121 62c-32 -48 -118 -72 -183 -72z" />
    <glyph glyph-name="uniFB82" unicode="&#x68d;" horiz-adv-x="505" arabic-form="isolated" 
d="M191 -10c-108 0 -156 36 -146 153l8 91l73 11l7 -7l-3 -56c-2 -38 19 -40 77 -40c73 0 130 16 159 36c-18 35 -62 93 -160 226l84 102c90 -128 172 -229 172 -327c0 -124 -122 -189 -271 -189zM312 -220l-94 42v15l37 80l94 -44v-14zM169 -228l-94 42v15l37 80l94 -44
v-14z" />
    <glyph glyph-name="uniFB83" unicode="&#x68d;" horiz-adv-x="537" arabic-form="final" 
d="M191 -10c-108 0 -157 36 -146 153l8 91l73 11l7 -7l-3 -56c-3 -38 19 -40 77 -40c40 0 86 11 117 25l-31 272l86 64l13 -6l23 -237c9 -92 39 -107 93 -107h29c15 0 26 -34 26 -76c0 -43 -11 -77 -26 -77h-42c-59 0 -102 25 -121 62c-32 -48 -118 -72 -183 -72zM312 -220
l-94 42v15l37 80l94 -44v-14zM169 -228l-94 42v15l37 80l94 -44v-14z" />
    <glyph glyph-name="uni0689.fina" unicode="&#x689;" horiz-adv-x="537" 
d="M537 153c15 0 26 -34 26 -76c0 -43 -11 -77 -26 -77h-42c-59 0 -102 25 -121 62c-23 -35 -75 -57 -127 -67c6 -11 9 -24 9 -37c0 -45 -36 -81 -81 -81s-81 36 -81 81c0 16 5 31 13 44c-49 19 -70 61 -62 141l8 91l73 11l7 -7l-3 -56c-3 -38 19 -40 77 -40
c40 0 86 11 117 25l-31 272l86 64l13 -6l23 -237c9 -92 39 -107 93 -107h29zM175 -73c17 0 32 14 32 31s-15 32 -32 32s-32 -15 -32 -32s15 -31 32 -31z" />
    <glyph glyph-name="uni068A.fina" unicode="&#x68a;" horiz-adv-x="537" 
d="M191 -10c-108 0 -157 36 -146 153l8 91l73 11l7 -7l-3 -56c-3 -38 19 -40 77 -40c40 0 86 11 117 25l-31 272l86 64l13 -6l23 -237c9 -92 39 -107 93 -107h29c15 0 26 -34 26 -76c0 -43 -11 -77 -26 -77h-42c-59 0 -102 25 -121 62c-32 -48 -118 -72 -183 -72zM242 -223
l-103 47v16l41 88l103 -49v-15z" />
    <glyph glyph-name="uni068B.fina" unicode="&#x68b;" horiz-adv-x="537" 
d="M93 606h40l35 44l-2 202l49 11v-156c9 10 18 19 28 25c18 13 38 18 62 18c68 0 89 -60 89 -99c0 -63 -47 -107 -170 -107h-121zM187 606h41c67 0 103 8 124 25c-1 38 -17 59 -54 59c-21 0 -30 -1 -48 -5zM191 -10c-108 0 -157 36 -146 153l8 91l73 11l7 -7l-3 -56
c-3 -38 19 -40 77 -40c40 0 86 11 117 25l-31 272l86 64l13 -6l23 -237c9 -92 39 -107 93 -107h29c15 0 26 -34 26 -76c0 -43 -11 -77 -26 -77h-42c-59 0 -102 25 -121 62c-32 -48 -118 -72 -183 -72zM222 -254l-103 47v16l41 88l103 -49v-15z" />
    <glyph glyph-name="uniFB86" unicode="&#x68e;" horiz-adv-x="505" arabic-form="isolated" 
d="M232 694l-88 41v14l35 75l89 -43v-13zM335 571l-94 43v14l37 81l95 -45v-14zM189 563l-94 43v14l38 81l94 -45v-14zM191 -10c-108 0 -156 36 -146 153l8 91l73 11l7 -7l-3 -56c-2 -38 19 -40 77 -40c73 0 130 16 159 36c-18 35 -62 93 -160 226l84 102
c90 -128 172 -229 172 -327c0 -124 -122 -189 -271 -189z" />
    <glyph glyph-name="uniFB87" unicode="&#x68e;" horiz-adv-x="537" arabic-form="final" 
d="M310 691l-89 41l1 14l35 75l88 -43v-13zM413 568l-94 43v14l37 81l94 -45v-14zM267 560l-94 43v14l37 81l94 -45v-14zM191 -10c-108 0 -157 36 -146 153l8 91l73 11l7 -7l-3 -56c-3 -38 19 -40 77 -40c40 0 86 11 117 25l-31 272l86 64l13 -6l23 -237
c9 -92 39 -107 93 -107h29c15 0 26 -34 26 -76c0 -43 -11 -77 -26 -77h-42c-59 0 -102 25 -121 62c-32 -48 -118 -72 -183 -72z" />
    <glyph glyph-name="uni068F.fina" unicode="&#x68f;" horiz-adv-x="537" 
d="M374 653l-94 43v15l37 80l94 -45v-13zM224 645l-94 43v15l37 80l94 -45v-13zM324 532l-90 42v14l36 77l90 -44v-13zM191 -10c-108 0 -157 36 -146 153l8 91l73 11l7 -7l-3 -56c-3 -38 19 -40 77 -40c40 0 86 11 117 25l-31 272l86 64l13 -6l23 -237
c9 -92 39 -107 93 -107h29c15 0 26 -34 26 -76c0 -43 -11 -77 -26 -77h-42c-59 0 -102 25 -121 62c-32 -48 -118 -72 -183 -72z" />
    <glyph glyph-name="uni0690.fina" unicode="&#x690;" horiz-adv-x="537" 
d="M345 668l-94 42v15l37 80l94 -44v-14zM208 660l-94 42v15l37 80l94 -44v-14zM345 541l-94 42v15l37 80l94 -44v-14zM208 533l-94 42v15l37 80l94 -44v-14zM191 -10c-108 0 -157 36 -146 153l8 91l73 11l7 -7l-3 -56c-3 -38 19 -40 77 -40c40 0 86 11 117 25l-31 272
l86 64l13 -6l23 -237c9 -92 39 -107 93 -107h29c15 0 26 -34 26 -76c0 -43 -11 -77 -26 -77h-42c-59 0 -102 25 -121 62c-32 -48 -118 -72 -183 -72z" />
    <glyph glyph-name="uniFEAE" unicode="&#x631;" horiz-adv-x="412" arabic-form="final" 
d="M87 -236c-29 -3 -89 15 -125 32l-26 93l7 10c36 -4 75 -6 100 -5c93 7 144 79 170 127c-8 56 -20 128 -45 264l90 58l12 -8l18 -95c13 -65 30 -87 89 -87h35c14 0 26 -34 26 -76c0 -43 -12 -77 -26 -77h-29c-33 0 -59 8 -80 22c0 -3 -1 -6 -1 -8
c-17 -138 -122 -243 -215 -250z" />
    <glyph glyph-name="uniFEB0" unicode="&#x632;" horiz-adv-x="412" arabic-form="final" 
d="M211 391l-102 47v16l40 88l103 -49v-15zM87 -236c-29 -3 -89 15 -125 32l-26 93l7 10c36 -4 75 -6 100 -5c93 7 144 79 170 127c-8 56 -20 128 -45 264l90 58l12 -8l18 -95c13 -65 30 -87 89 -87h35c14 0 26 -34 26 -76c0 -43 -12 -77 -26 -77h-29c-33 0 -59 8 -80 22
c0 -3 -1 -6 -1 -8c-17 -138 -122 -243 -215 -250z" />
    <glyph glyph-name="uniFB8C" unicode="&#x691;" horiz-adv-x="352" arabic-form="isolated" 
d="M37 464h40l34 43l-1 202l48 12v-156c9 10 19 18 29 25c17 12 38 18 62 18c67 0 89 -60 89 -99c0 -64 -47 -108 -171 -108h-121zM131 464h40c67 0 103 8 124 24c0 39 -17 60 -54 60c-20 0 -30 -2 -47 -6zM87 -236c-29 -3 -89 15 -125 32l-26 93l7 10c36 -4 75 -6 100 -5
c93 7 144 79 170 127c-8 56 -20 128 -45 264l90 58l12 -8c29 -148 38 -215 38 -265c0 -160 -111 -299 -221 -306z" />
    <glyph glyph-name="uniFB8D" unicode="&#x691;" horiz-adv-x="412" arabic-form="final" 
d="M37 464h40l34 43l-1 202l48 12v-156c9 10 19 18 29 25c17 12 38 18 62 18c67 0 89 -60 89 -99c0 -64 -47 -108 -171 -108h-121zM131 464h40c67 0 103 8 124 24c0 39 -17 60 -54 60c-20 0 -30 -2 -47 -6zM87 -236c-29 -3 -89 15 -125 32l-26 93l7 10c36 -4 75 -6 100 -5
c93 7 144 79 170 127c-8 56 -20 128 -45 264l90 58l12 -8l18 -95c13 -65 30 -87 89 -87h35c14 0 26 -34 26 -76c0 -43 -12 -77 -26 -77h-29c-33 0 -59 8 -80 22c0 -3 -1 -6 -1 -8c-17 -138 -122 -243 -215 -250z" />
    <glyph glyph-name="uni0693.fina" unicode="&#x693;" horiz-adv-x="412" 
d="M412 153c14 0 26 -34 26 -76c0 -43 -12 -77 -26 -77h-29c-33 0 -59 8 -80 22c0 -3 -1 -6 -1 -8c-13 -104 -76 -189 -146 -228c13 -14 21 -33 21 -54c0 -45 -36 -81 -81 -81s-81 36 -81 81c0 15 4 29 11 41c-23 6 -46 15 -64 23l-26 93l7 10c36 -4 75 -6 100 -5
c93 7 144 79 170 127c-8 56 -20 128 -45 264l90 58l12 -8l18 -95c13 -65 30 -87 89 -87h35zM96 -300c17 0 32 15 32 32s-15 32 -32 32s-31 -15 -31 -32s14 -32 31 -32z" />
    <glyph glyph-name="uni0695.fina" unicode="&#x695;" horiz-adv-x="412" 
d="M87 -236c-29 -3 -89 15 -125 32l-26 93l7 10c36 -4 75 -6 100 -5c93 7 144 79 170 127c-8 56 -20 128 -45 264l90 58l12 -8l18 -95c13 -65 30 -87 89 -87h35c14 0 26 -34 26 -76c0 -43 -12 -77 -26 -77h-29c-33 0 -59 8 -80 22c0 -3 -1 -6 -1 -8
c-17 -138 -122 -243 -215 -250zM87 -565l-88 231l47 36l62 -172l67 172l45 -36l-85 -206z" />
    <glyph glyph-name="uni0696.fina" unicode="&#x696;" horiz-adv-x="412" 
d="M211 391l-102 47v16l40 88l103 -49v-15zM87 -236c-29 -3 -89 15 -125 32l-26 93l7 10c36 -4 75 -6 100 -5c93 7 144 79 170 127c-8 56 -20 128 -45 264l90 58l12 -8l18 -95c13 -65 30 -87 89 -87h35c14 0 26 -34 26 -76c0 -43 -12 -77 -26 -77h-29c-33 0 -59 8 -80 22
c0 -3 -1 -6 -1 -8c-17 -138 -122 -243 -215 -250zM148 -454l-103 46v16l40 88l103 -49v-15z" />
    <glyph glyph-name="uniFB8B" unicode="&#x698;" horiz-adv-x="412" arabic-form="final" 
d="M191 527l-88 41v14l36 75l88 -43v-13zM294 404l-94 43v15l38 80l94 -45v-14zM149 396l-95 43v15l38 80l94 -45v-14zM87 -236c-29 -3 -89 15 -125 32l-26 93l7 10c36 -4 75 -6 100 -5c93 7 144 79 170 127c-8 56 -20 128 -45 264l90 58l12 -8l18 -95c13 -65 30 -87 89 -87
h35c14 0 26 -34 26 -76c0 -43 -12 -77 -26 -77h-29c-33 0 -59 8 -80 22c0 -3 -1 -6 -1 -8c-17 -138 -122 -243 -215 -250z" />
    <glyph glyph-name="uniFC5C" unicode="&#xfc5c;" horiz-adv-x="352" arabic-form="isolated" 
d="M171 410l-5 182l66 12v-123c0 -26 -3 -58 -7 -70zM87 -236c-29 -3 -89 15 -125 32l-26 93l7 10c36 -4 75 -6 100 -5c93 7 144 79 170 127c-8 56 -20 128 -45 264l90 58l12 -8c29 -148 38 -215 38 -265c0 -160 -111 -299 -221 -306z" />
    <glyph glyph-name="uniFEB2" unicode="&#x633;" horiz-adv-x="1233" arabic-form="final" 
d="M258 -193c-130 0 -225 58 -213 212c5 66 23 147 41 218l72 -5l7 -11c-9 -45 -23 -107 -28 -149c-12 -93 43 -112 142 -112c95 0 178 29 227 52c-11 76 -27 164 -44 252l88 56l14 -6l15 -76c12 -64 35 -85 108 -85c86 0 111 24 112 76l2 53l86 2v-115
c18 -10 44 -16 69 -16c19 0 37 5 50 14l-23 147l77 56l12 -7c7 -39 13 -77 19 -116c11 -73 35 -94 103 -94h39c15 0 26 -34 26 -76c0 -43 -11 -77 -26 -77h-33c-74 0 -113 20 -136 59l-7 -10c-25 -29 -63 -49 -112 -49c-40 0 -84 11 -109 34c-3 4 -6 7 -8 10
c-26 -25 -76 -44 -136 -44c-43 0 -72 7 -93 18c0 -9 0 -18 -1 -24c-1 -27 -6 -68 -43 -96c-59 -51 -163 -91 -297 -91z" />
    <glyph glyph-name="uniFEB4" unicode="&#x633;" horiz-adv-x="894" arabic-form="medial" 
d="M0 0c-15 0 -26 34 -26 77c0 42 11 76 26 76h53c64 0 91 19 110 74l28 88l13 7l76 -26l-24 -86l-8 -26c21 -20 52 -31 101 -31c85 0 110 24 112 76l1 53l86 2v-115c18 -10 43 -16 68 -16c19 0 38 5 51 14l-23 147l78 56l12 -7l18 -116c11 -73 35 -94 103 -94h39
c15 0 26 -34 26 -76c0 -43 -11 -77 -26 -77h-33c-74 0 -113 20 -136 59c-25 -36 -67 -59 -124 -59c-43 0 -90 15 -112 44c-26 -25 -75 -44 -139 -44c-78 0 -131 24 -155 64c-26 -47 -74 -64 -143 -64h-52z" />
    <glyph glyph-name="uniFEB3" unicode="&#x633;" horiz-adv-x="818" arabic-form="initial" 
d="M0 0c-15 0 -26 34 -26 77c0 42 11 76 26 76h53c64 0 91 19 110 74l28 88l13 7l76 -26l-24 -86l-8 -26c21 -20 52 -31 101 -31c85 0 110 24 112 76l1 53l86 2v-115c18 -10 44 -16 69 -16c18 0 37 5 50 14l-27 178l100 63l11 -7c8 -54 14 -98 18 -133
c9 -69 9 -125 -19 -179c-29 -56 -82 -89 -143 -89c-46 0 -96 14 -118 44c-26 -25 -75 -44 -139 -44c-78 0 -131 24 -155 64c-26 -47 -74 -64 -143 -64h-52z" />
    <glyph glyph-name="uniFEB6" unicode="&#x634;" horiz-adv-x="1233" arabic-form="final" 
d="M795 516l-88 40v14l35 76l89 -43v-13zM898 393l-94 42v15l37 81l94 -45v-14zM752 385l-94 42v15l37 81l94 -45v-14zM258 -193c-130 0 -225 58 -213 212c5 66 23 147 41 218l72 -5l7 -11c-9 -45 -23 -107 -28 -149c-12 -93 43 -112 142 -112c95 0 178 29 227 52
c-11 76 -27 164 -44 252l88 56l14 -6l15 -76c12 -64 35 -85 108 -85c86 0 111 24 112 76l2 53l86 2v-115c18 -10 44 -16 69 -16c19 0 37 5 50 14l-23 147l77 56l12 -7c7 -39 13 -77 19 -116c11 -73 35 -94 103 -94h39c15 0 26 -34 26 -76c0 -43 -11 -77 -26 -77h-33
c-74 0 -113 20 -136 59l-7 -10c-25 -29 -63 -49 -112 -49c-40 0 -84 11 -109 34c-3 4 -6 7 -8 10c-26 -25 -76 -44 -136 -44c-43 0 -72 7 -93 18c0 -9 0 -18 -1 -24c-1 -27 -6 -68 -43 -96c-59 -51 -163 -91 -297 -91z" />
    <glyph glyph-name="uniFEB8" unicode="&#x634;" horiz-adv-x="894" arabic-form="medial" 
d="M468 516l-89 40v14l36 76l88 -43v-13zM571 393l-94 42v15l37 81l94 -45v-14zM425 385l-94 42v15l37 81l94 -45v-14zM0 0c-15 0 -26 34 -26 77c0 42 11 76 26 76h53c64 0 91 19 110 74l28 88l13 7l76 -26l-24 -86l-8 -26c21 -20 52 -31 101 -31c85 0 110 24 112 76l1 53
l86 2v-115c18 -10 43 -16 68 -16c19 0 38 5 51 14l-23 147l78 56l12 -7l18 -116c11 -73 35 -94 103 -94h39c15 0 26 -34 26 -76c0 -43 -11 -77 -26 -77h-33c-74 0 -113 20 -136 59c-25 -36 -67 -59 -124 -59c-43 0 -90 15 -112 44c-26 -25 -75 -44 -139 -44
c-78 0 -131 24 -155 64c-26 -47 -74 -64 -143 -64h-52z" />
    <glyph glyph-name="uniFEB7" unicode="&#x634;" horiz-adv-x="818" arabic-form="initial" 
d="M471 516l-89 40v14l36 76l88 -43v-13zM574 393l-94 42v15l37 81l94 -45v-14zM428 385l-94 42v15l37 81l94 -45v-14zM0 0c-15 0 -26 34 -26 77c0 42 11 76 26 76h53c64 0 91 19 110 74l28 88l13 7l76 -26l-24 -86l-8 -26c21 -20 52 -31 101 -31c85 0 110 24 112 76l1 53
l86 2v-115c18 -10 44 -16 69 -16c18 0 37 5 50 14l-27 178l100 63l11 -7c8 -54 14 -98 18 -133c9 -69 9 -125 -19 -179c-29 -56 -82 -89 -143 -89c-46 0 -96 14 -118 44c-26 -25 -75 -44 -139 -44c-78 0 -131 24 -155 64c-26 -47 -74 -64 -143 -64h-52z" />
    <glyph glyph-name="uniFEBA" unicode="&#x635;" horiz-adv-x="1212" arabic-form="final" 
d="M258 -193c-130 0 -225 58 -213 212c5 66 23 147 41 218l72 -5l7 -11c-9 -45 -23 -107 -28 -149c-12 -93 43 -112 142 -112c95 0 178 29 227 52c-11 76 -27 164 -44 252l88 56l14 -6l15 -76c8 -43 16 -64 36 -74l3 32l114 130c59 68 110 108 191 108
c139 0 200 -122 200 -214c0 -23 -4 -44 -13 -62c17 -4 36 -5 61 -5h41c15 0 27 -34 27 -76c0 -43 -12 -77 -27 -77h-53c-58 0 -99 17 -130 48c-52 -31 -128 -48 -233 -48h-110c-37 0 -65 7 -87 18c0 -11 -1 -20 -2 -29c-2 -26 -10 -70 -47 -97c-60 -48 -162 -85 -292 -85z
M716 150h112c111 0 159 15 192 41c-1 66 -42 117 -112 117c-41 0 -59 -6 -77 -12l-138 -145c7 -1 15 -1 23 -1z" />
    <glyph glyph-name="uniFEBC" unicode="&#x635;" horiz-adv-x="919" arabic-form="medial" 
d="M-26 77c0 42 11 76 26 76h53c64 0 94 28 113 83l25 79l14 6l75 -25l-30 -108c2 -10 22 -29 61 -34l4 29l123 143c59 68 111 108 191 108c140 0 200 -122 200 -214c0 -23 -3 -44 -13 -62c16 -4 33 -5 57 -5h46c15 0 26 -34 26 -76c0 -43 -11 -77 -26 -77h-53
c-58 0 -99 17 -131 48c-51 -31 -127 -48 -232 -48h-174c-66 0 -110 24 -134 64c-26 -47 -74 -64 -143 -64h-52c-15 0 -26 34 -26 77zM399 150h39h97c111 0 158 15 192 41c-2 66 -42 117 -113 117c-41 0 -59 -6 -77 -12z" />
    <glyph glyph-name="uniFEBB" unicode="&#x635;" horiz-adv-x="873" arabic-form="initial" 
d="M-26 77c0 42 11 76 26 76h53c64 0 94 28 113 83l25 79l14 6l75 -25l-30 -108c2 -10 22 -29 61 -34l4 29l123 143c59 68 111 108 191 108c140 0 200 -122 200 -214c0 -133 -92 -220 -326 -220h-174c-66 0 -110 24 -134 64c-26 -47 -74 -64 -143 -64h-52
c-15 0 -26 34 -26 77zM399 150h41h95c111 0 158 15 192 41c-2 66 -42 117 -113 117c-41 0 -59 -6 -77 -12z" />
    <glyph glyph-name="uniFEBE" unicode="&#x636;" horiz-adv-x="1212" arabic-form="final" 
d="M908 509l-103 46v17l40 87l103 -48v-15zM258 -193c-130 0 -225 58 -213 212c5 66 23 147 41 218l72 -5l7 -11c-9 -45 -23 -107 -28 -149c-12 -93 43 -112 142 -112c95 0 178 29 227 52c-11 76 -27 164 -44 252l88 56l14 -6l15 -76c8 -43 16 -64 36 -74l3 32l114 130
c59 68 110 108 191 108c139 0 200 -122 200 -214c0 -23 -4 -44 -13 -62c17 -4 36 -5 61 -5h41c15 0 27 -34 27 -76c0 -43 -12 -77 -27 -77h-53c-58 0 -99 17 -130 48c-52 -31 -128 -48 -233 -48h-110c-37 0 -65 7 -87 18c0 -11 -1 -20 -2 -29c-2 -26 -10 -70 -47 -97
c-60 -48 -162 -85 -292 -85zM716 150h112c111 0 159 15 192 41c-1 66 -42 117 -112 117c-41 0 -59 -6 -77 -12l-138 -145c7 -1 15 -1 23 -1z" />
    <glyph glyph-name="uniFEC0" unicode="&#x636;" horiz-adv-x="919" arabic-form="medial" 
d="M636 509l-103 46v17l41 87l102 -48v-15zM-26 77c0 42 11 76 26 76h53c64 0 94 28 113 83l25 79l14 6l75 -25l-30 -108c2 -10 22 -29 61 -34l4 29l123 143c59 68 111 108 191 108c140 0 200 -122 200 -214c0 -23 -3 -44 -13 -62c16 -4 33 -5 57 -5h46c15 0 26 -34 26 -76
c0 -43 -11 -77 -26 -77h-53c-58 0 -99 17 -131 48c-51 -31 -127 -48 -232 -48h-174c-66 0 -110 24 -134 64c-26 -47 -74 -64 -143 -64h-52c-15 0 -26 34 -26 77zM399 150h39h97c111 0 158 15 192 41c-2 66 -42 117 -113 117c-41 0 -59 -6 -77 -12z" />
    <glyph glyph-name="uniFEBF" unicode="&#x636;" horiz-adv-x="873" arabic-form="initial" 
d="M636 509l-103 46v17l41 87l102 -48v-15zM-26 77c0 42 11 76 26 76h53c64 0 94 28 113 83l25 79l14 6l75 -25l-30 -108c2 -10 22 -29 61 -34l4 29l123 143c59 68 111 108 191 108c140 0 200 -122 200 -214c0 -133 -92 -220 -326 -220h-174c-66 0 -110 24 -134 64
c-26 -47 -74 -64 -143 -64h-52c-15 0 -26 34 -26 77zM399 150h41h95c111 0 158 15 192 41c-2 66 -42 117 -113 117c-41 0 -59 -6 -77 -12z" />
    <glyph glyph-name="uniFEC2" unicode="&#x637;" horiz-adv-x="763" arabic-form="final" 
d="M44 154l9 9c28 -4 52 -6 81 -8l71 82l-3 424l101 27v-251c0 -49 0 -65 -16 -108c9 10 18 20 28 28c46 49 93 77 159 77c139 0 200 -122 200 -214c0 -23 -4 -44 -13 -62c16 -4 34 -5 59 -5h43c15 0 27 -34 27 -76c0 -43 -12 -77 -27 -77h-53c-57 0 -99 17 -130 48
c-52 -31 -128 -48 -233 -48c-119 0 -208 4 -292 15zM245 152c38 -1 82 -2 134 -2c111 0 159 15 192 41c-1 66 -42 117 -112 117c-41 0 -59 -6 -77 -12z" />
    <glyph glyph-name="uniFEC4" unicode="&#x637;" horiz-adv-x="727" arabic-form="medial" 
d="M-26 77c0 42 11 76 26 76h96l72 84l-3 424l102 27v-251c0 -49 -1 -65 -17 -108l27 28c47 49 93 77 160 77c139 0 200 -122 200 -214c0 -23 -4 -44 -13 -62c17 -4 35 -5 61 -5h42c14 0 26 -34 26 -76c0 -43 -12 -77 -26 -77h-53c-58 0 -100 17 -131 48
c-52 -31 -128 -48 -233 -48h-310c-15 0 -26 34 -26 77zM207 150h135c111 0 159 15 192 41c-1 66 -42 117 -112 117c-41 0 -59 -6 -77 -12z" />
    <glyph glyph-name="uniFEC3" unicode="&#x637;" horiz-adv-x="681" arabic-form="initial" 
d="M-26 77c0 42 11 76 26 76h96l72 84l-3 424l102 27v-251c0 -49 -1 -65 -17 -108c8 9 17 18 25 26c47 50 95 79 162 79c139 0 200 -122 200 -214c0 -133 -92 -220 -327 -220h-310c-15 0 -26 34 -26 77zM207 150h135c111 0 159 15 192 41c-1 66 -42 117 -112 117
c-41 0 -59 -6 -77 -12z" />
    <glyph glyph-name="uniFEC6" unicode="&#x638;" horiz-adv-x="763" arabic-form="final" 
d="M44 154l9 9c28 -4 52 -6 81 -8l71 82l-3 424l101 27v-251c0 -49 0 -65 -16 -108c9 10 18 20 28 28c46 49 93 77 159 77c139 0 200 -122 200 -214c0 -23 -4 -44 -13 -62c16 -4 34 -5 59 -5h43c15 0 27 -34 27 -76c0 -43 -12 -77 -27 -77h-53c-57 0 -99 17 -130 48
c-52 -31 -128 -48 -233 -48c-119 0 -208 4 -292 15zM487 505l-103 46v17l41 87l103 -48v-15zM245 152c38 -1 82 -2 134 -2c111 0 159 15 192 41c-1 66 -42 117 -112 117c-41 0 -59 -6 -77 -12z" />
    <glyph glyph-name="uniFEC8" unicode="&#x638;" horiz-adv-x="727" arabic-form="medial" 
d="M-26 77c0 42 11 76 26 76h96l72 84l-3 424l102 27v-251c0 -49 -1 -65 -17 -108l27 28c47 49 93 77 160 77c139 0 200 -122 200 -214c0 -23 -4 -44 -13 -62c17 -4 35 -5 61 -5h42c14 0 26 -34 26 -76c0 -43 -12 -77 -26 -77h-53c-58 0 -100 17 -131 48
c-52 -31 -128 -48 -233 -48h-310c-15 0 -26 34 -26 77zM487 505l-103 46v17l41 87l103 -48v-15zM207 150h135c111 0 159 15 192 41c-1 66 -42 117 -112 117c-41 0 -59 -6 -77 -12z" />
    <glyph glyph-name="uniFEC7" unicode="&#x638;" horiz-adv-x="681" arabic-form="initial" 
d="M-26 77c0 42 11 76 26 76h96l72 84l-3 424l102 27v-251c0 -49 -1 -65 -17 -108c8 9 17 18 25 26c47 50 95 79 162 79c139 0 200 -122 200 -214c0 -133 -92 -220 -327 -220h-310c-15 0 -26 34 -26 77zM487 505l-103 46v17l41 87l103 -48v-15zM207 150h135
c111 0 159 15 192 41c-1 66 -42 117 -112 117c-41 0 -59 -6 -77 -12z" />
    <glyph glyph-name="uniFECA" unicode="&#x639;" horiz-adv-x="596" arabic-form="final" 
d="M441 -307c-250 -27 -348 66 -347 213c0 102 55 182 140 244l-24 25c-29 35 -60 70 -91 104l4 17l-70 -11l-9 9l25 110l107 21c55 10 130 21 172 21c115 0 186 -29 186 -124c0 -56 -50 -109 -107 -160c31 -6 70 -9 127 -9h42c15 0 26 -34 26 -76c0 -43 -11 -77 -26 -77
h-57c-96 0 -151 10 -214 58l-19 15c-68 -41 -109 -79 -134 -135c17 -88 66 -132 271 -110l129 13l6 -10l-27 -127zM327 191c44 29 83 61 117 95c0 27 -39 32 -104 31c-29 -1 -85 -4 -119 -9c22 -24 42 -45 63 -71c16 -18 30 -33 43 -46z" />
    <glyph glyph-name="uniFECC" unicode="&#x639;" horiz-adv-x="602" arabic-form="medial" 
d="M0 0c-15 0 -26 34 -26 77c0 42 11 76 26 76h65c54 0 96 4 131 12l-21 23c-25 31 -51 61 -78 91l4 17l-69 -11l-10 9l25 110l108 21c54 10 129 21 171 21c115 0 187 -30 187 -124c0 -56 -51 -109 -108 -160c30 -6 69 -9 124 -9h73c15 0 26 -34 26 -76
c0 -43 -11 -77 -26 -77h-100c-100 0 -154 10 -208 55c-59 -41 -117 -55 -211 -55h-83zM305 191c44 29 84 61 118 95c0 27 -40 33 -105 31c-28 -1 -85 -4 -118 -9c21 -24 41 -45 63 -71c15 -18 29 -33 42 -46z" />
    <glyph glyph-name="uniFECB" unicode="&#x639;" horiz-adv-x="486" arabic-form="initial" 
d="M0 0c-15 0 -26 34 -26 77c0 42 11 76 26 76c34 0 58 0 86 3c-9 9 -16 20 -20 31c-13 38 -5 86 16 142c35 95 105 117 177 117c46 0 71 -7 100 -15l6 -13l-13 -96c-28 3 -54 5 -77 7c-51 4 -83 0 -108 -8c-7 -19 -12 -35 -16 -53c-5 -20 -1 -41 12 -56
c15 -18 40 -30 76 -30c15 0 40 5 64 12l129 35l10 -8l-2 -114l-71 -24c-87 -30 -208 -79 -335 -82c-11 -1 -22 -1 -34 -1z" />
    <glyph glyph-name="uniFECE" unicode="&#x63a;" horiz-adv-x="596" arabic-form="final" 
d="M320 507l-103 47v16l40 88l103 -49v-15zM441 -307c-250 -27 -348 66 -347 213c0 102 55 182 140 244l-24 25c-29 35 -60 70 -91 104l4 17l-70 -11l-9 9l25 110l107 21c55 10 130 21 172 21c115 0 186 -29 186 -124c0 -56 -50 -109 -107 -160c31 -6 70 -9 127 -9h42
c15 0 26 -34 26 -76c0 -43 -11 -77 -26 -77h-57c-96 0 -151 10 -214 58l-19 15c-68 -41 -109 -79 -134 -135c17 -88 66 -132 271 -110l129 13l6 -10l-27 -127zM327 191c44 29 83 61 117 95c0 27 -39 32 -104 31c-29 -1 -85 -4 -119 -9c22 -24 42 -45 63 -71
c16 -18 30 -33 43 -46z" />
    <glyph glyph-name="uniFED0" unicode="&#x63a;" horiz-adv-x="602" arabic-form="medial" 
d="M313 507l-103 46v17l41 87l103 -48v-15zM0 0c-15 0 -26 34 -26 77c0 42 11 76 26 76h65c54 0 96 4 131 12l-21 23c-25 31 -51 61 -78 91l4 17l-69 -11l-10 9l25 110l108 21c54 10 129 21 171 21c115 0 187 -30 187 -124c0 -56 -51 -109 -108 -160c30 -6 69 -9 124 -9h73
c15 0 26 -34 26 -76c0 -43 -11 -77 -26 -77h-100c-100 0 -154 10 -208 55c-59 -41 -117 -55 -211 -55h-83zM305 191c44 29 84 61 118 95c0 27 -40 33 -105 31c-28 -1 -85 -4 -118 -9c21 -24 41 -45 63 -71c15 -18 29 -33 42 -46z" />
    <glyph glyph-name="uniFECF" unicode="&#x63a;" horiz-adv-x="486" arabic-form="initial" 
d="M240 514l-103 46v16l41 88l103 -48v-16zM0 0c-15 0 -26 34 -26 77c0 42 11 76 26 76c34 0 58 0 86 3c-9 9 -16 20 -20 31c-13 38 -5 86 16 142c35 95 105 117 177 117c46 0 71 -7 100 -15l6 -13l-13 -96c-28 3 -54 5 -77 7c-51 4 -83 0 -108 -8c-7 -19 -12 -35 -16 -53
c-5 -20 -1 -41 12 -56c15 -18 40 -30 76 -30c15 0 40 5 64 12l129 35l10 -8l-2 -114l-71 -24c-87 -30 -208 -79 -335 -82c-11 -1 -22 -1 -34 -1z" />
    <glyph glyph-name="uniFED2" unicode="&#x641;" horiz-adv-x="872" arabic-form="final" 
d="M653 505l-102 46v16l40 88l103 -48v-16zM44 166c1 29 5 67 13 113c4 23 7 45 11 69l75 11l9 -9l-16 -114c-7 -55 12 -93 183 -93c45 0 108 5 161 12c-14 29 -17 64 -6 105c19 73 50 187 136 187c133 0 196 -80 196 -166c0 -50 -17 -90 -36 -127c12 -1 25 -1 38 -1h64
c14 0 26 -34 26 -76c0 -43 -12 -77 -26 -77h-75c-72 0 -145 11 -202 36c-79 -30 -194 -46 -297 -46c-208 0 -258 73 -254 176zM558 256c-11 -52 28 -80 88 -94c51 36 77 66 77 94c0 43 -28 66 -111 75l-29 3c-10 -31 -20 -58 -25 -78z" />
    <glyph glyph-name="uniFED4" unicode="&#x641;" horiz-adv-x="487" arabic-form="medial" 
d="M263 505l-103 46v16l40 88l103 -48v-16zM0 0c-15 0 -26 34 -26 77c0 42 11 76 26 76h38c20 0 39 1 58 3c-14 29 -18 64 -6 104c19 73 50 187 136 187c133 0 196 -80 196 -166c0 -47 -16 -92 -33 -127c12 0 24 -1 36 -1h62c15 0 26 -34 26 -76c0 -43 -11 -77 -26 -77h-75
c-68 0 -137 11 -193 34c-52 -22 -109 -32 -170 -33c-16 -1 -32 -1 -49 -1zM261 162c52 36 77 66 77 94c0 43 -28 66 -111 75l-28 3c-11 -31 -21 -58 -25 -78c-11 -52 28 -80 87 -94z" />
    <glyph glyph-name="uniFED3" unicode="&#x641;" horiz-adv-x="420" arabic-form="initial" 
d="M213 649l-102 46v16l40 88l103 -48v-16zM0 0c-15 0 -26 34 -26 77c0 42 11 76 26 76h35c102 0 180 4 235 25c2 19 3 38 4 56c-51 -11 -90 -14 -139 -14c-71 0 -113 35 -114 104c0 8 0 15 1 23c16 158 75 238 169 238c75 0 113 -40 138 -83c26 -47 43 -127 46 -203
c4 -87 -17 -200 -58 -235c-55 -48 -165 -62 -272 -64h-45zM162 338c37 0 74 2 106 7c-5 47 -18 95 -29 121c-19 6 -34 9 -56 9c-44 0 -67 -16 -74 -99v-8c0 -27 17 -30 53 -30z" />
    <glyph glyph-name="uniFB6A" unicode="&#x6a4;" horiz-adv-x="828" arabic-form="isolated" 
d="M552 770l-88 40v14l35 75l88 -42v-13zM655 647l-94 42v15l37 80l94 -44v-14zM509 639l-94 42v15l37 80l94 -44v-14zM298 -10c-201 0 -255 69 -254 169c0 32 7 83 13 118c3 23 7 46 11 71l75 11l9 -9l-16 -114c-1 -6 -1 -12 -1 -18c0 -45 32 -75 184 -75
c194 0 296 12 359 35c2 19 3 38 4 56c-51 -11 -90 -14 -139 -14c-71 0 -113 36 -114 105c0 7 0 15 1 22c16 158 75 238 169 238c78 0 117 -44 142 -91c24 -46 40 -125 42 -198c3 -87 -18 -197 -58 -232c-58 -51 -219 -74 -427 -74zM578 338c33 0 66 2 98 7
c-5 47 -18 94 -29 121c-22 6 -37 9 -56 9c-44 0 -66 -16 -74 -97v-8c0 -29 20 -32 61 -32z" />
    <glyph glyph-name="uniFB6B" unicode="&#x6a4;" horiz-adv-x="872" arabic-form="final" 
d="M597 623l-89 41v14l36 75l88 -42v-14zM700 500l-94 43v15l37 80l94 -44v-14zM554 492l-94 43v15l37 80l94 -44v-14zM44 166c1 29 5 67 13 113c4 23 7 45 11 69l75 11l9 -9l-16 -114c-7 -55 12 -93 183 -93c45 0 108 5 161 12c-14 29 -17 64 -6 105c19 73 50 187 136 187
c133 0 196 -80 196 -166c0 -50 -17 -90 -36 -127c12 -1 25 -1 38 -1h64c14 0 26 -34 26 -76c0 -43 -12 -77 -26 -77h-75c-72 0 -145 11 -202 36c-79 -30 -194 -46 -297 -46c-208 0 -258 73 -254 176zM558 256c-11 -52 28 -80 88 -94c51 36 77 66 77 94c0 43 -28 66 -111 75
l-29 3c-10 -31 -20 -58 -25 -78z" />
    <glyph glyph-name="uniFB6D" unicode="&#x6a4;" horiz-adv-x="487" arabic-form="medial" 
d="M235 623l-89 41v14l36 75l88 -42v-14zM338 500l-94 43v15l37 80l94 -44v-14zM192 492l-94 43v15l37 80l94 -44v-14zM0 0c-15 0 -26 34 -26 77c0 42 11 76 26 76h38c20 0 39 1 58 3c-14 29 -18 64 -6 104c19 73 50 187 136 187c133 0 196 -80 196 -166
c0 -47 -16 -92 -33 -127c12 0 24 -1 36 -1h62c15 0 26 -34 26 -76c0 -43 -11 -77 -26 -77h-75c-68 0 -137 11 -193 34c-52 -22 -109 -32 -170 -33c-16 -1 -32 -1 -49 -1zM261 162c52 36 77 66 77 94c0 43 -28 66 -111 75l-28 3c-11 -31 -21 -58 -25 -78
c-11 -52 28 -80 87 -94z" />
    <glyph glyph-name="uniFB6C" unicode="&#x6a4;" horiz-adv-x="420" arabic-form="initial" 
d="M158 773l-88 40v14l35 76l88 -43v-13zM261 650l-94 42v15l37 80l94 -44v-14zM115 642l-94 42v15l37 80l94 -44v-14zM0 0c-15 0 -26 34 -26 77c0 42 11 76 26 76h35c102 0 180 4 235 25c2 19 3 38 4 56c-51 -11 -90 -14 -139 -14c-71 0 -113 35 -114 104c0 8 0 15 1 23
c16 158 75 238 169 238c75 0 113 -40 138 -83c26 -47 43 -127 46 -203c4 -87 -17 -200 -58 -235c-55 -48 -165 -62 -272 -64h-45zM162 338c37 0 74 2 106 7c-5 47 -18 95 -29 121c-19 6 -34 9 -56 9c-44 0 -67 -16 -74 -99v-8c0 -27 17 -30 53 -30z" />
    <glyph glyph-name="uni06A1.init" unicode="&#x6a1;" horiz-adv-x="420" 
d="M0 0c-15 0 -26 34 -26 77c0 42 11 76 26 76h35c102 0 180 4 235 25c2 19 3 38 4 56c-51 -11 -90 -14 -139 -14c-71 0 -113 35 -114 104c0 8 0 15 1 23c16 158 75 238 169 238c75 0 113 -40 138 -83c26 -47 43 -127 46 -203c4 -87 -17 -200 -58 -235
c-55 -48 -165 -62 -272 -64h-45zM162 338c37 0 74 2 106 7c-5 47 -18 95 -29 121c-19 6 -34 9 -56 9c-44 0 -67 -16 -74 -99v-8c0 -27 17 -30 53 -30z" />
    <glyph glyph-name="uni06A1.medi" unicode="&#x6a1;" horiz-adv-x="487" 
d="M0 0c-15 0 -26 34 -26 77c0 42 11 76 26 76h38c20 0 39 1 58 3c-14 29 -18 64 -6 104c19 73 50 187 136 187c133 0 196 -80 196 -166c0 -47 -16 -92 -33 -127c12 0 24 -1 36 -1h62c15 0 26 -34 26 -76c0 -43 -11 -77 -26 -77h-75c-68 0 -137 11 -193 34
c-52 -22 -109 -32 -170 -33c-16 -1 -32 -1 -49 -1zM261 162c52 36 77 66 77 94c0 43 -28 66 -111 75l-28 3c-11 -31 -21 -58 -25 -78c-11 -52 28 -80 87 -94z" />
    <glyph glyph-name="uni06A1.fina" unicode="&#x6a1;" horiz-adv-x="872" 
d="M44 166c1 29 5 67 13 113c4 23 7 45 11 69l75 11l9 -9l-16 -114c-7 -55 12 -93 183 -93c45 0 108 5 161 12c-14 29 -17 64 -6 105c19 73 50 187 136 187c133 0 196 -80 196 -166c0 -50 -17 -90 -36 -127c12 -1 25 -1 38 -1h64c14 0 26 -34 26 -76c0 -43 -12 -77 -26 -77
h-75c-72 0 -145 11 -202 36c-79 -30 -194 -46 -297 -46c-208 0 -258 73 -254 176zM558 256c-11 -52 28 -80 88 -94c51 36 77 66 77 94c0 43 -28 66 -111 75l-29 3c-10 -31 -20 -58 -25 -78z" />
    <glyph glyph-name="uni06A2.init" unicode="&#x6a2;" horiz-adv-x="420" 
d="M0 0c-15 0 -26 34 -26 77c0 42 11 76 26 76h35c102 0 180 4 235 25c2 19 3 38 4 56c-51 -11 -90 -14 -139 -14c-71 0 -113 35 -114 104c0 8 0 15 1 23c16 158 75 238 169 238c75 0 113 -40 138 -83c26 -47 43 -127 46 -203c4 -87 -17 -200 -58 -235
c-55 -48 -165 -62 -272 -64h-45zM162 338c37 0 74 2 106 7c-5 47 -18 95 -29 121c-19 6 -34 9 -56 9c-44 0 -67 -16 -74 -99v-8c0 -27 17 -30 53 -30zM198 -219l-103 47v16l41 88l103 -49v-15z" />
    <glyph glyph-name="uni06A2.medi" unicode="&#x6a2;" horiz-adv-x="487" 
d="M0 0c-15 0 -26 34 -26 77c0 42 11 76 26 76h38c20 0 39 1 58 3c-14 29 -18 64 -6 104c19 73 50 187 136 187c133 0 196 -80 196 -166c0 -47 -16 -92 -33 -127c12 0 24 -1 36 -1h62c15 0 26 -34 26 -76c0 -43 -11 -77 -26 -77h-75c-68 0 -137 11 -193 34
c-52 -22 -109 -32 -170 -33c-16 -1 -32 -1 -49 -1zM261 162c52 36 77 66 77 94c0 43 -28 66 -111 75l-28 3c-11 -31 -21 -58 -25 -78c-11 -52 28 -80 87 -94zM204 -219l-103 47v16l41 88l103 -49v-15z" />
    <glyph glyph-name="uni06A2.fina" unicode="&#x6a2;" horiz-adv-x="872" 
d="M44 166c1 29 5 67 13 113c4 23 7 45 11 69l75 11l9 -9l-16 -114c-7 -55 12 -93 183 -93c45 0 108 5 161 12c-14 29 -17 64 -6 105c19 73 50 187 136 187c133 0 196 -80 196 -166c0 -50 -17 -90 -36 -127c12 -1 25 -1 38 -1h64c14 0 26 -34 26 -76c0 -43 -12 -77 -26 -77
h-75c-72 0 -145 11 -202 36c-79 -30 -194 -46 -297 -46c-208 0 -258 73 -254 176zM558 256c-11 -52 28 -80 88 -94c51 36 77 66 77 94c0 43 -28 66 -111 75l-29 3c-10 -31 -20 -58 -25 -78zM360 -248l-103 46v16l41 88l103 -48v-16z" />
    <glyph glyph-name="uniFB6E" unicode="&#x6a6;" horiz-adv-x="828" arabic-form="isolated" 
d="M655 766l-95 43v14l38 81l94 -45v-14zM517 758l-94 43v14l37 81l94 -45v-14zM655 639l-95 43v14l38 81l94 -45v-14zM517 631l-94 43v14l37 81l94 -45v-14zM298 -10c-201 0 -255 69 -254 169c0 32 7 83 13 118c3 23 7 46 11 71l75 11l9 -9l-16 -114c-1 -6 -1 -12 -1 -18
c0 -45 32 -75 184 -75c194 0 296 12 359 35c2 19 3 38 4 56c-51 -11 -90 -14 -139 -14c-71 0 -113 36 -114 105c0 7 0 15 1 22c16 158 75 238 169 238c78 0 117 -44 142 -91c24 -46 40 -125 42 -198c3 -87 -18 -197 -58 -232c-58 -51 -219 -74 -427 -74zM578 338
c33 0 66 2 98 7c-5 47 -18 94 -29 121c-22 6 -37 9 -56 9c-44 0 -66 -16 -74 -97v-8c0 -29 20 -32 61 -32z" />
    <glyph glyph-name="uniFB6F" unicode="&#x6a6;" horiz-adv-x="872" arabic-form="final" 
d="M697 628l-95 42v15l38 80l94 -44v-14zM559 620l-94 42v15l37 80l94 -44v-14zM697 501l-95 42v15l38 80l94 -44v-14zM559 493l-94 42v15l37 80l94 -44v-14zM44 166c1 29 5 67 13 113c4 23 7 45 11 69l75 11l9 -9l-16 -114c-7 -55 12 -93 183 -93c45 0 108 5 161 12
c-14 29 -17 64 -6 105c19 73 50 187 136 187c133 0 196 -80 196 -166c0 -50 -17 -90 -36 -127c12 -1 25 -1 38 -1h64c14 0 26 -34 26 -76c0 -43 -12 -77 -26 -77h-75c-72 0 -145 11 -202 36c-79 -30 -194 -46 -297 -46c-208 0 -258 73 -254 176zM558 256
c-11 -52 28 -80 88 -94c51 36 77 66 77 94c0 43 -28 66 -111 75l-29 3c-10 -31 -20 -58 -25 -78z" />
    <glyph glyph-name="uniFB71" unicode="&#x6a6;" horiz-adv-x="487" arabic-form="medial" 
d="M320 628l-94 42v15l37 80l94 -44v-14zM183 620l-94 42v15l37 80l94 -44v-14zM320 501l-94 42v15l37 80l94 -44v-14zM183 493l-94 42v15l37 80l94 -44v-14zM0 0c-15 0 -26 34 -26 77c0 42 11 76 26 76h38c20 0 39 1 58 3c-14 29 -18 64 -6 104c19 73 50 187 136 187
c133 0 196 -80 196 -166c0 -47 -16 -92 -33 -127c12 0 24 -1 36 -1h62c15 0 26 -34 26 -76c0 -43 -11 -77 -26 -77h-75c-68 0 -137 11 -193 34c-52 -22 -109 -32 -170 -33c-16 -1 -32 -1 -49 -1zM261 162c52 36 77 66 77 94c0 43 -28 66 -111 75l-28 3
c-11 -31 -21 -58 -25 -78c-11 -52 28 -80 87 -94z" />
    <glyph glyph-name="uniFB70" unicode="&#x6a6;" horiz-adv-x="420" arabic-form="initial" 
d="M259 767l-95 42v15l38 80l94 -44v-14zM121 759l-94 42v15l37 80l94 -44v-14zM259 640l-95 42v15l38 80l94 -44v-14zM121 632l-94 42v15l37 80l94 -44v-14zM0 0c-15 0 -26 34 -26 77c0 42 11 76 26 76h35c102 0 180 4 235 25c2 19 3 38 4 56c-51 -11 -90 -14 -139 -14
c-71 0 -113 35 -114 104c0 8 0 15 1 23c16 158 75 238 169 238c75 0 113 -40 138 -83c26 -47 43 -127 46 -203c4 -87 -17 -200 -58 -235c-55 -48 -165 -62 -272 -64h-45zM162 338c37 0 74 2 106 7c-5 47 -18 95 -29 121c-19 6 -34 9 -56 9c-44 0 -67 -16 -74 -99v-8
c0 -27 17 -30 53 -30z" />
    <glyph glyph-name="uni066F.fina" unicode="&#x66f;" horiz-adv-x="672" 
d="M258 -225c-130 0 -225 58 -213 212c5 66 23 147 41 218l72 -5l7 -11c-9 -46 -23 -108 -28 -149c-13 -101 43 -120 142 -120c98 0 178 20 242 45l3 36h-129c-80 0 -129 36 -128 115c0 9 1 18 2 27c18 159 74 239 166 239c71 0 108 -35 133 -73c24 -35 43 -94 50 -156h54
c15 0 27 -34 27 -76c0 -43 -12 -77 -27 -77h-53c-10 -59 -29 -107 -57 -132c-53 -49 -152 -93 -304 -93zM411 129h107c-6 51 -19 100 -30 128c-22 6 -38 9 -57 9c-43 0 -65 -16 -73 -95c0 -3 -1 -6 -1 -9c-1 -29 17 -33 54 -33z" />
    <glyph glyph-name="uniFED6" unicode="&#x642;" horiz-adv-x="672" arabic-form="final" 
d="M505 444l-94 42v15l37 81l94 -45v-14zM362 436l-94 42v15l37 81l94 -45v-14zM258 -225c-130 0 -225 58 -213 212c5 66 23 147 41 218l72 -5l7 -11c-9 -46 -23 -108 -28 -149c-13 -101 43 -120 142 -120c98 0 178 20 242 45l3 36h-129c-80 0 -129 36 -128 115
c0 9 1 18 2 27c18 159 74 239 166 239c71 0 108 -35 133 -73c24 -35 43 -94 50 -156h54c15 0 27 -34 27 -76c0 -43 -12 -77 -27 -77h-53c-10 -59 -29 -107 -57 -132c-53 -49 -152 -93 -304 -93zM411 129h107c-6 51 -19 100 -30 128c-22 6 -38 9 -57 9c-43 0 -65 -16 -73 -95
c0 -3 -1 -6 -1 -9c-1 -29 17 -33 54 -33z" />
    <glyph glyph-name="uniFED8" unicode="&#x642;" horiz-adv-x="487" arabic-form="medial" 
d="M337 517l-94 43v15l37 80l94 -44v-14zM194 509l-94 43v15l37 80l94 -44v-14zM0 0c-15 0 -26 34 -26 77c0 42 11 76 26 76h38c20 0 39 1 58 3c-14 29 -18 64 -6 104c19 73 50 187 136 187c133 0 196 -80 196 -166c0 -47 -16 -92 -33 -127c12 0 24 -1 36 -1h62
c15 0 26 -34 26 -76c0 -43 -11 -77 -26 -77h-75c-68 0 -137 11 -193 34c-52 -22 -109 -32 -170 -33c-16 -1 -32 -1 -49 -1zM261 162c52 36 77 66 77 94c0 43 -28 66 -111 75l-28 3c-11 -31 -21 -58 -25 -78c-11 -52 28 -80 87 -94z" />
    <glyph glyph-name="uniFED7" unicode="&#x642;" horiz-adv-x="420" arabic-form="initial" 
d="M269 649l-94 42v15l38 80l94 -44v-14zM126 641l-94 42v15l38 80l94 -44v-14zM0 0c-15 0 -26 34 -26 77c0 42 11 76 26 76h35c102 0 180 4 235 25c2 19 3 38 4 56c-51 -11 -90 -14 -139 -14c-71 0 -113 35 -114 104c0 8 0 15 1 23c16 158 75 238 169 238
c75 0 113 -40 138 -83c26 -47 43 -127 46 -203c4 -87 -17 -200 -58 -235c-55 -48 -165 -62 -272 -64h-45zM162 338c37 0 74 2 106 7c-5 47 -18 95 -29 121c-19 6 -34 9 -56 9c-44 0 -67 -16 -74 -99v-8c0 -27 17 -30 53 -30z" />
    <glyph glyph-name="uniFEDA" unicode="&#x643;" horiz-adv-x="877" arabic-form="final" 
d="M298 -10c-208 0 -258 73 -254 176c1 27 5 64 12 109l12 73l75 11l9 -9l-16 -114c-7 -55 12 -93 183 -93c196 0 288 14 334 36l-5 482l105 27v-449c0 -66 22 -86 85 -86h39c14 0 26 -34 26 -76c0 -43 -12 -77 -26 -77h-44c-70 0 -115 24 -138 67c-11 -14 -23 -23 -38 -31
c-68 -37 -183 -44 -359 -46zM340 241l-49 64c79 38 110 57 136 75c-38 15 -78 28 -122 45v89l167 112l8 -78l-106 -69c25 -11 49 -20 76 -30c43 -16 58 -35 58 -59c0 -53 -66 -96 -168 -149z" />
    <glyph glyph-name="uniFEDC" unicode="&#x643;" horiz-adv-x="570" arabic-form="medial" 
d="M0 0c-15 0 -26 34 -26 77c0 42 11 76 26 76c130 0 195 7 244 28c-13 29 -35 56 -83 109l-141 159l20 133l402 111l-4 -117l-297 -85l156 -179c100 -115 146 -152 217 -157c17 -2 36 -2 56 -2c15 0 26 -34 26 -76c0 -43 -11 -77 -26 -77c-20 0 -39 1 -57 2
c-79 6 -132 34 -182 102c-2 -6 -5 -10 -8 -15c-39 -67 -136 -86 -249 -88c-25 -1 -49 -1 -74 -1z" />
    <glyph glyph-name="uniFEDB" unicode="&#x643;" horiz-adv-x="486" arabic-form="initial" 
d="M0 0c-15 0 -26 34 -26 77c0 42 11 76 26 76c144 0 208 7 258 28c-13 28 -32 57 -82 107l-156 161l20 133l402 111l-4 -117l-297 -85l164 -173c37 -41 64 -84 64 -134c0 -133 -123 -181 -321 -183c-16 -1 -32 -1 -48 -1z" />
    <glyph glyph-name="uniFB8F" unicode="&#x6a9;" horiz-adv-x="966" arabic-form="final" 
d="M298 -10c-208 0 -258 73 -254 176c1 28 5 66 13 112c4 23 7 46 11 70l75 11l9 -9l-16 -114c-7 -55 12 -93 183 -93c182 0 270 16 321 38c-11 27 -32 52 -79 104l-145 164l21 133l401 111l-4 -117l-297 -85l156 -179c107 -122 150 -155 230 -158c13 -1 28 -1 43 -1
s26 -34 26 -76c0 -43 -11 -77 -26 -77c-13 0 -26 0 -39 1c-89 3 -146 30 -199 101c-8 -13 -17 -26 -30 -36c-64 -57 -197 -74 -400 -76z" />
    <glyph glyph-name="uniFB91" unicode="&#x6a9;" horiz-adv-x="570" arabic-form="medial" 
d="M0 0c-15 0 -26 34 -26 77c0 42 11 76 26 76c130 0 195 7 244 28c-13 29 -35 56 -83 109l-141 159l20 133l402 111l-4 -117l-297 -85l156 -179c100 -115 146 -152 217 -157c17 -2 36 -2 56 -2c15 0 26 -34 26 -76c0 -43 -11 -77 -26 -77c-20 0 -39 1 -57 2
c-79 6 -132 34 -182 102c-2 -6 -5 -10 -8 -15c-39 -67 -136 -86 -249 -88c-25 -1 -49 -1 -74 -1z" />
    <glyph glyph-name="uniFB90" unicode="&#x6a9;" horiz-adv-x="486" arabic-form="initial" 
d="M0 0c-15 0 -26 34 -26 77c0 42 11 76 26 76c144 0 208 7 258 28c-13 28 -32 57 -82 107l-156 161l20 133l402 111l-4 -117l-297 -85l164 -173c37 -41 64 -84 64 -134c0 -133 -123 -181 -321 -183c-16 -1 -32 -1 -48 -1z" />
    <glyph glyph-name="uniFB93" unicode="&#x6af;" horiz-adv-x="966" arabic-form="final" 
d="M444 627l13 82l260 73l-5 -81zM298 -10c-208 0 -258 73 -254 176c1 28 5 66 13 112c4 23 7 46 11 70l75 11l9 -9l-16 -114c-7 -55 12 -93 183 -93c182 0 270 16 321 38c-11 27 -32 52 -79 104l-145 164l21 133l401 111l-4 -117l-297 -85l156 -179
c107 -122 150 -155 230 -158c13 -1 28 -1 43 -1s26 -34 26 -76c0 -43 -11 -77 -26 -77c-13 0 -26 0 -39 1c-89 3 -146 30 -199 101c-8 -13 -17 -26 -30 -36c-64 -57 -197 -74 -400 -76z" />
    <glyph glyph-name="uniFB95" unicode="&#x6af;" horiz-adv-x="570" arabic-form="medial" 
d="M46 626l13 83l260 72l-4 -80zM0 0c-15 0 -26 34 -26 77c0 42 11 76 26 76c130 0 195 7 244 28c-13 29 -35 56 -83 109l-141 159l20 133l402 111l-4 -117l-297 -85l156 -179c100 -115 146 -152 217 -157c17 -2 36 -2 56 -2c15 0 26 -34 26 -76c0 -43 -11 -77 -26 -77
c-20 0 -39 1 -57 2c-79 6 -132 34 -182 102c-2 -6 -5 -10 -8 -15c-39 -67 -136 -86 -249 -88c-25 -1 -49 -1 -74 -1z" />
    <glyph glyph-name="uniFB94" unicode="&#x6af;" horiz-adv-x="486" arabic-form="initial" 
d="M46 626l13 83l260 72l-4 -80zM0 0c-15 0 -26 34 -26 77c0 42 11 76 26 76c144 0 208 7 258 28c-13 28 -32 57 -82 107l-156 161l20 133l402 111l-4 -117l-297 -85l164 -173c37 -41 64 -84 64 -134c0 -133 -123 -181 -321 -183c-16 -1 -32 -1 -48 -1z" />
    <glyph glyph-name="uni06B0.init" unicode="&#x6b0;" horiz-adv-x="489" 
d="M320 780l-4 -80l-269 -75l14 83zM442 693l-4 -117l-47 -14c10 -13 17 -31 17 -50c0 -45 -36 -81 -81 -81s-81 36 -81 81c0 3 0 6 1 9l-106 -30l164 -173c37 -41 64 -84 64 -134c0 -133 -123 -181 -321 -183c-16 -1 -32 -1 -48 -1c-15 0 -26 34 -26 77c0 42 11 76 26 76
c144 0 208 7 258 28c-13 28 -32 57 -82 107l-156 161l20 133zM327 480c17 0 32 15 32 32s-15 31 -32 31s-31 -14 -31 -31s14 -32 31 -32z" />
    <glyph glyph-name="uni06B0.medi" unicode="&#x6b0;" horiz-adv-x="570" 
d="M320 780l-4 -80l-269 -75l14 83zM570 153c15 0 26 -34 26 -76c0 -43 -11 -77 -26 -77c-20 0 -39 1 -57 2c-79 6 -132 34 -182 102c-2 -6 -5 -10 -8 -15c-39 -67 -136 -86 -249 -88c-25 -1 -49 -1 -74 -1c-15 0 -26 34 -26 77c0 42 11 76 26 76c130 0 195 7 244 28
c-13 29 -35 56 -83 109l-141 159l20 133l402 111l-4 -117l-47 -13c11 -14 18 -32 18 -51c0 -45 -36 -81 -81 -81s-81 36 -81 81c0 3 0 6 1 9l-107 -30l156 -179c100 -115 146 -152 217 -157c17 -2 36 -2 56 -2zM328 480c17 0 31 15 31 32s-14 31 -31 31s-32 -14 -32 -31
s15 -32 32 -32z" />
    <glyph glyph-name="uni06B0.fina" unicode="&#x6b0;" horiz-adv-x="966" 
d="M715 783l-5 -80l-268 -75l13 83zM966 153c15 0 26 -34 26 -76c0 -43 -11 -77 -26 -77c-13 0 -26 0 -39 1c-89 3 -146 30 -199 101c-8 -13 -17 -26 -30 -36c-64 -57 -197 -74 -400 -76c-208 0 -258 73 -254 176c1 28 5 66 13 112c4 23 7 46 11 70l75 11l9 -9l-16 -114
c-7 -55 12 -93 183 -93c182 0 270 16 321 38c-11 27 -32 52 -79 104l-145 164l21 133l401 111l-4 -117l-59 -17c9 -13 15 -29 15 -47c0 -45 -36 -81 -81 -81s-81 36 -81 81v5l-91 -26l156 -179c107 -122 150 -155 230 -158c13 -1 28 -1 43 -1zM740 512c0 15 -10 27 -24 30
l-29 -8c-6 -6 -10 -14 -10 -22c0 -17 15 -32 32 -32s31 15 31 32z" />
    <glyph glyph-name="uni06AA.init" unicode="&#x6aa;" horiz-adv-x="917" 
d="M0 0c-15 0 -26 34 -26 77c0 42 11 76 26 76h314c140 0 230 3 339 7c56 2 103 5 140 9c0 10 -1 25 -11 39c-13 27 -46 59 -137 59h-419c-93 0 -169 30 -169 121c0 35 9 67 28 96c25 38 68 70 133 92l193 70l-22 -122l-120 -36c-46 -14 -96 -29 -131 -43c1 -8 2 -15 4 -20
c6 -18 22 -26 66 -26h401c201 0 264 -115 264 -217c0 -139 -88 -182 -506 -182h-367z" />
    <glyph glyph-name="uni06AA.medi" unicode="&#x6aa;" horiz-adv-x="979" 
d="M-26 77c0 42 11 76 26 76h285c145 0 240 3 355 7c60 2 112 5 153 9c0 9 -1 20 -6 31c-10 30 -41 67 -142 67h-419c-93 0 -169 30 -169 121c0 36 10 70 32 101c26 35 68 66 129 87l193 70l-22 -122l-120 -36c-46 -14 -96 -29 -131 -43c1 -12 3 -21 8 -29
c8 -11 26 -17 62 -17h401c189 0 251 -104 261 -192c2 -16 2 -32 0 -48c19 -5 40 -6 68 -6h41c14 0 26 -34 26 -76c0 -43 -12 -77 -26 -77h-56c-47 0 -86 15 -119 47c-64 -35 -190 -47 -437 -47h-367c-15 0 -26 34 -26 77z" />
    <glyph glyph-name="uni06AA.fina" unicode="&#x6aa;" horiz-adv-x="1053" 
d="M441 0c-145 0 -268 3 -379 9l-18 144l8 9c88 -6 176 -9 323 -9c143 0 235 3 348 7c57 2 106 5 144 9c0 9 -1 18 -6 27c-9 30 -38 71 -141 71h-420c-93 0 -169 30 -169 121c0 38 11 73 34 105c26 34 67 63 127 83l193 70l-22 -122l-120 -36c-45 -14 -96 -29 -130 -43
c0 -10 1 -19 6 -26c7 -14 25 -20 63 -20h401c193 0 256 -107 263 -199c1 -15 1 -28 -2 -41c19 -5 40 -6 67 -6h42c14 0 26 -34 26 -76c0 -43 -12 -77 -26 -77h-56c-46 0 -86 15 -118 47c-65 -35 -191 -47 -438 -47z" />
    <glyph glyph-name="uni06AB.init" unicode="&#x6ab;" horiz-adv-x="486" 
d="M442 693l-4 -117l-47 -14c10 -13 17 -31 17 -50c0 -45 -36 -81 -81 -81s-81 36 -81 81c0 3 0 6 1 9l-106 -30l164 -173c37 -41 64 -84 64 -134c0 -133 -123 -181 -321 -183c-16 -1 -32 -1 -48 -1c-15 0 -26 34 -26 77c0 42 11 76 26 76c144 0 208 7 258 28
c-13 28 -32 57 -82 107l-156 161l20 133zM327 480c17 0 32 15 32 32s-15 31 -32 31s-31 -14 -31 -31s14 -32 31 -32z" />
    <glyph glyph-name="uni06AB.medi" unicode="&#x6ab;" horiz-adv-x="570" 
d="M570 153c15 0 26 -34 26 -76c0 -43 -11 -77 -26 -77c-20 0 -39 1 -57 2c-79 6 -132 34 -182 102c-2 -6 -5 -10 -8 -15c-39 -67 -136 -86 -249 -88c-25 -1 -49 -1 -74 -1c-15 0 -26 34 -26 77c0 42 11 76 26 76c130 0 195 7 244 28c-13 29 -35 56 -83 109l-141 159l20 133
l402 111l-4 -117l-47 -14c10 -13 17 -31 17 -50c0 -45 -36 -81 -81 -81s-81 36 -81 81c0 3 0 6 1 9l-106 -30l156 -179c100 -115 146 -152 217 -157c17 -2 36 -2 56 -2zM327 543c-3 0 -5 0 -8 -1l-2 -1c-12 -4 -22 -15 -22 -29c0 -17 15 -32 32 -32s31 15 31 32
s-14 31 -31 31z" />
    <glyph glyph-name="uni06AB.fina" unicode="&#x6ab;" horiz-adv-x="966" 
d="M966 153c15 0 26 -34 26 -76c0 -43 -11 -77 -26 -77c-13 0 -26 0 -39 1c-89 3 -146 30 -199 101c-8 -13 -17 -26 -30 -36c-64 -57 -197 -74 -400 -76c-208 0 -258 73 -254 176c1 28 5 66 13 112c4 23 7 46 11 70l75 11l9 -9l-16 -114c-7 -55 12 -93 183 -93
c182 0 270 16 321 38c-11 27 -32 52 -79 104l-145 164l21 133l401 111l-4 -117l-60 -17c10 -13 15 -29 15 -47c0 -45 -36 -81 -81 -81s-81 36 -81 81v5l-90 -26l156 -179c107 -122 150 -155 230 -158c13 -1 28 -1 43 -1zM740 512c0 14 -11 27 -25 30l-29 -8
c-6 -6 -9 -14 -9 -22c0 -17 14 -32 31 -32s32 15 32 32z" />
    <glyph glyph-name="uniFBD3" unicode="&#x6ad;" horiz-adv-x="785" arabic-form="isolated" 
d="M346 698l-66 30v11l27 56l66 -32v-10zM423 606l-70 32v11l28 60l70 -33v-11zM314 600l-70 32v11l28 60l70 -33v-11zM327 -10c-98 0 -191 12 -265 24l-18 123l9 8c77 -8 170 -15 286 -15c153 0 247 14 302 34l-5 497l105 27l-1 -508c0 -46 -12 -80 -37 -104
c-54 -70 -188 -86 -376 -86zM299 249l-40 53c64 31 90 47 111 61c-31 13 -64 24 -101 38v73l139 92l6 -64l-88 -57c21 -9 41 -16 63 -25c36 -12 48 -28 48 -48c0 -44 -55 -79 -138 -123z" />
    <glyph glyph-name="uniFBD4" unicode="&#x6ad;" horiz-adv-x="877" arabic-form="final" 
d="M394 698l-66 30v11l26 56l66 -32v-10zM471 606l-70 32v11l27 60l71 -33v-11zM362 600l-70 32v11l27 60l71 -33v-11zM298 -10c-208 0 -258 73 -254 176c1 27 5 64 12 109l12 73l75 11l9 -9l-16 -114c-7 -55 12 -93 183 -93c196 0 288 14 334 36l-5 482l105 27v-449
c0 -66 22 -86 85 -86h39c14 0 26 -34 26 -76c0 -43 -12 -77 -26 -77h-44c-70 0 -115 24 -138 67c-11 -14 -23 -23 -38 -31c-68 -37 -183 -44 -359 -46zM346 249l-40 53c65 31 91 47 112 61c-31 13 -64 24 -101 38v73l138 92l6 -64l-87 -57c21 -9 41 -16 63 -25
c35 -12 48 -28 48 -48c0 -44 -55 -79 -139 -123z" />
    <glyph glyph-name="uniFBD6" unicode="&#x6ad;" horiz-adv-x="570" arabic-form="medial" 
d="M178 785l-91 24l-3 14l22 78l92 -26l2 -12zM298 685l-97 25l-3 14l22 83l98 -26l2 -14zM159 652l-97 25l-3 14l22 84l98 -27l3 -13zM0 0c-15 0 -26 34 -26 77c0 42 11 76 26 76c130 0 195 7 244 28c-13 29 -35 56 -83 109l-141 159l20 133l402 111l-4 -117l-297 -85
l156 -179c100 -115 146 -152 217 -157c17 -2 36 -2 56 -2c15 0 26 -34 26 -76c0 -43 -11 -77 -26 -77c-20 0 -39 1 -57 2c-79 6 -132 34 -182 102c-2 -6 -5 -10 -8 -15c-39 -67 -136 -86 -249 -88c-25 -1 -49 -1 -74 -1z" />
    <glyph glyph-name="uniFBD5" unicode="&#x6ad;" horiz-adv-x="486" arabic-form="initial" 
d="M178 785l-91 24l-3 14l22 78l92 -26l2 -12zM298 685l-97 25l-3 14l22 83l98 -26l2 -14zM159 652l-97 25l-3 14l22 84l98 -27l3 -13zM0 0c-15 0 -26 34 -26 77c0 42 11 76 26 76c144 0 208 7 258 28c-13 28 -32 57 -82 107l-156 161l20 133l402 111l-4 -117l-297 -85
l164 -173c37 -41 64 -84 64 -134c0 -133 -123 -181 -321 -183c-16 -1 -32 -1 -48 -1z" />
    <glyph glyph-name="uniFB9A" unicode="&#x6b1;" horiz-adv-x="882" arabic-form="isolated" 
d="M652 795l-100 25l-3 15l23 85l101 -27l2 -14zM513 762l-100 26l-3 14l23 86l100 -28l3 -13zM443 626l13 83l260 72l-5 -80zM298 -10c-201 0 -255 69 -254 169c0 6 0 16 1 26c2 25 6 58 12 97c4 22 7 44 11 66l75 11l9 -9l-16 -114c-1 -6 -1 -11 -1 -17
c0 -45 31 -76 184 -76c196 0 284 16 335 38c-13 28 -32 57 -82 107l-156 161l21 133l401 111l-4 -117l-297 -85l164 -173c37 -41 64 -84 64 -132c1 -140 -133 -193 -467 -196z" />
    <glyph glyph-name="uniFB9B" unicode="&#x6b1;" horiz-adv-x="966" arabic-form="final" 
d="M638 794l-100 25l-3 15l23 86l100 -28l3 -14zM498 761l-100 26l-2 14l23 86l100 -28l2 -13zM444 627l13 82l260 73l-5 -81zM298 -10c-208 0 -258 73 -254 176c1 28 5 66 13 112c4 23 7 46 11 70l75 11l9 -9l-16 -114c-7 -55 12 -93 183 -93c182 0 270 16 321 38
c-11 27 -32 52 -79 104l-145 164l21 133l401 111l-4 -117l-297 -85l156 -179c107 -122 150 -155 230 -158c13 -1 28 -1 43 -1s26 -34 26 -76c0 -43 -11 -77 -26 -77c-13 0 -26 0 -39 1c-89 3 -146 30 -199 101c-8 -13 -17 -26 -30 -36c-64 -57 -197 -74 -400 -76z" />
    <glyph glyph-name="uniFB9D" unicode="&#x6b1;" horiz-adv-x="570" arabic-form="medial" 
d="M266 795l-100 25l-2 15l23 85l100 -27l2 -14zM127 762l-100 25l-3 15l23 85l100 -27l3 -14zM46 626l13 83l260 72l-4 -80zM0 0c-15 0 -26 34 -26 77c0 42 11 76 26 76c130 0 195 7 244 28c-13 29 -35 56 -83 109l-141 159l20 133l402 111l-4 -117l-297 -85l156 -179
c100 -115 146 -152 217 -157c17 -2 36 -2 56 -2c15 0 26 -34 26 -76c0 -43 -11 -77 -26 -77c-20 0 -39 1 -57 2c-79 6 -132 34 -182 102c-2 -6 -5 -10 -8 -15c-39 -67 -136 -86 -249 -88c-25 -1 -49 -1 -74 -1z" />
    <glyph glyph-name="uniFB9C" unicode="&#x6b1;" horiz-adv-x="486" arabic-form="initial" 
d="M266 795l-100 25l-2 15l23 85l100 -27l2 -14zM127 762l-100 25l-3 15l23 85l100 -27l3 -14zM46 626l13 83l260 72l-4 -80zM0 0c-15 0 -26 34 -26 77c0 42 11 76 26 76c144 0 208 7 258 28c-13 28 -32 57 -82 107l-156 161l20 133l402 111l-4 -117l-297 -85l164 -173
c37 -41 64 -84 64 -134c0 -133 -123 -181 -321 -183c-16 -1 -32 -1 -48 -1z" />
    <glyph glyph-name="uniFB96" unicode="&#x6b3;" horiz-adv-x="882" arabic-form="isolated" 
d="M443 626l13 83l260 72l-5 -80zM298 -10c-201 0 -255 69 -254 169c0 6 0 16 1 26c2 25 6 58 12 97c4 22 7 44 11 66l75 11l9 -9l-16 -114c-1 -6 -1 -11 -1 -17c0 -45 31 -76 184 -76c196 0 284 16 335 38c-13 28 -32 57 -82 107l-156 161l21 133l401 111l-4 -117l-297 -85
l164 -173c37 -41 64 -84 64 -132c1 -140 -133 -193 -467 -196zM368 -228l-94 43v15l37 80l94 -45v-14zM368 -360l-94 43v15l37 80l94 -44v-14z" />
    <glyph glyph-name="uniFB97" unicode="&#x6b3;" horiz-adv-x="966" arabic-form="final" 
d="M444 627l13 82l260 73l-5 -81zM298 -10c-208 0 -258 73 -254 176c1 28 5 66 13 112c4 23 7 46 11 70l75 11l9 -9l-16 -114c-7 -55 12 -93 183 -93c182 0 270 16 321 38c-11 27 -32 52 -79 104l-145 164l21 133l401 111l-4 -117l-297 -85l156 -179
c107 -122 150 -155 230 -158c13 -1 28 -1 43 -1s26 -34 26 -76c0 -43 -11 -77 -26 -77c-13 0 -26 0 -39 1c-89 3 -146 30 -199 101c-8 -13 -17 -26 -30 -36c-64 -57 -197 -74 -400 -76zM364 -225l-94 42v15l37 81l94 -45v-14zM364 -357l-94 43v14l37 81l94 -45v-14z" />
    <glyph glyph-name="uniFB99" unicode="&#x6b3;" horiz-adv-x="570" arabic-form="medial" 
d="M46 626l13 83l260 72l-4 -80zM0 0c-15 0 -26 34 -26 77c0 42 11 76 26 76c130 0 195 7 244 28c-13 29 -35 56 -83 109l-141 159l20 133l402 111l-4 -117l-297 -85l156 -179c100 -115 146 -152 217 -157c17 -2 36 -2 56 -2c15 0 26 -34 26 -76c0 -43 -11 -77 -26 -77
c-20 0 -39 1 -57 2c-79 6 -132 34 -182 102c-2 -6 -5 -10 -8 -15c-39 -67 -136 -86 -249 -88c-25 -1 -49 -1 -74 -1zM242 -197l-94 42v15l37 80l94 -44v-14zM242 -329l-94 42v15l37 80l94 -44v-14z" />
    <glyph glyph-name="uniFB98" unicode="&#x6b3;" horiz-adv-x="486" arabic-form="initial" 
d="M46 626l13 83l260 72l-4 -80zM0 0c-15 0 -26 34 -26 77c0 42 11 76 26 76c144 0 208 7 258 28c-13 28 -32 57 -82 107l-156 161l20 133l402 111l-4 -117l-297 -85l164 -173c37 -41 64 -84 64 -134c0 -133 -123 -181 -321 -183c-16 -1 -32 -1 -48 -1zM246 -196l-94 42v15
l37 80l94 -44v-14zM246 -328l-94 42v15l37 81l94 -45v-14z" />
    <glyph glyph-name="uniFEDE" unicode="&#x644;" horiz-adv-x="700" arabic-form="final" 
d="M51 19c6 66 24 147 41 218l72 -5l8 -11c-10 -45 -23 -107 -29 -149c-12 -93 43 -112 136 -112c89 0 153 23 197 49l-22 652l101 27l14 -469c3 -51 27 -66 86 -66h45c14 0 26 -34 26 -76c0 -43 -12 -77 -26 -77h-34c-36 0 -68 6 -93 20c-1 -9 -1 -18 -2 -27
c-1 -26 -15 -70 -43 -95c-59 -55 -139 -91 -270 -91c-124 0 -219 58 -207 212z" />
    <glyph glyph-name="uniFEE0" unicode="&#x644;" horiz-adv-x="362" arabic-form="medial" 
d="M-26 77c0 42 11 76 26 76c7 0 15 0 22 1c46 2 89 9 117 25l-4 482l101 27v-449c0 -66 22 -86 86 -86h40c14 0 26 -34 26 -76c0 -43 -12 -77 -26 -77h-38c-66 0 -110 19 -136 56c-37 -34 -93 -53 -160 -55c-9 -1 -19 -1 -28 -1c-15 0 -26 34 -26 77z" />
    <glyph glyph-name="uniFEDF" unicode="&#x644;" horiz-adv-x="282" arabic-form="initial" 
d="M0 0c-15 0 -26 34 -26 77c0 42 11 76 26 76h14c49 2 98 10 127 26l-5 482l102 27v-511c0 -111 -87 -174 -217 -177h-21z" />
    <glyph glyph-name="uni06B5.init" unicode="&#x6b5;" horiz-adv-x="282" 
d="M161 713l-89 230l47 37l62 -173l68 173l44 -37l-85 -205zM0 0c-15 0 -26 34 -26 77c0 42 11 76 26 76h14c49 2 98 10 127 26l-5 482l102 27v-511c0 -111 -87 -174 -217 -177h-21z" />
    <glyph glyph-name="uni06B5.medi" unicode="&#x6b5;" horiz-adv-x="362" 
d="M161 713l-89 230l47 37l62 -173l68 173l44 -37l-85 -205zM-26 77c0 42 11 76 26 76c7 0 15 0 22 1c46 2 89 9 117 25l-4 482l101 27v-449c0 -66 22 -86 86 -86h40c14 0 26 -34 26 -76c0 -43 -12 -77 -26 -77h-38c-66 0 -110 19 -136 56c-37 -34 -93 -53 -160 -55
c-9 -1 -19 -1 -28 -1c-15 0 -26 34 -26 77z" />
    <glyph glyph-name="uni06B5.fina" unicode="&#x6b5;" horiz-adv-x="700" 
d="M51 19c6 66 24 147 41 218l72 -5l8 -11c-10 -45 -23 -107 -29 -149c-12 -93 43 -112 136 -112c89 0 153 23 197 49l-22 652l101 27l14 -469c3 -51 27 -66 86 -66h45c14 0 26 -34 26 -76c0 -43 -12 -77 -26 -77h-34c-36 0 -68 6 -93 20c-1 -9 -1 -18 -2 -27
c-1 -26 -15 -70 -43 -95c-59 -55 -139 -91 -270 -91c-124 0 -219 58 -207 212zM239 311l-89 230l47 36l63 -172l67 173l44 -37l-85 -205z" />
    <glyph glyph-name="uniFEE2" unicode="&#x645;" horiz-adv-x="633" arabic-form="final" 
d="M54 -258l-10 354c-3 79 15 132 66 177c56 50 250 121 345 121c31 0 43 -11 51 -47l19 -89c16 -71 34 -105 108 -105c14 0 26 -34 26 -76c0 -43 -12 -77 -26 -77h-22c-46 0 -96 16 -125 69c-1 -3 -3 -6 -4 -9l-30 -70h-84c-82 0 -168 26 -168 127c0 28 5 60 13 97
c-25 -10 -47 -21 -65 -32c-3 -101 5 -271 10 -413zM384 126h60l-23 120c-2 13 -6 19 -20 19c-30 0 -69 -9 -108 -21c-6 -35 -8 -54 -8 -69c0 -41 39 -49 99 -49z" />
    <glyph glyph-name="uniFEE4" unicode="&#x645;" horiz-adv-x="568" arabic-form="medial" 
d="M402 -10c-97 0 -204 18 -270 74c-26 -37 -50 -64 -117 -64h-15c-15 0 -26 34 -26 77c0 42 11 76 26 76h21c57 0 84 30 103 64l54 96c27 50 64 77 120 77c57 0 96 -22 131 -47l26 -104c17 -65 43 -86 113 -86c14 0 26 -34 26 -76c0 -43 -12 -77 -26 -77h-16
c-36 0 -84 15 -113 54l-4 -7zM375 122c-5 46 -14 87 -25 131c-15 9 -33 14 -57 14c-46 0 -63 -40 -94 -94c28 -25 103 -48 176 -51z" />
    <glyph glyph-name="uniFEE3" unicode="&#x645;" horiz-adv-x="511" arabic-form="initial" 
d="M-26 77c0 42 11 76 26 76h21c57 0 84 30 103 64l54 96c27 50 64 77 120 77c121 0 179 -123 168 -298l-64 -102c-97 0 -204 18 -270 74c-26 -37 -50 -64 -117 -64h-15c-15 0 -26 34 -26 77zM199 173c28 -25 102 -47 176 -50c1 80 -28 144 -82 144c-12 0 -27 -3 -44 -7
c-18 -32 -35 -60 -50 -87z" />
    <glyph glyph-name="uniFEE6" unicode="&#x646;" horiz-adv-x="742" arabic-form="final" 
d="M265 -193c-137 0 -232 58 -220 212c5 66 23 147 41 218l72 -5l7 -11c-9 -45 -23 -107 -28 -149c-12 -93 43 -112 149 -112c120 0 206 34 252 58c-10 75 -24 159 -43 264l88 56l14 -6l19 -106c11 -56 30 -73 85 -73h41c15 0 26 -34 26 -76c0 -43 -11 -77 -26 -77h-23
c-33 0 -61 8 -85 25c0 -8 0 -15 -1 -22c-3 -28 -10 -68 -45 -98c-59 -55 -169 -98 -323 -98zM355 150l-103 47v16l41 88l103 -49v-15z" />
    <glyph glyph-name="uniFEE8" unicode="&#x646;" horiz-adv-x="372" arabic-form="medial" 
d="M186 392l-103 46v16l41 88l103 -48v-16zM0 0c-15 0 -26 34 -26 77c0 42 11 76 26 76h59c69 0 101 10 110 56l20 105l11 8l80 -21l-14 -85c-5 -35 18 -63 68 -63h38c15 0 26 -34 26 -76c0 -43 -11 -77 -26 -77h-45c-62 0 -102 27 -122 69c-36 -54 -86 -68 -149 -69h-56z
" />
    <glyph glyph-name="uniFEE7" unicode="&#x646;" horiz-adv-x="335" arabic-form="initial" 
d="M190 469l-103 46v16l41 88l103 -49v-15zM0 0c-15 0 -26 34 -26 77c0 42 12 76 26 76c71 0 139 9 183 30l-26 162l100 63l11 -7c14 -103 24 -164 24 -205c0 -67 -21 -115 -63 -145c-59 -42 -144 -51 -229 -51z" />
    <glyph glyph-name="uniFB9F" unicode="&#x6ba;" horiz-adv-x="742" arabic-form="final" 
d="M265 -193c-137 0 -232 58 -220 212c5 66 23 147 41 218l72 -5l7 -11c-9 -45 -23 -107 -28 -149c-12 -93 43 -112 149 -112c120 0 206 34 252 58c-10 75 -24 159 -43 264l88 56l14 -6l19 -106c11 -56 30 -73 85 -73h41c15 0 26 -34 26 -76c0 -43 -11 -77 -26 -77h-23
c-33 0 -61 8 -85 25c0 -8 0 -15 -1 -22c-3 -28 -10 -68 -45 -98c-59 -55 -169 -98 -323 -98z" />
    <glyph glyph-name="uniFBA0" unicode="&#x6bb;" horiz-adv-x="681" arabic-form="isolated" 
d="M166 332h39l35 43l-1 202l48 12v-156c9 10 19 18 28 25c18 12 39 18 62 18c68 0 90 -60 90 -99c0 -64 -48 -108 -171 -108h-121zM260 332h40c67 0 103 8 124 24c-1 39 -17 60 -54 60c-21 0 -30 -2 -48 -6zM265 -193c-137 0 -232 58 -220 212c5 66 23 147 41 218l72 -5
l7 -11c-9 -45 -23 -107 -28 -149c-12 -93 43 -112 149 -112c120 0 206 34 252 58c-10 75 -24 159 -43 264l88 56l14 -6c22 -136 40 -242 40 -300c0 -39 -9 -91 -49 -127c-59 -55 -169 -98 -323 -98z" />
    <glyph glyph-name="uniFBA1" unicode="&#x6bb;" horiz-adv-x="742" arabic-form="final" 
d="M166 332h39l35 43l-1 202l48 12v-156c9 10 19 18 28 25c18 12 39 18 62 18c68 0 90 -60 90 -99c0 -64 -48 -108 -171 -108h-121zM260 332h40c67 0 103 8 124 24c-1 39 -17 60 -54 60c-21 0 -30 -2 -48 -6zM265 -193c-137 0 -232 58 -220 212c5 66 23 147 41 218l72 -5
l7 -11c-9 -45 -23 -107 -28 -149c-12 -93 43 -112 149 -112c120 0 206 34 252 58c-10 75 -24 159 -43 264l88 56l14 -6l19 -106c11 -56 30 -73 85 -73h41c15 0 26 -34 26 -76c0 -43 -11 -77 -26 -77h-23c-33 0 -61 8 -85 25c0 -8 0 -15 -1 -22c-3 -28 -10 -68 -45 -98
c-59 -55 -169 -98 -323 -98z" />
    <glyph glyph-name="uniFBA3" unicode="&#x6bb;" horiz-adv-x="372" arabic-form="medial" 
d="M3 442h39l35 43l-2 202l49 12v-157c9 10 18 19 28 26c18 12 38 18 62 18c68 0 90 -61 90 -100c0 -63 -48 -107 -171 -107h-121zM96 442h41c67 0 103 7 124 24c-1 39 -17 59 -54 59c-21 0 -30 -1 -48 -5zM0 0c-15 0 -26 34 -26 77c0 42 11 76 26 76h59c69 0 101 10 110 56
l20 105l11 8l80 -21l-14 -85c-5 -35 18 -63 68 -63h38c15 0 26 -34 26 -76c0 -43 -11 -77 -26 -77h-45c-62 0 -102 27 -122 69c-36 -54 -86 -68 -149 -69h-56z" />
    <glyph glyph-name="uniFBA2" unicode="&#x6bb;" horiz-adv-x="335" arabic-form="initial" 
d="M-22 518h40l35 43l-2 202l49 12v-156c9 10 18 19 28 25c17 13 38 18 62 18c67 0 89 -60 89 -99c0 -64 -47 -108 -171 -108h-121zM72 518h41c67 0 102 8 124 24c-1 39 -17 60 -55 60c-20 0 -29 -1 -47 -5zM0 0c-15 0 -26 34 -26 77c0 42 12 76 26 76c71 0 139 9 183 30
l-26 162l100 63l11 -7c14 -103 24 -164 24 -205c0 -67 -21 -115 -63 -145c-59 -42 -144 -51 -229 -51z" />
    <glyph glyph-name="uni06BC.init" unicode="&#x6bc;" horiz-adv-x="335" 
d="M231 555l-41 -86l-103 46v16l41 88l103 -49v-15zM268 401c14 -103 24 -164 24 -205c0 -67 -21 -115 -63 -145c-11 -8 -22 -14 -35 -20c12 -14 19 -32 19 -52c0 -45 -36 -81 -81 -81s-81 36 -81 81c0 8 1 15 3 22c-18 -1 -36 -1 -54 -1c-15 0 -26 34 -26 77
c0 42 12 76 26 76c71 0 139 9 183 30l-26 162l100 63zM132 11h-2c-2 -1 -5 -1 -8 -2c-12 -4 -22 -16 -22 -30c0 -17 15 -32 32 -32s31 15 31 32s-14 32 -31 32z" />
    <glyph glyph-name="uni06BC.medi" unicode="&#x6bc;" horiz-adv-x="372" 
d="M227 478l-41 -86l-103 46v16l41 88l103 -48v-16zM372 153c15 0 26 -34 26 -76c0 -43 -11 -77 -26 -77h-45c-62 0 -102 27 -122 69c-10 -15 -21 -27 -33 -36c15 -15 24 -35 24 -58c0 -45 -36 -81 -81 -81s-81 36 -81 81c0 9 1 17 4 25h-38c-15 0 -26 34 -26 77
c0 42 11 76 26 76h59c69 0 101 10 110 56l20 105l11 8l80 -21l-14 -85c-5 -35 18 -63 68 -63h38zM146 -25c0 16 -13 31 -29 32l-16 -3c-10 -6 -18 -17 -18 -29c0 -17 15 -31 32 -31s31 14 31 31z" />
    <glyph glyph-name="uni06BC.fina" unicode="&#x6bc;" horiz-adv-x="742" 
d="M742 153c15 0 26 -34 26 -76c0 -43 -11 -77 -26 -77h-23c-33 0 -61 8 -85 25c0 -8 0 -15 -1 -22c-3 -28 -10 -68 -45 -98c-54 -50 -150 -90 -283 -97c5 -11 8 -22 8 -35c0 -45 -36 -81 -81 -81s-81 36 -81 81c0 18 5 34 15 47c-81 25 -130 86 -121 199
c5 66 23 147 41 218l72 -5l7 -11c-9 -45 -23 -107 -28 -149c-12 -93 43 -112 149 -112c120 0 206 34 252 58c-10 75 -24 159 -43 264l88 56l14 -6l19 -106c11 -56 30 -73 85 -73h41zM396 237l-41 -87l-103 47v16l41 88l103 -49v-15zM232 -259c17 0 32 15 32 32
s-15 31 -32 31s-32 -14 -32 -31s15 -32 32 -32z" />
    <glyph glyph-name="uniFEE9" unicode="&#x647;" horiz-adv-x="696" arabic-form="isolated" 
d="M103 -43l-59 106l2 15c25 7 49 15 73 22c18 6 34 11 50 17c-25 28 -40 59 -39 99c0 19 4 37 10 57c13 43 24 75 39 98l-41 13l26 115l15 8l248 -80c172 -55 224 -125 225 -260c0 -24 -1 -50 -4 -79l-61 -90l-196 23c-26 3 -54 6 -81 12c-42 -19 -91 -37 -147 -55z
M302 172c43 27 71 61 71 89c0 33 -25 57 -68 69c-16 5 -34 8 -53 10c-10 -14 -22 -45 -31 -79c-2 -6 -3 -12 -3 -18c0 -39 37 -60 84 -71zM562 135c0 17 0 32 -2 47c-5 44 -24 79 -87 99l-29 10c1 -9 1 -19 0 -28c-1 -42 -14 -77 -35 -108c11 -1 22 -3 33 -4z" />
    <glyph glyph-name="uniFEEA" unicode="&#x647;" horiz-adv-x="509" arabic-form="final" 
d="M476 0c-71 0 -122 29 -148 96l-27 -59c-28 -4 -58 -5 -86 -5c-108 0 -171 39 -171 127c0 80 43 158 158 213l100 47v68l102 30v-291c0 -48 21 -73 71 -73h34c15 0 26 -34 26 -76c0 -43 -11 -77 -26 -77h-33zM247 167h55v139l-52 -22l-113 -50c-1 -8 -2 -14 -2 -20
c0 -39 28 -47 112 -47z" />
    <glyph glyph-name="uniFEEC" unicode="&#x647;" horiz-adv-x="575" arabic-form="medial" 
d="M220 -236c-79 83 -121 165 -126 237l-94 -1c-15 0 -26 34 -26 77c0 42 11 76 26 76h102c19 94 38 167 66 265l96 66l74 -80c75 -82 83 -125 83 -172c0 -28 -3 -57 -19 -85c-37 -62 -98 -112 -210 -134c10 -52 43 -96 84 -137l75 124c56 95 99 153 193 153h31
c15 0 26 -34 26 -76c0 -43 -11 -77 -26 -77h-36c-73 0 -92 -31 -139 -111l-73 -125h-107zM190 153c88 5 129 40 144 65c0 22 -38 70 -90 128c-25 -76 -39 -122 -54 -193z" />
    <glyph glyph-name="uniFEEB" unicode="&#x647;" horiz-adv-x="658" arabic-form="initial" 
d="M0 0c-15 0 -26 34 -26 77c0 42 11 76 26 76h36c20 0 50 1 75 3c-11 15 -17 33 -19 55c-1 18 3 38 10 62c13 43 24 75 39 98l-41 13l26 115l15 8l248 -80c172 -55 224 -125 225 -261c0 -24 -2 -50 -4 -78l-61 -90l-196 23c-36 4 -76 9 -112 21c-60 -29 -131 -42 -198 -42
h-43zM264 172c44 27 71 61 71 89c0 35 -29 61 -78 72c-13 4 -28 6 -43 7c-10 -14 -22 -45 -31 -79c-2 -6 -2 -12 -2 -17c-1 -40 36 -61 83 -72zM523 135c0 17 0 33 -1 47c-6 44 -24 79 -87 99l-29 10v-29c-1 -41 -14 -76 -35 -107c11 -1 22 -3 33 -4z" />
    <glyph glyph-name="uniFBA5" unicode="&#x6c0;" horiz-adv-x="509" arabic-form="final" 
d="M209 538l14 74l36 14c-19 16 -31 43 -31 69c0 58 45 103 104 108c11 1 21 0 32 -2l32 -6l1 -68l-25 3c-14 2 -25 3 -35 3c-24 0 -40 -3 -52 -7c-1 -7 -1 -13 0 -19c0 -27 18 -42 42 -42c10 0 20 1 31 4l83 22l4 -4l-14 -74l-24 -8c-67 -24 -134 -48 -194 -70zM476 0
c-71 0 -122 29 -148 96l-27 -59c-28 -4 -58 -5 -86 -5c-108 0 -171 39 -171 127c0 80 43 158 158 213l100 47v68l102 30v-291c0 -48 21 -73 71 -73h34c15 0 26 -34 26 -76c0 -43 -11 -77 -26 -77h-33zM247 167h55v139l-52 -22l-113 -50c-1 -8 -2 -14 -2 -20
c0 -39 28 -47 112 -47z" />
    <glyph glyph-name="uniFBA6" unicode="&#x6c1;" horiz-adv-x="462" arabic-form="isolated" 
d="M209 -10c-90 0 -164 36 -165 131c-1 57 20 117 93 228l-38 29l51 111l13 2l97 -76c105 -81 157 -145 158 -232c1 -132 -99 -193 -209 -193zM219 131c50 0 88 11 110 48c-18 35 -53 69 -125 126c-45 -68 -66 -105 -66 -133c0 -29 29 -41 81 -41z" />
    <glyph glyph-name="uniFBA7" unicode="&#x6c1;" horiz-adv-x="523" arabic-form="final" 
d="M482 0c-73 0 -138 36 -162 161l-19 105l-51 -46c-72 -66 -105 -96 -155 -168l-51 60c33 92 65 147 156 233l90 85l88 -40l28 -159c8 -49 31 -78 84 -78h33c15 0 27 -34 27 -76c0 -43 -12 -77 -27 -77h-41z" />
    <glyph glyph-name="uniFBA9" unicode="&#x6c1;" horiz-adv-x="568" arabic-form="medial" 
d="M220 -236c-71 91 -80 179 -71 279c-25 -32 -58 -43 -105 -43h-44c-15 0 -26 34 -26 77c0 42 11 76 26 76h55c76 0 110 27 125 81l26 90l83 -20l6 -12l-21 -86c-39 -156 -39 -257 1 -321l69 115c56 95 99 153 193 153h31c15 0 27 -34 27 -76c0 -43 -12 -77 -27 -77h-36
c-73 0 -92 -31 -139 -111l-72 -125h-101zM91 -265c-74 0 -97 47 -96 80c0 29 13 59 47 101l41 49l38 -44l-29 -36c-13 -16 -18 -26 -18 -35c0 -11 20 -23 53 -30z" />
    <glyph glyph-name="uniFBA8" unicode="&#x6c1;" horiz-adv-x="335" arabic-form="initial" 
d="M0 0c-15 0 -26 34 -26 77c0 42 12 76 26 76c71 0 139 9 183 30l-26 162l100 63l11 -7c14 -103 24 -164 24 -205c0 -67 -21 -115 -63 -145c-59 -42 -144 -51 -229 -51zM35 -170c0 29 13 60 47 101l41 50l38 -45l-29 -35c-13 -16 -18 -26 -18 -35c0 -12 20 -24 53 -30
l-36 -86c-74 0 -97 47 -96 80z" />
    <glyph glyph-name="uni06C2.init" unicode="&#x6c2;" horiz-adv-x="335" 
d="M46 422l14 74l36 14c-19 16 -31 43 -31 69c0 58 45 103 104 108c11 1 21 0 32 -2l32 -6v-68l-24 3c-14 2 -25 3 -35 3c-24 0 -40 -3 -52 -7c-1 -7 -1 -13 0 -19c0 -27 18 -42 42 -42c10 0 20 1 31 4l83 22l4 -4l-14 -74l-24 -8c-67 -24 -134 -48 -194 -70zM0 0
c-15 0 -26 34 -26 77c0 42 12 76 26 76c71 0 139 9 183 30l-26 162l100 63l11 -7c14 -103 24 -164 24 -205c0 -67 -21 -115 -63 -145c-59 -42 -144 -51 -229 -51zM35 -170c0 29 13 60 47 101l41 50l38 -45l-29 -35c-13 -16 -18 -26 -18 -35c0 -12 20 -24 53 -30l-36 -86
c-74 0 -97 47 -96 80z" />
    <glyph glyph-name="uni06C2.medi" unicode="&#x6c2;" horiz-adv-x="568" 
d="M114 384l15 73l35 15c-19 15 -31 42 -31 69c0 58 45 103 104 108c11 1 21 -1 33 -3c10 -1 21 -4 31 -6l1 -68c-8 2 -17 3 -25 4c-13 1 -25 2 -35 2c-24 0 -40 -3 -51 -7c-1 -7 -1 -13 -1 -18c1 -27 18 -43 42 -43c10 0 21 1 31 4l83 23l4 -4l-14 -74l-24 -8
c-67 -24 -133 -49 -194 -71zM220 -236c-71 91 -80 179 -71 279c-25 -32 -58 -43 -105 -43h-44c-15 0 -26 34 -26 77c0 42 11 76 26 76h55c76 0 110 27 125 81l26 90l83 -20l6 -12l-21 -86c-39 -156 -39 -257 1 -321l69 115c56 95 99 153 193 153h31c15 0 27 -34 27 -76
c0 -43 -12 -77 -27 -77h-36c-73 0 -92 -31 -139 -111l-72 -125h-101z" />
    <glyph glyph-name="uni06C2.fina" unicode="&#x6c2;" horiz-adv-x="509" 
d="M209 538l14 74l36 14c-19 16 -31 43 -31 69c0 58 45 103 104 108c11 1 21 0 32 -2l32 -6l1 -68l-25 3c-14 2 -25 3 -35 3c-24 0 -40 -3 -52 -7c-1 -7 -1 -13 0 -19c0 -27 18 -42 42 -42c10 0 20 1 31 4l83 22l4 -4l-14 -74l-24 -8c-67 -24 -134 -48 -194 -70zM476 0
c-71 0 -122 29 -148 96l-27 -59c-28 -4 -58 -5 -86 -5c-108 0 -171 39 -171 127c0 80 43 158 158 213l100 47v68l102 30v-291c0 -48 21 -73 71 -73h34c15 0 26 -34 26 -76c0 -43 -11 -77 -26 -77h-33zM247 167h55v139l-52 -22l-113 -50c-1 -8 -2 -14 -2 -20
c0 -39 28 -47 112 -47z" />
    <glyph glyph-name="uniFBAA" unicode="&#x6be;" horiz-adv-x="696" arabic-form="isolated" 
d="M103 -43l-59 106l2 15c25 7 49 15 73 22c18 6 34 11 50 17c-25 28 -40 59 -39 99c0 19 4 37 10 57c13 43 24 75 39 98l-41 13l26 115l15 8l248 -80c172 -55 224 -125 225 -260c0 -24 -1 -50 -4 -79l-61 -90l-196 23c-26 3 -54 6 -81 12c-42 -19 -91 -37 -147 -55z
M302 172c43 27 71 61 71 89c0 33 -25 57 -68 69c-16 5 -34 8 -53 10c-10 -14 -22 -45 -31 -79c-2 -6 -3 -12 -3 -18c0 -39 37 -60 84 -71zM562 135c0 17 0 32 -2 47c-5 44 -24 79 -87 99l-29 10c1 -9 1 -19 0 -28c-1 -42 -14 -77 -35 -108c11 -1 22 -3 33 -4z" />
    <glyph glyph-name="uniFBAB" unicode="&#x6be;" horiz-adv-x="661" arabic-form="final" 
d="M381 -246c-134 0 -197 104 -196 232l-88 -27l-53 109l3 15l148 41c20 111 38 177 71 294l96 66l74 -80c75 -82 83 -125 83 -172c0 -24 -1 -49 -15 -72c-4 -8 -8 -15 -14 -22c26 10 54 15 84 15h87c15 0 26 -34 26 -76c0 -43 -11 -77 -26 -77h-123c12 -24 16 -49 16 -74
c0 -87 -75 -172 -173 -172zM288 153c88 21 132 43 144 65c0 22 -38 70 -90 128c-24 -76 -39 -123 -54 -193zM383 -121c57 0 88 42 92 67c-11 44 -59 67 -130 67h-64c-5 -90 36 -134 102 -134z" />
    <glyph glyph-name="uniFBAD" unicode="&#x6be;" horiz-adv-x="700" arabic-form="medial" 
d="M0 0c-15 0 -26 34 -26 77c0 42 11 76 26 76h36c20 0 49 1 75 3c-12 17 -18 36 -19 60c0 17 3 35 10 57c13 43 24 75 39 98l-41 13l26 115l15 8l248 -80c139 -44 200 -96 217 -192c4 -25 6 -51 6 -82h47h41c15 0 26 -34 26 -76c0 -43 -11 -77 -26 -77c-59 0 -103 1 -146 3
c-63 2 -98 7 -189 17c-48 5 -88 10 -124 22c-60 -29 -131 -42 -198 -42h-43zM265 172c43 27 70 61 70 89c0 34 -27 58 -73 71c-14 4 -31 7 -48 8c-10 -14 -22 -45 -31 -79c-2 -6 -2 -12 -2 -18c-1 -39 37 -60 84 -71zM523 134c1 25 0 49 -5 70c-9 33 -31 61 -83 77l-29 10
v-26c-1 -42 -14 -77 -35 -110c11 -1 22 -3 33 -4z" />
    <glyph glyph-name="uniFBAC" unicode="&#x6be;" horiz-adv-x="658" arabic-form="initial" 
d="M0 0c-15 0 -26 34 -26 77c0 42 11 76 26 76h36c20 0 50 1 75 3c-11 15 -17 33 -19 55c-1 18 3 38 10 62c13 43 24 75 39 98l-41 13l26 115l15 8l248 -80c172 -55 224 -125 225 -261c0 -24 -2 -50 -4 -78l-61 -90l-196 23c-36 4 -76 9 -112 21c-60 -29 -131 -42 -198 -42
h-43zM264 172c44 27 71 61 71 89c0 35 -29 61 -78 72c-13 4 -28 6 -43 7c-10 -14 -22 -45 -31 -79c-2 -6 -2 -12 -2 -17c-1 -40 36 -61 83 -72zM523 135c0 17 0 33 -1 47c-6 44 -24 79 -87 99l-29 10v-29c-1 -41 -14 -76 -35 -107c11 -1 22 -3 33 -4z" />
    <glyph glyph-name="uniFCD9" unicode="&#xfcd9;" horiz-adv-x="658" arabic-form="initial" 
d="M341 543l-5 182l66 12v-123c0 -26 -3 -58 -6 -70zM0 0c-15 0 -26 34 -26 77c0 42 11 76 26 76h36c20 0 50 1 75 3c-11 15 -17 33 -19 55c-1 18 3 38 10 62c13 43 24 75 39 98l-41 13l26 115l15 8l248 -80c172 -55 224 -125 225 -261c0 -24 -2 -50 -4 -78l-61 -90l-196 23
c-36 4 -76 9 -112 21c-60 -29 -131 -42 -198 -42h-43zM264 172c44 27 71 61 71 89c0 35 -29 61 -78 72c-13 4 -28 6 -43 7c-10 -14 -22 -45 -31 -79c-2 -6 -2 -12 -2 -17c-1 -40 36 -61 83 -72zM523 135c0 17 0 33 -1 47c-6 44 -24 79 -87 99l-29 10v-29
c-1 -41 -14 -76 -35 -107c11 -1 22 -3 33 -4z" />
    <glyph glyph-name="uniFE93" unicode="&#x629;" horiz-adv-x="462" arabic-form="isolated" 
d="M246 542l-94 43v15l37 80l94 -45v-13zM103 534l-94 43v15l37 80l94 -45v-13zM209 -10c-90 0 -164 36 -165 131c-1 57 20 117 93 228l-38 29l51 111l13 2l97 -76c105 -81 157 -145 158 -232c1 -132 -99 -193 -209 -193zM219 131c50 0 88 11 110 48c-18 35 -53 69 -125 126
c-45 -68 -66 -105 -66 -133c0 -29 29 -41 81 -41z" />
    <glyph glyph-name="uniFE94" unicode="&#x629;" horiz-adv-x="509" arabic-form="final" 
d="M338 571l-94 42v15l37 80l94 -44v-14zM195 563l-94 42v15l37 80l94 -44v-14zM476 0c-71 0 -122 29 -148 96l-27 -59c-28 -4 -58 -5 -86 -5c-108 0 -171 39 -171 127c0 80 43 158 158 213l100 47v68l102 30v-291c0 -48 21 -73 71 -73h34c15 0 26 -34 26 -76
c0 -43 -11 -77 -26 -77h-33zM247 167h55v139l-52 -22l-113 -50c-1 -8 -2 -14 -2 -20c0 -39 28 -47 112 -47z" />
    <glyph glyph-name="uni06C3.fina" unicode="&#x6c3;" horiz-adv-x="523" 
d="M354 511l-94 42v15l37 80l95 -44v-14zM211 503l-94 42v15l37 80l95 -44v-14zM482 0c-73 0 -138 36 -162 161l-19 105l-51 -46c-72 -66 -105 -96 -155 -168l-51 60c33 92 65 147 156 233l90 85l88 -40l28 -159c8 -49 31 -78 84 -78h33c15 0 27 -34 27 -76
c0 -43 -12 -77 -27 -77h-41z" />
    <glyph glyph-name="uniFEEE" unicode="&#x648;" horiz-adv-x="470" arabic-form="final" 
d="M200 -236c-29 -3 -86 14 -139 32l-26 93l6 10c47 -4 91 -6 116 -5c80 6 134 67 166 117h-120c-80 0 -128 36 -127 115c0 9 1 18 1 27c19 158 75 239 167 239c73 0 111 -38 137 -77c18 -29 33 -73 42 -121c3 -13 5 -27 6 -41h41c15 0 26 -34 26 -76c0 -43 -11 -77 -26 -77
h-48c-32 -133 -134 -229 -222 -236zM219 139c39 -1 78 0 112 1c-8 51 -22 100 -35 126c-21 6 -37 9 -56 9c-43 0 -65 -15 -73 -93c0 -4 -1 -8 -1 -12c0 -28 17 -31 53 -31z" />
    <glyph glyph-name="uni06C4.fina" unicode="&#x6c4;" horiz-adv-x="470" 
d="M470 153c15 0 26 -34 26 -76c0 -43 -11 -77 -26 -77h-48c-26 -106 -96 -189 -168 -221c10 -13 15 -30 15 -47c0 -45 -36 -81 -81 -81s-81 36 -81 81c0 17 5 32 14 45c-20 6 -40 12 -60 19l-26 93l6 10c47 -4 91 -6 116 -5c80 6 134 67 166 117h-120
c-80 0 -128 36 -127 115c0 9 1 18 1 27c19 158 75 239 167 239c73 0 111 -38 137 -77c18 -29 33 -73 42 -121c3 -13 5 -27 6 -41h41zM219 139c39 -1 78 0 112 1c-8 51 -22 100 -35 126c-21 6 -37 9 -56 9c-43 0 -65 -15 -73 -93c0 -4 -1 -8 -1 -12c0 -28 17 -31 53 -31z
M188 -300c17 0 31 15 31 32c0 15 -12 29 -27 32h-6c-16 -1 -30 -16 -30 -32c0 -17 15 -32 32 -32z" />
    <glyph glyph-name="uni06CA.fina" unicode="&#x6ca;" horiz-adv-x="470" 
d="M301 437l-94 43v15l37 80l94 -45v-14zM158 429l-94 43v15l37 80l94 -45v-14zM200 -236c-29 -3 -86 14 -139 32l-26 93l6 10c47 -4 91 -6 116 -5c80 6 134 67 166 117h-120c-80 0 -128 36 -127 115c0 9 1 18 1 27c19 158 75 239 167 239c73 0 111 -38 137 -77
c18 -29 33 -73 42 -121c3 -13 5 -27 6 -41h41c15 0 26 -34 26 -76c0 -43 -11 -77 -26 -77h-48c-32 -133 -134 -229 -222 -236zM219 139c39 -1 78 0 112 1c-8 51 -22 100 -35 126c-21 6 -37 9 -56 9c-43 0 -65 -15 -73 -93c0 -4 -1 -8 -1 -12c0 -28 17 -31 53 -31z" />
    <glyph glyph-name="uniFE85" unicode="&#x624;" horiz-adv-x="477" arabic-form="isolated" 
d="M112 447l15 73l35 15c-19 15 -30 42 -30 68c0 58 44 103 103 109c11 0 22 -1 33 -3c10 -1 21 -4 32 -6v-68l-25 3c-13 2 -25 3 -35 3c-24 0 -39 -3 -51 -7c-1 -7 -1 -13 -1 -19c1 -26 18 -42 43 -42c9 0 20 1 30 4l83 22l4 -4l-14 -73l-24 -9c-67 -23 -133 -48 -194 -70z
M200 -236c-29 -3 -86 14 -139 32l-26 93l6 10c47 -4 91 -6 116 -5c87 6 146 80 175 131c-47 -11 -92 -14 -129 -14c-80 0 -128 36 -127 115c0 9 1 17 1 27c19 158 75 239 167 239c76 0 116 -41 142 -84c29 -50 48 -136 48 -217c0 -174 -124 -320 -234 -327zM219 139
c39 -1 77 1 112 6c-9 50 -23 95 -35 121c-21 6 -37 9 -56 9c-42 0 -65 -15 -73 -93c0 -3 -1 -7 -1 -11c-1 -29 16 -32 53 -32z" />
    <glyph glyph-name="uniFE86" unicode="&#x624;" horiz-adv-x="470" arabic-form="final" 
d="M112 447l15 73l35 15c-19 15 -30 42 -30 68c0 58 44 103 103 109c11 0 22 -1 33 -3c10 -1 21 -4 32 -6v-68l-25 3c-13 2 -25 3 -35 3c-24 0 -39 -3 -51 -7c-1 -7 -1 -13 -1 -19c1 -26 18 -42 43 -42c9 0 20 1 30 4l83 22l4 -4l-14 -73l-24 -9c-67 -23 -133 -48 -194 -70z
M200 -236c-29 -3 -86 14 -139 32l-26 93l6 10c47 -4 91 -6 116 -5c80 6 134 67 166 117h-120c-80 0 -128 36 -127 115c0 9 1 18 1 27c19 158 75 239 167 239c73 0 111 -38 137 -77c18 -29 33 -73 42 -121c3 -13 5 -27 6 -41h41c15 0 26 -34 26 -76c0 -43 -11 -77 -26 -77
h-48c-32 -133 -134 -229 -222 -236zM219 139c39 -1 78 0 112 1c-8 51 -22 100 -35 126c-21 6 -37 9 -56 9c-43 0 -65 -15 -73 -93c0 -4 -1 -8 -1 -12c0 -28 17 -31 53 -31z" />
    <glyph glyph-name="uniFBD9" unicode="&#x6c6;" horiz-adv-x="477" arabic-form="isolated" 
d="M222 452l-89 230l47 37l62 -172l67 172l45 -36l-85 -206zM200 -236c-29 -3 -86 14 -139 32l-26 93l6 10c47 -4 91 -6 116 -5c87 6 146 80 175 131c-47 -11 -92 -14 -129 -14c-80 0 -128 36 -127 115c0 9 1 17 1 27c19 158 75 239 167 239c76 0 116 -41 142 -84
c29 -50 48 -136 48 -217c0 -174 -124 -320 -234 -327zM219 139c39 -1 77 1 112 6c-9 50 -23 95 -35 121c-21 6 -37 9 -56 9c-42 0 -65 -15 -73 -93c0 -3 -1 -7 -1 -11c-1 -29 16 -32 53 -32z" />
    <glyph glyph-name="uniFBDA" unicode="&#x6c6;" horiz-adv-x="470" arabic-form="final" 
d="M223 459l-89 230l47 37l62 -172l67 172l45 -36l-85 -206zM200 -236c-29 -3 -86 14 -139 32l-26 93l6 10c47 -4 91 -6 116 -5c80 6 134 67 166 117h-120c-80 0 -128 36 -127 115c0 9 1 18 1 27c19 158 75 239 167 239c73 0 111 -38 137 -77c18 -29 33 -73 42 -121
c3 -13 5 -27 6 -41h41c15 0 26 -34 26 -76c0 -43 -11 -77 -26 -77h-48c-32 -133 -134 -229 -222 -236zM219 139c39 -1 78 0 112 1c-8 51 -22 100 -35 126c-21 6 -37 9 -56 9c-43 0 -65 -15 -73 -93c0 -4 -1 -8 -1 -12c0 -28 17 -31 53 -31z" />
    <glyph glyph-name="uniFBD7" unicode="&#x6c7;" horiz-adv-x="477" arabic-form="isolated" 
d="M106 437l14 75l77 31c-15 28 -21 49 -21 68c0 60 44 97 99 97c61 0 102 -38 102 -97c0 -44 -25 -85 -81 -106l-186 -71zM238 609c0 -11 9 -30 21 -51c28 8 57 25 57 51c0 19 -18 35 -43 34c-18 -1 -35 -14 -35 -34zM200 -236c-29 -3 -86 14 -139 32l-26 93l6 10
c47 -4 91 -6 116 -5c87 6 146 80 175 131c-47 -11 -92 -14 -129 -14c-80 0 -128 36 -127 115c0 9 1 17 1 27c19 158 75 239 167 239c76 0 116 -41 142 -84c29 -50 48 -136 48 -217c0 -174 -124 -320 -234 -327zM219 139c39 -1 77 1 112 6c-9 50 -23 95 -35 121
c-21 6 -37 9 -56 9c-42 0 -65 -15 -73 -93c0 -3 -1 -7 -1 -11c-1 -29 16 -32 53 -32z" />
    <glyph glyph-name="uniFBD8" unicode="&#x6c7;" horiz-adv-x="470" arabic-form="final" 
d="M106 437l14 75l77 31c-15 28 -21 49 -21 68c0 60 44 97 99 97c61 0 102 -38 102 -97c0 -44 -25 -85 -81 -106l-186 -71zM238 609c0 -11 9 -30 21 -51c28 8 57 25 57 51c0 19 -18 35 -43 34c-18 -1 -35 -14 -35 -34zM200 -236c-29 -3 -86 14 -139 32l-26 93l6 10
c47 -4 91 -6 116 -5c80 6 134 67 166 117h-120c-80 0 -128 36 -127 115c0 9 1 18 1 27c19 158 75 239 167 239c73 0 111 -38 137 -77c18 -29 33 -73 42 -121c3 -13 5 -27 6 -41h41c15 0 26 -34 26 -76c0 -43 -11 -77 -26 -77h-48c-32 -133 -134 -229 -222 -236zM219 139
c39 -1 78 0 112 1c-8 51 -22 100 -35 126c-21 6 -37 9 -56 9c-43 0 -65 -15 -73 -93c0 -4 -1 -8 -1 -12c0 -28 17 -31 53 -31z" />
    <glyph glyph-name="uniFBDB" unicode="&#x6c8;" horiz-adv-x="477" arabic-form="isolated" 
d="M217 453l-6 183l67 11v-123c0 -26 -4 -58 -7 -69zM200 -236c-29 -3 -86 14 -139 32l-26 93l6 10c47 -4 91 -6 116 -5c87 6 146 80 175 131c-47 -11 -92 -14 -129 -14c-80 0 -128 36 -127 115c0 9 1 17 1 27c19 158 75 239 167 239c76 0 116 -41 142 -84
c29 -50 48 -136 48 -217c0 -174 -124 -320 -234 -327zM219 139c39 -1 77 1 112 6c-9 50 -23 95 -35 121c-21 6 -37 9 -56 9c-42 0 -65 -15 -73 -93c0 -3 -1 -7 -1 -11c-1 -29 16 -32 53 -32z" />
    <glyph glyph-name="uniFBDC" unicode="&#x6c8;" horiz-adv-x="470" arabic-form="final" 
d="M217 453l-6 183l67 11v-123c0 -26 -4 -58 -7 -69zM200 -236c-29 -3 -86 14 -139 32l-26 93l6 10c47 -4 91 -6 116 -5c80 6 134 67 166 117h-120c-80 0 -128 36 -127 115c0 9 1 18 1 27c19 158 75 239 167 239c73 0 111 -38 137 -77c18 -29 33 -73 42 -121
c3 -13 5 -27 6 -41h41c15 0 26 -34 26 -76c0 -43 -11 -77 -26 -77h-48c-32 -133 -134 -229 -222 -236zM219 139c39 -1 78 0 112 1c-8 51 -22 100 -35 126c-21 6 -37 9 -56 9c-43 0 -65 -15 -73 -93c0 -4 -1 -8 -1 -12c0 -28 17 -31 53 -31z" />
    <glyph glyph-name="uniFBE2" unicode="&#x6c9;" horiz-adv-x="477" arabic-form="isolated" 
d="M221 715l47 -25l86 -205l-45 -37l-67 173l-63 -173l-47 37zM200 -236c-29 -3 -86 14 -139 32l-26 93l6 10c47 -4 91 -6 116 -5c87 6 146 80 175 131c-47 -11 -92 -14 -129 -14c-80 0 -128 36 -127 115c0 9 1 17 1 27c19 158 75 239 167 239c76 0 116 -41 142 -84
c29 -50 48 -136 48 -217c0 -174 -124 -320 -234 -327zM219 139c39 -1 77 1 112 6c-9 50 -23 95 -35 121c-21 6 -37 9 -56 9c-42 0 -65 -15 -73 -93c0 -3 -1 -7 -1 -11c-1 -29 16 -32 53 -32z" />
    <glyph glyph-name="uniFBE3" unicode="&#x6c9;" horiz-adv-x="470" arabic-form="final" 
d="M200 715l48 -25l85 -205l-45 -37l-67 173l-62 -173l-47 37zM200 -236c-29 -3 -86 14 -139 32l-26 93l6 10c47 -4 91 -6 116 -5c80 6 134 67 166 117h-120c-80 0 -128 36 -127 115c0 9 1 18 1 27c19 158 75 239 167 239c73 0 111 -38 137 -77c18 -29 33 -73 42 -121
c3 -13 5 -27 6 -41h41c15 0 26 -34 26 -76c0 -43 -11 -77 -26 -77h-48c-32 -133 -134 -229 -222 -236zM219 139c39 -1 78 0 112 1c-8 51 -22 100 -35 126c-21 6 -37 9 -56 9c-43 0 -65 -15 -73 -93c0 -4 -1 -8 -1 -12c0 -28 17 -31 53 -31z" />
    <glyph glyph-name="uniFBDE" unicode="&#x6cb;" horiz-adv-x="477" arabic-form="isolated" 
d="M192 550l-88 41v14l35 75l89 -42v-14zM295 427l-94 43v15l37 80l95 -45v-13zM149 419l-94 43v15l38 80l94 -45v-13zM200 -236c-29 -3 -86 14 -139 32l-26 93l6 10c47 -4 91 -6 116 -5c87 6 146 80 175 131c-47 -11 -92 -14 -129 -14c-80 0 -128 36 -127 115
c0 9 1 17 1 27c19 158 75 239 167 239c76 0 116 -41 142 -84c29 -50 48 -136 48 -217c0 -174 -124 -320 -234 -327zM219 139c39 -1 77 1 112 6c-9 50 -23 95 -35 121c-21 6 -37 9 -56 9c-42 0 -65 -15 -73 -93c0 -3 -1 -7 -1 -11c-1 -29 16 -32 53 -32z" />
    <glyph glyph-name="uniFBDF" unicode="&#x6cb;" horiz-adv-x="470" arabic-form="final" 
d="M192 550l-88 41v14l35 75l89 -42v-14zM295 427l-94 43v15l37 80l95 -45v-13zM149 419l-94 43v15l38 80l94 -45v-13zM200 -236c-29 -3 -86 14 -139 32l-26 93l6 10c47 -4 91 -6 116 -5c80 6 134 67 166 117h-120c-80 0 -128 36 -127 115c0 9 1 18 1 27
c19 158 75 239 167 239c73 0 111 -38 137 -77c18 -29 33 -73 42 -121c3 -13 5 -27 6 -41h41c15 0 26 -34 26 -76c0 -43 -11 -77 -26 -77h-48c-32 -133 -134 -229 -222 -236zM219 139c39 -1 78 0 112 1c-8 51 -22 100 -35 126c-21 6 -37 9 -56 9c-43 0 -65 -15 -73 -93
c0 -4 -1 -8 -1 -12c0 -28 17 -31 53 -31z" />
    <glyph glyph-name="uniFEF0" unicode="&#x649;" horiz-adv-x="635" arabic-form="final" 
d="M635 153c15 0 27 -34 27 -76c0 -43 -12 -77 -27 -77h-48c-15 0 -33 4 -49 9c11 -8 21 -18 27 -23c39 -41 8 -98 -36 -128c-49 -32 -141 -65 -257 -65c-149 0 -230 67 -218 212c5 66 23 147 41 218l72 -5l8 -11c-10 -45 -23 -107 -29 -155c-13 -98 42 -116 142 -116
c85 0 166 23 212 42l-187 66l-3 10l37 99h288z" />
    <glyph glyph-name="uniFC5D" unicode="&#xfc5d;" horiz-adv-x="673" arabic-form="isolated" 
d="M146 295l-6 182l67 12v-123c0 -26 -4 -58 -7 -70zM265 -193c-135 0 -229 56 -220 206c4 67 22 150 41 224l72 -5l7 -11c-9 -45 -25 -117 -29 -157c-9 -94 47 -111 150 -111c116 0 204 35 253 54c1 27 -7 36 -54 36h-52c-105 0 -162 28 -161 100c0 10 1 22 4 34
c21 99 129 276 211 276c35 -2 69 -28 107 -62l-20 -88l-11 -5c-40 22 -65 34 -86 33c-36 -1 -95 -84 -119 -143c22 -19 50 -23 138 -23c107 0 133 -49 133 -116c0 -56 -25 -123 -66 -156c-53 -45 -167 -86 -298 -86z" />
    <glyph glyph-name="uniFC90" unicode="&#xfc90;" horiz-adv-x="635" arabic-form="final" 
d="M259 278l-54 -2l-5 183l66 11v-123c0 -25 -3 -58 -7 -69zM635 153c15 0 27 -34 27 -76c0 -43 -12 -77 -27 -77h-48c-15 0 -33 4 -49 9c11 -8 21 -18 27 -23c39 -41 8 -98 -36 -128c-49 -32 -141 -65 -257 -65c-149 0 -230 67 -218 212c5 66 23 147 41 218l72 -5l8 -11
c-10 -45 -23 -107 -29 -155c-13 -98 42 -116 142 -116c85 0 166 23 212 42l-187 66l-3 10l37 99h288z" />
    <glyph glyph-name="uniFEF1" unicode="&#x64a;" horiz-adv-x="673" arabic-form="isolated" 
d="M265 -193c-135 0 -229 56 -220 206c4 67 22 150 41 224l72 -5l7 -11c-9 -45 -25 -117 -29 -157c-9 -94 47 -111 150 -111c116 0 204 35 253 54c1 27 -7 36 -54 36h-52c-105 0 -162 28 -161 100c0 10 1 22 4 34c21 99 129 276 211 276c35 -2 69 -28 107 -62l-20 -88
l-11 -5c-40 22 -65 34 -86 33c-36 -1 -95 -84 -119 -143c22 -19 50 -23 138 -23c107 0 133 -49 133 -116c0 -56 -25 -123 -66 -156c-53 -45 -167 -86 -298 -86zM407 -380l-94 43v15l37 80l94 -45v-14zM264 -388l-94 43v15l37 80l94 -45v-14z" />
    <glyph glyph-name="uniFEF2" unicode="&#x64a;" horiz-adv-x="635" arabic-form="final" 
d="M635 153c15 0 27 -34 27 -76c0 -43 -12 -77 -27 -77h-48c-15 0 -33 4 -49 9c11 -8 21 -18 27 -23c39 -41 8 -98 -36 -128c-49 -32 -141 -65 -257 -65c-149 0 -230 67 -218 212c5 66 23 147 41 218l72 -5l8 -11c-10 -45 -23 -107 -29 -155c-13 -98 42 -116 142 -116
c85 0 166 23 212 42l-187 66l-3 10l37 99h288zM292 -329l37 80l95 -45v-13l-38 -80l-94 43v15zM149 -337l37 80l95 -45v-13l-38 -80l-94 43v15z" />
    <glyph glyph-name="uniFEF4" unicode="&#x64a;" horiz-adv-x="372" arabic-form="medial" 
d="M0 0c-15 0 -26 34 -26 77c0 42 11 76 26 76h59c69 0 101 10 110 56l20 105l11 8l80 -21l-14 -85c-5 -35 18 -63 68 -63h38c15 0 26 -34 26 -76c0 -43 -11 -77 -26 -77h-45c-62 0 -102 27 -122 69c-36 -54 -86 -68 -149 -69h-56zM265 -224l-94 43v15l37 80l94 -44v-14z
M122 -232l-94 43v15l37 80l94 -44v-14z" />
    <glyph glyph-name="uniFEF3" unicode="&#x64a;" horiz-adv-x="335" arabic-form="initial" 
d="M0 0c-15 0 -26 34 -26 77c0 42 12 76 26 76c71 0 139 9 183 30l-26 162l100 63l11 -7c14 -103 24 -164 24 -205c0 -67 -21 -115 -63 -145c-59 -42 -144 -51 -229 -51zM227 -224l-94 43v15l37 80l94 -44v-14zM84 -232l-94 43v15l37 80l94 -44v-14z" />
    <glyph glyph-name="uniFE89" unicode="&#x626;" horiz-adv-x="673" arabic-form="isolated" 
d="M57 295l15 73l35 15c-19 15 -30 42 -30 69c0 58 44 103 103 108c11 1 22 -1 33 -3c10 -1 21 -4 32 -6v-68c-8 2 -17 3 -25 4c-13 1 -25 2 -34 2c-24 0 -40 -3 -52 -7c-1 -7 -1 -13 -1 -18c1 -27 19 -43 43 -43c9 0 20 1 31 4l83 23l4 -4l-15 -74l-23 -8
c-68 -24 -134 -49 -194 -71zM265 -193c-135 0 -229 56 -220 206c4 67 22 150 41 224l72 -5l7 -11c-9 -45 -25 -117 -29 -157c-9 -94 47 -111 150 -111c116 0 204 35 253 54c1 27 -7 36 -54 36h-52c-105 0 -162 28 -161 100c0 10 1 22 4 34c21 99 129 276 211 276
c35 -2 69 -28 107 -62l-20 -88l-11 -5c-40 22 -65 34 -86 33c-36 -1 -95 -84 -119 -143c22 -19 50 -23 138 -23c107 0 133 -49 133 -116c0 -56 -25 -123 -66 -156c-53 -45 -167 -86 -298 -86z" />
    <glyph glyph-name="uniFE8A" unicode="&#x626;" horiz-adv-x="635" arabic-form="final" 
d="M328 343c-68 -24 -134 -49 -194 -71l-5 4l15 73l35 15c-19 15 -30 42 -30 69c0 58 44 103 103 108c11 1 22 -1 33 -3c10 -1 21 -4 32 -6v-68c-8 2 -17 3 -25 4c-13 1 -25 2 -34 2c-24 0 -40 -3 -52 -7c-1 -7 -1 -13 -1 -18c1 -27 19 -43 43 -43c9 0 20 1 31 4l83 23l4 -4
l-15 -74zM635 153c15 0 27 -34 27 -76c0 -43 -12 -77 -27 -77h-48c-15 0 -33 4 -49 9c11 -8 21 -18 27 -23c39 -41 8 -98 -36 -128c-49 -32 -141 -65 -257 -65c-149 0 -230 67 -218 212c5 66 23 147 41 218l72 -5l8 -11c-10 -45 -23 -107 -29 -155c-13 -98 42 -116 142 -116
c85 0 166 23 212 42l-187 66l-3 10l37 99h288z" />
    <glyph glyph-name="uniFE8C" unicode="&#x626;" horiz-adv-x="372" arabic-form="medial" 
d="M117 393l15 74l36 14c-20 16 -31 42 -31 69c0 58 44 103 104 108c10 1 21 0 32 -3c11 -1 21 -3 32 -5v-68l-24 3c-14 2 -26 3 -35 3c-24 0 -40 -3 -52 -7c-1 -7 -1 -14 -1 -19c1 -27 19 -42 43 -42c9 0 20 1 31 4l83 22l4 -4l-15 -74l-23 -8c-67 -24 -134 -48 -194 -71z
M0 0c-15 0 -26 34 -26 77c0 42 11 76 26 76h59c69 0 101 10 110 56l20 105l11 8l80 -21l-14 -85c-5 -35 18 -63 68 -63h38c15 0 26 -34 26 -76c0 -43 -11 -77 -26 -77h-45c-62 0 -102 27 -122 69c-36 -54 -86 -68 -149 -69h-56z" />
    <glyph glyph-name="uniFE8B" unicode="&#x626;" horiz-adv-x="335" arabic-form="initial" 
d="M53 424l15 74l35 14c-19 16 -30 42 -30 69c0 58 44 103 103 108c11 1 22 0 33 -3c10 -1 21 -3 32 -5v-68l-25 3c-13 2 -25 3 -34 3c-24 0 -40 -3 -52 -7c-1 -7 -1 -14 -1 -19c1 -27 19 -42 43 -42c9 0 20 1 31 4l83 22l4 -4l-15 -74l-23 -8c-68 -24 -134 -48 -194 -71z
M0 0c-15 0 -26 34 -26 77c0 42 12 76 26 76c71 0 139 9 183 30l-26 162l100 63l11 -7c14 -103 24 -164 24 -205c0 -67 -21 -115 -63 -145c-59 -42 -144 -51 -229 -51z" />
    <glyph glyph-name="uni06CE.init" unicode="&#x6ce;" horiz-adv-x="335" 
d="M145 421l-89 230l47 37l62 -173l67 173l45 -37l-85 -205zM0 0c-15 0 -26 34 -26 77c0 42 12 76 26 76c71 0 139 9 183 30l-26 162l100 63l11 -7c14 -103 24 -164 24 -205c0 -67 -21 -115 -63 -145c-59 -42 -144 -51 -229 -51zM227 -224l-94 43v15l37 80l94 -44v-14z
M84 -232l-94 43v15l37 80l94 -44v-14z" />
    <glyph glyph-name="uni06CE.medi" unicode="&#x6ce;" horiz-adv-x="372" 
d="M214 392l-89 230l47 36l63 -172l67 173l44 -37l-85 -205zM0 0c-15 0 -26 34 -26 77c0 42 11 76 26 76h59c69 0 101 10 110 56l20 105l11 8l80 -21l-14 -85c-5 -35 18 -63 68 -63h38c15 0 26 -34 26 -76c0 -43 -11 -77 -26 -77h-45c-62 0 -102 27 -122 69
c-36 -54 -86 -68 -149 -69h-56zM265 -224l-94 43v15l37 80l94 -44v-14zM122 -232l-94 43v15l37 80l94 -44v-14z" />
    <glyph glyph-name="uni06CE.fina" unicode="&#x6ce;" horiz-adv-x="635" 
d="M260 297l-47 -25l-89 230l47 37l62 -173l67 173l45 -37zM635 153c15 0 27 -34 27 -76c0 -43 -12 -77 -27 -77h-48c-15 0 -33 4 -49 9c11 -8 21 -18 27 -23c39 -41 8 -98 -36 -128c-49 -32 -141 -65 -257 -65c-149 0 -230 67 -218 212c5 66 23 147 41 218l72 -5l8 -11
c-10 -45 -23 -107 -29 -155c-13 -98 42 -116 142 -116c85 0 166 23 212 42l-187 66l-3 10l37 99h288z" />
    <glyph glyph-name="uniFBFD" unicode="&#x6cc;" horiz-adv-x="635" arabic-form="final" 
d="M635 153c15 0 27 -34 27 -76c0 -43 -12 -77 -27 -77h-48c-15 0 -33 4 -49 9c11 -8 21 -18 27 -23c39 -41 8 -98 -36 -128c-49 -32 -141 -65 -257 -65c-149 0 -230 67 -218 212c5 66 23 147 41 218l72 -5l8 -11c-10 -45 -23 -107 -29 -155c-13 -98 42 -116 142 -116
c85 0 166 23 212 42l-187 66l-3 10l37 99h288z" />
    <glyph glyph-name="uniFBFF" unicode="&#x6cc;" horiz-adv-x="372" arabic-form="medial" 
d="M0 0c-15 0 -26 34 -26 77c0 42 11 76 26 76h59c69 0 101 10 110 56l20 105l11 8l80 -21l-14 -85c-5 -35 18 -63 68 -63h38c15 0 26 -34 26 -76c0 -43 -11 -77 -26 -77h-45c-62 0 -102 27 -122 69c-36 -54 -86 -68 -149 -69h-56zM265 -224l-94 43v15l37 80l94 -44v-14z
M122 -232l-94 43v15l37 80l94 -44v-14z" />
    <glyph glyph-name="uniFBFE" unicode="&#x6cc;" horiz-adv-x="335" arabic-form="initial" 
d="M0 0c-15 0 -26 34 -26 77c0 42 12 76 26 76c71 0 139 9 183 30l-26 162l100 63l11 -7c14 -103 24 -164 24 -205c0 -67 -21 -115 -63 -145c-59 -42 -144 -51 -229 -51zM227 -224l-94 43v15l37 80l94 -44v-14zM84 -232l-94 43v15l37 80l94 -44v-14z" />
    <glyph glyph-name="uni06CD.fina" unicode="&#x6cd;" horiz-adv-x="720" 
d="M720 153c15 0 27 -34 27 -76c0 -43 -12 -77 -27 -77h-48c-15 0 -33 4 -49 8c12 -7 21 -17 28 -22c38 -41 7 -98 -37 -128c-49 -33 -141 -65 -257 -65c-149 0 -230 67 -218 212c3 38 11 82 20 121l-107 -23l-8 13l18 87l195 43l8 -13c-26 -125 -30 -144 -34 -181
c-13 -98 42 -116 142 -116c85 0 166 23 212 42l-187 66l-3 10l37 99h288z" />
    <glyph glyph-name="uniFBE4" unicode="&#x6d0;" horiz-adv-x="673" arabic-form="isolated" 
d="M265 -193c-135 0 -229 56 -220 206c4 67 22 150 41 224l72 -5l7 -11c-9 -45 -25 -117 -29 -157c-9 -94 47 -111 150 -111c116 0 204 35 253 54c1 27 -7 36 -54 36h-52c-105 0 -162 28 -161 100c0 10 1 22 4 34c21 99 129 276 211 276c35 -2 69 -28 107 -62l-20 -88
l-11 -5c-40 22 -65 34 -86 33c-36 -1 -95 -84 -119 -143c22 -19 50 -23 138 -23c107 0 133 -49 133 -116c0 -56 -25 -123 -66 -156c-53 -45 -167 -86 -298 -86zM291 -400l-92 42v14l37 78l91 -43v-14zM291 -528l-92 41v14l37 79l91 -44v-13z" />
    <glyph glyph-name="uniFBE5" unicode="&#x6d0;" horiz-adv-x="635" arabic-form="final" 
d="M635 153c15 0 27 -34 27 -76c0 -43 -12 -77 -27 -77h-48c-15 0 -33 4 -49 9c11 -8 21 -18 27 -23c39 -41 8 -98 -36 -128c-49 -32 -141 -65 -257 -65c-149 0 -230 67 -218 212c5 66 23 147 41 218l72 -5l8 -11c-10 -45 -23 -107 -29 -155c-13 -98 42 -116 142 -116
c85 0 166 23 212 42l-187 66l-3 10l37 99h288zM226 -356l36 78l92 -44v-13l-36 -77l-92 41v15zM226 -485l36 78l92 -43v-14l-36 -77l-92 42v14z" />
    <glyph glyph-name="uniFBE7" unicode="&#x6d0;" horiz-adv-x="372" arabic-form="medial" 
d="M0 0c-15 0 -26 34 -26 77c0 42 11 76 26 76h59c69 0 101 10 110 56l20 105l11 8l80 -21l-14 -85c-5 -35 18 -63 68 -63h38c15 0 26 -34 26 -76c0 -43 -11 -77 -26 -77h-45c-62 0 -102 27 -122 69c-36 -54 -86 -68 -149 -69h-56zM211 -195l-94 43v15l37 80l94 -45v-14z
M211 -327l-94 43v15l37 80l94 -44v-14z" />
    <glyph glyph-name="uniFBE6" unicode="&#x6d0;" horiz-adv-x="335" arabic-form="initial" 
d="M0 0c-15 0 -26 34 -26 77c0 42 12 76 26 76c71 0 139 9 183 30l-26 162l100 63l11 -7c14 -103 24 -164 24 -205c0 -67 -21 -115 -63 -145c-59 -42 -144 -51 -229 -51zM188 -200l-94 43v15l37 80l94 -45v-14zM188 -332l-94 43v15l37 80l94 -44v-14z" />
    <glyph glyph-name="uni06D1.init" unicode="&#x6d1;" horiz-adv-x="335" 
d="M0 0c-15 0 -26 34 -26 77c0 42 12 76 26 76c71 0 139 9 183 30l-26 162l100 63l11 -7c14 -103 24 -164 24 -205c0 -67 -21 -115 -63 -145c-59 -42 -144 -51 -229 -51zM254 -216l-94 42v15l37 80l94 -44v-14zM104 -224l-94 42v15l37 80l94 -44v-14zM204 -337l-90 41v14
l36 77l90 -43v-14z" />
    <glyph glyph-name="uni06D1.medi" unicode="&#x6d1;" horiz-adv-x="372" 
d="M0 0c-15 0 -26 34 -26 77c0 42 11 76 26 76h59c69 0 101 10 110 56l20 105l11 8l80 -21l-14 -85c-5 -35 18 -63 68 -63h38c15 0 26 -34 26 -76c0 -43 -11 -77 -26 -77h-45c-62 0 -102 27 -122 69c-36 -54 -86 -68 -149 -69h-56zM274 -218l-94 43v15l37 80l94 -45v-13z
M124 -226l-94 43v15l37 80l94 -45v-13zM224 -339l-90 42v14l36 77l90 -44v-13z" />
    <glyph glyph-name="uni06D1.fina" unicode="&#x6d1;" horiz-adv-x="635" 
d="M635 153c15 0 27 -34 27 -76c0 -43 -12 -77 -27 -77h-48c-15 0 -33 4 -49 9c11 -8 21 -18 27 -23c39 -41 8 -98 -36 -128c-49 -32 -141 -65 -257 -65c-149 0 -230 67 -218 212c5 66 23 147 41 218l72 -5l8 -11c-10 -45 -23 -107 -29 -155c-13 -98 42 -116 142 -116
c85 0 166 23 212 42l-187 66l-3 10l37 99h288zM301 -328l37 80l94 -44v-14l-37 -79l-94 42v15zM282 -300v-14l-37 -79l-94 42v15l37 80zM255 -451l36 78l91 -44v-13l-36 -77l-91 42v14z" />
    <glyph glyph-name="uniFBAF" unicode="&#x6d2;" horiz-adv-x="408" arabic-form="final" 
d="M224 -230c-145 0 -184 81 -179 163c3 77 53 220 283 220h80c14 0 26 -34 26 -76c0 -43 -12 -77 -26 -77h-74c-95 0 -150 -8 -202 -16c-6 -55 25 -74 107 -74h440l6 -10l-24 -130h-437z" />
    <glyph glyph-name="uniFBB0" unicode="&#x6d3;" horiz-adv-x="719" arabic-form="isolated" 
d="M174 503l15 73l35 15c-19 15 -31 42 -31 69c0 57 45 102 104 108c11 1 21 -1 32 -3c11 -1 22 -4 32 -6l1 -68c-8 2 -17 3 -25 4c-13 1 -25 2 -35 2c-24 0 -40 -3 -51 -7c-1 -7 -1 -13 -1 -18c1 -27 18 -43 42 -43c10 0 21 1 31 4l83 23l4 -4l-14 -74l-24 -9
c-67 -23 -133 -48 -194 -70zM45 156c3 63 40 108 96 158c119 106 114 159 170 159c41 0 70 -29 137 -79l-23 -99l-9 -4c-50 26 -92 46 -116 50c-19 -28 -28 -47 -91 -101c-44 -39 -63 -52 -72 -65c11 -24 40 -36 121 -36h439l6 -10l-23 -129h-438c-163 0 -202 81 -197 156z
" />
    <glyph glyph-name="uniFBB1" unicode="&#x6d3;" horiz-adv-x="394" arabic-form="final" 
d="M23 152l14 73l36 15c-19 15 -31 42 -31 69c0 58 45 103 104 108c11 1 21 -1 32 -3c11 -1 22 -4 32 -6l1 -68c-8 2 -17 3 -25 4c-14 1 -25 2 -35 2c-24 0 -40 -3 -51 -7c-1 -7 -1 -13 -1 -18c0 -27 18 -43 42 -43c10 0 21 1 31 4l83 23l4 -4l-14 -74l-24 -8
c-67 -24 -134 -49 -194 -71zM224 -230c-145 0 -184 81 -179 163c3 77 53 220 283 220h80c14 0 26 -34 26 -76c0 -43 -12 -77 -26 -77h-74c-95 0 -150 -8 -202 -16c-6 -55 25 -74 107 -74h440l6 -10l-24 -130h-437z" />
    <glyph glyph-name="uniFBDD" unicode="&#x677;" horiz-adv-x="470" arabic-form="isolated" 
d="M247 493c-67 -24 -134 -48 -194 -71l-4 4l14 74l36 14c-19 16 -31 42 -31 69c0 58 45 103 104 108c11 1 21 0 32 -3c11 -1 22 -3 32 -5l1 -68l-25 3c-14 2 -25 3 -35 3c-24 0 -40 -3 -51 -7c-1 -7 -1 -14 -1 -19c0 -27 18 -42 42 -42c10 0 21 1 31 4l83 22l4 -4l-13 -68
l68 27c-15 28 -20 50 -20 68c0 61 43 98 98 98c61 0 103 -38 103 -98c0 -44 -26 -85 -82 -106l-186 -71l-4 4l13 69zM416 634c-18 0 -34 -13 -34 -33c0 -12 8 -31 20 -52c29 8 57 25 57 52c0 18 -18 34 -43 33zM470 153c15 0 26 -34 26 -76c0 -43 -11 -77 -26 -77h-48
c-32 -133 -134 -229 -222 -236c-29 -3 -86 14 -139 32l-26 93l6 10c47 -4 91 -6 116 -5c80 6 134 67 166 117h-120c-80 0 -128 36 -127 115c0 9 1 18 1 27c19 158 75 239 167 239c73 0 111 -38 137 -77c18 -29 33 -73 42 -121c3 -13 5 -27 6 -41h41zM219 139
c39 -1 78 0 112 1c-8 51 -22 100 -35 126c-21 6 -37 9 -56 9c-43 0 -65 -15 -73 -93c0 -4 -1 -8 -1 -12c0 -28 17 -31 53 -31z" />
    <glyph glyph-name="uni06D5.fina" unicode="&#x6d5;" horiz-adv-x="509" 
d="M476 0c-71 0 -122 29 -148 96l-27 -59c-28 -4 -58 -5 -86 -5c-108 0 -171 39 -171 127c0 80 43 158 158 213l100 47v68l102 30v-291c0 -48 21 -73 71 -73h34c15 0 26 -34 26 -76c0 -43 -11 -77 -26 -77h-33zM247 167h55v139l-52 -22l-113 -50c-1 -8 -2 -14 -2 -20
c0 -39 28 -47 112 -47z" />
    <glyph glyph-name="uniFDF1" unicode="&#xfdf1;" horiz-adv-x="943" arabic-form="isolated" 
d="M790 648l-94 42v15l37 80l94 -44v-14zM647 640l-94 42v15l37 80l94 -44v-14zM263 -231c-153 0 -218 73 -219 169c-1 132 99 222 210 266c15 7 29 13 42 20c17 8 19 18 19 31l-4 406l102 27v-449c0 -66 22 -86 86 -86h53c106 0 185 4 241 25c2 19 3 38 4 56
c-51 -11 -91 -14 -139 -14c-71 0 -114 36 -114 105c0 8 0 15 1 22c16 158 74 238 168 238c72 0 108 -37 133 -75c30 -46 49 -131 52 -211c4 -87 -17 -200 -58 -235c-55 -49 -167 -62 -276 -64h-66c-102 0 -153 39 -171 112l-22 -40c-65 -31 -140 -58 -181 -86
c-5 -56 30 -76 141 -76h586l6 -10l-23 -130zM685 338c37 0 73 2 106 7c-6 47 -18 95 -29 121c-20 6 -34 9 -57 9c-42 0 -65 -15 -73 -95v-10c-1 -29 17 -32 53 -32z" />
    <glyph glyph-name="uniFC6A" unicode="&#xfc6a;" horiz-adv-x="716" arabic-form="final" 
d="M-64 -111l7 10c36 -4 75 -6 100 -5c93 7 144 79 170 127c-8 56 -20 128 -45 264l90 58l12 -8c9 -41 15 -76 20 -106c26 -2 55 -3 101 -3c54 0 96 5 124 24v89l90 26l13 -10v-123c0 -54 21 -79 71 -79h27c15 0 26 -34 26 -76c0 -43 -11 -77 -26 -77h-32
c-78 0 -150 43 -158 133c-14 -39 -62 -53 -124 -53c-30 0 -62 0 -96 2c0 -17 0 -33 -1 -47c-10 -147 -119 -264 -218 -271c-29 -3 -89 15 -125 32zM478 -234l-103 46v17l41 87l103 -48v-15z" />
    <glyph glyph-name="uniFC6B" unicode="&#xfc6b;" horiz-adv-x="716" arabic-form="final" 
d="M211 401l-102 46v16l40 88l103 -49v-15zM-64 -111l7 10c36 -4 75 -6 100 -5c93 7 144 79 170 127c-8 56 -20 128 -45 264l90 58l12 -8c9 -41 15 -76 20 -106c26 -2 55 -3 101 -3c54 0 96 5 124 24v89l90 26l13 -10v-123c0 -54 21 -79 71 -79h27c15 0 26 -34 26 -76
c0 -43 -11 -77 -26 -77h-32c-78 0 -150 43 -158 133c-14 -39 -62 -53 -124 -53c-30 0 -62 0 -96 2c0 -17 0 -33 -1 -47c-10 -147 -119 -264 -218 -271c-29 -3 -89 15 -125 32zM478 -234l-103 46v17l41 87l103 -48v-15z" />
    <glyph glyph-name="uniFCE1" unicode="&#xfce1;" horiz-adv-x="642" arabic-form="medial" 
d="M331 -126l-81 78c-47 45 -74 48 -115 48h-135c-15 0 -26 34 -26 77c0 42 11 76 26 76h118c24 0 44 -2 63 -6c0 1 0 4 1 5c0 4 1 7 2 12s2 9 4 14c26 65 102 157 156 157c36 1 50 -19 115 -80c86 -83 109 -102 183 -102c14 0 26 -34 26 -76c0 -43 -12 -77 -26 -77
c-105 0 -147 42 -224 115c-50 47 -73 73 -88 73c-17 0 -57 -48 -67 -73c10 -17 40 -45 66 -70c27 -27 57 -56 85 -82l-71 -89h-12zM554 -245l-103 46v17l40 87l103 -48v-15z" />
    <glyph glyph-name="uniFC6D" unicode="&#xfc6d;" horiz-adv-x="1038" arabic-form="final" 
d="M277 -193c-137 0 -245 79 -232 233c6 73 23 140 41 209l72 -5l8 -11c-10 -43 -22 -92 -28 -140c-13 -93 53 -133 160 -133c106 0 192 34 238 58c-10 75 -25 159 -43 264l88 56l14 -6c6 -38 11 -72 17 -103c25 -2 55 -3 102 -3c53 0 95 5 124 24l-1 89l90 26l13 -10v-123
c0 -54 21 -79 71 -79h27c15 0 26 -34 26 -76c0 -43 -11 -77 -26 -77h-32c-78 0 -150 43 -158 133c-14 -39 -61 -53 -123 -53c-32 0 -63 0 -94 2c2 -30 3 -53 2 -71c-3 -31 -10 -74 -47 -106c-60 -55 -169 -98 -309 -98zM352 150l-103 46v16l41 88l103 -48v-16zM811 -219
l-103 47v16l41 88l103 -49v-15z" />
    <glyph glyph-name="uniFCE2" unicode="&#xfce2;" horiz-adv-x="803" arabic-form="medial" 
d="M-26 77c0 42 11 76 26 76h102c19 94 38 167 66 265l96 66l74 -80c75 -82 83 -125 83 -172c0 -28 -3 -58 -20 -87c-37 -61 -97 -110 -209 -132c10 -52 43 -96 84 -137c26 44 52 86 75 125c66 111 115 182 179 277h87c44 -83 73 -125 157 -125h29c15 0 26 -34 26 -76
c0 -43 -11 -77 -26 -77h-29c-101 0 -157 52 -211 140c-45 -63 -108 -160 -144 -221l-92 -155h-107c-79 83 -121 165 -126 237l-94 -1c-15 0 -26 34 -26 77zM190 153c88 5 129 40 144 65c0 22 -38 70 -90 128c-25 -76 -39 -122 -54 -193zM625 -235l-103 47v16l40 88l103 -49
v-15z" />
    <glyph glyph-name="uniFC09" unicode="&#xfc09;" horiz-adv-x="645" arabic-form="isolated" 
d="M45 -10c5 66 23 147 41 218l72 -5l7 -11c-9 -46 -22 -108 -29 -155c-12 -95 43 -113 146 -113c86 0 157 22 201 39l-171 68l-4 11l39 100c51 4 97 13 128 29c-9 54 -17 108 -26 162l100 63l11 -7c14 -103 23 -170 23 -211c0 -21 -3 -40 -9 -57c-14 -37 -43 -62 -79 -79
c33 -16 61 -31 74 -51c43 -33 22 -103 -14 -133c-44 -38 -147 -80 -290 -80c-152 0 -232 67 -220 212zM578 -359l-103 47v16l41 88l103 -49v-15z" />
    <glyph glyph-name="uniFC6E" unicode="&#xfc6e;" horiz-adv-x="846" arabic-form="final" 
d="M265 -280c-135 0 -229 56 -220 206c4 67 22 150 41 224l72 -5l7 -11c-9 -45 -23 -107 -28 -149c-1 -10 -2 -19 -2 -28c1 -76 55 -91 151 -91c114 0 201 34 252 53c2 26 -6 31 -51 32h-53c-115 0 -172 30 -161 115c12 129 146 291 236 291c38 0 52 -16 119 -86l44 -47
c55 -54 83 -70 149 -71h25c15 0 26 -34 26 -76c0 -43 -11 -77 -26 -77c-10 0 -19 0 -29 1c-76 2 -125 30 -177 80c-24 22 -47 46 -72 71c-44 45 -67 74 -90 74c-42 0 -105 -98 -124 -141c22 -19 52 -23 133 -23c113 0 139 -47 139 -102c0 -53 -22 -121 -63 -154
c-53 -45 -167 -86 -298 -86zM750 -300l-103 47v16l41 88l103 -49v-15z" />
    <glyph glyph-name="uniFC0A" unicode="&#xfc0a;" horiz-adv-x="645" arabic-form="isolated" 
d="M45 -10c5 66 23 147 41 218l72 -5l7 -11c-9 -46 -22 -108 -29 -155c-12 -95 43 -113 146 -113c86 0 157 22 201 39l-171 68l-4 11l39 100c51 4 97 13 128 29c-9 54 -17 108 -26 162l100 63l11 -7c14 -103 23 -170 23 -211c0 -21 -3 -40 -9 -57c-14 -37 -43 -62 -79 -79
c33 -16 61 -31 74 -51c43 -33 22 -103 -14 -133c-44 -38 -147 -80 -290 -80c-152 0 -232 67 -220 212zM578 -359l-103 47v16l41 88l103 -49v-15zM375 -415l-94 42v15l38 81l94 -45v-14zM232 -423l-94 42v15l38 81l94 -45v-14z" />
    <glyph glyph-name="uniFC6F" unicode="&#xfc6f;" horiz-adv-x="846" arabic-form="final" 
d="M265 -280c-135 0 -229 56 -220 206c4 67 22 150 41 224l72 -5l7 -11c-9 -45 -23 -107 -28 -149c-1 -10 -2 -19 -2 -28c1 -76 55 -91 151 -91c114 0 201 34 252 53c2 26 -6 31 -51 32h-53c-115 0 -172 30 -161 115c12 129 146 291 236 291c38 0 52 -16 119 -86l44 -47
c55 -54 83 -70 149 -71h25c15 0 26 -34 26 -76c0 -43 -11 -77 -26 -77c-10 0 -19 0 -29 1c-76 2 -125 30 -177 80c-24 22 -47 46 -72 71c-44 45 -67 74 -90 74c-42 0 -105 -98 -124 -141c22 -19 52 -23 133 -23c113 0 139 -47 139 -102c0 -53 -22 -121 -63 -154
c-53 -45 -167 -86 -298 -86zM750 -300l-103 47v16l41 88l103 -49v-15zM402 -468l-94 43v15l37 80l94 -45v-13zM259 -476l-94 43v15l37 80l94 -45v-13z" />
    <glyph glyph-name="uniFC70" unicode="&#xfc70;" horiz-adv-x="716" arabic-form="final" 
d="M554 455l-94 43v15l37 80l94 -45v-14zM411 447l-94 43v15l37 80l94 -45v-14zM-64 -111l7 10c36 -4 75 -6 100 -5c93 7 144 79 170 127c-8 56 -20 128 -45 264l90 58l12 -8c9 -41 15 -76 20 -106c26 -2 55 -3 101 -3c54 0 96 5 124 24v89l90 26l13 -10v-123
c0 -54 21 -79 71 -79h27c15 0 26 -34 26 -76c0 -43 -11 -77 -26 -77h-32c-78 0 -150 43 -158 133c-14 -39 -62 -53 -124 -53c-30 0 -62 0 -96 2c0 -17 0 -33 -1 -47c-10 -147 -119 -264 -218 -271c-29 -3 -89 15 -125 32z" />
    <glyph glyph-name="uniFC71" unicode="&#xfc71;" horiz-adv-x="716" arabic-form="final" 
d="M554 455l-94 43v15l37 80l94 -45v-14zM411 447l-94 43v15l37 80l94 -45v-14zM205 401l-103 46v16l41 88l103 -49v-15zM-64 -111l7 10c36 -4 75 -6 100 -5c93 7 144 79 170 127c-8 56 -20 128 -45 264l90 58l12 -8c9 -41 15 -76 20 -106c26 -2 55 -3 101 -3
c54 0 96 5 124 24v89l90 26l13 -10v-123c0 -54 21 -79 71 -79h27c15 0 26 -34 26 -76c0 -43 -11 -77 -26 -77h-32c-78 0 -150 43 -158 133c-14 -39 -62 -53 -124 -53c-30 0 -62 0 -96 2c0 -17 0 -33 -1 -47c-10 -147 -119 -264 -218 -271c-29 -3 -89 15 -125 32z" />
    <glyph glyph-name="uniFCE3" unicode="&#xfce3;" horiz-adv-x="642" arabic-form="medial" 
d="M416 419l-94 43v15l37 80l94 -45v-14zM273 411l-94 43v15l37 80l94 -45v-14zM331 -126l-81 78c-47 45 -74 48 -115 48h-135c-15 0 -26 34 -26 77c0 42 11 76 26 76h118c24 0 44 -2 63 -6c0 1 0 4 1 5c0 4 1 7 2 12s2 9 4 14c26 65 102 157 156 157c36 1 50 -19 115 -80
c86 -83 109 -102 183 -102c14 0 26 -34 26 -76c0 -43 -12 -77 -26 -77c-105 0 -147 42 -224 115c-50 47 -73 73 -88 73c-17 0 -57 -48 -67 -73c10 -17 40 -45 66 -70c27 -27 57 -56 85 -82l-71 -89h-12z" />
    <glyph glyph-name="uniFC73" unicode="&#xfc73;" horiz-adv-x="1038" arabic-form="final" 
d="M848 423l-94 43v15l37 80l94 -44v-14zM705 415l-94 43v15l37 80l94 -44v-14zM277 -193c-137 0 -245 79 -232 233c6 73 23 140 41 209l72 -5l8 -11c-10 -43 -22 -92 -28 -140c-13 -93 53 -133 160 -133c106 0 192 34 238 58c-10 75 -25 159 -43 264l88 56l14 -6
c6 -38 11 -72 17 -103c25 -2 55 -3 102 -3c53 0 95 5 124 24l-1 89l90 26l13 -10v-123c0 -54 21 -79 71 -79h27c15 0 26 -34 26 -76c0 -43 -11 -77 -26 -77h-32c-78 0 -150 43 -158 133c-14 -39 -61 -53 -123 -53c-32 0 -63 0 -94 2c2 -30 3 -53 2 -71
c-3 -31 -10 -74 -47 -106c-60 -55 -169 -98 -309 -98zM352 150l-103 46v16l41 88l103 -48v-16z" />
    <glyph glyph-name="uniFCE4" unicode="&#xfce4;" horiz-adv-x="803" arabic-form="medial" 
d="M658 403l-94 43v14l38 81l94 -45v-14zM515 395l-94 43v14l38 81l94 -45v-14zM-26 77c0 42 11 76 26 76h102c19 94 38 167 66 265l96 66l74 -80c75 -82 83 -125 83 -172c0 -28 -3 -58 -20 -87c-37 -61 -97 -110 -209 -132c10 -52 43 -96 84 -137c26 44 52 86 75 125
c66 111 115 182 179 277h87c44 -83 73 -125 157 -125h29c15 0 26 -34 26 -76c0 -43 -11 -77 -26 -77h-29c-101 0 -157 52 -211 140c-45 -63 -108 -160 -144 -221l-92 -155h-107c-79 83 -121 165 -126 237l-94 -1c-15 0 -26 34 -26 77zM190 153c88 5 129 40 144 65
c0 22 -38 70 -90 128c-25 -76 -39 -122 -54 -193z" />
    <glyph glyph-name="uniFC0F" unicode="&#xfc0f;" horiz-adv-x="645" arabic-form="isolated" 
d="M526 443l-94 42v15l37 80l94 -44v-14zM383 435l-94 42v15l37 80l94 -44v-14zM45 -10c5 66 23 147 41 218l72 -5l7 -11c-9 -46 -22 -108 -29 -155c-12 -95 43 -113 146 -113c86 0 157 22 201 39l-171 68l-4 11l39 100c51 4 97 13 128 29c-9 54 -17 108 -26 162l100 63
l11 -7c14 -103 23 -170 23 -211c0 -21 -3 -40 -9 -57c-14 -37 -43 -62 -79 -79c33 -16 61 -31 74 -51c43 -33 22 -103 -14 -133c-44 -38 -147 -80 -290 -80c-152 0 -232 67 -220 212z" />
    <glyph glyph-name="uniFC74" unicode="&#xfc74;" horiz-adv-x="846" arabic-form="final" 
d="M558 437l-94 42v15l37 80l94 -44v-14zM415 429l-94 42v15l37 80l94 -44v-14zM265 -280c-135 0 -229 56 -220 206c4 67 22 150 41 224l72 -5l7 -11c-9 -45 -23 -107 -28 -149c-1 -10 -2 -19 -2 -28c1 -76 55 -91 151 -91c114 0 201 34 252 53c2 26 -6 31 -51 32h-53
c-115 0 -172 30 -161 115c12 129 146 291 236 291c38 0 52 -16 119 -86l44 -47c55 -54 83 -70 149 -71h25c15 0 26 -34 26 -76c0 -43 -11 -77 -26 -77c-10 0 -19 0 -29 1c-76 2 -125 30 -177 80c-24 22 -47 46 -72 71c-44 45 -67 74 -90 74c-42 0 -105 -98 -124 -141
c22 -19 52 -23 133 -23c113 0 139 -47 139 -102c0 -53 -22 -121 -63 -154c-53 -45 -167 -86 -298 -86z" />
    <glyph glyph-name="uniFC10" unicode="&#xfc10;" horiz-adv-x="645" arabic-form="isolated" 
d="M524 437l-94 42v15l37 80l95 -44v-14zM381 429l-94 42v15l37 80l95 -44v-14zM45 -10c5 66 23 147 41 218l72 -5l7 -11c-9 -46 -22 -108 -29 -155c-12 -95 43 -113 146 -113c86 0 157 22 201 39l-171 68l-4 11l39 100c51 4 97 13 128 29c-9 54 -17 108 -26 162l100 63
l11 -7c14 -103 23 -170 23 -211c0 -21 -3 -40 -9 -57c-14 -37 -43 -62 -79 -79c33 -16 61 -31 74 -51c43 -33 22 -103 -14 -133c-44 -38 -147 -80 -290 -80c-152 0 -232 67 -220 212zM374 -409l-94 42v15l37 81l94 -45v-14zM231 -417l-94 42v15l37 81l94 -45v-14z" />
    <glyph glyph-name="uniFC75" unicode="&#xfc75;" horiz-adv-x="846" arabic-form="final" 
d="M558 437l-94 42v15l37 80l94 -44v-14zM415 429l-94 42v15l37 80l94 -44v-14zM265 -280c-135 0 -229 56 -220 206c4 67 22 150 41 224l72 -5l7 -11c-9 -45 -23 -107 -28 -149c-1 -10 -2 -19 -2 -28c1 -76 55 -91 151 -91c114 0 201 34 252 53c2 26 -6 31 -51 32h-53
c-115 0 -172 30 -161 115c12 129 146 291 236 291c38 0 52 -16 119 -86l44 -47c55 -54 83 -70 149 -71h25c15 0 26 -34 26 -76c0 -43 -11 -77 -26 -77c-10 0 -19 0 -29 1c-76 2 -125 30 -177 80c-24 22 -47 46 -72 71c-44 45 -67 74 -90 74c-42 0 -105 -98 -124 -141
c22 -19 52 -23 133 -23c113 0 139 -47 139 -102c0 -53 -22 -121 -63 -154c-53 -45 -167 -86 -298 -86zM380 -466l-94 43v14l37 81l94 -45v-14zM237 -474l-94 43v14l37 81l94 -45v-14z" />
    <glyph glyph-name="uniFC76" unicode="&#xfc76;" horiz-adv-x="716" arabic-form="final" 
d="M474 578l-88 41v14l35 75l88 -43v-13zM577 455l-94 43v14l37 81l94 -45v-14zM431 447l-94 43v14l37 81l94 -45v-14zM-64 -111l7 10c36 -4 75 -6 100 -5c93 7 144 79 170 127c-8 56 -20 128 -45 264l90 58l12 -8c9 -41 15 -76 20 -106c26 -2 55 -3 101 -3
c54 0 96 5 124 24v89l90 26l13 -10v-123c0 -54 21 -79 71 -79h27c15 0 26 -34 26 -76c0 -43 -11 -77 -26 -77h-32c-78 0 -150 43 -158 133c-14 -39 -62 -53 -124 -53c-30 0 -62 0 -96 2c0 -17 0 -33 -1 -47c-10 -147 -119 -264 -218 -271c-29 -3 -89 15 -125 32z" />
    <glyph glyph-name="uniFC77" unicode="&#xfc77;" horiz-adv-x="716" arabic-form="final" 
d="M474 578l-88 41v14l35 75l88 -43v-13zM577 455l-94 43v14l37 81l94 -45v-14zM431 447l-94 43v14l37 81l94 -45v-14zM205 401l-103 46v16l41 88l103 -49v-15zM-64 -111l7 10c36 -4 75 -6 100 -5c93 7 144 79 170 127c-8 56 -20 128 -45 264l90 58l12 -8
c9 -41 15 -76 20 -106c26 -2 55 -3 101 -3c54 0 96 5 124 24v89l90 26l13 -10v-123c0 -54 21 -79 71 -79h27c15 0 26 -34 26 -76c0 -43 -11 -77 -26 -77h-32c-78 0 -150 43 -158 133c-14 -39 -62 -53 -124 -53c-30 0 -62 0 -96 2c0 -17 0 -33 -1 -47
c-10 -147 -119 -264 -218 -271c-29 -3 -89 15 -125 32z" />
    <glyph glyph-name="uniFCE5" unicode="&#xfce5;" horiz-adv-x="642" arabic-form="medial" 
d="M314 530l-88 40v14l36 76l88 -43v-13zM417 407l-94 42v15l38 80l94 -44v-14zM272 399l-95 42v15l38 80l94 -44v-14zM331 -126l-81 78c-47 45 -74 48 -115 48h-135c-15 0 -26 34 -26 77c0 42 11 76 26 76h118c24 0 44 -2 63 -6c0 1 0 4 1 5c0 4 1 7 2 12s2 9 4 14
c26 65 102 157 156 157c36 1 50 -19 115 -80c86 -83 109 -102 183 -102c14 0 26 -34 26 -76c0 -43 -12 -77 -26 -77c-105 0 -147 42 -224 115c-50 47 -73 73 -88 73c-17 0 -57 -48 -67 -73c10 -17 40 -45 66 -70c27 -27 57 -56 85 -82l-71 -89h-12z" />
    <glyph glyph-name="uniFC79" unicode="&#xfc79;" horiz-adv-x="1038" arabic-form="final" 
d="M760 542l-89 41v14l36 75l88 -43v-13zM863 419l-94 43v14l37 81l94 -45v-14zM717 411l-94 43v14l37 81l94 -45v-14zM277 -193c-137 0 -245 79 -232 233c6 73 23 140 41 209l72 -5l8 -11c-10 -43 -22 -92 -28 -140c-13 -93 53 -133 160 -133c106 0 192 34 238 58
c-10 75 -25 159 -43 264l88 56l14 -6c6 -38 11 -72 17 -103c25 -2 55 -3 102 -3c53 0 95 5 124 24l-1 89l90 26l13 -10v-123c0 -54 21 -79 71 -79h27c15 0 26 -34 26 -76c0 -43 -11 -77 -26 -77h-32c-78 0 -150 43 -158 133c-14 -39 -61 -53 -123 -53c-32 0 -63 0 -94 2
c2 -30 3 -53 2 -71c-3 -31 -10 -74 -47 -106c-60 -55 -169 -98 -309 -98zM352 150l-103 46v16l41 88l103 -48v-16z" />
    <glyph glyph-name="uniFCE6" unicode="&#xfce6;" horiz-adv-x="803" arabic-form="medial" 
d="M565 516l-89 41v14l36 75l88 -43v-13zM668 393l-94 43v14l37 81l94 -45v-14zM522 385l-94 43v14l37 81l94 -45v-14zM-26 77c0 42 11 76 26 76h102c19 94 38 167 66 265l96 66l74 -80c75 -82 83 -125 83 -172c0 -28 -3 -58 -20 -87c-37 -61 -97 -110 -209 -132
c10 -52 43 -96 84 -137c26 44 52 86 75 125c66 111 115 182 179 277h87c44 -83 73 -125 157 -125h29c15 0 26 -34 26 -76c0 -43 -11 -77 -26 -77h-29c-101 0 -157 52 -211 140c-45 -63 -108 -160 -144 -221l-92 -155h-107c-79 83 -121 165 -126 237l-94 -1
c-15 0 -26 34 -26 77zM190 153c88 5 129 40 144 65c0 22 -38 70 -90 128c-25 -76 -39 -122 -54 -193z" />
    <glyph glyph-name="uniFC13" unicode="&#xfc13;" horiz-adv-x="645" arabic-form="isolated" 
d="M452 572l-89 41v14l36 75l88 -42v-14zM555 449l-94 43v15l37 80l94 -44v-14zM409 441l-94 43v15l37 80l94 -44v-14zM45 -10c5 66 23 147 41 218l72 -5l7 -11c-9 -46 -22 -108 -29 -155c-12 -95 43 -113 146 -113c86 0 157 22 201 39l-171 68l-4 11l39 100
c51 4 97 13 128 29c-9 54 -17 108 -26 162l100 63l11 -7c14 -103 23 -170 23 -211c0 -21 -3 -40 -9 -57c-14 -37 -43 -62 -79 -79c33 -16 61 -31 74 -51c43 -33 22 -103 -14 -133c-44 -38 -147 -80 -290 -80c-152 0 -232 67 -220 212z" />
    <glyph glyph-name="uniFC7A" unicode="&#xfc7a;" horiz-adv-x="846" arabic-form="final" 
d="M459 563l-89 41l1 14l35 75l88 -43v-13zM562 440l-94 43v14l37 81l94 -45v-14zM416 432l-94 43v14l37 81l94 -45v-14zM265 -280c-135 0 -229 56 -220 206c4 67 22 150 41 224l72 -5l7 -11c-9 -45 -23 -107 -28 -149c-1 -10 -2 -19 -2 -28c1 -76 55 -91 151 -91
c114 0 201 34 252 53c2 26 -6 31 -51 32h-53c-115 0 -172 30 -161 115c12 129 146 291 236 291c38 0 52 -16 119 -86l44 -47c55 -54 83 -70 149 -71h25c15 0 26 -34 26 -76c0 -43 -11 -77 -26 -77c-10 0 -19 0 -29 1c-76 2 -125 30 -177 80c-24 22 -47 46 -72 71
c-44 45 -67 74 -90 74c-42 0 -105 -98 -124 -141c22 -19 52 -23 133 -23c113 0 139 -47 139 -102c0 -53 -22 -121 -63 -154c-53 -45 -167 -86 -298 -86z" />
    <glyph glyph-name="uniFC14" unicode="&#xfc14;" horiz-adv-x="645" arabic-form="isolated" 
d="M424 564l-88 41v14l35 75l89 -42v-14zM527 441l-94 43v15l37 80l94 -44v-14zM381 433l-94 43v15l37 80l94 -44v-14zM45 -10c5 66 23 147 41 218l72 -5l7 -11c-9 -46 -22 -108 -29 -155c-12 -95 43 -113 146 -113c86 0 157 22 201 39l-171 68l-4 11l39 100
c51 4 97 13 128 29c-9 54 -17 108 -26 162l100 63l11 -7c14 -103 23 -170 23 -211c0 -21 -3 -40 -9 -57c-14 -37 -43 -62 -79 -79c33 -16 61 -31 74 -51c43 -33 22 -103 -14 -133c-44 -38 -147 -80 -290 -80c-152 0 -232 67 -220 212zM374 -409l-94 42v15l37 81l94 -45v-14z
M231 -417l-94 42v15l37 81l94 -45v-14z" />
    <glyph glyph-name="uniFC7B" unicode="&#xfc7b;" horiz-adv-x="846" arabic-form="final" 
d="M459 563l-89 41l1 14l35 75l88 -43v-13zM562 440l-94 43v14l37 81l94 -45v-14zM416 432l-94 43v14l37 81l94 -45v-14zM265 -280c-135 0 -229 56 -220 206c4 67 22 150 41 224l72 -5l7 -11c-9 -45 -23 -107 -28 -149c-1 -10 -2 -19 -2 -28c1 -76 55 -91 151 -91
c114 0 201 34 252 53c2 26 -6 31 -51 32h-53c-115 0 -172 30 -161 115c12 129 146 291 236 291c38 0 52 -16 119 -86l44 -47c55 -54 83 -70 149 -71h25c15 0 26 -34 26 -76c0 -43 -11 -77 -26 -77c-10 0 -19 0 -29 1c-76 2 -125 30 -177 80c-24 22 -47 46 -72 71
c-44 45 -67 74 -90 74c-42 0 -105 -98 -124 -141c22 -19 52 -23 133 -23c113 0 139 -47 139 -102c0 -53 -22 -121 -63 -154c-53 -45 -167 -86 -298 -86zM380 -466l-94 43v14l37 81l94 -45v-14zM237 -474l-94 43v14l37 81l94 -45v-14z" />
    <glyph glyph-name="uniFD01" unicode="&#xfd01;" horiz-adv-x="907" arabic-form="isolated" 
d="M45 -4c5 66 23 147 41 218l72 -5l7 -11c-9 -45 -22 -107 -29 -155c-12 -95 43 -113 146 -113c86 0 158 22 202 39l-172 69l-4 10l38 97c73 6 138 29 216 79l58 36l-158 53c-17 6 -27 8 -36 7s-17 -7 -24 -16l-38 -58h-9l-54 62l39 71c24 44 49 70 96 70
c51 -1 201 -67 326 -98c15 -4 29 -7 43 -10l53 -11l5 -13l-43 -113l-83 15l-112 -81c-47 -34 -93 -63 -145 -84c66 -26 79 -36 89 -57c43 -32 22 -103 -14 -132c-44 -39 -147 -81 -290 -81c-152 0 -232 67 -220 212zM748 -110l-103 47v16l41 88l103 -49v-15z" />
    <glyph glyph-name="uniFD1D" unicode="&#xfd1d;" horiz-adv-x="886" arabic-form="final" 
d="M886 153c15 0 27 -34 27 -76c0 -43 -12 -77 -27 -77h-76c-102 0 -156 26 -173 113l-7 28l-5 -3c-47 -34 -93 -63 -145 -84c66 -26 79 -36 89 -57c43 -32 22 -103 -14 -132c-44 -39 -147 -81 -290 -81c-152 0 -232 67 -220 212c5 66 23 147 41 218l72 -5l7 -11
c-9 -45 -22 -107 -29 -155c-12 -95 43 -113 146 -113c86 0 158 22 202 39l-172 69l-4 10l38 97c73 6 138 29 216 79l58 36l-158 53c-17 6 -27 8 -36 7s-17 -7 -24 -16l-38 -58h-9l-54 62l39 71c24 44 49 70 96 70c51 -1 201 -67 326 -98c15 -4 29 -7 43 -10l53 -11l5 -13
l-43 -113l-83 15l-36 -26l1 -6c7 -31 38 -34 94 -34h90zM620 -132l41 88l103 -49v-15l-41 -87l-103 47v16z" />
    <glyph glyph-name="uniFD02" unicode="&#xfd02;" horiz-adv-x="907" arabic-form="isolated" 
d="M45 -4c5 66 23 147 41 218l72 -5l7 -11c-9 -45 -22 -107 -29 -155c-12 -95 43 -113 146 -113c86 0 158 22 202 39l-172 69l-4 10l38 97c73 6 138 29 216 79l58 36l-158 53c-17 6 -27 8 -36 7s-17 -7 -24 -16l-38 -58h-9l-54 62l39 71c24 44 49 70 96 70
c51 -1 201 -67 326 -98c15 -4 29 -7 43 -10l53 -11l5 -13l-43 -113l-83 15l-112 -81c-47 -34 -93 -63 -145 -84c66 -26 79 -36 89 -57c43 -32 22 -103 -14 -132c-44 -39 -147 -81 -290 -81c-152 0 -232 67 -220 212zM742 -109l-103 47v16l41 88l103 -49v-15zM370 -398
l-94 43v15l38 80l94 -45v-14zM227 -406l-94 43v15l38 80l94 -45v-14z" />
    <glyph glyph-name="uniFD1E" unicode="&#xfd1e;" horiz-adv-x="886" arabic-form="final" 
d="M886 153c15 0 27 -34 27 -76c0 -43 -12 -77 -27 -77h-76c-102 0 -156 26 -173 113l-7 28l-5 -3c-47 -34 -93 -63 -145 -84c66 -26 79 -36 89 -57c43 -32 22 -103 -14 -132c-44 -39 -147 -81 -290 -81c-152 0 -232 67 -220 212c5 66 23 147 41 218l72 -5l7 -11
c-9 -45 -22 -107 -29 -155c-12 -95 43 -113 146 -113c86 0 158 22 202 39l-172 69l-4 10l38 97c73 6 138 29 216 79l58 36l-158 53c-17 6 -27 8 -36 7s-17 -7 -24 -16l-38 -58h-9l-54 62l39 71c24 44 49 70 96 70c51 -1 201 -67 326 -98c15 -4 29 -7 43 -10l53 -11l5 -13
l-43 -113l-83 15l-36 -26l1 -6c7 -31 38 -34 94 -34h90zM614 -132l41 88l103 -49v-15l-41 -87l-103 47v16zM276 -340l38 80l94 -45v-14l-38 -79l-94 43v15zM133 -348l38 80l94 -45v-14l-38 -79l-94 43v15z" />
    <glyph glyph-name="uniFCFF" unicode="&#xfcff;" horiz-adv-x="907" arabic-form="isolated" 
d="M45 -4c5 66 23 147 41 218l72 -5l7 -11c-9 -45 -22 -107 -29 -155c-12 -95 43 -113 146 -113c86 0 158 22 202 39l-172 69l-4 10l38 97c73 6 138 29 216 79l58 36l-158 53c-17 6 -27 8 -36 7s-17 -7 -24 -16l-38 -58h-9l-54 62l39 71c24 44 49 70 96 70
c51 -1 201 -67 326 -98c15 -4 29 -7 43 -10l53 -11l5 -13l-43 -113l-83 15l-112 -81c-47 -34 -93 -63 -145 -84c66 -26 79 -36 89 -57c43 -32 22 -103 -14 -132c-44 -39 -147 -81 -290 -81c-152 0 -232 67 -220 212z" />
    <glyph glyph-name="uniFD1B" unicode="&#xfd1b;" horiz-adv-x="886" arabic-form="final" 
d="M886 153c15 0 27 -34 27 -76c0 -43 -12 -77 -27 -77h-76c-102 0 -156 26 -173 113l-7 28l-5 -3c-47 -34 -93 -63 -145 -84c66 -26 79 -36 89 -57c43 -32 22 -103 -14 -132c-44 -39 -147 -81 -290 -81c-152 0 -232 67 -220 212c5 66 23 147 41 218l72 -5l7 -11
c-9 -45 -22 -107 -29 -155c-12 -95 43 -113 146 -113c86 0 158 22 202 39l-172 69l-4 10l38 97c73 6 138 29 216 79l58 36l-158 53c-17 6 -27 8 -36 7s-17 -7 -24 -16l-38 -58h-9l-54 62l39 71c24 44 49 70 96 70c51 -1 201 -67 326 -98c15 -4 29 -7 43 -10l53 -11l5 -13
l-43 -113l-83 15l-36 -26l1 -6c7 -31 38 -34 94 -34h90z" />
    <glyph glyph-name="uniFD00" unicode="&#xfd00;" horiz-adv-x="872" arabic-form="isolated" 
d="M45 -4c5 66 23 147 41 218l72 -5l7 -11c-9 -45 -22 -107 -29 -155c-12 -95 43 -113 146 -113c86 0 158 22 202 39l-172 69l-4 10l38 97c73 6 138 29 216 79l58 36l-158 53c-17 6 -27 8 -36 7s-17 -7 -24 -16l-38 -58h-9l-54 62l39 71c24 44 49 70 96 70
c51 -1 201 -67 326 -98c15 -4 29 -7 43 -10l53 -11l5 -13l-43 -113l-83 15l-112 -81c-47 -34 -93 -63 -145 -84c66 -26 79 -36 89 -57c43 -32 22 -103 -14 -132c-44 -39 -147 -81 -290 -81c-152 0 -232 67 -220 212zM358 -392l-94 43v15l37 80l94 -44v-14zM215 -400l-94 43
v15l37 80l94 -44v-14z" />
    <glyph glyph-name="uniFD1C" unicode="&#xfd1c;" horiz-adv-x="872" arabic-form="final" 
d="M886 153c15 0 27 -34 27 -76c0 -43 -12 -77 -27 -77h-76c-102 0 -156 26 -173 113l-7 28l-5 -3c-47 -34 -93 -63 -145 -84c66 -26 79 -36 89 -57c43 -32 22 -103 -14 -132c-44 -39 -147 -81 -290 -81c-152 0 -232 67 -220 212c5 66 23 147 41 218l72 -5l7 -11
c-9 -45 -22 -107 -29 -155c-12 -95 43 -113 146 -113c86 0 158 22 202 39l-172 69l-4 10l38 97c73 6 138 29 216 79l58 36l-158 53c-17 6 -27 8 -36 7s-17 -7 -24 -16l-38 -58h-9l-54 62l39 71c24 44 49 70 96 70c51 -1 201 -67 326 -98c15 -4 29 -7 43 -10l53 -11l5 -13
l-43 -113l-83 15l-36 -26l1 -6c7 -31 38 -34 94 -34h90zM264 -334l37 80l94 -44v-14l-37 -80l-94 43v15zM121 -342l37 80l94 -44v-14l-37 -80l-94 43v15z" />
    <glyph glyph-name="uniFD03" unicode="&#xfd03;" horiz-adv-x="907" arabic-form="isolated" 
d="M453 511l-103 46v17l41 88l103 -49v-15zM45 -4c5 66 23 147 41 218l72 -5l7 -11c-9 -45 -22 -107 -29 -155c-12 -95 43 -113 146 -113c86 0 158 22 202 39l-172 69l-4 10l38 97c73 6 138 29 216 79l58 36l-158 53c-17 6 -27 8 -36 7s-17 -7 -24 -16l-38 -58h-9l-54 62
l39 71c24 44 49 70 96 70c51 -1 201 -67 326 -98c15 -4 29 -7 43 -10l53 -11l5 -13l-43 -113l-83 15l-112 -81c-47 -34 -93 -63 -145 -84c66 -26 79 -36 89 -57c43 -32 22 -103 -14 -132c-44 -39 -147 -81 -290 -81c-152 0 -232 67 -220 212z" />
    <glyph glyph-name="uniFD1F" unicode="&#xfd1f;" horiz-adv-x="886" arabic-form="final" 
d="M494 598l-41 -87l-103 46v17l41 88l103 -49v-15zM886 153c15 0 27 -34 27 -76c0 -43 -12 -77 -27 -77h-76c-102 0 -156 26 -173 113l-7 28l-5 -3c-47 -34 -93 -63 -145 -84c66 -26 79 -36 89 -57c43 -32 22 -103 -14 -132c-44 -39 -147 -81 -290 -81
c-152 0 -232 67 -220 212c5 66 23 147 41 218l72 -5l7 -11c-9 -45 -22 -107 -29 -155c-12 -95 43 -113 146 -113c86 0 158 22 202 39l-172 69l-4 10l38 97c73 6 138 29 216 79l58 36l-158 53c-17 6 -27 8 -36 7s-17 -7 -24 -16l-38 -58h-9l-54 62l39 71c24 44 49 70 96 70
c51 -1 201 -67 326 -98c15 -4 29 -7 43 -10l53 -11l5 -13l-43 -113l-83 15l-36 -26l1 -6c7 -31 38 -34 94 -34h90z" />
    <glyph glyph-name="uniFD04" unicode="&#xfd04;" horiz-adv-x="907" arabic-form="isolated" 
d="M453 511l-103 46v17l41 88l103 -49v-15zM45 -4c5 66 23 147 41 218l72 -5l7 -11c-9 -45 -22 -107 -29 -155c-12 -95 43 -113 146 -113c86 0 158 22 202 39l-172 69l-4 10l38 97c73 6 138 29 216 79l58 36l-158 53c-17 6 -27 8 -36 7s-17 -7 -24 -16l-38 -58h-9l-54 62
l39 71c24 44 49 70 96 70c51 -1 201 -67 326 -98c15 -4 29 -7 43 -10l53 -11l5 -13l-43 -113l-83 15l-112 -81c-47 -34 -93 -63 -145 -84c66 -26 79 -36 89 -57c43 -32 22 -103 -14 -132c-44 -39 -147 -81 -290 -81c-152 0 -232 67 -220 212zM370 -398l-94 43v15l38 80
l94 -45v-14zM227 -406l-94 43v15l38 80l94 -45v-14z" />
    <glyph glyph-name="uniFD20" unicode="&#xfd20;" horiz-adv-x="886" arabic-form="final" 
d="M494 598l-41 -87l-103 46v17l41 88l103 -49v-15zM886 153c15 0 27 -34 27 -76c0 -43 -12 -77 -27 -77h-76c-102 0 -156 26 -173 113l-7 28l-5 -3c-47 -34 -93 -63 -145 -84c66 -26 79 -36 89 -57c43 -32 22 -103 -14 -132c-44 -39 -147 -81 -290 -81
c-152 0 -232 67 -220 212c5 66 23 147 41 218l72 -5l7 -11c-9 -45 -22 -107 -29 -155c-12 -95 43 -113 146 -113c86 0 158 22 202 39l-172 69l-4 10l38 97c73 6 138 29 216 79l58 36l-158 53c-17 6 -27 8 -36 7s-17 -7 -24 -16l-38 -58h-9l-54 62l39 71c24 44 49 70 96 70
c51 -1 201 -67 326 -98c15 -4 29 -7 43 -10l53 -11l5 -13l-43 -113l-83 15l-36 -26l1 -6c7 -31 38 -34 94 -34h90zM276 -340l38 80l94 -45v-14l-38 -79l-94 43v15zM133 -348l38 80l94 -45v-14l-38 -79l-94 43v15z" />
    <glyph glyph-name="uniFD0E" unicode="&#xfd0e;" horiz-adv-x="1061" arabic-form="isolated" 
d="M87 -236c-29 -3 -89 15 -125 32l-26 93l7 10c36 -4 75 -6 100 -5c94 7 144 79 170 127c-6 40 -13 87 -26 158l46 80l226 55l31 -77c22 -54 37 -84 101 -84c85 0 111 24 112 76l1 53l87 2v-115c18 -10 43 -16 68 -16c19 0 37 5 50 14l-26 178l100 63l10 -7
c8 -57 15 -102 19 -139c3 -26 5 -48 5 -66c0 -21 -2 -41 -7 -58c-20 -84 -85 -138 -161 -138c-38 0 -78 10 -103 30c-6 4 -11 9 -15 14c-25 -25 -75 -44 -139 -44c-83 0 -126 37 -154 103l-31 70l-105 -28c4 -37 6 -65 6 -86c-4 -156 -115 -288 -221 -295z" />
    <glyph glyph-name="uniFD2A" unicode="&#xfd2a;" horiz-adv-x="1137" arabic-form="final" 
d="M87 -236c-29 -3 -89 15 -125 32l-26 93l7 10c36 -4 75 -6 100 -5c94 7 144 79 170 127c-6 40 -13 87 -26 158l46 80l226 55l31 -77c22 -54 44 -84 101 -84c85 0 111 24 112 76l1 53l87 2v-115c18 -10 43 -16 67 -16c20 0 38 5 51 14l-22 147l77 56l12 -7l18 -116
c11 -73 36 -94 103 -94h40c14 0 26 -34 26 -76c0 -43 -12 -77 -26 -77h-33c-74 0 -113 20 -136 59c-25 -36 -68 -59 -125 -59c-37 0 -77 11 -101 33c-4 3 -8 7 -11 11c-25 -25 -75 -44 -139 -44c-76 0 -126 37 -154 103l-31 70l-105 -28c4 -39 6 -66 6 -90
c-5 -155 -116 -284 -221 -291z" />
    <glyph glyph-name="uniFCE7" unicode="&#xfce7;" horiz-adv-x="1161" arabic-form="medial" 
d="M322 -126l-82 78c-46 45 -74 48 -115 48h-125c-15 0 -26 34 -26 77c0 42 11 76 26 76h108c25 0 44 -2 63 -6l3 13c1 4 3 8 5 12c1 5 4 11 7 16c27 60 97 147 148 147c36 1 50 -19 115 -80c86 -83 109 -102 173 -102c79 0 102 25 105 76l5 53l83 2v-115
c18 -10 43 -16 68 -16c19 0 38 5 51 14l-23 147l77 56l13 -7l18 -116c11 -73 35 -94 103 -94h39c15 0 26 -34 26 -76c0 -43 -11 -77 -26 -77h-33c-74 0 -113 20 -136 59c-4 -6 -9 -12 -14 -17c-26 -26 -63 -42 -110 -42c-34 0 -72 9 -96 29c-6 4 -12 9 -16 15
c-26 -25 -76 -44 -128 -44c-101 0 -143 42 -219 115c-50 47 -74 73 -88 73c-18 0 -57 -48 -68 -73c12 -19 44 -48 72 -76l80 -76l-71 -89h-12z" />
    <glyph glyph-name="uniFCB0" unicode="&#xfcb0;" horiz-adv-x="1085" arabic-form="initial" 
d="M322 -126l-82 78c-46 45 -74 48 -115 48h-125c-15 0 -26 34 -26 77c0 42 11 76 26 76h108c25 0 44 -2 63 -6l3 9c2 7 5 19 8 22c4 12 11 25 20 39c31 56 88 118 132 118c36 1 50 -19 115 -80c86 -83 109 -102 173 -102c79 0 102 25 105 76l5 53l83 2v-115
c18 -10 43 -16 68 -16c19 0 38 4 51 14l-27 178l100 63l11 -7c7 -51 13 -93 17 -128c4 -31 6 -57 6 -77c0 -38 -8 -72 -22 -101c-29 -59 -83 -95 -145 -95c-36 0 -75 9 -101 27c-7 5 -13 11 -17 17c-26 -25 -76 -44 -128 -44c-101 0 -143 42 -219 115c-50 47 -74 73 -88 73
c-18 0 -57 -48 -68 -73c11 -17 40 -44 66 -70c28 -27 57 -56 86 -82l-71 -89h-12z" />
    <glyph glyph-name="uniFCE8" unicode="&#xfce8;" horiz-adv-x="1316" arabic-form="medial" 
d="M220 -236c-79 83 -121 165 -126 236h-94c-15 0 -26 34 -26 77c0 42 11 76 26 76h102c19 94 38 167 66 265l96 66l74 -80c75 -82 83 -125 83 -172c0 -33 -6 -70 -30 -104c-38 -56 -95 -96 -199 -115c10 -52 43 -96 84 -137c26 44 51 85 75 124c65 112 115 184 181 281h84
c47 -89 78 -128 158 -128c76 0 107 23 108 76l2 53l86 2v-115c18 -10 44 -16 68 -16c20 0 38 5 51 14l-23 147l77 56l12 -7c7 -39 12 -77 19 -116c10 -73 35 -94 103 -94h39c15 0 26 -34 26 -76c0 -43 -11 -77 -26 -77h-33c-74 0 -113 20 -136 59c-3 -4 -5 -8 -8 -11
c-26 -30 -65 -48 -116 -48c-35 0 -74 10 -97 31c-6 4 -11 8 -16 13c-25 -24 -73 -44 -132 -44c-97 0 -158 47 -217 137c-44 -62 -107 -158 -142 -218l-92 -155h-107zM192 155c86 5 126 39 140 64c0 21 -36 69 -88 125c-24 -74 -38 -120 -52 -189z" />
    <glyph glyph-name="uniFD31" unicode="&#xfd31;" horiz-adv-x="1240" arabic-form="initial" 
d="M220 -236c-79 83 -121 165 -126 237l-94 -1c-15 0 -26 34 -26 77c0 42 11 76 26 76h102c19 94 38 167 66 265l96 66l74 -80c75 -82 83 -125 83 -172c0 -30 -4 -63 -24 -94c-37 -59 -97 -105 -205 -125c10 -52 43 -96 84 -137l70 116c68 116 118 189 186 289h84
c47 -89 78 -128 158 -128c76 0 107 23 108 76l2 53l86 2v-115c18 -10 43 -16 68 -16c19 0 38 4 51 14l-27 178l100 63l11 -7c11 -84 18 -134 20 -174c2 -24 2 -47 -1 -64c-4 -28 -12 -55 -24 -77c-29 -53 -80 -86 -139 -86c-34 0 -71 7 -96 24c-9 5 -17 12 -23 20
c-25 -24 -73 -44 -132 -44c-97 0 -158 47 -217 137c-44 -62 -107 -158 -142 -218l-92 -155h-107zM192 155c86 5 126 39 140 64c0 21 -36 69 -88 125c-24 -74 -38 -120 -52 -189z" />
    <glyph glyph-name="uniFCFB" unicode="&#xfcfb;" horiz-adv-x="1286" arabic-form="isolated" 
d="M265 -280c-135 0 -229 56 -220 206c4 67 22 150 41 224l72 -5l7 -11c-9 -46 -25 -116 -29 -157c-9 -94 47 -111 150 -111c114 0 201 34 252 53c2 26 -6 31 -47 32h-57c-115 0 -172 30 -161 115c12 129 146 291 236 291c38 0 52 -16 119 -86c15 -17 31 -33 44 -46
c57 -56 83 -72 149 -72c77 0 104 25 107 76l4 53l84 2v-115c18 -10 44 -16 69 -16c19 0 37 5 50 14l-27 178l100 63l11 -7c7 -49 13 -89 17 -123s7 -60 7 -82c0 -26 -4 -51 -11 -73c-24 -76 -85 -123 -157 -123c-37 0 -78 10 -103 30c-6 4 -11 9 -15 14
c-29 -27 -74 -44 -136 -44c-86 0 -135 33 -195 94l-58 58c-44 45 -67 74 -90 74c-42 0 -105 -98 -124 -141c22 -19 52 -23 133 -23c113 0 139 -47 139 -102c0 -53 -22 -121 -63 -154c-53 -45 -167 -86 -298 -86z" />
    <glyph glyph-name="uniFD17" unicode="&#xfd17;" horiz-adv-x="1362" arabic-form="final" 
d="M265 -280c-135 0 -229 56 -220 206c4 67 22 150 41 224l72 -5l7 -11c-9 -46 -25 -116 -29 -157c-9 -94 47 -111 150 -111c114 0 201 34 252 53c2 27 -7 32 -55 32h-49c-115 0 -172 30 -161 115c12 129 146 291 236 291c38 0 52 -16 119 -86l34 -37c63 -64 89 -81 159 -81
c77 0 104 25 107 76l4 53l84 2v-115c18 -10 44 -16 69 -16c19 0 37 5 50 14l-22 147l77 56l12 -7l18 -116c11 -73 36 -94 103 -94h39c15 0 27 -34 27 -76c0 -43 -12 -77 -27 -77h-33c-74 0 -113 20 -136 59c-3 -5 -7 -9 -10 -13c-26 -29 -65 -46 -114 -46
c-34 0 -70 9 -95 27c-7 5 -13 11 -17 17c-30 -27 -74 -44 -136 -44c-91 0 -140 37 -204 103l-49 49c-44 45 -67 74 -90 74c-42 0 -105 -98 -124 -141c22 -19 52 -23 133 -23c113 0 139 -47 139 -102c0 -53 -22 -121 -63 -154c-53 -45 -167 -86 -298 -86z" />
    <glyph glyph-name="uniFCFC" unicode="&#xfcfc;" horiz-adv-x="1286" arabic-form="isolated" 
d="M265 -280c-135 0 -229 56 -220 206c4 67 22 150 41 224l72 -5l7 -11c-9 -46 -25 -116 -29 -157c-9 -94 47 -111 150 -111c114 0 201 34 252 53c2 26 -6 31 -47 32h-57c-115 0 -172 30 -161 115c12 129 146 291 236 291c38 0 52 -16 119 -86c15 -17 31 -33 44 -46
c57 -56 83 -72 149 -72c77 0 104 25 107 76l4 53l84 2v-115c18 -10 44 -16 69 -16c19 0 37 5 50 14l-27 178l100 63l11 -7c7 -49 13 -89 17 -123s7 -60 7 -82c0 -26 -4 -51 -11 -73c-24 -76 -85 -123 -157 -123c-37 0 -78 10 -103 30c-6 4 -11 9 -15 14
c-29 -27 -74 -44 -136 -44c-86 0 -135 33 -195 94l-58 58c-44 45 -67 74 -90 74c-42 0 -105 -98 -124 -141c22 -19 52 -23 133 -23c113 0 139 -47 139 -102c0 -53 -22 -121 -63 -154c-53 -45 -167 -86 -298 -86zM408 -464l-94 43v15l37 80l94 -45v-14zM265 -472l-94 43v15
l37 80l94 -45v-14z" />
    <glyph glyph-name="uniFD18" unicode="&#xfd18;" horiz-adv-x="1362" arabic-form="final" 
d="M265 -280c-135 0 -229 56 -220 206c4 67 22 150 41 224l72 -5l7 -11c-9 -46 -25 -116 -29 -157c-9 -94 47 -111 150 -111c114 0 201 34 252 53c2 27 -7 32 -55 32h-49c-115 0 -172 30 -161 115c12 129 146 291 236 291c38 0 52 -16 119 -86l34 -37c63 -64 89 -81 159 -81
c77 0 104 25 107 76l4 53l84 2v-115c18 -10 44 -16 69 -16c19 0 37 5 50 14l-22 147l77 56l12 -7l18 -116c11 -73 36 -94 103 -94h39c15 0 27 -34 27 -76c0 -43 -12 -77 -27 -77h-33c-74 0 -113 20 -136 59c-3 -5 -7 -9 -10 -13c-26 -29 -65 -46 -114 -46
c-34 0 -70 9 -95 27c-7 5 -13 11 -17 17c-30 -27 -74 -44 -136 -44c-91 0 -140 37 -204 103l-49 49c-44 45 -67 74 -90 74c-42 0 -105 -98 -124 -141c22 -19 52 -23 133 -23c113 0 139 -47 139 -102c0 -53 -22 -121 -63 -154c-53 -45 -167 -86 -298 -86zM408 -464l-94 43v15
l37 80l94 -45v-14zM265 -472l-94 43v15l37 80l94 -45v-14z" />
    <glyph glyph-name="uniFD0D" unicode="&#xfd0d;" horiz-adv-x="1061" arabic-form="isolated" 
d="M713 514l-88 41v14l36 75l88 -43v-13zM817 391l-95 43v14l38 81l94 -45v-14zM671 383l-94 43v14l37 81l94 -45v-14zM87 -236c-29 -3 -89 15 -125 32l-26 93l7 10c36 -4 75 -6 100 -5c94 7 144 79 170 127c-6 40 -13 87 -26 158l46 80l226 55l31 -77
c22 -54 37 -84 101 -84c85 0 111 24 112 76l1 53l87 2v-115c18 -10 43 -16 68 -16c19 0 37 5 50 14l-26 178l100 63l10 -7c8 -57 15 -102 19 -139c3 -26 5 -48 5 -66c0 -21 -2 -41 -7 -58c-20 -84 -85 -138 -161 -138c-38 0 -78 10 -103 30c-6 4 -11 9 -15 14
c-25 -25 -75 -44 -139 -44c-83 0 -126 37 -154 103l-31 70l-105 -28c4 -37 6 -65 6 -86c-4 -156 -115 -288 -221 -295z" />
    <glyph glyph-name="uniFD29" unicode="&#xfd29;" horiz-adv-x="1137" arabic-form="final" 
d="M713 514l-88 41v14l36 75l88 -43v-13zM817 391l-95 43v14l38 81l94 -45v-14zM671 383l-94 43v14l37 81l94 -45v-14zM87 -236c-29 -3 -89 15 -125 32l-26 93l7 10c36 -4 75 -6 100 -5c94 7 144 79 170 127c-6 40 -13 87 -26 158l46 80l226 55l31 -77
c22 -54 44 -84 101 -84c85 0 111 24 112 76l1 53l87 2v-115c18 -10 43 -16 67 -16c20 0 38 5 51 14l-22 147l77 56l12 -7l18 -116c11 -73 36 -94 103 -94h40c14 0 26 -34 26 -76c0 -43 -12 -77 -26 -77h-33c-74 0 -113 20 -136 59c-25 -36 -68 -59 -125 -59
c-37 0 -77 11 -101 33c-4 3 -8 7 -11 11c-25 -25 -75 -44 -139 -44c-76 0 -126 37 -154 103l-31 70l-105 -28c4 -39 6 -66 6 -90c-5 -155 -116 -284 -221 -291z" />
    <glyph glyph-name="uniFCE9" unicode="&#xfce9;" horiz-adv-x="1161" arabic-form="medial" 
d="M733 516l-89 41v14l36 75l88 -43v-13zM836 393l-94 43v14l37 81l94 -45v-14zM690 385l-94 43v14l37 81l94 -45v-14zM322 -126l-82 78c-46 45 -74 48 -115 48h-125c-15 0 -26 34 -26 77c0 42 11 76 26 76h108c25 0 44 -2 63 -6l3 13c1 4 3 8 5 12c1 5 4 11 7 16
c27 60 97 147 148 147c36 1 50 -19 115 -80c86 -83 109 -102 173 -102c79 0 102 25 105 76l5 53l83 2v-115c18 -10 43 -16 68 -16c19 0 38 5 51 14l-23 147l77 56l13 -7l18 -116c11 -73 35 -94 103 -94h39c15 0 26 -34 26 -76c0 -43 -11 -77 -26 -77h-33
c-74 0 -113 20 -136 59c-4 -6 -9 -12 -14 -17c-26 -26 -63 -42 -110 -42c-34 0 -72 9 -96 29c-6 4 -12 9 -16 15c-26 -25 -76 -44 -128 -44c-101 0 -143 42 -219 115c-50 47 -74 73 -88 73c-18 0 -57 -48 -68 -73c12 -19 44 -48 72 -76l80 -76l-71 -89h-12z" />
    <glyph glyph-name="uniFD30" unicode="&#xfd30;" horiz-adv-x="1085" arabic-form="initial" 
d="M733 516l-89 41v14l36 75l88 -43v-13zM836 393l-94 43v14l37 81l94 -45v-14zM690 385l-94 43v14l37 81l94 -45v-14zM322 -126l-82 78c-46 45 -74 48 -115 48h-125c-15 0 -26 34 -26 77c0 42 11 76 26 76h108c25 0 44 -2 63 -6l3 9c2 7 5 19 8 22c4 12 11 25 20 39
c31 56 88 118 132 118c36 1 50 -19 115 -80c86 -83 109 -102 173 -102c79 0 102 25 105 76l5 53l83 2v-115c18 -10 43 -16 68 -16c19 0 38 4 51 14l-27 178l100 63l11 -7c7 -51 13 -93 17 -128c4 -31 6 -57 6 -77c0 -38 -8 -72 -22 -101c-29 -59 -83 -95 -145 -95
c-36 0 -75 9 -101 27c-7 5 -13 11 -17 17c-26 -25 -76 -44 -128 -44c-101 0 -143 42 -219 115c-50 47 -74 73 -88 73c-18 0 -57 -48 -68 -73c11 -17 40 -44 66 -70c28 -27 57 -56 86 -82l-71 -89h-12z" />
    <glyph glyph-name="uniFCEA" unicode="&#xfcea;" horiz-adv-x="1316" arabic-form="medial" 
d="M887 514l-89 41v14l36 75l88 -43v-13zM990 391l-94 43v14l37 81l94 -45v-14zM844 383l-94 43v14l37 81l94 -45v-14zM220 -236c-79 83 -121 165 -126 236h-94c-15 0 -26 34 -26 77c0 42 11 76 26 76h102c19 94 38 167 66 265l96 66l74 -80c75 -82 83 -125 83 -172
c0 -33 -6 -70 -30 -104c-38 -56 -95 -96 -199 -115c10 -52 43 -96 84 -137c26 44 51 85 75 124c65 112 115 184 181 281h84c47 -89 78 -128 158 -128c76 0 107 23 108 76l2 53l86 2v-115c18 -10 44 -16 68 -16c20 0 38 5 51 14l-23 147l77 56l12 -7c7 -39 12 -77 19 -116
c10 -73 35 -94 103 -94h39c15 0 26 -34 26 -76c0 -43 -11 -77 -26 -77h-33c-74 0 -113 20 -136 59c-3 -4 -5 -8 -8 -11c-26 -30 -65 -48 -116 -48c-35 0 -74 10 -97 31c-6 4 -11 8 -16 13c-25 -24 -73 -44 -132 -44c-97 0 -158 47 -217 137c-44 -62 -107 -158 -142 -218
l-92 -155h-107zM192 155c86 5 126 39 140 64c0 21 -36 69 -88 125c-24 -74 -38 -120 -52 -189z" />
    <glyph glyph-name="uniFD32" unicode="&#xfd32;" horiz-adv-x="1240" arabic-form="initial" 
d="M873 514l-89 41v14l36 75l88 -43v-13zM976 391l-94 43v14l37 81l94 -45v-14zM830 383l-94 43v14l37 81l94 -45v-14zM220 -236c-79 83 -121 165 -126 237l-94 -1c-15 0 -26 34 -26 77c0 42 11 76 26 76h102c19 94 38 167 66 265l96 66l74 -80c75 -82 83 -125 83 -172
c0 -30 -4 -63 -24 -94c-37 -59 -97 -105 -205 -125c10 -52 43 -96 84 -137l70 116c68 116 118 189 186 289h84c47 -89 78 -128 158 -128c76 0 107 23 108 76l2 53l86 2v-115c18 -10 43 -16 68 -16c19 0 38 4 51 14l-27 178l100 63l11 -7c11 -84 18 -134 20 -174
c2 -24 2 -47 -1 -64c-4 -28 -12 -55 -24 -77c-29 -53 -80 -86 -139 -86c-34 0 -71 7 -96 24c-9 5 -17 12 -23 20c-25 -24 -73 -44 -132 -44c-97 0 -158 47 -217 137c-44 -62 -107 -158 -142 -218l-92 -155h-107zM192 155c86 5 126 39 140 64c0 21 -36 69 -88 125
c-24 -74 -38 -120 -52 -189z" />
    <glyph glyph-name="uniFCFD" unicode="&#xfcfd;" horiz-adv-x="1286" arabic-form="isolated" 
d="M930 507l-89 41v14l36 75l88 -43v-13zM1033 384l-94 43v14l37 81l94 -45v-14zM887 376l-94 43v14l37 81l94 -45v-14zM265 -280c-135 0 -229 56 -220 206c4 67 22 150 41 224l72 -5l7 -11c-9 -46 -25 -116 -29 -157c-9 -94 47 -111 150 -111c114 0 201 34 252 53
c2 26 -6 31 -47 32h-57c-115 0 -172 30 -161 115c12 129 146 291 236 291c38 0 52 -16 119 -86c15 -17 31 -33 44 -46c57 -56 83 -72 149 -72c77 0 104 25 107 76l4 53l84 2v-115c18 -10 44 -16 69 -16c19 0 37 5 50 14l-27 178l100 63l11 -7c7 -49 13 -89 17 -123
s7 -60 7 -82c0 -26 -4 -51 -11 -73c-24 -76 -85 -123 -157 -123c-37 0 -78 10 -103 30c-6 4 -11 9 -15 14c-29 -27 -74 -44 -136 -44c-86 0 -135 33 -195 94l-58 58c-44 45 -67 74 -90 74c-42 0 -105 -98 -124 -141c22 -19 52 -23 133 -23c113 0 139 -47 139 -102
c0 -53 -22 -121 -63 -154c-53 -45 -167 -86 -298 -86z" />
    <glyph glyph-name="uniFD19" unicode="&#xfd19;" horiz-adv-x="1362" arabic-form="final" 
d="M930 507l-89 41v14l36 75l88 -43v-13zM1033 384l-94 43v14l37 81l94 -45v-14zM887 376l-94 43v14l37 81l94 -45v-14zM265 -280c-135 0 -229 56 -220 206c4 67 22 150 41 224l72 -5l7 -11c-9 -46 -25 -116 -29 -157c-9 -94 47 -111 150 -111c114 0 201 34 252 53
c2 27 -7 32 -55 32h-49c-115 0 -172 30 -161 115c12 129 146 291 236 291c38 0 52 -16 119 -86l34 -37c63 -64 89 -81 159 -81c77 0 104 25 107 76l4 53l84 2v-115c18 -10 44 -16 69 -16c19 0 37 5 50 14l-22 147l77 56l12 -7l18 -116c11 -73 36 -94 103 -94h39
c15 0 27 -34 27 -76c0 -43 -12 -77 -27 -77h-33c-74 0 -113 20 -136 59c-3 -5 -7 -9 -10 -13c-26 -29 -65 -46 -114 -46c-34 0 -70 9 -95 27c-7 5 -13 11 -17 17c-30 -27 -74 -44 -136 -44c-91 0 -140 37 -204 103l-49 49c-44 45 -67 74 -90 74c-42 0 -105 -98 -124 -141
c22 -19 52 -23 133 -23c113 0 139 -47 139 -102c0 -53 -22 -121 -63 -154c-53 -45 -167 -86 -298 -86z" />
    </font>
</defs>
</svg>
