<?xml version="1.0" standalone="no"?>
<!DOCTYPE svg PUBLIC "-//W3C//DTD SVG 20010904//EN"
 "http://www.w3.org/TR/2001/REC-SVG-20010904/DTD/svg10.dtd">
<svg version="1.0" xmlns="http://www.w3.org/2000/svg"
 width="792.000000pt" height="792.000000pt" viewBox="0 0 792.000000 792.000000"
 preserveAspectRatio="xMidYMid meet">
<metadata>
Created by potrace 1.14, written by Peter Selinger 2001-2017
</metadata>
<g transform="translate(0.000000,792.000000) scale(0.100000,-0.100000)"
fill="#000000" stroke="none">
<path d="M12 7576 l3 -341 50 -1 c45 -1 114 -7 230 -21 48 -5 181 -40 207 -54
10 -5 18 -7 18 -5 0 15 92 -45 136 -89 74 -74 125 -198 139 -341 3 -27 7 -67
10 -89 3 -22 7 -78 10 -125 7 -117 6 -5127 -1 -5220 -3 -41 -6 -97 -8 -125 -3
-43 -12 -98 -30 -190 -9 -48 -48 -142 -72 -177 -23 -32 -67 -76 -122 -119 -10
-8 -43 -21 -152 -57 -8 -3 -22 -6 -30 -7 -8 -1 -33 -5 -55 -10 -57 -11 -155
-22 -275 -30 -19 -2 -41 -3 -47 -4 -10 -1 -13 -65 -13 -284 l0 -284 2733 3
c2330 2 2862 5 2862 14 0 1 20 3 45 5 53 4 125 13 160 19 14 3 48 7 75 11 28
3 67 11 89 16 21 6 41 8 44 5 3 -3 11 -1 19 5 7 6 13 9 13 7 0 -3 26 1 58 9
50 12 77 18 117 27 6 1 37 10 70 20 33 10 65 19 70 21 14 3 23 6 170 60 131
48 322 138 405 190 113 70 159 102 220 149 194 150 350 344 474 591 34 66 66
134 73 150 56 147 79 216 108 330 19 73 36 143 39 156 2 13 7 40 11 59 14 77
28 185 29 237 1 18 4 33 7 33 4 0 5 129 4 287 -1 159 -3 288 -4 288 -1 0 -4
27 -6 60 -2 33 -7 83 -10 110 -4 28 -8 64 -11 80 -13 105 -29 198 -48 290 -24
108 -72 268 -94 310 -9 17 -15 31 -15 32 9 13 -95 225 -148 305 -22 32 -39 62
-39 67 0 5 -3 11 -7 13 -5 2 -27 28 -50 58 -56 73 -152 173 -233 240 -36 30
-66 58 -68 63 -2 4 -10 7 -18 7 -8 0 -14 4 -14 8 0 5 -12 15 -27 23 -16 8 -30
17 -33 20 -12 14 -100 69 -109 69 -6 0 -11 5 -11 10 0 6 -6 10 -12 10 -14 1
-63 38 -57 44 2 2 20 11 39 21 76 39 193 149 265 250 265 371 343 1031 190
1605 -14 52 -27 100 -28 105 -13 47 -51 152 -58 160 -5 5 -9 15 -9 23 0 19
-101 225 -151 307 -35 58 -112 168 -163 233 -41 52 -224 228 -286 275 -41 31
-81 62 -87 67 -7 6 -43 29 -80 53 -38 23 -70 44 -73 48 -3 4 -57 32 -120 63
-147 71 -319 128 -425 141 -17 2 -43 6 -58 9 -15 3 -37 8 -49 10 -22 4 -102
13 -218 23 -30 3 -1296 6 -2813 7 l-2757 2 2 -340z m4655 -349 c117 -1 213 -4
213 -7 0 -3 24 -5 53 -5 28 0 84 -4 122 -8 112 -14 124 -16 200 -34 17 -4 32
-7 35 -8 51 -11 144 -46 215 -80 155 -76 253 -176 313 -320 48 -114 63 -347
30 -467 -61 -226 -231 -357 -703 -543 -66 -26 -133 -53 -150 -60 -104 -45
-129 -55 -141 -55 -8 0 -14 -5 -14 -10 0 -6 -3 -9 -7 -8 -13 4 -193 -85 -193
-94 0 -5 -3 -7 -8 -4 -4 2 -26 -9 -50 -25 -23 -16 -45 -29 -49 -29 -5 0 -102
-68 -113 -80 -3 -3 -27 -23 -55 -45 -77 -62 -174 -162 -248 -257 -37 -47 -67
-88 -67 -91 0 -3 -13 -25 -29 -49 -54 -82 -133 -275 -146 -359 -2 -19 -9 -54
-14 -79 -5 -25 -8 -106 -7 -180 2 -112 6 -143 23 -180 41 -89 109 -129 197
-115 22 4 47 7 54 8 6 0 12 4 12 9 0 4 6 8 13 8 11 0 34 11 90 43 35 21 361
235 374 246 7 6 17 11 23 11 5 0 10 5 10 11 0 5 5 7 10 4 10 -6 -34 -102 -53
-116 -5 -3 -8 -10 -6 -14 1 -4 -3 -14 -10 -24 -6 -9 -30 -44 -52 -79 -22 -34
-63 -86 -89 -115 -42 -46 -57 -55 -107 -67 -32 -7 -76 -14 -98 -16 -319 -25
-336 -38 -445 -339 -12 -33 -24 -71 -26 -84 -3 -13 -9 -31 -13 -40 -6 -12 -26
-84 -36 -131 -1 -3 -7 -30 -13 -60 -29 -133 -36 -190 -36 -320 0 -181 21 -266
106 -438 64 -129 171 -230 250 -237 27 -3 37 8 19 20 -12 7 -51 110 -58 155
-7 41 -9 227 -3 234 3 2 32 6 65 10 76 7 98 10 110 18 6 3 28 11 50 18 22 7
57 24 77 37 21 12 40 23 43 23 11 0 136 93 165 123 14 15 26 17 61 11 24 -3
54 -8 66 -9 11 -2 31 -6 43 -10 12 -4 32 -8 43 -10 12 -2 31 -6 42 -9 17 -5
57 -15 115 -31 8 -2 34 -10 58 -19 23 -8 42 -13 42 -9 0 3 6 1 13 -5 6 -5 50
-25 97 -42 47 -18 92 -39 101 -46 8 -8 21 -14 28 -14 20 0 141 -82 199 -135
61 -55 126 -137 175 -221 35 -58 104 -216 110 -251 2 -10 7 -25 10 -33 8 -19
25 -86 31 -125 3 -16 8 -41 11 -55 18 -85 25 -346 11 -435 -20 -136 -95 -299
-197 -430 -85 -108 -292 -289 -372 -326 -15 -7 -27 -16 -27 -21 0 -4 -6 -8
-14 -8 -7 0 -33 -11 -57 -23 -48 -26 -184 -73 -239 -83 -64 -11 -266 -14
-1427 -20 -634 -3 -1154 -2 -1154 3 -3 17 -5 6648 -3 6654 3 5 1832 2 2401 -4z"/>
</g>
</svg>
